<?xml version="1.0" standalone="no"?>
<!DOCTYPE svg PUBLIC "-//W3C//DTD SVG 1.1//EN" "http://www.w3.org/Graphics/SVG/1.1/DTD/svg11.dtd" >
<svg>
<metadata>
Created by FontForge 20090622 at Wed Dec 23 00:30:15 2015
 By deploy user
(c) Copyright The Font Bureau, Inc. 2014. All rights reserved.
</metadata>
<defs>
<font id="Input-Bold" horiz-adv-x="708" >
  <font-face 
    font-family="Input"
    font-weight="700"
    font-stretch="condensed"
    units-per-em="1100"
    panose-1="2 0 8 6 3 0 0 9 0 4"
    ascent="850"
    descent="-250"
    x-height="600"
    bbox="-278 -450 1499 1400"
    underline-thickness="0"
    underline-position="0"
    unicode-range="U+000D-U+1F41B"
  />
<missing-glyph horiz-adv-x="791" 
d="M50 -250v1100h691v-1100h-691zM150 -150h491v900h-491v-900z" />
    <glyph glyph-name=".notdef" horiz-adv-x="791" 
d="M50 -250v1100h691v-1100h-691zM150 -150h491v900h-491v-900z" />
    <glyph glyph-name="NULL" horiz-adv-x="0" 
 />
    <glyph glyph-name="nonmarkingreturn" unicode="&#xd;" horiz-adv-x="0" 
 />
    <glyph glyph-name="space" unicode="&#xa0;" horiz-adv-x="510" 
 />
    <glyph glyph-name="space" unicode=" " horiz-adv-x="510" 
 />
    <glyph glyph-name="A" unicode="A" horiz-adv-x="688" 
d="M400 328l-64 322l-65 -322h129zM466 0l-38 190h-185l-39 -190h-171l186 800h252l184 -800h-189z" />
    <glyph glyph-name="Agrave" unicode="&#xc0;" horiz-adv-x="688" 
d="M33 0zM400 328l-64 322l-65 -322h129zM466 0l-38 190h-185l-39 -190h-171l186 800h252l184 -800h-189zM324 900l-194 200h229l82 -200h-117z" />
    <glyph glyph-name="Aacute" unicode="&#xc1;" horiz-adv-x="688" 
d="M33 0zM400 328l-64 322l-65 -322h129zM466 0l-38 190h-185l-39 -190h-171l186 800h252l184 -800h-189zM228 900l83 200h228l-194 -200h-117z" />
    <glyph glyph-name="Acircumflex" unicode="&#xc2;" horiz-adv-x="688" 
d="M33 0zM400 328l-64 322l-65 -322h129zM466 0l-38 190h-185l-39 -190h-171l186 800h252l184 -800h-189zM173 888l-57 80l156 157h143l157 -157l-56 -79l-173 107z" />
    <glyph glyph-name="Atilde" unicode="&#xc3;" horiz-adv-x="688" 
d="M33 0zM400 328l-64 322l-65 -322h129zM466 0l-38 190h-185l-39 -190h-171l186 800h252l184 -800h-189zM427 910q-38 0 -61 12.5t-40 36.5l-24 34t-27 15q-14 0 -24 -13.5t-10 -53.5v-21h-116v15q0 86 38 138.5t103 52.5q35 0 56.5 -12.5t39.5 -36.5l26 -34.5t26 -15.5
q16 0 25 14t9 54v20h116v-15q0 -85 -37 -137.5t-100 -52.5z" />
    <glyph glyph-name="Adieresis" unicode="&#xc4;" horiz-adv-x="688" 
d="M33 0zM400 328l-64 322l-65 -322h129zM466 0l-38 190h-185l-39 -190h-171l186 800h252l184 -800h-189zM232 894q-39 0 -63.5 16t-24.5 56v14q0 40 24.5 57.5t63.5 17.5q40 0 64.5 -17.5t24.5 -57.5v-14q0 -40 -25 -56t-64 -16zM456 894q-40 0 -64.5 16t-24.5 56v14
q0 40 24.5 57.5t64.5 17.5t64 -17.5t24 -57.5v-14q0 -40 -25 -56t-63 -16z" />
    <glyph glyph-name="Aring" unicode="&#xc5;" horiz-adv-x="688" 
d="M33 0zM400 328l-64 322l-65 -322h129zM466 0l-38 190h-185l-39 -190h-171l186 800h252l184 -800h-189zM344 877q-83 0 -134.5 37.5t-51.5 115.5v32q0 79 51.5 117.5t134.5 38.5q84 0 135 -38.5t51 -117.5v-32q0 -78 -51.5 -115.5t-134.5 -37.5zM344 964q28 0 43 15t15 51
v32q0 35 -15 52t-43 17q-29 0 -43.5 -17t-14.5 -52v-32q0 -36 14.5 -51t43.5 -15z" />
    <glyph glyph-name="Amacron" unicode="&#x100;" horiz-adv-x="688" 
d="M33 0zM400 328l-64 322l-65 -322h129zM466 0l-38 190h-185l-39 -190h-171l186 800h252l184 -800h-189zM151 931v138h386v-138h-386z" />
    <glyph glyph-name="Abreve" unicode="&#x102;" horiz-adv-x="688" 
d="M33 0zM400 328l-64 322l-65 -322h129zM466 0l-38 190h-185l-39 -190h-171l186 800h252l184 -800h-189zM344 893q-116 0 -172.5 57.5t-57.5 176.5h145q1 -71 19.5 -97t65.5 -26t65.5 26t19.5 97h145q-1 -119 -57.5 -176.5t-172.5 -57.5z" />
    <glyph glyph-name="Aogonek" unicode="&#x104;" horiz-adv-x="688" 
d="M33 0zM400 328l-64 322l-65 -322h129zM466 0l-38 190h-185l-39 -190h-171l186 800h252l184 -800h-189zM537 -222q-75 0 -116 32t-41 94q0 57 42 102.5t102 64.5l22 -48q-23 -16 -31 -35t-8 -44q0 -26 15 -39t49 -13q15 0 34 2.5t46 7.5v-111q-33 -7 -61 -10t-53 -3z" />
    <glyph glyph-name="Aringacute" unicode="&#x1fa;" horiz-adv-x="688" 
d="M33 0zM400 328l-64 322l-65 -322h129zM466 0l-38 190h-185l-39 -190h-171l186 800h252l184 -800h-189zM344 877q-83 0 -134.5 37.5t-51.5 115.5v32q0 79 51.5 117.5t134.5 38.5q84 0 135 -38.5t51 -117.5v-32q0 -78 -51.5 -115.5t-134.5 -37.5zM344 964q28 0 43 15t15 51
v32q0 35 -15 52t-43 17q-29 0 -43.5 -17t-14.5 -52v-32q0 -36 14.5 -51t43.5 -15zM256 1200l83 200h228l-194 -200h-117z" />
    <glyph glyph-name="B" unicode="B" horiz-adv-x="791" 
d="M93 0v800h348q116 0 176.5 -48t60.5 -140v-36q0 -63 -26 -94.5t-88 -43.5v-29q64 -7 97.5 -47.5t33.5 -101.5v-50q0 -102 -66 -156t-193 -54h-343zM280 476h128q48 0 67 16.5t19 58.5v44q0 42 -19 58.5t-67 16.5h-128v-194zM280 130h120q60 0 84 20t24 69v48q0 49 -24 69
t-84 20h-120v-226z" />
    <glyph glyph-name="C" unicode="C" horiz-adv-x="791" 
d="M415 -10q-168 0 -245 70.5t-77 195.5v284q0 126 77 198t245 72q154 0 229 -69.5t81 -217.5l-187 -10q-5 92 -32.5 125.5t-94.5 33.5q-75 0 -103 -31.5t-28 -117.5v-251q0 -83 28 -113.5t103 -30.5q67 0 94.5 32.5t32.5 122.5l187 -10q-6 -146 -81 -214.5t-229 -68.5z" />
    <glyph glyph-name="Ccedilla" unicode="&#xc7;" horiz-adv-x="791" 
d="M93 0zM415 -10q-168 0 -245 70.5t-77 195.5v284q0 126 77 198t245 72q154 0 229 -69.5t81 -217.5l-187 -10q-5 92 -32.5 125.5t-94.5 33.5q-75 0 -103 -31.5t-28 -117.5v-251q0 -83 28 -113.5t103 -30.5q67 0 94.5 32.5t32.5 122.5l187 -10q-6 -146 -81 -214.5
t-229 -68.5zM384 0l16 42q87 -9 132 -39t45 -92q0 -67 -54 -101t-141 -34q-90 0 -143 32.5t-57 97.5l156 10q2 -19 10 -26.5t27 -7.5q22 0 33 11t11 45q0 27 -6.5 41t-28.5 21z" />
    <glyph glyph-name="Cacute" unicode="&#x106;" horiz-adv-x="791" 
d="M93 0zM415 -10q-168 0 -245 70.5t-77 195.5v284q0 126 77 198t245 72q154 0 229 -69.5t81 -217.5l-187 -10q-5 92 -32.5 125.5t-94.5 33.5q-75 0 -103 -31.5t-28 -117.5v-251q0 -83 28 -113.5t103 -30.5q67 0 94.5 32.5t32.5 122.5l187 -10q-6 -146 -81 -214.5
t-229 -68.5zM293 900l83 200h228l-194 -200h-117z" />
    <glyph glyph-name="Ccircumflex" unicode="&#x108;" horiz-adv-x="791" 
d="M93 0zM238 888l-57 80l156 157h143l157 -157l-56 -79l-173 107zM415 -10q-168 0 -245 70.5t-77 195.5v284q0 126 77 198t245 72q154 0 229 -69.5t81 -217.5l-187 -10q-5 92 -32.5 125.5t-94.5 33.5q-75 0 -103 -31.5t-28 -117.5v-251q0 -83 28 -113.5t103 -30.5
q67 0 94.5 32.5t32.5 122.5l187 -10q-6 -146 -81 -214.5t-229 -68.5z" />
    <glyph glyph-name="Cdotaccent" unicode="&#x10a;" horiz-adv-x="791" 
d="M93 0zM415 -10q-168 0 -245 70.5t-77 195.5v284q0 126 77 198t245 72q154 0 229 -69.5t81 -217.5l-187 -10q-5 92 -32.5 125.5t-94.5 33.5q-75 0 -103 -31.5t-28 -117.5v-251q0 -83 28 -113.5t103 -30.5q67 0 94.5 32.5t32.5 122.5l187 -10q-6 -146 -81 -214.5
t-229 -68.5zM409 894q-51 0 -83 16t-32 56v14q0 40 32 57.5t83 17.5q52 0 83.5 -17.5t31.5 -57.5v-14q0 -40 -32 -56t-83 -16z" />
    <glyph glyph-name="Ccaron" unicode="&#x10c;" horiz-adv-x="791" 
d="M93 0zM338 904l-157 157l56 79l173 -107l170 108l57 -80l-156 -157h-143zM415 -10q-168 0 -245 70.5t-77 195.5v284q0 126 77 198t245 72q154 0 229 -69.5t81 -217.5l-187 -10q-5 92 -32.5 125.5t-94.5 33.5q-75 0 -103 -31.5t-28 -117.5v-251q0 -83 28 -113.5t103 -30.5
q67 0 94.5 32.5t32.5 122.5l187 -10q-6 -146 -81 -214.5t-229 -68.5z" />
    <glyph glyph-name="D" unicode="D" horiz-adv-x="791" 
d="M93 0v800h309q140 0 218 -76t78 -202v-248q0 -125 -78.5 -199.5t-217.5 -74.5h-309zM280 138h101q78 0 104 32.5t26 119.5v216q0 88 -26 122t-104 34h-101v-524z" />
    <glyph glyph-name="Dcaron" unicode="&#x10e;" horiz-adv-x="791" 
d="M93 0zM325 904l-157 157l56 79l173 -107l170 108l57 -80l-156 -157h-143zM93 0v800h309q140 0 218 -76t78 -202v-248q0 -125 -78.5 -199.5t-217.5 -74.5h-309zM280 138h101q78 0 104 32.5t26 119.5v216q0 88 -26 122t-104 34h-101v-524z" />
    <glyph glyph-name="E" unicode="E" 
d="M93 0v800h517v-138h-330v-166h289v-138h-289v-220h330v-138h-517z" />
    <glyph glyph-name="Egrave" unicode="&#xc8;" 
d="M93 0zM342 900l-194 200h229l82 -200h-117zM93 0v800h517v-138h-330v-166h289v-138h-289v-220h330v-138h-517z" />
    <glyph glyph-name="Eacute" unicode="&#xc9;" 
d="M93 0zM246 900l83 200h228l-194 -200h-117zM93 0v800h517v-138h-330v-166h289v-138h-289v-220h330v-138h-517z" />
    <glyph glyph-name="Ecircumflex" unicode="&#xca;" 
d="M93 0zM191 888l-57 80l156 157h143l157 -157l-56 -79l-173 107zM93 0v800h517v-138h-330v-166h289v-138h-289v-220h330v-138h-517z" />
    <glyph glyph-name="Edieresis" unicode="&#xcb;" 
d="M93 0zM93 0v800h517v-138h-330v-166h289v-138h-289v-220h330v-138h-517zM250 894q-39 0 -63.5 16t-24.5 56v14q0 40 24.5 57.5t63.5 17.5q40 0 64.5 -17.5t24.5 -57.5v-14q0 -40 -25 -56t-64 -16zM474 894q-40 0 -64.5 16t-24.5 56v14q0 40 24.5 57.5t64.5 17.5t64 -17.5
t24 -57.5v-14q0 -40 -25 -56t-63 -16z" />
    <glyph glyph-name="Emacron" unicode="&#x112;" 
d="M93 0zM93 0v800h517v-138h-330v-166h289v-138h-289v-220h330v-138h-517zM169 931v138h386v-138h-386z" />
    <glyph glyph-name="Ebreve" unicode="&#x114;" 
d="M93 0zM93 0v800h517v-138h-330v-166h289v-138h-289v-220h330v-138h-517zM362 893q-116 0 -172.5 57.5t-57.5 176.5h145q1 -71 19.5 -97t65.5 -26t65.5 26t19.5 97h145q-1 -119 -57.5 -176.5t-172.5 -57.5z" />
    <glyph glyph-name="Edotaccent" unicode="&#x116;" 
d="M93 0zM362 894q-51 0 -83 16t-32 56v14q0 40 32 57.5t83 17.5q52 0 83.5 -17.5t31.5 -57.5v-14q0 -40 -32 -56t-83 -16zM93 0v800h517v-138h-330v-166h289v-138h-289v-220h330v-138h-517z" />
    <glyph glyph-name="Eogonek" unicode="&#x118;" 
d="M93 0zM494 -222q-75 0 -116 32t-41 94q0 57 42 102.5t102 64.5l22 -48q-23 -16 -31 -35t-8 -44q0 -26 15 -39t49 -13q15 0 34 2.5t46 7.5v-111q-33 -7 -61 -10t-53 -3zM93 0v800h517v-138h-330v-166h289v-138h-289v-220h330v-138h-517z" />
    <glyph glyph-name="Ecaron" unicode="&#x11a;" 
d="M93 0zM291 904l-157 157l56 79l173 -107l170 108l57 -80l-156 -157h-143zM93 0v800h517v-138h-330v-166h289v-138h-289v-220h330v-138h-517z" />
    <glyph glyph-name="F" unicode="F" 
d="M93 0v800h538v-138h-351v-222h293v-138h-293v-302h-187z" />
    <glyph glyph-name="G" unicode="G" horiz-adv-x="791" 
d="M394 -10q-146 0 -223.5 70.5t-77.5 195.5v284q0 126 76.5 198t218.5 72q145 0 217.5 -58.5t79.5 -192.5l-187 -10q-6 73 -28.5 98t-79.5 25q-65 0 -87.5 -30t-22.5 -118v-252q0 -85 25.5 -114.5t97.5 -29.5q63 0 83.5 32t20.5 125h-111v138h298v-152q0 -131 -78.5 -206
t-221.5 -75z" />
    <glyph glyph-name="Gcircumflex" unicode="&#x11c;" horiz-adv-x="791" 
d="M93 0zM223 888l-57 80l156 157h143l157 -157l-56 -79l-173 107zM394 -10q-146 0 -223.5 70.5t-77.5 195.5v284q0 126 76.5 198t218.5 72q145 0 217.5 -58.5t79.5 -192.5l-187 -10q-6 73 -28.5 98t-79.5 25q-65 0 -87.5 -30t-22.5 -118v-252q0 -85 25.5 -114.5t97.5 -29.5
q63 0 83.5 32t20.5 125h-111v138h298v-152q0 -131 -78.5 -206t-221.5 -75z" />
    <glyph glyph-name="Gbreve" unicode="&#x11e;" horiz-adv-x="791" 
d="M93 0zM394 893q-116 0 -172.5 57.5t-57.5 176.5h145q1 -71 19.5 -97t65.5 -26t65.5 26t19.5 97h145q-1 -119 -57.5 -176.5t-172.5 -57.5zM394 -10q-146 0 -223.5 70.5t-77.5 195.5v284q0 126 76.5 198t218.5 72q145 0 217.5 -58.5t79.5 -192.5l-187 -10q-6 73 -28.5 98
t-79.5 25q-65 0 -87.5 -30t-22.5 -118v-252q0 -85 25.5 -114.5t97.5 -29.5q63 0 83.5 32t20.5 125h-111v138h298v-152q0 -131 -78.5 -206t-221.5 -75z" />
    <glyph glyph-name="Gdotaccent" unicode="&#x120;" horiz-adv-x="791" 
d="M93 0zM394 894q-51 0 -83 16t-32 56v14q0 40 32 57.5t83 17.5q52 0 83.5 -17.5t31.5 -57.5v-14q0 -40 -32 -56t-83 -16zM394 -10q-146 0 -223.5 70.5t-77.5 195.5v284q0 126 76.5 198t218.5 72q145 0 217.5 -58.5t79.5 -192.5l-187 -10q-6 73 -28.5 98t-79.5 25
q-65 0 -87.5 -30t-22.5 -118v-252q0 -85 25.5 -114.5t97.5 -29.5q63 0 83.5 32t20.5 125h-111v138h298v-152q0 -131 -78.5 -206t-221.5 -75z" />
    <glyph glyph-name="Gcommaaccent" unicode="&#x122;" horiz-adv-x="791" 
d="M93 0zM251 -300l49 200h229l-161 -200h-117zM394 -10q-146 0 -223.5 70.5t-77.5 195.5v284q0 126 76.5 198t218.5 72q145 0 217.5 -58.5t79.5 -192.5l-187 -10q-6 73 -28.5 98t-79.5 25q-65 0 -87.5 -30t-22.5 -118v-252q0 -85 25.5 -114.5t97.5 -29.5q63 0 83.5 32
t20.5 125h-111v138h298v-152q0 -131 -78.5 -206t-221.5 -75z" />
    <glyph glyph-name="H" unicode="H" horiz-adv-x="791" 
d="M93 0v800h187v-288h231v288h187v-800h-187v374h-231v-374h-187z" />
    <glyph glyph-name="Hcircumflex" unicode="&#x124;" horiz-adv-x="791" 
d="M93 0zM93 0v800h187v-288h231v288h187v-800h-187v374h-231v-374h-187zM225 888l-57 80l156 157h143l157 -157l-56 -79l-173 107z" />
    <glyph glyph-name="I" unicode="I" 
d="M93 0v138h167v524h-167v138h521v-138h-167v-524h167v-138h-521z" />
    <glyph glyph-name="Igrave" unicode="&#xcc;" 
d="M93 0zM93 0v138h167v524h-167v138h521v-138h-167v-524h167v-138h-521zM334 900l-194 200h229l82 -200h-117z" />
    <glyph glyph-name="Iacute" unicode="&#xcd;" 
d="M93 0zM93 0v138h167v524h-167v138h521v-138h-167v-524h167v-138h-521zM238 900l83 200h228l-194 -200h-117z" />
    <glyph glyph-name="Icircumflex" unicode="&#xce;" 
d="M93 0zM93 0v138h167v524h-167v138h521v-138h-167v-524h167v-138h-521zM183 888l-57 80l156 157h143l157 -157l-56 -79l-173 107z" />
    <glyph glyph-name="Idieresis" unicode="&#xcf;" 
d="M93 0zM93 0v138h167v524h-167v138h521v-138h-167v-524h167v-138h-521zM242 894q-39 0 -63.5 16t-24.5 56v14q0 40 24.5 57.5t63.5 17.5q40 0 64.5 -17.5t24.5 -57.5v-14q0 -40 -25 -56t-64 -16zM466 894q-40 0 -64.5 16t-24.5 56v14q0 40 24.5 57.5t64.5 17.5t64 -17.5
t24 -57.5v-14q0 -40 -25 -56t-63 -16z" />
    <glyph glyph-name="Itilde" unicode="&#x128;" 
d="M93 0zM93 0v138h167v524h-167v138h521v-138h-167v-524h167v-138h-521zM437 910q-38 0 -61 12.5t-40 36.5l-24 34t-27 15q-14 0 -24 -13.5t-10 -53.5v-21h-116v15q0 86 38 138.5t103 52.5q35 0 56.5 -12.5t39.5 -36.5l26 -34.5t26 -15.5q16 0 25 14t9 54v20h116v-15
q0 -85 -37 -137.5t-100 -52.5z" />
    <glyph glyph-name="Imacron" unicode="&#x12a;" 
d="M93 0zM93 0v138h167v524h-167v138h521v-138h-167v-524h167v-138h-521zM161 931v138h386v-138h-386z" />
    <glyph glyph-name="Ibreve" unicode="&#x12c;" 
d="M93 0zM93 0v138h167v524h-167v138h521v-138h-167v-524h167v-138h-521zM354 893q-116 0 -172.5 57.5t-57.5 176.5h145q1 -71 19.5 -97t65.5 -26t65.5 26t19.5 97h145q-1 -119 -57.5 -176.5t-172.5 -57.5z" />
    <glyph glyph-name="Iogonek" unicode="&#x12e;" 
d="M93 0zM93 0v138h167v524h-167v138h521v-138h-167v-524h167v-138h-521zM431 -222q-75 0 -116 32t-41 94q0 57 42 102.5t102 64.5l22 -48q-23 -16 -31 -35t-8 -44q0 -26 15 -39t49 -13q15 0 34 2.5t46 7.5v-111q-33 -7 -61 -10t-53 -3z" />
    <glyph glyph-name="Idotaccent" unicode="&#x130;" 
d="M93 0zM93 0v138h167v524h-167v138h521v-138h-167v-524h167v-138h-521zM354 894q-51 0 -83 16t-32 56v14q0 40 32 57.5t83 17.5q52 0 83.5 -17.5t31.5 -57.5v-14q0 -40 -32 -56t-83 -16z" />
    <glyph glyph-name="J" unicode="J" 
d="M344 -10q-159 0 -218 63.5t-66 227.5l187 11q6 -101 25 -132.5t72 -31.5q51 0 67 26.5t16 113.5v394h-218v138h405v-540q0 -137 -61.5 -203.5t-208.5 -66.5z" />
    <glyph glyph-name="Jcircumflex" unicode="&#x134;" 
d="M60 0zM246 888l-57 80l156 157h143l157 -157l-56 -79l-173 107zM344 -10q-159 0 -218 63.5t-66 227.5l187 11q6 -101 25 -132.5t72 -31.5q51 0 67 26.5t16 113.5v394h-218v138h405v-540q0 -137 -61.5 -203.5t-208.5 -66.5z" />
    <glyph glyph-name="K" unicode="K" 
d="M280 344v-344h-187v800h187v-318h35l172 318h204l-226 -369l223 -431h-215l-156 344h-37z" />
    <glyph glyph-name="Kcommaaccent" unicode="&#x136;" 
d="M93 0zM280 344v-344h-187v800h187v-318h35l172 318h204l-226 -369l223 -431h-215l-156 344h-37zM236 -300l49 200h229l-161 -200h-117z" />
    <glyph glyph-name="L" unicode="L" horiz-adv-x="624" 
d="M93 0v800h187v-662h291v-138h-478z" />
    <glyph glyph-name="Lacute" unicode="&#x139;" horiz-adv-x="624" 
d="M71 0zM71 900l83 200h228l-194 -200h-117zM93 0v800h187v-662h291v-138h-478z" />
    <glyph glyph-name="Lcommaaccent" unicode="&#x13b;" horiz-adv-x="624" 
d="M93 0zM93 0v800h187v-662h291v-138h-478zM210 -300l49 200h229l-161 -200h-117z" />
    <glyph glyph-name="Lcaron" unicode="&#x13d;" horiz-adv-x="624" 
d="M93 0zM360 505l37 295h226l-161 -295h-102zM93 0v800h187v-662h291v-138h-478z" />
    <glyph glyph-name="M" unicode="M" horiz-adv-x="875" 
d="M354 200l-104 378v-578h-157v800h234l112 -427l112 427h230v-800h-157v583l-103 -383h-167z" />
    <glyph glyph-name="N" unicode="N" horiz-adv-x="791" 
d="M450 0l-200 593v-593h-157v800h253l195 -552v552h157v-800h-248z" />
    <glyph glyph-name="Ntilde" unicode="&#xd1;" horiz-adv-x="791" 
d="M93 0zM516 910q-38 0 -61 12.5t-40 36.5l-24 34t-27 15q-14 0 -24 -13.5t-10 -53.5v-21h-116v15q0 86 38 138.5t103 52.5q35 0 56.5 -12.5t39.5 -36.5l26 -34.5t26 -15.5q16 0 25 14t9 54v20h116v-15q0 -85 -37 -137.5t-100 -52.5zM450 0l-200 593v-593h-157v800h253
l195 -552v552h157v-800h-248z" />
    <glyph glyph-name="Nacute" unicode="&#x143;" horiz-adv-x="791" 
d="M93 0zM317 900l83 200h228l-194 -200h-117zM450 0l-200 593v-593h-157v800h253l195 -552v552h157v-800h-248z" />
    <glyph glyph-name="Ncommaaccent" unicode="&#x145;" horiz-adv-x="791" 
d="M93 0zM216 -300l49 200h229l-161 -200h-117zM450 0l-200 593v-593h-157v800h253l195 -552v552h157v-800h-248z" />
    <glyph glyph-name="Ncaron" unicode="&#x147;" horiz-adv-x="791" 
d="M93 0zM362 904l-157 157l56 79l173 -107l170 108l57 -80l-156 -157h-143zM450 0l-200 593v-593h-157v800h253l195 -552v552h157v-800h-248z" />
    <glyph glyph-name="O" unicode="O" horiz-adv-x="791" 
d="M396 -10q-146 0 -224.5 70.5t-78.5 195.5v284q0 126 78.5 198t224.5 72q147 0 224.5 -72t77.5 -198v-284q0 -125 -78 -195.5t-224 -70.5zM396 128q66 0 90.5 31t24.5 113v252q0 85 -24.5 116.5t-90.5 31.5t-91 -31.5t-25 -116.5v-252q0 -82 25 -113t91 -31z" />
    <glyph glyph-name="Ograve" unicode="&#xd2;" horiz-adv-x="791" 
d="M93 0zM376 900l-194 200h229l82 -200h-117zM396 -10q-146 0 -224.5 70.5t-78.5 195.5v284q0 126 78.5 198t224.5 72q147 0 224.5 -72t77.5 -198v-284q0 -125 -78 -195.5t-224 -70.5zM396 128q66 0 90.5 31t24.5 113v252q0 85 -24.5 116.5t-90.5 31.5t-91 -31.5
t-25 -116.5v-252q0 -82 25 -113t91 -31z" />
    <glyph glyph-name="Oacute" unicode="&#xd3;" horiz-adv-x="791" 
d="M93 0zM280 900l83 200h228l-194 -200h-117zM396 -10q-146 0 -224.5 70.5t-78.5 195.5v284q0 126 78.5 198t224.5 72q147 0 224.5 -72t77.5 -198v-284q0 -125 -78 -195.5t-224 -70.5zM396 128q66 0 90.5 31t24.5 113v252q0 85 -24.5 116.5t-90.5 31.5t-91 -31.5
t-25 -116.5v-252q0 -82 25 -113t91 -31z" />
    <glyph glyph-name="Ocircumflex" unicode="&#xd4;" horiz-adv-x="791" 
d="M93 0zM225 888l-57 80l156 157h143l157 -157l-56 -79l-173 107zM396 -10q-146 0 -224.5 70.5t-78.5 195.5v284q0 126 78.5 198t224.5 72q147 0 224.5 -72t77.5 -198v-284q0 -125 -78 -195.5t-224 -70.5zM396 128q66 0 90.5 31t24.5 113v252q0 85 -24.5 116.5t-90.5 31.5
t-91 -31.5t-25 -116.5v-252q0 -82 25 -113t91 -31z" />
    <glyph glyph-name="Otilde" unicode="&#xd5;" horiz-adv-x="791" 
d="M93 0zM479 910q-38 0 -61 12.5t-40 36.5l-24 34t-27 15q-14 0 -24 -13.5t-10 -53.5v-21h-116v15q0 86 38 138.5t103 52.5q35 0 56.5 -12.5t39.5 -36.5l26 -34.5t26 -15.5q16 0 25 14t9 54v20h116v-15q0 -85 -37 -137.5t-100 -52.5zM396 -10q-146 0 -224.5 70.5
t-78.5 195.5v284q0 126 78.5 198t224.5 72q147 0 224.5 -72t77.5 -198v-284q0 -125 -78 -195.5t-224 -70.5zM396 128q66 0 90.5 31t24.5 113v252q0 85 -24.5 116.5t-90.5 31.5t-91 -31.5t-25 -116.5v-252q0 -82 25 -113t91 -31z" />
    <glyph glyph-name="Odieresis" unicode="&#xd6;" horiz-adv-x="791" 
d="M93 0zM284 894q-39 0 -63.5 16t-24.5 56v14q0 40 24.5 57.5t63.5 17.5q40 0 64.5 -17.5t24.5 -57.5v-14q0 -40 -25 -56t-64 -16zM508 894q-40 0 -64.5 16t-24.5 56v14q0 40 24.5 57.5t64.5 17.5t64 -17.5t24 -57.5v-14q0 -40 -25 -56t-63 -16zM396 -10
q-146 0 -224.5 70.5t-78.5 195.5v284q0 126 78.5 198t224.5 72q147 0 224.5 -72t77.5 -198v-284q0 -125 -78 -195.5t-224 -70.5zM396 128q66 0 90.5 31t24.5 113v252q0 85 -24.5 116.5t-90.5 31.5t-91 -31.5t-25 -116.5v-252q0 -82 25 -113t91 -31z" />
    <glyph glyph-name="Omacron" unicode="&#x14c;" horiz-adv-x="791" 
d="M93 0zM203 931v138h386v-138h-386zM396 -10q-146 0 -224.5 70.5t-78.5 195.5v284q0 126 78.5 198t224.5 72q147 0 224.5 -72t77.5 -198v-284q0 -125 -78 -195.5t-224 -70.5zM396 128q66 0 90.5 31t24.5 113v252q0 85 -24.5 116.5t-90.5 31.5t-91 -31.5t-25 -116.5v-252
q0 -82 25 -113t91 -31z" />
    <glyph glyph-name="Obreve" unicode="&#x14e;" horiz-adv-x="791" 
d="M93 0zM396 893q-116 0 -172.5 57.5t-57.5 176.5h145q1 -71 19.5 -97t65.5 -26t65.5 26t19.5 97h145q-1 -119 -57.5 -176.5t-172.5 -57.5zM396 -10q-146 0 -224.5 70.5t-78.5 195.5v284q0 126 78.5 198t224.5 72q147 0 224.5 -72t77.5 -198v-284q0 -125 -78 -195.5
t-224 -70.5zM396 128q66 0 90.5 31t24.5 113v252q0 85 -24.5 116.5t-90.5 31.5t-91 -31.5t-25 -116.5v-252q0 -82 25 -113t91 -31z" />
    <glyph glyph-name="Ohungarumlaut" unicode="&#x150;" horiz-adv-x="791" 
d="M93 0zM418 900l37 200h168l-115 -200h-90zM226 900l37 200h168l-115 -200h-90zM396 -10q-146 0 -224.5 70.5t-78.5 195.5v284q0 126 78.5 198t224.5 72q147 0 224.5 -72t77.5 -198v-284q0 -125 -78 -195.5t-224 -70.5zM396 128q66 0 90.5 31t24.5 113v252
q0 85 -24.5 116.5t-90.5 31.5t-91 -31.5t-25 -116.5v-252q0 -82 25 -113t91 -31z" />
    <glyph glyph-name="P" unicode="P" 
d="M93 0v800h298q120 0 184.5 -58.5t64.5 -168.5v-107q0 -105 -64.5 -161.5t-183.5 -56.5h-112v-248h-187zM280 385h79q49 0 71.5 22t22.5 80v69q0 59 -22.5 82.5t-71.5 23.5h-79v-277z" />
    <glyph glyph-name="Q" unicode="Q" horiz-adv-x="791" 
d="M605 -207q-172 -26 -243 26.5t-68 205.5q-98 22 -149.5 88t-51.5 167v260q0 126 78.5 198t224.5 72q147 0 224.5 -72t77.5 -198v-260q0 -118 -69.5 -187.5t-198.5 -77.5q4 -61 38.5 -78t118.5 2zM396 144q69 0 92 30.5t23 121.5v228q0 89 -23 118.5t-92 29.5t-92.5 -29.5
t-23.5 -118.5v-228q0 -91 23.5 -121.5t92.5 -30.5z" />
    <glyph glyph-name="R" unicode="R" horiz-adv-x="791" 
d="M280 423h127q43 0 63 18.5t20 70.5v62q0 54 -20 71t-63 17h-127v-239zM280 0h-187v800h343q116 0 178.5 -56.5t62.5 -162.5v-70q0 -82 -35.5 -135.5t-103.5 -75.5l167 -300h-212l-159 286h-54v-286z" />
    <glyph glyph-name="Racute" unicode="&#x154;" horiz-adv-x="791" 
d="M93 0zM287 900l83 200h228l-194 -200h-117zM280 423h127q43 0 63 18.5t20 70.5v62q0 54 -20 71t-63 17h-127v-239zM280 0h-187v800h343q116 0 178.5 -56.5t62.5 -162.5v-70q0 -82 -35.5 -135.5t-103.5 -75.5l167 -300h-212l-159 286h-54v-286z" />
    <glyph glyph-name="Rcommaaccent" unicode="&#x156;" horiz-adv-x="791" 
d="M93 0zM280 423h127q43 0 63 18.5t20 70.5v62q0 54 -20 71t-63 17h-127v-239zM280 0h-187v800h343q116 0 178.5 -56.5t62.5 -162.5v-70q0 -82 -35.5 -135.5t-103.5 -75.5l167 -300h-212l-159 286h-54v-286zM230 -300l49 200h229l-161 -200h-117z" />
    <glyph glyph-name="Rcaron" unicode="&#x158;" horiz-adv-x="791" 
d="M93 0zM296 904l-157 157l56 79l173 -107l170 108l57 -80l-156 -157h-143zM280 423h127q43 0 63 18.5t20 70.5v62q0 54 -20 71t-63 17h-127v-239zM280 0h-187v800h343q116 0 178.5 -56.5t62.5 -162.5v-70q0 -82 -35.5 -135.5t-103.5 -75.5l167 -300h-212l-159 286h-54
v-286z" />
    <glyph glyph-name="S" unicode="S" horiz-adv-x="791" 
d="M388 -9q-72 0 -148.5 21t-146.5 59l33 141q68 -40 138.5 -61.5t141.5 -21.5q55 0 82 24.5t27 64.5q0 42 -36.5 62t-136.5 42q-121 29 -182 80t-61 151q0 111 76 183.5t213 72.5q74 0 146 -21t123 -54l-25 -134q-63 34 -123.5 52.5t-114.5 18.5q-51 0 -80.5 -22t-29.5 -65
q0 -42 33.5 -62t140.5 -45q127 -32 185 -85t58 -152q0 -112 -80.5 -180.5t-232.5 -68.5z" />
    <glyph glyph-name="Sacute" unicode="&#x15a;" horiz-adv-x="791" 
d="M93 0zM388 -9q-72 0 -148.5 21t-146.5 59l33 141q68 -40 138.5 -61.5t141.5 -21.5q55 0 82 24.5t27 64.5q0 42 -36.5 62t-136.5 42q-121 29 -182 80t-61 151q0 111 76 183.5t213 72.5q74 0 146 -21t123 -54l-25 -134q-63 34 -123.5 52.5t-114.5 18.5q-51 0 -80.5 -22
t-29.5 -65q0 -42 33.5 -62t140.5 -45q127 -32 185 -85t58 -152q0 -112 -80.5 -180.5t-232.5 -68.5zM277 900l83 200h228l-194 -200h-117z" />
    <glyph glyph-name="Scircumflex" unicode="&#x15c;" horiz-adv-x="791" 
d="M93 0zM222 888l-57 80l156 157h143l157 -157l-56 -79l-173 107zM388 -9q-72 0 -148.5 21t-146.5 59l33 141q68 -40 138.5 -61.5t141.5 -21.5q55 0 82 24.5t27 64.5q0 42 -36.5 62t-136.5 42q-121 29 -182 80t-61 151q0 111 76 183.5t213 72.5q74 0 146 -21t123 -54
l-25 -134q-63 34 -123.5 52.5t-114.5 18.5q-51 0 -80.5 -22t-29.5 -65q0 -42 33.5 -62t140.5 -45q127 -32 185 -85t58 -152q0 -112 -80.5 -180.5t-232.5 -68.5z" />
    <glyph glyph-name="Scedilla" unicode="&#x15e;" horiz-adv-x="791" 
d="M93 0zM388 -9q-72 0 -148.5 21t-146.5 59l33 141q68 -40 138.5 -61.5t141.5 -21.5q55 0 82 24.5t27 64.5q0 42 -36.5 62t-136.5 42q-121 29 -182 80t-61 151q0 111 76 183.5t213 72.5q74 0 146 -21t123 -54l-25 -134q-63 34 -123.5 52.5t-114.5 18.5q-51 0 -80.5 -22
t-29.5 -65q0 -42 33.5 -62t140.5 -45q127 -32 185 -85t58 -152q0 -112 -80.5 -180.5t-232.5 -68.5zM368 0l16 42q87 -9 132 -39t45 -92q0 -67 -54 -101t-141 -34q-90 0 -143 32.5t-57 97.5l156 10q2 -19 10 -26.5t27 -7.5q22 0 33 11t11 45q0 27 -6.5 41t-28.5 21z" />
    <glyph glyph-name="Scaron" unicode="&#x160;" horiz-adv-x="791" 
d="M93 0zM322 904l-157 157l56 79l173 -107l170 108l57 -80l-156 -157h-143zM388 -9q-72 0 -148.5 21t-146.5 59l33 141q68 -40 138.5 -61.5t141.5 -21.5q55 0 82 24.5t27 64.5q0 42 -36.5 62t-136.5 42q-121 29 -182 80t-61 151q0 111 76 183.5t213 72.5q74 0 146 -21
t123 -54l-25 -134q-63 34 -123.5 52.5t-114.5 18.5q-51 0 -80.5 -22t-29.5 -65q0 -42 33.5 -62t140.5 -45q127 -32 185 -85t58 -152q0 -112 -80.5 -180.5t-232.5 -68.5z" />
    <glyph glyph-name="Scommaaccent" unicode="&#x218;" horiz-adv-x="791" 
d="M93 0zM388 -9q-72 0 -148.5 21t-146.5 59l33 141q68 -40 138.5 -61.5t141.5 -21.5q55 0 82 24.5t27 64.5q0 42 -36.5 62t-136.5 42q-121 29 -182 80t-61 151q0 111 76 183.5t213 72.5q74 0 146 -21t123 -54l-25 -134q-63 34 -123.5 52.5t-114.5 18.5q-51 0 -80.5 -22
t-29.5 -65q0 -42 33.5 -62t140.5 -45q127 -32 185 -85t58 -152q0 -112 -80.5 -180.5t-232.5 -68.5zM216 -300l49 200h229l-161 -200h-117z" />
    <glyph glyph-name="T" unicode="T" 
d="M260 0v662h-208v138h604v-138h-209v-662h-187z" />
    <glyph glyph-name="Tcedilla" unicode="&#x162;" 
d="M52 0zM260 0v662h-208v138h604v-138h-209v-662h-187zM331 0l16 42q87 -9 132 -39t45 -92q0 -67 -54 -101t-141 -34q-90 0 -143 32.5t-57 97.5l156 10q2 -19 10 -26.5t27 -7.5q22 0 33 11t11 45q0 27 -6.5 41t-28.5 21z" />
    <glyph glyph-name="Tcaron" unicode="&#x164;" 
d="M52 0zM283 904l-157 157l56 79l173 -107l170 108l57 -80l-156 -157h-143zM260 0v662h-208v138h604v-138h-209v-662h-187z" />
    <glyph glyph-name="Tcommaaccent" unicode="&#x21a;" 
d="M52 0zM260 0v662h-208v138h604v-138h-209v-662h-187zM184 -300l49 200h229l-161 -200h-117z" />
    <glyph glyph-name="U" unicode="U" horiz-adv-x="791" 
d="M396 -10q-159 0 -231 66.5t-72 214.5v529h187v-517q0 -84 25 -115.5t91 -31.5t90.5 31.5t24.5 115.5v517h187v-529q0 -148 -72 -214.5t-230 -66.5z" />
    <glyph glyph-name="Ugrave" unicode="&#xd9;" horiz-adv-x="791" 
d="M93 0zM376 900l-194 200h229l82 -200h-117zM396 -10q-159 0 -231 66.5t-72 214.5v529h187v-517q0 -84 25 -115.5t91 -31.5t90.5 31.5t24.5 115.5v517h187v-529q0 -148 -72 -214.5t-230 -66.5z" />
    <glyph glyph-name="Uacute" unicode="&#xda;" horiz-adv-x="791" 
d="M93 0zM280 900l83 200h228l-194 -200h-117zM396 -10q-159 0 -231 66.5t-72 214.5v529h187v-517q0 -84 25 -115.5t91 -31.5t90.5 31.5t24.5 115.5v517h187v-529q0 -148 -72 -214.5t-230 -66.5z" />
    <glyph glyph-name="Ucircumflex" unicode="&#xdb;" horiz-adv-x="791" 
d="M93 0zM225 888l-57 80l156 157h143l157 -157l-56 -79l-173 107zM396 -10q-159 0 -231 66.5t-72 214.5v529h187v-517q0 -84 25 -115.5t91 -31.5t90.5 31.5t24.5 115.5v517h187v-529q0 -148 -72 -214.5t-230 -66.5z" />
    <glyph glyph-name="Udieresis" unicode="&#xdc;" horiz-adv-x="791" 
d="M93 0zM396 -10q-159 0 -231 66.5t-72 214.5v529h187v-517q0 -84 25 -115.5t91 -31.5t90.5 31.5t24.5 115.5v517h187v-529q0 -148 -72 -214.5t-230 -66.5zM284 894q-39 0 -63.5 16t-24.5 56v14q0 40 24.5 57.5t63.5 17.5q40 0 64.5 -17.5t24.5 -57.5v-14q0 -40 -25 -56
t-64 -16zM508 894q-40 0 -64.5 16t-24.5 56v14q0 40 24.5 57.5t64.5 17.5t64 -17.5t24 -57.5v-14q0 -40 -25 -56t-63 -16z" />
    <glyph glyph-name="Utilde" unicode="&#x168;" horiz-adv-x="791" 
d="M93 0zM396 -10q-159 0 -231 66.5t-72 214.5v529h187v-517q0 -84 25 -115.5t91 -31.5t90.5 31.5t24.5 115.5v517h187v-529q0 -148 -72 -214.5t-230 -66.5zM479 910q-38 0 -61 12.5t-40 36.5l-24 34t-27 15q-14 0 -24 -13.5t-10 -53.5v-21h-116v15q0 86 38 138.5t103 52.5
q35 0 56.5 -12.5t39.5 -36.5l26 -34.5t26 -15.5q16 0 25 14t9 54v20h116v-15q0 -85 -37 -137.5t-100 -52.5z" />
    <glyph glyph-name="Umacron" unicode="&#x16a;" horiz-adv-x="791" 
d="M93 0zM396 -10q-159 0 -231 66.5t-72 214.5v529h187v-517q0 -84 25 -115.5t91 -31.5t90.5 31.5t24.5 115.5v517h187v-529q0 -148 -72 -214.5t-230 -66.5zM203 931v138h386v-138h-386z" />
    <glyph glyph-name="Ubreve" unicode="&#x16c;" horiz-adv-x="791" 
d="M93 0zM396 -10q-159 0 -231 66.5t-72 214.5v529h187v-517q0 -84 25 -115.5t91 -31.5t90.5 31.5t24.5 115.5v517h187v-529q0 -148 -72 -214.5t-230 -66.5zM396 893q-116 0 -172.5 57.5t-57.5 176.5h145q1 -71 19.5 -97t65.5 -26t65.5 26t19.5 97h145q-1 -119 -57.5 -176.5
t-172.5 -57.5z" />
    <glyph glyph-name="Uring" unicode="&#x16e;" horiz-adv-x="791" 
d="M93 0zM396 -10q-159 0 -231 66.5t-72 214.5v529h187v-517q0 -84 25 -115.5t91 -31.5t90.5 31.5t24.5 115.5v517h187v-529q0 -148 -72 -214.5t-230 -66.5zM396 877q-83 0 -134.5 37.5t-51.5 115.5v32q0 79 51.5 117.5t134.5 38.5q84 0 135 -38.5t51 -117.5v-32
q0 -78 -51.5 -115.5t-134.5 -37.5zM396 964q28 0 43 15t15 51v32q0 35 -15 52t-43 17q-29 0 -43.5 -17t-14.5 -52v-32q0 -36 14.5 -51t43.5 -15z" />
    <glyph glyph-name="Uhungarumlaut" unicode="&#x170;" horiz-adv-x="791" 
d="M93 0zM418 900l37 200h168l-115 -200h-90zM226 900l37 200h168l-115 -200h-90zM396 -10q-159 0 -231 66.5t-72 214.5v529h187v-517q0 -84 25 -115.5t91 -31.5t90.5 31.5t24.5 115.5v517h187v-529q0 -148 -72 -214.5t-230 -66.5z" />
    <glyph glyph-name="Uogonek" unicode="&#x172;" horiz-adv-x="791" 
d="M93 0zM461 -222q-75 0 -116 32t-41 94q0 57 42 102.5t102 64.5l22 -48q-23 -16 -31 -35t-8 -44q0 -26 15 -39t49 -13q15 0 34 2.5t46 7.5v-111q-33 -7 -61 -10t-53 -3zM396 -10q-159 0 -231 66.5t-72 214.5v529h187v-517q0 -84 25 -115.5t91 -31.5t90.5 31.5t24.5 115.5
v517h187v-529q0 -148 -72 -214.5t-230 -66.5z" />
    <glyph glyph-name="V" unicode="V" horiz-adv-x="688" 
d="M469 0h-252l-184 800h188l129 -647l130 647h175z" />
    <glyph glyph-name="W" unicode="W" horiz-adv-x="978" 
d="M578 0l-86 460l-92 -460h-197l-139 800h175l90 -564l76 446h178l88 -443l87 561h156l-140 -800h-196z" />
    <glyph glyph-name="Wcircumflex" unicode="&#x174;" horiz-adv-x="978" 
d="M64 0zM318 888l-57 80l156 157h143l157 -157l-56 -79l-173 107zM578 0l-86 460l-92 -460h-197l-139 800h175l90 -564l76 446h178l88 -443l87 561h156l-140 -800h-196z" />
    <glyph glyph-name="Wgrave" unicode="&#x1e80;" horiz-adv-x="978" 
d="M64 0zM469 900l-194 200h229l82 -200h-117zM578 0l-86 460l-92 -460h-197l-139 800h175l90 -564l76 446h178l88 -443l87 561h156l-140 -800h-196z" />
    <glyph glyph-name="Wacute" unicode="&#x1e82;" horiz-adv-x="978" 
d="M64 0zM373 900l83 200h228l-194 -200h-117zM578 0l-86 460l-92 -460h-197l-139 800h175l90 -564l76 446h178l88 -443l87 561h156l-140 -800h-196z" />
    <glyph glyph-name="Wdieresis" unicode="&#x1e84;" horiz-adv-x="978" 
d="M64 0zM377 894q-39 0 -63.5 16t-24.5 56v14q0 40 24.5 57.5t63.5 17.5q40 0 64.5 -17.5t24.5 -57.5v-14q0 -40 -25 -56t-64 -16zM601 894q-40 0 -64.5 16t-24.5 56v14q0 40 24.5 57.5t64.5 17.5t64 -17.5t24 -57.5v-14q0 -40 -25 -56t-63 -16zM578 0l-86 460l-92 -460
h-197l-139 800h175l90 -564l76 446h178l88 -443l87 561h156l-140 -800h-196z" />
    <glyph glyph-name="X" unicode="X" horiz-adv-x="791" 
d="M517 0l-126 235l-121 -235h-197l224 416l-204 384h209l115 -222l106 222h195l-206 -408l203 -392h-198z" />
    <glyph glyph-name="Y" unicode="Y" 
d="M447 0h-187v300l-243 500h194l146 -352l151 352h182l-243 -500v-300z" />
    <glyph glyph-name="Yacute" unicode="&#xdd;" 
d="M17 0zM447 0h-187v300l-243 500h194l146 -352l151 352h182l-243 -500v-300zM238 900l83 200h228l-194 -200h-117z" />
    <glyph glyph-name="Ycircumflex" unicode="&#x176;" 
d="M17 0zM447 0h-187v300l-243 500h194l146 -352l151 352h182l-243 -500v-300zM183 888l-57 80l156 157h143l157 -157l-56 -79l-173 107z" />
    <glyph glyph-name="Ydieresis" unicode="&#x178;" 
d="M17 0zM447 0h-187v300l-243 500h194l146 -352l151 352h182l-243 -500v-300zM242 894q-39 0 -63.5 16t-24.5 56v14q0 40 24.5 57.5t63.5 17.5q40 0 64.5 -17.5t24.5 -57.5v-14q0 -40 -25 -56t-64 -16zM466 894q-40 0 -64.5 16t-24.5 56v14q0 40 24.5 57.5t64.5 17.5
t64 -17.5t24 -57.5v-14q0 -40 -25 -56t-63 -16z" />
    <glyph glyph-name="Ygrave" unicode="&#x1ef2;" 
d="M17 0zM447 0h-187v300l-243 500h194l146 -352l151 352h182l-243 -500v-300zM334 900l-194 200h229l82 -200h-117z" />
    <glyph glyph-name="Z" unicode="Z" horiz-adv-x="791" 
d="M688 0h-584v138l357 524h-357v138h584v-138l-372 -524h372v-138z" />
    <glyph glyph-name="Zacute" unicode="&#x179;" horiz-adv-x="791" 
d="M104 0zM280 900l83 200h228l-194 -200h-117zM688 0h-584v138l357 524h-357v138h584v-138l-372 -524h372v-138z" />
    <glyph glyph-name="Zdotaccent" unicode="&#x17b;" horiz-adv-x="791" 
d="M104 0zM688 0h-584v138l357 524h-357v138h584v-138l-372 -524h372v-138zM396 894q-51 0 -83 16t-32 56v14q0 40 32 57.5t83 17.5q52 0 83.5 -17.5t31.5 -57.5v-14q0 -40 -32 -56t-83 -16z" />
    <glyph glyph-name="Zcaron" unicode="&#x17d;" horiz-adv-x="791" 
d="M104 0zM325 904l-157 157l56 79l173 -107l170 108l57 -80l-156 -157h-143zM688 0h-584v138l357 524h-357v138h584v-138l-372 -524h372v-138z" />
    <glyph glyph-name="AE" unicode="&#xc6;" horiz-adv-x="1061" 
d="M389 662l-96 -334h188v334h-92zM481 190h-229l-54 -190h-165l249 800h682v-138h-296v-166h255v-138h-255v-220h296v-138h-483v190z" />
    <glyph glyph-name="AEacute" unicode="&#x1fc;" horiz-adv-x="1061" 
d="M33 0zM441 900l83 200h228l-194 -200h-117zM389 662l-96 -334h188v334h-92zM481 190h-229l-54 -190h-165l249 800h682v-138h-296v-166h255v-138h-255v-220h296v-138h-483v190z" />
    <glyph glyph-name="Eth" unicode="&#xd0;" horiz-adv-x="791" 
d="M93 0v383h-83v114h83v303h309q140 0 218 -76t78 -202v-248q0 -125 -78.5 -199.5t-217.5 -74.5h-309zM280 138h101q78 0 104 32.5t26 119.5v216q0 88 -26 122t-104 34h-101v-165h116v-114h-116v-245z" />
    <glyph glyph-name="Oslash" unicode="&#xd8;" horiz-adv-x="791" 
d="M287 203l144 466q-7 1 -16 2t-19 1q-66 0 -91 -31.5t-25 -116.5v-252q0 -21 1.5 -38.5t5.5 -30.5zM396 128q66 0 90.5 30.5t24.5 113.5v252q0 13 -1 24.5t-3 21.5l-142 -441q7 -1 15 -1h16zM396 -10q-19 0 -36.5 1t-33.5 4l-33 -95h-125l48 129q-60 32 -91.5 90.5
t-31.5 136.5v284q0 126 78.5 198t224.5 72q19 0 37.5 -1.5t34.5 -3.5l34 95h125l-46 -133q57 -34 87 -91.5t30 -135.5v-284q0 -125 -78 -195.5t-224 -70.5z" />
    <glyph glyph-name="Oslashacute" unicode="&#x1fe;" horiz-adv-x="791" 
d="M93 0zM287 203l144 466q-7 1 -16 2t-19 1q-66 0 -91 -31.5t-25 -116.5v-252q0 -21 1.5 -38.5t5.5 -30.5zM396 128q66 0 90.5 30.5t24.5 113.5v252q0 13 -1 24.5t-3 21.5l-142 -441q7 -1 15 -1h16zM396 -10q-19 0 -36.5 1t-33.5 4l-33 -95h-125l48 129q-60 32 -91.5 90.5
t-31.5 136.5v284q0 126 78.5 198t224.5 72q19 0 37.5 -1.5t34.5 -3.5l34 95h125l-46 -133q57 -34 87 -91.5t30 -135.5v-284q0 -125 -78 -195.5t-224 -70.5zM280 900l83 200h228l-194 -200h-117z" />
    <glyph glyph-name="Thorn" unicode="&#xde;" 
d="M93 0v800h187v-122h111q116 0 182.5 -62.5t66.5 -172.5v-91q0 -106 -66 -166t-182 -60h-112v-126h-187zM280 263h79q49 0 71.5 24.5t22.5 78.5v69q0 56 -22.5 80.5t-71.5 24.5h-79v-277z" />
    <glyph glyph-name="Dcroat" unicode="&#x110;" horiz-adv-x="791" 
d="M93 0v383h-83v114h83v303h309q140 0 218 -76t78 -202v-248q0 -125 -78.5 -199.5t-217.5 -74.5h-309zM280 138h101q78 0 104 32.5t26 119.5v216q0 88 -26 122t-104 34h-101v-165h116v-114h-116v-245z" />
    <glyph glyph-name="Hbar" unicode="&#x126;" horiz-adv-x="791" 
d="M280 422h231v130h-231v-130zM280 284v-284h-187v552h-83v114h83v134h187v-134h231v134h187v-134h83v-114h-83v-552h-187v284h-231z" />
    <glyph glyph-name="IJ" unicode="&#x132;" horiz-adv-x="1395" 
d="M93 0zM93 0v138h167v524h-167v138h521v-138h-167v-524h167v-138h-521zM1032 -10q-159 0 -218 63.5t-66 227.5l187 11q6 -101 25 -132.5t72 -31.5q51 0 67 26.5t16 113.5v394h-218v138h405v-540q0 -137 -61.5 -203.5t-208.5 -66.5z" />
    <glyph glyph-name="Ldot" unicode="&#x13f;" horiz-adv-x="894" 
d="M93 0zM629 386q-51 0 -83 16t-32 56v14q0 40 32 57.5t83 17.5q52 0 83.5 -17.5t31.5 -57.5v-14q0 -40 -32 -56t-83 -16zM93 0v800h187v-662h291v-138h-478z" />
    <glyph glyph-name="Lslash" unicode="&#x141;" horiz-adv-x="624" 
d="M93 0v325l-52 -19v112l52 19v363h187v-295l189 69v-112l-189 -69v-255h291v-138h-478z" />
    <glyph glyph-name="Eng" unicode="&#x14a;" horiz-adv-x="791" 
d="M463 -209q-34 0 -67.5 6t-64.5 18l17 120q25 -10 47.5 -16t41.5 -6q35 0 54.5 22.5t19.5 74.5v550q0 51 -22.5 81t-62.5 30q-36 0 -72.5 -31t-73.5 -94v-546h-187v800h187v-143h25q26 72 81 112.5t124 40.5q87 0 137.5 -58.5t50.5 -159.5v-598q0 -107 -73 -155t-162 -48z
" />
    <glyph glyph-name="OE" unicode="&#x152;" horiz-adv-x="1061" 
d="M374 0q-131 0 -206 75.5t-75 201.5v249q0 125 75 199.5t207 74.5h589v-138h-298v-166h257v-138h-257v-220h298v-138h-590zM396 138h83v524h-83q-67 0 -91.5 -32t-24.5 -120v-217q0 -90 24.5 -122.5t91.5 -32.5z" />
    <glyph glyph-name="Tbar" unicode="&#x166;" 
d="M260 0v294h-167v114h167v254h-208v138h604v-138h-209v-254h167v-114h-167v-294h-187z" />
    <glyph glyph-name="Alpha" unicode="&#x391;" horiz-adv-x="688" 
d="M33 0zM400 328l-64 322l-65 -322h129zM466 0l-38 190h-185l-39 -190h-171l186 800h252l184 -800h-189z" />
    <glyph glyph-name="Alphatonos" unicode="&#x386;" horiz-adv-x="791" 
d="M12 0zM503 328l-64 322l-65 -322h129zM569 0l-38 190h-185l-39 -190h-171l186 800h252l184 -800h-189zM12 600l32 200h220l-143 -200h-109z" />
    <glyph glyph-name="Beta" unicode="&#x392;" horiz-adv-x="791" 
d="M93 0zM93 0v800h348q116 0 176.5 -48t60.5 -140v-36q0 -63 -26 -94.5t-88 -43.5v-29q64 -7 97.5 -47.5t33.5 -101.5v-50q0 -102 -66 -156t-193 -54h-343zM280 476h128q48 0 67 16.5t19 58.5v44q0 42 -19 58.5t-67 16.5h-128v-194zM280 130h120q60 0 84 20t24 69v48
q0 49 -24 69t-84 20h-120v-226z" />
    <glyph glyph-name="Gamma" unicode="&#x393;" horiz-adv-x="624" 
d="M93 0v800h496v-138h-309v-662h-187z" />
    <glyph glyph-name="Delta" unicode="&#x394;" horiz-adv-x="688" 
d="M33 0v138l181 662h273l168 -662v-138h-622zM474 138l-135 537l-144 -537h279z" />
    <glyph glyph-name="Epsilon" unicode="&#x395;" 
d="M93 0zM93 0v800h517v-138h-330v-166h289v-138h-289v-220h330v-138h-517z" />
    <glyph glyph-name="Epsilontonos" unicode="&#x388;" horiz-adv-x="875" 
d="M0 0zM260 0v800h517v-138h-330v-166h289v-138h-289v-220h330v-138h-517zM-23 600l32 200h220l-143 -200h-109z" />
    <glyph glyph-name="Zeta" unicode="&#x396;" horiz-adv-x="791" 
d="M104 0zM688 0h-584v138l357 524h-357v138h584v-138l-372 -524h372v-138z" />
    <glyph glyph-name="Eta" unicode="&#x397;" horiz-adv-x="791" 
d="M93 0zM93 0v800h187v-288h231v288h187v-800h-187v374h-231v-374h-187z" />
    <glyph glyph-name="Etatonos" unicode="&#x389;" horiz-adv-x="958" 
d="M0 0zM-34 600l32 200h220l-143 -200h-109zM260 0v800h187v-288h231v288h187v-800h-187v374h-231v-374h-187z" />
    <glyph glyph-name="Theta" unicode="&#x398;" horiz-adv-x="791" 
d="M396 -10q-146 0 -224.5 74t-78.5 205v258q0 132 78.5 207.5t224.5 75.5q147 0 224.5 -75.5t77.5 -207.5v-258q0 -131 -78 -205t-224 -74zM396 128q71 0 98.5 33.5t27.5 123.5v226q0 92 -27.5 126.5t-98.5 34.5q-72 0 -99 -34.5t-27 -126.5v-226q0 -90 27 -123.5t99 -33.5
zM333 344v122h126v-122h-126z" />
    <glyph glyph-name="Iota" unicode="&#x399;" 
d="M93 0zM93 0v138h167v524h-167v138h521v-138h-167v-524h167v-138h-521z" />
    <glyph glyph-name="Iotatonos" unicode="&#x38a;" horiz-adv-x="875" 
d="M0 0zM-40 600l32 200h220l-143 -200h-109zM260 0v138h167v524h-167v138h521v-138h-167v-524h167v-138h-521z" />
    <glyph glyph-name="Iotadieresis" unicode="&#x3aa;" 
d="M93 0zM93 0v138h167v524h-167v138h521v-138h-167v-524h167v-138h-521zM242 894q-39 0 -63.5 16t-24.5 56v14q0 40 24.5 57.5t63.5 17.5q40 0 64.5 -17.5t24.5 -57.5v-14q0 -40 -25 -56t-64 -16zM466 894q-40 0 -64.5 16t-24.5 56v14q0 40 24.5 57.5t64.5 17.5t64 -17.5
t24 -57.5v-14q0 -40 -25 -56t-63 -16z" />
    <glyph glyph-name="Kappa" unicode="&#x39a;" 
d="M93 0zM280 344v-344h-187v800h187v-318h35l172 318h204l-226 -369l223 -431h-215l-156 344h-37z" />
    <glyph glyph-name="Lambda" unicode="&#x39b;" horiz-adv-x="688" 
d="M466 0l-130 650l-132 -650h-171l186 800h252l184 -800h-189z" />
    <glyph glyph-name="Mu" unicode="&#x39c;" horiz-adv-x="875" 
d="M93 0zM354 200l-104 378v-578h-157v800h234l112 -427l112 427h230v-800h-157v583l-103 -383h-167z" />
    <glyph glyph-name="Nu" unicode="&#x39d;" horiz-adv-x="791" 
d="M93 0zM450 0l-200 593v-593h-157v800h253l195 -552v552h157v-800h-248z" />
    <glyph glyph-name="Xi" unicode="&#x39e;" 
d="M77 662v138h554v-138h-554zM98 358v138h512v-138h-512zM77 0v138h554v-138h-554z" />
    <glyph glyph-name="Omicron" unicode="&#x39f;" horiz-adv-x="791" 
d="M93 0zM396 -10q-146 0 -224.5 70.5t-78.5 195.5v284q0 126 78.5 198t224.5 72q147 0 224.5 -72t77.5 -198v-284q0 -125 -78 -195.5t-224 -70.5zM396 128q66 0 90.5 31t24.5 113v252q0 85 -24.5 116.5t-90.5 31.5t-91 -31.5t-25 -116.5v-252q0 -82 25 -113t91 -31z" />
    <glyph glyph-name="Omicrontonos" unicode="&#x38c;" horiz-adv-x="875" 
d="M0 0zM-13 600l32 200h220l-143 -200h-109zM480 -10q-146 0 -224.5 70.5t-78.5 195.5v284q0 126 78.5 198t224.5 72q147 0 224.5 -72t77.5 -198v-284q0 -125 -78 -195.5t-224 -70.5zM480 128q66 0 90.5 31t24.5 113v252q0 85 -24.5 116.5t-90.5 31.5t-91 -31.5t-25 -116.5
v-252q0 -82 25 -113t91 -31z" />
    <glyph glyph-name="Pi" unicode="&#x3a0;" horiz-adv-x="791" 
d="M93 0v800h605v-800h-187v662h-231v-662h-187z" />
    <glyph glyph-name="Rho" unicode="&#x3a1;" 
d="M93 0zM93 0v800h298q120 0 184.5 -58.5t64.5 -168.5v-107q0 -105 -64.5 -161.5t-183.5 -56.5h-112v-248h-187zM280 385h79q49 0 71.5 22t22.5 80v69q0 59 -22.5 82.5t-71.5 23.5h-79v-277z" />
    <glyph glyph-name="Sigma" unicode="&#x3a3;" 
d="M631 0h-562v138l279 280l-279 244v138h562v-138h-339l229 -207v-94l-224 -223h334v-138z" />
    <glyph glyph-name="Tau" unicode="&#x3a4;" 
d="M52 0zM260 0v662h-208v138h604v-138h-209v-662h-187z" />
    <glyph glyph-name="Upsilon" unicode="&#x3a5;" 
d="M17 0zM447 0h-187v300l-243 500h194l146 -352l151 352h182l-243 -500v-300z" />
    <glyph glyph-name="Upsilontonos" unicode="&#x38e;" horiz-adv-x="978" 
d="M36 0zM717 0h-187v300l-243 500h194l146 -352l151 352h182l-243 -500v-300zM36 600l32 200h220l-143 -200h-109z" />
    <glyph glyph-name="Upsilondieresis" unicode="&#x3ab;" 
d="M17 0zM447 0h-187v300l-243 500h194l146 -352l151 352h182l-243 -500v-300zM242 894q-39 0 -63.5 16t-24.5 56v14q0 40 24.5 57.5t63.5 17.5q40 0 64.5 -17.5t24.5 -57.5v-14q0 -40 -25 -56t-64 -16zM466 894q-40 0 -64.5 16t-24.5 56v14q0 40 24.5 57.5t64.5 17.5
t64 -17.5t24 -57.5v-14q0 -40 -25 -56t-63 -16z" />
    <glyph glyph-name="Phi" unicode="&#x3a6;" horiz-adv-x="875" 
d="M69 0zM549 90h-18v-102h-187v102h-17q-126 0 -192 68.5t-66 198.5v82q0 132 66 201.5t192 69.5h17v102h187v-102h18q125 0 191.5 -69.5t66.5 -201.5v-82q0 -130 -66.5 -198.5t-191.5 -68.5zM549 580h-23v-360h23q45 0 63 35.5t18 101.5v82q0 66 -18 103.5t-63 37.5z
M327 220h21v360h-21q-46 0 -64 -37.5t-18 -103.5v-82q0 -66 18 -101.5t64 -35.5z" />
    <glyph glyph-name="Chi" unicode="&#x3a7;" horiz-adv-x="791" 
d="M73 0zM517 0l-126 235l-121 -235h-197l224 416l-204 384h209l115 -222l106 222h195l-206 -408l203 -392h-198z" />
    <glyph glyph-name="Psi" unicode="&#x3a8;" horiz-adv-x="978" 
d="M583 0h-187v187q-152 16 -227.5 85.5t-75.5 184.5v343h187v-319q0 -67 26 -104.5t90 -45.5v469h187v-469q63 8 89 45.5t26 104.5v319h187v-343q0 -115 -75.5 -184.5t-226.5 -85.5v-187z" />
    <glyph glyph-name="Omega" unicode="&#x3a9;" horiz-adv-x="771" 
d="M344 0h-281v114h94v90q-58 32 -86.5 83.5t-28.5 123.5v108q0 140 85 215.5t259 75.5t259 -75.5t85 -215.5v-108q0 -72 -29 -123.5t-87 -83.5v-90h95v-114h-282v230q68 16 92 62t24 119v108q0 76 -34.5 112.5t-122.5 36.5t-122.5 -36.5t-34.5 -112.5v-108q0 -73 23.5 -119
t91.5 -62v-230z" />
    <glyph glyph-name="Omegatonos" unicode="&#x38f;" horiz-adv-x="958" 
d="M0 0zM-13 600l32 200h220l-143 -200h-109zM531 0h-281v114h94v90q-58 32 -86.5 83.5t-28.5 123.5v108q0 140 85 215.5t259 75.5t259 -75.5t85 -215.5v-108q0 -72 -29 -123.5t-87 -83.5v-90h95v-114h-282v230q68 16 92 62t24 119v108q0 76 -34.5 112.5t-122.5 36.5
t-122.5 -36.5t-34.5 -112.5v-108q0 -73 23.5 -119t91.5 -62v-230z" />
    <glyph glyph-name="Ohm" unicode="&#x2126;" horiz-adv-x="771" 
d="M42 0zM344 0h-281v114h94v90q-58 32 -86.5 83.5t-28.5 123.5v108q0 140 85 215.5t259 75.5t259 -75.5t85 -215.5v-108q0 -72 -29 -123.5t-87 -83.5v-90h95v-114h-282v230q68 16 92 62t24 119v108q0 76 -34.5 112.5t-122.5 36.5t-122.5 -36.5t-34.5 -112.5v-108
q0 -73 23.5 -119t91.5 -62v-230z" />
    <glyph glyph-name="Djecyrillic" unicode="&#x402;" horiz-adv-x="875" 
d="M223 0v662h-171v138h567v-138h-209v-142h121q143 0 212.5 -58t69.5 -177v-52q0 -128 -77 -180.5t-205 -52.5v136q44 0 69.5 21t25.5 78v48q0 57 -25.5 79t-69.5 22h-121v-384h-187z" />
    <glyph glyph-name="Ecyrillic" unicode="&#x404;" horiz-adv-x="791" 
d="M726 273q-6 -143 -82 -213t-229 -70q-163 0 -242 68t-79 198v284q0 132 79 201t243 69q152 0 228 -70.5t82 -216.5l-187 -10q-6 93 -32 126t-92 33q-78 0 -106 -30.5t-28 -118.5v-27h203v-138h-203v-86q0 -85 28 -114.5t106 -29.5q66 0 92 32t32 123z" />
    <glyph glyph-name="Dzecyrillic" unicode="&#x405;" horiz-adv-x="791" 
d="M93 0zM388 -9q-72 0 -148.5 21t-146.5 59l33 141q68 -40 138.5 -61.5t141.5 -21.5q55 0 82 24.5t27 64.5q0 42 -36.5 62t-136.5 42q-121 29 -182 80t-61 151q0 111 76 183.5t213 72.5q74 0 146 -21t123 -54l-25 -134q-63 34 -123.5 52.5t-114.5 18.5q-51 0 -80.5 -22
t-29.5 -65q0 -42 33.5 -62t140.5 -45q127 -32 185 -85t58 -152q0 -112 -80.5 -180.5t-232.5 -68.5z" />
    <glyph glyph-name="Icyrillic" unicode="&#x406;" 
d="M93 0zM93 0v138h167v524h-167v138h521v-138h-167v-524h167v-138h-521z" />
    <glyph glyph-name="Yicyrillic" unicode="&#x407;" 
d="M93 0zM242 894q-39 0 -63.5 16t-24.5 56v14q0 40 24.5 57.5t63.5 17.5q40 0 64.5 -17.5t24.5 -57.5v-14q0 -40 -25 -56t-64 -16zM466 894q-40 0 -64.5 16t-24.5 56v14q0 40 24.5 57.5t64.5 17.5t64 -17.5t24 -57.5v-14q0 -40 -25 -56t-63 -16zM93 0v138h167v524h-167v138
h521v-138h-167v-524h167v-138h-521z" />
    <glyph glyph-name="Jecyrillic" unicode="&#x408;" 
d="M60 0zM344 -10q-159 0 -218 63.5t-66 227.5l187 11q6 -101 25 -132.5t72 -31.5q51 0 67 26.5t16 113.5v394h-218v138h405v-540q0 -137 -61.5 -203.5t-208.5 -66.5z" />
    <glyph glyph-name="Ljecyrillic" unicode="&#x409;" horiz-adv-x="1125" 
d="M357 236q-1 -134 -57 -191.5t-149 -57.5q-25 0 -54 4.5t-61 11.5l18 139q16 -4 31.5 -6.5t28.5 -2.5q25 0 41 22t17 94l3 551h523v-248h112q120 0 183.5 -56t63.5 -162v-107q0 -110 -63.5 -168.5t-184.5 -58.5h-298v662h-152zM698 138h78q50 0 72 23t22 83v69
q0 58 -22 80t-72 22h-78v-277z" />
    <glyph glyph-name="Njecyrillic" unicode="&#x40a;" horiz-adv-x="1125" 
d="M698 138h78q50 0 72 23t22 83v69q0 58 -22 80t-72 22h-78v-277zM280 374v-374h-187v800h187v-288h231v288h187v-248h112q120 0 183.5 -56t63.5 -162v-107q0 -110 -64 -168.5t-184 -58.5h-298v374h-231z" />
    <glyph glyph-name="Tshecyrillic" unicode="&#x40b;" horiz-adv-x="875" 
d="M421 0h-187v662h-182v138h588v-138h-219v-164h106q125 0 189.5 -59.5t64.5 -174.5v-264h-187v253q0 60 -23 84.5t-60 24.5h-90v-362z" />
    <glyph glyph-name="Dzhecyrillic" unicode="&#x40f;" horiz-adv-x="791" 
d="M301 -150v150h-208v800h187v-662h231v662h187v-800h-209v-150h-188z" />
    <glyph glyph-name="Acyrillic" unicode="&#x410;" horiz-adv-x="688" 
d="M33 0zM400 328l-64 322l-65 -322h129zM466 0l-38 190h-185l-39 -190h-171l186 800h252l184 -800h-189z" />
    <glyph glyph-name="Becyrillic" unicode="&#x411;" horiz-adv-x="791" 
d="M93 0v800h558v-138h-371v-150h186q118 0 181 -57t63 -164v-56q0 -114 -62.5 -174.5t-181.5 -60.5h-373zM280 138h169q36 0 55 22.5t19 79.5v36q0 57 -19 78.5t-55 21.5h-169v-238z" />
    <glyph glyph-name="Vecyrillic" unicode="&#x412;" horiz-adv-x="791" 
d="M93 0zM93 0v800h348q116 0 176.5 -48t60.5 -140v-36q0 -63 -26 -94.5t-88 -43.5v-29q64 -7 97.5 -47.5t33.5 -101.5v-50q0 -102 -66 -156t-193 -54h-343zM280 476h128q48 0 67 16.5t19 58.5v44q0 42 -19 58.5t-67 16.5h-128v-194zM280 130h120q60 0 84 20t24 69v48
q0 49 -24 69t-84 20h-120v-226z" />
    <glyph glyph-name="Gecyrillic" unicode="&#x413;" horiz-adv-x="624" 
d="M93 0zM93 0v800h496v-138h-309v-662h-187z" />
    <glyph glyph-name="Gjecyrillic" unicode="&#x403;" horiz-adv-x="624" 
d="M93 0zM225 900l83 200h228l-194 -200h-117zM93 0v800h496v-138h-309v-662h-187z" />
    <glyph glyph-name="Decyrillic" unicode="&#x414;" horiz-adv-x="875" 
d="M320 158v-20h191v524h-160l-3 -358q-1 -51 -8.5 -88t-19.5 -58zM239 0v-150h-187v288h73q18 16 26.5 53t9.5 117l6 492h531v-662h83v-288h-187v150h-355z" />
    <glyph glyph-name="Iecyrillic" unicode="&#x415;" 
d="M93 0zM93 0v800h517v-138h-330v-166h289v-138h-289v-220h330v-138h-517z" />
    <glyph glyph-name="IEgravecyrillic" unicode="&#x400;" 
d="M93 0zM307 900l-194 200h229l82 -200h-117zM93 0v800h517v-138h-330v-166h289v-138h-289v-220h330v-138h-517z" />
    <glyph glyph-name="Iocyrillic" unicode="&#x401;" 
d="M93 0zM93 0v800h517v-138h-330v-166h289v-138h-289v-220h330v-138h-517zM247 894q-39 0 -63.5 16t-24.5 56v14q0 40 24.5 57.5t63.5 17.5q40 0 64.5 -17.5t24.5 -57.5v-14q0 -40 -25 -56t-64 -16zM471 894q-40 0 -64.5 16t-24.5 56v14q0 40 24.5 57.5t64.5 17.5t64 -17.5
t24 -57.5v-14q0 -40 -25 -56t-63 -16z" />
    <glyph glyph-name="Zhecyrillic" unicode="&#x416;" horiz-adv-x="875" 
d="M307 352l-101 -352h-184l155 440l-158 360h180l126 -326h28v326h168v-326h29l125 326h180l-154 -354l152 -446h-184l-101 352h-47v-352h-168v352h-46z" />
    <glyph glyph-name="Zecyrillic" unicode="&#x417;" horiz-adv-x="791" 
d="M409 -10q-164 0 -241 68t-83 187l187 10q6 -73 34.5 -101t94.5 -28q58 0 82.5 24.5t24.5 78.5v23q0 54 -27 75t-84 21h-59v136h59q54 0 75.5 17.5t21.5 63.5v21q0 46 -21.5 67t-72.5 21q-57 0 -81.5 -24.5t-29.5 -87.5l-187 10q6 117 72.5 177.5t223.5 60.5
q134 0 208 -47.5t74 -154.5v-21q0 -66 -21.5 -100t-82.5 -50v-29q69 -14 94 -50.5t25 -116.5v-19q0 -119 -80.5 -175.5t-205.5 -56.5z" />
    <glyph glyph-name="Iicyrillic" unicode="&#x418;" horiz-adv-x="791" 
d="M532 0v592l-175 -592h-264v800h167v-627l189 627h249v-800h-166z" />
    <glyph glyph-name="Igravecyrillic" unicode="&#x40d;" horiz-adv-x="791" 
d="M93 0zM359 900l-194 200h229l82 -200h-117zM532 0v592l-175 -592h-264v800h167v-627l189 627h249v-800h-166z" />
    <glyph glyph-name="Iishortcyrillic" unicode="&#x419;" horiz-adv-x="791" 
d="M93 0zM532 0v592l-175 -592h-264v800h167v-627l189 627h249v-800h-166zM400 893q-105 0 -168 55.5t-61 168.5l156 10q-1 -66 14.5 -94.5t58.5 -28.5t58.5 28.5t14.5 94.5l156 -10q2 -113 -61 -168.5t-168 -55.5z" />
    <glyph glyph-name="Kacyrillic" unicode="&#x41a;" 
d="M93 0zM280 344v-344h-187v800h187v-318h35l172 318h204l-226 -369l223 -431h-215l-156 344h-37z" />
    <glyph glyph-name="Kjecyrillic" unicode="&#x40c;" 
d="M93 0zM301 900l83 200h228l-194 -200h-117zM280 344v-344h-187v800h187v-318h35l172 318h204l-226 -369l223 -431h-215l-156 344h-37z" />
    <glyph glyph-name="Elcyrillic" unicode="&#x41b;" horiz-adv-x="791" 
d="M511 0v662h-152l-2 -426q-1 -134 -57 -191.5t-149 -57.5q-25 0 -54 4.5t-61 11.5l18 139q19 -5 32.5 -7t27.5 -2q30 0 43.5 23.5t14.5 92.5l3 551h523v-800h-187z" />
    <glyph glyph-name="Emcyrillic" unicode="&#x41c;" horiz-adv-x="875" 
d="M93 0zM354 200l-104 378v-578h-157v800h234l112 -427l112 427h230v-800h-157v583l-103 -383h-167z" />
    <glyph glyph-name="Encyrillic" unicode="&#x41d;" horiz-adv-x="791" 
d="M93 0zM93 0v800h187v-288h231v288h187v-800h-187v374h-231v-374h-187z" />
    <glyph glyph-name="Ocyrillic" unicode="&#x41e;" horiz-adv-x="791" 
d="M93 0zM396 -10q-146 0 -224.5 70.5t-78.5 195.5v284q0 126 78.5 198t224.5 72q147 0 224.5 -72t77.5 -198v-284q0 -125 -78 -195.5t-224 -70.5zM396 128q66 0 90.5 31t24.5 113v252q0 85 -24.5 116.5t-90.5 31.5t-91 -31.5t-25 -116.5v-252q0 -82 25 -113t91 -31z" />
    <glyph glyph-name="Pecyrillic" unicode="&#x41f;" horiz-adv-x="791" 
d="M93 0zM93 0v800h605v-800h-187v662h-231v-662h-187z" />
    <glyph glyph-name="Ercyrillic" unicode="&#x420;" 
d="M93 0zM93 0v800h298q120 0 184.5 -58.5t64.5 -168.5v-107q0 -105 -64.5 -161.5t-183.5 -56.5h-112v-248h-187zM280 385h79q49 0 71.5 22t22.5 80v69q0 59 -22.5 82.5t-71.5 23.5h-79v-277z" />
    <glyph glyph-name="Escyrillic" unicode="&#x421;" horiz-adv-x="791" 
d="M93 0zM415 -10q-168 0 -245 70.5t-77 195.5v284q0 126 77 198t245 72q154 0 229 -69.5t81 -217.5l-187 -10q-5 92 -32.5 125.5t-94.5 33.5q-75 0 -103 -31.5t-28 -117.5v-251q0 -83 28 -113.5t103 -30.5q67 0 94.5 32.5t32.5 122.5l187 -10q-6 -146 -81 -214.5
t-229 -68.5z" />
    <glyph glyph-name="Tecyrillic" unicode="&#x422;" 
d="M52 0zM260 0v662h-208v138h604v-138h-209v-662h-187z" />
    <glyph glyph-name="Ucyrillic" unicode="&#x423;" 
d="M188 -7q-28 0 -59 4t-62 11l15 138q32 -8 59 -12t47 -4q39 0 63 21t39 64l8 21h-71l-198 564h181l140 -413l145 413h182l-229 -625q-37 -100 -105 -141t-155 -41z" />
    <glyph glyph-name="Ushortcyrillic" unicode="&#x40e;" 
d="M29 0zM188 -7q-28 0 -59 4t-62 11l15 138q32 -8 59 -12t47 -4q39 0 63 21t39 64l8 21h-71l-198 564h181l140 -413l145 413h182l-229 -625q-37 -100 -105 -141t-155 -41zM364 893q-105 0 -168 55.5t-61 168.5l156 10q-1 -66 14.5 -94.5t58.5 -28.5t58.5 28.5t14.5 94.5
l156 -10q2 -113 -61 -168.5t-168 -55.5z" />
    <glyph glyph-name="Efcyrillic" unicode="&#x424;" horiz-adv-x="875" 
d="M549 90h-18v-102h-187v102h-17q-126 0 -192 68.5t-66 198.5v82q0 132 66 201.5t192 69.5h17v102h187v-102h18q125 0 191.5 -69.5t66.5 -201.5v-82q0 -130 -66.5 -198.5t-191.5 -68.5zM549 580h-23v-360h23q45 0 63 35.5t18 101.5v82q0 66 -18 103.5t-63 37.5zM327 220h21
v360h-21q-46 0 -64 -37.5t-18 -103.5v-82q0 -66 18 -101.5t64 -35.5z" />
    <glyph glyph-name="Khacyrillic" unicode="&#x425;" horiz-adv-x="791" 
d="M73 0zM517 0l-126 235l-121 -235h-197l224 416l-204 384h209l115 -222l106 222h195l-206 -408l203 -392h-198z" />
    <glyph glyph-name="Tsecyrillic" unicode="&#x426;" horiz-adv-x="791" 
d="M553 -150v150h-460v800h187v-662h189v662h187v-662h84v-288h-187z" />
    <glyph glyph-name="Checyrillic" unicode="&#x427;" 
d="M614 800v-800h-187v256h-77q-143 0 -212 61.5t-69 189.5v293h186v-291q0 -60 25 -88.5t70 -28.5h77v408h187z" />
    <glyph glyph-name="Shacyrillic" unicode="&#x428;" horiz-adv-x="958" 
d="M93 0v800h177v-662h121v662h176v-662h122v662h176v-800h-772z" />
    <glyph glyph-name="Shchacyrillic" unicode="&#x429;" horiz-adv-x="1000" 
d="M948 -150h-185v150h-670v800h177v-662h121v662h176v-662h122v662h176v-662h83v-288z" />
    <glyph glyph-name="Hardsigncyrillic" unicode="&#x42a;" horiz-adv-x="791" 
d="M475 0h-298v662h-167v138h354v-248h112q124 0 185.5 -54t61.5 -164v-107q0 -113 -61.5 -170t-186.5 -57zM364 138h78q50 0 72 23.5t22 82.5v69q0 58 -22 80t-72 22h-78v-277z" />
    <glyph glyph-name="Yericyrillic" unicode="&#x42b;" horiz-adv-x="978" 
d="M93 0v800h187v-248h97q119 0 178 -54t59 -164v-107q0 -113 -59.5 -170t-178.5 -57h-283zM698 0v800h187v-800h-187zM280 138h64q44 0 63.5 23.5t19.5 82.5v69q0 58 -19.5 80t-63.5 22h-64v-277z" />
    <glyph glyph-name="Softsigncyrillic" unicode="&#x42c;" 
d="M93 0v800h187v-248h112q124 0 186 -54t62 -164v-107q0 -113 -62 -170t-187 -57h-298zM280 138h79q49 0 71.5 23.5t22.5 82.5v69q0 58 -22.5 80t-71.5 22h-79v-277z" />
    <glyph glyph-name="Ereversedcyrillic" unicode="&#x42d;" horiz-adv-x="791" 
d="M403 -10q-157 0 -233.5 70t-82.5 218l187 10q6 -91 33 -125t96 -34q75 0 102 28.5t27 105.5v95h-188v138h188v32q0 82 -26.5 112t-98.5 30q-71 0 -99 -34.5t-34 -127.5l-187 10q6 150 83.5 221t235.5 71q163 0 238 -68t75 -202v-284q0 -132 -76.5 -199t-239.5 -67z" />
    <glyph glyph-name="IUcyrillic" unicode="&#x42e;" horiz-adv-x="1061" 
d="M687 -10q-137 0 -209 70.5t-72 195.5v102h-126v-358h-187v800h187v-304h126v44q0 126 72.5 198t209.5 72t208.5 -72t71.5 -198v-284q0 -125 -72 -195.5t-209 -70.5zM687 128q53 0 73.5 31.5t20.5 112.5v252q0 84 -20.5 116t-73.5 32q-54 0 -74.5 -32t-20.5 -116v-252
q0 -81 20.5 -112.5t74.5 -31.5z" />
    <glyph glyph-name="IAcyrillic" unicode="&#x42f;" horiz-adv-x="791" 
d="M385 423h126v239h-126q-43 0 -63.5 -17.5t-20.5 -70.5v-62q0 -52 20.5 -70.5t63.5 -18.5zM511 286h-72l-159 -286h-194l166 298q-69 20 -103.5 73.5t-34.5 139.5v70q0 109 58.5 164t174.5 55h351v-800h-187v286z" />
    <glyph glyph-name="Gheupturncyrillic" unicode="&#x490;" horiz-adv-x="624" 
d="M93 0v800h310v150h186v-288h-309v-662h-187z" />
    <glyph glyph-name="a" unicode="a" horiz-adv-x="791" 
d="M340 103q27 0 52.5 8.5t45.5 24.5v104h-107q-22 0 -35.5 -14.5t-13.5 -52.5q0 -35 14.5 -52.5t43.5 -17.5zM290 -10q-87 0 -136.5 46t-49.5 128q0 84 52.5 128t144.5 44h137v76q0 40 -20.5 59t-57.5 19q-38 0 -55.5 -19t-28.5 -73l-160 25q20 100 88 143.5t175 43.5
q120 0 183 -45.5t63 -147.5v-223q0 -48 24.5 -60t75.5 -5v-125q-79 -19 -134.5 -3t-74.5 82h-27q-30 -42 -80.5 -67.5t-118.5 -25.5z" />
    <glyph glyph-name="agrave" unicode="&#xe0;" horiz-adv-x="791" 
d="M104 0zM340 103q27 0 52.5 8.5t45.5 24.5v104h-107q-22 0 -35.5 -14.5t-13.5 -52.5q0 -35 14.5 -52.5t43.5 -17.5zM290 -10q-87 0 -136.5 46t-49.5 128q0 84 52.5 128t144.5 44h137v76q0 40 -20.5 59t-57.5 19q-38 0 -55.5 -19t-28.5 -73l-160 25q20 100 88 143.5
t175 43.5q120 0 183 -45.5t63 -147.5v-223q0 -48 24.5 -60t75.5 -5v-125q-79 -19 -134.5 -3t-74.5 82h-27q-30 -42 -80.5 -67.5t-118.5 -25.5zM352 700l-194 200h229l82 -200h-117z" />
    <glyph glyph-name="aacute" unicode="&#xe1;" horiz-adv-x="791" 
d="M104 0zM340 103q27 0 52.5 8.5t45.5 24.5v104h-107q-22 0 -35.5 -14.5t-13.5 -52.5q0 -35 14.5 -52.5t43.5 -17.5zM290 -10q-87 0 -136.5 46t-49.5 128q0 84 52.5 128t144.5 44h137v76q0 40 -20.5 59t-57.5 19q-38 0 -55.5 -19t-28.5 -73l-160 25q20 100 88 143.5
t175 43.5q120 0 183 -45.5t63 -147.5v-223q0 -48 24.5 -60t75.5 -5v-125q-79 -19 -134.5 -3t-74.5 82h-27q-30 -42 -80.5 -67.5t-118.5 -25.5zM256 700l83 200h228l-194 -200h-117z" />
    <glyph glyph-name="acircumflex" unicode="&#xe2;" horiz-adv-x="791" 
d="M104 0zM340 103q27 0 52.5 8.5t45.5 24.5v104h-107q-22 0 -35.5 -14.5t-13.5 -52.5q0 -35 14.5 -52.5t43.5 -17.5zM290 -10q-87 0 -136.5 46t-49.5 128q0 84 52.5 128t144.5 44h137v76q0 40 -20.5 59t-57.5 19q-38 0 -55.5 -19t-28.5 -73l-160 25q20 100 88 143.5
t175 43.5q120 0 183 -45.5t63 -147.5v-223q0 -48 24.5 -60t75.5 -5v-125q-79 -19 -134.5 -3t-74.5 82h-27q-30 -42 -80.5 -67.5t-118.5 -25.5zM201 688l-57 80l156 157h143l157 -157l-56 -79l-173 107z" />
    <glyph glyph-name="atilde" unicode="&#xe3;" horiz-adv-x="791" 
d="M104 0zM340 103q27 0 52.5 8.5t45.5 24.5v104h-107q-22 0 -35.5 -14.5t-13.5 -52.5q0 -35 14.5 -52.5t43.5 -17.5zM290 -10q-87 0 -136.5 46t-49.5 128q0 84 52.5 128t144.5 44h137v76q0 40 -20.5 59t-57.5 19q-38 0 -55.5 -19t-28.5 -73l-160 25q20 100 88 143.5
t175 43.5q120 0 183 -45.5t63 -147.5v-223q0 -48 24.5 -60t75.5 -5v-125q-79 -19 -134.5 -3t-74.5 82h-27q-30 -42 -80.5 -67.5t-118.5 -25.5zM455 710q-38 0 -61 12.5t-40 36.5l-24 34t-27 15q-14 0 -24 -13.5t-10 -53.5v-21h-116v15q0 86 38 138.5t103 52.5
q35 0 56.5 -12.5t39.5 -36.5l26 -34.5t26 -15.5q16 0 25 14t9 54v20h116v-15q0 -85 -37 -137.5t-100 -52.5z" />
    <glyph glyph-name="adieresis" unicode="&#xe4;" horiz-adv-x="791" 
d="M104 0zM340 103q27 0 52.5 8.5t45.5 24.5v104h-107q-22 0 -35.5 -14.5t-13.5 -52.5q0 -35 14.5 -52.5t43.5 -17.5zM290 -10q-87 0 -136.5 46t-49.5 128q0 84 52.5 128t144.5 44h137v76q0 40 -20.5 59t-57.5 19q-38 0 -55.5 -19t-28.5 -73l-160 25q20 100 88 143.5
t175 43.5q120 0 183 -45.5t63 -147.5v-223q0 -48 24.5 -60t75.5 -5v-125q-79 -19 -134.5 -3t-74.5 82h-27q-30 -42 -80.5 -67.5t-118.5 -25.5zM260 694q-39 0 -63.5 16t-24.5 56v14q0 40 24.5 57.5t63.5 17.5q40 0 64.5 -17.5t24.5 -57.5v-14q0 -40 -25 -56t-64 -16z
M484 694q-40 0 -64.5 16t-24.5 56v14q0 40 24.5 57.5t64.5 17.5t64 -17.5t24 -57.5v-14q0 -40 -25 -56t-63 -16z" />
    <glyph glyph-name="aring" unicode="&#xe5;" horiz-adv-x="791" 
d="M104 0zM340 103q27 0 52.5 8.5t45.5 24.5v104h-107q-22 0 -35.5 -14.5t-13.5 -52.5q0 -35 14.5 -52.5t43.5 -17.5zM290 -10q-87 0 -136.5 46t-49.5 128q0 84 52.5 128t144.5 44h137v76q0 40 -20.5 59t-57.5 19q-38 0 -55.5 -19t-28.5 -73l-160 25q20 100 88 143.5
t175 43.5q120 0 183 -45.5t63 -147.5v-223q0 -48 24.5 -60t75.5 -5v-125q-79 -19 -134.5 -3t-74.5 82h-27q-30 -42 -80.5 -67.5t-118.5 -25.5zM372 677q-83 0 -134.5 37.5t-51.5 115.5v32q0 79 51.5 117.5t134.5 38.5q84 0 135 -38.5t51 -117.5v-32q0 -78 -51.5 -115.5
t-134.5 -37.5zM372 764q28 0 43 15t15 51v32q0 35 -15 52t-43 17q-29 0 -43.5 -17t-14.5 -52v-32q0 -36 14.5 -51t43.5 -15z" />
    <glyph glyph-name="amacron" unicode="&#x101;" horiz-adv-x="791" 
d="M104 0zM340 103q27 0 52.5 8.5t45.5 24.5v104h-107q-22 0 -35.5 -14.5t-13.5 -52.5q0 -35 14.5 -52.5t43.5 -17.5zM290 -10q-87 0 -136.5 46t-49.5 128q0 84 52.5 128t144.5 44h137v76q0 40 -20.5 59t-57.5 19q-38 0 -55.5 -19t-28.5 -73l-160 25q20 100 88 143.5
t175 43.5q120 0 183 -45.5t63 -147.5v-223q0 -48 24.5 -60t75.5 -5v-125q-79 -19 -134.5 -3t-74.5 82h-27q-30 -42 -80.5 -67.5t-118.5 -25.5zM179 731v138h386v-138h-386z" />
    <glyph glyph-name="abreve" unicode="&#x103;" horiz-adv-x="791" 
d="M104 0zM340 103q27 0 52.5 8.5t45.5 24.5v104h-107q-22 0 -35.5 -14.5t-13.5 -52.5q0 -35 14.5 -52.5t43.5 -17.5zM290 -10q-87 0 -136.5 46t-49.5 128q0 84 52.5 128t144.5 44h137v76q0 40 -20.5 59t-57.5 19q-38 0 -55.5 -19t-28.5 -73l-160 25q20 100 88 143.5
t175 43.5q120 0 183 -45.5t63 -147.5v-223q0 -48 24.5 -60t75.5 -5v-125q-79 -19 -134.5 -3t-74.5 82h-27q-30 -42 -80.5 -67.5t-118.5 -25.5zM372 693q-116 0 -172.5 57.5t-57.5 176.5h145q1 -71 19.5 -97t65.5 -26t65.5 26t19.5 97h145q-1 -119 -57.5 -176.5t-172.5 -57.5
z" />
    <glyph glyph-name="aogonek" unicode="&#x105;" horiz-adv-x="791" 
d="M104 0zM340 103q27 0 52.5 8.5t45.5 24.5v104h-107q-22 0 -35.5 -14.5t-13.5 -52.5q0 -35 14.5 -52.5t43.5 -17.5zM290 -10q-87 0 -136.5 46t-49.5 128q0 84 52.5 128t144.5 44h137v76q0 40 -20.5 59t-57.5 19q-38 0 -55.5 -19t-28.5 -73l-160 25q20 100 88 143.5
t175 43.5q120 0 183 -45.5t63 -147.5v-223q0 -48 24.5 -60t75.5 -5v-125q-79 -19 -134.5 -3t-74.5 82h-27q-30 -42 -80.5 -67.5t-118.5 -25.5zM611 -222q-75 0 -116 32t-41 94q0 57 42 102.5t102 64.5l22 -48q-23 -16 -31 -35t-8 -44q0 -26 15 -39t49 -13q15 0 34 2.5
t46 7.5v-111q-33 -7 -61 -10t-53 -3z" />
    <glyph glyph-name="aringacute" unicode="&#x1fb;" horiz-adv-x="791" 
d="M104 0zM340 103q27 0 52.5 8.5t45.5 24.5v104h-107q-22 0 -35.5 -14.5t-13.5 -52.5q0 -35 14.5 -52.5t43.5 -17.5zM290 -10q-87 0 -136.5 46t-49.5 128q0 84 52.5 128t144.5 44h137v76q0 40 -20.5 59t-57.5 19q-38 0 -55.5 -19t-28.5 -73l-160 25q20 100 88 143.5
t175 43.5q120 0 183 -45.5t63 -147.5v-223q0 -48 24.5 -60t75.5 -5v-125q-79 -19 -134.5 -3t-74.5 82h-27q-30 -42 -80.5 -67.5t-118.5 -25.5zM372 677q-83 0 -134.5 37.5t-51.5 115.5v32q0 79 51.5 117.5t134.5 38.5q84 0 135 -38.5t51 -117.5v-32q0 -78 -51.5 -115.5
t-134.5 -37.5zM372 764q28 0 43 15t15 51v32q0 35 -15 52t-43 17q-29 0 -43.5 -17t-14.5 -52v-32q0 -36 14.5 -51t43.5 -15zM305 1000l83 200h228l-194 -200h-117z" />
    <glyph glyph-name="b" unicode="b" 
d="M347 -7q-70 0 -140 17.5t-114 54.5v735h187v-295h25q15 50 54.5 77.5t96.5 27.5q75 0 116.5 -54.5t41.5 -153.5v-196q0 -104 -68 -158.5t-199 -54.5zM360 122q35 0 51 18.5t16 66.5v179q0 46 -16.5 65.5t-41.5 19.5q-22 0 -45.5 -11t-43.5 -37v-277q13 -10 33 -17t47 -7z
" />
    <glyph glyph-name="c" unicode="c" 
d="M355 -10q-130 0 -196 57t-66 161v181q0 110 67.5 165.5t193.5 55.5q128 0 194.5 -55.5t74.5 -159.5l-180 -14q-4 57 -21.5 77.5t-62.5 20.5q-46 0 -62.5 -21t-16.5 -71v-171q0 -54 17 -75t63 -21q47 0 63.5 19.5t19.5 73.5l180 -14q-6 -101 -70 -155t-198 -54z" />
    <glyph glyph-name="ccedilla" unicode="&#xe7;" 
d="M93 0zM355 -10q-130 0 -196 57t-66 161v181q0 110 67.5 165.5t193.5 55.5q128 0 194.5 -55.5t74.5 -159.5l-180 -14q-4 57 -21.5 77.5t-62.5 20.5q-46 0 -62.5 -21t-16.5 -71v-171q0 -54 17 -75t63 -21q47 0 63.5 19.5t19.5 73.5l180 -14q-6 -101 -70 -155t-198 -54z
M325 0l16 42q87 -9 132 -39t45 -92q0 -67 -54 -101t-141 -34q-90 0 -143 32.5t-57 97.5l156 10q2 -19 10 -26.5t27 -7.5q22 0 33 11t11 45q0 27 -6.5 41t-28.5 21z" />
    <glyph glyph-name="cacute" unicode="&#x107;" 
d="M93 0zM355 -10q-130 0 -196 57t-66 161v181q0 110 67.5 165.5t193.5 55.5q128 0 194.5 -55.5t74.5 -159.5l-180 -14q-4 57 -21.5 77.5t-62.5 20.5q-46 0 -62.5 -21t-16.5 -71v-171q0 -54 17 -75t63 -21q47 0 63.5 19.5t19.5 73.5l180 -14q-6 -101 -70 -155t-198 -54z
M234 700l83 200h228l-194 -200h-117z" />
    <glyph glyph-name="ccircumflex" unicode="&#x109;" 
d="M93 0zM177 688l-57 80l156 157h143l157 -157l-56 -79l-173 107zM355 -10q-130 0 -196 57t-66 161v181q0 110 67.5 165.5t193.5 55.5q128 0 194.5 -55.5t74.5 -159.5l-180 -14q-4 57 -21.5 77.5t-62.5 20.5q-46 0 -62.5 -21t-16.5 -71v-171q0 -54 17 -75t63 -21
q47 0 63.5 19.5t19.5 73.5l180 -14q-6 -101 -70 -155t-198 -54z" />
    <glyph glyph-name="cdotaccent" unicode="&#x10b;" 
d="M93 0zM355 -10q-130 0 -196 57t-66 161v181q0 110 67.5 165.5t193.5 55.5q128 0 194.5 -55.5t74.5 -159.5l-180 -14q-4 57 -21.5 77.5t-62.5 20.5q-46 0 -62.5 -21t-16.5 -71v-171q0 -54 17 -75t63 -21q47 0 63.5 19.5t19.5 73.5l180 -14q-6 -101 -70 -155t-198 -54z
M348 694q-51 0 -83 16t-32 56v14q0 40 32 57.5t83 17.5q52 0 83.5 -17.5t31.5 -57.5v-14q0 -40 -32 -56t-83 -16z" />
    <glyph glyph-name="ccaron" unicode="&#x10d;" 
d="M93 0zM277 704l-157 157l56 79l173 -107l170 108l57 -80l-156 -157h-143zM355 -10q-130 0 -196 57t-66 161v181q0 110 67.5 165.5t193.5 55.5q128 0 194.5 -55.5t74.5 -159.5l-180 -14q-4 57 -21.5 77.5t-62.5 20.5q-46 0 -62.5 -21t-16.5 -71v-171q0 -54 17 -75t63 -21
q47 0 63.5 19.5t19.5 73.5l180 -14q-6 -101 -70 -155t-198 -54z" />
    <glyph glyph-name="d" unicode="d" 
d="M339 129q22 0 44 13t44 41v266q-22 15 -41.5 22t-37.5 7q-34 0 -51 -20.5t-17 -64.5v-179q0 -45 16.5 -65t42.5 -20zM403 101q-15 -49 -55 -80t-102 -31q-73 0 -113 56.5t-40 151.5v196q0 100 57.5 156.5t158.5 56.5q33 0 63 -6.5t55 -18.5v218h187v-800h-187v101h-24z
" />
    <glyph glyph-name="dcaron" unicode="&#x10f;" 
d="M93 0zM697 705l37 295h226l-161 -295h-102zM339 129q22 0 44 13t44 41v266q-22 15 -41.5 22t-37.5 7q-34 0 -51 -20.5t-17 -64.5v-179q0 -45 16.5 -65t42.5 -20zM403 101q-15 -49 -55 -80t-102 -31q-73 0 -113 56.5t-40 151.5v196q0 100 57.5 156.5t158.5 56.5
q33 0 63 -6.5t55 -18.5v218h187v-800h-187v101h-24z" />
    <glyph glyph-name="e" unicode="e" 
d="M616 140q-27 -75 -92.5 -112.5t-172.5 -37.5q-120 0 -189 60t-69 166v172q0 104 70 163t192 59q121 0 190 -60t69 -165v-121h-334v-48q0 -58 19.5 -83.5t68.5 -25.5q40 0 61.5 16.5t36.5 57.5zM280 387v-28h147v26q0 63 -16 87.5t-57 24.5q-42 0 -58 -23.5t-16 -86.5z
" />
    <glyph glyph-name="egrave" unicode="&#xe8;" 
d="M93 0zM339 700l-194 200h229l82 -200h-117zM616 140q-27 -75 -92.5 -112.5t-172.5 -37.5q-120 0 -189 60t-69 166v172q0 104 70 163t192 59q121 0 190 -60t69 -165v-121h-334v-48q0 -58 19.5 -83.5t68.5 -25.5q40 0 61.5 16.5t36.5 57.5zM280 387v-28h147v26
q0 63 -16 87.5t-57 24.5q-42 0 -58 -23.5t-16 -86.5z" />
    <glyph glyph-name="eacute" unicode="&#xe9;" 
d="M93 0zM243 700l83 200h228l-194 -200h-117zM616 140q-27 -75 -92.5 -112.5t-172.5 -37.5q-120 0 -189 60t-69 166v172q0 104 70 163t192 59q121 0 190 -60t69 -165v-121h-334v-48q0 -58 19.5 -83.5t68.5 -25.5q40 0 61.5 16.5t36.5 57.5zM280 387v-28h147v26
q0 63 -16 87.5t-57 24.5q-42 0 -58 -23.5t-16 -86.5z" />
    <glyph glyph-name="ecircumflex" unicode="&#xea;" 
d="M93 0zM188 688l-57 80l156 157h143l157 -157l-56 -79l-173 107zM616 140q-27 -75 -92.5 -112.5t-172.5 -37.5q-120 0 -189 60t-69 166v172q0 104 70 163t192 59q121 0 190 -60t69 -165v-121h-334v-48q0 -58 19.5 -83.5t68.5 -25.5q40 0 61.5 16.5t36.5 57.5zM280 387v-28
h147v26q0 63 -16 87.5t-57 24.5q-42 0 -58 -23.5t-16 -86.5z" />
    <glyph glyph-name="edieresis" unicode="&#xeb;" 
d="M93 0zM616 140q-27 -75 -92.5 -112.5t-172.5 -37.5q-120 0 -189 60t-69 166v172q0 104 70 163t192 59q121 0 190 -60t69 -165v-121h-334v-48q0 -58 19.5 -83.5t68.5 -25.5q40 0 61.5 16.5t36.5 57.5zM280 387v-28h147v26q0 63 -16 87.5t-57 24.5q-42 0 -58 -23.5
t-16 -86.5zM247 694q-39 0 -63.5 16t-24.5 56v14q0 40 24.5 57.5t63.5 17.5q40 0 64.5 -17.5t24.5 -57.5v-14q0 -40 -25 -56t-64 -16zM471 694q-40 0 -64.5 16t-24.5 56v14q0 40 24.5 57.5t64.5 17.5t64 -17.5t24 -57.5v-14q0 -40 -25 -56t-63 -16z" />
    <glyph glyph-name="emacron" unicode="&#x113;" 
d="M93 0zM616 140q-27 -75 -92.5 -112.5t-172.5 -37.5q-120 0 -189 60t-69 166v172q0 104 70 163t192 59q121 0 190 -60t69 -165v-121h-334v-48q0 -58 19.5 -83.5t68.5 -25.5q40 0 61.5 16.5t36.5 57.5zM280 387v-28h147v26q0 63 -16 87.5t-57 24.5q-42 0 -58 -23.5
t-16 -86.5zM166 731v138h386v-138h-386z" />
    <glyph glyph-name="ebreve" unicode="&#x115;" 
d="M93 0zM616 140q-27 -75 -92.5 -112.5t-172.5 -37.5q-120 0 -189 60t-69 166v172q0 104 70 163t192 59q121 0 190 -60t69 -165v-121h-334v-48q0 -58 19.5 -83.5t68.5 -25.5q40 0 61.5 16.5t36.5 57.5zM280 387v-28h147v26q0 63 -16 87.5t-57 24.5q-42 0 -58 -23.5
t-16 -86.5zM359 693q-116 0 -172.5 57.5t-57.5 176.5h145q1 -71 19.5 -97t65.5 -26t65.5 26t19.5 97h145q-1 -119 -57.5 -176.5t-172.5 -57.5z" />
    <glyph glyph-name="edotaccent" unicode="&#x117;" 
d="M93 0zM359 694q-51 0 -83 16t-32 56v14q0 40 32 57.5t83 17.5q52 0 83.5 -17.5t31.5 -57.5v-14q0 -40 -32 -56t-83 -16zM616 140q-27 -75 -92.5 -112.5t-172.5 -37.5q-120 0 -189 60t-69 166v172q0 104 70 163t192 59q121 0 190 -60t69 -165v-121h-334v-48
q0 -58 19.5 -83.5t68.5 -25.5q40 0 61.5 16.5t36.5 57.5zM280 387v-28h147v26q0 63 -16 87.5t-57 24.5q-42 0 -58 -23.5t-16 -86.5z" />
    <glyph glyph-name="eogonek" unicode="&#x119;" 
d="M93 0zM496 -222q-75 0 -116 32t-41 94q0 57 42 102.5t102 64.5l22 -48q-23 -16 -31 -35t-8 -44q0 -26 15 -39t49 -13q15 0 34 2.5t46 7.5v-111q-33 -7 -61 -10t-53 -3zM616 140q-27 -75 -92.5 -112.5t-172.5 -37.5q-120 0 -189 60t-69 166v172q0 104 70 163t192 59
q121 0 190 -60t69 -165v-121h-334v-48q0 -58 19.5 -83.5t68.5 -25.5q40 0 61.5 16.5t36.5 57.5zM280 387v-28h147v26q0 63 -16 87.5t-57 24.5q-42 0 -58 -23.5t-16 -86.5z" />
    <glyph glyph-name="ecaron" unicode="&#x11b;" 
d="M93 0zM288 704l-157 157l56 79l173 -107l170 108l57 -80l-156 -157h-143zM616 140q-27 -75 -92.5 -112.5t-172.5 -37.5q-120 0 -189 60t-69 166v172q0 104 70 163t192 59q121 0 190 -60t69 -165v-121h-334v-48q0 -58 19.5 -83.5t68.5 -25.5q40 0 61.5 16.5t36.5 57.5z
M280 387v-28h147v26q0 63 -16 87.5t-57 24.5q-42 0 -58 -23.5t-16 -86.5z" />
    <glyph glyph-name="f" unicode="f" horiz-adv-x="624" 
d="M177 0v470h-100v130h100v46q0 88 62.5 137.5t174.5 49.5q32 0 62.5 -6.5t61.5 -17.5l-16 -117q-26 9 -47 14t-38 5q-34 0 -53.5 -18t-19.5 -61v-32h167v-130h-167v-470h-187z" />
    <glyph glyph-name="g" unicode="g" horiz-adv-x="791" 
d="M698 -31q0 -81 -53.5 -130t-156.5 -49h-171q-116 0 -170 40.5t-54 100.5q0 51 28.5 81t66.5 35v20q-31 11 -53.5 34t-22.5 71q0 53 39 87.5t90 41.5v19q-49 14 -78 46t-29 78v6q0 72 61.5 111t184.5 39h323v-106l-139 19v-20q30 -10 51 -39t21 -66v-8q0 -71 -63.5 -110
t-186.5 -39h-78q-28 0 -45 -11.5t-17 -38.5q0 -26 16 -37.5t42 -11.5h189q100 0 152.5 -40t52.5 -123zM384 318q40 0 56.5 20.5t16.5 55.5v30q0 34 -16.5 53.5t-56.5 19.5t-56.5 -19.5t-16.5 -53.5v-30q0 -35 15.5 -55.5t57.5 -20.5zM319 -106h154q34 0 55.5 11t21.5 45
t-22.5 44.5t-56.5 10.5h-203v-51q0 -30 12.5 -45t38.5 -15z" />
    <glyph glyph-name="gcircumflex" unicode="&#x11d;" horiz-adv-x="791" 
d="M93 0zM225 688l-57 80l156 157h143l157 -157l-56 -79l-173 107zM698 -31q0 -81 -53.5 -130t-156.5 -49h-171q-116 0 -170 40.5t-54 100.5q0 51 28.5 81t66.5 35v20q-31 11 -53.5 34t-22.5 71q0 53 39 87.5t90 41.5v19q-49 14 -78 46t-29 78v6q0 72 61.5 111t184.5 39h323
v-106l-139 19v-20q30 -10 51 -39t21 -66v-8q0 -71 -63.5 -110t-186.5 -39h-78q-28 0 -45 -11.5t-17 -38.5q0 -26 16 -37.5t42 -11.5h189q100 0 152.5 -40t52.5 -123zM384 318q40 0 56.5 20.5t16.5 55.5v30q0 34 -16.5 53.5t-56.5 19.5t-56.5 -19.5t-16.5 -53.5v-30
q0 -35 15.5 -55.5t57.5 -20.5zM319 -106h154q34 0 55.5 11t21.5 45t-22.5 44.5t-56.5 10.5h-203v-51q0 -30 12.5 -45t38.5 -15z" />
    <glyph glyph-name="gbreve" unicode="&#x11f;" horiz-adv-x="791" 
d="M93 0zM396 693q-116 0 -172.5 57.5t-57.5 176.5h145q1 -71 19.5 -97t65.5 -26t65.5 26t19.5 97h145q-1 -119 -57.5 -176.5t-172.5 -57.5zM698 -31q0 -81 -53.5 -130t-156.5 -49h-171q-116 0 -170 40.5t-54 100.5q0 51 28.5 81t66.5 35v20q-31 11 -53.5 34t-22.5 71
q0 53 39 87.5t90 41.5v19q-49 14 -78 46t-29 78v6q0 72 61.5 111t184.5 39h323v-106l-139 19v-20q30 -10 51 -39t21 -66v-8q0 -71 -63.5 -110t-186.5 -39h-78q-28 0 -45 -11.5t-17 -38.5q0 -26 16 -37.5t42 -11.5h189q100 0 152.5 -40t52.5 -123zM384 318q40 0 56.5 20.5
t16.5 55.5v30q0 34 -16.5 53.5t-56.5 19.5t-56.5 -19.5t-16.5 -53.5v-30q0 -35 15.5 -55.5t57.5 -20.5zM319 -106h154q34 0 55.5 11t21.5 45t-22.5 44.5t-56.5 10.5h-203v-51q0 -30 12.5 -45t38.5 -15z" />
    <glyph glyph-name="gdotaccent" unicode="&#x121;" horiz-adv-x="791" 
d="M93 0zM396 694q-51 0 -83 16t-32 56v14q0 40 32 57.5t83 17.5q52 0 83.5 -17.5t31.5 -57.5v-14q0 -40 -32 -56t-83 -16zM698 -31q0 -81 -53.5 -130t-156.5 -49h-171q-116 0 -170 40.5t-54 100.5q0 51 28.5 81t66.5 35v20q-31 11 -53.5 34t-22.5 71q0 53 39 87.5t90 41.5
v19q-49 14 -78 46t-29 78v6q0 72 61.5 111t184.5 39h323v-106l-139 19v-20q30 -10 51 -39t21 -66v-8q0 -71 -63.5 -110t-186.5 -39h-78q-28 0 -45 -11.5t-17 -38.5q0 -26 16 -37.5t42 -11.5h189q100 0 152.5 -40t52.5 -123zM384 318q40 0 56.5 20.5t16.5 55.5v30
q0 34 -16.5 53.5t-56.5 19.5t-56.5 -19.5t-16.5 -53.5v-30q0 -35 15.5 -55.5t57.5 -20.5zM319 -106h154q34 0 55.5 11t21.5 45t-22.5 44.5t-56.5 10.5h-203v-51q0 -30 12.5 -45t38.5 -15z" />
    <glyph glyph-name="gcommaaccent" unicode="&#x123;" horiz-adv-x="791" 
d="M93 0zM698 -31q0 -81 -53.5 -130t-156.5 -49h-171q-116 0 -170 40.5t-54 100.5q0 51 28.5 81t66.5 35v20q-31 11 -53.5 34t-22.5 71q0 53 39 87.5t90 41.5v19q-49 14 -78 46t-29 78v6q0 72 61.5 111t184.5 39h323v-106l-139 19v-20q30 -10 51 -39t21 -66v-8
q0 -71 -63.5 -110t-186.5 -39h-78q-28 0 -45 -11.5t-17 -38.5q0 -26 16 -37.5t42 -11.5h189q100 0 152.5 -40t52.5 -123zM384 318q40 0 56.5 20.5t16.5 55.5v30q0 34 -16.5 53.5t-56.5 19.5t-56.5 -19.5t-16.5 -53.5v-30q0 -35 15.5 -55.5t57.5 -20.5zM319 -106h154
q34 0 55.5 11t21.5 45t-22.5 44.5t-56.5 10.5h-203v-51q0 -30 12.5 -45t38.5 -15zM255 700l161 200h117l-49 -200h-229z" />
    <glyph glyph-name="h" unicode="h" 
d="M93 0v800h187v-295h25q18 50 59.5 77.5t98.5 27.5q72 0 111.5 -51.5t39.5 -144.5v-414h-187v389q0 43 -12.5 62.5t-38.5 19.5t-51 -20t-45 -57v-394h-187z" />
    <glyph glyph-name="hcircumflex" unicode="&#x125;" 
d="M0 0zM93 0v800h187v-295h25q18 50 59.5 77.5t98.5 27.5q72 0 111.5 -51.5t39.5 -144.5v-414h-187v389q0 43 -12.5 62.5t-38.5 19.5t-51 -20t-45 -57v-394h-187zM16 888l-57 80l156 157h143l157 -157l-56 -79l-173 107z" />
    <glyph glyph-name="i" horiz-adv-x="437" 
d="M104 0zM126 0v600h186v-600h-186zM219 694q-51 0 -83 16t-32 56v14q0 40 32 57.5t83 17.5q52 0 83.5 -17.5t31.5 -57.5v-14q0 -40 -32 -56t-83 -16z" />
    <glyph glyph-name="igrave" horiz-adv-x="437" 
d="M5 0zM199 700l-194 200h229l82 -200h-117zM126 0v600h186v-600h-186z" />
    <glyph glyph-name="iacute" horiz-adv-x="437" 
d="M103 0zM103 700l83 200h228l-194 -200h-117zM126 0v600h186v-600h-186z" />
    <glyph glyph-name="icircumflex" horiz-adv-x="437" 
d="M0 0zM48 688l-57 80l156 157h143l157 -157l-56 -79l-173 107zM126 0v600h186v-600h-186z" />
    <glyph glyph-name="idieresis" horiz-adv-x="437" 
d="M19 0zM126 0v600h186v-600h-186zM107 694q-39 0 -63.5 16t-24.5 56v14q0 40 24.5 57.5t63.5 17.5q40 0 64.5 -17.5t24.5 -57.5v-14q0 -40 -25 -56t-64 -16zM331 694q-40 0 -64.5 16t-24.5 56v14q0 40 24.5 57.5t64.5 17.5t64 -17.5t24 -57.5v-14q0 -40 -25 -56t-63 -16z
" />
    <glyph glyph-name="itilde" horiz-adv-x="437" 
d="M0 0zM126 0v600h186v-600h-186zM302 710q-38 0 -61 12.5t-40 36.5l-24 34t-27 15q-14 0 -24 -13.5t-10 -53.5v-21h-116v15q0 86 38 138.5t103 52.5q35 0 56.5 -12.5t39.5 -36.5l26 -34.5t26 -15.5q16 0 25 14t9 54v20h116v-15q0 -85 -37 -137.5t-100 -52.5z" />
    <glyph glyph-name="imacron" horiz-adv-x="437" 
d="M26 0zM126 0v600h186v-600h-186zM26 731v138h386v-138h-386z" />
    <glyph glyph-name="ibreve" horiz-adv-x="437" 
d="M0 0zM126 0v600h186v-600h-186zM219 693q-116 0 -172.5 57.5t-57.5 176.5h145q1 -71 19.5 -97t65.5 -26t65.5 26t19.5 97h145q-1 -119 -57.5 -176.5t-172.5 -57.5z" />
    <glyph glyph-name="iogonek" horiz-adv-x="437" 
d="M71 0zM219 694q-51 0 -83 16t-32 56v14q0 40 32 57.5t83 17.5q52 0 83.5 -17.5t31.5 -57.5v-14q0 -40 -32 -56t-83 -16zM126 0v600h186v-600h-186zM228 -222q-75 0 -116 32t-41 94q0 57 42 102.5t102 64.5l22 -48q-23 -16 -31 -35t-8 -44q0 -26 15 -39t49 -13
q15 0 34 2.5t46 7.5v-111q-33 -7 -61 -10t-53 -3z" />
    <glyph glyph-name="j" unicode="j" horiz-adv-x="541" 
d="M48 0zM175 -209q-32 0 -64.5 6t-62.5 16l17 119q24 -9 44.5 -14t39.5 -5q33 0 51.5 23t18.5 76v458h-135v130h322v-603q0 -99 -66 -152.5t-165 -53.5zM312 694q-51 0 -83 16t-32 56v14q0 40 32 57.5t83 17.5q52 0 83.5 -17.5t31.5 -57.5v-14q0 -40 -32 -56t-83 -16z" />
    <glyph glyph-name="jcircumflex" unicode="&#x135;" horiz-adv-x="541" 
d="M48 0zM175 -209q-32 0 -64.5 6t-62.5 16l17 119q24 -9 44.5 -14t39.5 -5q33 0 51.5 23t18.5 76v458h-135v130h322v-603q0 -99 -66 -152.5t-165 -53.5zM115 688l-57 80l156 157h143l157 -157l-56 -79l-173 107z" />
    <glyph glyph-name="k" unicode="k" horiz-adv-x="624" 
d="M280 250v-250h-187v800h187v-428h29l109 228h188l-145 -271l142 -329h-196l-98 250h-29z" />
    <glyph glyph-name="kcommaaccent" unicode="&#x137;" horiz-adv-x="624" 
d="M93 0zM280 250v-250h-187v800h187v-428h29l109 228h188l-145 -271l142 -329h-196l-98 250h-29zM190 -300l49 200h229l-161 -200h-117z" />
    <glyph glyph-name="l" horiz-adv-x="541" 
d="M343 -9q-99 0 -153.5 61t-54.5 163v585h187v-584q0 -45 15 -66.5t41 -21.5q18 0 40 5.5t41 15.5l27 -126q-31 -15 -68.5 -23.5t-74.5 -8.5z" />
    <glyph glyph-name="lacute" horiz-adv-x="541" 
d="M105 0zM105 900l83 200h228l-194 -200h-117zM343 -9q-99 0 -153.5 61t-54.5 163v585h187v-584q0 -45 15 -66.5t41 -21.5q18 0 40 5.5t41 15.5l27 -126q-31 -15 -68.5 -23.5t-74.5 -8.5z" />
    <glyph glyph-name="lcommaaccent" horiz-adv-x="541" 
d="M135 0zM343 -9q-99 0 -153.5 61t-54.5 163v585h187v-584q0 -45 15 -66.5t41 -21.5q18 0 40 5.5t41 15.5l27 -126q-31 -15 -68.5 -23.5t-74.5 -8.5zM150 -300l49 200h229l-161 -200h-117z" />
    <glyph glyph-name="lcaron" horiz-adv-x="541" 
d="M135 0zM402 705l37 295h226l-161 -295h-102zM343 -9q-99 0 -153.5 61t-54.5 163v585h187v-584q0 -45 15 -66.5t41 -21.5q18 0 40 5.5t41 15.5l27 -126q-31 -15 -68.5 -23.5t-74.5 -8.5z" />
    <glyph glyph-name="m" unicode="m" horiz-adv-x="958" 
d="M280 412v-412h-187v600h187v-95h25q19 50 56 77.5t86 27.5q44 0 74 -27.5t43 -77.5h35q19 50 54.5 77.5t81.5 27.5q62 0 96 -49.5t34 -142.5v-418h-187v409q0 32 -9.5 47t-29.5 15q-16 0 -33.5 -14t-32.5 -45v-412h-187v409q0 32 -9 47t-27 15q-19 0 -37 -14t-33 -45z
" />
    <glyph glyph-name="n" unicode="n" 
d="M93 0v600h187v-95h25q19 50 60 77.5t98 27.5q72 0 111.5 -51.5t39.5 -144.5v-414h-187v389q0 42 -12 62t-37 20q-28 0 -53.5 -20.5t-44.5 -56.5v-394h-187z" />
    <glyph glyph-name="ntilde" unicode="&#xf1;" 
d="M93 0zM454 710q-38 0 -61 12.5t-40 36.5l-24 34t-27 15q-14 0 -24 -13.5t-10 -53.5v-21h-116v15q0 86 38 138.5t103 52.5q35 0 56.5 -12.5t39.5 -36.5l26 -34.5t26 -15.5q16 0 25 14t9 54v20h116v-15q0 -85 -37 -137.5t-100 -52.5zM93 0v600h187v-95h25q19 50 60 77.5
t98 27.5q72 0 111.5 -51.5t39.5 -144.5v-414h-187v389q0 42 -12 62t-37 20q-28 0 -53.5 -20.5t-44.5 -56.5v-394h-187z" />
    <glyph glyph-name="nacute" unicode="&#x144;" 
d="M93 0zM255 700l83 200h228l-194 -200h-117zM93 0v600h187v-95h25q19 50 60 77.5t98 27.5q72 0 111.5 -51.5t39.5 -144.5v-414h-187v389q0 42 -12 62t-37 20q-28 0 -53.5 -20.5t-44.5 -56.5v-394h-187z" />
    <glyph glyph-name="ncommaaccent" unicode="&#x146;" 
d="M93 0zM211 -300l49 200h229l-161 -200h-117zM93 0v600h187v-95h25q19 50 60 77.5t98 27.5q72 0 111.5 -51.5t39.5 -144.5v-414h-187v389q0 42 -12 62t-37 20q-28 0 -53.5 -20.5t-44.5 -56.5v-394h-187z" />
    <glyph glyph-name="ncaron" unicode="&#x148;" 
d="M93 0zM300 704l-157 157l56 79l173 -107l170 108l57 -80l-156 -157h-143zM93 0v600h187v-95h25q19 50 60 77.5t98 27.5q72 0 111.5 -51.5t39.5 -144.5v-414h-187v389q0 42 -12 62t-37 20q-28 0 -53.5 -20.5t-44.5 -56.5v-394h-187z" />
    <glyph glyph-name="o" unicode="o" 
d="M354 -10q-116 0 -188.5 57.5t-72.5 160.5v181q0 104 73 162.5t189 58.5t187.5 -58.5t71.5 -162.5v-181q0 -103 -72 -160.5t-188 -57.5zM354 120q41 0 57 22t16 74v173q0 48 -16 69.5t-57 21.5t-57.5 -22t-16.5 -71v-171q0 -52 16.5 -74t57.5 -22z" />
    <glyph glyph-name="ograve" unicode="&#xf2;" 
d="M93 0zM334 700l-194 200h229l82 -200h-117zM354 -10q-116 0 -188.5 57.5t-72.5 160.5v181q0 104 73 162.5t189 58.5t187.5 -58.5t71.5 -162.5v-181q0 -103 -72 -160.5t-188 -57.5zM354 120q41 0 57 22t16 74v173q0 48 -16 69.5t-57 21.5t-57.5 -22t-16.5 -71v-171
q0 -52 16.5 -74t57.5 -22z" />
    <glyph glyph-name="oacute" unicode="&#xf3;" 
d="M93 0zM238 700l83 200h228l-194 -200h-117zM354 -10q-116 0 -188.5 57.5t-72.5 160.5v181q0 104 73 162.5t189 58.5t187.5 -58.5t71.5 -162.5v-181q0 -103 -72 -160.5t-188 -57.5zM354 120q41 0 57 22t16 74v173q0 48 -16 69.5t-57 21.5t-57.5 -22t-16.5 -71v-171
q0 -52 16.5 -74t57.5 -22z" />
    <glyph glyph-name="ocircumflex" unicode="&#xf4;" 
d="M93 0zM183 688l-57 80l156 157h143l157 -157l-56 -79l-173 107zM354 -10q-116 0 -188.5 57.5t-72.5 160.5v181q0 104 73 162.5t189 58.5t187.5 -58.5t71.5 -162.5v-181q0 -103 -72 -160.5t-188 -57.5zM354 120q41 0 57 22t16 74v173q0 48 -16 69.5t-57 21.5t-57.5 -22
t-16.5 -71v-171q0 -52 16.5 -74t57.5 -22z" />
    <glyph glyph-name="otilde" unicode="&#xf5;" 
d="M93 0zM437 710q-38 0 -61 12.5t-40 36.5l-24 34t-27 15q-14 0 -24 -13.5t-10 -53.5v-21h-116v15q0 86 38 138.5t103 52.5q35 0 56.5 -12.5t39.5 -36.5l26 -34.5t26 -15.5q16 0 25 14t9 54v20h116v-15q0 -85 -37 -137.5t-100 -52.5zM354 -10q-116 0 -188.5 57.5
t-72.5 160.5v181q0 104 73 162.5t189 58.5t187.5 -58.5t71.5 -162.5v-181q0 -103 -72 -160.5t-188 -57.5zM354 120q41 0 57 22t16 74v173q0 48 -16 69.5t-57 21.5t-57.5 -22t-16.5 -71v-171q0 -52 16.5 -74t57.5 -22z" />
    <glyph glyph-name="odieresis" unicode="&#xf6;" 
d="M93 0zM242 694q-39 0 -63.5 16t-24.5 56v14q0 40 24.5 57.5t63.5 17.5q40 0 64.5 -17.5t24.5 -57.5v-14q0 -40 -25 -56t-64 -16zM466 694q-40 0 -64.5 16t-24.5 56v14q0 40 24.5 57.5t64.5 17.5t64 -17.5t24 -57.5v-14q0 -40 -25 -56t-63 -16zM354 -10
q-116 0 -188.5 57.5t-72.5 160.5v181q0 104 73 162.5t189 58.5t187.5 -58.5t71.5 -162.5v-181q0 -103 -72 -160.5t-188 -57.5zM354 120q41 0 57 22t16 74v173q0 48 -16 69.5t-57 21.5t-57.5 -22t-16.5 -71v-171q0 -52 16.5 -74t57.5 -22z" />
    <glyph glyph-name="omacron" unicode="&#x14d;" 
d="M93 0zM161 731v138h386v-138h-386zM354 -10q-116 0 -188.5 57.5t-72.5 160.5v181q0 104 73 162.5t189 58.5t187.5 -58.5t71.5 -162.5v-181q0 -103 -72 -160.5t-188 -57.5zM354 120q41 0 57 22t16 74v173q0 48 -16 69.5t-57 21.5t-57.5 -22t-16.5 -71v-171q0 -52 16.5 -74
t57.5 -22z" />
    <glyph glyph-name="obreve" unicode="&#x14f;" 
d="M93 0zM354 693q-116 0 -172.5 57.5t-57.5 176.5h145q1 -71 19.5 -97t65.5 -26t65.5 26t19.5 97h145q-1 -119 -57.5 -176.5t-172.5 -57.5zM354 -10q-116 0 -188.5 57.5t-72.5 160.5v181q0 104 73 162.5t189 58.5t187.5 -58.5t71.5 -162.5v-181q0 -103 -72 -160.5
t-188 -57.5zM354 120q41 0 57 22t16 74v173q0 48 -16 69.5t-57 21.5t-57.5 -22t-16.5 -71v-171q0 -52 16.5 -74t57.5 -22z" />
    <glyph glyph-name="ohungarumlaut" unicode="&#x151;" 
d="M93 0zM376 700l37 200h168l-115 -200h-90zM184 700l37 200h168l-115 -200h-90zM354 -10q-116 0 -188.5 57.5t-72.5 160.5v181q0 104 73 162.5t189 58.5t187.5 -58.5t71.5 -162.5v-181q0 -103 -72 -160.5t-188 -57.5zM354 120q41 0 57 22t16 74v173q0 48 -16 69.5
t-57 21.5t-57.5 -22t-16.5 -71v-171q0 -52 16.5 -74t57.5 -22z" />
    <glyph glyph-name="p" unicode="p" 
d="M360 122q34 0 50.5 20.5t16.5 64.5v180q0 43 -15 63.5t-43 20.5q-25 0 -46 -11.5t-43 -36.5v-273q22 -14 41 -21t39 -7zM399 -7q-33 0 -63.5 6.5t-55.5 18.5v-218h-187v800h187v-95h25q15 50 57 77.5t99 27.5q75 0 114 -54.5t39 -153.5v-196q0 -101 -56.5 -157
t-158.5 -56z" />
    <glyph glyph-name="q" unicode="q" 
d="M427 -200v295h-24q-16 -51 -55 -78t-97 -27q-77 0 -117.5 53.5t-40.5 154.5v196q0 104 68.5 158.5t197.5 54.5q71 0 141.5 -19t113.5 -53v-735h-187zM339 129q22 0 45 10.5t43 36.5v278q-13 10 -32.5 17t-46.5 7q-36 0 -52 -19t-16 -66v-179q0 -46 16.5 -65.5t42.5 -19.5
z" />
    <glyph glyph-name="r" unicode="r" horiz-adv-x="624" 
d="M93 0v600h187v-95h25q16 55 53 80t78 25q75 0 107 -47.5t32 -129.5v-100h-168v72q0 30 -9 48t-37 18q-22 0 -43.5 -19t-37.5 -53v-399h-187z" />
    <glyph glyph-name="racute" unicode="&#x155;" horiz-adv-x="624" 
d="M93 0zM214 700l83 200h228l-194 -200h-117zM93 0v600h187v-95h25q16 55 53 80t78 25q75 0 107 -47.5t32 -129.5v-100h-168v72q0 30 -9 48t-37 18q-22 0 -43.5 -19t-37.5 -53v-399h-187z" />
    <glyph glyph-name="rcommaaccent" unicode="&#x157;" horiz-adv-x="624" 
d="M39 0zM93 0v600h187v-95h25q16 55 53 80t78 25q75 0 107 -47.5t32 -129.5v-100h-168v72q0 30 -9 48t-37 18q-22 0 -43.5 -19t-37.5 -53v-399h-187zM39 -300l49 200h229l-161 -200h-117z" />
    <glyph glyph-name="rcaron" unicode="&#x159;" horiz-adv-x="624" 
d="M93 0zM259 704l-157 157l56 79l173 -107l170 108l57 -80l-156 -157h-143zM93 0v600h187v-95h25q16 55 53 80t78 25q75 0 107 -47.5t32 -129.5v-100h-168v72q0 30 -9 48t-37 18q-22 0 -43.5 -19t-37.5 -53v-399h-187z" />
    <glyph glyph-name="s" unicode="s" 
d="M353 -7q-76 0 -146.5 22.5t-119.5 58.5l37 111q57 -36 119 -56t115 -20q43 0 62 12.5t19 39.5q0 33 -27 45t-98 30q-91 18 -150.5 56t-59.5 122q0 91 64 143.5t175 52.5q66 0 129.5 -20t108.5 -49l-27 -105q-55 31 -105 45t-90 14q-38 0 -57 -13t-19 -41q0 -31 32 -45
t110 -33q95 -20 144.5 -58.5t49.5 -116.5q0 -90 -68.5 -142.5t-197.5 -52.5z" />
    <glyph glyph-name="sacute" unicode="&#x15b;" 
d="M87 0zM353 -7q-76 0 -146.5 22.5t-119.5 58.5l37 111q57 -36 119 -56t115 -20q43 0 62 12.5t19 39.5q0 33 -27 45t-98 30q-91 18 -150.5 56t-59.5 122q0 91 64 143.5t175 52.5q66 0 129.5 -20t108.5 -49l-27 -105q-55 31 -105 45t-90 14q-38 0 -57 -13t-19 -41
q0 -31 32 -45t110 -33q95 -20 144.5 -58.5t49.5 -116.5q0 -90 -68.5 -142.5t-197.5 -52.5zM236 700l83 200h228l-194 -200h-117z" />
    <glyph glyph-name="scircumflex" unicode="&#x15d;" 
d="M87 0zM181 688l-57 80l156 157h143l157 -157l-56 -79l-173 107zM353 -7q-76 0 -146.5 22.5t-119.5 58.5l37 111q57 -36 119 -56t115 -20q43 0 62 12.5t19 39.5q0 33 -27 45t-98 30q-91 18 -150.5 56t-59.5 122q0 91 64 143.5t175 52.5q66 0 129.5 -20t108.5 -49l-27 -105
q-55 31 -105 45t-90 14q-38 0 -57 -13t-19 -41q0 -31 32 -45t110 -33q95 -20 144.5 -58.5t49.5 -116.5q0 -90 -68.5 -142.5t-197.5 -52.5z" />
    <glyph glyph-name="scedilla" unicode="&#x15f;" 
d="M87 0zM353 -7q-76 0 -146.5 22.5t-119.5 58.5l37 111q57 -36 119 -56t115 -20q43 0 62 12.5t19 39.5q0 33 -27 45t-98 30q-91 18 -150.5 56t-59.5 122q0 91 64 143.5t175 52.5q66 0 129.5 -20t108.5 -49l-27 -105q-55 31 -105 45t-90 14q-38 0 -57 -13t-19 -41
q0 -31 32 -45t110 -33q95 -20 144.5 -58.5t49.5 -116.5q0 -90 -68.5 -142.5t-197.5 -52.5zM327 0l16 42q87 -9 132 -39t45 -92q0 -67 -54 -101t-141 -34q-90 0 -143 32.5t-57 97.5l156 10q2 -19 10 -26.5t27 -7.5q22 0 33 11t11 45q0 27 -6.5 41t-28.5 21z" />
    <glyph glyph-name="scaron" unicode="&#x161;" 
d="M87 0zM281 704l-157 157l56 79l173 -107l170 108l57 -80l-156 -157h-143zM353 -7q-76 0 -146.5 22.5t-119.5 58.5l37 111q57 -36 119 -56t115 -20q43 0 62 12.5t19 39.5q0 33 -27 45t-98 30q-91 18 -150.5 56t-59.5 122q0 91 64 143.5t175 52.5q66 0 129.5 -20t108.5 -49
l-27 -105q-55 31 -105 45t-90 14q-38 0 -57 -13t-19 -41q0 -31 32 -45t110 -33q95 -20 144.5 -58.5t49.5 -116.5q0 -90 -68.5 -142.5t-197.5 -52.5z" />
    <glyph glyph-name="scommaaccent" unicode="&#x219;" 
d="M87 0zM353 -7q-76 0 -146.5 22.5t-119.5 58.5l37 111q57 -36 119 -56t115 -20q43 0 62 12.5t19 39.5q0 33 -27 45t-98 30q-91 18 -150.5 56t-59.5 122q0 91 64 143.5t175 52.5q66 0 129.5 -20t108.5 -49l-27 -105q-55 31 -105 45t-90 14q-38 0 -57 -13t-19 -41
q0 -31 32 -45t110 -33q95 -20 144.5 -58.5t49.5 -116.5q0 -90 -68.5 -142.5t-197.5 -52.5zM167 -300l49 200h229l-161 -200h-117z" />
    <glyph glyph-name="t" unicode="t" horiz-adv-x="624" 
d="M406 -10q-112 0 -170.5 51.5t-58.5 151.5v277h-100v130h100v200h187v-200h163v-130h-163v-255q0 -51 19.5 -72.5t53.5 -21.5q16 0 37 5t44 15l16 -127q-16 -9 -52 -16.5t-76 -7.5z" />
    <glyph glyph-name="tcedilla" unicode="&#x163;" horiz-adv-x="624" 
d="M77 0zM406 -10q-112 0 -170.5 51.5t-58.5 151.5v277h-100v130h100v200h187v-200h163v-130h-163v-255q0 -51 19.5 -72.5t53.5 -21.5q16 0 37 5t44 15l16 -127q-16 -9 -52 -16.5t-76 -7.5zM319 0l16 42q87 -9 132 -39t45 -92q0 -67 -54 -101t-141 -34q-90 0 -143 32.5
t-57 97.5l156 10q2 -19 10 -26.5t27 -7.5q22 0 33 11t11 45q0 27 -6.5 41t-28.5 21z" />
    <glyph glyph-name="tcaron" unicode="&#x165;" horiz-adv-x="624" 
d="M77 0zM446 705l37 295h226l-161 -295h-102zM406 -10q-112 0 -170.5 51.5t-58.5 151.5v277h-100v130h100v200h187v-200h163v-130h-163v-255q0 -51 19.5 -72.5t53.5 -21.5q16 0 37 5t44 15l16 -127q-16 -9 -52 -16.5t-76 -7.5z" />
    <glyph glyph-name="tcommaaccent" unicode="&#x21b;" horiz-adv-x="624" 
d="M77 0zM406 -10q-112 0 -170.5 51.5t-58.5 151.5v277h-100v130h100v200h187v-200h163v-130h-163v-255q0 -51 19.5 -72.5t53.5 -21.5q16 0 37 5t44 15l16 -127q-16 -9 -52 -16.5t-76 -7.5zM200 -300l49 200h229l-161 -200h-117z" />
    <glyph glyph-name="u" unicode="u" 
d="M245 -10q-73 0 -112.5 52t-39.5 145v413h187v-389q0 -42 12.5 -62t37.5 -20q28 0 53 20.5t44 56.5v394h187v-600h-187v95h-24q-19 -50 -61 -77.5t-97 -27.5z" />
    <glyph glyph-name="ugrave" unicode="&#xf9;" 
d="M93 0zM340 700l-194 200h229l82 -200h-117zM245 -10q-73 0 -112.5 52t-39.5 145v413h187v-389q0 -42 12.5 -62t37.5 -20q28 0 53 20.5t44 56.5v394h187v-600h-187v95h-24q-19 -50 -61 -77.5t-97 -27.5z" />
    <glyph glyph-name="uacute" unicode="&#xfa;" 
d="M93 0zM232 700l83 200h228l-194 -200h-117zM245 -10q-73 0 -112.5 52t-39.5 145v413h187v-389q0 -42 12.5 -62t37.5 -20q28 0 53 20.5t44 56.5v394h187v-600h-187v95h-24q-19 -50 -61 -77.5t-97 -27.5z" />
    <glyph glyph-name="ucircumflex" unicode="&#xfb;" 
d="M93 0zM183 688l-57 80l156 157h143l157 -157l-56 -79l-173 107zM245 -10q-73 0 -112.5 52t-39.5 145v413h187v-389q0 -42 12.5 -62t37.5 -20q28 0 53 20.5t44 56.5v394h187v-600h-187v95h-24q-19 -50 -61 -77.5t-97 -27.5z" />
    <glyph glyph-name="udieresis" unicode="&#xfc;" 
d="M93 0zM245 -10q-73 0 -112.5 52t-39.5 145v413h187v-389q0 -42 12.5 -62t37.5 -20q28 0 53 20.5t44 56.5v394h187v-600h-187v95h-24q-19 -50 -61 -77.5t-97 -27.5zM242 694q-39 0 -63.5 16t-24.5 56v14q0 40 24.5 57.5t63.5 17.5q40 0 64.5 -17.5t24.5 -57.5v-14
q0 -40 -25 -56t-64 -16zM466 694q-40 0 -64.5 16t-24.5 56v14q0 40 24.5 57.5t64.5 17.5t64 -17.5t24 -57.5v-14q0 -40 -25 -56t-63 -16z" />
    <glyph glyph-name="utilde" unicode="&#x169;" 
d="M93 0zM245 -10q-73 0 -112.5 52t-39.5 145v413h187v-389q0 -42 12.5 -62t37.5 -20q28 0 53 20.5t44 56.5v394h187v-600h-187v95h-24q-19 -50 -61 -77.5t-97 -27.5zM437 710q-38 0 -61 12.5t-40 36.5l-24 34t-27 15q-14 0 -24 -13.5t-10 -53.5v-21h-116v15q0 86 38 138.5
t103 52.5q35 0 56.5 -12.5t39.5 -36.5l26 -34.5t26 -15.5q16 0 25 14t9 54v20h116v-15q0 -85 -37 -137.5t-100 -52.5z" />
    <glyph glyph-name="umacron" unicode="&#x16b;" 
d="M93 0zM245 -10q-73 0 -112.5 52t-39.5 145v413h187v-389q0 -42 12.5 -62t37.5 -20q28 0 53 20.5t44 56.5v394h187v-600h-187v95h-24q-19 -50 -61 -77.5t-97 -27.5zM161 731v138h386v-138h-386z" />
    <glyph glyph-name="ubreve" unicode="&#x16d;" 
d="M93 0zM245 -10q-73 0 -112.5 52t-39.5 145v413h187v-389q0 -42 12.5 -62t37.5 -20q28 0 53 20.5t44 56.5v394h187v-600h-187v95h-24q-19 -50 -61 -77.5t-97 -27.5zM354 693q-116 0 -172.5 57.5t-57.5 176.5h145q1 -71 19.5 -97t65.5 -26t65.5 26t19.5 97h145
q-1 -119 -57.5 -176.5t-172.5 -57.5z" />
    <glyph glyph-name="uring" unicode="&#x16f;" 
d="M93 0zM245 -10q-73 0 -112.5 52t-39.5 145v413h187v-389q0 -42 12.5 -62t37.5 -20q28 0 53 20.5t44 56.5v394h187v-600h-187v95h-24q-19 -50 -61 -77.5t-97 -27.5zM354 677q-83 0 -134.5 37.5t-51.5 115.5v32q0 79 51.5 117.5t134.5 38.5q84 0 135 -38.5t51 -117.5v-32
q0 -78 -51.5 -115.5t-134.5 -37.5zM354 764q28 0 43 15t15 51v32q0 35 -15 52t-43 17q-29 0 -43.5 -17t-14.5 -52v-32q0 -36 14.5 -51t43.5 -15z" />
    <glyph glyph-name="uhungarumlaut" unicode="&#x171;" 
d="M93 0zM376 700l37 200h168l-115 -200h-90zM184 700l37 200h168l-115 -200h-90zM245 -10q-73 0 -112.5 52t-39.5 145v413h187v-389q0 -42 12.5 -62t37.5 -20q28 0 53 20.5t44 56.5v394h187v-600h-187v95h-24q-19 -50 -61 -77.5t-97 -27.5z" />
    <glyph glyph-name="uogonek" unicode="&#x173;" 
d="M93 0zM534 -222q-75 0 -116 32t-41 94q0 57 42 102.5t102 64.5l22 -48q-23 -16 -31 -35t-8 -44q0 -26 15 -39t49 -13q15 0 34 2.5t46 7.5v-111q-33 -7 -61 -10t-53 -3zM245 -10q-73 0 -112.5 52t-39.5 145v413h187v-389q0 -42 12.5 -62t37.5 -20q28 0 53 20.5t44 56.5
v394h187v-600h-187v95h-24q-19 -50 -61 -77.5t-97 -27.5z" />
    <glyph glyph-name="v" unicode="v" horiz-adv-x="624" 
d="M436 0h-249l-157 600h181l104 -455l105 455h174z" />
    <glyph glyph-name="w" unicode="w" horiz-adv-x="875" 
d="M517 0l-74 351l-72 -351h-204l-114 600h159l78 -444l73 344h156l79 -338l74 438h150l-115 -600h-190z" />
    <glyph glyph-name="wcircumflex" unicode="&#x175;" horiz-adv-x="875" 
d="M53 0zM266 688l-57 80l156 157h143l157 -157l-56 -79l-173 107zM517 0l-74 351l-72 -351h-204l-114 600h159l78 -444l73 344h156l79 -338l74 438h150l-115 -600h-190z" />
    <glyph glyph-name="wgrave" unicode="&#x1e81;" horiz-adv-x="875" 
d="M53 0zM417 700l-194 200h229l82 -200h-117zM517 0l-74 351l-72 -351h-204l-114 600h159l78 -444l73 344h156l79 -338l74 438h150l-115 -600h-190z" />
    <glyph glyph-name="wacute" unicode="&#x1e83;" horiz-adv-x="875" 
d="M53 0zM321 700l83 200h228l-194 -200h-117zM517 0l-74 351l-72 -351h-204l-114 600h159l78 -444l73 344h156l79 -338l74 438h150l-115 -600h-190z" />
    <glyph glyph-name="wdieresis" unicode="&#x1e85;" horiz-adv-x="875" 
d="M53 0zM325 694q-39 0 -63.5 16t-24.5 56v14q0 40 24.5 57.5t63.5 17.5q40 0 64.5 -17.5t24.5 -57.5v-14q0 -40 -25 -56t-64 -16zM549 694q-40 0 -64.5 16t-24.5 56v14q0 40 24.5 57.5t64.5 17.5t64 -17.5t24 -57.5v-14q0 -40 -25 -56t-63 -16zM517 0l-74 351l-72 -351
h-204l-114 600h159l78 -444l73 344h156l79 -338l74 438h150l-115 -600h-190z" />
    <glyph glyph-name="x" unicode="x" horiz-adv-x="624" 
d="M400 0l-96 161l-81 -161h-185l177 312l-171 288h184l89 -147l74 147h184l-170 -298l180 -302h-185z" />
    <glyph glyph-name="y" unicode="y" horiz-adv-x="624" 
d="M200 -211q-33 0 -72.5 3t-85.5 9l8 130q37 -6 67 -9.5t53 -3.5q68 0 91.5 28.5t33.5 75.5l2 10h-130l-137 568h181l106 -479l101 479h175l-133 -592q-25 -113 -85 -166t-175 -53z" />
    <glyph glyph-name="yacute" unicode="&#xfd;" horiz-adv-x="624" 
d="M30 0zM200 -211q-33 0 -72.5 3t-85.5 9l8 130q37 -6 67 -9.5t53 -3.5q68 0 91.5 28.5t33.5 75.5l2 10h-130l-137 568h181l106 -479l101 479h175l-133 -592q-25 -113 -85 -166t-175 -53zM196 700l83 200h228l-194 -200h-117z" />
    <glyph glyph-name="ydieresis" unicode="&#xff;" horiz-adv-x="624" 
d="M30 0zM200 -211q-33 0 -72.5 3t-85.5 9l8 130q37 -6 67 -9.5t53 -3.5q68 0 91.5 28.5t33.5 75.5l2 10h-130l-137 568h181l106 -479l101 479h175l-133 -592q-25 -113 -85 -166t-175 -53zM200 694q-39 0 -63.5 16t-24.5 56v14q0 40 24.5 57.5t63.5 17.5q40 0 64.5 -17.5
t24.5 -57.5v-14q0 -40 -25 -56t-64 -16zM424 694q-40 0 -64.5 16t-24.5 56v14q0 40 24.5 57.5t64.5 17.5t64 -17.5t24 -57.5v-14q0 -40 -25 -56t-63 -16z" />
    <glyph glyph-name="ycircumflex" unicode="&#x177;" horiz-adv-x="624" 
d="M30 0zM200 -211q-33 0 -72.5 3t-85.5 9l8 130q37 -6 67 -9.5t53 -3.5q68 0 91.5 28.5t33.5 75.5l2 10h-130l-137 568h181l106 -479l101 479h175l-133 -592q-25 -113 -85 -166t-175 -53zM141 688l-57 80l156 157h143l157 -157l-56 -79l-173 107z" />
    <glyph glyph-name="ygrave" unicode="&#x1ef3;" horiz-adv-x="624" 
d="M30 0zM200 -211q-33 0 -72.5 3t-85.5 9l8 130q37 -6 67 -9.5t53 -3.5q68 0 91.5 28.5t33.5 75.5l2 10h-130l-137 568h181l106 -479l101 479h175l-133 -592q-25 -113 -85 -166t-175 -53zM292 700l-194 200h229l82 -200h-117z" />
    <glyph glyph-name="z" unicode="z" 
d="M598 0h-488v130l290 340h-290v130h488v-130l-279 -340h279v-130z" />
    <glyph glyph-name="zacute" unicode="&#x17a;" 
d="M110 0zM238 700l83 200h228l-194 -200h-117zM598 0h-488v130l290 340h-290v130h488v-130l-279 -340h279v-130z" />
    <glyph glyph-name="zdotaccent" unicode="&#x17c;" 
d="M110 0zM354 694q-51 0 -83 16t-32 56v14q0 40 32 57.5t83 17.5q52 0 83.5 -17.5t31.5 -57.5v-14q0 -40 -32 -56t-83 -16zM598 0h-488v130l290 340h-290v130h488v-130l-279 -340h279v-130z" />
    <glyph glyph-name="zcaron" unicode="&#x17e;" 
d="M110 0zM283 704l-157 157l56 79l173 -107l170 108l57 -80l-156 -157h-143zM598 0h-488v130l290 340h-290v130h488v-130l-279 -340h279v-130z" />
    <glyph glyph-name="ordfeminine" unicode="&#xaa;" 
d="M302 387q23 0 48 8.5t46 25.5v77h-96q-23 0 -33.5 -11.5t-10.5 -46.5q0 -26 11 -39.5t35 -13.5zM267 290q-66 0 -114 37t-48 103q0 75 49 112.5t138 37.5h104v44q0 44 -17 62t-48 18q-27 0 -43.5 -14.5t-26.5 -58.5l-144 22q16 84 67.5 120.5t153.5 36.5q105 0 161 -41.5
t56 -141.5v-158q0 -46 23 -56t63 -4v-107q-60 -14 -106 -1.5t-73 70.5h-23q-22 -34 -69.5 -57.5t-102.5 -23.5z" />
    <glyph glyph-name="ordmasculine" unicode="&#xba;" 
d="M354 290q-92 0 -156.5 47t-64.5 145v133q0 99 64.5 147t157.5 48q92 0 156 -48t64 -147v-133q0 -98 -64 -145t-157 -47zM354 401q37 0 49.5 21.5t12.5 69.5v120q0 43 -12.5 65t-49.5 22t-50 -22.5t-13 -65.5v-119q0 -48 13 -69.5t50 -21.5z" />
    <glyph glyph-name="germandbls" unicode="&#xdf;" horiz-adv-x="894" 
d="M585 -6q-63 0 -128.5 20t-112.5 62l31 105q52 -40 111 -59t108 -19q34 0 50.5 13.5t16.5 38.5q0 32 -32.5 45.5t-85.5 24.5q-101 23 -142 60.5t-41 106.5q0 75 48.5 124.5t142.5 58.5q-7 57 -47 81t-95 24q-58 0 -93.5 -40t-35.5 -125v-515h-187v529q0 141 88 210t229 69
q143 0 231 -73.5t88 -188.5v-62q-116 2 -159.5 -14t-43.5 -53q0 -32 34.5 -45t91.5 -26q96 -22 135 -60.5t39 -109.5q0 -84 -64.5 -133t-176.5 -49z" />
    <glyph glyph-name="ae" unicode="&#xe6;" horiz-adv-x="958" 
d="M864 151q-27 -94 -82.5 -127.5t-136.5 -33.5q-61 0 -105 22.5t-68 67.5h-25q-25 -37 -67.5 -63.5t-105.5 -26.5q-69 0 -125 39.5t-56 127.5q0 90 60 134.5t169 44.5h74v69q0 43 -12.5 61.5t-39.5 18.5t-41 -17t-27 -66l-170 25q21 97 71 140t154 43q57 0 99 -15t67 -49
q29 32 70.5 48t89.5 16q93 0 150.5 -59t57.5 -168v-119h-282v-78q0 -34 13.5 -56.5t52.5 -22.5q25 0 42 14.5t26 51.5zM583 402v-43h106v34q0 57 -10 80.5t-44 23.5t-43 -22t-9 -73zM396 139v101h-64q-32 0 -47 -16t-15 -56q0 -34 10.5 -49.5t34.5 -15.5q21 0 40 9t41 27z
" />
    <glyph glyph-name="aeacute" unicode="&#x1fd;" horiz-adv-x="958" 
d="M93 0zM363 700l83 200h228l-194 -200h-117zM864 151q-27 -94 -82.5 -127.5t-136.5 -33.5q-61 0 -105 22.5t-68 67.5h-25q-25 -37 -67.5 -63.5t-105.5 -26.5q-69 0 -125 39.5t-56 127.5q0 90 60 134.5t169 44.5h74v69q0 43 -12.5 61.5t-39.5 18.5t-41 -17t-27 -66l-170 25
q21 97 71 140t154 43q57 0 99 -15t67 -49q29 32 70.5 48t89.5 16q93 0 150.5 -59t57.5 -168v-119h-282v-78q0 -34 13.5 -56.5t52.5 -22.5q25 0 42 14.5t26 51.5zM583 402v-43h106v34q0 57 -10 80.5t-44 23.5t-43 -22t-9 -73zM396 139v101h-64q-32 0 -47 -16t-15 -56
q0 -34 10.5 -49.5t34.5 -15.5q21 0 40 9t41 27z" />
    <glyph glyph-name="eth" unicode="&#xf0;" 
d="M354 -10q-116 0 -188.5 58.5t-72.5 179.5v56q0 99 53 157.5t138 58.5q52 0 85.5 -22t46.5 -52h18q-5 60 -26 103t-57 74l-132 -71v96l49 27q-26 13 -57.5 25t-67.5 24l125 117q49 -16 91.5 -34.5t76.5 -40.5l117 62v-96l-46 -24q55 -57 81 -135.5t26 -183.5v-135
q0 -128 -72 -186t-188 -58zM355 120q40 0 56 24t16 74v63q0 45 -16 66.5t-56 21.5t-56.5 -21.5t-16.5 -66.5v-63q0 -50 16.5 -74t56.5 -24z" />
    <glyph glyph-name="oslash" unicode="&#xf8;" 
d="M260 229q0 -19 1.5 -35.5t5.5 -29.5l128 319q-9 2 -19 3.5t-22 1.5q-54 0 -74 -26.5t-20 -88.5v-144zM354 112q53 0 73.5 25.5t20.5 91.5v147q0 18 -2 32.5t-6 26.5l-124 -319q8 -2 18 -3t20 -1zM354 -10q-19 0 -37 1.5t-35 4.5l-43 -96h-104l56 128q-46 28 -72 75.5
t-26 113.5v162q0 112 71.5 171.5t190.5 59.5q19 0 37.5 -1.5t34.5 -5.5l42 97h104l-56 -129q46 -28 71.5 -77t25.5 -115v-162q0 -110 -70.5 -168.5t-189.5 -58.5z" />
    <glyph glyph-name="oslashacute" unicode="&#x1ff;" 
d="M93 0zM260 229q0 -19 1.5 -35.5t5.5 -29.5l128 319q-9 2 -19 3.5t-22 1.5q-54 0 -74 -26.5t-20 -88.5v-144zM354 112q53 0 73.5 25.5t20.5 91.5v147q0 18 -2 32.5t-6 26.5l-124 -319q8 -2 18 -3t20 -1zM354 -10q-19 0 -37 1.5t-35 4.5l-43 -96h-104l56 128
q-46 28 -72 75.5t-26 113.5v162q0 112 71.5 171.5t190.5 59.5q19 0 37.5 -1.5t34.5 -5.5l42 97h104l-56 -129q46 -28 71.5 -77t25.5 -115v-162q0 -110 -70.5 -168.5t-189.5 -58.5zM238 700l83 200h228l-194 -200h-117z" />
    <glyph glyph-name="thorn" unicode="&#xfe;" 
d="M360 122q35 0 51 19t16 66v180q0 43 -15 63.5t-43 20.5q-25 0 -46 -11.5t-43 -36.5v-273q19 -12 38.5 -20t41.5 -8zM399 -7q-36 0 -66 6.5t-53 18.5v-218h-187v1000h187v-295h25q15 49 57 77t98 28q78 0 116 -57.5t38 -150.5v-196q0 -100 -57 -156.5t-158 -56.5z" />
    <glyph glyph-name="dcroat" unicode="&#x111;" 
d="M339 129q22 0 43.5 15t44.5 46v193q-22 15 -42 22t-37 7q-34 0 -51 -23t-17 -75v-85q0 -52 15 -76t44 -24zM403 108q-16 -54 -59 -86t-99 -32q-69 0 -110.5 55.5t-41.5 149.5v120q0 104 58.5 165t157.5 61q32 0 62.5 -6.5t55.5 -18.5v90h-135v96h135v98h187v-98h84v-96
h-84v-606h-187v108h-24z" />
    <glyph glyph-name="hbar" unicode="&#x127;" 
d="M280 328v-328h-187v606h-83v96h83v98h187v-98h137v-96h-137v-167h25q19 49 61 77t99 28q70 0 109.5 -50t39.5 -139v-355h-187v323q0 41 -12 61.5t-37 20.5q-28 0 -53.5 -20t-44.5 -57z" />
    <glyph glyph-name="dotlessi" horiz-adv-x="437" 
d="M126 0v600h186v-600h-186z" />
    <glyph glyph-name="ij" horiz-adv-x="958" 
d="M104 0zM219 694q-51 0 -83 16t-32 56v14q0 40 32 57.5t83 17.5q52 0 83.5 -17.5t31.5 -57.5v-14q0 -40 -32 -56t-83 -16zM126 0v600h186v-600h-186zM593 -209q-32 0 -64.5 6t-62.5 16l17 119q24 -9 44.5 -14t39.5 -5q33 0 51.5 23t18.5 76v458h-135v130h322v-603
q0 -99 -66 -152.5t-165 -53.5zM730 694q-51 0 -83 16t-32 56v14q0 40 32 57.5t83 17.5q52 0 83.5 -17.5t31.5 -57.5v-14q0 -40 -32 -56t-83 -16z" />
    <glyph glyph-name="kgreenlandic" unicode="&#x138;" horiz-adv-x="624" 
d="M93 0zM280 260v-260h-187v600h187v-218h29l106 218h189l-142 -263l141 -337h-197l-97 260h-29z" />
    <glyph glyph-name="ldot" horiz-adv-x="791" 
d="M135 0zM615 326q-51 0 -83 16t-32 56v14q0 40 32 57.5t83 17.5q52 0 83.5 -17.5t31.5 -57.5v-14q0 -40 -32 -56t-83 -16zM343 -9q-99 0 -153.5 61t-54.5 163v585h187v-584q0 -45 15 -66.5t41 -21.5q18 0 40 5.5t41 15.5l27 -126q-31 -15 -68.5 -23.5t-74.5 -8.5z" />
    <glyph glyph-name="lslash" horiz-adv-x="541" 
d="M343 -9q-99 0 -153.5 61t-54.5 163v93l-73 -22v112l73 22v380h187v-323l126 39v-112l-126 -39v-149q0 -45 15 -66.5t41 -21.5q18 0 40 5.5t41 15.5l27 -126q-31 -15 -68.5 -23.5t-74.5 -8.5z" />
    <glyph glyph-name="napostrophe" unicode="&#x149;" horiz-adv-x="604" 
d="M0 0zM-23 700l83 200h228l-194 -200h-117zM93 0v600h187v-95h25q19 50 60 77.5t98 27.5q72 0 111.5 -51.5t39.5 -144.5v-414h-187v389q0 42 -12 62t-37 20q-28 0 -53.5 -20.5t-44.5 -56.5v-394h-187z" />
    <glyph glyph-name="eng" unicode="&#x14b;" 
d="M394 -209q-30 0 -59.5 6t-57.5 16l17 120q22 -9 40 -14.5t34 -5.5q28 0 43.5 23.5t15.5 77.5v375q0 42 -12 62t-37 20q-28 0 -53.5 -20.5t-44.5 -56.5v-394h-187v600h187v-95h25q19 49 61 77t99 28q70 0 109.5 -49.5t39.5 -136.5v-427q0 -108 -68 -157t-152 -49z" />
    <glyph glyph-name="oe" unicode="&#x153;" horiz-adv-x="958" 
d="M867 151q-27 -94 -80.5 -127.5t-143.5 -33.5q-49 0 -91 16t-72 48q-30 -31 -72.5 -47.5t-93.5 -16.5q-96 0 -158.5 57.5t-62.5 169.5v162q0 113 63 172t159 59q50 0 92 -16.5t72 -48.5q30 33 74 49t94 16q93 0 155.5 -55.5t62.5 -171.5v-119h-292v-63q0 -46 14 -70
t52 -24q33 0 51 13t31 53zM573 402v-43h105v34q0 57 -9.5 80.5t-43.5 23.5t-43 -22t-9 -73zM333 120q31 0 42 22.5t11 73.5v173q0 45 -11 68t-42 23t-42 -23.5t-11 -69.5v-171q0 -51 11 -73.5t42 -22.5z" />
    <glyph glyph-name="tbar" unicode="&#x167;" horiz-adv-x="624" 
d="M406 -10q-112 0 -170.5 51.5t-58.5 151.5v63h-100v114h100v100h-100v130h100v200h187v-200h163v-130h-163v-100h163v-114h-163v-41q0 -51 19.5 -72.5t53.5 -21.5q16 0 37 5t44 15l16 -127q-16 -9 -52 -16.5t-76 -7.5z" />
    <glyph glyph-name="longs" unicode="&#x17f;" horiz-adv-x="541" 
d="M177 0v470h-100v130h100v33q0 98 66.5 149t168.5 51q32 0 63.5 -6.5t62.5 -17.5l-16 -117q-26 9 -47 14t-38 5q-34 0 -53.5 -21.5t-19.5 -70.5v-619h-187z" />
    <glyph glyph-name="dotlessj" unicode="&#xf6be;" horiz-adv-x="541" 
d="M175 -209q-32 0 -64.5 6t-62.5 16l17 119q24 -9 44.5 -14t39.5 -5q33 0 51.5 23t18.5 76v458h-135v130h322v-603q0 -99 -66 -152.5t-165 -53.5z" />
    <glyph glyph-name="dotlessj" unicode="&#x237;" horiz-adv-x="541" 
d="M175 -209q-32 0 -64.5 6t-62.5 16l17 119q24 -9 44.5 -14t39.5 -5q33 0 51.5 23t18.5 76v458h-135v130h322v-603q0 -99 -66 -152.5t-165 -53.5z" />
    <glyph glyph-name="alpha" unicode="&#x3b1;" horiz-adv-x="791" 
d="M339 130q25 0 46.5 10.5t41.5 37.5v240q-22 29 -42.5 42t-45.5 13q-29 0 -44 -24t-15 -76v-150q0 -50 15 -71.5t44 -21.5zM496 120h-25q-19 -59 -72.5 -94t-125.5 -35q-82 0 -131 55.5t-49 149.5v193q0 102 45.5 162t121.5 60q49 0 88 -30t55 -81h24v101h187v-401
q0 -48 22.5 -64t77.5 -7v-125q-86 -23 -142.5 7t-75.5 109z" />
    <glyph glyph-name="alphatonos" unicode="&#x3ac;" horiz-adv-x="791" 
d="M93 0zM339 130q25 0 46.5 10.5t41.5 37.5v240q-22 29 -42.5 42t-45.5 13q-29 0 -44 -24t-15 -76v-150q0 -50 15 -71.5t44 -21.5zM496 120h-25q-19 -59 -72.5 -94t-125.5 -35q-82 0 -131 55.5t-49 149.5v193q0 102 45.5 162t121.5 60q49 0 88 -30t55 -81h24v101h187v-401
q0 -48 22.5 -64t77.5 -7v-125q-86 -23 -142.5 7t-75.5 109zM283 700l32 200h220l-143 -200h-109z" />
    <glyph glyph-name="beta" unicode="&#x3b2;" 
d="M348 126q40 0 59 27.5t19 83.5v26q0 61 -19 86t-59 25h-58v104h52q31 0 46 19.5t15 63.5v18q0 51 -14.5 72t-48.5 21q-32 0 -46 -23t-14 -76v-425q16 -12 33 -17t35 -5zM399 -10q-33 0 -63 6t-56 16v-212h-187v773q0 124 71.5 180.5t175.5 56.5q114 0 180.5 -53
t66.5 -144v-18q0 -59 -35 -96t-107 -51v-29q78 -8 123 -56t46 -117v-35q0 -102 -57.5 -161.5t-157.5 -59.5z" />
    <glyph glyph-name="gamma" unicode="&#x3b3;" horiz-adv-x="624" 
d="M424 -200h-224l19 220l-189 580h185l99 -378l94 378h185l-187 -580z" />
    <glyph glyph-name="delta" unicode="&#x3b4;" 
d="M354 -10q-116 0 -188.5 55.5t-72.5 171.5v92q0 56 28.5 95.5t91.5 68.5q-50 25 -72 60t-22 86q0 93 58.5 137t173.5 44h176v-130h-176q-25 0 -38.5 -10t-13.5 -41q0 -27 35.5 -45.5t122.5 -52.5q84 -33 120.5 -85t36.5 -133v-86q0 -116 -72 -171.5t-188 -55.5zM354 120
q37 0 55 23t18 74v86q0 49 -25 76t-71 46q-26 -20 -38.5 -48.5t-12.5 -67.5v-92q0 -51 19 -74t55 -23z" />
    <glyph glyph-name="epsilon" unicode="&#x3b5;" 
d="M357 -10q-122 0 -191 41.5t-69 126.5v18q0 52 31.5 83t99.5 38v22q-60 6 -88 33t-28 77v19q0 81 64.5 121.5t176.5 40.5q118 0 187 -46t74 -150l-170 -8q-6 49 -26.5 67.5t-59.5 18.5q-35 0 -50.5 -14t-15.5 -45v-14q0 -32 20 -43.5t58 -11.5h39v-104h-39
q-50 0 -70.5 -16t-20.5 -51v-10q0 -34 17.5 -54t64.5 -20q51 0 72 22t27 74l169 -7q-10 -107 -73 -157.5t-199 -50.5z" />
    <glyph glyph-name="epsilontonos" unicode="&#x3ad;" 
d="M97 0zM357 -10q-122 0 -191 41.5t-69 126.5v18q0 52 31.5 83t99.5 38v22q-60 6 -88 33t-28 77v19q0 81 64.5 121.5t176.5 40.5q118 0 187 -46t74 -150l-170 -8q-6 49 -26.5 67.5t-59.5 18.5q-35 0 -50.5 -14t-15.5 -45v-14q0 -32 20 -43.5t58 -11.5h39v-104h-39
q-50 0 -70.5 -16t-20.5 -51v-10q0 -34 17.5 -54t64.5 -20q51 0 72 22t27 74l169 -7q-10 -107 -73 -157.5t-199 -50.5zM292 700l32 200h220l-143 -200h-109z" />
    <glyph glyph-name="zeta" unicode="&#x3b6;" 
d="M394 -200h-134v122h126q30 0 48 11.5t18 45.5q0 37 -18 49t-48 12h-51q-124 0 -182 60.5t-58 155.5q0 87 28.5 143t94.5 135l78 91l-7 17q-75 -8 -134 32t-95 118l97 59q47 -78 110 -99.5t159 0.5l165 78l30 -163l-184 -35l-83 -137q-37 -63 -54.5 -109.5t-17.5 -112.5
q0 -54 19.5 -82.5t60.5 -28.5h80q81 0 126.5 -43.5t45.5 -132.5q0 -93 -59.5 -139.5t-160.5 -46.5z" />
    <glyph glyph-name="eta" unicode="&#x3b7;" 
d="M427 -200v589q0 42 -12 62t-37 20q-28 0 -53.5 -20.5t-44.5 -56.5v-394h-187v600h187v-95h25q18 49 60.5 77t99.5 28q69 0 109 -49.5t40 -136.5v-624h-187z" />
    <glyph glyph-name="etatonos" unicode="&#x3ae;" 
d="M93 0zM303 700l32 200h220l-143 -200h-109zM427 -200v589q0 42 -12 62t-37 20q-28 0 -53.5 -20.5t-44.5 -56.5v-394h-187v600h187v-95h25q18 49 60.5 77t99.5 28q69 0 109 -49.5t40 -136.5v-624h-187z" />
    <glyph glyph-name="theta" unicode="&#x3b8;" 
d="M354 -10q-118 0 -189.5 58.5t-71.5 168.5v362q0 111 72 171t190 60q117 0 188 -60t71 -171v-362q0 -110 -71.5 -168.5t-188.5 -58.5zM270 573v-111h168v114q0 56 -18.5 80t-65.5 24q-46 0 -65 -25t-19 -82zM354 120q47 0 65.5 24.5t18.5 84.5v119h-168v-119
q0 -60 19 -84.5t65 -24.5z" />
    <glyph glyph-name="iota" unicode="&#x3b9;" horiz-adv-x="541" 
d="M302 -12q-90 0 -128.5 59.5t-38.5 146.5v406h187v-376q0 -46 11.5 -71t39.5 -26q13 -1 31.5 5t44.5 17l27 -126q-50 -19 -90 -27t-84 -8z" />
    <glyph glyph-name="iotadieresistonos" unicode="&#x390;" horiz-adv-x="541" 
d="M0 0zM158 700l38 200h152l-88 -200h-102zM39 692q-35 0 -57.5 16t-22.5 56v14q0 40 22.5 57.5t57.5 17.5q36 0 58 -17.5t22 -57.5v-14q0 -40 -23 -56t-57 -16zM435 692q-35 0 -57.5 16t-22.5 56v14q0 40 22.5 57.5t57.5 17.5q36 0 58 -17.5t22 -57.5v-14q0 -40 -23 -56
t-57 -16zM302 -12q-90 0 -128.5 59.5t-38.5 146.5v406h187v-376q0 -46 11.5 -71t39.5 -26q13 -1 31.5 5t44.5 17l27 -126q-50 -19 -90 -27t-84 -8z" />
    <glyph glyph-name="iotatonos" unicode="&#x3af;" horiz-adv-x="541" 
d="M135 0zM165 700l32 200h220l-143 -200h-109zM302 -12q-90 0 -128.5 59.5t-38.5 146.5v406h187v-376q0 -46 11.5 -71t39.5 -26q13 -1 31.5 5t44.5 17l27 -126q-50 -19 -90 -27t-84 -8z" />
    <glyph glyph-name="iotadieresis" unicode="&#x3ca;" horiz-adv-x="541" 
d="M33 0zM302 -12q-90 0 -128.5 59.5t-38.5 146.5v406h187v-376q0 -46 11.5 -71t39.5 -26q13 -1 31.5 5t44.5 17l27 -126q-50 -19 -90 -27t-84 -8zM121 694q-39 0 -63.5 16t-24.5 56v14q0 40 24.5 57.5t63.5 17.5q40 0 64.5 -17.5t24.5 -57.5v-14q0 -40 -25 -56t-64 -16z
M345 694q-40 0 -64.5 16t-24.5 56v14q0 40 24.5 57.5t64.5 17.5t64 -17.5t24 -57.5v-14q0 -40 -25 -56t-63 -16z" />
    <glyph glyph-name="kappa" unicode="&#x3ba;" horiz-adv-x="624" 
d="M280 260v-260h-187v600h187v-218h29l106 218h189l-142 -263l141 -337h-197l-97 260h-29z" />
    <glyph glyph-name="lambda" unicode="&#x3bb;" horiz-adv-x="624" 
d="M413 -1l-102 467l-100 -467h-181l126 544h139l-6 24q-13 55 -40.5 85.5t-81.5 30.5q-25 0 -53 -4t-64 -11l-8 129q45 6 82.5 9t69.5 3q111 0 174 -48t87 -152l138 -610h-180z" />
    <glyph glyph-name="mu" unicode="&#x3bc;" horiz-adv-x="791" 
d="M280 20l9 -220h-204l8 220v580h187v-380q0 -47 19 -67t45 -20q27 0 47 11.5t36 39.5v416h187v-400q0 -49 24.5 -64t75.5 -7v-125q-78 -19 -128.5 -2t-80.5 82h-26q-17 -39 -45 -66.5t-77 -27.5q-22 0 -42 12t-35 37v-19z" />
    <glyph glyph-name="nu" unicode="&#x3bd;" horiz-adv-x="624" 
d="M407 0h-191l-186 600h186l115 -418q34 102 52.5 214.5t24.5 203.5h185q-15 -169 -66 -320t-120 -280z" />
    <glyph glyph-name="xi" unicode="&#x3be;" 
d="M610 -14q0 -93 -59.5 -139.5t-160.5 -46.5h-134v122h126q30 0 48 11.5t18 45.5q0 37 -18 49t-48 12h-88q-93 0 -147 49.5t-54 133.5v19q0 58 37 102t111 51v23q-46 0 -71.5 27t-25.5 67q0 38 28.5 68.5t81.5 39.5v23q-80 -2 -132.5 34.5t-84.5 114.5l97 59
q42 -65 100 -92t165 -5l172 76l29 -163l-191 -33l-29 -17q-25 -16 -37.5 -40t-12.5 -51q0 -33 17 -46.5t42 -13.5h146v-122h-144q-55 0 -83 -23.5t-28 -63.5v-19q0 -36 24 -56t72 -20h35q95 0 147 -43.5t52 -132.5z" />
    <glyph glyph-name="omicron" unicode="&#x3bf;" 
d="M93 0zM354 -10q-116 0 -188.5 57.5t-72.5 160.5v181q0 104 73 162.5t189 58.5t187.5 -58.5t71.5 -162.5v-181q0 -103 -72 -160.5t-188 -57.5zM354 120q41 0 57 22t16 74v173q0 48 -16 69.5t-57 21.5t-57.5 -22t-16.5 -71v-171q0 -52 16.5 -74t57.5 -22z" />
    <glyph glyph-name="omicrontonos" unicode="&#x3cc;" 
d="M93 0zM279 700l32 200h220l-143 -200h-109zM354 -10q-116 0 -188.5 57.5t-72.5 160.5v181q0 104 73 162.5t189 58.5t187.5 -58.5t71.5 -162.5v-181q0 -103 -72 -160.5t-188 -57.5zM354 120q41 0 57 22t16 74v173q0 48 -16 69.5t-57 21.5t-57.5 -22t-16.5 -71v-171
q0 -52 16.5 -74t57.5 -22z" />
    <glyph glyph-name="pi" unicode="&#x3c0;" horiz-adv-x="791" 
d="M704 600v-130h-79v-270q0 -48 22.5 -64t77.5 -7v-125q-137 -28 -212 14.5t-75 148.5v303h-116v-470h-187v470h-83v130h652z" />
    <glyph glyph-name="rho" unicode="&#x3c1;" 
d="M369 129q27 0 42.5 23t15.5 77v158q0 49 -18.5 70.5t-52.5 21.5q-35 0 -55.5 -21.5t-20.5 -70.5v-197q23 -31 45 -46t44 -15zM93 -200v580q0 110 68 169t193 59t192.5 -59t67.5 -169v-177q0 -89 -44 -151t-133 -62q-57 0 -91 32.5t-41 85.5h-25v-308h-187z" />
    <glyph glyph-name="sigma1" unicode="&#x3c2;" 
d="M260 -200v130h114q34 0 50.5 11t16.5 42q0 34 -16.5 45.5t-50.5 11.5h-74q-90 0 -148.5 65t-58.5 172v100q0 112 70.5 172.5t192.5 60.5q119 0 181.5 -57t75.5 -167l-180 -14q-5 62 -21 84.5t-58 22.5q-45 0 -59.5 -25.5t-14.5 -86.5v-84q0 -61 14.5 -87t59.5 -26h75
q93 0 139 -44t46 -135q0 -93 -70 -142t-184 -49h-100z" />
    <glyph glyph-name="sigma" unicode="&#x3c3;" horiz-adv-x="791" 
d="M354 120q42 0 57.5 24t15.5 85v141q0 59 -15.5 83.5t-57.5 24.5t-58 -24.5t-16 -82.5v-142q0 -61 16 -85t58 -24zM354 -10q-117 0 -189 59t-72 168v160q0 107 72 165t190 58h385v-140l-168 12q20 -27 31 -62t11 -77v-116q0 -109 -71.5 -168t-188.5 -59z" />
    <glyph glyph-name="tau" unicode="&#x3c4;" horiz-adv-x="624" 
d="M506 4q-137 -28 -212 15t-75 148v295h-167v138h529v-138h-175v-262q0 -47 23 -63t77 -8v-125z" />
    <glyph glyph-name="upsilon" unicode="&#x3c5;" 
d="M355 -10q-117 0 -189.5 66t-72.5 188v356h187v-352q0 -64 16.5 -92t57.5 -28t57 27.5t16 90.5v354h187v-356q0 -122 -71.5 -188t-187.5 -66z" />
    <glyph glyph-name="upsilondieresistonos" unicode="&#x3b0;" 
d="M76 0zM355 -10q-117 0 -189.5 66t-72.5 188v356h187v-352q0 -64 16.5 -92t57.5 -28t57 27.5t16 90.5v354h187v-356q0 -122 -71.5 -188t-187.5 -66zM275 700l38 200h152l-88 -200h-102zM156 692q-35 0 -57.5 16t-22.5 56v14q0 40 22.5 57.5t57.5 17.5q36 0 58 -17.5
t22 -57.5v-14q0 -40 -23 -56t-57 -16zM552 692q-35 0 -57.5 16t-22.5 56v14q0 40 22.5 57.5t57.5 17.5q36 0 58 -17.5t22 -57.5v-14q0 -40 -23 -56t-57 -16z" />
    <glyph glyph-name="upsilondieresis" unicode="&#x3cb;" 
d="M93 0zM355 -10q-117 0 -189.5 66t-72.5 188v356h187v-352q0 -64 16.5 -92t57.5 -28t57 27.5t16 90.5v354h187v-356q0 -122 -71.5 -188t-187.5 -66zM242 694q-39 0 -63.5 16t-24.5 56v14q0 40 24.5 57.5t63.5 17.5q40 0 64.5 -17.5t24.5 -57.5v-14q0 -40 -25 -56t-64 -16z
M466 694q-40 0 -64.5 16t-24.5 56v14q0 40 24.5 57.5t64.5 17.5t64 -17.5t24 -57.5v-14q0 -40 -25 -56t-63 -16z" />
    <glyph glyph-name="upsilontonos" unicode="&#x3cd;" 
d="M93 0zM355 -10q-117 0 -189.5 66t-72.5 188v356h187v-352q0 -64 16.5 -92t57.5 -28t57 27.5t16 90.5v354h187v-356q0 -122 -71.5 -188t-187.5 -66zM289 700l32 200h220l-143 -200h-109z" />
    <glyph glyph-name="phi" unicode="&#x3c6;" horiz-adv-x="978" 
d="M583 -200h-187v196q-156 19 -229.5 103t-73.5 218v48q0 77 14.5 140t44.5 112l182 -32q-23 -43 -38.5 -98t-15.5 -122v-48q0 -81 26.5 -123.5t89.5 -56.5v463h118q153 0 262 -72t109 -217v-34q0 -121 -82.5 -192.5t-219.5 -88.5v-196zM583 462v-327q63 11 89 45t26 97v34
q0 78 -28.5 114.5t-86.5 36.5z" />
    <glyph glyph-name="chi" unicode="&#x3c7;" horiz-adv-x="624" 
d="M399 -200l-95 215l-81 -215h-185l179 412l-173 388h185l88 -197l74 197h184l-171 -393l181 -407h-186z" />
    <glyph glyph-name="psi" unicode="&#x3c8;" horiz-adv-x="978" 
d="M583 -200h-187v187q-157 16 -230 88t-73 182v343h187v-319q0 -64 26.5 -98.5t89.5 -45.5v463h187v-463q63 11 89 45.5t26 98.5v319h187v-343q0 -110 -72.5 -182t-229.5 -88v-187z" />
    <glyph glyph-name="omega" unicode="&#x3c9;" horiz-adv-x="978" 
d="M301 -10q-93 0 -150.5 73.5t-57.5 215.5v72q0 81 17 155.5t36 110.5l182 -32q-13 -31 -30.5 -96.5t-17.5 -137.5v-72q0 -75 15 -113t43 -38q29 0 43.5 20.5t14.5 68.5v283h187v-283q0 -48 14.5 -68.5t42.5 -20.5q30 0 44 38t14 113v72q0 72 -17.5 137.5t-30.5 96.5
l182 32q19 -36 36 -110.5t17 -155.5v-72q0 -142 -57.5 -215.5t-150.5 -73.5q-62 0 -107 31t-69 103h-29q-22 -73 -66.5 -103.5t-104.5 -30.5z" />
    <glyph glyph-name="omegatonos" unicode="&#x3ce;" horiz-adv-x="978" 
d="M93 0zM417 700l32 200h220l-143 -200h-109zM301 -10q-93 0 -150.5 73.5t-57.5 215.5v72q0 81 17 155.5t36 110.5l182 -32q-13 -31 -30.5 -96.5t-17.5 -137.5v-72q0 -75 15 -113t43 -38q29 0 43.5 20.5t14.5 68.5v283h187v-283q0 -48 14.5 -68.5t42.5 -20.5q30 0 44 38
t14 113v72q0 72 -17.5 137.5t-30.5 96.5l182 32q19 -36 36 -110.5t17 -155.5v-72q0 -142 -57.5 -215.5t-150.5 -73.5q-62 0 -107 31t-69 103h-29q-22 -73 -66.5 -103.5t-104.5 -30.5z" />
    <glyph glyph-name="acyrillic" unicode="&#x430;" horiz-adv-x="791" 
d="M104 0zM340 103q27 0 52.5 8.5t45.5 24.5v104h-107q-22 0 -35.5 -14.5t-13.5 -52.5q0 -35 14.5 -52.5t43.5 -17.5zM290 -10q-87 0 -136.5 46t-49.5 128q0 84 52.5 128t144.5 44h137v76q0 40 -20.5 59t-57.5 19q-38 0 -55.5 -19t-28.5 -73l-160 25q20 100 88 143.5
t175 43.5q120 0 183 -45.5t63 -147.5v-223q0 -48 24.5 -60t75.5 -5v-125q-79 -19 -134.5 -3t-74.5 82h-27q-30 -42 -80.5 -67.5t-118.5 -25.5z" />
    <glyph glyph-name="becyrillic" unicode="&#x431;" 
d="M354 -10q-116 0 -188.5 62t-72.5 198v198q0 168 68.5 249.5t219.5 98.5l187 19l13 -141l-182 -23q-66 -8 -96.5 -44.5t-30.5 -108.5v-56h19q22 48 60 73t93 25q75 0 122.5 -54.5t47.5 -145.5v-112q0 -120 -72 -179t-188 -59zM353 120q40 0 56.5 24.5t16.5 73.5v103
q0 45 -16.5 66.5t-56.5 21.5t-56.5 -21.5t-16.5 -66.5v-103q0 -49 16.5 -73.5t56.5 -24.5z" />
    <glyph glyph-name="vecyrillic" unicode="&#x432;" 
d="M93 0v600h266q125 0 190 -37.5t65 -116.5v-22q0 -49 -29.5 -75.5t-85.5 -30.5v-22q65 -5 97.5 -35.5t32.5 -81.5v-18q0 -80 -64 -120.5t-206 -40.5h-266zM270 358h96q39 0 55 13t16 45v14q0 32 -15 45.5t-52 13.5h-100v-131zM270 119h100q46 0 64.5 16.5t18.5 51.5v10
q0 35 -19 50t-68 15h-96v-143z" />
    <glyph glyph-name="gecyrillic" unicode="&#x433;" horiz-adv-x="541" 
d="M93 0v600h413v-138h-226v-462h-187z" />
    <glyph glyph-name="gjecyrillic" unicode="&#x453;" horiz-adv-x="541" 
d="M93 0zM204 700l83 200h228l-194 -200h-117zM93 0v600h413v-138h-226v-462h-187z" />
    <glyph glyph-name="decyrillic" unicode="&#x434;" horiz-adv-x="791" 
d="M307 150v-20h141v340h-107l-1 -182q-1 -48 -7.5 -80.5t-25.5 -57.5zM224 0v-150h-176v280h75q19 14 29 46t11 98l5 326h457v-470h83v-280h-176v150h-308z" />
    <glyph glyph-name="iecyrillic" unicode="&#x435;" 
d="M93 0zM616 140q-27 -75 -92.5 -112.5t-172.5 -37.5q-120 0 -189 60t-69 166v172q0 104 70 163t192 59q121 0 190 -60t69 -165v-121h-334v-48q0 -58 19.5 -83.5t68.5 -25.5q40 0 61.5 16.5t36.5 57.5zM280 387v-28h147v26q0 63 -16 87.5t-57 24.5q-42 0 -58 -23.5
t-16 -86.5z" />
    <glyph glyph-name="iegravecyrillic" unicode="&#x450;" 
d="M93 0zM616 140q-27 -75 -92.5 -112.5t-172.5 -37.5q-120 0 -189 60t-69 166v172q0 104 70 163t192 59q121 0 190 -60t69 -165v-121h-334v-48q0 -58 19.5 -83.5t68.5 -25.5q40 0 61.5 16.5t36.5 57.5zM280 387v-28h147v26q0 63 -16 87.5t-57 24.5q-42 0 -58 -23.5
t-16 -86.5zM339 700l-194 200h229l82 -200h-117z" />
    <glyph glyph-name="iocyrillic" unicode="&#x451;" 
d="M93 0zM616 140q-27 -75 -92.5 -112.5t-172.5 -37.5q-120 0 -189 60t-69 166v172q0 104 70 163t192 59q121 0 190 -60t69 -165v-121h-334v-48q0 -58 19.5 -83.5t68.5 -25.5q40 0 61.5 16.5t36.5 57.5zM280 387v-28h147v26q0 63 -16 87.5t-57 24.5q-42 0 -58 -23.5
t-16 -86.5zM242 694q-39 0 -63.5 16t-24.5 56v14q0 40 24.5 57.5t63.5 17.5q40 0 64.5 -17.5t24.5 -57.5v-14q0 -40 -25 -56t-64 -16zM466 694q-40 0 -64.5 16t-24.5 56v14q0 40 24.5 57.5t64.5 17.5t64 -17.5t24 -57.5v-14q0 -40 -25 -56t-63 -16z" />
    <glyph glyph-name="zhecyrillic" unicode="&#x436;" horiz-adv-x="791" 
d="M273 247l-75 -247h-155l121 324l-124 276h157l89 -241h36v241h147v-241h36l89 241h157l-123 -276l120 -324h-155l-75 247h-49v-247h-147v247h-49z" />
    <glyph glyph-name="zecyrillic" unicode="&#x437;" 
d="M369 -10q-131 0 -196.5 52.5t-75.5 155.5l170 7q5 -52 26 -74t72 -22q48 0 65.5 20t17.5 54v10q0 35 -20.5 51t-71.5 16h-39v104h39q39 0 58.5 11.5t19.5 43.5v14q0 31 -15.5 45t-50.5 14q-39 0 -59 -18.5t-27 -67.5l-170 8q6 99 72.5 147.5t188.5 48.5q103 0 172 -37.5
t69 -124.5v-19q0 -50 -27.5 -77t-87.5 -33v-22q67 -7 98.5 -38t31.5 -83v-18q0 -85 -69 -126.5t-191 -41.5z" />
    <glyph glyph-name="iicyrillic" unicode="&#x438;" 
d="M459 0v372l-182 -372h-184v600h157v-400l196 400h168v-600h-155z" />
    <glyph glyph-name="iishortcyrillic" unicode="&#x439;" 
d="M93 0zM459 0v372l-182 -372h-184v600h157v-400l196 400h168v-600h-155zM354 693q-105 0 -168 55.5t-61 168.5l156 10q-1 -66 14.5 -94.5t58.5 -28.5t58.5 28.5t14.5 94.5l156 -10q2 -113 -61 -168.5t-168 -55.5z" />
    <glyph glyph-name="igravecyrillic" unicode="&#x45d;" 
d="M93 0zM334 700l-194 200h229l82 -200h-117zM459 0v372l-182 -372h-184v600h157v-400l196 400h168v-600h-155z" />
    <glyph glyph-name="kacyrillic" unicode="&#x43a;" horiz-adv-x="624" 
d="M280 250v-250h-187v600h187v-228h29l120 228h177l-163 -268l160 -332h-186l-108 250h-29z" />
    <glyph glyph-name="kjecyrillic" unicode="&#x45c;" horiz-adv-x="624" 
d="M93 0zM255 700l83 200h228l-194 -200h-117zM280 250v-250h-187v600h187v-228h29l120 228h177l-163 -268l160 -332h-186l-108 250h-29z" />
    <glyph glyph-name="elcyrillic" unicode="&#x43b;" 
d="M427 0v470h-95l-2 -242q-1 -124 -46 -182.5t-131 -58.5q-26 0 -55.5 4.5t-61.5 11.5l18 131q15 -4 28.5 -6.5t26.5 -2.5q21 0 33 22t13 94l4 359h455v-600h-187z" />
    <glyph glyph-name="emcyrillic" unicode="&#x43c;" horiz-adv-x="791" 
d="M331 150l-81 228v-378h-157v600h212l93 -259l91 259h209v-600h-157v378l-81 -228h-129z" />
    <glyph glyph-name="encyrillic" unicode="&#x43d;" 
d="M93 0v600h187v-202h147v202h187v-600h-187v260h-147v-260h-187z" />
    <glyph glyph-name="ocyrillic" unicode="&#x43e;" 
d="M93 0zM354 -10q-116 0 -188.5 57.5t-72.5 160.5v181q0 104 73 162.5t189 58.5t187.5 -58.5t71.5 -162.5v-181q0 -103 -72 -160.5t-188 -57.5zM354 120q41 0 57 22t16 74v173q0 48 -16 69.5t-57 21.5t-57.5 -22t-16.5 -71v-171q0 -52 16.5 -74t57.5 -22z" />
    <glyph glyph-name="pecyrillic" unicode="&#x43f;" 
d="M93 0v600h521v-600h-187v462h-147v-462h-187z" />
    <glyph glyph-name="ercyrillic" unicode="&#x440;" 
d="M93 0zM360 122q34 0 50.5 20.5t16.5 64.5v180q0 43 -15 63.5t-43 20.5q-25 0 -46 -11.5t-43 -36.5v-273q22 -14 41 -21t39 -7zM399 -7q-33 0 -63.5 6.5t-55.5 18.5v-218h-187v800h187v-95h25q15 50 57 77.5t99 27.5q75 0 114 -54.5t39 -153.5v-196q0 -101 -56.5 -157
t-158.5 -56z" />
    <glyph glyph-name="escyrillic" unicode="&#x441;" 
d="M93 0zM355 -10q-130 0 -196 57t-66 161v181q0 110 67.5 165.5t193.5 55.5q128 0 194.5 -55.5t74.5 -159.5l-180 -14q-4 57 -21.5 77.5t-62.5 20.5q-46 0 -62.5 -21t-16.5 -71v-171q0 -54 17 -75t63 -21q47 0 63.5 19.5t19.5 73.5l180 -14q-6 -101 -70 -155t-198 -54z" />
    <glyph glyph-name="tecyrillic" unicode="&#x442;" horiz-adv-x="624" 
d="M219 0v462h-167v138h521v-138h-167v-462h-187z" />
    <glyph glyph-name="ucyrillic" unicode="&#x443;" horiz-adv-x="624" 
d="M30 0zM200 -211q-33 0 -72.5 3t-85.5 9l8 130q37 -6 67 -9.5t53 -3.5q68 0 91.5 28.5t33.5 75.5l2 10h-130l-137 568h181l106 -479l101 479h175l-133 -592q-25 -113 -85 -166t-175 -53z" />
    <glyph glyph-name="ushortcyrillic" unicode="&#x45e;" horiz-adv-x="624" 
d="M30 0zM200 -211q-33 0 -72.5 3t-85.5 9l8 130q37 -6 67 -9.5t53 -3.5q68 0 91.5 28.5t33.5 75.5l2 10h-130l-137 568h181l106 -479l101 479h175l-133 -592q-25 -113 -85 -166t-175 -53zM312 693q-105 0 -168 55.5t-61 168.5l156 10q-1 -66 14.5 -94.5t58.5 -28.5
t58.5 28.5t14.5 94.5l156 -10q2 -113 -61 -168.5t-168 -55.5z" />
    <glyph glyph-name="efcyrillic" unicode="&#x444;" horiz-adv-x="978" 
d="M639 0h-56v-200h-187v200h-57q-116 0 -181 65t-65 182v106q0 117 65 182t181 65h57v200h187v-200h56q116 0 181 -65t65 -182v-106q0 -117 -65 -182t-181 -65zM356 132h44v334h-44q-38 0 -57 -29t-19 -88v-100q0 -58 19 -87.5t57 -29.5zM622 466h-44v-334h44q38 0 57 29.5
t19 87.5v100q0 59 -19 88t-57 29z" />
    <glyph glyph-name="khacyrillic" unicode="&#x445;" horiz-adv-x="624" 
d="M38 0zM400 0l-96 161l-81 -161h-185l177 312l-171 288h184l89 -147l74 147h184l-170 -298l180 -302h-185z" />
    <glyph glyph-name="tsecyrillic" unicode="&#x446;" horiz-adv-x="760" 
d="M530 -150v150h-437v600h187v-462h157v462h187v-462h84v-288h-178z" />
    <glyph glyph-name="checyrillic" unicode="&#x447;" 
d="M614 600v-600h-187v180q-22 -5 -46.5 -8.5t-52.5 -3.5q-113 0 -174 60.5t-61 173.5v198h187v-196q0 -52 20 -75.5t57 -24.5q19 -1 36.5 2.5t33.5 9.5v284h187z" />
    <glyph glyph-name="shacyrillic" unicode="&#x448;" horiz-adv-x="958" 
d="M93 0v600h177v-462h121v462h176v-462h122v462h176v-600h-772z" />
    <glyph glyph-name="shchacyrillic" unicode="&#x449;" horiz-adv-x="1000" 
d="M948 -150h-176v150h-679v600h177v-462h121v462h176v-462h122v462h176v-462h83v-288z" />
    <glyph glyph-name="hardsigncyrillic" unicode="&#x44a;" horiz-adv-x="791" 
d="M487 0h-310v462h-167v138h354v-169h124q113 0 174 -50t61 -143v-49q0 -90 -61.5 -139.5t-174.5 -49.5zM364 130h95q41 0 59 15t18 52v35q0 39 -18 55t-59 16h-95v-173z" />
    <glyph glyph-name="yericyrillic" unicode="&#x44b;" horiz-adv-x="978" 
d="M93 0v600h187v-169h100q110 0 172 -51t62 -142v-49q0 -89 -62 -139t-173 -50h-286zM698 0v600h187v-599zM280 130h70q40 0 58.5 15t18.5 52v35q0 38 -18.5 54.5t-58.5 16.5h-70v-173z" />
    <glyph glyph-name="softsigncyrillic" unicode="&#x44c;" 
d="M93 0v600h187v-169h125q111 0 173 -51t62 -142v-49q0 -90 -62.5 -139.5t-173.5 -49.5h-311zM280 130h95q41 0 59.5 15t18.5 52v35q0 38 -18.5 54.5t-59.5 16.5h-95v-173z" />
    <glyph glyph-name="ereversedcyrillic" unicode="&#x44d;" 
d="M342 -10q-133 0 -193 50t-65 150l182 14q3 -56 19 -76t62 -20q49 0 64.5 26t15.5 87v37h-138v104h138v21q0 59 -15 83.5t-63 24.5q-45 0 -62.5 -17.5t-20.5 -67.5l-182 14q12 95 74.5 142.5t184.5 47.5q127 0 199 -60t72 -173v-150q0 -113 -71 -175t-201 -62z" />
    <glyph glyph-name="iucyrillic" unicode="&#x44e;" horiz-adv-x="978" 
d="M624 -10q-124 0 -192 60t-68 167v31h-84v-248h-187v600h187v-214h85v4q0 102 69 161t191 59q125 0 192.5 -61.5t67.5 -169.5v-162q0 -107 -68 -167t-193 -60zM624 128q41 0 56.5 22.5t15.5 82.5v130q0 63 -15.5 86t-56.5 23q-40 0 -55.5 -23t-15.5 -86v-130
q0 -60 15.5 -82.5t55.5 -22.5z" />
    <glyph glyph-name="iacyrillic" unicode="&#x44f;" 
d="M356 307h71v171h-71q-29 0 -42 -15.5t-13 -58.5v-22q0 -44 13 -59.5t42 -15.5zM427 186h-41l-106 -186h-194l117 205q-44 22 -66.5 66.5t-22.5 108.5v30q0 93 48.5 141.5t141.5 48.5h310v-600h-187v186z" />
    <glyph glyph-name="djecyrillic" unicode="&#x452;" 
d="M394 -209q-30 0 -59.5 6t-57.5 16l17 120q22 -9 40 -14.5t34 -5.5q28 0 43.5 23.5t15.5 77.5v313q0 39 -12.5 58.5t-38.5 19.5t-51.5 -20t-44.5 -57v-328h-187v606h-83v96h83v98h187v-98h137v-96h-137v-167h25q18 49 60.5 77t98.5 28q70 0 110 -50.5t40 -139.5v-357
q0 -103 -65 -154.5t-155 -51.5z" />
    <glyph glyph-name="ecyrillic" unicode="&#x454;" 
d="M623 190q-5 -103 -63 -151.5t-195 -48.5q-131 0 -201.5 61.5t-70.5 175.5v150q0 113 72 173t200 60q123 0 185 -47t73 -143l-180 -14q-4 50 -21.5 67.5t-62.5 17.5q-49 0 -64 -24.5t-15 -83.5v-25h162v-96h-162v-41q0 -61 15.5 -87t64.5 -26q53 0 66 20.5t17 75.5z" />
    <glyph glyph-name="dzecyrillic" unicode="&#x455;" 
d="M87 0zM353 -7q-76 0 -146.5 22.5t-119.5 58.5l37 111q57 -36 119 -56t115 -20q43 0 62 12.5t19 39.5q0 33 -27 45t-98 30q-91 18 -150.5 56t-59.5 122q0 91 64 143.5t175 52.5q66 0 129.5 -20t108.5 -49l-27 -105q-55 31 -105 45t-90 14q-38 0 -57 -13t-19 -41
q0 -31 32 -45t110 -33q95 -20 144.5 -58.5t49.5 -116.5q0 -90 -68.5 -142.5t-197.5 -52.5z" />
    <glyph glyph-name="icyrillic" horiz-adv-x="437" 
d="M104 0zM219 694q-51 0 -83 16t-32 56v14q0 40 32 57.5t83 17.5q52 0 83.5 -17.5t31.5 -57.5v-14q0 -40 -32 -56t-83 -16zM126 0v600h186v-600h-186z" />
    <glyph glyph-name="yicyrillic" horiz-adv-x="437" 
d="M19 0zM126 0v600h186v-600h-186zM107 694q-39 0 -63.5 16t-24.5 56v14q0 40 24.5 57.5t63.5 17.5q40 0 64.5 -17.5t24.5 -57.5v-14q0 -40 -25 -56t-64 -16zM331 694q-40 0 -64.5 16t-24.5 56v14q0 40 24.5 57.5t64.5 17.5t64 -17.5t24 -57.5v-14q0 -40 -25 -56t-63 -16z
" />
    <glyph glyph-name="jecyrillic" unicode="&#x458;" horiz-adv-x="541" 
d="M48 0zM175 -209q-32 0 -64.5 6t-62.5 16l17 119q24 -9 44.5 -14t39.5 -5q33 0 51.5 23t18.5 76v458h-135v130h322v-603q0 -99 -66 -152.5t-165 -53.5zM312 694q-51 0 -83 16t-32 56v14q0 40 32 57.5t83 17.5q52 0 83.5 -17.5t31.5 -57.5v-14q0 -40 -32 -56t-83 -16z" />
    <glyph glyph-name="ljecyrillic" unicode="&#x459;" horiz-adv-x="1042" 
d="M332 470l-2 -242q-1 -125 -45.5 -183t-131.5 -58q-26 0 -55.5 4.5t-61.5 11.5l18 131q16 -4 31.5 -6.5t28.5 -2.5q19 0 29.5 22t11.5 94l4 359h455v-169h125q112 0 173.5 -50.5t61.5 -142.5v-49q0 -90 -61.5 -139.5t-174.5 -49.5h-311v470h-95zM614 130h95q40 0 59 15.5
t19 52.5v35q0 37 -19 53.5t-59 16.5h-95v-173z" />
    <glyph glyph-name="njecyrillic" unicode="&#x45a;" horiz-adv-x="1042" 
d="M614 130h95q40 0 59 14.5t19 53.5v35q0 38 -19 54t-59 16h-95v-173zM280 260v-260h-187v600h187v-202h147v202h187v-169h125q111 0 173 -51t62 -142v-49q0 -90 -62.5 -139.5t-173.5 -49.5h-311v260h-147z" />
    <glyph glyph-name="tshecyrillic" unicode="&#x45b;" 
d="M10 0zM280 328v-328h-187v606h-83v96h83v98h187v-98h137v-96h-137v-167h25q19 49 61 77t99 28q70 0 109.5 -50t39.5 -139v-355h-187v323q0 41 -12 61.5t-37 20.5q-28 0 -53.5 -20t-44.5 -57z" />
    <glyph glyph-name="dzhecyrillic" unicode="&#x45f;" 
d="M265 -150v150h-172v600h187v-462h147v462h187v-600h-172v-150h-177z" />
    <glyph glyph-name="gheupturncyrillic" unicode="&#x491;" horiz-adv-x="541" 
d="M93 0v600h236v150h177v-288h-226v-462h-187z" />
    <glyph glyph-name="nsuperior" unicode="&#x207f;" horiz-adv-x="624" 
d="M93 301v500h160v-76h26q7 20 19.5 36t28.5 27t35.5 16.5t42.5 5.5q29 0 52.5 -12.5t40.5 -37.5q16 -24 24.5 -59.5t8.5 -80.5v-319h-160v312q0 19 -2.5 33.5t-6.5 24.5q-5 9 -11.5 14t-15.5 5t-19.5 -5t-21.5 -15t-21.5 -23.5t-19.5 -29.5v-316h-160z" />
    <glyph glyph-name="gravecmb" unicode="&#x300;" horiz-adv-x="0" 
d="M-20 700l-194 200h229l82 -200h-117z" />
    <glyph glyph-name="acutecmb" unicode="&#x301;" horiz-adv-x="0" 
d="M-116 700l83 200h228l-194 -200h-117z" />
    <glyph glyph-name="circumflexcmb" unicode="&#x302;" horiz-adv-x="0" 
d="M-171 688l-57 80l156 157h143l157 -157l-56 -79l-173 107z" />
    <glyph glyph-name="tildecmb" unicode="&#x303;" horiz-adv-x="0" 
d="M83 710q-38 0 -61 12.5t-40 36.5l-24 34t-27 15q-14 0 -24 -13.5t-10 -53.5v-21h-116v15q0 86 38 138.5t103 52.5q35 0 56.5 -12.5t39.5 -36.5l26 -34.5t26 -15.5q16 0 25 14t9 54v20h116v-15q0 -85 -37 -137.5t-100 -52.5z" />
    <glyph glyph-name="macroncmb" unicode="&#x304;" horiz-adv-x="0" 
d="M-193 731v138h386v-138h-386z" />
    <glyph glyph-name="brevecmb" unicode="&#x306;" horiz-adv-x="0" 
d="M0 693q-116 0 -172.5 57.5t-57.5 176.5h145q1 -71 19.5 -97t65.5 -26t65.5 26t19.5 97h145q-1 -119 -57.5 -176.5t-172.5 -57.5z" />
    <glyph glyph-name="dotaccentcmb" unicode="&#x307;" horiz-adv-x="0" 
d="M0 694q-51 0 -83 16t-32 56v14q0 40 32 57.5t83 17.5q52 0 83.5 -17.5t31.5 -57.5v-14q0 -40 -32 -56t-83 -16z" />
    <glyph glyph-name="dieresiscmb" unicode="&#x308;" horiz-adv-x="0" 
d="M-112 694q-39 0 -63.5 16t-24.5 56v14q0 40 24.5 57.5t63.5 17.5q40 0 64.5 -17.5t24.5 -57.5v-14q0 -40 -25 -56t-64 -16zM112 694q-40 0 -64.5 16t-24.5 56v14q0 40 24.5 57.5t64.5 17.5t64 -17.5t24 -57.5v-14q0 -40 -25 -56t-63 -16z" />
    <glyph glyph-name="ringcmb" unicode="&#x30a;" horiz-adv-x="0" 
d="M0 677q-83 0 -134.5 37.5t-51.5 115.5v32q0 79 51.5 117.5t134.5 38.5q84 0 135 -38.5t51 -117.5v-32q0 -78 -51.5 -115.5t-134.5 -37.5zM0 764q28 0 43 15t15 51v32q0 35 -15 52t-43 17q-29 0 -43.5 -17t-14.5 -52v-32q0 -36 14.5 -51t43.5 -15z" />
    <glyph glyph-name="hungarumlautcmb" unicode="&#x30b;" horiz-adv-x="0" 
d="M22 700l37 200h168l-115 -200h-90zM-170 700l37 200h168l-115 -200h-90z" />
    <glyph glyph-name="caroncmb" unicode="&#x30c;" horiz-adv-x="0" 
d="M-71 704l-157 157l56 79l173 -107l170 108l57 -80l-156 -157h-143z" />
    <glyph glyph-name="commaturnedabovecmb" unicode="&#x312;" horiz-adv-x="0" 
d="M-133 700l161 200h117l-49 -200h-229z" />
    <glyph glyph-name="commaaccentcmb" unicode="&#x326;" horiz-adv-x="0" 
d="M-143 -300l49 200h229l-161 -200h-117z" />
    <glyph glyph-name="cedillacmb" unicode="&#x327;" horiz-adv-x="0" 
d="M-25 0l16 42q87 -9 132 -39t45 -92q0 -67 -54 -101t-141 -34q-90 0 -143 32.5t-57 97.5l156 10q2 -19 10 -26.5t27 -7.5q22 0 33 11t11 45q0 27 -6.5 41t-28.5 21z" />
    <glyph glyph-name="ogonekcmb" unicode="&#x328;" horiz-adv-x="0" 
d="M5 -222q-75 0 -116 32t-41 94q0 57 42 102.5t102 64.5l22 -48q-23 -16 -31 -35t-8 -44q0 -26 15 -39t49 -13q15 0 34 2.5t46 7.5v-111q-33 -7 -61 -10t-53 -3z" />
    <glyph glyph-name="zero" unicode="0" horiz-adv-x="791" 
d="M396 -10q-145 0 -223 89.5t-78 251.5v134q0 163 78.5 254t222.5 91q145 0 222.5 -91t77.5 -254v-134q0 -162 -77.5 -251.5t-222.5 -89.5zM396 120q69 0 91 52.5t22 176.5v98q0 125 -22 179t-91 54t-91.5 -54t-22.5 -179v-98q0 -124 22.5 -176.5t91.5 -52.5zM396 314
q-28 0 -44 12t-16 43v61q0 31 16 43t44 12q27 0 43 -12t16 -43v-61q0 -31 -16.5 -43t-42.5 -12z" />
    <glyph glyph-name="one" unicode="1" horiz-adv-x="791" 
d="M160 0v138h184v486h-26q-13 -66 -61 -105t-105 -43l-8 138q65 7 122.5 56t79.5 130h185v-662h167v-138h-538z" />
    <glyph glyph-name="two" unicode="2" horiz-adv-x="791" 
d="M93 0v166q0 110 37 166.5t121 76.5l164 40q50 12 69 34t19 62v33q0 54 -25.5 78t-81.5 24q-57 0 -80 -27.5t-27 -103.5l-187 10q6 127 75 189t218 62q148 0 221.5 -59.5t73.5 -171.5v-45q0 -93 -36 -141.5t-119 -68.5l-165 -40q-51 -12 -70.5 -37t-19.5 -79v-30h418v-138
h-605z" />
    <glyph glyph-name="three" unicode="3" horiz-adv-x="791" 
d="M401 -10q-159 0 -234.5 58t-81.5 181l187 10q6 -71 33.5 -92t94.5 -21q57 0 84 24t27 73v27q0 54 -26 77.5t-89 23.5h-113v136h113q54 0 76 15.5t22 57.5v32q0 46 -25 64t-80 18q-51 0 -73.5 -21t-26.5 -73l-187 10q6 116 73.5 168t211.5 52q152 0 223 -48.5t71 -152.5
v-21q0 -60 -35 -101.5t-86 -49.5v-29q57 -7 97.5 -54t40.5 -117v-19q0 -118 -71.5 -173t-225.5 -55z" />
    <glyph glyph-name="four" unicode="4" horiz-adv-x="791" 
d="M250 328h177v270zM740 198h-126v-198h-187v198h-342v130l305 472h224v-472h126v-130z" />
    <glyph glyph-name="five" unicode="5" horiz-adv-x="791" 
d="M395 -10q-159 0 -231.5 59t-78.5 196l187 10q7 -79 34 -107t90 -28q68 0 91.5 25t23.5 82v52q0 60 -29 82.5t-98 22.5h-274v416h565v-130h-378v-148h138q131 0 197 -54t66 -166v-88q0 -105 -74.5 -164.5t-228.5 -59.5z" />
    <glyph glyph-name="six" unicode="6" horiz-adv-x="791" 
d="M396 -10q-154 0 -228.5 73.5t-74.5 212.5v242q0 143 72.5 217.5t231.5 74.5q146 0 210.5 -51t82.5 -157l-194 -23q-11 62 -35.5 81.5t-74.5 19.5q-61 0 -83.5 -34.5t-22.5 -128.5v-86h6q23 32 66.5 50.5t101.5 18.5q129 0 186.5 -58t57.5 -180v-22q0 -116 -74 -183
t-228 -67zM395 120q64 0 89.5 30.5t25.5 90.5v13q0 67 -25.5 99t-89.5 32t-89.5 -32t-25.5 -99v-13q0 -63 25.5 -92t89.5 -29z" />
    <glyph glyph-name="seven" unicode="7" horiz-adv-x="791" 
d="M260 0q46 248 98 365.5t153 294.5h-418v140h605v-140q-99 -193 -155.5 -320t-86.5 -340h-196z" />
    <glyph glyph-name="eight" unicode="8" horiz-adv-x="791" 
d="M396 -10q-173 0 -238 60t-65 165v22q0 72 38 117.5t104 52.5v29q-54 6 -89.5 43.5t-35.5 98.5v32q0 105 74.5 152.5t211.5 47.5t211 -46.5t74 -153.5v-32q0 -61 -35.5 -98.5t-89.5 -43.5v-29q66 -7 104 -53.5t38 -116.5v-22q0 -107 -65 -166t-237 -59zM396 485
q50 0 74 19t24 65v23q0 45 -24 63.5t-74 18.5q-51 0 -75 -18.5t-24 -63.5v-23q0 -46 24 -65t75 -19zM396 126q66 0 90.5 26.5t24.5 80.5v13q0 56 -24.5 82.5t-90.5 26.5t-91 -26.5t-25 -82.5v-13q0 -54 25 -80.5t91 -26.5z" />
    <glyph glyph-name="nine" unicode="9" horiz-adv-x="791" 
d="M396 415q64 0 89.5 32t25.5 99v13q0 63 -25.5 92t-89.5 29q-63 0 -88.5 -30t-25.5 -91v-13q0 -67 25.5 -99t88.5 -32zM394 -10q-145 0 -210 51t-83 157l195 23q10 -62 35 -81.5t75 -19.5q61 0 83 34.5t22 128.5v86h-13q-23 -32 -65.5 -50.5t-105.5 -18.5q-118 0 -176 59
t-58 179v22q0 117 73.5 183.5t229.5 66.5q154 0 228 -73t74 -213v-242q0 -134 -67.5 -213t-236.5 -79z" />
    <glyph glyph-name="onequarter" unicode="&#xbc;" horiz-adv-x="1334" 
d="M92 0zM983 213h98v144zM1297 119h-77v-119h-139v119h-212v94l189 283h162v-283h77v-94zM103 304v102h114v280h-19q-6 -43 -35.5 -67.5t-65.5 -27.5l-5 99q39 7 74.5 36t51.5 74h137v-394h103v-102h-355zM427 0l334 800h146l-334 -800h-146z" />
    <glyph glyph-name="onehalf" unicode="&#xbd;" horiz-adv-x="1334" 
d="M92 0zM103 304v102h114v280h-19q-6 -43 -35.5 -67.5t-65.5 -27.5l-5 99q39 7 74.5 36t51.5 74h137v-394h103v-102h-355zM874 0v116q0 52 23 90t75 51l102 25q29 7 41.5 20t12.5 44v8q0 34 -15 44t-41 10t-39 -12t-16 -56l-138 7q4 77 50 116t143 39q98 0 146 -38.5
t48 -112.5v-21q0 -57 -26.5 -91.5t-69.5 -44.5l-102 -25q-34 -8 -44.5 -18t-10.5 -34v-15h258v-102h-397zM427 0l334 800h146l-334 -800h-146z" />
    <glyph glyph-name="threequarters" unicode="&#xbe;" horiz-adv-x="1334" 
d="M56 0zM983 213h98v144zM1297 119h-77v-119h-139v119h-212v94l189 283h162v-283h77v-94zM427 0l334 800h146l-334 -800h-146zM266 298q-101 0 -153.5 37.5t-56.5 114.5l139 6q3 -34 17.5 -45.5t47.5 -11.5q34 0 47 9.5t13 37.5v15q0 30 -12.5 40.5t-41.5 10.5h-106v99h106
q24 0 34 9t10 34v8q0 26 -12 34.5t-41 8.5t-39.5 -9t-13.5 -35l-138 6q4 74 52 106.5t136 32.5q93 0 143 -29t50 -95v-10q0 -43 -19.5 -67t-52.5 -31v-18q36 -4 59.5 -30.5t23.5 -76.5v-9q0 -76 -50 -109t-142 -33z" />
    <glyph glyph-name="oneeighth" unicode="&#x215b;" horiz-adv-x="1334" 
d="M92 0zM1072 -6q-104 0 -151 36.5t-47 105.5v14q0 46 23 72t67 30v18q-37 5 -58.5 26.5t-21.5 58.5v20q0 64 47.5 95.5t140.5 31.5t140.5 -31t47.5 -96v-20q0 -37 -20.5 -58.5t-57.5 -26.5v-18q43 -5 66 -31t23 -71v-14q0 -69 -47 -105.5t-152 -36.5zM1072 300q25 0 38 10
t13 35v19q0 25 -13 35t-38 10q-24 0 -36.5 -10t-12.5 -35v-19q0 -25 12.5 -35t36.5 -10zM1072 87q34 0 47.5 14.5t13.5 44.5v14q0 31 -13.5 46t-47.5 15q-33 0 -46 -15t-13 -46v-14q0 -30 13 -44.5t46 -14.5zM103 304v102h114v280h-19q-6 -43 -35.5 -67.5t-65.5 -27.5l-5 99
q39 7 74.5 36t51.5 74h137v-394h103v-102h-355zM427 0l334 800h146l-334 -800h-146z" />
    <glyph glyph-name="threeeighths" unicode="&#x215c;" horiz-adv-x="1334" 
d="M56 0zM1072 -6q-104 0 -151 36.5t-47 105.5v14q0 46 23 72t67 30v18q-37 5 -58.5 26.5t-21.5 58.5v20q0 64 47.5 95.5t140.5 31.5t140.5 -31t47.5 -96v-20q0 -37 -20.5 -58.5t-57.5 -26.5v-18q43 -5 66 -31t23 -71v-14q0 -69 -47 -105.5t-152 -36.5zM1072 300q25 0 38 10
t13 35v19q0 25 -13 35t-38 10q-24 0 -36.5 -10t-12.5 -35v-19q0 -25 12.5 -35t36.5 -10zM1072 87q34 0 47.5 14.5t13.5 44.5v14q0 31 -13.5 46t-47.5 15q-33 0 -46 -15t-13 -46v-14q0 -30 13 -44.5t46 -14.5zM427 0l334 800h146l-334 -800h-146zM266 298q-101 0 -153.5 37.5
t-56.5 114.5l139 6q3 -34 17.5 -45.5t47.5 -11.5q34 0 47 9.5t13 37.5v15q0 30 -12.5 40.5t-41.5 10.5h-106v99h106q24 0 34 9t10 34v8q0 26 -12 34.5t-41 8.5t-39.5 -9t-13.5 -35l-138 6q4 74 52 106.5t136 32.5q93 0 143 -29t50 -95v-10q0 -43 -19.5 -67t-52.5 -31v-18
q36 -4 59.5 -30.5t23.5 -76.5v-9q0 -76 -50 -109t-142 -33z" />
    <glyph glyph-name="fiveeighths" unicode="&#x215d;" horiz-adv-x="1334" 
d="M56 0zM1072 -6q-104 0 -151 36.5t-47 105.5v14q0 46 23 72t67 30v18q-37 5 -58.5 26.5t-21.5 58.5v20q0 64 47.5 95.5t140.5 31.5t140.5 -31t47.5 -96v-20q0 -37 -20.5 -58.5t-57.5 -26.5v-18q43 -5 66 -31t23 -71v-14q0 -69 -47 -105.5t-152 -36.5zM1072 300q25 0 38 10
t13 35v19q0 25 -13 35t-38 10q-24 0 -36.5 -10t-12.5 -35v-19q0 -25 12.5 -35t36.5 -10zM1072 87q34 0 47.5 14.5t13.5 44.5v14q0 31 -13.5 46t-47.5 15q-33 0 -46 -15t-13 -46v-14q0 -30 13 -44.5t46 -14.5zM265 298q-108 0 -156.5 37.5t-52.5 129.5l139 6q4 -45 19 -62
t54 -17q35 0 43.5 15.5t8.5 53.5v15q0 33 -16.5 47t-79.5 14h-153v263h375v-94h-236v-69h76q88 0 130 -33.5t42 -102.5v-61q0 -59 -43 -100.5t-150 -41.5zM427 0l334 800h146l-334 -800h-146z" />
    <glyph glyph-name="seveneighths" unicode="&#x215e;" horiz-adv-x="1334" 
d="M61 0zM1072 -6q-104 0 -151 36.5t-47 105.5v14q0 46 23 72t67 30v18q-37 5 -58.5 26.5t-21.5 58.5v20q0 64 47.5 95.5t140.5 31.5t140.5 -31t47.5 -96v-20q0 -37 -20.5 -58.5t-57.5 -26.5v-18q43 -5 66 -31t23 -71v-14q0 -69 -47 -105.5t-152 -36.5zM1072 300q25 0 38 10
t13 35v19q0 25 -13 35t-38 10q-24 0 -36.5 -10t-12.5 -35v-19q0 -25 12.5 -35t36.5 -10zM1072 87q34 0 47.5 14.5t13.5 44.5v14q0 31 -13.5 46t-47.5 15q-33 0 -46 -15t-13 -46v-14q0 -30 13 -44.5t46 -14.5zM165 304q36 130 72 217t83 179h-259v100h397v-100l-84.5 -194.5
t-65.5 -201.5h-143zM427 0l334 800h146l-334 -800h-146z" />
    <glyph glyph-name="underscore" unicode="_" horiz-adv-x="771" 
d="M93 -200v156h585v-156h-585z" />
    <glyph glyph-name="hyphen" unicode="&#x2011;" horiz-adv-x="771" 
d="M84 276v156h604v-156h-604z" />
    <glyph glyph-name="hyphen" unicode="&#x2010;" horiz-adv-x="771" 
d="M84 276v156h604v-156h-604z" />
    <glyph glyph-name="hyphen" unicode="&#xad;" horiz-adv-x="771" 
d="M84 276v156h604v-156h-604z" />
    <glyph glyph-name="hyphen" unicode="-" horiz-adv-x="771" 
d="M84 276v156h604v-156h-604z" />
    <glyph glyph-name="endash" unicode="&#x2013;" horiz-adv-x="855" 
d="M104 276v156h647v-156h-647z" />
    <glyph glyph-name="emdash" unicode="&#x2014;" horiz-adv-x="1105" 
d="M104 276v156h897v-156h-897z" />
    <glyph glyph-name="horizontalbar" unicode="&#x2015;" horiz-adv-x="855" 
d="M10 276v156h835v-156h-835z" />
    <glyph glyph-name="parenleft" unicode="(" 
d="M552 -210q-201 34 -288 165.5t-87 344.5q0 211 87 343.5t288 166.5l19 -119q-117 -34 -162 -127t-45 -264q0 -169 45 -259.5t162 -124.5z" />
    <glyph glyph-name="parenright" unicode=")" 
d="M156 -210l-19 126q116 34 161.5 126t45.5 258t-45.5 261.5t-161.5 129.5l19 119q201 -34 288 -166.5t87 -343.5q0 -213 -87 -344.5t-288 -165.5z" />
    <glyph glyph-name="bracketleft" unicode="[" 
d="M177 -200v1000h396v-130h-209v-743h209v-127h-396z" />
    <glyph glyph-name="bracketright" unicode="]" 
d="M135 -200v127h209v743h-209v130h396v-1000h-396z" />
    <glyph glyph-name="braceleft" 
d="M573 -210q-235 -3 -336.5 35t-101.5 131q0 47 14.5 78t39.5 56q32 36 43.5 55t11.5 40q0 43 -40 60t-152 21v92q112 4 152 21t40 61q0 18 -11.5 34t-42.5 44q-25 20 -40 47t-15 73q0 97 101.5 136t336.5 36v-130q-143 3 -197 -12t-54 -58q0 -25 14.5 -43.5t38.5 -37.5
q25 -19 40.5 -40t15.5 -54q0 -64 -58.5 -91t-205.5 -31v-5q147 -9 205.5 -38t58.5 -90q0 -35 -16 -56t-41 -41q-24 -19 -38 -39t-14 -51q0 -46 54 -62t197 -13v-128z" />
    <glyph glyph-name="braceright" 
d="M572 -44q0 -93 -101.5 -131t-335.5 -35v128q143 -3 196.5 13t53.5 62q0 31 -14 51t-38 39q-25 20 -40.5 41t-15.5 56q0 62 57.5 90.5t206.5 37.5v5q-149 4 -206.5 31t-57.5 91q0 33 15 54t40 40t39 37.5t14 43.5q0 43 -53.5 58t-196.5 12v130q234 3 335.5 -36t101.5 -136
q0 -46 -15 -73t-40 -47q-31 -28 -42 -44t-11 -34q0 -44 40 -61t152 -21v-92q-112 -4 -152 -21t-40 -60q0 -21 11.5 -40t43.5 -55q24 -25 38.5 -56t14.5 -78z" />
    <glyph glyph-name="numbersign" unicode="#" horiz-adv-x="875" 
d="M502 298l8 204h-137l-9 -204h138zM489 0l8 176h-137l-8 -176h-158l8 176h-109v122h114l8 204h-122v122h127l8 176h157l-7 -176h137l8 176h158l-7 -176h107v-122h-112l-9 -204h121v-122h-126l-7 -176h-159z" />
    <glyph glyph-name="percent" unicode="%" horiz-adv-x="1145" 
d="M266 372q-96 0 -155 38.5t-59 118.5v122q0 81 59.5 120t154.5 39t153.5 -39t58.5 -120v-122q0 -80 -59 -118.5t-153 -38.5zM281 0l417 800h167l-418 -800h-166zM266 481q25 0 40 13.5t15 44.5v102q0 31 -15 45.5t-40 14.5q-26 0 -41.5 -14.5t-15.5 -45.5v-102
q0 -31 15.5 -44.5t41.5 -13.5zM879 -12q-95 0 -154 38.5t-59 118.5v130q0 81 59 120t154 39q96 0 154.5 -39t58.5 -120v-130q0 -80 -59 -118.5t-154 -38.5zM879 97q26 0 41 13.5t15 44.5v110q0 31 -15 45.5t-41 14.5q-25 0 -40.5 -14.5t-15.5 -45.5v-110q0 -31 15.5 -44.5
t40.5 -13.5z" />
    <glyph glyph-name="perthousand" unicode="&#x2030;" horiz-adv-x="1499" 
d="M259 372q-83 0 -134.5 39t-51.5 120v118q0 82 51.5 121.5t134.5 39.5t134 -39.5t51 -121.5v-118q0 -81 -51 -120t-134 -39zM833 800l-417 -800h-166l417 800h166zM210 537q0 -31 13.5 -44t35.5 -13t35 13t13 44v106q0 31 -13 45t-35 14t-35.5 -14t-13.5 -45v-106z
M1425 148q0 -81 -51 -120t-134 -39q-84 0 -135.5 39t-51.5 120v126q0 81 52 121t135 40t134 -40t51 -121v-126zM1008 148q0 -81 -51 -120t-134 -39t-134.5 39t-51.5 120v126q0 81 51.5 121t134.5 40q84 0 134.5 -40t50.5 -121v-126zM774 156q0 -31 14 -45t35 -14q22 0 35 14
t13 45v112q0 30 -13 44.5t-35 14.5q-21 0 -35 -14.5t-14 -44.5v-112zM1191 156q0 -31 13.5 -45t35.5 -14q21 0 34.5 14t13.5 45v112q0 30 -13.5 44.5t-34.5 14.5q-22 0 -35.5 -14.5t-13.5 -44.5v-112z" />
    <glyph glyph-name="quotesingle" unicode="'" horiz-adv-x="604" 
d="M225 360l-31 440h217l-32 -440h-154z" />
    <glyph glyph-name="quotedbl" unicode="&#x22;" horiz-adv-x="998" 
d="M599 360l-31 440h216l-31 -440h-154zM245 360l-31 440h216l-31 -440h-154z" />
    <glyph glyph-name="quoteleft" unicode="&#x2018;" horiz-adv-x="604" 
d="M135 360l214 440h115l-77 -440h-252z" />
    <glyph glyph-name="quoteleft" unicode="&#x2bb;" horiz-adv-x="604" 
d="M135 360l214 440h115l-77 -440h-252z" />
    <glyph glyph-name="quoteright" unicode="&#x2019;" horiz-adv-x="604" 
d="M141 360l76 440h253l-215 -440h-114z" />
    <glyph glyph-name="quotedblleft" unicode="&#x201c;" horiz-adv-x="978" 
d="M498 360l215 440h116l-76 -440h-255zM154 360l215 440h117l-76 -440h-256z" />
    <glyph glyph-name="quotedblright" unicode="&#x201d;" horiz-adv-x="978" 
d="M492 360l76 440h255l-214 -440h-117zM148 360l77 440h255l-215 -440h-117z" />
    <glyph glyph-name="quotereversed" unicode="&#x201b;" horiz-adv-x="604" 
d="M124 360zM339 360l-215 440h253l76 -440h-114z" />
    <glyph glyph-name="quotesinglbase" unicode="&#x201a;" horiz-adv-x="604" 
d="M149 0zM149 -160l59 440h254l-198 -440h-115z" />
    <glyph glyph-name="quotedblbase" unicode="&#x201e;" horiz-adv-x="978" 
d="M148 0zM492 -160l76 440h255l-214 -440h-117zM148 -160l77 440h255l-215 -440h-117z" />
    <glyph glyph-name="guilsinglleft" unicode="&#x2039;" horiz-adv-x="604" 
d="M479 36l-353 224v180l353 224v-159l-244 -155l244 -155v-159z" />
    <glyph glyph-name="guilsinglright" unicode="&#x203a;" horiz-adv-x="604" 
d="M126 36v159l244 155l-244 155v159l353 -224v-180z" />
    <glyph glyph-name="guillemotleft" unicode="&#xab;" horiz-adv-x="978" 
d="M869 36l-354 224v180l354 224v-159l-245 -155l245 -155v-159zM464 36l-354 224v180l354 224v-159l-245 -155l245 -155v-159z" />
    <glyph glyph-name="guillemotright" unicode="&#xbb;" horiz-adv-x="978" 
d="M110 36v159l244 155l-244 155v159l354 -224v-180zM515 36v159l244 155l-244 155v159l354 -224v-180z" />
    <glyph glyph-name="asterisk" horiz-adv-x="771" 
d="M567 284l-156 163l46 -247h-144l46 246l-154 -162l-71 134l199 83l-199 84l71 133l154 -163l-46 245h144l-46 -245l156 163l71 -133l-201 -84l201 -83z" />
    <glyph glyph-name="dagger" unicode="&#x2020;" horiz-adv-x="855" 
d="M351 -200v670h-94l-34 -218h-128l24 348h229l-6 200h204l-6 -200h229l25 -348h-129l-33 218h-94v-670h-187z" />
    <glyph glyph-name="daggerdbl" unicode="&#x2021;" horiz-adv-x="855" 
d="M342 -200l6 176h-229l-24 254h128l34 -124h94v388h-94l-34 -124h-128l24 254h229l-6 176h204l-6 -176h229l25 -254h-129l-33 124h-94v-388h94l33 124h129l-25 -254h-229l6 -176h-204z" />
    <glyph glyph-name="period" unicode="." horiz-adv-x="604" 
d="M303 -10q-60 0 -97 28t-37 80v75q0 52 37 81t97 29t96 -29t36 -81v-75q0 -52 -37.5 -80t-94.5 -28z" />
    <glyph glyph-name="comma" unicode="," horiz-adv-x="604" 
d="M149 -160l59 440h254l-198 -440h-115z" />
    <glyph glyph-name="colon" unicode=":" horiz-adv-x="604" 
d="M303 387q-54 0 -86 25t-32 71v56q0 48 32 73.5t86 25.5q52 0 84.5 -25.5t32.5 -73.5v-56q0 -46 -33 -71t-84 -25zM303 -5q-54 0 -86 25t-32 71v56q0 48 32 73.5t86 25.5q52 0 84.5 -25.5t32.5 -73.5v-56q0 -46 -33 -71t-84 -25z" />
    <glyph glyph-name="semicolon" unicode=";" horiz-adv-x="604" 
d="M303 387q-54 0 -86 25t-32 71v56q0 48 32 73.5t86 25.5q52 0 84.5 -25.5t32.5 -73.5v-56q0 -46 -33 -71t-84 -25zM168 -143l51 406h224l-174 -406h-101z" />
    <glyph glyph-name="ellipsis" unicode="&#x2026;" horiz-adv-x="1745" 
d="M151 0zM1367 -10q-60 0 -97 28t-37 80v75q0 52 37 81t97 29t96 -29t36 -81v-75q0 -52 -37.5 -80t-94.5 -28zM826 -10q-60 0 -97 28t-37 80v75q0 52 37 81t97 29t96 -29t36 -81v-75q0 -52 -37.5 -80t-94.5 -28zM285 -10q-60 0 -97 28t-37 80v75q0 52 37 81t97 29t96 -29
t36 -81v-75q0 -52 -37.5 -80t-94.5 -28z" />
    <glyph glyph-name="exclam" unicode="!" 
d="M263 300l-25 500h220l-25 -500h-170zM354 -10q-65 0 -98.5 20.5t-33.5 63.5v28q0 44 33.5 65t98.5 21t98.5 -21t33.5 -65v-28q0 -43 -34.5 -63.5t-97.5 -20.5z" />
    <glyph glyph-name="exclamdown" unicode="&#xa1;" 
d="M354 810q65 0 98.5 -20.5t33.5 -63.5v-28q0 -44 -33.5 -65t-98.5 -21t-98.5 21t-33.5 65v28q0 43 34.5 63.5t97.5 20.5zM445 500l25 -500h-220l25 500h170z" />
    <glyph glyph-name="exclamdbl" unicode="&#x203c;" horiz-adv-x="938" 
d="M119 0zM597 300l-25 500h220l-25 -500h-170zM688 -10q-65 0 -98.5 20.5t-33.5 63.5v28q0 44 33.5 65t98.5 21t98.5 -21t33.5 -65v-28q0 -43 -34.5 -63.5t-97.5 -20.5zM160 300l-25 500h220l-25 -500h-170zM251 -10q-65 0 -98.5 20.5t-33.5 63.5v28q0 44 33.5 65t98.5 21
t98.5 -21t33.5 -65v-28q0 -43 -34.5 -63.5t-97.5 -20.5z" />
    <glyph glyph-name="question" unicode="?" horiz-adv-x="855" 
d="M324 273l-16 121q139 27 190.5 61.5t51.5 96.5v22q0 51 -23.5 78.5t-83.5 27.5t-84.5 -29t-31.5 -102l-186 10q6 128 80 189.5t221 61.5q135 0 215 -64t80 -164v-34q0 -117 -93.5 -177.5t-319.5 -97.5zM401 -10q-65 0 -99 20.5t-34 63.5v28q0 44 34 65t99 21t98.5 -21
t33.5 -65v-28q0 -43 -34.5 -63.5t-97.5 -20.5z" />
    <glyph glyph-name="questiondown" unicode="&#xbf;" horiz-adv-x="855" 
d="M484 810q65 0 99 -20.5t34 -63.5v-28q0 -44 -34 -65t-99 -21q-64 0 -97.5 21t-33.5 65v28q0 43 34 63.5t97 20.5zM561 527l17 -121q-146 -28 -194.5 -63t-48.5 -95v-22q0 -51 23.5 -78.5t83.5 -27.5q61 0 85 29t31 102l187 -10q-7 -131 -82 -191t-220 -60
q-137 0 -215.5 66t-78.5 162v34q0 116 94 177.5t318 97.5z" />
    <glyph glyph-name="slash" unicode="/" horiz-adv-x="604" 
d="M63 -200l334 1000h145l-334 -1000h-145z" />
    <glyph glyph-name="backslash" unicode="\" horiz-adv-x="604" 
d="M397 -199l-334 1000l145 -1l334 -1000z" />
    <glyph glyph-name="fraction" unicode="&#x2215;" horiz-adv-x="332" 
d="M-74 0l334 800h146l-334 -800h-146z" />
    <glyph glyph-name="fraction" unicode="&#x2044;" horiz-adv-x="332" 
d="M-74 0l334 800h146l-334 -800h-146z" />
    <glyph glyph-name="bar" unicode="|" horiz-adv-x="604" 
d="M228 -200v1000h148v-1000h-148z" />
    <glyph glyph-name="brokenbar" unicode="&#xa6;" horiz-adv-x="604" 
d="M228 400v400h148v-400h-148zM228 -200v400h148v-400h-148z" />
    <glyph glyph-name="at" unicode="@" horiz-adv-x="922" 
d="M522 -110q-205 0 -306.5 98t-101.5 261v238q0 146 90 234.5t273 88.5q160 0 245.5 -82t85.5 -231v-197q-2 -94 -63.5 -137t-171.5 -43q-116 0 -171 48t-55 134v82q0 84 44.5 135t122.5 51q58 0 93 -22t52 -53h30q-2 105 -46.5 155t-166.5 50q-121 0 -173 -56t-52 -157
v-228q0 -121 63 -188t208 -67q53 0 99 6.5t84 16.5v-114q-37 -9 -86 -16t-97 -7zM577 230q25 0 38.5 14.5t13.5 59.5v72q0 45 -14.5 64.5t-37.5 19.5q-25 0 -39 -20t-14 -66v-62q0 -44 13.5 -63t39.5 -19z" />
    <glyph glyph-name="ampersand" unicode="&#x26;" horiz-adv-x="771" 
d="M738 -19q-46 15 -93 38t-92 54q-40 -40 -92 -61.5t-125 -21.5q-110 0 -176.5 56.5t-66.5 155.5q0 70 33 127t101 100q-24 45 -37 87.5t-13 79.5q0 102 59 158.5t165 56.5q94 0 149.5 -50.5t55.5 -122.5q0 -69 -44 -115t-166 -102q7 -12 14.5 -23.5l14.5 -22.5
q22 -32 47 -62.5t53 -59.5l29 77t34 97l136 -31q-26 -66 -57 -125.5t-62 -107.5l165 -58zM343 595q0 -22 4.5 -46t11.5 -47q51 31 70 60.5t19 69.5q0 30 -12.5 47t-37.5 17q-30 0 -42.5 -27.5t-12.5 -73.5zM388 104q23 0 42 7.5t35 28.5q-40 34 -76.5 71t-67.5 76l-11.5 14
l-10.5 14q-9 -24 -14 -49.5t-5 -49.5q0 -60 27 -86t81 -26z" />
    <glyph glyph-name="section" unicode="&#xa7;" horiz-adv-x="978" 
d="M481 226q8 -2 17 -4t17 -4q46 1 75 17.5t29 49.5q0 37 -28.5 53.5t-88.5 32.5l-17.5 4l-17.5 4q-46 -1 -74.5 -17.5t-28.5 -49.5q0 -37 28.5 -53.5t88.5 -32.5zM504 -207q-87 0 -172.5 26.5t-136.5 67.5l41 129q58 -42 126 -63.5t146 -21.5q47 0 81.5 14t34.5 48
t-38 51.5t-115 37.5q-154 32 -224 77t-70 130q0 54 36.5 88.5t94.5 52.5q-63 29 -97 72t-34 108q0 95 85 144.5t216 49.5q88 0 169.5 -26.5t140.5 -67.5l-52 -121q-62 37 -124.5 57t-137.5 20q-64 0 -90 -18t-26 -51q0 -32 48 -49t158 -42q122 -27 181.5 -71t59.5 -131
q0 -53 -29.5 -89.5t-78.5 -58.5q53 -29 80.5 -69.5t27.5 -99.5q0 -93 -83 -143.5t-218 -50.5z" />
    <glyph glyph-name="paragraph" unicode="&#xb6;" horiz-adv-x="978" 
d="M614 340h-83v-540h-187v540q-86 0 -139 48.5t-53 148.5v52q0 105 52.5 158t138.5 53h458v-1000h-187v540z" />
    <glyph glyph-name="lsquare" unicode="&#x2113;" horiz-adv-x="585" 
d="M285 364q8 0 14 2.5t11 9.5t9.5 20.5t7.5 34.5l25 171q3 18 3 31t-3 22t-8.5 13t-14.5 4t-15.5 -2.5t-11.5 -9.5t-9 -21.5t-8 -37.5l-25 -176q-3 -16 -2.5 -27.5t3.5 -19.5q3 -7 9 -10.5t15 -3.5zM458 45q-28 -13 -55.5 -23t-54.5 -16q-26 -7 -51.5 -10t-49.5 -3
q-49 0 -89.5 15t-68.5 45q-28 31 -39 77t-2 106l55 396q7 47 28.5 81t54.5 55q32 22 73 32t87 10q56 0 96.5 -10.5t64.5 -32.5q25 -22 33.5 -56.5t0.5 -82.5l-32 -221q-6 -40 -23 -70t-43 -49t-58.5 -28.5t-70.5 -9.5q-11 0 -21 0.5t-20 1.5q-9 2 -18 3.5t-17 4.5l-3 -27
q-4 -26 -1 -45.5t12 -31.5q9 -13 22.5 -19t30.5 -6q16 0 35.5 3.5t40.5 9.5q21 7 42.5 16t43.5 21z" />
    <glyph glyph-name="numero" unicode="&#x2116;" horiz-adv-x="1228" 
d="M917 292q-93 0 -156 54.5t-63 167.5v70q0 114 63.5 170t155.5 56q93 0 155.5 -56t62.5 -170v-70q0 -113 -63 -167.5t-155 -54.5zM917 421q29 0 39.5 20.5t10.5 69.5v85q0 42 -10.5 63.5t-39.5 21.5q-30 0 -40.5 -22t-10.5 -65v-83q0 -49 10.5 -69.5t40.5 -20.5zM252 520
v-520h-159v800h218l146 -588v588h157v-800h-233z" />
    <glyph glyph-name="periodcentered" unicode="&#x2219;" horiz-adv-x="604" 
d="M303 254q-60 0 -97 28t-37 79v76q0 52 37 81t97 29t96 -29t36 -81v-76q0 -51 -37.5 -79t-94.5 -28z" />
    <glyph glyph-name="periodcentered" unicode="&#xb7;" horiz-adv-x="604" 
d="M303 254q-60 0 -97 28t-37 79v76q0 52 37 81t97 29t96 -29t36 -81v-76q0 -51 -37.5 -79t-94.5 -28z" />
    <glyph glyph-name="bullet" unicode="&#x2022;" horiz-adv-x="771" 
d="M386 236q-62 0 -101 30.5t-39 95.5v72q0 66 39 97.5t101 31.5q63 0 101.5 -31.5t38.5 -97.5v-72q0 -65 -39.5 -95.5t-100.5 -30.5z" />
    <glyph glyph-name="anoteleia" unicode="&#x387;" horiz-adv-x="604" 
d="M169 254zM303 254q-60 0 -97 28t-37 79v76q0 52 37 81t97 29t96 -29t36 -81v-76q0 -51 -37.5 -79t-94.5 -28z" />
    <glyph glyph-name="underscoredbl" unicode="&#x2017;" horiz-adv-x="771" 
d="M93 0zM93 0v156h585v-156h-585zM93 -280v156h585v-156h-585z" />
    <glyph glyph-name="minute" unicode="&#x2032;" horiz-adv-x="604" 
d="M141 360zM141 360l76 440h253l-215 -440h-114z" />
    <glyph glyph-name="second" unicode="&#x2033;" horiz-adv-x="978" 
d="M148 360zM492 360l76 440h255l-214 -440h-117zM148 360l77 440h255l-215 -440h-117z" />
    <glyph glyph-name="overline" unicode="&#x203e;" horiz-adv-x="771" 
d="M93 844zM93 844v156h585v-156h-585z" />
    <glyph glyph-name="plus" unicode="+" horiz-adv-x="771" 
d="M312 0v277h-219v146h219v277h148v-277h218v-146h-218v-277h-148z" />
    <glyph glyph-name="minus" unicode="&#x2212;" horiz-adv-x="771" 
d="M93 277v146h585v-146h-585z" />
    <glyph glyph-name="plusminus" unicode="&#xb1;" horiz-adv-x="771" 
d="M93 1zM312 100v277h-219v146h219v277h148v-277h218v-146h-218v-277h-148zM93 1v146h585v-146h-585z" />
    <glyph glyph-name="divide" unicode="&#xf7;" horiz-adv-x="771" 
d="M386 514q-40 0 -65.5 18t-25.5 57v19q0 40 25.5 58.5t65.5 18.5t64.5 -18.5t24.5 -58.5v-19q0 -39 -24.5 -57t-64.5 -18zM93 285v130h585v-130h-585zM386 14q-40 0 -65.5 18t-25.5 57v19q0 40 25.5 58.5t65.5 18.5t64.5 -18.5t24.5 -58.5v-19q0 -39 -24.5 -57t-64.5 -18z
" />
    <glyph glyph-name="multiply" unicode="&#xd7;" horiz-adv-x="771" 
d="M216 35l-95 88l182 228l-182 226l95 89l170 -213l171 213l94 -89l-183 -226l182 -227l-94 -88l-170 212z" />
    <glyph glyph-name="equal" unicode="=" horiz-adv-x="771" 
d="M93 435v145h585v-145h-585zM93 120v145h585v-145h-585z" />
    <glyph glyph-name="less" unicode="&#x3c;" horiz-adv-x="771" 
d="M636 0l-501 260v180l501 260v-143l-398 -207l398 -207v-143z" />
    <glyph glyph-name="greater" unicode="&#x3e;" horiz-adv-x="771" 
d="M135 0v135l415 215l-415 215v135l501 -260v-180z" />
    <glyph glyph-name="lessequal" unicode="&#x2264;" horiz-adv-x="771" 
d="M636 200l-501 210v180l501 210v-143l-372 -157l372 -157v-143zM135 0v126h501v-126h-501z" />
    <glyph glyph-name="greaterequal" unicode="&#x2265;" horiz-adv-x="771" 
d="M135 200v143l373 157l-373 157v143l501 -210v-180zM636 0h-501v126h501v-126z" />
    <glyph glyph-name="approxequal" unicode="&#x2248;" horiz-adv-x="771" 
d="M516 382q-28 0 -51.5 7t-42.5 21q-20 13 -36 33t-32 47q-19 34 -31 52.5t-23 30.5q-12 13 -24 18.5t-27 5.5q-12 0 -21 -5.5t-15 -17.5q-6 -13 -9.5 -33t-3.5 -48v-77h-137v83q0 56 13 100t39 74q25 30 60.5 45.5t79.5 15.5q29 0 52.5 -7t42.5 -21q19 -13 35.5 -32.5
t31.5 -46.5l32 -53t23 -31q12 -13 24 -18.5t27 -5.5q12 0 21 5.5t15 18.5q6 12 9.5 32t3.5 49v76h137v-83q0 -56 -13.5 -100t-38.5 -74t-60.5 -45.5t-80.5 -15.5zM512 -18q-27 0 -49.5 7t-41.5 21q-19 13 -35 33t-32 47q-19 34 -31 53t-23 31t-23 18t-28 6q-12 0 -21 -6
t-15 -18q-6 -13 -9.5 -33t-3.5 -48v-77h-137v83q0 56 13 100t39 74q25 30 60.5 45.5t79.5 15.5q29 0 52.5 -7t42.5 -21q19 -13 35.5 -32.5t31.5 -46.5l32 -53t23 -31q12 -13 24 -18.5t27 -5.5q12 0 21 5.5t15 18.5q6 12 9.5 32t3.5 49v76h137v-83q0 -57 -13 -100.5
t-39 -73.5q-25 -30 -62 -45.5t-83 -15.5z" />
    <glyph glyph-name="notequal" unicode="&#x2260;" horiz-adv-x="771" 
d="M678 172h-278l-35 -172h-125l35 172h-182v138h212l37 182h-249v137h278l36 171h125l-36 -171h182v-137h-211l-37 -182h248v-138z" />
    <glyph glyph-name="logicalnot" unicode="&#xac;" horiz-adv-x="771" 
d="M532 0v279h-439v145h585v-424h-146z" />
    <glyph glyph-name="uni23af" unicode="&#x23af;" horiz-adv-x="855" 
d="M-135 310v180h1125v-180h-1125z" />
    <glyph glyph-name="arrowleft" unicode="&#x2190;" horiz-adv-x="1042" 
d="M515 35l-380 355v20l380 355h16v-275h376v-180h-376v-275h-16z" />
    <glyph glyph-name="arrowup" unicode="&#x2191;" horiz-adv-x="771" 
d="M292 -40v450h-230v20l315 410h17l314 -410v-20h-229v-450h-187z" />
    <glyph glyph-name="arrowright" unicode="&#x2192;" horiz-adv-x="1042" 
d="M511 35v275h-376v180h376v275h17l379 -355v-20l-379 -355h-17z" />
    <glyph glyph-name="arrowdown" unicode="&#x2193;" horiz-adv-x="771" 
d="M377 -57l-315 410v20h230v450h187v-450h229v-20l-314 -410h-17z" />
    <glyph glyph-name="arrowboth" unicode="&#x2194;" horiz-adv-x="1209" 
d="M479 310v-275h-16l-328 355v20l328 355h16v-275h251v275h17l327 -355v-20l-327 -355h-17v275h-251z" />
    <glyph glyph-name="partialdiff" unicode="&#x2202;" 
d="M300 -10q-59 0 -104 14.5t-74 44.5q-30 29 -41 74t-3 104l7 56q7 49 26.5 89t48.5 68q30 28 67.5 43t79.5 15q25 0 45.5 -5.5t35.5 -15.5t24.5 -23.5t14.5 -28.5h17q3 57 -9.5 97.5t-41.5 71.5q-30 31 -78.5 55.5t-123.5 49.5l144 119q88 -29 147 -68.5t93 -93.5
q33 -54 43 -125t-2 -163l-18 -135q-10 -63 -35 -109t-64 -76q-39 -29 -89 -43.5t-110 -14.5zM325 119q19 0 33 6t24 18q9 12 15 30.5t9 43.5l11 63q3 22 1 38.5t-9 27.5q-8 11 -21.5 16.5t-33.5 5.5t-34 -5.5t-23 -16.5q-10 -11 -15.5 -27t-8.5 -39l-11 -63q-3 -25 -1 -43
t9 -30q8 -12 21.5 -18.5t33.5 -6.5z" />
    <glyph glyph-name="Delta#1" unicode="&#x2206;" horiz-adv-x="688" 
d="M33 0zM33 0v138l181 662h273l168 -662v-138h-622zM474 138l-135 537l-144 -537h279z" />
    <glyph glyph-name="product" unicode="&#x220f;" horiz-adv-x="791" 
d="M93 -200v1000h605v-1000h-187v862h-231v-862h-187z" />
    <glyph glyph-name="summation" unicode="&#x2211;" 
d="M631 -62v-138h-562v138l338 371l-338 353v138h562v-138h-382l280 -291v-110l-288 -323h390z" />
    <glyph glyph-name="mu1" unicode="&#xb5;" horiz-adv-x="791" 
d="M85 0zM280 20l9 -220h-204l8 220v580h187v-380q0 -47 19 -67t45 -20q27 0 47 11.5t36 39.5v416h187v-400q0 -49 24.5 -64t75.5 -7v-125q-78 -19 -128.5 -2t-80.5 82h-26q-17 -39 -45 -66.5t-77 -27.5q-22 0 -42 12t-35 37v-19z" />
    <glyph glyph-name="radical" unicode="&#x221a;" 
d="M291 0l-117 356l-122 -19v133l220 30l105 -352l135 752h167l-180 -900h-208z" />
    <glyph glyph-name="infinity" unicode="&#x221e;" horiz-adv-x="855" 
d="M248 96q-40 0 -73.5 21t-58.5 61q-26 40 -39.5 96.5t-13.5 124.5q0 70 15 127t43 97q27 39 64.5 60t81.5 21q34 0 61.5 -10t49.5 -30t39.5 -49.5t32.5 -69.5q15 40 32 69.5t36 49.5t42.5 30t50.5 10q38 0 71.5 -21t58.5 -61t38.5 -96.5t13.5 -124.5q0 -70 -15.5 -127
t-43.5 -96q-28 -40 -66.5 -61t-83.5 -21q-33 0 -59.5 10t-48.5 30q-21 19 -38.5 48.5t-31.5 68.5q-16 -40 -32.5 -69t-35.5 -48q-19 -20 -41 -30t-49 -10zM587 233q13 0 23.5 9t19.5 29q8 20 12.5 52.5t4.5 76.5q-1 45 -5.5 77.5t-12.5 51.5q-9 20 -19.5 29t-22.5 9
q-16 0 -29.5 -9.5t-25.5 -27.5q-12 -17 -23 -40t-22 -53q13 -59 23 -95.5t21 -60.5q11 -25 24.5 -36.5t31.5 -11.5zM268 233q15 0 29 9.5t26 26.5t23 40t22 52q-14 60 -24 97t-21 61q-11 25 -24 36.5t-31 11.5q-13 0 -23.5 -9t-19.5 -29q-8 -20 -12.5 -52.5t-4.5 -76.5
q1 -45 5.5 -77.5t12.5 -51.5q9 -20 19.5 -29t22.5 -9z" />
    <glyph glyph-name="orthogonal" unicode="&#x221f;" horiz-adv-x="668" 
d="M80 0v700h186v-554h335v-146h-521z" />
    <glyph glyph-name="intersection" unicode="&#x2229;" horiz-adv-x="875" 
d="M156 0v446q0 63 20 112.5t57 82.5q37 34 89 51.5t116 17.5q63 0 115 -17.5t89 -51.5q37 -33 57 -82.5t20 -112.5v-446h-187v434q0 36 -4.5 61.5t-15.5 42.5q-10 17 -28.5 25.5t-46.5 8.5q-27 0 -45.5 -8.5t-29.5 -26.5q-10 -17 -14.5 -43t-4.5 -62v-432h-187z" />
    <glyph glyph-name="integral" unicode="&#x222b;" 
d="M211 -205q-16 0 -31 1.5t-30 4.5q-16 2 -31 6.5t-30 10.5l16 118q12 -5 23.5 -8.5t21.5 -5.5q10 -3 20 -4t19 -1q17 0 30.5 6.5t22.5 19.5t13.5 33.5t4.5 47.5v599q0 50 17 89.5t49 66.5q31 27 74 40.5t95 13.5q16 0 31.5 -1.5t30.5 -4.5q15 -2 30.5 -6.5t30.5 -10.5
l-17 -118q-12 5 -23 8.5t-21 5.5q-11 3 -20.5 4t-18.5 1q-17 0 -30.5 -6.5t-22.5 -19.5t-13.5 -33.5t-4.5 -47.5v-599q0 -50 -17 -89.5t-49 -66.5q-31 -27 -74.5 -40.5t-95.5 -13.5z" />
    <glyph glyph-name="equivalence" unicode="&#x2261;" horiz-adv-x="771" 
d="M93 519v145h585v-145h-585zM93 269v146h585v-146h-585zM93 20v145h585v-145h-585z" />
    <glyph glyph-name="integralbt" unicode="&#x2321;" horiz-adv-x="604" 
d="M211 -205q-16 0 -31 1.5t-30 4.5q-16 2 -31 6.5t-30 10.5l16 118q12 -5 23.5 -8.5t21.5 -5.5q10 -3 20 -4t19 -1q15 0 28 6t22 19q10 13 15.5 33.5t5.5 48.5v776h187v-795q0 -50 -17.5 -89.5t-49.5 -66.5q-31 -27 -74.5 -40.5t-94.5 -13.5z" />
    <glyph glyph-name="dollar" unicode="$" 
d="M250 563q0 -27 13 -43.5t45 -28.5v140q-31 -7 -44.5 -23.5t-13.5 -44.5zM472 241q0 28 -16 45t-56 30v-152q40 4 56 23t16 54zM408 -50h-108v93q-74 7 -131 29t-102 54l38 121q46 -34 92.5 -54.5t110.5 -26.5v172q-125 22 -176.5 68t-51.5 139q0 86 56.5 141.5
t163.5 68.5v95h108v-94q56 -5 108 -23t86 -46l-27 -116q-47 28 -86.5 43t-88.5 19v-165q134 -26 188.5 -74t54.5 -141q0 -90 -62.5 -145t-172.5 -65v-93z" />
    <glyph glyph-name="cent" unicode="&#xa2;" 
d="M270 326q0 -49 9 -74t32 -34v364q-23 -9 -32 -34t-9 -74v-148zM298 -50v144q-97 13 -151 72.5t-54 160.5v150q0 101 56.5 158.5t148.5 70.5v144h108v-143q93 -12 138.5 -68.5t58.5 -152.5l-171 -14q-4 45 -12.5 70t-27.5 35v-357q20 9 28 32t12 66l171 -14
q-5 -93 -46 -147.5t-151 -64.5v-142h-108z" />
    <glyph glyph-name="sterling" unicode="&#xa3;" horiz-adv-x="791" 
d="M725 265q-7 -134 -72 -204.5t-176 -70.5q-42 0 -80 18l-73 35q-34 16 -66 23t-60 -15l-77 -60l-73 111l94 61q28 21 50.5 61t22.5 79q0 16 -3 30.5t-7 27.5h-124v98h76q-12 22 -19.5 48.5t-7.5 57.5q0 113 74 179t205 66q149 0 217.5 -66t75.5 -203l-187 -10
q-4 63 -23.5 97t-83.5 34q-49 0 -69.5 -28t-20.5 -71q0 -28 11 -53t24 -51h116v-98h-72q3 -12 4.5 -24.5t1.5 -25.5q0 -39 -35.5 -68t-100.5 -58l17 -34q39 22 66 24t48 -5q20 -7 38.5 -16t40.5 -9q35 0 46 30.5t15 99.5z" />
    <glyph glyph-name="currency" unicode="&#xa4;" horiz-adv-x="771" 
d="M386 228q31 0 47 20.5t16 68.5v162q0 48 -16 70.5t-47 22.5t-47.5 -22.5t-16.5 -70.5v-162q0 -48 16.5 -68.5t47.5 -20.5zM386 90q-46 0 -85 11t-68 33l-83 -97l-73 73l93 113q-7 20 -10.5 43.5t-3.5 50.5v162q0 28 4 52.5t11 45.5l-95 116l73 72l85 -99q29 22 68 33
t84 11q46 0 84.5 -11.5t68.5 -33.5l85 99l74 -73l-97 -116q7 -20 10.5 -44.5t3.5 -51.5v-162q0 -25 -3 -47t-9 -41l93 -117l-74 -72l-82 95q-29 -22 -68.5 -33.5t-85.5 -11.5z" />
    <glyph glyph-name="yen" unicode="&#xa5;" horiz-adv-x="688" 
d="M604 100h-167v-100h-186v100h-167v98h167v102h-167v98h119l-196 402h195l147 -358l149 358h182l-195 -402h119v-98h-167v-102h167v-98z" />
    <glyph glyph-name="franc" unicode="&#x20a3;" 
d="M396 143h-116v-143h-187v143h-83v114h83v543h538v-138h-351v-138h293v-138h-293v-129h116v-114z" />
    <glyph glyph-name="lira" unicode="&#x20a4;" horiz-adv-x="791" 
d="M725 265q-4 -67 -22 -118.5t-50 -86.5q-31 -35 -75.5 -52.5t-100.5 -17.5q-20 0 -39.5 4.5t-37.5 12.5l-28 13l-48 23q-20 10 -36 15.5t-31 7.5q-16 2 -30.5 -1.5t-28.5 -13.5l-77 -60l-73 111l94 61q12 9 23.5 22t20.5 28q10 16 17 32.5t10 33.5h-132v96h116
q-2 5 -4.5 10.5t-4.5 8.5q-1 4 -5.5 13l-6.5 13q-4 8 -6.5 13.5t-5.5 11.5t-5.5 12t-5.5 12h-72v96h49q0 62 19 105.5t55 74.5q36 32 88 48.5t117 16.5q75 0 128.5 -16.5t88.5 -49.5t53.5 -83t22.5 -120l-187 -10q-2 35 -7.5 58.5t-16.5 39.5t-31 24.5t-52 8.5q-24 0 -41 -7
t-28 -20q-11 -14 -16 -31.5t-5 -38.5h130v-96h-102q2 -2 3 -4t2 -5q2 -2 3 -4l2 -4l11 -19t9 -18q5 -10 9 -20l8 -20h55v-96h-52q-6 -13 -17 -25.5t-28 -23.5q-16 -11 -36.5 -22t-47.5 -23l17 -34q19 10 35.5 16t29.5 8q14 1 26 0t23 -5q8 -3 22 -9l21 -9q6 -2 16 -4.5
t20 -2.5q18 0 28.5 7.5t17.5 22.5q6 15 9.5 38.5t5.5 61.5z" />
    <glyph glyph-name="peseta" unicode="&#x20a7;" horiz-adv-x="1022" 
d="M197 383h47q15 0 27 6t20 19t12 34t4 51v77q0 30 -4 50.5t-12 33.5t-20 19t-27 6h-47v-296zM952 166q0 -43 -11.5 -76t-32.5 -55q-22 -22 -51 -33.5t-64 -11.5q-10 0 -20.5 1.5t-21.5 3.5t-22 5.5t-22 8.5q-3 -2 -14 -5t-26 -6q-14 -3 -27.5 -5t-20.5 -2q-31 0 -57 12
t-46 38t-31 68.5t-11 102.5v271l-44 6v-13q0 -57 -13 -97.5t-37 -65.5q-25 -25 -59 -36.5t-77 -11.5h-47v-265h-123v800h171q40 0 72.5 -11t56.5 -35t38 -62t17 -92h45v200h124v-200h100v-37q10 12 21.5 20.5t24.5 14.5t27 9t29 3q16 0 33 -3.5t35 -9.5q17 -7 33 -15.5
t30 -18.5l-38 -105q-10 8 -20.5 14.5t-20.5 10.5t-19 6t-18 2t-15 -3t-11 -9q-4 -6 -6 -15.5t-2 -22.5q0 -19 7 -35.5t18 -29.5q12 -14 15 -16.5l45 -38.5q22 -19 37.5 -35.5t26.5 -35.5q11 -18 16.5 -38.5t5.5 -45.5zM790 109q9 0 16 2.5t12 8.5t8 16t3 23q0 15 -7 27.5
t-18 22.5q-11 11 -32 28l-28 23q-22 19 -37.5 37t-26.5 39q-11 20 -16.5 44.5t-5.5 53.5v13t1 12q0 6 1 11.5l2 10.5h-64v-270q0 -23 1 -40.5t4 -30.5q2 -13 7 -20t13 -7q4 0 14.5 2t21.5 5q12 3 19 5t5 3l2 -8l7 22q10 -6 22 -12t25 -11q14 -4 27 -7t24 -3z" />
    <glyph glyph-name="Euro" unicode="&#x20ac;" horiz-adv-x="791" 
d="M426 -10q-150 0 -224.5 68.5t-74.5 189.5v2h-84v94h84v110h-84v94h84v2q0 122 75 191t224 69q147 0 220 -69.5t79 -215.5l-177 -10q-7 98 -32.5 131.5t-89.5 33.5q-65 0 -93 -27t-28 -103v-2h139v-94h-140v-110h140v-94h-139v-2q0 -75 28 -101.5t93 -26.5t90 32.5
t32 128.5l177 -10q-6 -144 -79 -212.5t-220 -68.5z" />
    <glyph glyph-name="florin" unicode="&#x192;" 
d="M211 -5q-16 0 -31 1.5t-30 4.5q-16 2 -31 6.5t-30 10.5l16 118q12 -5 23.5 -8.5t21.5 -5.5q10 -3 20 -4t19 -1q17 0 30 6t22 18t13.5 30t4.5 43v180h-164v130h165v109q0 46 16 83.5t47 63.5q30 26 74 39.5t98 13.5q16 0 31.5 -1.5t30.5 -4.5q15 -2 30.5 -6.5t30.5 -10.5
l-17 -118q-12 5 -23 8.5t-21 5.5q-11 3 -20.5 4t-18.5 1q-17 0 -30.5 -6t-22.5 -18t-13.5 -30t-4.5 -43v-90h163v-130h-163v-199q0 -47 -16 -84t-47 -63t-74.5 -39.5t-98.5 -13.5z" />
    <glyph glyph-name="asciicircum" unicode="^" horiz-adv-x="875" 
d="M599 200l-162 384l-161 -384h-183l251 600h187l250 -600h-182z" />
    <glyph glyph-name="asciitilde" unicode="~" horiz-adv-x="875" 
d="M571 201q-57 0 -99.5 29.5t-73.5 80.5l-49.5 75t-49.5 34q-23 0 -32.5 -21t-9.5 -77v-111h-164v117q0 131 56 201t156 70q63 0 107 -29.5t75 -79.5l45.5 -74.5t42.5 -34.5q25 0 35.5 23t10.5 84v101h160v-105q0 -144 -56.5 -213.5t-153.5 -69.5z" />
    <glyph glyph-name="acute" unicode="&#xb4;" horiz-adv-x="604" 
d="M186 700zM186 700l83 200h228l-194 -200h-117z" />
    <glyph glyph-name="grave" unicode="`" horiz-adv-x="604" 
d="M339 360l-215 440h253l76 -440h-114z" />
    <glyph glyph-name="hungarumlaut" unicode="&#x2dd;" horiz-adv-x="604" 
d="M132 700zM324 700l37 200h168l-115 -200h-90zM132 700l37 200h168l-115 -200h-90z" />
    <glyph glyph-name="circumflex" unicode="&#x2c6;" horiz-adv-x="604" 
d="M74 688zM131 688l-57 80l156 157h143l157 -157l-56 -79l-173 107z" />
    <glyph glyph-name="caron" unicode="&#x2c7;" horiz-adv-x="604" 
d="M74 704zM231 704l-157 157l56 79l173 -107l170 108l57 -80l-156 -157h-143z" />
    <glyph glyph-name="breve" unicode="&#x2d8;" horiz-adv-x="604" 
d="M72 693zM302 693q-116 0 -172.5 57.5t-57.5 176.5h145q1 -71 19.5 -97t65.5 -26t65.5 26t19.5 97h145q-1 -119 -57.5 -176.5t-172.5 -57.5z" />
    <glyph glyph-name="tilde" unicode="&#x2dc;" horiz-adv-x="604" 
d="M83 710zM385 710q-38 0 -61 12.5t-40 36.5l-24 34t-27 15q-14 0 -24 -13.5t-10 -53.5v-21h-116v15q0 86 38 138.5t103 52.5q35 0 56.5 -12.5t39.5 -36.5l26 -34.5t26 -15.5q16 0 25 14t9 54v20h116v-15q0 -85 -37 -137.5t-100 -52.5z" />
    <glyph glyph-name="macron" unicode="&#x2c9;" horiz-adv-x="604" 
d="M109 731zM109 731v138h386v-138h-386z" />
    <glyph glyph-name="macron" unicode="&#xaf;" horiz-adv-x="604" 
d="M109 731zM109 731v138h386v-138h-386z" />
    <glyph glyph-name="dieresis" unicode="&#xa8;" horiz-adv-x="604" 
d="M102 694zM190 694q-39 0 -63.5 16t-24.5 56v14q0 40 24.5 57.5t63.5 17.5q40 0 64.5 -17.5t24.5 -57.5v-14q0 -40 -25 -56t-64 -16zM414 694q-40 0 -64.5 16t-24.5 56v14q0 40 24.5 57.5t64.5 17.5t64 -17.5t24 -57.5v-14q0 -40 -25 -56t-63 -16z" />
    <glyph glyph-name="dotaccent" unicode="&#x2d9;" horiz-adv-x="604" 
d="M187 694zM302 694q-51 0 -83 16t-32 56v14q0 40 32 57.5t83 17.5q52 0 83.5 -17.5t31.5 -57.5v-14q0 -40 -32 -56t-83 -16z" />
    <glyph glyph-name="ring" unicode="&#x2da;" horiz-adv-x="604" 
d="M116 677zM302 677q-83 0 -134.5 37.5t-51.5 115.5v32q0 79 51.5 117.5t134.5 38.5q84 0 135 -38.5t51 -117.5v-32q0 -78 -51.5 -115.5t-134.5 -37.5zM302 764q28 0 43 15t15 51v32q0 35 -15 52t-43 17q-29 0 -43.5 -17t-14.5 -52v-32q0 -36 14.5 -51t43.5 -15z" />
    <glyph glyph-name="cedilla" unicode="&#xb8;" horiz-adv-x="604" 
d="M75 0zM277 0l16 42q87 -9 132 -39t45 -92q0 -67 -54 -101t-141 -34q-90 0 -143 32.5t-57 97.5l156 10q2 -19 10 -26.5t27 -7.5q22 0 33 11t11 45q0 27 -6.5 41t-28.5 21z" />
    <glyph glyph-name="ogonek" unicode="&#x2db;" horiz-adv-x="604" 
d="M150 0zM307 -222q-75 0 -116 32t-41 94q0 57 42 102.5t102 64.5l22 -48q-23 -16 -31 -35t-8 -44q0 -26 15 -39t49 -13q15 0 34 2.5t46 7.5v-111q-33 -7 -61 -10t-53 -3z" />
    <glyph glyph-name="tonos" unicode="&#x384;" horiz-adv-x="604" 
d="M220 700zM220 700l32 200h220l-143 -200h-109z" />
    <glyph glyph-name="dieresistonos" unicode="&#x385;" horiz-adv-x="604" 
d="M24 692zM223 700l38 200h152l-88 -200h-102zM104 692q-35 0 -57.5 16t-22.5 56v14q0 40 22.5 57.5t57.5 17.5q36 0 58 -17.5t22 -57.5v-14q0 -40 -23 -56t-57 -16zM500 692q-35 0 -57.5 16t-22.5 56v14q0 40 22.5 57.5t57.5 17.5q36 0 58 -17.5t22 -57.5v-14
q0 -40 -23 -56t-57 -16z" />
    <glyph glyph-name="copyright" unicode="&#xa9;" horiz-adv-x="1125" 
d="M563 -110q-200 0 -296.5 93.5t-96.5 289.5v190q0 198 96.5 292.5t296.5 94.5t296 -94.5t96 -292.5v-190q0 -196 -96 -289.5t-296 -93.5zM563 -48q177 0 252 75t75 250v182q0 178 -75 253.5t-252 75.5t-252 -75.5t-75 -253.5v-182q0 -175 75 -250t252 -75zM562 93
q-113 0 -162.5 54t-49.5 157v135q0 101 49.5 154.5t161.5 53.5q113 0 167 -49t60 -152l-163 -6q-3 59 -15 78t-40 19q-27 0 -39.5 -22.5t-12.5 -76.5v-136q0 -54 12.5 -76.5t40.5 -22.5t39.5 17t14.5 71l163 -6q-5 -100 -59.5 -146t-166.5 -46z" />
    <glyph glyph-name="registered" unicode="&#xae;" horiz-adv-x="894" 
d="M447 131q-154 0 -228 66.5t-74 205.5v173q0 145 74.5 214.5t228.5 69.5t228 -69.5t74 -214.5v-173q0 -139 -74.5 -205.5t-228.5 -66.5zM447 185q130 0 187.5 52t57.5 168v169q0 124 -57.5 178.5t-187.5 54.5q-129 0 -187 -54.5t-58 -178.5v-169q0 -116 58 -168t187 -52z
M416 504h52q12 0 22.5 6.5t10.5 28.5v28q0 26 -10.5 35t-22.5 9h-52v-107zM416 308h-110v372h176q56 0 92.5 -28t36.5 -85v-28q0 -32 -14.5 -52t-36.5 -31l75 -148h-118l-70 134h-31v-134z" />
    <glyph glyph-name="trademark" unicode="&#x2122;" horiz-adv-x="1292" 
d="M296 335v370h-144v95h406v-95h-134v-370h-128zM752 590v-255h-122v465h141l90 -255l88 255h143v-465h-121l-1 264l-65 -177h-91z" />
    <glyph glyph-name="degree" unicode="&#xb0;" horiz-adv-x="521" 
d="M260 322q-88 0 -142.5 44.5t-54.5 137.5v117q0 93 54.5 139t142.5 46q90 0 144.5 -46t54.5 -139v-117q0 -93 -55 -137.5t-144 -44.5zM260 441q28 0 42.5 18t14.5 61v85q0 42 -14.5 62t-42.5 20t-42 -20t-14 -62v-85q0 -43 14 -61t42 -18z" />
    <glyph glyph-name="careof" unicode="&#x2105;" horiz-adv-x="1145" 
d="M281 0l417 800h167l-418 -800h-166zM321 539l157 -10q1 -39 -14 -69t-43 -49q-29 -20 -68 -29.5t-87 -9.5q-49 0 -88 9.5t-67 29.5q-29 19 -44 49t-15 69v122q0 40 15.5 70t43.5 50q28 19 67.5 29t87.5 10q49 0 88 -8.5t67 -26.5t43 -47t14 -69l-157 -18q1 16 -3 28
t-11 20q-8 8 -18 12t-23 4t-23.5 -3.5t-18.5 -11.5q-7 -7 -11 -18.5t-4 -26.5v-110q0 -15 4 -26t11 -18q8 -7 18.5 -10.5t23.5 -3.5t23 3.5t18 11.5q7 7 11 19t3 28zM879 -12q-48 0 -87 9.5t-68 29.5q-28 19 -43 49t-15 69v130q0 40 15 70t43 50q29 19 68 29t87 10
q49 0 88 -10t67 -29q28 -20 43 -50t15 -70v-130q0 -39 -15 -69t-43 -49q-29 -20 -68 -29.5t-87 -9.5zM879 97q13 0 23.5 3.5t17.5 10.5t11 18t4 26v110q0 15 -4 26.5t-11 18.5q-7 8 -17.5 11.5t-23.5 3.5t-23.5 -3.5t-17.5 -11.5q-7 -7 -11 -18.5t-4 -26.5v-110q0 -15 4 -26
t11 -18t17.5 -10.5t23.5 -3.5z" />
    <glyph glyph-name="uni2117" unicode="&#x2117;" horiz-adv-x="1125" 
d="M563 -110q-200 0 -296.5 93.5t-96.5 289.5v190q0 198 96.5 292.5t296.5 94.5t296 -94.5t96 -292.5v-190q0 -196 -96 -289.5t-296 -93.5zM563 -48q177 0 252 75t75 250v182q0 178 -75 253.5t-252 75.5t-252 -75.5t-75 -253.5v-182q0 -175 75 -250t252 -75zM373 107v534
h210q100 0 162 -45t62 -140v-38q0 -90 -62.5 -131t-161.5 -41h-42v-139h-168zM541 354h42q28 0 42 13.5t14 50.5v38q0 42 -14 58t-42 16h-42v-176z" />
    <glyph glyph-name="estimated" unicode="&#x212e;" horiz-adv-x="855" 
d="M423 -12q-150 0 -240.5 122.5t-90.5 291.5q0 171 89.5 292t244.5 121q157 0 244.5 -138t89.5 -327h-506v-210q28 -35 71 -57t98 -22q90 0 152.5 41t100.5 112l41 -60q-43 -79 -117 -122.5t-177 -43.5zM254 430h341v230q-28 32 -70 57t-100 25q-54 0 -98 -21t-73 -58v-233
z" />
    <glyph glyph-name="arrowupdn" unicode="&#x2195;" horiz-adv-x="978" 
d="M497 -140h-16l-315 370v20h230v300h-230v20l315 370h16l315 -370v-20h-229v-300h229v-20z" />
    <glyph glyph-name="arrowupdnbse" unicode="&#x21a8;" horiz-adv-x="978" 
d="M166 0zM196 -247v146h585v-146h-585zM497 -140h-16l-315 370v20h230v300h-230v20l315 370h16l315 -370v-20h-229v-300h229v-20z" />
    <glyph glyph-name="logicalnotreversed" unicode="&#x2310;" horiz-adv-x="771" 
d="M93 0v424h585v-145h-439v-279h-146z" />
    <glyph glyph-name="lighthorzbxd" unicode="&#x2500;" horiz-adv-x="1100" 
d="M-20 350h1140v-100h-1140v100z" />
    <glyph glyph-name="heavyhorzbxd" unicode="&#x2501;" horiz-adv-x="1100" 
d="M-20 400h1140v-200h-1140v200z" />
    <glyph glyph-name="lightvertbxd" unicode="&#x2502;" horiz-adv-x="1100" 
d="M500 1050h100v-1500h-100v1500z" />
    <glyph glyph-name="heavyvertbxd" unicode="&#x2503;" horiz-adv-x="1100" 
d="M450 1050h200v-1500h-200v1500z" />
    <glyph glyph-name="lighttrpldashhorzbxd" unicode="&#x2504;" horiz-adv-x="1100" 
d="M61 350h244v-100h-244v100zM427 350h244v-100h-244v100zM793 350h244v-100h-244v100z" />
    <glyph glyph-name="heavytrpldashhorzbxd" unicode="&#x2505;" horiz-adv-x="1100" 
d="M61 400h244v-200h-244v200zM427 400h244v-200h-244v200zM793 400h244v-200h-244v200z" />
    <glyph glyph-name="lighttrpldashvertbxd" unicode="&#x2506;" horiz-adv-x="1100" 
d="M500 55h100v-244h-100v244zM500 421h100v-244h-100v244zM500 787h100v-244h-100v244zM500 1153h100v-244h-100v244z" />
    <glyph glyph-name="heavytrpldashvertbxd" unicode="&#x2507;" horiz-adv-x="1100" 
d="M450 55h200v-244h-200v244zM450 421h200v-244h-200v244zM450 787h200v-244h-200v244zM450 1153h200v-244h-200v244z" />
    <glyph glyph-name="lightquaddashhorzbxd" unicode="&#x2508;" horiz-adv-x="1100" 
d="M34 350h207v-100h-207v100zM309 350h207v-100h-207v100zM584 350h207v-100h-207v100zM859 350h207v-100h-207v100z" />
    <glyph glyph-name="heavyquaddashhorzbxd" unicode="&#x2509;" horiz-adv-x="1100" 
d="M34 400h207v-200h-207v200zM309 400h207v-200h-207v200zM584 400h207v-200h-207v200zM859 400h207v-200h-207v200z" />
    <glyph glyph-name="lightquaddashvertbxd" unicode="&#x250a;" horiz-adv-x="1100" 
d="M500 -9h100v-207h-100v207zM500 266h100v-207h-100v207zM500 541h100v-207h-100v207zM500 816h100v-207h-100v207z" />
    <glyph glyph-name="heavyquaddashvertbxd" unicode="&#x250b;" horiz-adv-x="1100" 
d="M450 -9h200v-207h-200v207zM450 266h200v-207h-200v207zM450 541h200v-207h-200v207zM450 816h200v-207h-200v207z" />
    <glyph glyph-name="lightdnrightbxd" unicode="&#x250c;" horiz-adv-x="1100" 
d="M500 350h620v-100h-520v-700h-100v800z" />
    <glyph glyph-name="dnlightrightheavybxd" unicode="&#x250d;" horiz-adv-x="1100" 
d="M500 400h620v-200h-520v-650h-100v850z" />
    <glyph glyph-name="dnheavyrightlightbxd" unicode="&#x250e;" horiz-adv-x="1100" 
d="M450 350h670v-100h-470v-700h-200v800z" />
    <glyph glyph-name="heavydnrightbxd" unicode="&#x250f;" horiz-adv-x="1100" 
d="M450 400h670v-200h-470v-650h-200v850z" />
    <glyph glyph-name="lightdnleftbxd" unicode="&#x2510;" horiz-adv-x="1100" 
d="M-20 350h620v-800h-100v700h-520v100z" />
    <glyph glyph-name="dnlightleftheavybxd" unicode="&#x2511;" horiz-adv-x="1100" 
d="M-20 400h620v-850h-100v650h-520v200z" />
    <glyph glyph-name="dnheavyleftlightbxd" unicode="&#x2512;" horiz-adv-x="1100" 
d="M-20 350h670v-800h-200v700h-470v100z" />
    <glyph glyph-name="heavydnleftbxd" unicode="&#x2513;" horiz-adv-x="1100" 
d="M-20 400h670v-850h-200v650h-470v200z" />
    <glyph glyph-name="lightuprightbxd" unicode="&#x2514;" horiz-adv-x="1100" 
d="M500 1050h100v-700h520v-100h-620v800z" />
    <glyph glyph-name="uplightrightheavybxd" unicode="&#x2515;" horiz-adv-x="1100" 
d="M500 1050h100v-650h520v-200h-620v850z" />
    <glyph glyph-name="upheavyrightlightbxd" unicode="&#x2516;" horiz-adv-x="1100" 
d="M450 1050h200v-700h470v-100h-670v800z" />
    <glyph glyph-name="heavyuprightbxd" unicode="&#x2517;" horiz-adv-x="1100" 
d="M450 1050h200v-650h470v-200h-670v850z" />
    <glyph glyph-name="lightupleftbxd" unicode="&#x2518;" horiz-adv-x="1100" 
d="M-20 350h520v700h100v-800h-620v100z" />
    <glyph glyph-name="uplightleftheavybxd" unicode="&#x2519;" horiz-adv-x="1100" 
d="M-20 400h520v650h100v-850h-620v200z" />
    <glyph glyph-name="upheavyleftlightbxd" unicode="&#x251a;" horiz-adv-x="1100" 
d="M-20 350h470v700h200v-800h-670v100z" />
    <glyph glyph-name="heavyupleftbxd" unicode="&#x251b;" horiz-adv-x="1100" 
d="M-20 400h470v650h200v-850h-670v200z" />
    <glyph glyph-name="lightvertrightbxd" unicode="&#x251c;" horiz-adv-x="1100" 
d="M500 1050h100v-700h520v-100h-520v-700h-100v1500z" />
    <glyph glyph-name="vertlightrightheavybxd" unicode="&#x251d;" horiz-adv-x="1100" 
d="M500 1050h100v-650h520v-200h-520v-650h-100v1500z" />
    <glyph glyph-name="upheavyrightdnlightbxd" unicode="&#x251e;" horiz-adv-x="1100" 
d="M450 1050h200v-700h470v-100h-520v-700h-100v700h-50v800z" />
    <glyph glyph-name="dnheavyrightuplightbxd" unicode="&#x251f;" horiz-adv-x="1100" 
d="M450 350h50v700h100v-700h520v-100h-470v-700h-200v800z" />
    <glyph glyph-name="vertheavyrightlightbxd" unicode="&#x2520;" horiz-adv-x="1100" 
d="M450 1050h200v-700h470v-100h-470v-700h-200v1500z" />
    <glyph glyph-name="dnlightrightupheavybxd" unicode="&#x2521;" horiz-adv-x="1100" 
d="M450 1050h200v-650h470v-200h-520v-650h-100v650h-50v850z" />
    <glyph glyph-name="uplightrightdnheavybxd" unicode="&#x2522;" horiz-adv-x="1100" 
d="M450 400h50v650h100v-650h520v-200h-470v-650h-200v850z" />
    <glyph glyph-name="heavyvertrightbxd" unicode="&#x2523;" horiz-adv-x="1100" 
d="M450 1050h200v-650h470v-200h-470v-650h-200v1500z" />
    <glyph glyph-name="lightvertleftbxd" unicode="&#x2524;" horiz-adv-x="1100" 
d="M-20 350h520v700h100v-1500h-100v700h-520v100z" />
    <glyph glyph-name="vertlightleftheavybxd" unicode="&#x2525;" horiz-adv-x="1100" 
d="M-20 400h520v650h100v-1500h-100v650h-520v200z" />
    <glyph glyph-name="upheavyleftdnlightbxd" unicode="&#x2526;" horiz-adv-x="1100" 
d="M-20 350h470v700h200v-800h-50v-700h-100v700h-520v100z" />
    <glyph glyph-name="dnheavyleftuplightbxd" unicode="&#x2527;" horiz-adv-x="1100" 
d="M-20 350h520v700h100v-700h50v-800h-200v700h-470v100z" />
    <glyph glyph-name="vertheavyleftlightbxd" unicode="&#x2528;" horiz-adv-x="1100" 
d="M-20 350h470v700h200v-1500h-200v700h-470v100z" />
    <glyph glyph-name="dnlightleftupheavybxd" unicode="&#x2529;" horiz-adv-x="1100" 
d="M-20 400h470v650h200v-850h-50v-650h-100v650h-520v200z" />
    <glyph glyph-name="uplightleftdnheavybxd" unicode="&#x252a;" horiz-adv-x="1100" 
d="M-20 400h520v650h100v-650h50v-850h-200v650h-470v200z" />
    <glyph glyph-name="heavyvertleftbxd" unicode="&#x252b;" horiz-adv-x="1100" 
d="M-20 400h470v650h200v-1500h-200v650h-470v200z" />
    <glyph glyph-name="lightdnhorzbxd" unicode="&#x252c;" horiz-adv-x="1100" 
d="M-20 350h1140v-100h-520v-700h-100v700h-520v100z" />
    <glyph glyph-name="leftheavyrightdnlightbxd" unicode="&#x252d;" horiz-adv-x="1100" 
d="M-20 400h620v-50h520v-100h-520v-700h-100v650h-520v200z" />
    <glyph glyph-name="rightheavyleftdnlightbxd" unicode="&#x252e;" horiz-adv-x="1100" 
d="M-20 350h520v50h620v-200h-520v-650h-100v700h-520v100z" />
    <glyph glyph-name="dnlighthorzheavybxd" unicode="&#x252f;" horiz-adv-x="1100" 
d="M-20 400h1140v-200h-520v-650h-100v650h-520v200z" />
    <glyph glyph-name="dnheavyhorzlightbxd" unicode="&#x2530;" horiz-adv-x="1100" 
d="M-20 350h1140v-100h-470v-700h-200v700h-470v100z" />
    <glyph glyph-name="rightlightleftdnheavybxd" unicode="&#x2531;" horiz-adv-x="1100" 
d="M-20 400h670v-50h470v-100h-470v-700h-200v650h-470v200z" />
    <glyph glyph-name="leftlightrightdnheavybxd" unicode="&#x2532;" horiz-adv-x="1100" 
d="M-20 350h470v50h670v-200h-470v-650h-200v700h-470v100z" />
    <glyph glyph-name="heavydnhorzbxd" unicode="&#x2533;" horiz-adv-x="1100" 
d="M-20 400h1140v-200h-470v-650h-200v650h-470v200z" />
    <glyph glyph-name="lightuphorzbxd" unicode="&#x2534;" horiz-adv-x="1100" 
d="M-20 350h520v700h100v-700h520v-100h-1140v100z" />
    <glyph glyph-name="leftheavyrightuplightbxd" unicode="&#x2535;" horiz-adv-x="1100" 
d="M-20 400h520v650h100v-700h520v-100h-520v-50h-620v200z" />
    <glyph glyph-name="rightheavyleftuplightbxd" unicode="&#x2536;" horiz-adv-x="1100" 
d="M-20 350h520v700h100v-650h520v-200h-620v50h-520v100z" />
    <glyph glyph-name="uplighthorzheavybxd" unicode="&#x2537;" horiz-adv-x="1100" 
d="M-20 400h520v650h100v-650h520v-200h-1140v200z" />
    <glyph glyph-name="upheavyhorzlightbxd" unicode="&#x2538;" horiz-adv-x="1100" 
d="M-20 350h470v700h200v-700h470v-100h-1140v100z" />
    <glyph glyph-name="rightlightleftupheavybxd" unicode="&#x2539;" horiz-adv-x="1100" 
d="M-20 400h470v650h200v-700h470v-100h-470v-50h-670v200z" />
    <glyph glyph-name="leftlightrightupheavybxd" unicode="&#x253a;" horiz-adv-x="1100" 
d="M-20 350h470v700h200v-650h470v-200h-670v50h-470v100z" />
    <glyph glyph-name="heavyuphorzbxd" unicode="&#x253b;" horiz-adv-x="1100" 
d="M-20 400h470v650h200v-650h470v-200h-1140v200z" />
    <glyph glyph-name="lightverthorzbxd" unicode="&#x253c;" horiz-adv-x="1100" 
d="M-20 350h520v700h100v-700h520v-100h-520v-700h-100v700h-520v100z" />
    <glyph glyph-name="leftheavyrightvertlightbxd" unicode="&#x253d;" horiz-adv-x="1100" 
d="M-20 400h520v650h100v-700h520v-100h-520v-700h-100v650h-520v200z" />
    <glyph glyph-name="rightheavyleftvertlightbxd" unicode="&#x253e;" horiz-adv-x="1100" 
d="M-20 350h520v700h100v-650h520v-200h-520v-650h-100v700h-520v100z" />
    <glyph glyph-name="vertlighthorzheavybxd" unicode="&#x253f;" horiz-adv-x="1100" 
d="M-20 400h520v650h100v-650h520v-200h-520v-650h-100v650h-520v200z" />
    <glyph glyph-name="upheavydnhorzlightbxd" unicode="&#x2540;" horiz-adv-x="1100" 
d="M-20 350h470v700h200v-700h470v-100h-520v-700h-100v700h-520v100z" />
    <glyph glyph-name="dnheavyuphorzlightbxd" unicode="&#x2541;" horiz-adv-x="1100" 
d="M-20 350h520v700h100v-700h520v-100h-470v-700h-200v700h-470v100z" />
    <glyph glyph-name="vertheavyhorzlightbxd" unicode="&#x2542;" horiz-adv-x="1100" 
d="M-20 350h470v700h200v-700h470v-100h-470v-700h-200v700h-470v100z" />
    <glyph glyph-name="leftupheavyrightdnlightbxd" unicode="&#x2543;" horiz-adv-x="1100" 
d="M-20 400h470v650h200v-700h470v-100h-470v-50h-50v-650h-100v650h-520v200z" />
    <glyph glyph-name="rightupheavyleftdnlightbxd" unicode="&#x2544;" horiz-adv-x="1100" 
d="M-20 350h470v700h200v-650h470v-200h-520v-650h-100v650h-50v50h-470v100z" />
    <glyph glyph-name="leftdnheavyrightuplightbxd" unicode="&#x2545;" horiz-adv-x="1100" 
d="M-20 400h520v650h100v-650h50v-50h470v-100h-470v-700h-200v650h-470v200z" />
    <glyph glyph-name="rightdnheavyleftuplightbxd" unicode="&#x2546;" horiz-adv-x="1100" 
d="M-20 350h470v50h50v650h100v-650h520v-200h-470v-650h-200v700h-470v100z" />
    <glyph glyph-name="dnlightuphorzheavybxd" unicode="&#x2547;" horiz-adv-x="1100" 
d="M-20 400h470v650h200v-650h470v-200h-520v-650h-100v650h-520v200z" />
    <glyph glyph-name="uplightdnhorzheavybxd" unicode="&#x2548;" horiz-adv-x="1100" 
d="M-20 400h520v650h100v-650h520v-200h-470v-650h-200v650h-470v200z" />
    <glyph glyph-name="rightlightleftvertheavybxd" unicode="&#x2549;" horiz-adv-x="1100" 
d="M-20 400h470v650h200v-700h470v-100h-470v-700h-200v650h-470v200z" />
    <glyph glyph-name="leftlightrightvertheavybxd" unicode="&#x254a;" horiz-adv-x="1100" 
d="M-20 350h470v700h200v-650h470v-200h-470v-650h-200v700h-470v100z" />
    <glyph glyph-name="heavyverthorzbxd" unicode="&#x254b;" horiz-adv-x="1100" 
d="M-20 400h470v650h200v-650h470v-200h-470v-650h-200v650h-470v200z" />
    <glyph glyph-name="lightdbldashhorzbxd" unicode="&#x254c;" horiz-adv-x="1100" 
d="M137 350h275v-100h-275v100zM687 350h275v-100h-275v100z" />
    <glyph glyph-name="heavydbldashhorzbxd" unicode="&#x254d;" horiz-adv-x="1100" 
d="M137 400h275v-200h-275v200zM687 400h275v-200h-275v200z" />
    <glyph glyph-name="lightdbldashvertbxd" unicode="&#x254e;" horiz-adv-x="1100" 
d="M500 162h100v-275h-100v275zM500 712h100v-275h-100v275z" />
    <glyph glyph-name="heavydbldashvertbxd" unicode="&#x254f;" horiz-adv-x="1100" 
d="M450 162h200v-275h-200v275zM450 712h200v-275h-200v275z" />
    <glyph glyph-name="dblhorzbxd" unicode="&#x2550;" horiz-adv-x="1100" 
d="M-20 450h1140v-100h-1140v100zM-20 250h1140v-100h-1140v100z" />
    <glyph glyph-name="dblvertbxd" unicode="&#x2551;" horiz-adv-x="1100" 
d="M400 1050h100v-1500h-100v1500zM600 1050h100v-1500h-100v1500z" />
    <glyph glyph-name="dnsngrightdblbxd" unicode="&#x2552;" horiz-adv-x="1100" 
d="M500 450h620v-100h-520v-100h520v-100h-520v-600h-100v900z" />
    <glyph glyph-name="dndblrightsngbxd" unicode="&#x2553;" horiz-adv-x="1100" 
d="M400 350h720v-100h-420v-700h-100v700h-100v-700h-100v800z" />
    <glyph glyph-name="dbldnrightbxd" unicode="&#x2554;" horiz-adv-x="1100" 
d="M400 450h720v-100h-620v-800h-100v900zM600 250h520v-100h-420v-600h-100v700z" />
    <glyph glyph-name="dnsngleftdblbxd" unicode="&#x2555;" horiz-adv-x="1100" 
d="M-20 450h620v-900h-100v600h-520v100h520v100h-520v100z" />
    <glyph glyph-name="dndblleftsngbxd" unicode="&#x2556;" horiz-adv-x="1100" 
d="M-20 350h720v-800h-100v700h-100v-700h-100v700h-420v100z" />
    <glyph glyph-name="dbldnleftbxd" unicode="&#x2557;" horiz-adv-x="1100" 
d="M-20 450h720v-900h-100v800h-620v100zM-20 250h520v-700h-100v600h-420v100z" />
    <glyph glyph-name="upsngrightdblbxd" unicode="&#x2558;" horiz-adv-x="1100" 
d="M500 1050h100v-600h520v-100h-520v-100h520v-100h-620v900z" />
    <glyph glyph-name="updblrightsngbxd" unicode="&#x2559;" horiz-adv-x="1100" 
d="M400 1050h100v-700h100v700h100v-700h420v-100h-720v800z" />
    <glyph glyph-name="dbluprightbxd" unicode="&#x255a;" horiz-adv-x="1100" 
d="M400 1050h100v-800h620v-100h-720v900zM600 1050h100v-600h420v-100h-520v700z" />
    <glyph glyph-name="upsngleftdblbxd" unicode="&#x255b;" horiz-adv-x="1100" 
d="M-20 450h520v600h100v-900h-620v100h520v100h-520v100z" />
    <glyph glyph-name="updblleftsngbxd" unicode="&#x255c;" horiz-adv-x="1100" 
d="M-20 350h420v700h100v-700h100v700h100v-800h-720v100z" />
    <glyph glyph-name="dblupleftbxd" unicode="&#x255d;" horiz-adv-x="1100" 
d="M-20 250h620v800h100v-900h-720v100zM-20 450h420v600h100v-700h-520v100z" />
    <glyph glyph-name="vertsngrightdblbxd" unicode="&#x255e;" horiz-adv-x="1100" 
d="M500 1050h100v-600h520v-100h-520v-100h520v-100h-520v-600h-100v1500z" />
    <glyph glyph-name="vertdblrightsngbxd" unicode="&#x255f;" horiz-adv-x="1100" 
d="M600 1050h100v-700h420v-100h-420v-700h-100v1500zM400 1050h100v-1500h-100v1500z" />
    <glyph glyph-name="dblvertrightbxd" unicode="&#x2560;" horiz-adv-x="1100" 
d="M400 1050h100v-1500h-100v1500zM600 1050h100v-600h420v-100h-520v700zM600 250h520v-100h-420v-600h-100v700z" />
    <glyph glyph-name="vertsngleftdblbxd" unicode="&#x2561;" horiz-adv-x="1100" 
d="M-20 450h520v600h100v-1500h-100v600h-520v100h520v100h-520v100z" />
    <glyph glyph-name="vertdblleftsngbxd" unicode="&#x2562;" horiz-adv-x="1100" 
d="M-20 350h420v700h100v-1500h-100v700h-420v100zM600 1050h100v-1500h-100v1500z" />
    <glyph glyph-name="dblvertleftbxd" unicode="&#x2563;" horiz-adv-x="1100" 
d="M600 1050h100v-1500h-100v1500zM-20 250h520v-700h-100v600h-420v100zM-20 450h420v600h100v-700h-520v100z" />
    <glyph glyph-name="dnsnghorzdblbxd" unicode="&#x2564;" horiz-adv-x="1100" 
d="M-20 250h1140v-100h-520v-600h-100v600h-520v100zM-20 450h1140v-100h-1140v100z" />
    <glyph glyph-name="dndblhorzsngbxd" unicode="&#x2565;" horiz-adv-x="1100" 
d="M-20 350h1140v-100h-420v-700h-100v700h-100v-700h-100v700h-420v100z" />
    <glyph glyph-name="dbldnhorzbxd" unicode="&#x2566;" horiz-adv-x="1100" 
d="M-20 450h1140v-100h-1140v100zM600 250h520v-100h-420v-600h-100v700zM-20 250h520v-700h-100v600h-420v100z" />
    <glyph glyph-name="upsnghorzdblbxd" unicode="&#x2567;" horiz-adv-x="1100" 
d="M-20 450h520v600h100v-600h520v-100h-1140v100zM-20 250h1140v-100h-1140v100z" />
    <glyph glyph-name="updblhorzsngbxd" unicode="&#x2568;" horiz-adv-x="1100" 
d="M-20 350h420v700h100v-700h100v700h100v-700h420v-100h-1140v100z" />
    <glyph glyph-name="dbluphorzbxd" unicode="&#x2569;" horiz-adv-x="1100" 
d="M-20 250h1140v-100h-1140v100zM-20 450h420v600h100v-700h-520v100zM600 1050h100v-600h420v-100h-520v700z" />
    <glyph glyph-name="vertsnghorzdblbxd" unicode="&#x256a;" horiz-adv-x="1100" 
d="M-20 450h520v600h100v-600h520v-100h-520v-100h520v-100h-520v-600h-100v600h-520v100h520v100h-520v100z" />
    <glyph glyph-name="vertdblhorzsngbxd" unicode="&#x256b;" horiz-adv-x="1100" 
d="M-20 350h420v700h100v-700h100v700h100v-700h420v-100h-420v-700h-100v700h-100v-700h-100v700h-420v100z" />
    <glyph glyph-name="dblverthorzbxd" unicode="&#x256c;" horiz-adv-x="1100" 
d="M-20 450h420v600h100v-700h-520v100zM-20 250h520v-700h-100v600h-420v100zM600 1050h100v-600h420v-100h-520v700zM600 250h520v-100h-420v-600h-100v700z" />
    <glyph glyph-name="lightarcdnrightbxd" unicode="&#x256d;" horiz-adv-x="1100" 
d="M500 -250q0 124 47 233.5t128.5 191t191 128.5t233.5 47h20v-100h-20q-69 0 -133 -18t-119.5 -50.5t-101 -78t-78 -101t-50.5 -119.5t-18 -133v-200h-100v200z" />
    <glyph glyph-name="lightarcdnleftbxd" unicode="&#x256e;" horiz-adv-x="1100" 
d="M600 -450h-100v200q0 103 -39.5 194.5t-107 159t-159 107t-194.5 39.5h-20v100h20q124 0 233.5 -47t191 -128.5t128.5 -191t47 -233.5v-200z" />
    <glyph glyph-name="lightarcupleftbxd" unicode="&#x256f;" horiz-adv-x="1100" 
d="M600 850q0 -124 -47 -233.5t-128.5 -191t-191 -128.5t-233.5 -47h-20v100h20q69 0 133 18t119.5 50.5t101 78t78 101t50.5 119.5t18 133v200h100v-200z" />
    <glyph glyph-name="lightarcuprightbxd" unicode="&#x2570;" horiz-adv-x="1100" 
d="M500 1050h100v-200q0 -69 18 -133t50.5 -119.5t78 -101t101 -78t119.5 -50.5t133 -18h20v-100h-20q-124 0 -233.5 47t-191 128.5t-128.5 191t-47 233.5v200z" />
    <glyph glyph-name="lightdiaguprightdnleftbxd" unicode="&#x2571;" horiz-adv-x="1100" 
d="M1029 850h71v-71l-1029 -1029h-71v71z" />
    <glyph glyph-name="lightdiagupleftdnrightbxd" unicode="&#x2572;" horiz-adv-x="1100" 
d="M1100 -179v-71h-71l-1029 1029v71h71z" />
    <glyph glyph-name="lightdiagcrossbxd" unicode="&#x2573;" horiz-adv-x="1100" 
d="M479 300l-479 479v71h71l479 -479l479 479h71v-71l-479 -479l479 -479v-71h-71l-479 479l-479 -479h-71v71z" />
    <glyph glyph-name="lightleftbxd" unicode="&#x2574;" horiz-adv-x="1100" 
d="M-20 350h620v-100h-620v100z" />
    <glyph glyph-name="lightupbxd" unicode="&#x2575;" horiz-adv-x="1100" 
d="M500 1050h100v-800h-100v800z" />
    <glyph glyph-name="lightrightbxd" unicode="&#x2576;" horiz-adv-x="1100" 
d="M500 350h620v-100h-620v100z" />
    <glyph glyph-name="lightdnbxd" unicode="&#x2577;" horiz-adv-x="1100" 
d="M500 350h100v-800h-100v800z" />
    <glyph glyph-name="heavyleftbxd" unicode="&#x2578;" horiz-adv-x="1100" 
d="M-20 400h620v-200h-620v200z" />
    <glyph glyph-name="heavyupbxd" unicode="&#x2579;" horiz-adv-x="1100" 
d="M450 1050h200v-800h-200v800z" />
    <glyph glyph-name="heavyrightbxd" unicode="&#x257a;" horiz-adv-x="1100" 
d="M500 400h620v-200h-620v200z" />
    <glyph glyph-name="heavydnbxd" unicode="&#x257b;" horiz-adv-x="1100" 
d="M450 350h200v-800h-200v800z" />
    <glyph glyph-name="lightleftheavyrightbxd" unicode="&#x257c;" horiz-adv-x="1100" 
d="M-20 350h520v50h620v-200h-620v50h-520v100z" />
    <glyph glyph-name="lightupheavydnbxd" unicode="&#x257d;" horiz-adv-x="1100" 
d="M450 350h50v700h100v-700h50v-800h-200v800z" />
    <glyph glyph-name="heavyleftlightrightbxd" unicode="&#x257e;" horiz-adv-x="1100" 
d="M-20 400h620v-50h520v-100h-520v-50h-620v200z" />
    <glyph glyph-name="heavyuplightdnbxd" unicode="&#x257f;" horiz-adv-x="1100" 
d="M450 1050h200v-800h-50v-700h-100v700h-50v800z" />
    <glyph glyph-name="uphalfblock" unicode="&#x2580;" horiz-adv-x="1100" 
d="M0 850h1100v-550h-1100v550z" />
    <glyph glyph-name="dneighthblock" unicode="&#x2581;" horiz-adv-x="1100" 
d="M0 -113h1100v-137h-1100v137z" />
    <glyph glyph-name="dnquarterblock" unicode="&#x2582;" horiz-adv-x="1100" 
d="M0 25h1100v-275h-1100v275z" />
    <glyph glyph-name="dnthreeeighthsblock" unicode="&#x2583;" horiz-adv-x="1100" 
d="M0 162h1100v-412h-1100v412z" />
    <glyph glyph-name="dnhalfblock" unicode="&#x2584;" horiz-adv-x="1100" 
d="M0 300h1100v-550h-1100v550z" />
    <glyph glyph-name="dnfiveeighthsblock" unicode="&#x2585;" horiz-adv-x="1100" 
d="M0 437h1100v-687h-1100v687z" />
    <glyph glyph-name="dnthreequartersblock" unicode="&#x2586;" horiz-adv-x="1100" 
d="M0 575h1100v-825h-1100v825z" />
    <glyph glyph-name="dnseveneighthsblock" unicode="&#x2587;" horiz-adv-x="1100" 
d="M0 712h1100v-962h-1100v962z" />
    <glyph glyph-name="fullblock" unicode="&#x2588;" horiz-adv-x="1100" 
d="M0 850h1100v-1100h-1100v1100z" />
    <glyph glyph-name="leftseveneighthsblock" unicode="&#x2589;" horiz-adv-x="1100" 
d="M0 850h962v-1100h-962v1100z" />
    <glyph glyph-name="leftthreequartersblock" unicode="&#x258a;" horiz-adv-x="1100" 
d="M0 850h825v-1100h-825v1100z" />
    <glyph glyph-name="leftfiveeighthsblock" unicode="&#x258b;" horiz-adv-x="1100" 
d="M0 850h687v-1100h-687v1100z" />
    <glyph glyph-name="lefthalfblock" unicode="&#x258c;" horiz-adv-x="1100" 
d="M0 850h550v-1100h-550v1100z" />
    <glyph glyph-name="leftthreeeighthsblock" unicode="&#x258d;" horiz-adv-x="1100" 
d="M0 850h412v-1100h-412v1100z" />
    <glyph glyph-name="leftquarterblock" unicode="&#x258e;" horiz-adv-x="1100" 
d="M0 850h275v-1100h-275v1100z" />
    <glyph glyph-name="lefteighthblock" unicode="&#x258f;" horiz-adv-x="1100" 
d="M0 850h137v-1100h-137v1100z" />
    <glyph glyph-name="righthalfblock" unicode="&#x2590;" horiz-adv-x="1100" 
d="M550 850h550v-1100h-550v1100z" />
    <glyph glyph-name="lightshade" unicode="&#x2591;" horiz-adv-x="1100" 
d="M0 -220h20v-30h-20v30zM50 -170h20v-30h-20v30zM0 -120h20v-30h-20v30zM50 -70h20v-30h-20v30zM0 -20h20v-30h-20v30zM50 30h20v-30h-20v30zM0 80h20v-30h-20v30zM50 130h20v-30h-20v30zM0 180h20v-30h-20v30zM50 230h20v-30h-20v30zM0 280h20v-30h-20v30zM50 330h20v-30
h-20v30zM0 380h20v-30h-20v30zM50 430h20v-30h-20v30zM0 480h20v-30h-20v30zM50 530h20v-30h-20v30zM0 580h20v-30h-20v30zM50 630h20v-30h-20v30zM0 680h20v-30h-20v30zM50 730h20v-30h-20v30zM0 780h20v-30h-20v30zM50 830h20v-30h-20v30zM100 -220h20v-30h-20v30z
M150 -170h20v-30h-20v30zM100 -120h20v-30h-20v30zM150 -70h20v-30h-20v30zM100 -20h20v-30h-20v30zM150 30h20v-30h-20v30zM100 80h20v-30h-20v30zM150 130h20v-30h-20v30zM100 180h20v-30h-20v30zM150 230h20v-30h-20v30zM100 280h20v-30h-20v30zM150 330h20v-30h-20v30z
M100 380h20v-30h-20v30zM150 430h20v-30h-20v30zM100 480h20v-30h-20v30zM150 530h20v-30h-20v30zM100 580h20v-30h-20v30zM150 630h20v-30h-20v30zM100 680h20v-30h-20v30zM150 730h20v-30h-20v30zM100 780h20v-30h-20v30zM150 830h20v-30h-20v30zM200 -220h20v-30h-20v30z
M250 -170h20v-30h-20v30zM200 -120h20v-30h-20v30zM250 -70h20v-30h-20v30zM200 -20h20v-30h-20v30zM250 30h20v-30h-20v30zM200 80h20v-30h-20v30zM250 130h20v-30h-20v30zM200 180h20v-30h-20v30zM250 230h20v-30h-20v30zM200 280h20v-30h-20v30zM250 330h20v-30h-20v30z
M200 380h20v-30h-20v30zM250 430h20v-30h-20v30zM200 480h20v-30h-20v30zM250 530h20v-30h-20v30zM200 580h20v-30h-20v30zM250 630h20v-30h-20v30zM200 680h20v-30h-20v30zM250 730h20v-30h-20v30zM200 780h20v-30h-20v30zM250 830h20v-30h-20v30zM300 -220h20v-30h-20v30z
M350 -170h20v-30h-20v30zM300 -120h20v-30h-20v30zM350 -70h20v-30h-20v30zM300 -20h20v-30h-20v30zM350 30h20v-30h-20v30zM300 80h20v-30h-20v30zM350 130h20v-30h-20v30zM300 180h20v-30h-20v30zM350 230h20v-30h-20v30zM300 280h20v-30h-20v30zM350 330h20v-30h-20v30z
M300 380h20v-30h-20v30zM350 430h20v-30h-20v30zM300 480h20v-30h-20v30zM350 530h20v-30h-20v30zM300 580h20v-30h-20v30zM350 630h20v-30h-20v30zM300 680h20v-30h-20v30zM350 730h20v-30h-20v30zM300 780h20v-30h-20v30zM350 830h20v-30h-20v30zM400 -220h20v-30h-20v30z
M450 -170h20v-30h-20v30zM400 -120h20v-30h-20v30zM450 -70h20v-30h-20v30zM400 -20h20v-30h-20v30zM450 30h20v-30h-20v30zM400 80h20v-30h-20v30zM450 130h20v-30h-20v30zM400 180h20v-30h-20v30zM450 230h20v-30h-20v30zM400 280h20v-30h-20v30zM450 330h20v-30h-20v30z
M400 380h20v-30h-20v30zM450 430h20v-30h-20v30zM400 480h20v-30h-20v30zM450 530h20v-30h-20v30zM400 580h20v-30h-20v30zM450 630h20v-30h-20v30zM400 680h20v-30h-20v30zM450 730h20v-30h-20v30zM400 780h20v-30h-20v30zM450 830h20v-30h-20v30zM500 -220h20v-30h-20v30z
M550 -170h20v-30h-20v30zM500 -120h20v-30h-20v30zM550 -70h20v-30h-20v30zM500 -20h20v-30h-20v30zM550 30h20v-30h-20v30zM500 80h20v-30h-20v30zM550 130h20v-30h-20v30zM500 180h20v-30h-20v30zM550 230h20v-30h-20v30zM500 280h20v-30h-20v30zM550 330h20v-30h-20v30z
M500 380h20v-30h-20v30zM550 430h20v-30h-20v30zM500 480h20v-30h-20v30zM550 530h20v-30h-20v30zM500 580h20v-30h-20v30zM550 630h20v-30h-20v30zM500 680h20v-30h-20v30zM550 730h20v-30h-20v30zM500 780h20v-30h-20v30zM550 830h20v-30h-20v30zM600 -220h20v-30h-20v30z
M650 -170h20v-30h-20v30zM600 -120h20v-30h-20v30zM650 -70h20v-30h-20v30zM600 -20h20v-30h-20v30zM650 30h20v-30h-20v30zM600 80h20v-30h-20v30zM650 130h20v-30h-20v30zM600 180h20v-30h-20v30zM650 230h20v-30h-20v30zM600 280h20v-30h-20v30zM650 330h20v-30h-20v30z
M600 380h20v-30h-20v30zM650 430h20v-30h-20v30zM600 480h20v-30h-20v30zM650 530h20v-30h-20v30zM600 580h20v-30h-20v30zM650 630h20v-30h-20v30zM600 680h20v-30h-20v30zM650 730h20v-30h-20v30zM600 780h20v-30h-20v30zM650 830h20v-30h-20v30zM700 -220h20v-30h-20v30z
M750 -170h20v-30h-20v30zM700 -120h20v-30h-20v30zM750 -70h20v-30h-20v30zM700 -20h20v-30h-20v30zM750 30h20v-30h-20v30zM700 80h20v-30h-20v30zM750 130h20v-30h-20v30zM700 180h20v-30h-20v30zM750 230h20v-30h-20v30zM700 280h20v-30h-20v30zM750 330h20v-30h-20v30z
M700 380h20v-30h-20v30zM750 430h20v-30h-20v30zM700 480h20v-30h-20v30zM750 530h20v-30h-20v30zM700 580h20v-30h-20v30zM750 630h20v-30h-20v30zM700 680h20v-30h-20v30zM750 730h20v-30h-20v30zM700 780h20v-30h-20v30zM750 830h20v-30h-20v30zM800 -220h20v-30h-20v30z
M850 -170h20v-30h-20v30zM800 -120h20v-30h-20v30zM850 -70h20v-30h-20v30zM800 -20h20v-30h-20v30zM850 30h20v-30h-20v30zM800 80h20v-30h-20v30zM850 130h20v-30h-20v30zM800 180h20v-30h-20v30zM850 230h20v-30h-20v30zM800 280h20v-30h-20v30zM850 330h20v-30h-20v30z
M800 380h20v-30h-20v30zM850 430h20v-30h-20v30zM800 480h20v-30h-20v30zM850 530h20v-30h-20v30zM800 580h20v-30h-20v30zM850 630h20v-30h-20v30zM800 680h20v-30h-20v30zM850 730h20v-30h-20v30zM800 780h20v-30h-20v30zM850 830h20v-30h-20v30zM900 -220h20v-30h-20v30z
M950 -170h20v-30h-20v30zM900 -120h20v-30h-20v30zM950 -70h20v-30h-20v30zM900 -20h20v-30h-20v30zM950 30h20v-30h-20v30zM900 80h20v-30h-20v30zM950 130h20v-30h-20v30zM900 180h20v-30h-20v30zM950 230h20v-30h-20v30zM900 280h20v-30h-20v30zM950 330h20v-30h-20v30z
M900 380h20v-30h-20v30zM950 430h20v-30h-20v30zM900 480h20v-30h-20v30zM950 530h20v-30h-20v30zM900 580h20v-30h-20v30zM950 630h20v-30h-20v30zM900 680h20v-30h-20v30zM950 730h20v-30h-20v30zM900 780h20v-30h-20v30zM950 830h20v-30h-20v30zM1000 -220h20v-30h-20v30
zM1050 -170h20v-30h-20v30zM1000 -120h20v-30h-20v30zM1050 -70h20v-30h-20v30zM1000 -20h20v-30h-20v30zM1050 30h20v-30h-20v30zM1000 80h20v-30h-20v30zM1050 130h20v-30h-20v30zM1000 180h20v-30h-20v30zM1050 230h20v-30h-20v30zM1000 280h20v-30h-20v30zM1050 330h20
v-30h-20v30zM1000 380h20v-30h-20v30zM1050 430h20v-30h-20v30zM1000 480h20v-30h-20v30zM1050 530h20v-30h-20v30zM1000 580h20v-30h-20v30zM1050 630h20v-30h-20v30zM1000 680h20v-30h-20v30zM1050 730h20v-30h-20v30zM1000 780h20v-30h-20v30zM1050 830h20v-30h-20v30z
" />
    </font>
</defs>
</svg>
