<?xml version="1.0" standalone="no"?>
<!DOCTYPE svg PUBLIC "-//W3C//DTD SVG 1.1//EN" "http://www.w3.org/Graphics/SVG/1.1/DTD/svg11.dtd" >
<svg>
<metadata>
Created by FontForge 20090622 at Sat Jan  9 22:07:18 2016
 By deploy user
(c) Copyright The Font Bureau, Inc. 2014. All rights reserved.
</metadata>
<defs>
<font id="Input-Italic" horiz-adv-x="680" >
  <font-face 
    font-family="Input"
    font-weight="400"
    font-style="italic"
    font-stretch="condensed"
    units-per-em="1100"
    panose-1="2 0 6 6 3 0 0 9 0 4"
    ascent="850"
    descent="-250"
    x-height="600"
    cap-height="800"
    bbox="-247.092 -450 1292.32 1400"
    underline-thickness="0"
    underline-position="0"
    slope="-6"
    unicode-range="U+000D-U+1F41B"
  />
<missing-glyph horiz-adv-x="763" 
d="M50 -250v1100h663v-1100h-663zM150 -150h463v900h-463v-900z" />
    <glyph glyph-name=".notdef" horiz-adv-x="763" 
d="M50 -250v1100h663v-1100h-663zM150 -150h463v900h-463v-900z" />
    <glyph glyph-name="NULL" horiz-adv-x="0" 
 />
    <glyph glyph-name="nonmarkingreturn" unicode="&#xd;" horiz-adv-x="0" 
 />
    <glyph glyph-name="space" unicode="&#xa0;" horiz-adv-x="510" 
 />
    <glyph glyph-name="space" unicode=" " horiz-adv-x="510" 
 />
    <glyph glyph-name="A" unicode="A" horiz-adv-x="688" 
d="M419 323l-51 355l-126 -355h177zM465 0l-31 213h-231l-75 -213h-132l302 800h178l132 -800h-143z" />
    <glyph glyph-name="Agrave" unicode="&#xc0;" horiz-adv-x="688" 
d="M419 323l-51 355l-126 -355h177zM465 0l-31 213h-231l-75 -213h-132l302 800h178l132 -800h-143zM385 900l-158 200h182l75 -200h-99z" />
    <glyph glyph-name="Aacute" unicode="&#xc1;" horiz-adv-x="688" 
d="M419 323l-51 355l-126 -355h177zM465 0l-31 213h-231l-75 -213h-132l302 800h178l132 -800h-143zM289 900l118 200h182l-201 -200h-99z" />
    <glyph glyph-name="Acircumflex" unicode="&#xc2;" horiz-adv-x="688" 
d="M419 323l-51 355l-126 -355h177zM465 0l-31 213h-231l-75 -213h-132l302 800h178l132 -800h-143zM237 900l-42 68l170 152h106l140 -152l-55 -67l-150 109z" />
    <glyph glyph-name="Atilde" unicode="&#xc3;" horiz-adv-x="688" 
d="M419 323l-51 355l-126 -355h177zM465 0l-31 213h-231l-75 -213h-132l302 800h178l132 -800h-143zM472 910q-35 0 -55 16t-34 38l-20.5 36.5t-25.5 16.5t-28 -17.5t-16 -63.5l-1 -16h-93l1 15q9 80 47.5 131t98.5 51q34 0 54 -15.5t34 -38.5l20.5 -37t23.5 -17q16 0 28 18
t17 64l1 16h93l-1 -15q-9 -81 -47 -131.5t-97 -50.5z" />
    <glyph glyph-name="Adieresis" unicode="&#xc4;" horiz-adv-x="688" 
d="M419 323l-51 355l-126 -355h177zM465 0l-31 213h-231l-75 -213h-132l302 800h178l132 -800h-143zM291 903q-32 0 -51 13.5t-15 50.5l1 10q4 37 26 51.5t54 14.5q33 0 51.5 -14.5t14.5 -51.5l-1 -10q-4 -37 -26 -50.5t-54 -13.5zM501 903q-33 0 -51.5 13.5t-14.5 50.5
l1 10q4 37 25.5 51.5t54.5 14.5q32 0 51 -14.5t15 -51.5l-1 -10q-4 -37 -26.5 -50.5t-53.5 -13.5z" />
    <glyph glyph-name="Aring" unicode="&#xc5;" horiz-adv-x="688" 
d="M419 323l-51 355l-126 -355h177zM465 0l-31 213h-231l-75 -213h-132l302 800h178l132 -800h-143zM394 882q-72 0 -113.5 36t-33.5 112l4 32q8 77 56.5 114t120.5 37q73 0 114 -37t33 -114l-4 -32q-8 -76 -56.5 -112t-120.5 -36zM402 959q31 0 48.5 16.5t21.5 54.5l4 32
q3 37 -11 55.5t-45 18.5t-49 -18.5t-21 -55.5l-4 -32q-4 -38 10.5 -54.5t45.5 -16.5z" />
    <glyph glyph-name="Amacron" unicode="&#x100;" horiz-adv-x="688" 
d="M419 323l-51 355l-126 -355h177zM465 0l-31 213h-231l-75 -213h-132l302 800h178l132 -800h-143zM219 945l12 110h362l-12 -110h-362z" />
    <glyph glyph-name="Abreve" unicode="&#x102;" horiz-adv-x="688" 
d="M419 323l-51 355l-126 -355h177zM465 0l-31 213h-231l-75 -213h-132l302 800h178l132 -800h-143zM395 893q-104 0 -153 53.5t-38 166.5h118q-7 -71 12.5 -99t70.5 -28t75.5 28t33.5 99h118q-13 -113 -73 -166.5t-164 -53.5z" />
    <glyph glyph-name="Aogonek" unicode="&#x104;" horiz-adv-x="688" 
d="M419 323l-51 355l-126 -355h177zM465 0l-31 213h-231l-75 -213h-132l302 800h178l132 -800h-143zM499 -218q-66 0 -101 32t-29 90q5 52 47 93.5t94 59.5l18 -34q-28 -19 -39 -41.5t-14 -44.5q-2 -27 12 -40.5t45 -13.5q15 0 35.5 3t43.5 7l-11 -100q-25 -5 -52 -8t-49 -3
z" />
    <glyph glyph-name="Aringacute" unicode="&#x1fa;" horiz-adv-x="688" 
d="M419 323l-51 355l-126 -355h177zM465 0l-31 213h-231l-75 -213h-132l302 800h178l132 -800h-143zM394 882q-72 0 -113.5 36t-33.5 112l4 32q8 77 56.5 114t120.5 37q73 0 114 -37t33 -114l-4 -32q-8 -76 -56.5 -112t-120.5 -36zM402 959q31 0 48.5 16.5t21.5 54.5l4 32
q3 37 -11 55.5t-45 18.5t-49 -18.5t-21 -55.5l-4 -32q-4 -38 10.5 -54.5t45.5 -16.5zM326 1200l118 200h182l-201 -200h-99z" />
    <glyph glyph-name="B" unicode="B" horiz-adv-x="763" 
d="M60 0l84 800h312q110 0 164.5 -49t44.5 -139l-4 -41q-6 -56 -37 -89t-87 -44l-3 -29q61 -7 91 -49t24 -106l-5 -47q-11 -99 -81 -153t-190 -54h-313zM250 467h154q59 0 85.5 21.5t31.5 73.5l4 35q5 52 -16.5 74t-80.5 22h-154zM212 107h157q68 0 99 25t37 85l4 39
q6 60 -19.5 84.5t-93.5 24.5h-157z" />
    <glyph glyph-name="C" unicode="C" horiz-adv-x="763" 
d="M353 -10q-150 0 -214.5 69.5t-51.5 199.5l29 278q14 131 94 202t229 71q139 0 203 -68.5t55 -209.5l-141 -10q3 99 -26.5 138t-104.5 39q-84 0 -121.5 -38t-47.5 -133l-27 -261q-10 -92 20 -129t114 -37q77 0 114 38.5t53 134.5l139 -10q-19 -138 -97.5 -206t-218.5 -68z
" />
    <glyph glyph-name="Ccedilla" unicode="&#xc7;" horiz-adv-x="763" 
d="M353 -10q-150 0 -214.5 69.5t-51.5 199.5l29 278q14 131 94 202t229 71q139 0 203 -68.5t55 -209.5l-141 -10q3 99 -26.5 138t-104.5 39q-84 0 -121.5 -38t-47.5 -133l-27 -261q-10 -92 20 -129t114 -37q77 0 114 38.5t53 134.5l139 -10q-19 -138 -97.5 -206t-218.5 -68z
M325 0l20 42q67 -9 102 -40.5t29 -91.5q-7 -66 -57.5 -97.5t-118.5 -31.5q-74 0 -115.5 28t-39.5 88l120 10q-1 -19 8 -26.5t31 -7.5q24 0 36.5 11.5t16.5 45.5q3 32 -4 47t-28 23z" />
    <glyph glyph-name="Cacute" unicode="&#x106;" horiz-adv-x="763" 
d="M353 -10q-150 0 -214.5 69.5t-51.5 199.5l29 278q14 131 94 202t229 71q139 0 203 -68.5t55 -209.5l-141 -10q3 99 -26.5 138t-104.5 39q-84 0 -121.5 -38t-47.5 -133l-27 -261q-10 -92 20 -129t114 -37q77 0 114 38.5t53 134.5l139 -10q-19 -138 -97.5 -206t-218.5 -68z
M337 900l118 200h182l-201 -200h-99z" />
    <glyph glyph-name="Ccircumflex" unicode="&#x108;" horiz-adv-x="763" 
d="M353 -10q-150 0 -214.5 69.5t-51.5 199.5l29 278q14 131 94 202t229 71q139 0 203 -68.5t55 -209.5l-141 -10q3 99 -26.5 138t-104.5 39q-84 0 -121.5 -38t-47.5 -133l-27 -261q-10 -92 20 -129t114 -37q77 0 114 38.5t53 134.5l139 -10q-19 -138 -97.5 -206t-218.5 -68z
M285 900l-42 68l170 152h106l140 -152l-55 -67l-150 109z" />
    <glyph glyph-name="Cdotaccent" unicode="&#x10a;" horiz-adv-x="763" 
d="M353 -10q-150 0 -214.5 69.5t-51.5 199.5l29 278q14 131 94 202t229 71q139 0 203 -68.5t55 -209.5l-141 -10q3 99 -26.5 138t-104.5 39q-84 0 -121.5 -38t-47.5 -133l-27 -261q-10 -92 20 -129t114 -37q77 0 114 38.5t53 134.5l139 -10q-19 -138 -97.5 -206t-218.5 -68z
M444 903q-43 0 -68 13.5t-21 50.5l1 10q4 37 32 51.5t71 14.5t68 -14.5t21 -51.5l-1 -10q-4 -37 -32.5 -50.5t-70.5 -13.5z" />
    <glyph glyph-name="Ccaron" unicode="&#x10c;" horiz-adv-x="763" 
d="M353 -10q-150 0 -214.5 69.5t-51.5 199.5l29 278q14 131 94 202t229 71q139 0 203 -68.5t55 -209.5l-141 -10q3 99 -26.5 138t-104.5 39q-84 0 -121.5 -38t-47.5 -133l-27 -261q-10 -92 20 -129t114 -37q77 0 114 38.5t53 134.5l139 -10q-19 -138 -97.5 -206t-218.5 -68z
M392 904l-140 152l55 68l150 -109l169 109l42 -68l-170 -152h-106z" />
    <glyph glyph-name="D" unicode="D" horiz-adv-x="763" 
d="M60 0l84 800h272q134 0 202 -75.5t55 -200.5l-26 -252q-13 -124 -97 -198t-219 -74h-271zM213 111h119q85 0 125.5 41t50.5 129l24 234q9 89 -23 131.5t-117 42.5h-119z" />
    <glyph glyph-name="Dcaron" unicode="&#x10e;" horiz-adv-x="763" 
d="M60 0l84 800h272q134 0 202 -75.5t55 -200.5l-26 -252q-13 -124 -97 -198t-219 -74h-271zM213 111h119q85 0 125.5 41t50.5 129l24 234q9 89 -23 131.5t-117 42.5h-119zM382 904l-140 152l55 68l150 -109l169 109l42 -68l-170 -152h-106z" />
    <glyph glyph-name="E" unicode="E" 
d="M61 0l84 800h480l-12 -111h-339l-21 -202h297l-11 -111h-297l-28 -265h339l-12 -111h-480z" />
    <glyph glyph-name="Egrave" unicode="&#xc8;" 
d="M61 0l84 800h480l-12 -111h-339l-21 -202h297l-11 -111h-297l-28 -265h339l-12 -111h-480zM389 900l-158 200h182l75 -200h-99z" />
    <glyph glyph-name="Eacute" unicode="&#xc9;" 
d="M61 0l84 800h480l-12 -111h-339l-21 -202h297l-11 -111h-297l-28 -265h339l-12 -111h-480zM293 900l118 200h182l-201 -200h-99z" />
    <glyph glyph-name="Ecircumflex" unicode="&#xca;" 
d="M61 0l84 800h480l-12 -111h-339l-21 -202h297l-11 -111h-297l-28 -265h339l-12 -111h-480zM241 900l-42 68l170 152h106l140 -152l-55 -67l-150 109z" />
    <glyph glyph-name="Edieresis" unicode="&#xcb;" 
d="M61 0l84 800h480l-12 -111h-339l-21 -202h297l-11 -111h-297l-28 -265h339l-12 -111h-480zM297 903q-32 0 -51 13.5t-15 50.5l1 10q4 37 26 51.5t54 14.5q33 0 51.5 -14.5t14.5 -51.5l-1 -10q-4 -37 -26 -50.5t-54 -13.5zM507 903q-33 0 -51.5 13.5t-14.5 50.5l1 10
q4 37 25.5 51.5t54.5 14.5q32 0 51 -14.5t15 -51.5l-1 -10q-4 -37 -26.5 -50.5t-53.5 -13.5z" />
    <glyph glyph-name="Emacron" unicode="&#x112;" 
d="M61 0l84 800h480l-12 -111h-339l-21 -202h297l-11 -111h-297l-28 -265h339l-12 -111h-480zM223 945l12 110h362l-12 -110h-362z" />
    <glyph glyph-name="Ebreve" unicode="&#x114;" 
d="M61 0l84 800h480l-12 -111h-339l-21 -202h297l-11 -111h-297l-28 -265h339l-12 -111h-480zM399 893q-104 0 -153 53.5t-38 166.5h118q-7 -71 12.5 -99t70.5 -28t75.5 28t33.5 99h118q-13 -113 -73 -166.5t-164 -53.5z" />
    <glyph glyph-name="Edotaccent" unicode="&#x116;" 
d="M61 0l84 800h480l-12 -111h-339l-21 -202h297l-11 -111h-297l-28 -265h339l-12 -111h-480zM401 903q-43 0 -68 13.5t-21 50.5l1 10q4 37 32 51.5t71 14.5t68 -14.5t21 -51.5l-1 -10q-4 -37 -32.5 -50.5t-70.5 -13.5z" />
    <glyph glyph-name="Eogonek" unicode="&#x118;" 
d="M416 -218q-66 0 -101 32t-29 90q5 52 47 93.5t94 59.5l18 -34q-28 -19 -39 -41.5t-14 -44.5q-2 -27 12 -40.5t45 -13.5q15 0 35.5 3t43.5 7l-11 -100q-25 -5 -52 -8t-49 -3zM61 0l84 800h480l-12 -111h-339l-21 -202h297l-11 -111h-297l-28 -265h339l-12 -111h-480z" />
    <glyph glyph-name="Ecaron" unicode="&#x11a;" 
d="M61 0l84 800h480l-12 -111h-339l-21 -202h297l-11 -111h-297l-28 -265h339l-12 -111h-480zM348 904l-140 152l55 68l150 -109l169 109l42 -68l-170 -152h-106z" />
    <glyph glyph-name="F" unicode="F" 
d="M61 0l84 800h492l-12 -111h-351l-28 -272h292l-12 -110h-292l-32 -307h-141z" />
    <glyph glyph-name="G" unicode="G" horiz-adv-x="763" 
d="M345 -10q-141 0 -206 71t-52 198l29 278q14 129 92 201t214 72q138 0 197 -59t52 -192l-142 -10q2 83 -22 116.5t-96 33.5q-78 0 -111.5 -39t-42.5 -131l-28 -262q-9 -90 20 -128t113 -38q77 0 109 43t42 146h-143l12 111h284l-13 -128q-14 -133 -92.5 -208t-215.5 -75z
" />
    <glyph glyph-name="Gcircumflex" unicode="&#x11c;" horiz-adv-x="763" 
d="M345 -10q-141 0 -206 71t-52 198l29 278q14 129 92 201t214 72q138 0 197 -59t52 -192l-142 -10q2 83 -22 116.5t-96 33.5q-78 0 -111.5 -39t-42.5 -131l-28 -262q-9 -90 20 -128t113 -38q77 0 109 43t42 146h-143l12 111h284l-13 -128q-14 -133 -92.5 -208t-215.5 -75z
M277 900l-42 68l170 152h106l140 -152l-55 -67l-150 109z" />
    <glyph glyph-name="Gbreve" unicode="&#x11e;" horiz-adv-x="763" 
d="M345 -10q-141 0 -206 71t-52 198l29 278q14 129 92 201t214 72q138 0 197 -59t52 -192l-142 -10q2 83 -22 116.5t-96 33.5q-78 0 -111.5 -39t-42.5 -131l-28 -262q-9 -90 20 -128t113 -38q77 0 109 43t42 146h-143l12 111h284l-13 -128q-14 -133 -92.5 -208t-215.5 -75z
M435 893q-104 0 -153 53.5t-38 166.5h118q-7 -71 12.5 -99t70.5 -28t75.5 28t33.5 99h118q-13 -113 -73 -166.5t-164 -53.5z" />
    <glyph glyph-name="Gdotaccent" unicode="&#x120;" horiz-adv-x="763" 
d="M345 -10q-141 0 -206 71t-52 198l29 278q14 129 92 201t214 72q138 0 197 -59t52 -192l-142 -10q2 83 -22 116.5t-96 33.5q-78 0 -111.5 -39t-42.5 -131l-28 -262q-9 -90 20 -128t113 -38q77 0 109 43t42 146h-143l12 111h284l-13 -128q-14 -133 -92.5 -208t-215.5 -75z
M436 903q-43 0 -68 13.5t-21 50.5l1 10q4 37 32 51.5t71 14.5t68 -14.5t21 -51.5l-1 -10q-4 -37 -32.5 -50.5t-70.5 -13.5z" />
    <glyph glyph-name="Gcommaaccent" unicode="&#x122;" horiz-adv-x="763" 
d="M181 -300l84 200h182l-167 -200h-99zM345 -10q-141 0 -206 71t-52 198l29 278q14 129 92 201t214 72q138 0 197 -59t52 -192l-142 -10q2 83 -22 116.5t-96 33.5q-78 0 -111.5 -39t-42.5 -131l-28 -262q-9 -90 20 -128t113 -38q77 0 109 43t42 146h-143l12 111h284
l-13 -128q-14 -133 -92.5 -208t-215.5 -75z" />
    <glyph glyph-name="H" unicode="H" horiz-adv-x="763" 
d="M60 0l84 800h141l-32 -306h277l32 306h140l-84 -800h-140l40 383h-277l-40 -383h-141z" />
    <glyph glyph-name="Hcircumflex" unicode="&#x124;" horiz-adv-x="763" 
d="M60 0l84 800h141l-32 -306h277l32 306h140l-84 -800h-140l40 383h-277l-40 -383h-141zM275 900l-42 68l170 152h106l140 -152l-55 -67l-150 109z" />
    <glyph glyph-name="I" unicode="I" 
d="M61 0l12 111h167l60 578h-167l12 111h475l-12 -111h-167l-60 -578h167l-12 -111h-475z" />
    <glyph glyph-name="Igrave" unicode="&#xcc;" 
d="M61 0l12 111h167l60 578h-167l12 111h475l-12 -111h-167l-60 -578h167l-12 -111h-475zM380 900l-158 200h182l75 -200h-99z" />
    <glyph glyph-name="Iacute" unicode="&#xcd;" 
d="M61 0l12 111h167l60 578h-167l12 111h475l-12 -111h-167l-60 -578h167l-12 -111h-475zM284 900l118 200h182l-201 -200h-99z" />
    <glyph glyph-name="Icircumflex" unicode="&#xce;" 
d="M61 0l12 111h167l60 578h-167l12 111h475l-12 -111h-167l-60 -578h167l-12 -111h-475zM232 900l-42 68l170 152h106l140 -152l-55 -67l-150 109z" />
    <glyph glyph-name="Idieresis" unicode="&#xcf;" 
d="M61 0l12 111h167l60 578h-167l12 111h475l-12 -111h-167l-60 -578h167l-12 -111h-475zM286 903q-32 0 -51 13.5t-15 50.5l1 10q4 37 26 51.5t54 14.5q33 0 51.5 -14.5t14.5 -51.5l-1 -10q-4 -37 -26 -50.5t-54 -13.5zM496 903q-33 0 -51.5 13.5t-14.5 50.5l1 10
q4 37 25.5 51.5t54.5 14.5q32 0 51 -14.5t15 -51.5l-1 -10q-4 -37 -26.5 -50.5t-53.5 -13.5z" />
    <glyph glyph-name="Itilde" unicode="&#x128;" 
d="M61 0l12 111h167l60 578h-167l12 111h475l-12 -111h-167l-60 -578h167l-12 -111h-475zM467 910q-35 0 -55 16t-34 38l-20.5 36.5t-25.5 16.5t-28 -17.5t-16 -63.5l-1 -16h-93l1 15q9 80 47.5 131t98.5 51q34 0 54 -15.5t34 -38.5l20.5 -37t23.5 -17q16 0 28 18t17 64
l1 16h93l-1 -15q-9 -81 -47 -131.5t-97 -50.5z" />
    <glyph glyph-name="Imacron" unicode="&#x12a;" 
d="M61 0l12 111h167l60 578h-167l12 111h475l-12 -111h-167l-60 -578h167l-12 -111h-475zM214 945l12 110h362l-12 -110h-362z" />
    <glyph glyph-name="Ibreve" unicode="&#x12c;" 
d="M61 0l12 111h167l60 578h-167l12 111h475l-12 -111h-167l-60 -578h167l-12 -111h-475zM390 893q-104 0 -153 53.5t-38 166.5h118q-7 -71 12.5 -99t70.5 -28t75.5 28t33.5 99h118q-13 -113 -73 -166.5t-164 -53.5z" />
    <glyph glyph-name="Iogonek" unicode="&#x12e;" 
d="M61 0l12 111h167l60 578h-167l12 111h475l-12 -111h-167l-60 -578h167l-12 -111h-475zM338 -218q-66 0 -101 32t-29 90q5 52 47 93.5t94 59.5l18 -34q-28 -19 -39 -41.5t-14 -44.5q-2 -27 12 -40.5t45 -13.5q15 0 35.5 3t43.5 7l-11 -100q-25 -5 -52 -8t-49 -3z" />
    <glyph glyph-name="Idotaccent" unicode="&#x130;" 
d="M61 0l12 111h167l60 578h-167l12 111h475l-12 -111h-167l-60 -578h167l-12 -111h-475zM391 903q-43 0 -68 13.5t-21 50.5l1 10q4 37 32 51.5t71 14.5t68 -14.5t21 -51.5l-1 -10q-4 -37 -32.5 -50.5t-70.5 -13.5z" />
    <glyph glyph-name="J" unicode="J" 
d="M285 -10q-135 0 -187 61.5t-42 215.5l141 11q-4 -107 15.5 -142t84.5 -35q63 0 89.5 35.5t35.5 119.5l45 433h-195l12 111h336l-57 -547q-14 -131 -80.5 -197t-197.5 -66z" />
    <glyph glyph-name="Jcircumflex" unicode="&#x134;" 
d="M285 -10q-135 0 -187 61.5t-42 215.5l141 11q-4 -107 15.5 -142t84.5 -35q63 0 89.5 35.5t35.5 119.5l45 433h-195l12 111h336l-57 -547q-14 -131 -80.5 -197t-197.5 -66zM305 900l-42 68l170 152h106l140 -152l-55 -67l-150 109z" />
    <glyph glyph-name="K" unicode="K" 
d="M240 364l-38 -364h-141l84 800h141l-34 -324h32l244 324h156l-292 -368l205 -432h-163l-160 364h-34z" />
    <glyph glyph-name="Kcommaaccent" unicode="&#x136;" 
d="M240 364l-38 -364h-141l84 800h141l-34 -324h32l244 324h156l-292 -368l205 -432h-163l-160 364h-34zM144 -300l84 200h182l-167 -200h-99z" />
    <glyph glyph-name="L" unicode="L" horiz-adv-x="596" 
d="M60 0l84 800h141l-72 -689h295l-12 -111h-436z" />
    <glyph glyph-name="Lacute" unicode="&#x139;" horiz-adv-x="596" 
d="M60 0l84 800h141l-72 -689h295l-12 -111h-436zM127 900l118 200h182l-201 -200h-99z" />
    <glyph glyph-name="Lcommaaccent" unicode="&#x13b;" horiz-adv-x="596" 
d="M60 0l84 800h141l-72 -689h295l-12 -111h-436zM127 -300l84 200h182l-167 -200h-99z" />
    <glyph glyph-name="Lcaron" unicode="&#x13d;" horiz-adv-x="596" 
d="M60 0l84 800h141l-72 -689h295l-12 -111h-436zM379 505l82 295h180l-179 -295h-83z" />
    <glyph glyph-name="M" unicode="M" horiz-adv-x="847" 
d="M334 200l-84 434l-67 -634h-122l84 800h185l88 -474l189 474h180l-84 -800h-122l67 639l-176 -439h-138z" />
    <glyph glyph-name="N" unicode="N" horiz-adv-x="763" 
d="M428 0l-179 634l-67 -634h-122l84 800h191l180 -617l65 617h122l-84 -800h-190z" />
    <glyph glyph-name="Ntilde" unicode="&#xd1;" horiz-adv-x="763" 
d="M428 0l-179 634l-67 -634h-122l84 800h191l180 -617l65 617h122l-84 -800h-190zM538 910q-35 0 -55 16t-34 38l-20.5 36.5t-25.5 16.5t-28 -17.5t-16 -63.5l-1 -16h-93l1 15q9 80 47.5 131t98.5 51q34 0 54 -15.5t34 -38.5l20.5 -37t23.5 -17q16 0 28 18t17 64l1 16h93
l-1 -15q-9 -81 -47 -131.5t-97 -50.5z" />
    <glyph glyph-name="Nacute" unicode="&#x143;" horiz-adv-x="763" 
d="M428 0l-179 634l-67 -634h-122l84 800h191l180 -617l65 617h122l-84 -800h-190zM355 900l118 200h182l-201 -200h-99z" />
    <glyph glyph-name="Ncommaaccent" unicode="&#x145;" horiz-adv-x="763" 
d="M151 -300l84 200h182l-167 -200h-99zM428 0l-179 634l-67 -634h-122l84 800h191l180 -617l65 617h122l-84 -800h-190z" />
    <glyph glyph-name="Ncaron" unicode="&#x147;" horiz-adv-x="763" 
d="M428 0l-179 634l-67 -634h-122l84 800h191l180 -617l65 617h122l-84 -800h-190zM410 904l-140 152l55 68l150 -109l169 109l42 -68l-170 -152h-106z" />
    <glyph glyph-name="O" unicode="O" horiz-adv-x="763" 
d="M339 -10q-137 0 -201 70.5t-50 201.5l28 275q14 131 93.5 202t215.5 71t199.5 -71t49.5 -202l-28 -275q-14 -131 -92.5 -201.5t-214.5 -70.5zM351 101q75 0 110.5 38t44.5 131l28 259q9 93 -18.5 131.5t-102.5 38.5q-76 0 -111.5 -38.5t-44.5 -131.5l-28 -259
q-9 -93 18.5 -131t103.5 -38z" />
    <glyph glyph-name="Ograve" unicode="&#xd2;" horiz-adv-x="763" 
d="M339 -10q-137 0 -201 70.5t-50 201.5l28 275q14 131 93.5 202t215.5 71t199.5 -71t49.5 -202l-28 -275q-14 -131 -92.5 -201.5t-214.5 -70.5zM351 101q75 0 110.5 38t44.5 131l28 259q9 93 -18.5 131.5t-102.5 38.5q-76 0 -111.5 -38.5t-44.5 -131.5l-28 -259
q-9 -93 18.5 -131t103.5 -38zM423 900l-158 200h182l75 -200h-99z" />
    <glyph glyph-name="Oacute" unicode="&#xd3;" horiz-adv-x="763" 
d="M339 -10q-137 0 -201 70.5t-50 201.5l28 275q14 131 93.5 202t215.5 71t199.5 -71t49.5 -202l-28 -275q-14 -131 -92.5 -201.5t-214.5 -70.5zM351 101q75 0 110.5 38t44.5 131l28 259q9 93 -18.5 131.5t-102.5 38.5q-76 0 -111.5 -38.5t-44.5 -131.5l-28 -259
q-9 -93 18.5 -131t103.5 -38zM327 900l118 200h182l-201 -200h-99z" />
    <glyph glyph-name="Ocircumflex" unicode="&#xd4;" horiz-adv-x="763" 
d="M339 -10q-137 0 -201 70.5t-50 201.5l28 275q14 131 93.5 202t215.5 71t199.5 -71t49.5 -202l-28 -275q-14 -131 -92.5 -201.5t-214.5 -70.5zM351 101q75 0 110.5 38t44.5 131l28 259q9 93 -18.5 131.5t-102.5 38.5q-76 0 -111.5 -38.5t-44.5 -131.5l-28 -259
q-9 -93 18.5 -131t103.5 -38zM275 900l-42 68l170 152h106l140 -152l-55 -67l-150 109z" />
    <glyph glyph-name="Otilde" unicode="&#xd5;" horiz-adv-x="763" 
d="M339 -10q-137 0 -201 70.5t-50 201.5l28 275q14 131 93.5 202t215.5 71t199.5 -71t49.5 -202l-28 -275q-14 -131 -92.5 -201.5t-214.5 -70.5zM351 101q75 0 110.5 38t44.5 131l28 259q9 93 -18.5 131.5t-102.5 38.5q-76 0 -111.5 -38.5t-44.5 -131.5l-28 -259
q-9 -93 18.5 -131t103.5 -38zM510 910q-35 0 -55 16t-34 38l-20.5 36.5t-25.5 16.5t-28 -17.5t-16 -63.5l-1 -16h-93l1 15q9 80 47.5 131t98.5 51q34 0 54 -15.5t34 -38.5l20.5 -37t23.5 -17q16 0 28 18t17 64l1 16h93l-1 -15q-9 -81 -47 -131.5t-97 -50.5z" />
    <glyph glyph-name="Odieresis" unicode="&#xd6;" horiz-adv-x="763" 
d="M339 -10q-137 0 -201 70.5t-50 201.5l28 275q14 131 93.5 202t215.5 71t199.5 -71t49.5 -202l-28 -275q-14 -131 -92.5 -201.5t-214.5 -70.5zM351 101q75 0 110.5 38t44.5 131l28 259q9 93 -18.5 131.5t-102.5 38.5q-76 0 -111.5 -38.5t-44.5 -131.5l-28 -259
q-9 -93 18.5 -131t103.5 -38zM329 903q-32 0 -51 13.5t-15 50.5l1 10q4 37 26 51.5t54 14.5q33 0 51.5 -14.5t14.5 -51.5l-1 -10q-4 -37 -26 -50.5t-54 -13.5zM539 903q-33 0 -51.5 13.5t-14.5 50.5l1 10q4 37 25.5 51.5t54.5 14.5q32 0 51 -14.5t15 -51.5l-1 -10
q-4 -37 -26.5 -50.5t-53.5 -13.5z" />
    <glyph glyph-name="Omacron" unicode="&#x14c;" horiz-adv-x="763" 
d="M339 -10q-137 0 -201 70.5t-50 201.5l28 275q14 131 93.5 202t215.5 71t199.5 -71t49.5 -202l-28 -275q-14 -131 -92.5 -201.5t-214.5 -70.5zM351 101q75 0 110.5 38t44.5 131l28 259q9 93 -18.5 131.5t-102.5 38.5q-76 0 -111.5 -38.5t-44.5 -131.5l-28 -259
q-9 -93 18.5 -131t103.5 -38zM257 945l12 110h362l-12 -110h-362z" />
    <glyph glyph-name="Obreve" unicode="&#x14e;" horiz-adv-x="763" 
d="M339 -10q-137 0 -201 70.5t-50 201.5l28 275q14 131 93.5 202t215.5 71t199.5 -71t49.5 -202l-28 -275q-14 -131 -92.5 -201.5t-214.5 -70.5zM351 101q75 0 110.5 38t44.5 131l28 259q9 93 -18.5 131.5t-102.5 38.5q-76 0 -111.5 -38.5t-44.5 -131.5l-28 -259
q-9 -93 18.5 -131t103.5 -38zM433 893q-104 0 -153 53.5t-38 166.5h118q-7 -71 12.5 -99t70.5 -28t75.5 28t33.5 99h118q-13 -113 -73 -166.5t-164 -53.5z" />
    <glyph glyph-name="Ohungarumlaut" unicode="&#x150;" horiz-adv-x="763" 
d="M339 -10q-137 0 -201 70.5t-50 201.5l28 275q14 131 93.5 202t215.5 71t199.5 -71t49.5 -202l-28 -275q-14 -131 -92.5 -201.5t-214.5 -70.5zM351 101q75 0 110.5 38t44.5 131l28 259q9 93 -18.5 131.5t-102.5 38.5q-76 0 -111.5 -38.5t-44.5 -131.5l-28 -259
q-9 -93 18.5 -131t103.5 -38zM475 900l62 200h145l-131 -200h-76zM283 900l62 200h145l-131 -200h-76z" />
    <glyph glyph-name="P" unicode="P" 
d="M61 0l84 800h266q114 0 168 -55.5t43 -162.5l-11 -102q-11 -105 -76.5 -159.5t-178.5 -54.5h-126l-28 -266h-141zM241 375h107q59 0 88.5 26.5t36.5 88.5l8 83q7 63 -17 89.5t-83 26.5h-107z" />
    <glyph glyph-name="Q" unicode="Q" horiz-adv-x="763" 
d="M546 -198q-152 -26 -216 23t-50 181q-106 13 -155 81.5t-37 182.5l28 267q14 131 93.5 202t215.5 71t199.5 -71t49.5 -202l-28 -267q-12 -116 -77 -184.5t-177 -81.5q-2 -64 33 -85t118 -3zM351 108q77 0 111.5 37t44.5 133l27 251q10 96 -17 133t-104 37q-78 0 -112 -37
t-44 -133l-27 -251q-10 -96 16.5 -133t104.5 -37z" />
    <glyph glyph-name="R" unicode="R" horiz-adv-x="763" 
d="M244 409h163q53 0 80.5 25.5t34.5 86.5l6 62q6 59 -16 82.5t-76 23.5h-163zM201 0h-141l84 800h322q110 0 162 -55t41 -159l-7 -66q-9 -87 -53 -141t-121 -71l138 -308h-160l-133 300h-100z" />
    <glyph glyph-name="Racute" unicode="&#x154;" horiz-adv-x="763" 
d="M244 409h163q53 0 80.5 25.5t34.5 86.5l6 62q6 59 -16 82.5t-76 23.5h-163zM201 0h-141l84 800h322q110 0 162 -55t41 -159l-7 -66q-9 -87 -53 -141t-121 -71l138 -308h-160l-133 300h-100zM325 900l118 200h182l-201 -200h-99z" />
    <glyph glyph-name="Rcommaaccent" unicode="&#x156;" horiz-adv-x="763" 
d="M244 409h163q53 0 80.5 25.5t34.5 86.5l6 62q6 59 -16 82.5t-76 23.5h-163zM201 0h-141l84 800h322q110 0 162 -55t41 -159l-7 -66q-9 -87 -53 -141t-121 -71l138 -308h-160l-133 300h-100zM157 -300l84 200h182l-167 -200h-99z" />
    <glyph glyph-name="Rcaron" unicode="&#x158;" horiz-adv-x="763" 
d="M244 409h163q53 0 80.5 25.5t34.5 86.5l6 62q6 59 -16 82.5t-76 23.5h-163zM201 0h-141l84 800h322q110 0 162 -55t41 -159l-7 -66q-9 -87 -53 -141t-121 -71l138 -308h-160l-133 300h-100zM362 904l-140 152l55 68l150 -109l169 109l42 -68l-170 -152h-106z" />
    <glyph glyph-name="S" unicode="S" horiz-adv-x="763" 
d="M338 -7q-78 0 -147.5 25.5t-120.5 76.5l53 102q49 -48 109 -71t131 -23q63 0 100.5 30t43.5 84q5 49 -30 74.5t-136 53.5q-120 34 -170.5 85t-41.5 144q11 104 87.5 168t200.5 64q76 0 141.5 -25.5t105.5 -71.5l-47 -98q-46 42 -100 63.5t-111 21.5t-93 -26t-42 -77
q-5 -49 29.5 -73.5t141.5 -55.5q121 -34 168.5 -85t38.5 -143q-12 -110 -94 -176.5t-217 -66.5z" />
    <glyph glyph-name="Sacute" unicode="&#x15a;" horiz-adv-x="763" 
d="M338 -7q-78 0 -147.5 25.5t-120.5 76.5l53 102q49 -48 109 -71t131 -23q63 0 100.5 30t43.5 84q5 49 -30 74.5t-136 53.5q-120 34 -170.5 85t-41.5 144q11 104 87.5 168t200.5 64q76 0 141.5 -25.5t105.5 -71.5l-47 -98q-46 42 -100 63.5t-111 21.5t-93 -26t-42 -77
q-5 -49 29.5 -73.5t141.5 -55.5q121 -34 168.5 -85t38.5 -143q-12 -110 -94 -176.5t-217 -66.5zM325 900l118 200h182l-201 -200h-99z" />
    <glyph glyph-name="Scircumflex" unicode="&#x15c;" horiz-adv-x="763" 
d="M338 -7q-78 0 -147.5 25.5t-120.5 76.5l53 102q49 -48 109 -71t131 -23q63 0 100.5 30t43.5 84q5 49 -30 74.5t-136 53.5q-120 34 -170.5 85t-41.5 144q11 104 87.5 168t200.5 64q76 0 141.5 -25.5t105.5 -71.5l-47 -98q-46 42 -100 63.5t-111 21.5t-93 -26t-42 -77
q-5 -49 29.5 -73.5t141.5 -55.5q121 -34 168.5 -85t38.5 -143q-12 -110 -94 -176.5t-217 -66.5zM273 900l-42 68l170 152h106l140 -152l-55 -67l-150 109z" />
    <glyph glyph-name="Scedilla" unicode="&#x15e;" horiz-adv-x="763" 
d="M338 -7q-78 0 -147.5 25.5t-120.5 76.5l53 102q49 -48 109 -71t131 -23q63 0 100.5 30t43.5 84q5 49 -30 74.5t-136 53.5q-120 34 -170.5 85t-41.5 144q11 104 87.5 168t200.5 64q76 0 141.5 -25.5t105.5 -71.5l-47 -98q-46 42 -100 63.5t-111 21.5t-93 -26t-42 -77
q-5 -49 29.5 -73.5t141.5 -55.5q121 -34 168.5 -85t38.5 -143q-12 -110 -94 -176.5t-217 -66.5zM313 0l20 42q67 -9 102 -40.5t29 -91.5q-7 -66 -57.5 -97.5t-118.5 -31.5q-74 0 -115.5 28t-39.5 88l120 10q-1 -19 8 -26.5t31 -7.5q24 0 36.5 11.5t16.5 45.5q3 32 -4 47
t-28 23z" />
    <glyph glyph-name="Scaron" unicode="&#x160;" horiz-adv-x="763" 
d="M338 -7q-78 0 -147.5 25.5t-120.5 76.5l53 102q49 -48 109 -71t131 -23q63 0 100.5 30t43.5 84q5 49 -30 74.5t-136 53.5q-120 34 -170.5 85t-41.5 144q11 104 87.5 168t200.5 64q76 0 141.5 -25.5t105.5 -71.5l-47 -98q-46 42 -100 63.5t-111 21.5t-93 -26t-42 -77
q-5 -49 29.5 -73.5t141.5 -55.5q121 -34 168.5 -85t38.5 -143q-12 -110 -94 -176.5t-217 -66.5zM380 904l-140 152l55 68l150 -109l169 109l42 -68l-170 -152h-106z" />
    <glyph glyph-name="Scommaaccent" unicode="&#x218;" horiz-adv-x="763" 
d="M338 -7q-78 0 -147.5 25.5t-120.5 76.5l53 102q49 -48 109 -71t131 -23q63 0 100.5 30t43.5 84q5 49 -30 74.5t-136 53.5q-120 34 -170.5 85t-41.5 144q11 104 87.5 168t200.5 64q76 0 141.5 -25.5t105.5 -71.5l-47 -98q-46 42 -100 63.5t-111 21.5t-93 -26t-42 -77
q-5 -49 29.5 -73.5t141.5 -55.5q121 -34 168.5 -85t38.5 -143q-12 -110 -94 -176.5t-217 -66.5zM151 -300l84 200h182l-167 -200h-99z" />
    <glyph glyph-name="T" unicode="T" 
d="M228 0l72 689h-208l12 111h558l-12 -111h-209l-72 -689h-141z" />
    <glyph glyph-name="Tcedilla" unicode="&#x162;" 
d="M228 0l72 689h-208l12 111h558l-12 -111h-209l-72 -689h-141zM269 0l20 42q67 -9 102 -40.5t29 -91.5q-7 -66 -57.5 -97.5t-118.5 -31.5q-74 0 -115.5 28t-39.5 88l120 10q-1 -19 8 -26.5t31 -7.5q24 0 36.5 11.5t16.5 45.5q3 32 -4 47t-28 23z" />
    <glyph glyph-name="Tcaron" unicode="&#x164;" 
d="M228 0l72 689h-208l12 111h558l-12 -111h-209l-72 -689h-141zM339 904l-140 152l55 68l150 -109l169 109l42 -68l-170 -152h-106z" />
    <glyph glyph-name="Tcommaaccent" unicode="&#x21a;" 
d="M228 0l72 689h-208l12 111h558l-12 -111h-209l-72 -689h-141zM114 -300l84 200h182l-167 -200h-99z" />
    <glyph glyph-name="U" unicode="U" horiz-adv-x="763" 
d="M339 -10q-145 0 -205.5 68.5t-45.5 208.5l56 533h141l-56 -529q-9 -89 17.5 -128t104.5 -39t112 39t43 128l56 529h140l-56 -533q-15 -140 -89 -208.5t-218 -68.5z" />
    <glyph glyph-name="Ugrave" unicode="&#xd9;" horiz-adv-x="763" 
d="M339 -10q-145 0 -205.5 68.5t-45.5 208.5l56 533h141l-56 -529q-9 -89 17.5 -128t104.5 -39t112 39t43 128l56 529h140l-56 -533q-15 -140 -89 -208.5t-218 -68.5zM423 900l-158 200h182l75 -200h-99z" />
    <glyph glyph-name="Uacute" unicode="&#xda;" horiz-adv-x="763" 
d="M339 -10q-145 0 -205.5 68.5t-45.5 208.5l56 533h141l-56 -529q-9 -89 17.5 -128t104.5 -39t112 39t43 128l56 529h140l-56 -533q-15 -140 -89 -208.5t-218 -68.5zM327 900l118 200h182l-201 -200h-99z" />
    <glyph glyph-name="Ucircumflex" unicode="&#xdb;" horiz-adv-x="763" 
d="M339 -10q-145 0 -205.5 68.5t-45.5 208.5l56 533h141l-56 -529q-9 -89 17.5 -128t104.5 -39t112 39t43 128l56 529h140l-56 -533q-15 -140 -89 -208.5t-218 -68.5zM275 900l-42 68l170 152h106l140 -152l-55 -67l-150 109z" />
    <glyph glyph-name="Udieresis" unicode="&#xdc;" horiz-adv-x="763" 
d="M339 -10q-145 0 -205.5 68.5t-45.5 208.5l56 533h141l-56 -529q-9 -89 17.5 -128t104.5 -39t112 39t43 128l56 529h140l-56 -533q-15 -140 -89 -208.5t-218 -68.5zM329 903q-32 0 -51 13.5t-15 50.5l1 10q4 37 26 51.5t54 14.5q33 0 51.5 -14.5t14.5 -51.5l-1 -10
q-4 -37 -26 -50.5t-54 -13.5zM539 903q-33 0 -51.5 13.5t-14.5 50.5l1 10q4 37 25.5 51.5t54.5 14.5q32 0 51 -14.5t15 -51.5l-1 -10q-4 -37 -26.5 -50.5t-53.5 -13.5z" />
    <glyph glyph-name="Utilde" unicode="&#x168;" horiz-adv-x="763" 
d="M339 -10q-145 0 -205.5 68.5t-45.5 208.5l56 533h141l-56 -529q-9 -89 17.5 -128t104.5 -39t112 39t43 128l56 529h140l-56 -533q-15 -140 -89 -208.5t-218 -68.5zM510 910q-35 0 -55 16t-34 38l-20.5 36.5t-25.5 16.5t-28 -17.5t-16 -63.5l-1 -16h-93l1 15
q9 80 47.5 131t98.5 51q34 0 54 -15.5t34 -38.5l20.5 -37t23.5 -17q16 0 28 18t17 64l1 16h93l-1 -15q-9 -81 -47 -131.5t-97 -50.5z" />
    <glyph glyph-name="Umacron" unicode="&#x16a;" horiz-adv-x="763" 
d="M339 -10q-145 0 -205.5 68.5t-45.5 208.5l56 533h141l-56 -529q-9 -89 17.5 -128t104.5 -39t112 39t43 128l56 529h140l-56 -533q-15 -140 -89 -208.5t-218 -68.5zM257 945l12 110h362l-12 -110h-362z" />
    <glyph glyph-name="Ubreve" unicode="&#x16c;" horiz-adv-x="763" 
d="M339 -10q-145 0 -205.5 68.5t-45.5 208.5l56 533h141l-56 -529q-9 -89 17.5 -128t104.5 -39t112 39t43 128l56 529h140l-56 -533q-15 -140 -89 -208.5t-218 -68.5zM433 893q-104 0 -153 53.5t-38 166.5h118q-7 -71 12.5 -99t70.5 -28t75.5 28t33.5 99h118
q-13 -113 -73 -166.5t-164 -53.5z" />
    <glyph glyph-name="Uring" unicode="&#x16e;" horiz-adv-x="763" 
d="M339 -10q-145 0 -205.5 68.5t-45.5 208.5l56 533h141l-56 -529q-9 -89 17.5 -128t104.5 -39t112 39t43 128l56 529h140l-56 -533q-15 -140 -89 -208.5t-218 -68.5zM432 882q-72 0 -113.5 36t-33.5 112l4 32q8 77 56.5 114t120.5 37q73 0 114 -37t33 -114l-4 -32
q-8 -76 -56.5 -112t-120.5 -36zM440 959q31 0 48.5 16.5t21.5 54.5l4 32q3 37 -11 55.5t-45 18.5t-49 -18.5t-21 -55.5l-4 -32q-4 -38 10.5 -54.5t45.5 -16.5z" />
    <glyph glyph-name="Uhungarumlaut" unicode="&#x170;" horiz-adv-x="763" 
d="M339 -10q-145 0 -205.5 68.5t-45.5 208.5l56 533h141l-56 -529q-9 -89 17.5 -128t104.5 -39t112 39t43 128l56 529h140l-56 -533q-15 -140 -89 -208.5t-218 -68.5zM475 900l62 200h145l-131 -200h-76zM283 900l62 200h145l-131 -200h-76z" />
    <glyph glyph-name="Uogonek" unicode="&#x172;" horiz-adv-x="763" 
d="M377 -218q-66 0 -101 32t-29 90q5 52 47 93.5t94 59.5l18 -34q-28 -19 -39 -41.5t-14 -44.5q-2 -27 12 -40.5t45 -13.5q15 0 35.5 3t43.5 7l-11 -100q-25 -5 -52 -8t-49 -3zM339 -10q-145 0 -205.5 68.5t-45.5 208.5l56 533h141l-56 -529q-9 -89 17.5 -128t104.5 -39
t112 39t43 128l56 529h140l-56 -533q-15 -140 -89 -208.5t-218 -68.5z" />
    <glyph glyph-name="V" unicode="V" horiz-adv-x="688" 
d="M391 0h-179l-132 800h144l96 -668l237 668h135z" />
    <glyph glyph-name="W" unicode="W" horiz-adv-x="922" 
d="M524 0l-53 474l-156 -474h-153l-49 800h135l28 -627l144 468h140l52 -467l160 626h121l-216 -800h-153z" />
    <glyph glyph-name="Wcircumflex" unicode="&#x174;" horiz-adv-x="922" 
d="M524 0l-53 474l-156 -474h-153l-49 800h135l28 -627l144 468h140l52 -467l160 626h121l-216 -800h-153zM354 900l-42 68l170 152h106l140 -152l-55 -67l-150 109z" />
    <glyph glyph-name="Wgrave" unicode="&#x1e80;" horiz-adv-x="922" 
d="M524 0l-53 474l-156 -474h-153l-49 800h135l28 -627l144 468h140l52 -467l160 626h121l-216 -800h-153zM502 900l-158 200h182l75 -200h-99z" />
    <glyph glyph-name="Wacute" unicode="&#x1e82;" horiz-adv-x="922" 
d="M524 0l-53 474l-156 -474h-153l-49 800h135l28 -627l144 468h140l52 -467l160 626h121l-216 -800h-153zM406 900l118 200h182l-201 -200h-99z" />
    <glyph glyph-name="Wdieresis" unicode="&#x1e84;" horiz-adv-x="922" 
d="M524 0l-53 474l-156 -474h-153l-49 800h135l28 -627l144 468h140l52 -467l160 626h121l-216 -800h-153zM408 903q-32 0 -51 13.5t-15 50.5l1 10q4 37 26 51.5t54 14.5q33 0 51.5 -14.5t14.5 -51.5l-1 -10q-4 -37 -26 -50.5t-54 -13.5zM618 903q-33 0 -51.5 13.5
t-14.5 50.5l1 10q4 37 25.5 51.5t54.5 14.5q32 0 51 -14.5t15 -51.5l-1 -10q-4 -37 -26.5 -50.5t-53.5 -13.5z" />
    <glyph glyph-name="X" unicode="X" horiz-adv-x="763" 
d="M487 0l-121 277l-176 -277h-152l271 413l-167 387h158l113 -262l162 262h151l-256 -400l169 -400h-152z" />
    <glyph glyph-name="Y" unicode="Y" 
d="M369 0h-141l32 300l-189 500h149l126 -381l206 381h141l-292 -500z" />
    <glyph glyph-name="Yacute" unicode="&#xdd;" 
d="M369 0h-141l32 300l-189 500h149l126 -381l206 381h141l-292 -500zM288 900l118 200h182l-201 -200h-99z" />
    <glyph glyph-name="Ycircumflex" unicode="&#x176;" 
d="M369 0h-141l32 300l-189 500h149l126 -381l206 381h141l-292 -500zM232 900l-42 68l170 152h106l140 -152l-55 -67l-150 109z" />
    <glyph glyph-name="Ydieresis" unicode="&#x178;" 
d="M369 0h-141l32 300l-189 500h149l126 -381l206 381h141l-292 -500zM286 903q-32 0 -51 13.5t-15 50.5l1 10q4 37 26 51.5t54 14.5q33 0 51.5 -14.5t14.5 -51.5l-1 -10q-4 -37 -26 -50.5t-54 -13.5zM496 903q-33 0 -51.5 13.5t-14.5 50.5l1 10q4 37 25.5 51.5t54.5 14.5
q32 0 51 -14.5t15 -51.5l-1 -10q-4 -37 -26.5 -50.5t-53.5 -13.5z" />
    <glyph glyph-name="Ygrave" unicode="&#x1ef2;" 
d="M369 0h-141l32 300l-189 500h149l126 -381l206 381h141l-292 -500zM380 900l-158 200h182l75 -200h-99z" />
    <glyph glyph-name="Z" unicode="Z" horiz-adv-x="763" 
d="M613 0h-547l12 111l438 578h-378l12 111h547l-12 -111l-448 -578h388z" />
    <glyph glyph-name="Zacute" unicode="&#x179;" horiz-adv-x="763" 
d="M613 0h-547l12 111l438 578h-378l12 111h547l-12 -111l-448 -578h388zM327 900l118 200h182l-201 -200h-99z" />
    <glyph glyph-name="Zdotaccent" unicode="&#x17b;" horiz-adv-x="763" 
d="M613 0h-547l12 111l438 578h-378l12 111h547l-12 -111l-448 -578h388zM434 903q-43 0 -68 13.5t-21 50.5l1 10q4 37 32 51.5t71 14.5t68 -14.5t21 -51.5l-1 -10q-4 -37 -32.5 -50.5t-70.5 -13.5z" />
    <glyph glyph-name="Zcaron" unicode="&#x17d;" horiz-adv-x="763" 
d="M613 0h-547l12 111l438 578h-378l12 111h547l-12 -111l-448 -578h388zM382 904l-140 152l55 68l150 -109l169 109l42 -68l-170 -152h-106z" />
    <glyph glyph-name="AE" unicode="&#xc6;" horiz-adv-x="1006" 
d="M427 689l-150 -366h187l38 366h-75zM452 213h-220l-87 -213h-130l342 800h584l-12 -111h-286l-21 -202h245l-11 -111h-245l-28 -265h286l-12 -111h-427z" />
    <glyph glyph-name="AEacute" unicode="&#x1fc;" horiz-adv-x="1006" 
d="M529 900l118 200h182l-201 -200h-99zM427 689l-150 -366h187l38 366h-75zM452 213h-220l-87 -213h-130l342 800h584l-12 -111h-286l-21 -202h245l-11 -111h-245l-28 -265h286l-12 -111h-427z" />
    <glyph glyph-name="Eth" unicode="&#xd0;" horiz-adv-x="763" 
d="M60 0l41 390h-83l11 101h83l32 309h272q134 0 202 -75.5t55 -200.5l-26 -252q-13 -124 -97 -198t-219 -74h-271zM213 111h119q85 0 125.5 41t50.5 129l24 234q9 89 -23 131.5t-117 42.5h-119l-20 -198h139l-11 -101h-139z" />
    <glyph glyph-name="Oslash" unicode="&#xd8;" horiz-adv-x="763" 
d="M237 163l224 531q-10 3 -22.5 4t-25.5 1q-77 0 -111.5 -37.5t-44.5 -132.5l-28 -262q-4 -34 -2 -60t10 -44zM351 101q76 0 110.5 36.5t44.5 129.5l28 262q3 34 0 58.5t-13 40.5l-224 -521q12 -4 25 -5t29 -1zM339 -10q-22 0 -43 2.5t-39 6.5l-45 -99h-107l64 135
q-49 33 -69.5 90.5t-12.5 133.5l29 278q14 128 93 200.5t216 72.5q21 0 40 -1.5t36 -5.5l44 97h107l-60 -132q50 -34 70.5 -93t11.5 -138l-29 -278q-13 -126 -91 -197.5t-215 -71.5z" />
    <glyph glyph-name="Oslashacute" unicode="&#x1fe;" horiz-adv-x="763" 
d="M237 163l224 531q-10 3 -22.5 4t-25.5 1q-77 0 -111.5 -37.5t-44.5 -132.5l-28 -262q-4 -34 -2 -60t10 -44zM351 101q76 0 110.5 36.5t44.5 129.5l28 262q3 34 0 58.5t-13 40.5l-224 -521q12 -4 25 -5t29 -1zM339 -10q-22 0 -43 2.5t-39 6.5l-45 -99h-107l64 135
q-49 33 -69.5 90.5t-12.5 133.5l29 278q14 128 93 200.5t216 72.5q21 0 40 -1.5t36 -5.5l44 97h107l-60 -132q50 -34 70.5 -93t11.5 -138l-29 -278q-13 -126 -91 -197.5t-215 -71.5zM327 900l118 200h182l-201 -200h-99z" />
    <glyph glyph-name="Thorn" unicode="&#xde;" 
d="M61 0l84 800h141l-13 -127h125q111 0 166.5 -57t44.5 -164l-10 -91q-11 -107 -78.5 -164t-177.5 -57h-126l-15 -140h-141zM228 249h107q57 0 87.5 27.5t37.5 90.5l8 82q6 60 -18.5 87t-81.5 27h-107z" />
    <glyph glyph-name="Dcroat" unicode="&#x110;" horiz-adv-x="763" 
d="M60 0l41 390h-83l11 101h83l32 309h272q134 0 202 -75.5t55 -200.5l-26 -252q-13 -124 -97 -198t-219 -74h-271zM213 111h119q85 0 125.5 41t50.5 129l24 234q9 89 -23 131.5t-117 42.5h-119l-20 -198h139l-11 -101h-139z" />
    <glyph glyph-name="Hbar" unicode="&#x126;" horiz-adv-x="763" 
d="M246 427h277l14 130h-277zM234 316l-33 -316h-141l59 557h-83l10 100h83l15 143h141l-15 -143h277l15 143h140l-15 -143h84l-10 -100h-84l-59 -557h-140l33 316h-277z" />
    <glyph glyph-name="IJ" unicode="&#x132;" horiz-adv-x="1340" 
d="M70 0l12 111h167l60 578h-167l12 111h475l-12 -111h-167l-60 -578h167l-12 -111h-475zM935 -10q-135 0 -187 61.5t-42 215.5l141 11q-4 -107 15.5 -142t84.5 -35q63 0 89.5 35.5t35.5 119.5l45 433h-195l12 111h336l-57 -547q-14 -131 -80.5 -197t-197.5 -66z" />
    <glyph glyph-name="Ldot" unicode="&#x13f;" horiz-adv-x="839" 
d="M69 0l84 800h141l-72 -689h295l-12 -111h-436zM618 400q-43 0 -68 13.5t-21 50.5l1 10q4 37 32 51.5t71 14.5t68 -14.5t21 -51.5l-1 -10q-4 -37 -32.5 -50.5t-70.5 -13.5z" />
    <glyph glyph-name="Lslash" unicode="&#x141;" horiz-adv-x="596" 
d="M60 0l36 344l-68 -24l9 93l69 24l38 363h141l-33 -312l205 72l-10 -93l-204 -72l-30 -284h295l-12 -111h-436z" />
    <glyph glyph-name="Eng" unicode="&#x14a;" horiz-adv-x="763" 
d="M380 -209q-32 0 -64 7.5t-64 21.5l27 107q28 -13 51 -20.5t45 -7.5q43 0 70.5 28.5t34.5 95.5l58 549q6 59 -19 91.5t-78 32.5q-45 0 -89 -29.5t-91 -92.5l-60 -574h-141l84 800h141l-13 -127h25q31 65 87.5 101t126.5 36q89 0 134.5 -57t35.5 -155l-62 -590
q-12 -111 -82 -164t-157 -53z" />
    <glyph glyph-name="OE" unicode="&#x152;" horiz-adv-x="1006" 
d="M337 0q-125 0 -188 74.5t-50 199.5l26 251q13 125 92 200t205 75h519l-12 -111h-284l-21 -202h243l-11 -111h-243l-28 -265h284l-12 -111h-520zM362 111h83l60 578h-83q-74 0 -110.5 -41.5t-46.5 -130.5l-24 -235q-10 -90 18.5 -130.5t102.5 -40.5z" />
    <glyph glyph-name="Tbar" unicode="&#x166;" 
d="M228 0l32 303h-167l10 100h167l30 286h-208l12 111h558l-12 -111h-209l-30 -286h167l-10 -100h-167l-32 -303h-141z" />
    <glyph glyph-name="Alpha" unicode="&#x391;" horiz-adv-x="688" 
d="M419 323l-51 355l-126 -355h177zM465 0l-31 213h-231l-75 -213h-132l302 800h178l132 -800h-143z" />
    <glyph glyph-name="Alphatonos" unicode="&#x386;" horiz-adv-x="763" 
d="M485 323l-51 355l-126 -355h177zM531 0l-31 213h-231l-75 -213h-132l302 800h178l132 -800h-143zM62 600l67 200h174l-151 -200h-90z" />
    <glyph glyph-name="Beta" unicode="&#x392;" horiz-adv-x="763" 
d="M60 0l84 800h312q110 0 164.5 -49t44.5 -139l-4 -41q-6 -56 -37 -89t-87 -44l-3 -29q61 -7 91 -49t24 -106l-5 -47q-11 -99 -81 -153t-190 -54h-313zM250 467h154q59 0 85.5 21.5t31.5 73.5l4 35q5 52 -16.5 74t-80.5 22h-154zM212 107h157q68 0 99 25t37 85l4 39
q6 60 -19.5 84.5t-93.5 24.5h-157z" />
    <glyph glyph-name="Gamma" unicode="&#x393;" horiz-adv-x="596" 
d="M60 0l84 800h450l-12 -111h-309l-72 -689h-141z" />
    <glyph glyph-name="Delta" unicode="&#x394;" horiz-adv-x="688" 
d="M-4 0l12 111l285 689h190l137 -689l-12 -111h-612zM482 111l-110 583l-239 -583h349z" />
    <glyph glyph-name="Epsilon" unicode="&#x395;" 
d="M61 0l84 800h480l-12 -111h-339l-21 -202h297l-11 -111h-297l-28 -265h339l-12 -111h-480z" />
    <glyph glyph-name="Epsilontonos" unicode="&#x388;" horiz-adv-x="847" 
d="M228 0l84 800h480l-12 -111h-339l-21 -202h297l-11 -111h-297l-28 -265h339l-12 -111h-480zM32 600l67 200h174l-151 -200h-90z" />
    <glyph glyph-name="Zeta" unicode="&#x396;" horiz-adv-x="763" 
d="M613 0h-547l12 111l438 578h-378l12 111h547l-12 -111l-448 -578h388z" />
    <glyph glyph-name="Eta" unicode="&#x397;" horiz-adv-x="763" 
d="M60 0l84 800h141l-32 -306h277l32 306h140l-84 -800h-140l40 383h-277l-40 -383h-141z" />
    <glyph glyph-name="Etatonos" unicode="&#x389;" horiz-adv-x="930" 
d="M227 0l84 800h141l-32 -306h277l32 306h140l-84 -800h-140l40 383h-277l-40 -383h-141zM26 600l67 200h174l-151 -200h-90z" />
    <glyph glyph-name="Theta" unicode="&#x398;" horiz-adv-x="763" 
d="M339 -10q-137 0 -201 72t-50 204l28 264q14 134 93.5 207t215.5 73t199.5 -73t49.5 -207l-28 -264q-14 -132 -92.5 -204t-214.5 -72zM351 101q78 0 115 39t47 134l26 248q10 97 -19 137t-107 40q-79 0 -116 -40t-47 -137l-26 -248q-10 -95 19 -134t108 -39zM304 353
l11 104h145l-11 -104h-145z" />
    <glyph glyph-name="Iota" unicode="&#x399;" 
d="M61 0l12 111h167l60 578h-167l12 111h475l-12 -111h-167l-60 -578h167l-12 -111h-475z" />
    <glyph glyph-name="Iotatonos" unicode="&#x38a;" horiz-adv-x="847" 
d="M228 0l12 111h167l60 578h-167l12 111h475l-12 -111h-167l-60 -578h167l-12 -111h-475zM34 600l67 200h174l-151 -200h-90z" />
    <glyph glyph-name="Iotadieresis" unicode="&#x3aa;" 
d="M61 0l12 111h167l60 578h-167l12 111h475l-12 -111h-167l-60 -578h167l-12 -111h-475zM286 903q-32 0 -51 13.5t-15 50.5l1 10q4 37 26 51.5t54 14.5q33 0 51.5 -14.5t14.5 -51.5l-1 -10q-4 -37 -26 -50.5t-54 -13.5zM496 903q-33 0 -51.5 13.5t-14.5 50.5l1 10
q4 37 25.5 51.5t54.5 14.5q32 0 51 -14.5t15 -51.5l-1 -10q-4 -37 -26.5 -50.5t-53.5 -13.5z" />
    <glyph glyph-name="Kappa" unicode="&#x39a;" 
d="M240 364l-38 -364h-141l84 800h141l-34 -324h32l244 324h156l-292 -368l205 -432h-163l-160 364h-34z" />
    <glyph glyph-name="Lambda" unicode="&#x39b;" horiz-adv-x="688" 
d="M465 0l-97 678l-240 -678h-132l302 800h178l132 -800h-143z" />
    <glyph glyph-name="Mu" unicode="&#x39c;" horiz-adv-x="847" 
d="M334 200l-84 434l-67 -634h-122l84 800h185l88 -474l189 474h180l-84 -800h-122l67 639l-176 -439h-138z" />
    <glyph glyph-name="Nu" unicode="&#x39d;" horiz-adv-x="763" 
d="M428 0l-179 634l-67 -634h-122l84 800h191l180 -617l65 617h122l-84 -800h-190z" />
    <glyph glyph-name="Xi" unicode="&#x39e;" 
d="M117 689l12 111h508l-12 -111h-508zM106 376l11 111h465l-11 -111h-465zM45 0l12 111h508l-12 -111h-508z" />
    <glyph glyph-name="Omicron" unicode="&#x39f;" horiz-adv-x="763" 
d="M339 -10q-137 0 -201 70.5t-50 201.5l28 275q14 131 93.5 202t215.5 71t199.5 -71t49.5 -202l-28 -275q-14 -131 -92.5 -201.5t-214.5 -70.5zM351 101q75 0 110.5 38t44.5 131l28 259q9 93 -18.5 131.5t-102.5 38.5q-76 0 -111.5 -38.5t-44.5 -131.5l-28 -259
q-9 -93 18.5 -131t103.5 -38z" />
    <glyph glyph-name="Omicrontonos" unicode="&#x38c;" horiz-adv-x="847" 
d="M423 -10q-137 0 -201 70.5t-50 201.5l28 275q14 131 93.5 202t215.5 71t199.5 -71t49.5 -202l-28 -275q-14 -131 -92.5 -201.5t-214.5 -70.5zM435 101q75 0 110.5 38t44.5 131l28 259q9 93 -18.5 131.5t-102.5 38.5q-76 0 -111.5 -38.5t-44.5 -131.5l-28 -259
q-9 -93 18.5 -131t103.5 -38zM37 600l67 200h174l-151 -200h-90z" />
    <glyph glyph-name="Pi" unicode="&#x3a0;" horiz-adv-x="763" 
d="M60 0l84 800h558l-84 -800h-140l72 689h-277l-72 -689h-141z" />
    <glyph glyph-name="Rho" unicode="&#x3a1;" 
d="M61 0l84 800h266q114 0 168 -55.5t43 -162.5l-11 -102q-11 -105 -76.5 -159.5t-178.5 -54.5h-126l-28 -266h-141zM241 375h107q59 0 88.5 26.5t36.5 88.5l8 83q7 63 -17 89.5t-83 26.5h-107z" />
    <glyph glyph-name="Sigma" unicode="&#x3a3;" 
d="M553 0h-516l12 111l320 305l-260 273l12 111h516l-12 -111h-344l214 -234l-9 -85l-267 -259h346z" />
    <glyph glyph-name="Tau" unicode="&#x3a4;" 
d="M228 0l72 689h-208l12 111h558l-12 -111h-209l-72 -689h-141z" />
    <glyph glyph-name="Upsilon" unicode="&#x3a5;" 
d="M369 0h-141l32 300l-189 500h149l126 -381l206 381h141l-292 -500z" />
    <glyph glyph-name="Upsilontonos" unicode="&#x38e;" horiz-adv-x="922" 
d="M602 0h-141l32 300l-189 500h149l126 -381l206 381h141l-292 -500zM58 600l67 200h174l-151 -200h-90z" />
    <glyph glyph-name="Upsilondieresis" unicode="&#x3ab;" 
d="M369 0h-141l32 300l-189 500h149l126 -381l206 381h141l-292 -500zM286 903q-32 0 -51 13.5t-15 50.5l1 10q4 37 26 51.5t54 14.5q33 0 51.5 -14.5t14.5 -51.5l-1 -10q-4 -37 -26 -50.5t-54 -13.5zM496 903q-33 0 -51.5 13.5t-14.5 50.5l1 10q4 37 25.5 51.5t54.5 14.5
q32 0 51 -14.5t15 -51.5l-1 -10q-4 -37 -26.5 -50.5t-53.5 -13.5z" />
    <glyph glyph-name="Phi" unicode="&#x3a6;" horiz-adv-x="847" 
d="M502 90h-41l-11 -107h-140l11 107h-40q-119 0 -169.5 69t-37.5 191l10 96q13 123 78.5 193.5t184.5 70.5h40l11 107h140l-11 -107h41q118 0 169 -70.5t38 -193.5l-10 -96q-13 -122 -79 -191t-184 -69zM556 603h-45l-42 -406h45q55 0 81.5 39.5t34.5 113.5l10 96
q8 75 -10.5 116t-73.5 41zM293 197h44l42 406h-44q-55 0 -82 -41t-35 -116l-10 -96q-8 -74 11 -113.5t74 -39.5z" />
    <glyph glyph-name="Chi" unicode="&#x3a7;" horiz-adv-x="763" 
d="M487 0l-121 277l-176 -277h-152l271 413l-167 387h158l113 -262l162 262h151l-256 -400l169 -400h-152z" />
    <glyph glyph-name="Psi" unicode="&#x3a8;" horiz-adv-x="922" 
d="M490 0h-140l20 190q-140 13 -202 82t-50 185l36 343h141l-35 -333q-7 -72 20.5 -111.5t101.5 -46.5l52 491h140l-52 -491q75 8 111.5 47t43.5 111l35 333h141l-36 -343q-12 -116 -89 -185t-218 -82z" />
    <glyph glyph-name="Omega" unicode="&#x3a9;" horiz-adv-x="771" 
d="M302 0h-268l11 100h127l9 90q-66 31 -94.5 85t-21.5 129l13 122q15 138 103 211t248 73t233 -73t58 -211l-13 -122q-7 -75 -48 -129t-113 -85l-9 -90h127l-11 -100h-268l24 230q83 18 116.5 61t40.5 113l13 122q10 90 -26.5 131t-135.5 41t-143.5 -41t-54.5 -131
l-13 -122q-7 -70 17 -113t103 -61z" />
    <glyph glyph-name="Omegatonos" unicode="&#x38f;" horiz-adv-x="930" 
d="M451 0h-268l11 100h127l9 90q-66 31 -94.5 85t-21.5 129l13 122q15 138 103 211t248 73t233 -73t58 -211l-13 -122q-7 -75 -48 -129t-113 -85l-9 -90h127l-11 -100h-268l24 230q83 18 116.5 61t40.5 113l13 122q10 90 -26.5 131t-135.5 41t-143.5 -41t-54.5 -131
l-13 -122q-7 -70 17 -113t103 -61zM37 600l67 200h174l-151 -200h-90z" />
    <glyph glyph-name="Ohm" unicode="&#x2126;" horiz-adv-x="771" 
d="M302 0h-268l11 100h127l9 90q-66 31 -94.5 85t-21.5 129l13 122q15 138 103 211t248 73t233 -73t58 -211l-13 -122q-7 -75 -48 -129t-113 -85l-9 -90h127l-11 -100h-268l24 230q83 18 116.5 61t40.5 113l13 122q10 90 -26.5 131t-135.5 41t-143.5 -41t-54.5 -131
l-13 -122q-7 -70 17 -113t103 -61z" />
    <glyph glyph-name="Djecyrillic" unicode="&#x402;" horiz-adv-x="847" 
d="M200 0l72 689h-180l12 111h530l-12 -111h-209l-17 -169h130q125 0 181 -55t44 -166l-8 -78q-12 -116 -83 -168.5t-189 -52.5l11 109q54 0 84.5 25.5t36.5 88.5l8 74q7 63 -18 88.5t-79 25.5h-130l-43 -411h-141z" />
    <glyph glyph-name="Ecyrillic" unicode="&#x404;" horiz-adv-x="763" 
d="M669 263q-21 -136 -100 -204.5t-216 -68.5q-146 0 -212 69.5t-53 200.5l29 276q14 134 95 204t228 70q137 0 201.5 -69.5t55.5 -207.5l-141 -10q3 99 -25.5 137.5t-103.5 38.5q-86 0 -123 -37.5t-48 -133.5l-4 -41h216l-11 -111h-216l-12 -109q-10 -93 20 -129.5
t116 -36.5q75 0 111 37.5t54 134.5z" />
    <glyph glyph-name="Dzecyrillic" unicode="&#x405;" horiz-adv-x="763" 
d="M338 -7q-78 0 -147.5 25.5t-120.5 76.5l53 102q49 -48 109 -71t131 -23q63 0 100.5 30t43.5 84q5 49 -30 74.5t-136 53.5q-120 34 -170.5 85t-41.5 144q11 104 87.5 168t200.5 64q76 0 141.5 -25.5t105.5 -71.5l-47 -98q-46 42 -100 63.5t-111 21.5t-93 -26t-42 -77
q-5 -49 29.5 -73.5t141.5 -55.5q121 -34 168.5 -85t38.5 -143q-12 -110 -94 -176.5t-217 -66.5z" />
    <glyph glyph-name="Icyrillic" unicode="&#x406;" 
d="M61 0l12 111h167l60 578h-167l12 111h475l-12 -111h-167l-60 -578h167l-12 -111h-475z" />
    <glyph glyph-name="Yicyrillic" unicode="&#x407;" 
d="M61 0l12 111h167l60 578h-167l12 111h475l-12 -111h-167l-60 -578h167l-12 -111h-475zM286 903q-32 0 -51 13.5t-15 50.5l1 10q4 37 26 51.5t54 14.5q33 0 51.5 -14.5t14.5 -51.5l-1 -10q-4 -37 -26 -50.5t-54 -13.5zM496 903q-33 0 -51.5 13.5t-14.5 50.5l1 10
q4 37 25.5 51.5t54.5 14.5q32 0 51 -14.5t15 -51.5l-1 -10q-4 -37 -26.5 -50.5t-53.5 -13.5z" />
    <glyph glyph-name="Jecyrillic" unicode="&#x408;" 
d="M285 -10q-135 0 -187 61.5t-42 215.5l141 11q-4 -107 15.5 -142t84.5 -35q63 0 89.5 35.5t35.5 119.5l45 433h-195l12 111h336l-57 -547q-14 -131 -80.5 -197t-197.5 -66z" />
    <glyph glyph-name="Ljecyrillic" unicode="&#x409;" horiz-adv-x="1097" 
d="M304 236q-15 -127 -69.5 -187t-139.5 -60q-22 0 -45.5 3.5t-47.5 10.5l27 110q15 -5 28.5 -7.5t25.5 -2.5q34 0 54 31.5t30 114.5l61 551h474l-28 -266h129q114 0 166.5 -53.5t41.5 -160.5l-11 -102q-11 -108 -75 -163t-178 -55h-269l72 689h-197zM630 111h111
q55 0 84 26.5t36 89.5l9 83q6 63 -17.5 89t-78.5 26h-111z" />
    <glyph glyph-name="Njecyrillic" unicode="&#x40a;" horiz-adv-x="1097" 
d="M630 111h111q55 0 84 26.5t36 89.5l9 83q6 63 -17.5 89t-78.5 26h-111zM241 383l-40 -383h-141l84 800h141l-32 -306h277l32 306h140l-28 -266h129q113 0 166 -54t42 -160l-11 -102q-11 -107 -75 -162.5t-178 -55.5h-269l40 383h-277z" />
    <glyph glyph-name="Tshecyrillic" unicode="&#x40b;" horiz-adv-x="847" 
d="M346 0h-140l72 689h-186l12 111h541l-12 -111h-215l-20 -196h123q116 0 169 -55t42 -166l-29 -272h-141l28 267q7 63 -17 90.5t-73 27.5h-114z" />
    <glyph glyph-name="Dzhecyrillic" unicode="&#x40f;" horiz-adv-x="763" 
d="M252 -150l16 150h-208l84 800h141l-72 -689h277l72 689h140l-84 -800h-208l-16 -150h-142z" />
    <glyph glyph-name="Acyrillic" unicode="&#x410;" horiz-adv-x="688" 
d="M419 323l-51 355l-126 -355h177zM465 0l-31 213h-231l-75 -213h-132l302 800h178l132 -800h-143z" />
    <glyph glyph-name="Becyrillic" unicode="&#x411;" horiz-adv-x="763" 
d="M60 0l84 800h523l-12 -111h-382l-20 -195h209q106 0 157.5 -53.5t40.5 -154.5l-7 -65q-11 -107 -74 -164t-169 -57h-350zM213 111h192q47 0 74.5 26t34.5 89l4 45q7 63 -15.5 88.5t-69.5 25.5h-192z" />
    <glyph glyph-name="Vecyrillic" unicode="&#x412;" horiz-adv-x="763" 
d="M60 0l84 800h312q110 0 164.5 -49t44.5 -139l-4 -41q-6 -56 -37 -89t-87 -44l-3 -29q61 -7 91 -49t24 -106l-5 -47q-11 -99 -81 -153t-190 -54h-313zM250 467h154q59 0 85.5 21.5t31.5 73.5l4 35q5 52 -16.5 74t-80.5 22h-154zM212 107h157q68 0 99 25t37 85l4 39
q6 60 -19.5 84.5t-93.5 24.5h-157z" />
    <glyph glyph-name="Gecyrillic" unicode="&#x413;" horiz-adv-x="596" 
d="M60 0l84 800h450l-12 -111h-309l-72 -689h-141z" />
    <glyph glyph-name="Gjecyrillic" unicode="&#x403;" horiz-adv-x="596" 
d="M60 0l84 800h450l-12 -111h-309l-72 -689h-141zM272 900l118 200h182l-201 -200h-99z" />
    <glyph glyph-name="Decyrillic" unicode="&#x414;" horiz-adv-x="847" 
d="M250 134l-2 -23h243l60 578h-201l-43 -385q-7 -61 -20 -101.5t-37 -68.5zM160 0l-16 -150h-140l28 261h67q26 22 43 67.5t26 130.5l57 491h478l-72 -689h84l-28 -261h-141l16 150h-402z" />
    <glyph glyph-name="Iecyrillic" unicode="&#x415;" 
d="M61 0l84 800h480l-12 -111h-339l-21 -202h297l-11 -111h-297l-28 -265h339l-12 -111h-480z" />
    <glyph glyph-name="IEgravecyrillic" unicode="&#x400;" 
d="M61 0l84 800h480l-12 -111h-339l-21 -202h297l-11 -111h-297l-28 -265h339l-12 -111h-480zM377 900l-158 200h182l75 -200h-99z" />
    <glyph glyph-name="Iocyrillic" unicode="&#x401;" 
d="M61 0l84 800h480l-12 -111h-339l-21 -202h297l-11 -111h-297l-28 -265h339l-12 -111h-480zM301 903q-32 0 -51 13.5t-15 50.5l1 10q4 37 26 51.5t54 14.5q33 0 51.5 -14.5t14.5 -51.5l-1 -10q-4 -37 -26 -50.5t-54 -13.5zM511 903q-33 0 -51.5 13.5t-14.5 50.5l1 10
q4 37 25.5 51.5t54.5 14.5q32 0 51 -14.5t15 -51.5l-1 -10q-4 -37 -26.5 -50.5t-53.5 -13.5z" />
    <glyph glyph-name="Zhecyrillic" unicode="&#x416;" horiz-adv-x="847" 
d="M317 370l-178 -370h-142l227 433l-145 367h139l117 -330h33l35 330h127l-35 -330h31l188 330h140l-221 -363l134 -437h-142l-99 370h-41l-39 -370h-127l39 370h-41z" />
    <glyph glyph-name="Zecyrillic" unicode="&#x417;" horiz-adv-x="763" 
d="M346 -10q-146 0 -211 61.5t-59 177.5l141 10q0 -72 27.5 -106t108.5 -34q78 0 111.5 30t39.5 94l3 24q6 58 -21 86t-90 28h-84l12 110h84q56 0 81.5 20t31.5 80l3 27q6 56 -20.5 79.5t-91.5 23.5t-97 -28t-45 -97l-139 10q17 112 87 168t204 56q124 0 189 -47.5
t54 -154.5l-3 -27q-7 -64 -33.5 -97.5t-79.5 -45.5l-3 -29q60 -10 84 -51t17 -115l-3 -24q-12 -116 -89.5 -172.5t-208.5 -56.5z" />
    <glyph glyph-name="Iicyrillic" unicode="&#x418;" horiz-adv-x="763" 
d="M489 0l67 641l-295 -641h-201l84 800h130l-69 -662l309 662h188l-84 -800h-129z" />
    <glyph glyph-name="Igravecyrillic" unicode="&#x40d;" horiz-adv-x="763" 
d="M489 0l67 641l-295 -641h-201l84 800h130l-69 -662l309 662h188l-84 -800h-129zM406 900l-158 200h182l75 -200h-99z" />
    <glyph glyph-name="Iishortcyrillic" unicode="&#x419;" horiz-adv-x="763" 
d="M489 0l67 641l-295 -641h-201l84 800h130l-69 -662l309 662h188l-84 -800h-129zM427 893q-90 0 -143 50t-41 160l125 10q-8 -69 7 -98t62 -29t68 29t27 98l123 -10q-12 -110 -75 -160t-153 -50z" />
    <glyph glyph-name="Kacyrillic" unicode="&#x41a;" 
d="M240 364l-38 -364h-141l84 800h141l-34 -324h32l244 324h156l-292 -368l205 -432h-163l-160 364h-34z" />
    <glyph glyph-name="Kjecyrillic" unicode="&#x40c;" 
d="M240 364l-38 -364h-141l84 800h141l-34 -324h32l244 324h156l-292 -368l205 -432h-163l-160 364h-34zM338 900l118 200h182l-201 -200h-99z" />
    <glyph glyph-name="Elcyrillic" unicode="&#x41b;" horiz-adv-x="763" 
d="M478 0l72 689h-197l-49 -453q-15 -128 -70 -187.5t-139 -59.5q-22 0 -45.5 3.5t-47.5 10.5l27 110q15 -5 28 -7.5t26 -2.5q36 0 55.5 32t28.5 114l61 551h474l-84 -800h-140z" />
    <glyph glyph-name="Emcyrillic" unicode="&#x41c;" horiz-adv-x="847" 
d="M334 200l-84 434l-67 -634h-122l84 800h185l88 -474l189 474h180l-84 -800h-122l67 639l-176 -439h-138z" />
    <glyph glyph-name="Encyrillic" unicode="&#x41d;" horiz-adv-x="763" 
d="M60 0l84 800h141l-32 -306h277l32 306h140l-84 -800h-140l40 383h-277l-40 -383h-141z" />
    <glyph glyph-name="Ocyrillic" unicode="&#x41e;" horiz-adv-x="763" 
d="M339 -10q-137 0 -201 70.5t-50 201.5l28 275q14 131 93.5 202t215.5 71t199.5 -71t49.5 -202l-28 -275q-14 -131 -92.5 -201.5t-214.5 -70.5zM351 101q75 0 110.5 38t44.5 131l28 259q9 93 -18.5 131.5t-102.5 38.5q-76 0 -111.5 -38.5t-44.5 -131.5l-28 -259
q-9 -93 18.5 -131t103.5 -38z" />
    <glyph glyph-name="Pecyrillic" unicode="&#x41f;" horiz-adv-x="763" 
d="M60 0l84 800h558l-84 -800h-140l72 689h-277l-72 -689h-141z" />
    <glyph glyph-name="Ercyrillic" unicode="&#x420;" 
d="M61 0l84 800h266q114 0 168 -55.5t43 -162.5l-11 -102q-11 -105 -76.5 -159.5t-178.5 -54.5h-126l-28 -266h-141zM241 375h107q59 0 88.5 26.5t36.5 88.5l8 83q7 63 -17 89.5t-83 26.5h-107z" />
    <glyph glyph-name="Escyrillic" unicode="&#x421;" horiz-adv-x="763" 
d="M353 -10q-150 0 -214.5 69.5t-51.5 199.5l29 278q14 131 94 202t229 71q139 0 203 -68.5t55 -209.5l-141 -10q3 99 -26.5 138t-104.5 39q-84 0 -121.5 -38t-47.5 -133l-27 -261q-10 -92 20 -129t114 -37q77 0 114 38.5t53 134.5l139 -10q-19 -138 -97.5 -206t-218.5 -68z
" />
    <glyph glyph-name="Tecyrillic" unicode="&#x422;" 
d="M228 0l72 689h-208l12 111h558l-12 -111h-209l-72 -689h-141z" />
    <glyph glyph-name="Ucyrillic" unicode="&#x423;" 
d="M152 -9q-24 0 -48.5 3.5t-49.5 9.5l26 111q24 -7 44.5 -9.5t39.5 -2.5q40 0 66.5 22.5t43.5 62.5l7 16h-52l-147 596h140l112 -475l210 475h138l-292 -637q-40 -88 -99.5 -130t-138.5 -42z" />
    <glyph glyph-name="Ushortcyrillic" unicode="&#x40e;" 
d="M152 -9q-24 0 -48.5 3.5t-49.5 9.5l26 111q24 -7 44.5 -9.5t39.5 -2.5q40 0 66.5 22.5t43.5 62.5l7 16h-52l-147 596h140l112 -475l210 475h138l-292 -637q-40 -88 -99.5 -130t-138.5 -42zM396 893q-90 0 -143 50t-41 160l125 10q-8 -69 7 -98t62 -29t68 29t27 98
l123 -10q-12 -110 -75 -160t-153 -50z" />
    <glyph glyph-name="Efcyrillic" unicode="&#x424;" horiz-adv-x="847" 
d="M502 90h-41l-11 -107h-140l11 107h-40q-119 0 -169.5 69t-37.5 191l10 96q13 123 78.5 193.5t184.5 70.5h40l11 107h140l-11 -107h41q118 0 169 -70.5t38 -193.5l-10 -96q-13 -122 -79 -191t-184 -69zM556 603h-45l-42 -406h45q55 0 81.5 39.5t34.5 113.5l10 96
q8 75 -10.5 116t-73.5 41zM293 197h44l42 406h-44q-55 0 -82 -41t-35 -116l-10 -96q-8 -74 11 -113.5t74 -39.5z" />
    <glyph glyph-name="Khacyrillic" unicode="&#x425;" horiz-adv-x="763" 
d="M487 0l-121 277l-176 -277h-152l271 413l-167 387h158l113 -262l162 262h151l-256 -400l169 -400h-152z" />
    <glyph glyph-name="Tsecyrillic" unicode="&#x426;" horiz-adv-x="763" 
d="M504 -150l16 150h-460l84 800h141l-72 -689h235l72 689h141l-72 -689h83l-28 -261h-140z" />
    <glyph glyph-name="Checyrillic" unicode="&#x427;" 
d="M620 800l-84 -800h-141l28 270h-110q-127 0 -181.5 55.5t-42.5 172.5l32 302h140l-31 -300q-7 -63 17 -92.5t78 -29.5h110l44 422h141z" />
    <glyph glyph-name="Shacyrillic" unicode="&#x428;" horiz-adv-x="930" 
d="M60 0l84 800h135l-72 -689h160l72 689h135l-72 -689h161l72 689h134l-84 -800h-725z" />
    <glyph glyph-name="Shchacyrillic" unicode="&#x429;" horiz-adv-x="972" 
d="M854 -150h-139l16 150h-670l84 800h135l-72 -689h160l72 689h135l-72 -689h161l72 689h134l-72 -689h84z" />
    <glyph glyph-name="Hardsigncyrillic" unicode="&#x42a;" horiz-adv-x="763" 
d="M413 0h-269l72 689h-167l12 111h307l-28 -266h129q116 0 167.5 -53.5t40.5 -160.5l-11 -102q-12 -110 -74.5 -164t-178.5 -54zM296 111h111q56 0 84.5 27t35.5 89l9 83q6 61 -17 88t-79 27h-111z" />
    <glyph glyph-name="Yericyrillic" unicode="&#x42b;" horiz-adv-x="922" 
d="M70 0l84 800h141l-28 -266h110q111 0 162 -53.5t40 -160.5l-11 -102q-11 -108 -73.5 -163t-174.5 -55h-250zM628 0l84 800h141l-84 -800h-141zM223 111h91q54 0 80.5 27t33.5 89l9 83q6 61 -15 88t-75 27h-91z" />
    <glyph glyph-name="Softsigncyrillic" unicode="&#x42c;" 
d="M61 0l84 800h141l-28 -266h129q114 0 166.5 -53.5t41.5 -160.5l-11 -102q-11 -108 -75 -163t-178 -55h-270zM214 111h111q56 0 84.5 27t35.5 89l9 83q6 61 -17 88t-79 27h-111z" />
    <glyph glyph-name="Ereversedcyrillic" unicode="&#x42d;" horiz-adv-x="763" 
d="M339 -10q-140 0 -205 68.5t-56 207.5l141 10q-3 -98 25.5 -136.5t106.5 -38.5q84 0 120.5 36t46.5 126l12 113h-207l11 111h207l5 44q10 93 -19 130t-112 37q-78 0 -115.5 -39.5t-54.5 -138.5l-139 10q21 141 100.5 210.5t220.5 69.5q146 0 210.5 -69t49.5 -204l-29 -278
q-14 -133 -93 -201t-226 -68z" />
    <glyph glyph-name="IUcyrillic" unicode="&#x42e;" horiz-adv-x="1006" 
d="M593 -10q-125 0 -184 70.5t-46 198.5l13 117h-125l-40 -376h-141l84 800h141l-33 -313h125l5 50q14 130 88.5 201.5t199.5 71.5t183.5 -71.5t44.5 -201.5l-29 -278q-13 -128 -87 -198.5t-199 -70.5zM605 101q64 0 94.5 37.5t40.5 128.5l28 262q9 93 -14 131.5t-87 38.5
t-95 -38.5t-40 -131.5l-28 -262q-10 -91 13.5 -128.5t87.5 -37.5z" />
    <glyph glyph-name="IAcyrillic" unicode="&#x42f;" horiz-adv-x="763" 
d="M358 409h163l29 280h-163q-52 0 -80 -24.5t-34 -81.5l-6 -62q-7 -60 16.5 -86t74.5 -26zM510 300h-111l-197 -300h-149l201 307q-73 16 -105 69.5t-22 143.5l7 66q11 106 72.5 160t169.5 54h326l-84 -800h-140z" />
    <glyph glyph-name="Gheupturncyrillic" unicode="&#x490;" horiz-adv-x="596" 
d="M60 0l84 800h310l16 150h140l-28 -261h-309l-72 -689h-141z" />
    <glyph glyph-name="a" unicode="a" horiz-adv-x="763" 
d="M287 88q35 0 68.5 13t59.5 44l11 104h-131q-31 0 -52 -17.5t-25 -61.5q-4 -40 12.5 -61t56.5 -21zM245 -10q-81 0 -126 45t-36 127q9 81 62.5 126t137.5 45h152l9 85q4 43 -17 67.5t-68 24.5q-49 0 -74 -21.5t-44 -81.5l-118 24q27 93 91.5 136t164.5 43q104 0 160 -43.5
t46 -139.5l-27 -256q-5 -48 18 -61t76 -4l-11 -106q-73 -14 -119.5 4.5t-52.5 83.5h-23q-29 -43 -83 -70.5t-118 -27.5z" />
    <glyph glyph-name="agrave" unicode="&#xe0;" horiz-adv-x="763" 
d="M287 88q35 0 68.5 13t59.5 44l11 104h-131q-31 0 -52 -17.5t-25 -61.5q-4 -40 12.5 -61t56.5 -21zM245 -10q-81 0 -126 45t-36 127q9 81 62.5 126t137.5 45h152l9 85q4 43 -17 67.5t-68 24.5q-49 0 -74 -21.5t-44 -81.5l-118 24q27 93 91.5 136t164.5 43q104 0 160 -43.5
t46 -139.5l-27 -256q-5 -48 18 -61t76 -4l-11 -106q-73 -14 -119.5 4.5t-52.5 83.5h-23q-29 -43 -83 -70.5t-118 -27.5zM374 700l-158 200h182l75 -200h-99z" />
    <glyph glyph-name="aacute" unicode="&#xe1;" horiz-adv-x="763" 
d="M287 88q35 0 68.5 13t59.5 44l11 104h-131q-31 0 -52 -17.5t-25 -61.5q-4 -40 12.5 -61t56.5 -21zM245 -10q-81 0 -126 45t-36 127q9 81 62.5 126t137.5 45h152l9 85q4 43 -17 67.5t-68 24.5q-49 0 -74 -21.5t-44 -81.5l-118 24q27 93 91.5 136t164.5 43q104 0 160 -43.5
t46 -139.5l-27 -256q-5 -48 18 -61t76 -4l-11 -106q-73 -14 -119.5 4.5t-52.5 83.5h-23q-29 -43 -83 -70.5t-118 -27.5zM278 700l118 200h182l-201 -200h-99z" />
    <glyph glyph-name="acircumflex" unicode="&#xe2;" horiz-adv-x="763" 
d="M287 88q35 0 68.5 13t59.5 44l11 104h-131q-31 0 -52 -17.5t-25 -61.5q-4 -40 12.5 -61t56.5 -21zM245 -10q-81 0 -126 45t-36 127q9 81 62.5 126t137.5 45h152l9 85q4 43 -17 67.5t-68 24.5q-49 0 -74 -21.5t-44 -81.5l-118 24q27 93 91.5 136t164.5 43q104 0 160 -43.5
t46 -139.5l-27 -256q-5 -48 18 -61t76 -4l-11 -106q-73 -14 -119.5 4.5t-52.5 83.5h-23q-29 -43 -83 -70.5t-118 -27.5zM226 700l-42 68l170 152h106l140 -152l-55 -67l-150 109z" />
    <glyph glyph-name="atilde" unicode="&#xe3;" horiz-adv-x="763" 
d="M287 88q35 0 68.5 13t59.5 44l11 104h-131q-31 0 -52 -17.5t-25 -61.5q-4 -40 12.5 -61t56.5 -21zM245 -10q-81 0 -126 45t-36 127q9 81 62.5 126t137.5 45h152l9 85q4 43 -17 67.5t-68 24.5q-49 0 -74 -21.5t-44 -81.5l-118 24q27 93 91.5 136t164.5 43q104 0 160 -43.5
t46 -139.5l-27 -256q-5 -48 18 -61t76 -4l-11 -106q-73 -14 -119.5 4.5t-52.5 83.5h-23q-29 -43 -83 -70.5t-118 -27.5zM461 710q-35 0 -55 16t-34 38l-20.5 36.5t-25.5 16.5t-28 -17.5t-16 -63.5l-1 -16h-93l1 15q9 80 47.5 131t98.5 51q34 0 54 -15.5t34 -38.5l20.5 -37
t23.5 -17q16 0 28 18t17 64l1 16h93l-1 -15q-9 -81 -47 -131.5t-97 -50.5z" />
    <glyph glyph-name="adieresis" unicode="&#xe4;" horiz-adv-x="763" 
d="M287 88q35 0 68.5 13t59.5 44l11 104h-131q-31 0 -52 -17.5t-25 -61.5q-4 -40 12.5 -61t56.5 -21zM245 -10q-81 0 -126 45t-36 127q9 81 62.5 126t137.5 45h152l9 85q4 43 -17 67.5t-68 24.5q-49 0 -74 -21.5t-44 -81.5l-118 24q27 93 91.5 136t164.5 43q104 0 160 -43.5
t46 -139.5l-27 -256q-5 -48 18 -61t76 -4l-11 -106q-73 -14 -119.5 4.5t-52.5 83.5h-23q-29 -43 -83 -70.5t-118 -27.5zM280 703q-32 0 -51 13.5t-15 50.5l1 10q4 37 26 51.5t54 14.5q33 0 51.5 -14.5t14.5 -51.5l-1 -10q-4 -37 -26 -50.5t-54 -13.5zM490 703
q-33 0 -51.5 13.5t-14.5 50.5l1 10q4 37 25.5 51.5t54.5 14.5q32 0 51 -14.5t15 -51.5l-1 -10q-4 -37 -26.5 -50.5t-53.5 -13.5z" />
    <glyph glyph-name="aring" unicode="&#xe5;" horiz-adv-x="763" 
d="M287 88q35 0 68.5 13t59.5 44l11 104h-131q-31 0 -52 -17.5t-25 -61.5q-4 -40 12.5 -61t56.5 -21zM245 -10q-81 0 -126 45t-36 127q9 81 62.5 126t137.5 45h152l9 85q4 43 -17 67.5t-68 24.5q-49 0 -74 -21.5t-44 -81.5l-118 24q27 93 91.5 136t164.5 43q104 0 160 -43.5
t46 -139.5l-27 -256q-5 -48 18 -61t76 -4l-11 -106q-73 -14 -119.5 4.5t-52.5 83.5h-23q-29 -43 -83 -70.5t-118 -27.5zM383 682q-72 0 -113.5 36t-33.5 112l4 32q8 77 56.5 114t120.5 37q73 0 114 -37t33 -114l-4 -32q-8 -76 -56.5 -112t-120.5 -36zM391 759
q31 0 48.5 16.5t21.5 54.5l4 32q3 37 -11 55.5t-45 18.5t-49 -18.5t-21 -55.5l-4 -32q-4 -38 10.5 -54.5t45.5 -16.5z" />
    <glyph glyph-name="amacron" unicode="&#x101;" horiz-adv-x="763" 
d="M287 88q35 0 68.5 13t59.5 44l11 104h-131q-31 0 -52 -17.5t-25 -61.5q-4 -40 12.5 -61t56.5 -21zM245 -10q-81 0 -126 45t-36 127q9 81 62.5 126t137.5 45h152l9 85q4 43 -17 67.5t-68 24.5q-49 0 -74 -21.5t-44 -81.5l-118 24q27 93 91.5 136t164.5 43q104 0 160 -43.5
t46 -139.5l-27 -256q-5 -48 18 -61t76 -4l-11 -106q-73 -14 -119.5 4.5t-52.5 83.5h-23q-29 -43 -83 -70.5t-118 -27.5zM208 745l12 110h362l-12 -110h-362z" />
    <glyph glyph-name="abreve" unicode="&#x103;" horiz-adv-x="763" 
d="M287 88q35 0 68.5 13t59.5 44l11 104h-131q-31 0 -52 -17.5t-25 -61.5q-4 -40 12.5 -61t56.5 -21zM245 -10q-81 0 -126 45t-36 127q9 81 62.5 126t137.5 45h152l9 85q4 43 -17 67.5t-68 24.5q-49 0 -74 -21.5t-44 -81.5l-118 24q27 93 91.5 136t164.5 43q104 0 160 -43.5
t46 -139.5l-27 -256q-5 -48 18 -61t76 -4l-11 -106q-73 -14 -119.5 4.5t-52.5 83.5h-23q-29 -43 -83 -70.5t-118 -27.5zM384 693q-104 0 -153 53.5t-38 166.5h118q-7 -71 12.5 -99t70.5 -28t75.5 28t33.5 99h118q-13 -113 -73 -166.5t-164 -53.5z" />
    <glyph glyph-name="aogonek" unicode="&#x105;" horiz-adv-x="763" 
d="M287 88q35 0 68.5 13t59.5 44l11 104h-131q-31 0 -52 -17.5t-25 -61.5q-4 -40 12.5 -61t56.5 -21zM245 -10q-81 0 -126 45t-36 127q9 81 62.5 126t137.5 45h152l9 85q4 43 -17 67.5t-68 24.5q-49 0 -74 -21.5t-44 -81.5l-118 24q27 93 91.5 136t164.5 43q104 0 160 -43.5
t46 -139.5l-27 -256q-5 -48 18 -61t76 -4l-11 -106q-73 -14 -119.5 4.5t-52.5 83.5h-23q-29 -43 -83 -70.5t-118 -27.5zM518 -218q-66 0 -101 32t-29 90q5 52 47 93.5t94 59.5l18 -34q-28 -19 -39 -41.5t-14 -44.5q-2 -27 12 -40.5t45 -13.5q15 0 35.5 3t43.5 7l-11 -100
q-25 -5 -52 -8t-49 -3z" />
    <glyph glyph-name="aringacute" unicode="&#x1fb;" horiz-adv-x="763" 
d="M287 88q35 0 68.5 13t59.5 44l11 104h-131q-31 0 -52 -17.5t-25 -61.5q-4 -40 12.5 -61t56.5 -21zM245 -10q-81 0 -126 45t-36 127q9 81 62.5 126t137.5 45h152l9 85q4 43 -17 67.5t-68 24.5q-49 0 -74 -21.5t-44 -81.5l-118 24q27 93 91.5 136t164.5 43q104 0 160 -43.5
t46 -139.5l-27 -256q-5 -48 18 -61t76 -4l-11 -106q-73 -14 -119.5 4.5t-52.5 83.5h-23q-29 -43 -83 -70.5t-118 -27.5zM383 682q-72 0 -113.5 36t-33.5 112l4 32q8 77 56.5 114t120.5 37q73 0 114 -37t33 -114l-4 -32q-8 -76 -56.5 -112t-120.5 -36zM391 759
q31 0 48.5 16.5t21.5 54.5l4 32q3 37 -11 55.5t-45 18.5t-49 -18.5t-21 -55.5l-4 -32q-4 -38 10.5 -54.5t45.5 -16.5zM331 1000l118 200h182l-201 -200h-99z" />
    <glyph glyph-name="b" unicode="b" 
d="M291 -9q-63 0 -123.5 17t-100.5 52l78 740h141l-30 -290h25q21 48 63 74t96 26q75 0 111.5 -55.5t26.5 -156.5l-20 -192q-11 -106 -82.5 -160.5t-184.5 -54.5zM309 97q47 0 74 25t34 85l19 184q6 57 -11.5 81t-54.5 24q-33 0 -64 -17.5t-60 -55.5l-31 -298
q17 -13 39.5 -20.5t54.5 -7.5z" />
    <glyph glyph-name="c" unicode="c" 
d="M303 -10q-122 0 -176.5 56.5t-43.5 159.5l19 185q12 110 82 164.5t184 54.5t168 -53t51 -157l-137 -9q3 63 -17.5 87t-73.5 24q-56 0 -83 -26t-33 -86l-19 -181q-6 -61 15 -86.5t78 -25.5q54 0 79 21.5t34 77.5l135 -10q-17 -99 -80 -147.5t-182 -48.5z" />
    <glyph glyph-name="ccedilla" unicode="&#xe7;" 
d="M303 -10q-122 0 -176.5 56.5t-43.5 159.5l19 185q12 110 82 164.5t184 54.5t168 -53t51 -157l-137 -9q3 63 -17.5 87t-73.5 24q-56 0 -83 -26t-33 -86l-19 -181q-6 -61 15 -86.5t78 -25.5q54 0 79 21.5t34 77.5l135 -10q-17 -99 -80 -147.5t-182 -48.5zM269 0l20 42
q67 -9 102 -40.5t29 -91.5q-7 -66 -57.5 -97.5t-118.5 -31.5q-74 0 -115.5 28t-39.5 88l120 10q-1 -19 8 -26.5t31 -7.5q24 0 36.5 11.5t16.5 45.5q3 32 -4 47t-28 23z" />
    <glyph glyph-name="cacute" unicode="&#x107;" 
d="M303 -10q-122 0 -176.5 56.5t-43.5 159.5l19 185q12 110 82 164.5t184 54.5t168 -53t51 -157l-137 -9q3 63 -17.5 87t-73.5 24q-56 0 -83 -26t-33 -86l-19 -181q-6 -61 15 -86.5t78 -25.5q54 0 79 21.5t34 77.5l135 -10q-17 -99 -80 -147.5t-182 -48.5zM261 700l118 200
h182l-201 -200h-99z" />
    <glyph glyph-name="ccircumflex" unicode="&#x109;" 
d="M303 -10q-122 0 -176.5 56.5t-43.5 159.5l19 185q12 110 82 164.5t184 54.5t168 -53t51 -157l-137 -9q3 63 -17.5 87t-73.5 24q-56 0 -83 -26t-33 -86l-19 -181q-6 -61 15 -86.5t78 -25.5q54 0 79 21.5t34 77.5l135 -10q-17 -99 -80 -147.5t-182 -48.5zM211 700l-42 68
l170 152h106l140 -152l-55 -67l-150 109z" />
    <glyph glyph-name="cdotaccent" unicode="&#x10b;" 
d="M303 -10q-122 0 -176.5 56.5t-43.5 159.5l19 185q12 110 82 164.5t184 54.5t168 -53t51 -157l-137 -9q3 63 -17.5 87t-73.5 24q-56 0 -83 -26t-33 -86l-19 -181q-6 -61 15 -86.5t78 -25.5q54 0 79 21.5t34 77.5l135 -10q-17 -99 -80 -147.5t-182 -48.5zM370 703
q-43 0 -68 13.5t-21 50.5l1 10q4 37 32 51.5t71 14.5t68 -14.5t21 -51.5l-1 -10q-4 -37 -32.5 -50.5t-70.5 -13.5z" />
    <glyph glyph-name="ccaron" unicode="&#x10d;" 
d="M303 -10q-122 0 -176.5 56.5t-43.5 159.5l19 185q12 110 82 164.5t184 54.5t168 -53t51 -157l-137 -9q3 63 -17.5 87t-73.5 24q-56 0 -83 -26t-33 -86l-19 -181q-6 -61 15 -86.5t78 -25.5q54 0 79 21.5t34 77.5l135 -10q-17 -99 -80 -147.5t-182 -48.5zM318 704l-140 152
l55 68l150 -109l169 109l42 -68l-170 -152h-106z" />
    <glyph glyph-name="d" unicode="d" 
d="M290 104q32 0 63 18.5t61 57.5l30 289q-22 17 -44.5 25.5t-47.5 8.5q-49 0 -76 -27t-33 -83l-19 -184q-6 -56 11.5 -80.5t54.5 -24.5zM381 93q-22 -47 -64.5 -75t-99.5 -28q-74 0 -109.5 56.5t-25.5 155.5l20 192q11 101 74.5 158t164.5 57q31 0 61.5 -7t53.5 -20l23 218
h141l-84 -800h-141l10 93h-24z" />
    <glyph glyph-name="dcaron" unicode="&#x10f;" 
d="M290 104q32 0 63 18.5t61 57.5l30 289q-22 17 -44.5 25.5t-47.5 8.5q-49 0 -76 -27t-33 -83l-19 -184q-6 -56 11.5 -80.5t54.5 -24.5zM381 93q-22 -47 -64.5 -75t-99.5 -28q-74 0 -109.5 56.5t-25.5 155.5l20 192q11 101 74.5 158t164.5 57q31 0 61.5 -7t53.5 -20l23 218
h141l-84 -800h-141l10 93h-24zM665 705l82 295h180l-179 -295h-83z" />
    <glyph glyph-name="e" unicode="e" 
d="M552 135q-33 -75 -96 -110t-159 -35q-111 0 -168 58t-46 162l19 180q11 104 81 162t180 58t167.5 -59t45.5 -166l-11 -112h-334l-7 -64q-7 -64 14.5 -92t77.5 -28q49 0 75.5 18.5t45.5 61.5zM243 390l-3 -33h193l2 27q8 69 -12 99t-71 30t-76.5 -28.5t-32.5 -94.5z" />
    <glyph glyph-name="egrave" unicode="&#xe8;" 
d="M552 135q-33 -75 -96 -110t-159 -35q-111 0 -168 58t-46 162l19 180q11 104 81 162t180 58t167.5 -59t45.5 -166l-11 -112h-334l-7 -64q-7 -64 14.5 -92t77.5 -28q49 0 75.5 18.5t45.5 61.5zM243 390l-3 -33h193l2 27q8 69 -12 99t-71 30t-76.5 -28.5t-32.5 -94.5z
M363 700l-158 200h182l75 -200h-99z" />
    <glyph glyph-name="eacute" unicode="&#xe9;" 
d="M552 135q-33 -75 -96 -110t-159 -35q-111 0 -168 58t-46 162l19 180q11 104 81 162t180 58t167.5 -59t45.5 -166l-11 -112h-334l-7 -64q-7 -64 14.5 -92t77.5 -28q49 0 75.5 18.5t45.5 61.5zM243 390l-3 -33h193l2 27q8 69 -12 99t-71 30t-76.5 -28.5t-32.5 -94.5z
M267 700l118 200h182l-201 -200h-99z" />
    <glyph glyph-name="ecircumflex" unicode="&#xea;" 
d="M552 135q-33 -75 -96 -110t-159 -35q-111 0 -168 58t-46 162l19 180q11 104 81 162t180 58t167.5 -59t45.5 -166l-11 -112h-334l-7 -64q-7 -64 14.5 -92t77.5 -28q49 0 75.5 18.5t45.5 61.5zM243 390l-3 -33h193l2 27q8 69 -12 99t-71 30t-76.5 -28.5t-32.5 -94.5z
M215 700l-42 68l170 152h106l140 -152l-55 -67l-150 109z" />
    <glyph glyph-name="edieresis" unicode="&#xeb;" 
d="M552 135q-33 -75 -96 -110t-159 -35q-111 0 -168 58t-46 162l19 180q11 104 81 162t180 58t167.5 -59t45.5 -166l-11 -112h-334l-7 -64q-7 -64 14.5 -92t77.5 -28q49 0 75.5 18.5t45.5 61.5zM243 390l-3 -33h193l2 27q8 69 -12 99t-71 30t-76.5 -28.5t-32.5 -94.5z
M269 703q-32 0 -51 13.5t-15 50.5l1 10q4 37 26 51.5t54 14.5q33 0 51.5 -14.5t14.5 -51.5l-1 -10q-4 -37 -26 -50.5t-54 -13.5zM479 703q-33 0 -51.5 13.5t-14.5 50.5l1 10q4 37 25.5 51.5t54.5 14.5q32 0 51 -14.5t15 -51.5l-1 -10q-4 -37 -26.5 -50.5t-53.5 -13.5z" />
    <glyph glyph-name="emacron" unicode="&#x113;" 
d="M552 135q-33 -75 -96 -110t-159 -35q-111 0 -168 58t-46 162l19 180q11 104 81 162t180 58t167.5 -59t45.5 -166l-11 -112h-334l-7 -64q-7 -64 14.5 -92t77.5 -28q49 0 75.5 18.5t45.5 61.5zM243 390l-3 -33h193l2 27q8 69 -12 99t-71 30t-76.5 -28.5t-32.5 -94.5z
M197 745l12 110h362l-12 -110h-362z" />
    <glyph glyph-name="ebreve" unicode="&#x115;" 
d="M552 135q-33 -75 -96 -110t-159 -35q-111 0 -168 58t-46 162l19 180q11 104 81 162t180 58t167.5 -59t45.5 -166l-11 -112h-334l-7 -64q-7 -64 14.5 -92t77.5 -28q49 0 75.5 18.5t45.5 61.5zM243 390l-3 -33h193l2 27q8 69 -12 99t-71 30t-76.5 -28.5t-32.5 -94.5z
M373 693q-104 0 -153 53.5t-38 166.5h118q-7 -71 12.5 -99t70.5 -28t75.5 28t33.5 99h118q-13 -113 -73 -166.5t-164 -53.5z" />
    <glyph glyph-name="edotaccent" unicode="&#x117;" 
d="M552 135q-33 -75 -96 -110t-159 -35q-111 0 -168 58t-46 162l19 180q11 104 81 162t180 58t167.5 -59t45.5 -166l-11 -112h-334l-7 -64q-7 -64 14.5 -92t77.5 -28q49 0 75.5 18.5t45.5 61.5zM243 390l-3 -33h193l2 27q8 69 -12 99t-71 30t-76.5 -28.5t-32.5 -94.5z
M374 703q-43 0 -68 13.5t-21 50.5l1 10q4 37 32 51.5t71 14.5t68 -14.5t21 -51.5l-1 -10q-4 -37 -32.5 -50.5t-70.5 -13.5z" />
    <glyph glyph-name="eogonek" unicode="&#x119;" 
d="M410 -218q-66 0 -101 32t-29 90q5 52 47 93.5t94 59.5l18 -34q-28 -19 -39 -41.5t-14 -44.5q-2 -27 12 -40.5t45 -13.5q15 0 35.5 3t43.5 7l-11 -100q-25 -5 -52 -8t-49 -3zM552 135q-33 -75 -96 -110t-159 -35q-111 0 -168 58t-46 162l19 180q11 104 81 162t180 58
t167.5 -59t45.5 -166l-11 -112h-334l-7 -64q-7 -64 14.5 -92t77.5 -28q49 0 75.5 18.5t45.5 61.5zM243 390l-3 -33h193l2 27q8 69 -12 99t-71 30t-76.5 -28.5t-32.5 -94.5z" />
    <glyph glyph-name="ecaron" unicode="&#x11b;" 
d="M552 135q-33 -75 -96 -110t-159 -35q-111 0 -168 58t-46 162l19 180q11 104 81 162t180 58t167.5 -59t45.5 -166l-11 -112h-334l-7 -64q-7 -64 14.5 -92t77.5 -28q49 0 75.5 18.5t45.5 61.5zM243 390l-3 -33h193l2 27q8 69 -12 99t-71 30t-76.5 -28.5t-32.5 -94.5z
M322 704l-140 152l55 68l150 -109l169 109l42 -68l-170 -152h-106z" />
    <glyph glyph-name="f" unicode="f" horiz-adv-x="596" 
d="M123 -200l73 693h-100l11 107h100l5 47q9 81 66 127t147 46q28 0 59.5 -7t58.5 -18l-28 -98q-23 9 -43.5 14t-37.5 5q-35 0 -57 -18t-26 -57l-4 -41h167l-11 -107h-167l-73 -693h-140z" />
    <glyph glyph-name="g" unicode="g" horiz-adv-x="763" 
d="M614 -41q-9 -81 -65 -125t-145 -44h-165q-98 0 -145.5 37.5t-40.5 106.5q5 49 33 78.5t69 34.5l2 20q-30 8 -48 31t-13 71t40 82t88 41l2 18q-44 16 -63 48t-15 69l2 18q7 71 67.5 113t168.5 42h289l-10 -97l-133 22l-2 -20q30 -10 46.5 -40t12.5 -64l-2 -18
q-7 -69 -66 -110.5t-172 -41.5h-88q-26 0 -41.5 -12.5t-19.5 -42.5q-3 -29 12 -42.5t44 -13.5h189q87 0 132.5 -38.5t36.5 -122.5zM359 312q45 0 68 21.5t28 62.5l3 31q4 42 -14.5 62.5t-63.5 20.5t-69 -20.5t-28 -62.5l-3 -31q-5 -41 14 -62.5t65 -21.5zM249 -120h161
q35 0 59 14.5t29 53.5q3 37 -17.5 51t-54.5 14h-231l-6 -60q-4 -37 11 -55t49 -18z" />
    <glyph glyph-name="gcircumflex" unicode="&#x11d;" horiz-adv-x="763" 
d="M614 -41q-9 -81 -65 -125t-145 -44h-165q-98 0 -145.5 37.5t-40.5 106.5q5 49 33 78.5t69 34.5l2 20q-30 8 -48 31t-13 71t40 82t88 41l2 18q-44 16 -63 48t-15 69l2 18q7 71 67.5 113t168.5 42h289l-10 -97l-133 22l-2 -20q30 -10 46.5 -40t12.5 -64l-2 -18
q-7 -69 -66 -110.5t-172 -41.5h-88q-26 0 -41.5 -12.5t-19.5 -42.5q-3 -29 12 -42.5t44 -13.5h189q87 0 132.5 -38.5t36.5 -122.5zM359 312q45 0 68 21.5t28 62.5l3 31q4 42 -14.5 62.5t-63.5 20.5t-69 -20.5t-28 -62.5l-3 -31q-5 -41 14 -62.5t65 -21.5zM249 -120h161
q35 0 59 14.5t29 53.5q3 37 -17.5 51t-54.5 14h-231l-6 -60q-4 -37 11 -55t49 -18zM255 700l-42 68l170 152h106l140 -152l-55 -67l-150 109z" />
    <glyph glyph-name="gbreve" unicode="&#x11f;" horiz-adv-x="763" 
d="M614 -41q-9 -81 -65 -125t-145 -44h-165q-98 0 -145.5 37.5t-40.5 106.5q5 49 33 78.5t69 34.5l2 20q-30 8 -48 31t-13 71t40 82t88 41l2 18q-44 16 -63 48t-15 69l2 18q7 71 67.5 113t168.5 42h289l-10 -97l-133 22l-2 -20q30 -10 46.5 -40t12.5 -64l-2 -18
q-7 -69 -66 -110.5t-172 -41.5h-88q-26 0 -41.5 -12.5t-19.5 -42.5q-3 -29 12 -42.5t44 -13.5h189q87 0 132.5 -38.5t36.5 -122.5zM359 312q45 0 68 21.5t28 62.5l3 31q4 42 -14.5 62.5t-63.5 20.5t-69 -20.5t-28 -62.5l-3 -31q-5 -41 14 -62.5t65 -21.5zM249 -120h161
q35 0 59 14.5t29 53.5q3 37 -17.5 51t-54.5 14h-231l-6 -60q-4 -37 11 -55t49 -18zM413 693q-104 0 -153 53.5t-38 166.5h118q-7 -71 12.5 -99t70.5 -28t75.5 28t33.5 99h118q-13 -113 -73 -166.5t-164 -53.5z" />
    <glyph glyph-name="gdotaccent" unicode="&#x121;" horiz-adv-x="763" 
d="M614 -41q-9 -81 -65 -125t-145 -44h-165q-98 0 -145.5 37.5t-40.5 106.5q5 49 33 78.5t69 34.5l2 20q-30 8 -48 31t-13 71t40 82t88 41l2 18q-44 16 -63 48t-15 69l2 18q7 71 67.5 113t168.5 42h289l-10 -97l-133 22l-2 -20q30 -10 46.5 -40t12.5 -64l-2 -18
q-7 -69 -66 -110.5t-172 -41.5h-88q-26 0 -41.5 -12.5t-19.5 -42.5q-3 -29 12 -42.5t44 -13.5h189q87 0 132.5 -38.5t36.5 -122.5zM359 312q45 0 68 21.5t28 62.5l3 31q4 42 -14.5 62.5t-63.5 20.5t-69 -20.5t-28 -62.5l-3 -31q-5 -41 14 -62.5t65 -21.5zM249 -120h161
q35 0 59 14.5t29 53.5q3 37 -17.5 51t-54.5 14h-231l-6 -60q-4 -37 11 -55t49 -18zM414 703q-43 0 -68 13.5t-21 50.5l1 10q4 37 32 51.5t71 14.5t68 -14.5t21 -51.5l-1 -10q-4 -37 -32.5 -50.5t-70.5 -13.5z" />
    <glyph glyph-name="gcommaaccent" unicode="&#x123;" horiz-adv-x="763" 
d="M614 -41q-9 -81 -65 -125t-145 -44h-165q-98 0 -145.5 37.5t-40.5 106.5q5 49 33 78.5t69 34.5l2 20q-30 8 -48 31t-13 71t40 82t88 41l2 18q-44 16 -63 48t-15 69l2 18q7 71 67.5 113t168.5 42h289l-10 -97l-133 22l-2 -20q30 -10 46.5 -40t12.5 -64l-2 -18
q-7 -69 -66 -110.5t-172 -41.5h-88q-26 0 -41.5 -12.5t-19.5 -42.5q-3 -29 12 -42.5t44 -13.5h189q87 0 132.5 -38.5t36.5 -122.5zM359 312q45 0 68 21.5t28 62.5l3 31q4 42 -14.5 62.5t-63.5 20.5t-69 -20.5t-28 -62.5l-3 -31q-5 -41 14 -62.5t65 -21.5zM249 -120h161
q35 0 59 14.5t29 53.5q3 37 -17.5 51t-54.5 14h-231l-6 -60q-4 -37 11 -55t49 -18zM301 700l167 200h99l-84 -200h-182z" />
    <glyph glyph-name="h" unicode="h" 
d="M61 0l84 800h141l-30 -290h25q24 47 67 73.5t96 26.5q71 0 108 -51.5t28 -141.5l-44 -417h-141l41 394q6 51 -10.5 76.5t-50.5 25.5q-35 0 -68 -22.5t-62 -62.5l-43 -411h-141z" />
    <glyph glyph-name="hcircumflex" unicode="&#x125;" 
d="M61 0l84 800h141l-30 -290h25q24 47 67 73.5t96 26.5q71 0 108 -51.5t28 -141.5l-44 -417h-141l41 394q6 51 -10.5 76.5t-50.5 25.5q-35 0 -68 -22.5t-62 -62.5l-43 -411h-141zM45 900l-42 68l170 152h106l140 -152l-55 -67l-150 109z" />
    <glyph glyph-name="i" horiz-adv-x="437" 
d="M107 0l63 600h140l-63 -600h-140zM251 703q-43 0 -68 13.5t-21 50.5l1 10q4 37 32 51.5t71 14.5t68 -14.5t21 -51.5l-1 -10q-4 -37 -32.5 -50.5t-70.5 -13.5z" />
    <glyph glyph-name="igrave" horiz-adv-x="437" 
d="M107 0l63 600h140l-63 -600h-140zM240 700l-158 200h182l75 -200h-99z" />
    <glyph glyph-name="iacute" horiz-adv-x="437" 
d="M107 0l63 600h140l-63 -600h-140zM144 700l118 200h182l-201 -200h-99z" />
    <glyph glyph-name="icircumflex" horiz-adv-x="437" 
d="M107 0l63 600h140l-63 -600h-140zM92 700l-42 68l170 152h106l140 -152l-55 -67l-150 109z" />
    <glyph glyph-name="idieresis" horiz-adv-x="437" 
d="M107 0l63 600h140l-63 -600h-140zM146 703q-32 0 -51 13.5t-15 50.5l1 10q4 37 26 51.5t54 14.5q33 0 51.5 -14.5t14.5 -51.5l-1 -10q-4 -37 -26 -50.5t-54 -13.5zM356 703q-33 0 -51.5 13.5t-14.5 50.5l1 10q4 37 25.5 51.5t54.5 14.5q32 0 51 -14.5t15 -51.5l-1 -10
q-4 -37 -26.5 -50.5t-53.5 -13.5z" />
    <glyph glyph-name="itilde" horiz-adv-x="437" 
d="M107 0l63 600h140l-63 -600h-140zM327 710q-35 0 -55 16t-34 38l-20.5 36.5t-25.5 16.5t-28 -17.5t-16 -63.5l-1 -16h-93l1 15q9 80 47.5 131t98.5 51q34 0 54 -15.5t34 -38.5l20.5 -37t23.5 -17q16 0 28 18t17 64l1 16h93l-1 -15q-9 -81 -47 -131.5t-97 -50.5z" />
    <glyph glyph-name="imacron" horiz-adv-x="437" 
d="M107 0l63 600h140l-63 -600h-140zM74 745l12 110h362l-12 -110h-362z" />
    <glyph glyph-name="ibreve" horiz-adv-x="437" 
d="M107 0l63 600h140l-63 -600h-140zM250 693q-104 0 -153 53.5t-38 166.5h118q-7 -71 12.5 -99t70.5 -28t75.5 28t33.5 99h118q-13 -113 -73 -166.5t-164 -53.5z" />
    <glyph glyph-name="iogonek" horiz-adv-x="437" 
d="M251 703q-43 0 -68 13.5t-21 50.5l1 10q4 37 32 51.5t71 14.5t68 -14.5t21 -51.5l-1 -10q-4 -37 -32.5 -50.5t-70.5 -13.5zM107 0l63 600h140l-63 -600h-140zM173 -218q-66 0 -101 32t-29 90q5 52 47 93.5t94 59.5l18 -34q-28 -19 -39 -41.5t-14 -44.5q-2 -27 12 -40.5
t45 -13.5q15 0 35.5 3t43.5 7l-11 -100q-25 -5 -52 -8t-49 -3z" />
    <glyph glyph-name="j" unicode="j" horiz-adv-x="513" 
d="M102 -209q-28 0 -57.5 6t-57.5 16l28 104q23 -10 43.5 -15.5t39.5 -5.5q35 0 59 25t30 82l52 490h-150l11 107h290l-64 -608q-10 -99 -73.5 -150t-150.5 -51zM330 703q-43 0 -68 13.5t-21 50.5l1 10q4 37 32 51.5t71 14.5t68 -14.5t21 -51.5l-1 -10q-4 -37 -32.5 -50.5
t-70.5 -13.5z" />
    <glyph glyph-name="jcircumflex" unicode="&#x135;" horiz-adv-x="513" 
d="M102 -209q-28 0 -57.5 6t-57.5 16l28 104q23 -10 43.5 -15.5t39.5 -5.5q35 0 59 25t30 82l52 490h-150l11 107h290l-64 -608q-10 -99 -73.5 -150t-150.5 -51zM140 700l-42 68l170 152h106l140 -152l-55 -67l-150 109z" />
    <glyph glyph-name="k" unicode="k" horiz-adv-x="596" 
d="M229 263l-28 -263h-141l84 800h141l-46 -437h35l157 237h149l-198 -276l132 -324h-151l-99 263h-35z" />
    <glyph glyph-name="kcommaaccent" unicode="&#x137;" horiz-adv-x="596" 
d="M229 263l-28 -263h-141l84 800h141l-46 -437h35l157 237h149l-198 -276l132 -324h-151l-99 263h-35zM111 -300l84 200h182l-167 -200h-99z" />
    <glyph glyph-name="l" horiz-adv-x="513" 
d="M297 -7q-93 0 -137.5 60t-34.5 160l62 587h141l-62 -587q-5 -52 11 -80t53 -28q16 0 36 5.5t37 13.5l11 -104q-26 -12 -56 -19.5t-61 -7.5z" />
    <glyph glyph-name="lacute" horiz-adv-x="513" 
d="M297 -7q-93 0 -137.5 60t-34.5 160l62 587h141l-62 -587q-5 -52 11 -80t53 -28q16 0 36 5.5t37 13.5l11 -104q-26 -12 -56 -19.5t-61 -7.5zM141 900l118 200h182l-201 -200h-99z" />
    <glyph glyph-name="lcommaaccent" horiz-adv-x="513" 
d="M297 -7q-93 0 -137.5 60t-34.5 160l62 587h141l-62 -587q-5 -52 11 -80t53 -28q16 0 36 5.5t37 13.5l11 -104q-26 -12 -56 -19.5t-61 -7.5zM90 -300l84 200h182l-167 -200h-99z" />
    <glyph glyph-name="lcaron" horiz-adv-x="513" 
d="M297 -7q-93 0 -137.5 60t-34.5 160l62 587h141l-62 -587q-5 -52 11 -80t53 -28q16 0 36 5.5t37 13.5l11 -104q-26 -12 -56 -19.5t-61 -7.5zM375 705l82 295h180l-179 -295h-83z" />
    <glyph glyph-name="m" unicode="m" horiz-adv-x="930" 
d="M246 424l-45 -424h-141l63 600h141l-9 -90h25q20 46 60 73t87 27q43 0 71.5 -26.5t37.5 -73.5h35q20 46 59.5 73t86.5 27q61 0 91.5 -49t21.5 -135l-45 -426h-140l44 414q4 41 -8 61.5t-38 20.5q-28 0 -55.5 -18.5t-49.5 -53.5l-45 -424h-140l44 414q4 41 -8 61.5
t-38 20.5q-28 0 -55.5 -18.5t-49.5 -53.5z" />
    <glyph glyph-name="n" unicode="n" 
d="M61 0l63 600h141l-9 -90h25q22 46 66.5 73t96.5 27q72 0 108.5 -52.5t27.5 -141.5l-44 -416h-141l41 394q6 51 -10 76.5t-50 25.5q-36 0 -69 -22.5t-62 -62.5l-43 -411h-141z" />
    <glyph glyph-name="ntilde" unicode="&#xf1;" 
d="M61 0l63 600h141l-9 -90h25q22 46 66.5 73t96.5 27q72 0 108.5 -52.5t27.5 -141.5l-44 -416h-141l41 394q6 51 -10 76.5t-50 25.5q-36 0 -69 -22.5t-62 -62.5l-43 -411h-141zM464 710q-35 0 -55 16t-34 38l-20.5 36.5t-25.5 16.5t-28 -17.5t-16 -63.5l-1 -16h-93l1 15
q9 80 47.5 131t98.5 51q34 0 54 -15.5t34 -38.5l20.5 -37t23.5 -17q16 0 28 18t17 64l1 16h93l-1 -15q-9 -81 -47 -131.5t-97 -50.5z" />
    <glyph glyph-name="nacute" unicode="&#x144;" 
d="M61 0l63 600h141l-9 -90h25q22 46 66.5 73t96.5 27q72 0 108.5 -52.5t27.5 -141.5l-44 -416h-141l41 394q6 51 -10 76.5t-50 25.5q-36 0 -69 -22.5t-62 -62.5l-43 -411h-141zM281 700l118 200h182l-201 -200h-99z" />
    <glyph glyph-name="ncommaaccent" unicode="&#x146;" 
d="M136 -300l84 200h182l-167 -200h-99zM61 0l63 600h141l-9 -90h25q22 46 66.5 73t96.5 27q72 0 108.5 -52.5t27.5 -141.5l-44 -416h-141l41 394q6 51 -10 76.5t-50 25.5q-36 0 -69 -22.5t-62 -62.5l-43 -411h-141z" />
    <glyph glyph-name="ncaron" unicode="&#x148;" 
d="M61 0l63 600h141l-9 -90h25q22 46 66.5 73t96.5 27q72 0 108.5 -52.5t27.5 -141.5l-44 -416h-141l41 394q6 51 -10 76.5t-50 25.5q-36 0 -69 -22.5t-62 -62.5l-43 -411h-141zM336 704l-140 152l55 68l150 -109l169 109l42 -68l-170 -152h-106z" />
    <glyph glyph-name="o" unicode="o" 
d="M297 -10q-107 0 -166 57.5t-48 164.5l18 172q12 109 83.5 167.5t178.5 58.5q108 0 166.5 -58.5t46.5 -167.5l-18 -172q-11 -107 -82 -164.5t-179 -57.5zM308 97q51 0 77 28t33 91l17 168q7 62 -13 90.5t-71 28.5t-76.5 -29t-32.5 -91l-17 -167q-7 -63 12.5 -91t70.5 -28z
" />
    <glyph glyph-name="ograve" unicode="&#xf2;" 
d="M297 -10q-107 0 -166 57.5t-48 164.5l18 172q12 109 83.5 167.5t178.5 58.5q108 0 166.5 -58.5t46.5 -167.5l-18 -172q-11 -107 -82 -164.5t-179 -57.5zM308 97q51 0 77 28t33 91l17 168q7 62 -13 90.5t-71 28.5t-76.5 -29t-32.5 -91l-17 -167q-7 -63 12.5 -91t70.5 -28z
M360 700l-158 200h182l75 -200h-99z" />
    <glyph glyph-name="oacute" unicode="&#xf3;" 
d="M297 -10q-107 0 -166 57.5t-48 164.5l18 172q12 109 83.5 167.5t178.5 58.5q108 0 166.5 -58.5t46.5 -167.5l-18 -172q-11 -107 -82 -164.5t-179 -57.5zM308 97q51 0 77 28t33 91l17 168q7 62 -13 90.5t-71 28.5t-76.5 -29t-32.5 -91l-17 -167q-7 -63 12.5 -91t70.5 -28z
M264 700l118 200h182l-201 -200h-99z" />
    <glyph glyph-name="ocircumflex" unicode="&#xf4;" 
d="M297 -10q-107 0 -166 57.5t-48 164.5l18 172q12 109 83.5 167.5t178.5 58.5q108 0 166.5 -58.5t46.5 -167.5l-18 -172q-11 -107 -82 -164.5t-179 -57.5zM308 97q51 0 77 28t33 91l17 168q7 62 -13 90.5t-71 28.5t-76.5 -29t-32.5 -91l-17 -167q-7 -63 12.5 -91t70.5 -28z
M212 700l-42 68l170 152h106l140 -152l-55 -67l-150 109z" />
    <glyph glyph-name="otilde" unicode="&#xf5;" 
d="M297 -10q-107 0 -166 57.5t-48 164.5l18 172q12 109 83.5 167.5t178.5 58.5q108 0 166.5 -58.5t46.5 -167.5l-18 -172q-11 -107 -82 -164.5t-179 -57.5zM308 97q51 0 77 28t33 91l17 168q7 62 -13 90.5t-71 28.5t-76.5 -29t-32.5 -91l-17 -167q-7 -63 12.5 -91t70.5 -28z
M447 710q-35 0 -55 16t-34 38l-20.5 36.5t-25.5 16.5t-28 -17.5t-16 -63.5l-1 -16h-93l1 15q9 80 47.5 131t98.5 51q34 0 54 -15.5t34 -38.5l20.5 -37t23.5 -17q16 0 28 18t17 64l1 16h93l-1 -15q-9 -81 -47 -131.5t-97 -50.5z" />
    <glyph glyph-name="odieresis" unicode="&#xf6;" 
d="M297 -10q-107 0 -166 57.5t-48 164.5l18 172q12 109 83.5 167.5t178.5 58.5q108 0 166.5 -58.5t46.5 -167.5l-18 -172q-11 -107 -82 -164.5t-179 -57.5zM308 97q51 0 77 28t33 91l17 168q7 62 -13 90.5t-71 28.5t-76.5 -29t-32.5 -91l-17 -167q-7 -63 12.5 -91t70.5 -28z
M266 703q-32 0 -51 13.5t-15 50.5l1 10q4 37 26 51.5t54 14.5q33 0 51.5 -14.5t14.5 -51.5l-1 -10q-4 -37 -26 -50.5t-54 -13.5zM476 703q-33 0 -51.5 13.5t-14.5 50.5l1 10q4 37 25.5 51.5t54.5 14.5q32 0 51 -14.5t15 -51.5l-1 -10q-4 -37 -26.5 -50.5t-53.5 -13.5z" />
    <glyph glyph-name="omacron" unicode="&#x14d;" 
d="M297 -10q-107 0 -166 57.5t-48 164.5l18 172q12 109 83.5 167.5t178.5 58.5q108 0 166.5 -58.5t46.5 -167.5l-18 -172q-11 -107 -82 -164.5t-179 -57.5zM308 97q51 0 77 28t33 91l17 168q7 62 -13 90.5t-71 28.5t-76.5 -29t-32.5 -91l-17 -167q-7 -63 12.5 -91t70.5 -28z
M194 745l12 110h362l-12 -110h-362z" />
    <glyph glyph-name="obreve" unicode="&#x14f;" 
d="M297 -10q-107 0 -166 57.5t-48 164.5l18 172q12 109 83.5 167.5t178.5 58.5q108 0 166.5 -58.5t46.5 -167.5l-18 -172q-11 -107 -82 -164.5t-179 -57.5zM308 97q51 0 77 28t33 91l17 168q7 62 -13 90.5t-71 28.5t-76.5 -29t-32.5 -91l-17 -167q-7 -63 12.5 -91t70.5 -28z
M370 693q-104 0 -153 53.5t-38 166.5h118q-7 -71 12.5 -99t70.5 -28t75.5 28t33.5 99h118q-13 -113 -73 -166.5t-164 -53.5z" />
    <glyph glyph-name="ohungarumlaut" unicode="&#x151;" 
d="M297 -10q-107 0 -166 57.5t-48 164.5l18 172q12 109 83.5 167.5t178.5 58.5q108 0 166.5 -58.5t46.5 -167.5l-18 -172q-11 -107 -82 -164.5t-179 -57.5zM308 97q51 0 77 28t33 91l17 168q7 62 -13 90.5t-71 28.5t-76.5 -29t-32.5 -91l-17 -167q-7 -63 12.5 -91t70.5 -28z
M412 700l62 200h145l-131 -200h-76zM220 700l62 200h145l-131 -200h-76z" />
    <glyph glyph-name="p" unicode="p" 
d="M309 97q49 0 75.5 26.5t32.5 83.5l19 185q6 56 -11 80t-55 24q-34 0 -64 -17.5t-60 -55.5l-30 -292q22 -17 44 -25.5t49 -8.5zM319 -9q-31 0 -60 7t-55 20l-23 -218h-141l84 800h141l-9 -90h25q21 48 64.5 74t97.5 26q75 0 110 -55.5t25 -156.5l-20 -192
q-11 -101 -74 -158t-165 -57z" />
    <glyph glyph-name="q" unicode="q" 
d="M374 -200l30 290h-24q-22 -48 -64 -74t-96 -26q-76 0 -112 55.5t-26 156.5l20 192q11 103 81.5 159t185.5 56q64 0 125 -16.5t99 -47.5l-78 -745h-141zM290 104q32 0 63.5 17.5t59.5 54.5l32 299q-18 13 -40.5 20.5t-52.5 7.5q-48 0 -75.5 -26t-33.5 -85l-19 -178
q-5 -57 12 -83.5t54 -26.5z" />
    <glyph glyph-name="r" unicode="r" horiz-adv-x="596" 
d="M60 0l63 600h141l-9 -90h25q21 52 60.5 76t81.5 24q66 0 94.5 -43.5t20.5 -121.5l-11 -102h-128l9 81q3 33 -8.5 52.5t-40.5 19.5q-28 0 -59.5 -23t-54.5 -60l-43 -413h-141z" />
    <glyph glyph-name="racute" unicode="&#x155;" horiz-adv-x="596" 
d="M60 0l63 600h141l-9 -90h25q21 52 60.5 76t81.5 24q66 0 94.5 -43.5t20.5 -121.5l-11 -102h-128l9 81q3 33 -8.5 52.5t-40.5 19.5q-28 0 -59.5 -23t-54.5 -60l-43 -413h-141zM248 700l118 200h182l-201 -200h-99z" />
    <glyph glyph-name="rcommaaccent" unicode="&#x157;" horiz-adv-x="596" 
d="M60 0l63 600h141l-9 -90h25q21 52 60.5 76t81.5 24q66 0 94.5 -43.5t20.5 -121.5l-11 -102h-128l9 81q3 33 -8.5 52.5t-40.5 19.5q-28 0 -59.5 -23t-54.5 -60l-43 -413h-141zM-33 -300l84 200h182l-167 -200h-99z" />
    <glyph glyph-name="rcaron" unicode="&#x159;" horiz-adv-x="596" 
d="M60 0l63 600h141l-9 -90h25q21 52 60.5 76t81.5 24q66 0 94.5 -43.5t20.5 -121.5l-11 -102h-128l9 81q3 33 -8.5 52.5t-40.5 19.5q-28 0 -59.5 -23t-54.5 -60l-43 -413h-141zM303 704l-140 152l55 68l150 -109l169 109l42 -68l-170 -152h-106z" />
    <glyph glyph-name="s" unicode="s" 
d="M300 -9q-70 0 -133.5 21.5t-107.5 59.5l46 93q46 -34 101 -54t108 -20q47 0 75 16t32 52q4 40 -24 55.5t-102 32.5q-91 19 -141.5 56.5t-41.5 122.5q9 86 74 135t162 49q63 0 121 -20.5t99 -54.5l-41 -90q-44 31 -90 48t-90 17q-42 0 -67.5 -16.5t-29.5 -51.5
q-4 -39 25.5 -55.5t108.5 -34.5q94 -20 138.5 -59.5t35.5 -117.5q-9 -87 -79 -135.5t-179 -48.5z" />
    <glyph glyph-name="sacute" unicode="&#x15b;" 
d="M300 -9q-70 0 -133.5 21.5t-107.5 59.5l46 93q46 -34 101 -54t108 -20q47 0 75 16t32 52q4 40 -24 55.5t-102 32.5q-91 19 -141.5 56.5t-41.5 122.5q9 86 74 135t162 49q63 0 121 -20.5t99 -54.5l-41 -90q-44 31 -90 48t-90 17q-42 0 -67.5 -16.5t-29.5 -51.5
q-4 -39 25.5 -55.5t108.5 -34.5q94 -20 138.5 -59.5t35.5 -117.5q-9 -87 -79 -135.5t-179 -48.5zM263 700l118 200h182l-201 -200h-99z" />
    <glyph glyph-name="scircumflex" unicode="&#x15d;" 
d="M300 -9q-70 0 -133.5 21.5t-107.5 59.5l46 93q46 -34 101 -54t108 -20q47 0 75 16t32 52q4 40 -24 55.5t-102 32.5q-91 19 -141.5 56.5t-41.5 122.5q9 86 74 135t162 49q63 0 121 -20.5t99 -54.5l-41 -90q-44 31 -90 48t-90 17q-42 0 -67.5 -16.5t-29.5 -51.5
q-4 -39 25.5 -55.5t108.5 -34.5q94 -20 138.5 -59.5t35.5 -117.5q-9 -87 -79 -135.5t-179 -48.5zM211 700l-42 68l170 152h106l140 -152l-55 -67l-150 109z" />
    <glyph glyph-name="scedilla" unicode="&#x15f;" 
d="M300 -9q-70 0 -133.5 21.5t-107.5 59.5l46 93q46 -34 101 -54t108 -20q47 0 75 16t32 52q4 40 -24 55.5t-102 32.5q-91 19 -141.5 56.5t-41.5 122.5q9 86 74 135t162 49q63 0 121 -20.5t99 -54.5l-41 -90q-44 31 -90 48t-90 17q-42 0 -67.5 -16.5t-29.5 -51.5
q-4 -39 25.5 -55.5t108.5 -34.5q94 -20 138.5 -59.5t35.5 -117.5q-9 -87 -79 -135.5t-179 -48.5zM271 0l20 42q67 -9 102 -40.5t29 -91.5q-7 -66 -57.5 -97.5t-118.5 -31.5q-74 0 -115.5 28t-39.5 88l120 10q-1 -19 8 -26.5t31 -7.5q24 0 36.5 11.5t16.5 45.5q3 32 -4 47
t-28 23z" />
    <glyph glyph-name="scaron" unicode="&#x161;" 
d="M300 -9q-70 0 -133.5 21.5t-107.5 59.5l46 93q46 -34 101 -54t108 -20q47 0 75 16t32 52q4 40 -24 55.5t-102 32.5q-91 19 -141.5 56.5t-41.5 122.5q9 86 74 135t162 49q63 0 121 -20.5t99 -54.5l-41 -90q-44 31 -90 48t-90 17q-42 0 -67.5 -16.5t-29.5 -51.5
q-4 -39 25.5 -55.5t108.5 -34.5q94 -20 138.5 -59.5t35.5 -117.5q-9 -87 -79 -135.5t-179 -48.5zM318 704l-140 152l55 68l150 -109l169 109l42 -68l-170 -152h-106z" />
    <glyph glyph-name="scommaaccent" unicode="&#x219;" 
d="M300 -9q-70 0 -133.5 21.5t-107.5 59.5l46 93q46 -34 101 -54t108 -20q47 0 75 16t32 52q4 40 -24 55.5t-102 32.5q-91 19 -141.5 56.5t-41.5 122.5q9 86 74 135t162 49q63 0 121 -20.5t99 -54.5l-41 -90q-44 31 -90 48t-90 17q-42 0 -67.5 -16.5t-29.5 -51.5
q-4 -39 25.5 -55.5t108.5 -34.5q94 -20 138.5 -59.5t35.5 -117.5q-9 -87 -79 -135.5t-179 -48.5zM98 -300l84 200h182l-167 -200h-99z" />
    <glyph glyph-name="t" unicode="t" horiz-adv-x="596" 
d="M344 -10q-98 0 -144 51t-36 147l32 305h-100l11 107h100l21 200h140l-21 -200h173l-11 -107h-173l-31 -296q-6 -51 13 -74.5t56 -23.5q17 0 39 5t47 15l5 -105q-23 -10 -55 -17t-66 -7z" />
    <glyph glyph-name="tcedilla" unicode="&#x163;" horiz-adv-x="596" 
d="M344 -10q-98 0 -144 51t-36 147l32 305h-100l11 107h100l21 200h140l-21 -200h173l-11 -107h-173l-31 -296q-6 -51 13 -74.5t56 -23.5q17 0 39 5t47 15l5 -105q-23 -10 -55 -17t-66 -7zM272 0l20 42q67 -9 102 -40.5t29 -91.5q-7 -66 -57.5 -97.5t-118.5 -31.5
q-74 0 -115.5 28t-39.5 88l120 10q-1 -19 8 -26.5t31 -7.5q24 0 36.5 11.5t16.5 45.5q3 32 -4 47t-28 23z" />
    <glyph glyph-name="tcaron" unicode="&#x165;" horiz-adv-x="596" 
d="M344 -10q-98 0 -144 51t-36 147l32 305h-100l11 107h100l21 200h140l-21 -200h173l-11 -107h-173l-31 -296q-6 -51 13 -74.5t56 -23.5q17 0 39 5t47 15l5 -105q-23 -10 -55 -17t-66 -7zM414 705l82 295h180l-179 -295h-83z" />
    <glyph glyph-name="tcommaaccent" unicode="&#x21b;" horiz-adv-x="596" 
d="M344 -10q-98 0 -144 51t-36 147l32 305h-100l11 107h100l21 200h140l-21 -200h173l-11 -107h-173l-31 -296q-6 -51 13 -74.5t56 -23.5q17 0 39 5t47 15l5 -105q-23 -10 -55 -17t-66 -7zM112 -300l84 200h182l-167 -200h-99z" />
    <glyph glyph-name="u" unicode="u" 
d="M216 -10q-72 0 -108.5 52.5t-27.5 141.5l44 416h141l-41 -394q-6 -50 9.5 -76t51.5 -26q33 0 67 22.5t63 62.5l43 411h141l-63 -600h-141l9 90h-24q-21 -46 -65.5 -73t-98.5 -27z" />
    <glyph glyph-name="ugrave" unicode="&#xf9;" 
d="M216 -10q-72 0 -108.5 52.5t-27.5 141.5l44 416h141l-41 -394q-6 -50 9.5 -76t51.5 -26q33 0 67 22.5t63 62.5l43 411h141l-63 -600h-141l9 90h-24q-21 -46 -65.5 -73t-98.5 -27zM353 700l-158 200h182l75 -200h-99z" />
    <glyph glyph-name="uacute" unicode="&#xfa;" 
d="M216 -10q-72 0 -108.5 52.5t-27.5 141.5l44 416h141l-41 -394q-6 -50 9.5 -76t51.5 -26q33 0 67 22.5t63 62.5l43 411h141l-63 -600h-141l9 90h-24q-21 -46 -65.5 -73t-98.5 -27zM273 700l118 200h182l-201 -200h-99z" />
    <glyph glyph-name="ucircumflex" unicode="&#xfb;" 
d="M216 -10q-72 0 -108.5 52.5t-27.5 141.5l44 416h141l-41 -394q-6 -50 9.5 -76t51.5 -26q33 0 67 22.5t63 62.5l43 411h141l-63 -600h-141l9 90h-24q-21 -46 -65.5 -73t-98.5 -27zM212 700l-42 68l170 152h106l140 -152l-55 -67l-150 109z" />
    <glyph glyph-name="udieresis" unicode="&#xfc;" 
d="M216 -10q-72 0 -108.5 52.5t-27.5 141.5l44 416h141l-41 -394q-6 -50 9.5 -76t51.5 -26q33 0 67 22.5t63 62.5l43 411h141l-63 -600h-141l9 90h-24q-21 -46 -65.5 -73t-98.5 -27zM266 703q-32 0 -51 13.5t-15 50.5l1 10q4 37 26 51.5t54 14.5q33 0 51.5 -14.5t14.5 -51.5
l-1 -10q-4 -37 -26 -50.5t-54 -13.5zM476 703q-33 0 -51.5 13.5t-14.5 50.5l1 10q4 37 25.5 51.5t54.5 14.5q32 0 51 -14.5t15 -51.5l-1 -10q-4 -37 -26.5 -50.5t-53.5 -13.5z" />
    <glyph glyph-name="utilde" unicode="&#x169;" 
d="M216 -10q-72 0 -108.5 52.5t-27.5 141.5l44 416h141l-41 -394q-6 -50 9.5 -76t51.5 -26q33 0 67 22.5t63 62.5l43 411h141l-63 -600h-141l9 90h-24q-21 -46 -65.5 -73t-98.5 -27zM447 710q-35 0 -55 16t-34 38l-20.5 36.5t-25.5 16.5t-28 -17.5t-16 -63.5l-1 -16h-93
l1 15q9 80 47.5 131t98.5 51q34 0 54 -15.5t34 -38.5l20.5 -37t23.5 -17q16 0 28 18t17 64l1 16h93l-1 -15q-9 -81 -47 -131.5t-97 -50.5z" />
    <glyph glyph-name="umacron" unicode="&#x16b;" 
d="M216 -10q-72 0 -108.5 52.5t-27.5 141.5l44 416h141l-41 -394q-6 -50 9.5 -76t51.5 -26q33 0 67 22.5t63 62.5l43 411h141l-63 -600h-141l9 90h-24q-21 -46 -65.5 -73t-98.5 -27zM194 745l12 110h362l-12 -110h-362z" />
    <glyph glyph-name="ubreve" unicode="&#x16d;" 
d="M216 -10q-72 0 -108.5 52.5t-27.5 141.5l44 416h141l-41 -394q-6 -50 9.5 -76t51.5 -26q33 0 67 22.5t63 62.5l43 411h141l-63 -600h-141l9 90h-24q-21 -46 -65.5 -73t-98.5 -27zM370 693q-104 0 -153 53.5t-38 166.5h118q-7 -71 12.5 -99t70.5 -28t75.5 28t33.5 99h118
q-13 -113 -73 -166.5t-164 -53.5z" />
    <glyph glyph-name="uring" unicode="&#x16f;" 
d="M216 -10q-72 0 -108.5 52.5t-27.5 141.5l44 416h141l-41 -394q-6 -50 9.5 -76t51.5 -26q33 0 67 22.5t63 62.5l43 411h141l-63 -600h-141l9 90h-24q-21 -46 -65.5 -73t-98.5 -27zM369 682q-72 0 -113.5 36t-33.5 112l4 32q8 77 56.5 114t120.5 37q73 0 114 -37t33 -114
l-4 -32q-8 -76 -56.5 -112t-120.5 -36zM377 759q31 0 48.5 16.5t21.5 54.5l4 32q3 37 -11 55.5t-45 18.5t-49 -18.5t-21 -55.5l-4 -32q-4 -38 10.5 -54.5t45.5 -16.5z" />
    <glyph glyph-name="uhungarumlaut" unicode="&#x171;" 
d="M216 -10q-72 0 -108.5 52.5t-27.5 141.5l44 416h141l-41 -394q-6 -50 9.5 -76t51.5 -26q33 0 67 22.5t63 62.5l43 411h141l-63 -600h-141l9 90h-24q-21 -46 -65.5 -73t-98.5 -27zM412 700l62 200h145l-131 -200h-76zM220 700l62 200h145l-131 -200h-76z" />
    <glyph glyph-name="uogonek" unicode="&#x173;" 
d="M455 -218q-66 0 -101 32t-29 90q5 52 47 93.5t94 59.5l18 -34q-28 -19 -39 -41.5t-14 -44.5q-2 -27 12 -40.5t45 -13.5q15 0 35.5 3t43.5 7l-11 -100q-25 -5 -52 -8t-49 -3zM216 -10q-72 0 -108.5 52.5t-27.5 141.5l44 416h141l-41 -394q-6 -50 9.5 -76t51.5 -26
q33 0 67 22.5t63 62.5l43 411h141l-63 -600h-141l9 90h-24q-21 -46 -65.5 -73t-98.5 -27z" />
    <glyph glyph-name="v" unicode="v" horiz-adv-x="596" 
d="M347 0h-183l-104 600h140l70 -490l172 490h135z" />
    <glyph glyph-name="w" unicode="w" horiz-adv-x="847" 
d="M476 0l-51 381l-128 -381h-155l-63 600h126l39 -473l127 373h130l53 -366l137 466h120l-189 -600h-146z" />
    <glyph glyph-name="wcircumflex" unicode="&#x175;" horiz-adv-x="847" 
d="M476 0l-51 381l-128 -381h-155l-63 600h126l39 -473l127 373h130l53 -366l137 466h120l-189 -600h-146zM296 700l-42 68l170 152h106l140 -152l-55 -67l-150 109z" />
    <glyph glyph-name="wgrave" unicode="&#x1e81;" horiz-adv-x="847" 
d="M476 0l-51 381l-128 -381h-155l-63 600h126l39 -473l127 373h130l53 -366l137 466h120l-189 -600h-146zM444 700l-158 200h182l75 -200h-99z" />
    <glyph glyph-name="wacute" unicode="&#x1e83;" horiz-adv-x="847" 
d="M476 0l-51 381l-128 -381h-155l-63 600h126l39 -473l127 373h130l53 -366l137 466h120l-189 -600h-146zM348 700l118 200h182l-201 -200h-99z" />
    <glyph glyph-name="wdieresis" unicode="&#x1e85;" horiz-adv-x="847" 
d="M476 0l-51 381l-128 -381h-155l-63 600h126l39 -473l127 373h130l53 -366l137 466h120l-189 -600h-146zM350 703q-32 0 -51 13.5t-15 50.5l1 10q4 37 26 51.5t54 14.5q33 0 51.5 -14.5t14.5 -51.5l-1 -10q-4 -37 -26 -50.5t-54 -13.5zM560 703q-33 0 -51.5 13.5
t-14.5 50.5l1 10q4 37 25.5 51.5t54.5 14.5q32 0 51 -14.5t15 -51.5l-1 -10q-4 -37 -26.5 -50.5t-53.5 -13.5z" />
    <glyph glyph-name="x" unicode="x" horiz-adv-x="596" 
d="M356 0l-87 190l-116 -190h-144l205 307l-136 293h144l82 -178l112 178h144l-201 -296l141 -304h-144z" />
    <glyph glyph-name="y" unicode="y" horiz-adv-x="596" 
d="M108 -208q-27 0 -58 3t-66 8l23 107q30 -5 54 -8.5t43 -3.5q58 0 86.5 27.5t46.5 78.5l3 10h-87l-93 586h140l70 -501l171 501h136l-224 -627q-38 -97 -96.5 -139t-148.5 -42z" />
    <glyph glyph-name="yacute" unicode="&#xfd;" horiz-adv-x="596" 
d="M108 -208q-27 0 -58 3t-66 8l23 107q30 -5 54 -8.5t43 -3.5q58 0 86.5 27.5t46.5 78.5l3 10h-87l-93 586h140l70 -501l171 501h136l-224 -627q-38 -97 -96.5 -139t-148.5 -42zM223 700l118 200h182l-201 -200h-99z" />
    <glyph glyph-name="ydieresis" unicode="&#xff;" horiz-adv-x="596" 
d="M108 -208q-27 0 -58 3t-66 8l23 107q30 -5 54 -8.5t43 -3.5q58 0 86.5 27.5t46.5 78.5l3 10h-87l-93 586h140l70 -501l171 501h136l-224 -627q-38 -97 -96.5 -139t-148.5 -42zM225 703q-32 0 -51 13.5t-15 50.5l1 10q4 37 26 51.5t54 14.5q33 0 51.5 -14.5t14.5 -51.5
l-1 -10q-4 -37 -26 -50.5t-54 -13.5zM435 703q-33 0 -51.5 13.5t-14.5 50.5l1 10q4 37 25.5 51.5t54.5 14.5q32 0 51 -14.5t15 -51.5l-1 -10q-4 -37 -26.5 -50.5t-53.5 -13.5z" />
    <glyph glyph-name="ycircumflex" unicode="&#x177;" horiz-adv-x="596" 
d="M108 -208q-27 0 -58 3t-66 8l23 107q30 -5 54 -8.5t43 -3.5q58 0 86.5 27.5t46.5 78.5l3 10h-87l-93 586h140l70 -501l171 501h136l-224 -627q-38 -97 -96.5 -139t-148.5 -42zM171 700l-42 68l170 152h106l140 -152l-55 -67l-150 109z" />
    <glyph glyph-name="ygrave" unicode="&#x1ef3;" horiz-adv-x="596" 
d="M108 -208q-27 0 -58 3t-66 8l23 107q30 -5 54 -8.5t43 -3.5q58 0 86.5 27.5t46.5 78.5l3 10h-87l-93 586h140l70 -501l171 501h136l-224 -627q-38 -97 -96.5 -139t-148.5 -42zM319 700l-158 200h182l75 -200h-99z" />
    <glyph glyph-name="z" unicode="z" 
d="M519 0h-441l11 107l330 386h-289l11 107h441l-11 -107l-322 -386h281z" />
    <glyph glyph-name="zacute" unicode="&#x17a;" 
d="M519 0h-441l11 107l330 386h-289l11 107h441l-11 -107l-322 -386h281zM264 700l118 200h182l-201 -200h-99z" />
    <glyph glyph-name="zdotaccent" unicode="&#x17c;" 
d="M519 0h-441l11 107l330 386h-289l11 107h441l-11 -107l-322 -386h281zM371 703q-43 0 -68 13.5t-21 50.5l1 10q4 37 32 51.5t71 14.5t68 -14.5t21 -51.5l-1 -10q-4 -37 -32.5 -50.5t-70.5 -13.5z" />
    <glyph glyph-name="zcaron" unicode="&#x17e;" 
d="M519 0h-441l11 107l330 386h-289l11 107h441l-11 -107l-322 -386h281zM319 704l-140 152l55 68l150 -109l169 109l42 -68l-170 -152h-106z" />
    <glyph glyph-name="ordfeminine" unicode="&#xaa;" 
d="M288 392q28 0 55 12.5t52 42.5l7 64h-104q-27 0 -43.5 -12.5t-20.5 -47.5q-3 -29 9.5 -44t44.5 -15zM253 308q-59 0 -100 34t-34 102q7 67 54 103.5t118 36.5h118l6 54q4 41 -12 62.5t-53 21.5q-34 0 -54.5 -15t-37.5 -64l-105 22q22 74 70.5 109.5t138.5 35.5
q89 0 135.5 -39t37.5 -126l-19 -177q-5 -47 15 -57t62 -4l-10 -91q-55 -9 -94.5 4t-48.5 76h-18q-25 -37 -71.5 -62.5t-97.5 -25.5z" />
    <glyph glyph-name="ordmasculine" unicode="&#xba;" 
d="M330 308q-87 0 -139.5 45.5t-42.5 138.5l13 129q10 95 73 142t150 47t139.5 -47t42.5 -142l-13 -129q-10 -93 -73 -138.5t-150 -45.5zM340 399q45 0 66.5 23t26.5 75l13 123q5 49 -11.5 73.5t-61.5 24.5q-44 0 -65.5 -24.5t-26.5 -74.5l-13 -122q-5 -52 11.5 -75
t60.5 -23z" />
    <glyph glyph-name="germandbls" unicode="&#xdf;" horiz-adv-x="839" 
d="M493 -6q-58 0 -114.5 20.5t-93.5 56.5l48 91q37 -32 85.5 -51t94.5 -19q35 0 58.5 15.5t27.5 51.5q4 37 -22.5 52t-84.5 31q-82 24 -123.5 60.5t-33.5 111.5q8 77 63 124.5t141 54.5q-1 56 -35.5 80.5t-88.5 24.5q-59 0 -99 -38.5t-48 -113.5l-78 -746h-141l80 759
q12 118 93.5 183.5t203.5 65.5t189.5 -68.5t55.5 -175.5l-5 -53q-101 1 -149 -16.5t-53 -63.5q-4 -40 26 -55t94 -33q77 -22 114.5 -59.5t29.5 -112.5q-9 -83 -73 -130t-162 -47z" />
    <glyph glyph-name="ae" unicode="&#xe6;" horiz-adv-x="930" 
d="M800 147q-27 -85 -80.5 -121t-137.5 -36q-59 0 -99.5 21.5t-57.5 65.5h-21q-27 -40 -72.5 -63.5t-102.5 -23.5q-69 0 -115 41.5t-37 127.5q9 84 66.5 129t144.5 45h105l9 82q4 43 -11.5 66.5t-52.5 23.5t-56.5 -17t-38.5 -68l-124 24q25 84 77 125t147 41
q52 0 90.5 -16.5t57.5 -51.5q30 34 71 51t89 17q89 0 138 -53t38 -157l-13 -127h-286l-10 -94q-5 -44 11.5 -67t60.5 -23q38 0 60 15t34 57zM542 412l-5 -55h152l4 46q7 59 -7.5 84.5t-56.5 25.5t-61.5 -24t-25.5 -77zM372 136l12 113h-89q-34 0 -56 -18.5t-26 -62.5
q-5 -40 7 -60t46 -20q28 0 56 11.5t50 36.5z" />
    <glyph glyph-name="aeacute" unicode="&#x1fd;" horiz-adv-x="930" 
d="M800 147q-27 -85 -80.5 -121t-137.5 -36q-59 0 -99.5 21.5t-57.5 65.5h-21q-27 -40 -72.5 -63.5t-102.5 -23.5q-69 0 -115 41.5t-37 127.5q9 84 66.5 129t144.5 45h105l9 82q4 43 -11.5 66.5t-52.5 23.5t-56.5 -17t-38.5 -68l-124 24q25 84 77 125t147 41
q52 0 90.5 -16.5t57.5 -51.5q30 34 71 51t89 17q89 0 138 -53t38 -157l-13 -127h-286l-10 -94q-5 -44 11.5 -67t60.5 -23q38 0 60 15t34 57zM542 412l-5 -55h152l4 46q7 59 -7.5 84.5t-56.5 25.5t-61.5 -24t-25.5 -77zM372 136l12 113h-89q-34 0 -56 -18.5t-26 -62.5
q-5 -40 7 -60t46 -20q28 0 56 11.5t50 36.5zM390 700l118 200h182l-201 -200h-99z" />
    <glyph glyph-name="eth" unicode="&#xf0;" 
d="M297 -10q-108 0 -166.5 57.5t-46.5 172.5l8 72q10 96 69 152t144 56q52 0 83 -22t41 -52h19q2 60 -10.5 107t-39.5 82l-155 -78l9 86l86 44q-25 19 -58 35t-73 29l87 90q54 -18 97 -39.5t74 -49.5l140 71l-9 -86l-78 -40q40 -54 54 -129t3 -174l-15 -148
q-13 -120 -83.5 -178t-179.5 -58zM309 97q51 0 76.5 29t32.5 89l7 69q6 55 -14 81.5t-71 26.5t-75.5 -26.5t-30.5 -81.5l-7 -69q-7 -60 12 -89t70 -29z" />
    <glyph glyph-name="oslash" unicode="&#xf8;" 
d="M214 216q-3 -22 -1.5 -40.5t5.5 -31.5l181 355q-9 3 -21.5 5t-26.5 2q-57 0 -85 -29t-35 -94zM308 94q58 0 86.5 28t35.5 94l17 168q3 22 1.5 40t-6.5 31l-178 -355q9 -3 20 -4.5t24 -1.5zM297 -10q-20 0 -39 2.5t-36 6.5l-54 -99h-95l72 133q-35 28 -51.5 72.5
t-10.5 104.5l19 176q11 111 82.5 167.5t178.5 56.5q21 0 40.5 -2.5t35.5 -6.5l53 99h95l-73 -134q37 -28 53 -73t10 -107l-19 -176q-11 -109 -82.5 -164.5t-178.5 -55.5z" />
    <glyph glyph-name="oslashacute" unicode="&#x1ff;" 
d="M214 216q-3 -22 -1.5 -40.5t5.5 -31.5l181 355q-9 3 -21.5 5t-26.5 2q-57 0 -85 -29t-35 -94zM308 94q58 0 86.5 28t35.5 94l17 168q3 22 1.5 40t-6.5 31l-178 -355q9 -3 20 -4.5t24 -1.5zM297 -10q-20 0 -39 2.5t-36 6.5l-54 -99h-95l72 133q-35 28 -51.5 72.5
t-10.5 104.5l19 176q11 111 82.5 167.5t178.5 56.5q21 0 40.5 -2.5t35.5 -6.5l53 99h95l-73 -134q37 -28 53 -73t10 -107l-19 -176q-11 -109 -82.5 -164.5t-178.5 -55.5zM264 700l118 200h182l-201 -200h-99z" />
    <glyph glyph-name="thorn" unicode="&#xfe;" 
d="M309 97q51 0 76.5 25.5t31.5 84.5l19 185q6 54 -10 79t-56 25q-34 0 -63 -17t-61 -56l-30 -292q20 -16 42.5 -25t50.5 -9zM319 -9q-32 0 -61.5 7t-53.5 20l-23 -218h-141l105 1000h141l-30 -290h25q21 47 64 73.5t97 26.5q77 0 111.5 -57t24.5 -155l-20 -192
q-11 -101 -74.5 -158t-164.5 -57z" />
    <glyph glyph-name="dcroat" unicode="&#x111;" 
d="M290 104q33 0 62.5 19.5t61.5 59.5l24 229q-22 17 -44.5 25.5t-47.5 8.5q-49 0 -76 -28.5t-33 -88.5l-12 -107q-6 -60 10 -89t55 -29zM381 97q-23 -49 -67 -78t-97 -29q-72 0 -108.5 56.5t-26.5 154.5l14 130q10 101 75 161t164 60q30 0 60.5 -7t54.5 -20l10 95h-149
l9 87h149l10 93h141l-10 -93h83l-9 -87h-83l-65 -620h-141l10 97h-24z" />
    <glyph glyph-name="hbar" unicode="&#x127;" 
d="M239 354l-37 -354h-141l65 620h-83l9 87h83l10 93h141l-10 -93h150l-9 -87h-150l-17 -167h25q23 46 68 73t99 27q71 0 106.5 -47.5t26.5 -130.5l-39 -375h-141l37 348q4 45 -11.5 68t-50.5 23q-34 0 -67.5 -22t-63.5 -63z" />
    <glyph glyph-name="dotlessi" horiz-adv-x="437" 
d="M107 0l63 600h140l-63 -600h-140z" />
    <glyph glyph-name="ij" horiz-adv-x="930" 
d="M260 703q-43 0 -68 13.5t-21 50.5l1 10q4 37 32 51.5t71 14.5t68 -14.5t21 -51.5l-1 -10q-4 -37 -32.5 -50.5t-70.5 -13.5zM116 0l63 600h140l-63 -600h-140zM519 -209q-28 0 -57.5 6t-57.5 16l28 104q23 -10 43.5 -15.5t39.5 -5.5q35 0 59 25t30 82l52 490h-150l11 107
h290l-64 -608q-10 -99 -73.5 -150t-150.5 -51zM748 703q-43 0 -68 13.5t-21 50.5l1 10q4 37 32 51.5t71 14.5t68 -14.5t21 -51.5l-1 -10q-4 -37 -32.5 -50.5t-70.5 -13.5z" />
    <glyph glyph-name="kgreenlandic" unicode="&#x138;" horiz-adv-x="596" 
d="M230 273l-29 -273h-141l63 600h141l-24 -227h33l162 227h148l-201 -266l132 -334h-149l-100 273h-35z" />
    <glyph glyph-name="ldot" horiz-adv-x="763" 
d="M297 -7q-93 0 -137.5 60t-34.5 160l62 587h141l-62 -587q-5 -52 11 -80t53 -28q16 0 36 5.5t37 13.5l11 -104q-26 -12 -56 -19.5t-61 -7.5zM617 317q-43 0 -68 13.5t-21 50.5l1 10q4 37 32 51.5t71 14.5t68 -14.5t21 -51.5l-1 -10q-4 -37 -32.5 -50.5t-70.5 -13.5z" />
    <glyph glyph-name="lslash" horiz-adv-x="513" 
d="M297 -7q-93 0 -137.5 60t-34.5 160l12 111l-80 -24l9 93l81 24l40 383h141l-35 -338l148 45l-10 -94l-148 -45l-17 -155q-5 -52 11 -80t53 -28q16 0 36 5.5t37 13.5l11 -104q-26 -12 -56 -19.5t-61 -7.5z" />
    <glyph glyph-name="napostrophe" unicode="&#x149;" horiz-adv-x="604" 
d="M52 0l63 600h141l-9 -90h25q22 46 66.5 73t96.5 27q72 0 108.5 -52.5t27.5 -141.5l-44 -416h-141l41 394q6 51 -10 76.5t-50 25.5q-36 0 -69 -22.5t-62 -62.5l-43 -411h-141zM18 700l118 200h182l-201 -200h-99z" />
    <glyph glyph-name="eng" unicode="&#x14b;" 
d="M317 -209q-28 0 -55.5 6t-54.5 16l28 105q21 -10 40.5 -15.5t36.5 -5.5q34 0 55.5 24t27.5 81l43 403q4 46 -11.5 68.5t-50.5 22.5q-34 0 -68 -22.5t-63 -62.5l-43 -411h-141l63 600h141l-9 -90h25q21 46 66 73t101 27q71 0 106.5 -47.5t26.5 -130.5l-46 -443
q-11 -102 -75.5 -150t-142.5 -48z" />
    <glyph glyph-name="oe" unicode="&#x153;" horiz-adv-x="930" 
d="M802 147q-27 -85 -79.5 -121t-140.5 -36q-51 0 -91 18t-62 54q-31 -36 -73.5 -54t-93.5 -18q-89 0 -140 55t-40 165l19 176q11 112 74.5 168t151.5 56q50 0 89 -18t61 -55q31 37 74.5 55t93.5 18q90 0 141.5 -52t40.5 -161l-13 -124h-292l-9 -83q-5 -52 11 -76.5
t62 -24.5q42 0 64 14.5t37 57.5zM536 409l-5 -52h152l4 43q6 60 -8 86.5t-56 26.5t-61.5 -25t-25.5 -79zM287 97q40 0 61 26t27 86l19 182q6 56 -9 84t-55 28t-61 -28t-27 -85l-19 -181q-6 -60 9 -86t55 -26z" />
    <glyph glyph-name="tbar" unicode="&#x167;" horiz-adv-x="596" 
d="M344 -10q-98 0 -144 51t-36 147l8 82h-100l11 100h100l13 123h-100l11 107h100l21 200h140l-21 -200h173l-11 -107h-173l-13 -123h173l-11 -100h-173l-7 -73q-6 -51 13 -74.5t56 -23.5q17 0 39 5t47 15l5 -105q-23 -10 -55 -17t-66 -7z" />
    <glyph glyph-name="longs" unicode="&#x17f;" horiz-adv-x="513" 
d="M124 -200l73 693h-100l11 107h100l4 40q9 85 69 132.5t147 47.5q28 0 59 -7.5t57 -17.5l-28 -98q-21 8 -41.5 13.5t-39.5 5.5q-35 0 -57 -19t-26 -62l-88 -835h-140z" />
    <glyph glyph-name="dotlessj" unicode="&#xf6be;" horiz-adv-x="513" 
d="M102 -209q-28 0 -57.5 6t-57.5 16l28 104q23 -10 43.5 -15.5t39.5 -5.5q35 0 59 25t30 82l52 490h-150l11 107h290l-64 -608q-10 -99 -73.5 -150t-150.5 -51z" />
    <glyph glyph-name="dotlessj" unicode="&#x237;" horiz-adv-x="513" 
d="M102 -209q-28 0 -57.5 6t-57.5 16l28 104q23 -10 43.5 -15.5t39.5 -5.5q35 0 59 25t30 82l52 490h-150l11 107h290l-64 -608q-10 -99 -73.5 -150t-150.5 -51z" />
    <glyph glyph-name="alpha" unicode="&#x3b1;" horiz-adv-x="763" 
d="M289 104q34 0 64.5 17.5t59.5 55.5l25 244q-22 39 -48 57t-60 18q-39 0 -61 -28.5t-28 -88.5l-17 -160q-7 -63 10.5 -89t54.5 -26zM451 108h-26q-28 -56 -78.5 -87t-115.5 -31q-78 0 -119 56t-31 156l20 190q11 102 62.5 160.5t128.5 58.5q48 0 83 -27.5t48 -76.5h24
l10 94h141l-44 -424q-6 -51 16 -66t76 -5l-11 -106q-83 -16 -130.5 10t-53.5 98z" />
    <glyph glyph-name="alphatonos" unicode="&#x3ac;" horiz-adv-x="763" 
d="M289 104q34 0 64.5 17.5t59.5 55.5l25 244q-22 39 -48 57t-60 18q-39 0 -61 -28.5t-28 -88.5l-17 -160q-7 -63 10.5 -89t54.5 -26zM451 108h-26q-28 -56 -78.5 -87t-115.5 -31q-78 0 -119 56t-31 156l20 190q11 102 62.5 160.5t128.5 58.5q48 0 83 -27.5t48 -76.5h24
l10 94h141l-44 -424q-6 -51 16 -66t76 -5l-11 -106q-83 -16 -130.5 10t-53.5 98zM323 700l67 200h174l-151 -200h-90z" />
    <glyph glyph-name="beta" unicode="&#x3b2;" 
d="M302 99q51 0 80 32t36 95l3 35q7 64 -16.5 91t-73.5 27h-48l10 94h43q43 0 66.5 24t28.5 75l2 18q6 57 -12.5 83t-60.5 26q-43 0 -66.5 -28t-30.5 -89l-47 -453q19 -16 40.5 -23t45.5 -7zM319 -10q-31 0 -61 6.5t-54 19.5l-23 -216h-141l82 780q12 117 81.5 173.5
t168.5 56.5q102 0 156.5 -52t44.5 -145l-2 -23q-6 -56 -38.5 -93t-95.5 -49l-3 -29q66 -7 100.5 -53t28.5 -109l-5 -43q-10 -104 -74 -164t-165 -60z" />
    <glyph glyph-name="gamma" unicode="&#x3b3;" horiz-adv-x="596" 
d="M319 -200h-168l37 220l-128 580h143l75 -419l157 419h142l-249 -580z" />
    <glyph glyph-name="delta" unicode="&#x3b4;" 
d="M297 -10q-106 0 -165.5 55t-48.5 169l11 98q6 60 42 101.5t97 68.5q-49 26 -67 60t-13 86q9 89 66 130.5t161 41.5h166l-11 -107h-166q-37 0 -57.5 -12.5t-24.5 -49.5q-3 -32 26 -51.5t112 -51.5q88 -35 120.5 -83.5t23.5 -129.5l-11 -101q-11 -114 -82.5 -169
t-178.5 -55zM308 97q49 0 76 27t33 90l11 101q5 51 -21.5 79.5t-88.5 50.5q-35 -19 -56.5 -51.5t-26.5 -81.5l-11 -98q-6 -63 15.5 -90t68.5 -27z" />
    <glyph glyph-name="epsilon" unicode="&#x3b5;" 
d="M301 -10q-124 0 -180 44t-47 129l1 13q6 52 41 87t103 41l2 22q-56 4 -83 31.5t-21 76.5l1 16q9 84 74.5 122t169.5 38q110 0 166.5 -45t51.5 -142l-130 -8q-2 52 -24.5 73t-71.5 21q-50 0 -73 -15.5t-27 -52.5l-1 -14q-4 -35 18 -49t73 -14h42l-9 -90h-42
q-62 0 -89 -19.5t-32 -64.5l-1 -10q-5 -45 18 -67t83 -22q59 0 87.5 24t40.5 81l129 -7q-19 -101 -83.5 -150t-186.5 -49z" />
    <glyph glyph-name="epsilontonos" unicode="&#x3ad;" 
d="M301 -10q-124 0 -180 44t-47 129l1 13q6 52 41 87t103 41l2 22q-56 4 -83 31.5t-21 76.5l1 16q9 84 74.5 122t169.5 38q110 0 166.5 -45t51.5 -142l-130 -8q-2 52 -24.5 73t-71.5 21q-50 0 -73 -15.5t-27 -52.5l-1 -14q-4 -35 18 -49t73 -14h42l-9 -90h-42
q-62 0 -89 -19.5t-32 -64.5l-1 -10q-5 -45 18 -67t83 -22q59 0 87.5 24t40.5 81l129 -7q-19 -101 -83.5 -150t-186.5 -49zM310 700l67 200h174l-151 -200h-90z" />
    <glyph glyph-name="zeta" unicode="&#x3b6;" 
d="M322 -200h-115l11 104h116q31 0 50 12t23 49q4 38 -12.5 51t-47.5 13h-60q-112 0 -161.5 61t-39.5 156q8 78 40 134t88 118l117 131l-4 15q-85 -10 -137.5 33t-70.5 124l90 36q22 -73 78.5 -95.5t148.5 1.5l170 82l18 -134l-161 -41l-146 -190q-37 -50 -59.5 -95
t-29.5 -105q-5 -54 14.5 -90.5t69.5 -36.5h75q76 0 115.5 -40t30.5 -125q-9 -83 -65.5 -125.5t-145.5 -42.5z" />
    <glyph glyph-name="eta" unicode="&#x3b7;" 
d="M374 -200l64 605q4 46 -11.5 68.5t-50.5 22.5q-34 0 -68 -22.5t-63 -62.5l-43 -411h-141l63 600h141l-9 -90h25q20 46 66 73t101 27q70 0 106 -48t27 -130l-66 -632h-141z" />
    <glyph glyph-name="etatonos" unicode="&#x3ae;" 
d="M374 -200l64 605q4 46 -11.5 68.5t-50.5 22.5q-34 0 -68 -22.5t-63 -62.5l-43 -411h-141l63 600h141l-9 -90h25q20 46 66 73t101 27q70 0 106 -48t27 -130l-66 -632h-141zM316 700l67 200h174l-151 -200h-90z" />
    <glyph glyph-name="theta" unicode="&#x3b8;" 
d="M297 -10q-108 0 -166.5 58.5t-46.5 168.5l38 362q12 112 82.5 171.5t179.5 59.5t167 -59.5t46 -171.5l-38 -362q-12 -110 -82.5 -168.5t-179.5 -58.5zM257 576l-13 -120h205l13 122q7 65 -14.5 95t-75.5 30t-81.5 -30.5t-33.5 -96.5zM308 97q54 0 81.5 29.5t34.5 96.5
l14 132h-205l-14 -132q-7 -67 14 -96.5t75 -29.5z" />
    <glyph glyph-name="iota" unicode="&#x3b9;" horiz-adv-x="513" 
d="M267 -9q-81 0 -117 56t-26 149l42 404h141l-41 -391q-5 -50 9 -77.5t49 -27.5q15 -1 33 4.5t40 15.5l12 -103q-38 -15 -71.5 -22.5t-70.5 -7.5z" />
    <glyph glyph-name="iotadieresistonos" unicode="&#x390;" horiz-adv-x="513" 
d="M267 -9q-81 0 -117 56t-26 149l42 404h141l-41 -391q-5 -50 9 -77.5t49 -27.5q15 -1 33 4.5t40 15.5l12 -103q-38 -15 -71.5 -22.5t-70.5 -7.5zM187 700l60 200h128l-108 -200h-80zM79 697q-28 0 -44.5 13.5t-12.5 49.5l1 10q4 37 23.5 51.5t47.5 14.5q29 0 45.5 -14.5
t12.5 -51.5l-1 -10q-4 -36 -24 -49.5t-48 -13.5zM429 697q-29 0 -45.5 13.5t-12.5 49.5l1 10q4 37 23.5 51.5t48.5 14.5t45 -14.5t12 -51.5l-1 -10q-4 -36 -23.5 -49.5t-47.5 -13.5z" />
    <glyph glyph-name="iotatonos" unicode="&#x3af;" horiz-adv-x="513" 
d="M267 -9q-81 0 -117 56t-26 149l42 404h141l-41 -391q-5 -50 9 -77.5t49 -27.5q15 -1 33 4.5t40 15.5l12 -103q-38 -15 -71.5 -22.5t-70.5 -7.5zM197 700l67 200h174l-151 -200h-90z" />
    <glyph glyph-name="iotadieresis" unicode="&#x3ca;" horiz-adv-x="513" 
d="M267 -9q-81 0 -117 56t-26 149l42 404h141l-41 -391q-5 -50 9 -77.5t49 -27.5q15 -1 33 4.5t40 15.5l12 -103q-38 -15 -71.5 -22.5t-70.5 -7.5zM146 703q-32 0 -51 13.5t-15 50.5l1 10q4 37 26 51.5t54 14.5q33 0 51.5 -14.5t14.5 -51.5l-1 -10q-4 -37 -26 -50.5
t-54 -13.5zM356 703q-33 0 -51.5 13.5t-14.5 50.5l1 10q4 37 25.5 51.5t54.5 14.5q32 0 51 -14.5t15 -51.5l-1 -10q-4 -37 -26.5 -50.5t-53.5 -13.5z" />
    <glyph glyph-name="kappa" unicode="&#x3ba;" horiz-adv-x="596" 
d="M230 273l-29 -273h-141l63 600h141l-24 -227h33l162 227h148l-201 -266l132 -334h-149l-100 273h-35z" />
    <glyph glyph-name="lambda" unicode="&#x3bb;" horiz-adv-x="596" 
d="M374 -1l-67 496l-170 -496h-140l209 576h89l-2 19q-7 53 -30.5 80.5t-74.5 27.5q-20 0 -44.5 -3t-54.5 -9v105q35 6 66.5 9t58.5 3q91 0 142 -41.5t64 -135.5l94 -631h-140z" />
    <glyph glyph-name="mu" unicode="&#x3bc;" horiz-adv-x="763" 
d="M203 20l-15 -220h-157l31 220l61 580h141l-42 -400q-5 -51 17.5 -72.5t58.5 -21.5q34 0 62.5 13.5t50.5 44.5l46 436h141l-45 -429q-5 -47 18 -60.5t75 -4.5l-11 -106q-73 -14 -117 4.5t-55 81.5h-22q-22 -40 -59 -68t-87 -28q-29 0 -52 12.5t-38 37.5z" />
    <glyph glyph-name="nu" unicode="&#x3bd;" horiz-adv-x="596" 
d="M328 0h-145l-123 600h142l82 -473q59 117 97.5 240.5t56.5 232.5h139q-34 -169 -100 -320t-149 -280z" />
    <glyph glyph-name="xi" unicode="&#x3be;" 
d="M538 -32q-9 -83 -65.5 -125.5t-144.5 -42.5h-115l11 104h116q30 0 49 12t23 49q4 38 -12.5 51t-46.5 13h-88q-93 0 -141.5 50t-40.5 135l3 23q7 63 49.5 107t115.5 51l2 23q-47 0 -69 28.5t-17 72.5q4 38 29.5 67.5t72.5 42.5l3 23q-78 1 -122 39.5t-61 109.5l90 36
q22 -57 75.5 -82t147.5 -9l183 79l18 -134l-191 -44l-37 -23q-34 -20 -49.5 -45t-18.5 -53q-4 -37 12 -53t42 -16h153l-11 -104h-151q-57 0 -88 -27.5t-36 -73.5l-2 -23q-5 -44 18 -70t77 -26h59q82 0 124.5 -40t33.5 -125z" />
    <glyph glyph-name="omicron" unicode="&#x3bf;" 
d="M297 -10q-107 0 -166 57.5t-48 164.5l18 172q12 109 83.5 167.5t178.5 58.5q108 0 166.5 -58.5t46.5 -167.5l-18 -172q-11 -107 -82 -164.5t-179 -57.5zM308 97q51 0 77 28t33 91l17 168q7 62 -13 90.5t-71 28.5t-76.5 -29t-32.5 -91l-17 -167q-7 -63 12.5 -91t70.5 -28z
" />
    <glyph glyph-name="omicrontonos" unicode="&#x3cc;" 
d="M297 -10q-107 0 -166 57.5t-48 164.5l18 172q12 109 83.5 167.5t178.5 58.5q108 0 166.5 -58.5t46.5 -167.5l-18 -172q-11 -107 -82 -164.5t-179 -57.5zM308 97q51 0 77 28t33 91l17 168q7 62 -13 90.5t-71 28.5t-76.5 -29t-32.5 -91l-17 -167q-7 -63 12.5 -91t70.5 -28z
M310 700l67 200h174l-151 -200h-90z" />
    <glyph glyph-name="pi" unicode="&#x3c0;" horiz-adv-x="763" 
d="M692 600l-11 -107h-89l-33 -316q-6 -49 14.5 -64t78.5 -7l-11 -106q-123 -19 -179.5 16t-46.5 124l37 353h-157l-52 -493h-141l52 493h-83l11 107h610z" />
    <glyph glyph-name="rho" unicode="&#x3c1;" 
d="M329 104q38 0 60.5 28.5t28.5 89.5l18 167q6 59 -14.5 86t-68.5 27q-49 0 -76.5 -27t-33.5 -86l-22 -206q23 -40 49.5 -59.5t58.5 -19.5zM40 -200l62 586q11 108 79.5 165.5t181.5 57.5t169 -57.5t45 -165.5l-19 -181q-11 -96 -61 -155.5t-133 -59.5q-54 0 -87 29t-40 78
h-25l-31 -297h-141z" />
    <glyph glyph-name="sigma1" unicode="&#x3c2;" 
d="M208 -200l11 107h111q31 0 50 12t23 48q3 37 -13 49.5t-47 12.5h-73q-98 0 -145.5 61t-36.5 169l13 125q12 110 79.5 168t183.5 58q110 0 160 -54.5t48 -164.5l-135 -10q4 72 -15 96.5t-70 24.5q-54 0 -78.5 -27.5t-31.5 -91.5l-13 -127q-7 -64 11 -92t71 -28h74
q82 0 120 -40.5t29 -124.5t-71 -127.5t-158 -43.5h-97z" />
    <glyph glyph-name="sigma" unicode="&#x3c3;" horiz-adv-x="763" 
d="M307 97q51 0 77 27t33 92l15 149q8 69 -12 100t-71 31t-76.5 -28t-31.5 -91l-17 -161q-7 -65 12.5 -92t70.5 -27zM296 -10q-105 0 -165 55.5t-49 164.5l18 169q11 106 83 163.5t178 57.5h362l-12 -117l-183 15q26 -25 37.5 -62.5t6.5 -86.5l-15 -139
q-11 -109 -82.5 -164.5t-178.5 -55.5z" />
    <glyph glyph-name="tau" unicode="&#x3c4;" horiz-adv-x="596" 
d="M426 0q-123 -18 -179 16.5t-46 123.5l36 349h-167l12 111h482l-12 -111h-175l-32 -312q-6 -49 14.5 -64t77.5 -7z" />
    <glyph glyph-name="upsilon" unicode="&#x3c5;" 
d="M298 -10q-110 0 -167.5 62t-45.5 177l39 371h141l-39 -370q-7 -69 12.5 -99t70.5 -30q52 0 77.5 29.5t32.5 98.5l39 371h141l-39 -371q-12 -115 -82 -177t-180 -62z" />
    <glyph glyph-name="upsilondieresistonos" unicode="&#x3b0;" 
d="M298 -10q-110 0 -167.5 62t-45.5 177l39 371h141l-39 -370q-7 -69 12.5 -99t70.5 -30q52 0 77.5 29.5t32.5 98.5l39 371h141l-39 -371q-12 -115 -82 -177t-180 -62zM303 700l60 200h128l-108 -200h-80zM195 697q-28 0 -44.5 13.5t-12.5 49.5l1 10q4 37 23.5 51.5
t47.5 14.5q29 0 45.5 -14.5t12.5 -51.5l-1 -10q-4 -36 -24 -49.5t-48 -13.5zM545 697q-29 0 -45.5 13.5t-12.5 49.5l1 10q4 37 23.5 51.5t48.5 14.5t45 -14.5t12 -51.5l-1 -10q-4 -36 -23.5 -49.5t-47.5 -13.5z" />
    <glyph glyph-name="upsilondieresis" unicode="&#x3cb;" 
d="M298 -10q-110 0 -167.5 62t-45.5 177l39 371h141l-39 -370q-7 -69 12.5 -99t70.5 -30q52 0 77.5 29.5t32.5 98.5l39 371h141l-39 -371q-12 -115 -82 -177t-180 -62zM266 703q-32 0 -51 13.5t-15 50.5l1 10q4 37 26 51.5t54 14.5q33 0 51.5 -14.5t14.5 -51.5l-1 -10
q-4 -37 -26 -50.5t-54 -13.5zM476 703q-33 0 -51.5 13.5t-14.5 50.5l1 10q4 37 25.5 51.5t54.5 14.5q32 0 51 -14.5t15 -51.5l-1 -10q-4 -37 -26.5 -50.5t-53.5 -13.5z" />
    <glyph glyph-name="upsilontonos" unicode="&#x3cd;" 
d="M298 -10q-110 0 -167.5 62t-45.5 177l39 371h141l-39 -370q-7 -69 12.5 -99t70.5 -30q52 0 77.5 29.5t32.5 98.5l39 371h141l-39 -371q-12 -115 -82 -177t-180 -62zM315 700l67 200h174l-151 -200h-90z" />
    <glyph glyph-name="phi" unicode="&#x3c6;" horiz-adv-x="922" 
d="M469 -200h-140l20 194q-135 15 -198.5 92t-49.5 208l6 62q9 80 31 145t60 116l132 -32q-30 -45 -52 -102t-30 -127l-6 -62q-9 -84 20 -129.5t99 -57.5l52 493h102q135 0 218.5 -70.5t68.5 -213.5l-4 -39q-13 -125 -96.5 -196.5t-212.5 -86.5zM541 489l-40 -383
q73 10 110.5 52t45.5 119l4 39q10 90 -20.5 131.5t-99.5 41.5z" />
    <glyph glyph-name="chi" unicode="&#x3c7;" horiz-adv-x="596" 
d="M336 -200l-82 257l-123 -257h-143l217 409l-127 391h143l78 -242l118 242h143l-211 -394l130 -406h-143z" />
    <glyph glyph-name="psi" unicode="&#x3c8;" horiz-adv-x="922" 
d="M469 -200h-140l20 190q-145 13 -204.5 84.5t-47.5 182.5l36 343h141l-35 -333q-8 -72 20.5 -109t102.5 -46l51 488h140l-51 -488q76 10 111 46.5t43 108.5l35 333h141l-36 -343q-12 -111 -86.5 -182.5t-220.5 -84.5z" />
    <glyph glyph-name="omega" unicode="&#x3c9;" horiz-adv-x="922" 
d="M251 -10q-81 0 -124 69.5t-30 201.5l8 72q9 87 34 167t49 117l132 -32q-16 -32 -41 -103t-33 -149l-8 -72q-8 -79 5.5 -119.5t47.5 -40.5q35 0 55 27t27 89l30 283h140l-30 -283q-7 -62 8 -89t49 -27q35 0 56 40.5t29 119.5l8 72q8 78 -1.5 149t-19.5 103l140 32
q15 -37 23 -117t-1 -167l-8 -72q-13 -132 -71 -201.5t-139 -69.5q-57 0 -94 31t-51 100h-20q-29 -70 -72 -100.5t-98 -30.5z" />
    <glyph glyph-name="omegatonos" unicode="&#x3ce;" horiz-adv-x="922" 
d="M251 -10q-81 0 -124 69.5t-30 201.5l8 72q9 87 34 167t49 117l132 -32q-16 -32 -41 -103t-33 -149l-8 -72q-8 -79 5.5 -119.5t47.5 -40.5q35 0 55 27t27 89l30 283h140l-30 -283q-7 -62 8 -89t49 -27q35 0 56 40.5t29 119.5l8 72q8 78 -1.5 149t-19.5 103l140 32
q15 -37 23 -117t-1 -167l-8 -72q-13 -132 -71 -201.5t-139 -69.5q-57 0 -94 31t-51 100h-20q-29 -70 -72 -100.5t-98 -30.5zM425 700l67 200h174l-151 -200h-90z" />
    <glyph glyph-name="acyrillic" unicode="&#x430;" horiz-adv-x="763" 
d="M287 88q35 0 68.5 13t59.5 44l11 104h-131q-31 0 -52 -17.5t-25 -61.5q-4 -40 12.5 -61t56.5 -21zM245 -10q-81 0 -126 45t-36 127q9 81 62.5 126t137.5 45h152l9 85q4 43 -17 67.5t-68 24.5q-49 0 -74 -21.5t-44 -81.5l-118 24q27 93 91.5 136t164.5 43q104 0 160 -43.5
t46 -139.5l-27 -256q-5 -48 18 -61t76 -4l-11 -106q-73 -14 -119.5 4.5t-52.5 83.5h-23q-29 -43 -83 -70.5t-118 -27.5z" />
    <glyph glyph-name="becyrillic" unicode="&#x431;" 
d="M297 -10q-106 0 -165.5 57.5t-46.5 182.5l27 257q15 137 82 208t198 90l188 30l1 -110l-184 -31q-72 -13 -107.5 -54t-44.5 -122l-4 -42h20q23 39 64 61.5t92 22.5q77 0 121 -53.5t34 -144.5l-13 -125q-12 -115 -83.5 -171t-178.5 -56zM308 97q52 0 77 28.5t31 85.5
l12 117q6 52 -13.5 78t-71.5 26q-53 0 -77 -26t-30 -78l-12 -117q-6 -57 12.5 -85.5t71.5 -28.5z" />
    <glyph glyph-name="vecyrillic" unicode="&#x432;" 
d="M61 0l63 600h239q117 0 172.5 -37.5t47.5 -116.5l-2 -17q-5 -49 -37.5 -75.5t-88.5 -30.5l-2 -22q63 -5 92.5 -37t24.5 -86l-2 -14q-8 -82 -73 -123t-195 -41h-239zM233 356h111q52 0 74.5 14t26.5 50l2 14q4 37 -15 53t-73 16h-110zM207 101h110q62 0 88.5 18.5
t30.5 62.5l1 10q5 42 -17.5 59.5t-84.5 17.5h-111z" />
    <glyph glyph-name="gecyrillic" unicode="&#x433;" horiz-adv-x="513" 
d="M61 0l63 600h366l-12 -111h-225l-51 -489h-141z" />
    <glyph glyph-name="gjecyrillic" unicode="&#x453;" horiz-adv-x="513" 
d="M61 0l63 600h366l-12 -111h-225l-51 -489h-141zM222 700l118 200h182l-201 -200h-99z" />
    <glyph glyph-name="decyrillic" unicode="&#x434;" horiz-adv-x="763" 
d="M251 130l-3 -23h169l41 386h-134l-26 -225q-6 -46 -16.5 -79t-30.5 -59zM159 0l-16 -150h-135l27 257h68q23 19 38 55.5t23 103.5l39 334h400l-52 -493h84l-27 -257h-135l16 150h-330z" />
    <glyph glyph-name="iecyrillic" unicode="&#x435;" 
d="M552 135q-33 -75 -96 -110t-159 -35q-111 0 -168 58t-46 162l19 180q11 104 81 162t180 58t167.5 -59t45.5 -166l-11 -112h-334l-7 -64q-7 -64 14.5 -92t77.5 -28q49 0 75.5 18.5t45.5 61.5zM243 390l-3 -33h193l2 27q8 69 -12 99t-71 30t-76.5 -28.5t-32.5 -94.5z" />
    <glyph glyph-name="iegravecyrillic" unicode="&#x450;" 
d="M552 135q-33 -75 -96 -110t-159 -35q-111 0 -168 58t-46 162l19 180q11 104 81 162t180 58t167.5 -59t45.5 -166l-11 -112h-334l-7 -64q-7 -64 14.5 -92t77.5 -28q49 0 75.5 18.5t45.5 61.5zM243 390l-3 -33h193l2 27q8 69 -12 99t-71 30t-76.5 -28.5t-32.5 -94.5z
M363 700l-158 200h182l75 -200h-99z" />
    <glyph glyph-name="iocyrillic" unicode="&#x451;" 
d="M552 135q-33 -75 -96 -110t-159 -35q-111 0 -168 58t-46 162l19 180q11 104 81 162t180 58t167.5 -59t45.5 -166l-11 -112h-334l-7 -64q-7 -64 14.5 -92t77.5 -28q49 0 75.5 18.5t45.5 61.5zM243 390l-3 -33h193l2 27q8 69 -12 99t-71 30t-76.5 -28.5t-32.5 -94.5z
M267 703q-32 0 -51 13.5t-15 50.5l1 10q4 37 26 51.5t54 14.5q33 0 51.5 -14.5t14.5 -51.5l-1 -10q-4 -37 -26 -50.5t-54 -13.5zM477 703q-33 0 -51.5 13.5t-14.5 50.5l1 10q4 37 25.5 51.5t54.5 14.5q32 0 51 -14.5t15 -51.5l-1 -10q-4 -37 -26.5 -50.5t-53.5 -13.5z" />
    <glyph glyph-name="zhecyrillic" unicode="&#x436;" horiz-adv-x="763" 
d="M265 264l-131 -264h-127l176 324l-115 276h130l84 -244h37l26 244h115l-26 -244h37l135 244h131l-172 -278l106 -322h-127l-74 264h-45l-28 -264h-115l28 264h-45z" />
    <glyph glyph-name="zecyrillic" unicode="&#x437;" 
d="M306 -10q-123 0 -177.5 48.5t-51.5 150.5l131 7q0 -58 22.5 -81.5t82.5 -23.5q63 0 89 21.5t31 67.5l1 10q4 42 -17.5 60t-78.5 18h-44l10 90h44q48 0 70.5 14.5t26.5 54.5l1 14q4 38 -16 53t-72 15q-50 0 -75 -20t-37 -74l-131 8q17 97 80 142t178 45q104 0 161.5 -38
t48.5 -122l-1 -16q-6 -50 -38 -78.5t-89 -32.5l-2 -22q65 -6 93.5 -40t22.5 -85l-1 -13q-9 -87 -75 -130t-187 -43z" />
    <glyph glyph-name="iicyrillic" unicode="&#x438;" 
d="M413 0l45 425l-246 -425h-151l63 600h124l-47 -445l258 445h140l-63 -600h-123z" />
    <glyph glyph-name="iishortcyrillic" unicode="&#x439;" 
d="M413 0l45 425l-246 -425h-151l63 600h124l-47 -445l258 445h140l-63 -600h-123zM370 693q-90 0 -143 50t-41 160l125 10q-8 -69 7 -98t62 -29t68 29t27 98l123 -10q-12 -110 -75 -160t-153 -50z" />
    <glyph glyph-name="igravecyrillic" unicode="&#x45d;" 
d="M413 0l45 425l-246 -425h-151l63 600h124l-47 -445l258 445h140l-63 -600h-123zM360 700l-158 200h182l75 -200h-99z" />
    <glyph glyph-name="kacyrillic" unicode="&#x43a;" horiz-adv-x="596" 
d="M229 263l-28 -263h-141l63 600h141l-25 -237h35l163 237h143l-208 -273l142 -327h-145l-105 263h-35z" />
    <glyph glyph-name="kjecyrillic" unicode="&#x45c;" horiz-adv-x="596" 
d="M229 263l-28 -263h-141l63 600h141l-25 -237h35l163 237h143l-208 -273l142 -327h-145l-105 263h-35zM267 700l118 200h182l-201 -200h-99z" />
    <glyph glyph-name="elcyrillic" unicode="&#x43b;" 
d="M395 0l52 493h-135l-30 -261q-14 -124 -62 -183.5t-127 -59.5q-22 0 -44.5 3.5t-45.5 10.5l26 106l26.5 -7t21.5 -3q28 0 46 32t28 114l41 355h407l-63 -600h-141z" />
    <glyph glyph-name="emcyrillic" unicode="&#x43c;" horiz-adv-x="763" 
d="M300 150l-72 289l-46 -439h-122l63 600h175l75 -304l138 304h170l-63 -600h-122l46 437l-131 -287h-111z" />
    <glyph glyph-name="encyrillic" unicode="&#x43d;" 
d="M61 0l63 600h141l-22 -207h193l22 207h141l-63 -600h-141l30 283h-193l-30 -283h-141z" />
    <glyph glyph-name="ocyrillic" unicode="&#x43e;" 
d="M297 -10q-107 0 -166 57.5t-48 164.5l18 172q12 109 83.5 167.5t178.5 58.5q108 0 166.5 -58.5t46.5 -167.5l-18 -172q-11 -107 -82 -164.5t-179 -57.5zM308 97q51 0 77 28t33 91l17 168q7 62 -13 90.5t-71 28.5t-76.5 -29t-32.5 -91l-17 -167q-7 -63 12.5 -91t70.5 -28z
" />
    <glyph glyph-name="pecyrillic" unicode="&#x43f;" 
d="M61 0l63 600h475l-63 -600h-141l51 489h-193l-51 -489h-141z" />
    <glyph glyph-name="ercyrillic" unicode="&#x440;" 
d="M309 97q49 0 75.5 26.5t32.5 83.5l19 185q6 56 -11 80t-55 24q-34 0 -64 -17.5t-60 -55.5l-30 -292q22 -17 44 -25.5t49 -8.5zM319 -9q-31 0 -60 7t-55 20l-23 -218h-141l84 800h141l-9 -90h25q21 48 64.5 74t97.5 26q75 0 110 -55.5t25 -156.5l-20 -192
q-11 -101 -74 -158t-165 -57z" />
    <glyph glyph-name="escyrillic" unicode="&#x441;" 
d="M303 -10q-122 0 -176.5 56.5t-43.5 159.5l19 185q12 110 82 164.5t184 54.5t168 -53t51 -157l-137 -9q3 63 -17.5 87t-73.5 24q-56 0 -83 -26t-33 -86l-19 -181q-6 -61 15 -86.5t78 -25.5q54 0 79 21.5t34 77.5l135 -10q-17 -99 -80 -147.5t-182 -48.5z" />
    <glyph glyph-name="tecyrillic" unicode="&#x442;" horiz-adv-x="596" 
d="M186 0l51 489h-167l12 111h474l-12 -111h-167l-51 -489h-140z" />
    <glyph glyph-name="ucyrillic" unicode="&#x443;" horiz-adv-x="596" 
d="M108 -208q-27 0 -58 3t-66 8l23 107q30 -5 54 -8.5t43 -3.5q58 0 86.5 27.5t46.5 78.5l3 10h-87l-93 586h140l70 -501l171 501h136l-224 -627q-38 -97 -96.5 -139t-148.5 -42z" />
    <glyph glyph-name="ushortcyrillic" unicode="&#x45e;" horiz-adv-x="596" 
d="M108 -208q-27 0 -58 3t-66 8l23 107q30 -5 54 -8.5t43 -3.5q58 0 86.5 27.5t46.5 78.5l3 10h-87l-93 586h140l70 -501l171 501h136l-224 -627q-38 -97 -96.5 -139t-148.5 -42zM329 693q-90 0 -143 50t-41 160l125 10q-8 -69 7 -98t62 -29t68 29t27 98l123 -10
q-12 -110 -75 -160t-153 -50z" />
    <glyph glyph-name="efcyrillic" unicode="&#x444;" horiz-adv-x="922" 
d="M544 0h-54l-21 -200h-140l21 200h-55q-107 0 -159.5 63t-40.5 179l13 116q12 116 77.5 179t172.5 63h55l21 200h140l-21 -200h54q107 0 159.5 -63t40.5 -179l-13 -116q-12 -116 -77.5 -179t-172.5 -63zM323 109h42l41 382h-42q-50 0 -79.5 -34.5t-36.5 -102.5l-11 -110
q-7 -66 14.5 -100.5t71.5 -34.5zM579 491h-41l-41 -382h41q50 0 79.5 34.5t36.5 100.5l11 110q7 68 -14.5 102.5t-71.5 34.5z" />
    <glyph glyph-name="khacyrillic" unicode="&#x445;" horiz-adv-x="596" 
d="M356 0l-87 190l-116 -190h-144l205 307l-136 293h144l82 -178l112 178h144l-201 -296l141 -304h-144z" />
    <glyph glyph-name="tsecyrillic" unicode="&#x446;" horiz-adv-x="718" 
d="M461 -150l16 150h-412l63 600h141l-51 -489h180l51 489h140l-51 -489h84l-28 -261h-133z" />
    <glyph glyph-name="checyrillic" unicode="&#x447;" 
d="M599 600l-63 -600h-141l21 199q-24 -8 -53 -13t-62 -5q-107 0 -158 56t-40 162l21 201h141l-21 -199q-6 -60 16.5 -85t69.5 -26q27 0 53.5 5t43.5 14l31 291h141z" />
    <glyph glyph-name="shacyrillic" unicode="&#x448;" horiz-adv-x="930" 
d="M60 0l63 600h135l-51 -489h160l51 489h135l-51 -489h161l51 489h134l-63 -600h-725z" />
    <glyph glyph-name="shchacyrillic" unicode="&#x449;" horiz-adv-x="972" 
d="M854 -150h-132l16 150h-677l63 600h135l-51 -489h160l51 489h135l-51 -489h161l51 489h134l-51 -489h84z" />
    <glyph glyph-name="hardsigncyrillic" unicode="&#x44a;" horiz-adv-x="763" 
d="M435 0h-291l51 489h-167l12 111h307l-20 -187h152q99 0 148 -48t40 -136l-5 -45q-9 -88 -68.5 -136t-158.5 -48zM295 107h128q47 0 71 19t29 62l4 39q4 42 -16 61.5t-67 19.5h-128z" />
    <glyph glyph-name="yericyrillic" unicode="&#x44b;" horiz-adv-x="922" 
d="M70 0l63 600h141l-20 -187h126q99 0 148.5 -48.5t40.5 -135.5l-5 -45q-9 -87 -68.5 -135.5t-158.5 -48.5h-267zM628 0l63 600h141l-63 -599zM222 107h102q47 0 71 19.5t29 61.5l4 39q4 42 -16 61.5t-67 19.5h-102z" />
    <glyph glyph-name="softsigncyrillic" unicode="&#x44c;" 
d="M61 0l63 600h141l-20 -187h151q99 0 148.5 -48.5t40.5 -135.5l-5 -45q-9 -87 -68.5 -135.5t-158.5 -48.5h-292zM213 107h127q47 0 71.5 19.5t29.5 61.5l4 39q4 42 -16.5 61.5t-67.5 19.5h-127z" />
    <glyph glyph-name="ereversedcyrillic" unicode="&#x44d;" 
d="M286 -10q-118 0 -168.5 47.5t-46.5 146.5l137 9q-3 -57 17.5 -79t74.5 -22q59 0 85 28t32 92l6 53h-161l9 91h161l4 32q7 66 -14 93t-78 27q-53 0 -78.5 -22.5t-35.5 -81.5l-135 9q20 100 82 148.5t175 48.5q118 0 177 -57.5t47 -167.5l-17 -167q-12 -110 -80 -169
t-193 -59z" />
    <glyph glyph-name="iucyrillic" unicode="&#x44e;" horiz-adv-x="922" 
d="M540 -10q-109 0 -162.5 59.5t-41.5 167.5l5 52h-102l-28 -269h-141l63 600h141l-23 -220h103v5q12 107 78 166t174 59q109 0 161.5 -60.5t41.5 -170.5l-17 -162q-12 -108 -77 -167.5t-175 -59.5zM552 101q50 0 72.5 27.5t30.5 95.5l15 148q7 70 -10 98.5t-67 28.5
t-73 -28.5t-30 -98.5l-15 -148q-8 -68 9.5 -95.5t67.5 -27.5z" />
    <glyph glyph-name="iacyrillic" unicode="&#x44f;" 
d="M313 302h114l20 194h-114q-37 0 -54.5 -18.5t-22.5 -64.5l-2 -22q-5 -50 8.5 -69.5t50.5 -19.5zM416 200h-60l-153 -200h-149l158 210q-57 13 -81.5 58t-16.5 120l2 25q10 93 60 140t138 47h285l-63 -600h-141z" />
    <glyph glyph-name="djecyrillic" unicode="&#x452;" 
d="M317 -209q-28 0 -55.5 6t-54.5 16l29 107q21 -10 40 -15.5t36 -5.5q34 0 56 25.5t28 85.5l36 340q5 45 -10.5 67t-52.5 22q-34 0 -67 -21.5t-63 -63.5l-37 -354h-141l65 620h-83l9 87h83l10 93h141l-10 -93h150l-9 -87h-150l-17 -167h25q20 46 65.5 73t100.5 27
q72 0 107.5 -47.5t26.5 -131.5l-40 -379q-10 -102 -73.5 -153t-144.5 -51z" />
    <glyph glyph-name="ecyrillic" unicode="&#x454;" 
d="M564 184q-16 -101 -76 -147.5t-180 -46.5q-122 0 -179 58.5t-45 168.5l17 168q12 110 82 167.5t190 57.5q113 0 165 -48t50 -149l-137 -9q3 59 -18 81.5t-74 22.5q-57 0 -83 -27.5t-33 -91.5l-4 -36h174l-9 -86h-174l-6 -55q-6 -64 14.5 -92t78.5 -28q56 0 79 22t33 79z
" />
    <glyph glyph-name="dzecyrillic" unicode="&#x455;" 
d="M300 -9q-70 0 -133.5 21.5t-107.5 59.5l46 93q46 -34 101 -54t108 -20q47 0 75 16t32 52q4 40 -24 55.5t-102 32.5q-91 19 -141.5 56.5t-41.5 122.5q9 86 74 135t162 49q63 0 121 -20.5t99 -54.5l-41 -90q-44 31 -90 48t-90 17q-42 0 -67.5 -16.5t-29.5 -51.5
q-4 -39 25.5 -55.5t108.5 -34.5q94 -20 138.5 -59.5t35.5 -117.5q-9 -87 -79 -135.5t-179 -48.5z" />
    <glyph glyph-name="icyrillic" horiz-adv-x="437" 
d="M107 0l63 600h140l-63 -600h-140zM251 703q-43 0 -68 13.5t-21 50.5l1 10q4 37 32 51.5t71 14.5t68 -14.5t21 -51.5l-1 -10q-4 -37 -32.5 -50.5t-70.5 -13.5z" />
    <glyph glyph-name="yicyrillic" horiz-adv-x="437" 
d="M107 0l63 600h140l-63 -600h-140zM146 703q-32 0 -51 13.5t-15 50.5l1 10q4 37 26 51.5t54 14.5q33 0 51.5 -14.5t14.5 -51.5l-1 -10q-4 -37 -26 -50.5t-54 -13.5zM356 703q-33 0 -51.5 13.5t-14.5 50.5l1 10q4 37 25.5 51.5t54.5 14.5q32 0 51 -14.5t15 -51.5l-1 -10
q-4 -37 -26.5 -50.5t-53.5 -13.5z" />
    <glyph glyph-name="jecyrillic" unicode="&#x458;" horiz-adv-x="513" 
d="M102 -209q-28 0 -57.5 6t-57.5 16l28 104q23 -10 43.5 -15.5t39.5 -5.5q35 0 59 25t30 82l52 490h-150l11 107h290l-64 -608q-10 -99 -73.5 -150t-150.5 -51zM330 703q-43 0 -68 13.5t-21 50.5l1 10q4 37 32 51.5t71 14.5t68 -14.5t21 -51.5l-1 -10q-4 -37 -32.5 -50.5
t-70.5 -13.5z" />
    <glyph glyph-name="ljecyrillic" unicode="&#x459;" horiz-adv-x="1014" 
d="M312 493l-30 -261q-14 -126 -62.5 -184.5t-126.5 -58.5q-22 0 -44.5 3.5t-45.5 10.5l26 106q13 -4 26 -7t24 -3q24 0 42.5 27t29.5 119l41 355h407l-20 -187h151q99 0 148.5 -48t40.5 -136l-5 -45q-9 -88 -68.5 -136t-158.5 -48h-292l52 493h-135zM547 107h127
q46 0 71 20t30 62l4 39q4 40 -17 60t-67 20h-127z" />
    <glyph glyph-name="njecyrillic" unicode="&#x45a;" horiz-adv-x="1014" 
d="M547 107h127q46 0 71 19.5t30 62.5l4 39q4 41 -17 60.5t-67 19.5h-127zM232 283l-30 -283h-141l63 600h141l-22 -207h193l22 207h141l-20 -187h151q99 0 148.5 -48.5t40.5 -135.5l-5 -45q-9 -87 -69 -135.5t-158 -48.5h-292l30 283h-193z" />
    <glyph glyph-name="tshecyrillic" unicode="&#x45b;" 
d="M239 354l-37 -354h-141l65 620h-83l9 87h83l10 93h141l-10 -93h150l-9 -87h-150l-17 -167h25q23 46 68 73t99 27q71 0 106.5 -47.5t26.5 -130.5l-39 -375h-141l37 348q4 45 -11.5 68t-50.5 23q-34 0 -67.5 -22t-63.5 -63z" />
    <glyph glyph-name="dzhecyrillic" unicode="&#x45f;" 
d="M216 -150l16 150h-171l63 600h141l-51 -489h193l51 489h141l-63 -600h-171l-16 -150h-133z" />
    <glyph glyph-name="gheupturncyrillic" unicode="&#x491;" horiz-adv-x="513" 
d="M61 0l63 600h233l16 150h133l-28 -261h-225l-51 -489h-141z" />
    <glyph glyph-name="nsuperior" unicode="&#x207f;" horiz-adv-x="596" 
d="M92 302l52 499h119l-7 -72h24q10 21 24 36.5t31 25.5t35.5 14.5t38.5 4.5q28 0 50.5 -11.5t36.5 -33.5q15 -22 20.5 -54t1.5 -72l-35 -337h-119l34 324q2 22 0.5 38.5t-8.5 26.5q-6 11 -15.5 16.5t-21.5 5.5q-14 0 -27.5 -5t-26.5 -15q-14 -9 -27 -22.5t-26 -30.5
l-35 -338h-119z" />
    <glyph glyph-name="gravecmb" unicode="&#x300;" horiz-adv-x="0" 
d="M21 700l-158 200h182l75 -200h-99z" />
    <glyph glyph-name="acutecmb" unicode="&#x301;" horiz-adv-x="0" 
d="M-75 700l118 200h182l-201 -200h-99z" />
    <glyph glyph-name="circumflexcmb" unicode="&#x302;" horiz-adv-x="0" 
d="M-127 700l-42 68l170 152h106l140 -152l-55 -67l-150 109z" />
    <glyph glyph-name="tildecmb" unicode="&#x303;" horiz-adv-x="0" 
d="M108 710q-35 0 -55 16t-34 38l-20.5 36.5t-25.5 16.5t-28 -17.5t-16 -63.5l-1 -16h-93l1 15q9 80 47.5 131t98.5 51q34 0 54 -15.5t34 -38.5l20.5 -37t23.5 -17q16 0 28 18t17 64l1 16h93l-1 -15q-9 -81 -47 -131.5t-97 -50.5z" />
    <glyph glyph-name="macroncmb" unicode="&#x304;" horiz-adv-x="0" 
d="M-145 745l12 110h362l-12 -110h-362z" />
    <glyph glyph-name="brevecmb" unicode="&#x306;" horiz-adv-x="0" 
d="M31 693q-104 0 -153 53.5t-38 166.5h118q-7 -71 12.5 -99t70.5 -28t75.5 28t33.5 99h118q-13 -113 -73 -166.5t-164 -53.5z" />
    <glyph glyph-name="dotaccentcmb" unicode="&#x307;" horiz-adv-x="0" 
d="M32 703q-43 0 -68 13.5t-21 50.5l1 10q4 37 32 51.5t71 14.5t68 -14.5t21 -51.5l-1 -10q-4 -37 -32.5 -50.5t-70.5 -13.5z" />
    <glyph glyph-name="dieresiscmb" unicode="&#x308;" horiz-adv-x="0" 
d="M-73 703q-32 0 -51 13.5t-15 50.5l1 10q4 37 26 51.5t54 14.5q33 0 51.5 -14.5t14.5 -51.5l-1 -10q-4 -37 -26 -50.5t-54 -13.5zM137 703q-33 0 -51.5 13.5t-14.5 50.5l1 10q4 37 25.5 51.5t54.5 14.5q32 0 51 -14.5t15 -51.5l-1 -10q-4 -37 -26.5 -50.5t-53.5 -13.5z
" />
    <glyph glyph-name="ringcmb" unicode="&#x30a;" horiz-adv-x="0" 
d="M30 682q-72 0 -113.5 36t-33.5 112l4 32q8 77 56.5 114t120.5 37q73 0 114 -37t33 -114l-4 -32q-8 -76 -56.5 -112t-120.5 -36zM38 759q31 0 48.5 16.5t21.5 54.5l4 32q3 37 -11 55.5t-45 18.5t-49 -18.5t-21 -55.5l-4 -32q-4 -38 10.5 -54.5t45.5 -16.5z" />
    <glyph glyph-name="hungarumlautcmb" unicode="&#x30b;" horiz-adv-x="0" 
d="M73 700l62 200h145l-131 -200h-76zM-119 700l62 200h145l-131 -200h-76z" />
    <glyph glyph-name="caroncmb" unicode="&#x30c;" horiz-adv-x="0" 
d="M-20 704l-140 152l55 68l150 -109l169 109l42 -68l-170 -152h-106z" />
    <glyph glyph-name="commaturnedabovecmb" unicode="&#x312;" horiz-adv-x="0" 
d="M-91 700l167 200h99l-84 -200h-182z" />
    <glyph glyph-name="commaaccentcmb" unicode="&#x326;" horiz-adv-x="0" 
d="M-203 -300l84 200h182l-167 -200h-99z" />
    <glyph glyph-name="cedillacmb" unicode="&#x327;" horiz-adv-x="0" 
d="M-67 0l20 42q67 -9 102 -40.5t29 -91.5q-7 -66 -57.5 -97.5t-118.5 -31.5q-74 0 -115.5 28t-39.5 88l120 10q-1 -19 8 -26.5t31 -7.5q24 0 36.5 11.5t16.5 45.5q3 32 -4 47t-28 23z" />
    <glyph glyph-name="ogonekcmb" unicode="&#x328;" horiz-adv-x="0" 
d="M-41 -218q-66 0 -101 32t-29 90q5 52 47 93.5t94 59.5l18 -34q-28 -19 -39 -41.5t-14 -44.5q-2 -27 12 -40.5t45 -13.5q15 0 35.5 3t43.5 7l-11 -100q-25 -5 -52 -8t-49 -3z" />
    <glyph glyph-name="zero" unicode="0" horiz-adv-x="763" 
d="M339 -10q-137 0 -200 88.5t-46 254.5l14 130q17 167 99 257t219 90t199.5 -90t45.5 -257l-14 -130q-17 -166 -98.5 -254.5t-218.5 -88.5zM350 97q78 0 115.5 58t51.5 192l11 102q14 135 -11 194.5t-103 59.5q-80 0 -117.5 -59.5t-51.5 -194.5l-11 -102q-14 -134 11 -192
t105 -58zM374 319q-28 0 -43.5 12.5t-11.5 46.5l4 43q4 34 21.5 46.5t45.5 12.5q26 0 41.5 -12.5t11.5 -46.5l-4 -43q-4 -34 -22 -46.5t-43 -12.5z" />
    <glyph glyph-name="one" unicode="1" horiz-adv-x="763" 
d="M127 0l12 111h184l55 522h-22q-22 -63 -73.5 -101t-111.5 -42l4 116q72 6 133.5 57t88.5 137h138l-72 -689h167l-12 -111h-491z" />
    <glyph glyph-name="two" unicode="2" horiz-adv-x="763" 
d="M60 0l18 168q10 102 53 158t129 77l169 40q50 11 72 35.5t27 70.5l4 38q6 60 -21.5 88t-96.5 28t-100.5 -32.5t-46.5 -121.5l-139 10q19 130 89.5 190.5t206.5 60.5q135 0 197 -56t51 -161l-6 -57q-9 -88 -51.5 -135t-123.5 -66l-169 -40q-49 -11 -73 -39t-30 -86l-6 -59
h417l-12 -111h-558z" />
    <glyph glyph-name="three" unicode="3" horiz-adv-x="763" 
d="M337 -10q-145 0 -206 55.5t-56 177.5l141 10q-1 -82 26.5 -108t105.5 -26q76 0 111 28t42 93l3 27q7 66 -21 93.5t-104 27.5h-104l11 110h104q66 0 95.5 18.5t35.5 72.5l3 32q6 56 -22.5 78t-95.5 22q-63 0 -93.5 -26.5t-42.5 -89.5l-138 10q17 113 85 164t199 51
q137 0 199 -48.5t51 -152.5l-3 -27q-6 -60 -45 -98t-96 -45l-3 -29q63 -7 97 -54.5t27 -114.5l-2 -23q-12 -117 -85.5 -172.5t-218.5 -55.5z" />
    <glyph glyph-name="four" unicode="4" horiz-adv-x="763" 
d="M216 312h211l35 332zM682 205h-125l-22 -205h-141l22 205h-342l11 107l356 488h178l-51 -488h125z" />
    <glyph glyph-name="five" unicode="5" horiz-adv-x="763" 
d="M338 -10q-148 0 -208.5 55t-53.5 186l141 10q-1 -84 26.5 -114t106.5 -30q77 0 110.5 29t40.5 94l5 51q7 66 -20.5 94t-99.5 28h-268l43 407h514l-11 -107h-373l-20 -186h156q121 0 177 -54.5t44 -167.5l-8 -76q-11 -104 -86.5 -161.5t-215.5 -57.5z" />
    <glyph glyph-name="six" unicode="6" horiz-adv-x="763" 
d="M339 -10q-140 0 -202.5 73t-47.5 213l26 249q15 140 91.5 212.5t219.5 72.5q130 0 186.5 -46.5t63.5 -147.5l-151 -23q-5 65 -30.5 87.5t-86.5 22.5q-74 0 -107.5 -39.5t-44.5 -139.5l-10 -98h10q28 34 72.5 54t104.5 20q122 0 173.5 -61t39.5 -177l-3 -22
q-12 -119 -88.5 -184.5t-215.5 -65.5zM349 97q72 0 109 35.5t44 106.5l1 13q8 74 -21 110.5t-101 36.5t-109 -36.5t-45 -110.5l-1 -13q-7 -72 22 -107t101 -35z" />
    <glyph glyph-name="seven" unicode="7" horiz-adv-x="763" 
d="M227 0q70 243 134 370.5t189 312.5h-418l12 117h558l-12 -117q-129 -212 -197 -347.5t-117 -335.5h-149z" />
    <glyph glyph-name="eight" unicode="8" horiz-adv-x="763" 
d="M339 -10q-152 0 -210 56.5t-47 163.5l2 22q9 78 49 123t107 52l3 29q-55 6 -83.5 43.5t-21.5 103.5l4 32q10 101 81.5 148t201.5 47q129 0 190.5 -46.5t51.5 -148.5l-4 -32q-7 -66 -44 -103.5t-92 -43.5l-3 -29q65 -7 96 -52t22 -123l-2 -22q-11 -108 -80.5 -164
t-220.5 -56zM390 474q65 0 95.5 23t36.5 79l2 25q6 55 -19.5 77.5t-90.5 22.5q-66 0 -96.5 -22.5t-36.5 -77.5l-2 -25q-6 -56 19.5 -79t91.5 -23zM350 99q78 0 111.5 29t40.5 96l1 16q7 68 -20 97t-105 29t-111.5 -29t-40.5 -97l-1 -16q-7 -67 20 -96t105 -29z" />
    <glyph glyph-name="nine" unicode="9" horiz-adv-x="763" 
d="M382 401q73 0 109.5 36t44.5 111l1 13q8 73 -21 107.5t-102 34.5t-108.5 -35t-43.5 -107l-1 -13q-8 -75 20 -111t101 -36zM337 -10q-130 0 -186.5 46.5t-63.5 147.5l151 23q4 -63 29 -86.5t88 -23.5q73 0 107.5 40t44.5 139l10 98h-14q-27 -34 -70.5 -53.5t-106.5 -19.5
q-116 0 -169 59t-40 178l2 22q12 119 88.5 184.5t217.5 65.5q140 0 201.5 -73t46.5 -213l-26 -249q-14 -136 -88.5 -210.5t-221.5 -74.5z" />
    <glyph glyph-name="onequarter" unicode="&#xbc;" horiz-adv-x="1317" 
d="M968 204h116l19 176zM1264 123h-78l-13 -123h-110l13 123h-212l8 81l219 292h134l-31 -292h78zM113 304l9 85h113l32 302h-16q-12 -41 -44.5 -65.5t-68.5 -26.5l4 86q38 4 78.5 32.5t59.5 82.5h108l-43 -411h104l-9 -85h-327zM390 0l419 800h118l-418 -800h-119z" />
    <glyph glyph-name="onehalf" unicode="&#xbd;" horiz-adv-x="1317" 
d="M113 304l9 85h113l32 302h-16q-12 -41 -44.5 -65.5t-68.5 -26.5l4 86q38 4 78.5 32.5t59.5 82.5h108l-43 -411h104l-9 -85h-327zM856 0l12 110q5 53 31.5 91.5t80.5 51.5l104 25q31 7 44.5 21.5t16.5 45.5l2 14q3 33 -11.5 48t-51.5 15t-53 -17t-24 -65l-110 7
q13 77 57.5 116t138.5 39q93 0 132 -37.5t32 -105.5l-3 -28q-6 -57 -35.5 -88.5t-73.5 -41.5l-105 -25q-31 -7 -45 -20t-17 -45l-3 -26h259l-9 -85h-369zM390 0l419 800h118l-418 -800h-119z" />
    <glyph glyph-name="threequarters" unicode="&#xbe;" horiz-adv-x="1317" 
d="M968 204h116l19 176zM1264 123h-78l-13 -123h-110l13 123h-212l8 81l219 292h134l-31 -292h78zM390 0l419 800h118l-418 -800h-119zM257 298q-97 0 -138.5 37t-37.5 111l111 6q-1 -40 13 -55t58 -15t61 15t21 46l1 16q4 34 -10 48t-55 14h-89l9 85h89q34 0 49 10t18 38
l1 16q4 30 -12.5 41t-50.5 11t-49.5 -13t-21.5 -45l-110 6q12 72 58.5 104t130.5 32q81 0 127 -27.5t39 -96.5l-2 -14q-4 -41 -27.5 -64.5t-57.5 -28.5l-1 -18q36 -4 57.5 -31.5t16.5 -74.5l-1 -11q-8 -75 -58 -108.5t-139 -33.5z" />
    <glyph glyph-name="oneeighth" unicode="&#x215b;" horiz-adv-x="1317" 
d="M1039 -6q-99 0 -137.5 35t-31.5 104l1 14q5 48 30 74.5t68 30.5l2 18q-36 4 -54 26.5t-13 61.5l2 20q6 64 53 94t134 30t127 -30t34 -94l-2 -20q-5 -39 -27 -61.5t-59 -26.5l-2 -18q43 -4 62 -31t14 -74l-1 -14q-7 -69 -54 -104t-146 -35zM1071 297q32 0 50 12.5t21 41.5
l2 17q3 30 -12.5 42t-47.5 12t-49 -12t-20 -42l-2 -17q-3 -29 11.5 -41.5t46.5 -12.5zM1048 75q46 0 62.5 17.5t19.5 50.5l1 11q4 34 -9 52t-59 18t-61.5 -18t-19.5 -52l-1 -11q-3 -33 9 -50.5t58 -17.5zM113 304l9 85h113l32 302h-16q-12 -41 -44.5 -65.5t-68.5 -26.5l4 86
q38 4 78.5 32.5t59.5 82.5h108l-43 -411h104l-9 -85h-327zM390 0l419 800h118l-418 -800h-119z" />
    <glyph glyph-name="threeeighths" unicode="&#x215c;" horiz-adv-x="1317" 
d="M1039 -6q-99 0 -137.5 35t-31.5 104l1 14q5 48 30 74.5t68 30.5l2 18q-36 4 -54 26.5t-13 61.5l2 20q6 64 53 94t134 30t127 -30t34 -94l-2 -20q-5 -39 -27 -61.5t-59 -26.5l-2 -18q43 -4 62 -31t14 -74l-1 -14q-7 -69 -54 -104t-146 -35zM1071 297q32 0 50 12.5t21 41.5
l2 17q3 30 -12.5 42t-47.5 12t-49 -12t-20 -42l-2 -17q-3 -29 11.5 -41.5t46.5 -12.5zM1048 75q46 0 62.5 17.5t19.5 50.5l1 11q4 34 -9 52t-59 18t-61.5 -18t-19.5 -52l-1 -11q-3 -33 9 -50.5t58 -17.5zM390 0l419 800h118l-418 -800h-119zM257 298q-97 0 -138.5 37
t-37.5 111l111 6q-1 -40 13 -55t58 -15t61 15t21 46l1 16q4 34 -10 48t-55 14h-89l9 85h89q34 0 49 10t18 38l1 16q4 30 -12.5 41t-50.5 11t-49.5 -13t-21.5 -45l-110 6q12 72 58.5 104t130.5 32q81 0 127 -27.5t39 -96.5l-2 -14q-4 -41 -27.5 -64.5t-57.5 -28.5l-1 -18
q36 -4 57.5 -31.5t16.5 -74.5l-1 -11q-8 -75 -58 -108.5t-139 -33.5z" />
    <glyph glyph-name="fiveeighths" unicode="&#x215d;" horiz-adv-x="1317" 
d="M1039 -6q-99 0 -137.5 35t-31.5 104l1 14q5 48 30 74.5t68 30.5l2 18q-36 4 -54 26.5t-13 61.5l2 20q6 64 53 94t134 30t127 -30t34 -94l-2 -20q-5 -39 -27 -61.5t-59 -26.5l-2 -18q43 -4 62 -31t14 -74l-1 -14q-7 -69 -54 -104t-146 -35zM1071 297q32 0 50 12.5t21 41.5
l2 17q3 30 -12.5 42t-47.5 12t-49 -12t-20 -42l-2 -17q-3 -29 11.5 -41.5t46.5 -12.5zM1048 75q46 0 62.5 17.5t19.5 50.5l1 11q4 34 -9 52t-59 18t-61.5 -18t-19.5 -52l-1 -11q-3 -33 9 -50.5t58 -17.5zM257 298q-101 0 -140.5 34.5t-34.5 123.5l111 6q-2 -50 13.5 -67
t61.5 -17q43 0 58 17.5t20 57.5l2 20q3 36 -12.5 52.5t-73.5 16.5h-156l27 258h344l-8 -80h-234l-10 -92h88q80 0 117 -33.5t30 -102.5l-6 -55q-6 -60 -53 -99.5t-144 -39.5zM390 0l419 800h118l-418 -800h-119z" />
    <glyph glyph-name="seveneighths" unicode="&#x215e;" horiz-adv-x="1317" 
d="M1039 -6q-99 0 -137.5 35t-31.5 104l1 14q5 48 30 74.5t68 30.5l2 18q-36 4 -54 26.5t-13 61.5l2 20q6 64 53 94t134 30t127 -30t34 -94l-2 -20q-5 -39 -27 -61.5t-59 -26.5l-2 -18q43 -4 62 -31t14 -74l-1 -14q-7 -69 -54 -104t-146 -35zM1071 297q32 0 50 12.5t21 41.5
l2 17q3 30 -12.5 42t-47.5 12t-49 -12t-20 -42l-2 -17q-3 -29 11.5 -41.5t46.5 -12.5zM1048 75q46 0 62.5 17.5t19.5 50.5l1 11q4 34 -9 52t-59 18t-61.5 -18t-19.5 -52l-1 -11q-3 -33 9 -50.5t58 -17.5zM174 304q45 135 86 215.5t113 194.5h-259l9 86h369l-9 -86
q-74 -131 -117 -215.5t-77 -194.5h-115zM390 0l419 800h118l-418 -800h-119z" />
    <glyph glyph-name="underscore" unicode="_" horiz-adv-x="771" 
d="M30 -200l13 124h585l-13 -124h-585z" />
    <glyph glyph-name="hyphen" unicode="&#x2011;" horiz-adv-x="771" 
d="M95 290l14 124h557l-14 -124h-557z" />
    <glyph glyph-name="hyphen" unicode="&#x2010;" horiz-adv-x="771" 
d="M95 290l14 124h557l-14 -124h-557z" />
    <glyph glyph-name="hyphen" unicode="&#xad;" horiz-adv-x="771" 
d="M95 290l14 124h557l-14 -124h-557z" />
    <glyph glyph-name="hyphen" unicode="-" horiz-adv-x="771" 
d="M95 290l14 124h557l-14 -124h-557z" />
    <glyph glyph-name="endash" unicode="&#x2013;" horiz-adv-x="855" 
d="M106 290l14 124h619l-14 -124h-619z" />
    <glyph glyph-name="emdash" unicode="&#x2014;" horiz-adv-x="1105" 
d="M106 290l14 124h869l-14 -124h-869z" />
    <glyph glyph-name="horizontalbar" unicode="&#x2015;" horiz-adv-x="849" 
d="M-5 290l14 124h835l-14 -124h-835z" />
    <glyph glyph-name="parenleft" unicode="(" 
d="M461 -210q-168 36 -237.5 167.5t-46.5 342.5q22 210 118.5 342t272.5 168l4 -96q-117 -34 -177 -138t-78 -276q-19 -172 20 -274.5t148 -136.5z" />
    <glyph glyph-name="parenright" unicode=")" 
d="M93 -210l-4 99q116 34 176.5 137.5t78.5 273.5q17 169 -21.5 274.5t-146.5 139.5l24 96q168 -36 237 -168t47 -342q-23 -211 -119 -342.5t-272 -167.5z" />
    <glyph glyph-name="bracketleft" unicode="[" 
d="M124 -200l105 1000h349l-11 -107h-209l-84 -794h209l-10 -99h-349z" />
    <glyph glyph-name="bracketright" unicode="]" 
d="M82 -200l10 99h209l84 794h-209l11 107h349l-105 -1000h-349z" />
    <glyph glyph-name="braceleft" 
d="M472 -210q-209 -4 -296 36t-78 130q6 49 25 81.5t44 57.5q29 31 46 51.5t19 43.5q5 45 -34 63.5t-149 21.5l8 74q110 3 153 21.5t48 62.5q2 22 -10.5 39.5t-36.5 42.5q-20 21 -33 50t-7 78q9 90 104.5 130.5t303.5 36.5l-11 -107q-140 3 -197 -15t-61 -64
q-3 -25 9.5 -45.5t33.5 -43.5q23 -23 35.5 -46.5t8.5 -56.5q-6 -60 -59.5 -87.5t-169.5 -31.5l-1 -5q115 -10 162.5 -40t41.5 -90q-4 -33 -21.5 -55.5t-45.5 -45.5q-26 -22 -42.5 -44.5t-19.5 -53.5q-5 -49 48 -68t193 -16z" />
    <glyph glyph-name="braceright" 
d="M489 -44q-9 -90 -103.5 -130t-304.5 -36l11 105q140 -3 197.5 16t62.5 68q3 31 -9 53.5t-34 44.5q-22 23 -35.5 45.5t-9.5 55.5q6 60 59.5 90t170.5 40l1 5q-116 4 -163.5 31.5t-41.5 87.5q4 33 21.5 56.5t44.5 46.5q28 23 44.5 43.5t19.5 45.5q4 46 -49.5 64t-193.5 15
l11 107q211 4 297 -36.5t77 -130.5q-6 -49 -25 -78t-43 -50q-28 -25 -44 -42.5t-18 -39.5q-5 -44 33.5 -62.5t148.5 -21.5l-8 -74q-110 -3 -152.5 -21.5t-47.5 -63.5q-2 -23 9.5 -43.5t34.5 -51.5q19 -25 32 -57.5t7 -81.5z" />
    <glyph glyph-name="numbersign" unicode="#" horiz-adv-x="847" 
d="M473 293l31 214h-129l-30 -214h128zM429 0l29 190h-129l-28 -190h-120l28 190h-128l11 103h132l31 214h-141l11 103h145l28 190h121l-28 -190h128l28 190h121l-28 -190h127l-11 -103h-131l-31 -214h140l-11 -103h-144l-29 -190h-121z" />
    <glyph glyph-name="percent" unicode="%" horiz-adv-x="1089" 
d="M271 381q-82 0 -128.5 39.5t-37.5 122.5l11 103q9 84 64 124t136 40t127.5 -40t37.5 -124l-11 -103q-9 -83 -63.5 -122.5t-135.5 -39.5zM230 0l501 800h130l-502 -800h-129zM281 475q28 0 46.5 16.5t22.5 54.5l11 97q4 38 -11.5 56t-43.5 18t-47 -18t-23 -56l-11 -97
q-4 -38 12 -54.5t44 -16.5zM774 -12q-81 0 -128 39.5t-38 122.5l11 107q9 84 64 123.5t136 39.5q82 0 128.5 -39.5t37.5 -123.5l-11 -107q-9 -83 -64 -122.5t-136 -39.5zM784 81q29 0 47.5 17t22.5 55l11 101q4 37 -11.5 55t-44.5 18q-28 0 -47 -18t-23 -55l-11 -101
q-4 -38 12 -55t44 -17z" />
    <glyph glyph-name="perthousand" unicode="&#x2030;" horiz-adv-x="1415" 
d="M269 381q-72 0 -112.5 38.5t-31.5 118.5l11 113q9 81 57.5 120t120.5 39t112 -39t31 -120l-11 -113q-9 -80 -57.5 -118.5t-119.5 -38.5zM833 800l-501 -800h-129l501 800h129zM233 539q-4 -36 8.5 -52t37.5 -16q24 0 39.5 16t19.5 52l11 111q4 36 -8 53t-36 17
q-25 0 -41 -17t-20 -53zM1279 148q-9 -81 -57.5 -120t-120.5 -39t-112 39t-31 120l12 117q8 80 56.5 118.5t119.5 38.5q72 0 112.5 -38.5t32.5 -118.5zM899 148q-9 -81 -57 -120t-120 -39t-112 39t-31 120l12 117q8 80 56.5 118.5t119.5 38.5q72 0 112 -38.5t32 -118.5z
M686 156q-4 -40 8 -58.5t37 -18.5t41 18.5t20 58.5l12 107q3 36 -9 52.5t-37 16.5t-41 -16.5t-19 -52.5zM1065 156q-4 -40 8 -58.5t37 -18.5t41.5 18.5t20.5 58.5l12 107q3 36 -9.5 52.5t-37.5 16.5t-41 -16.5t-19 -52.5z" />
    <glyph glyph-name="quotesingle" unicode="'" horiz-adv-x="604" 
d="M239 383l16 417h179l-73 -417h-122z" />
    <glyph glyph-name="quotedbl" unicode="&#x22;" horiz-adv-x="914" 
d="M548 383l16 417h178l-72 -417h-122zM240 383l16 417h179l-72 -417h-123z" />
    <glyph glyph-name="quoteleft" unicode="&#x2018;" horiz-adv-x="604" 
d="M152 383l247 417h94l-127 -417h-214z" />
    <glyph glyph-name="quoteleft" unicode="&#x2bb;" horiz-adv-x="604" 
d="M152 383l247 417h94l-127 -417h-214z" />
    <glyph glyph-name="quoteright" unicode="&#x2019;" horiz-adv-x="604" 
d="M151 383l127 417h214l-246 -417h-95z" />
    <glyph glyph-name="quotedblleft" unicode="&#x201c;" horiz-adv-x="922" 
d="M465 383l247 417h92l-128 -417h-211zM163 383l247 417h92l-127 -417h-212z" />
    <glyph glyph-name="quotedblright" unicode="&#x201d;" horiz-adv-x="922" 
d="M461 383l127 417h212l-247 -417h-92zM160 383l127 417h211l-247 -417h-91z" />
    <glyph glyph-name="quotereversed" unicode="&#x201b;" horiz-adv-x="604" 
d="M337 383l-159 417h215l39 -417h-95z" />
    <glyph glyph-name="quotesinglbase" unicode="&#x201a;" horiz-adv-x="604" 
d="M101 -183l110 418h214l-230 -418h-94z" />
    <glyph glyph-name="quotedblbase" unicode="&#x201e;" horiz-adv-x="922" 
d="M461 -182l127 417h212l-247 -417h-92zM160 -182l127 417h211l-247 -417h-91z" />
    <glyph glyph-name="guilsinglleft" unicode="&#x2039;" horiz-adv-x="604" 
d="M422 72l-285 211l14 134l329 211l-13 -123l-241 -155l208 -155z" />
    <glyph glyph-name="guilsinglright" unicode="&#x203a;" horiz-adv-x="604" 
d="M115 72l12 123l242 155l-209 155l13 123l285 -211l-14 -134z" />
    <glyph glyph-name="guillemotleft" unicode="&#xab;" horiz-adv-x="922" 
d="M749 72l-285 211l14 134l329 211l-13 -123l-241 -155l208 -155zM413 72l-285 211l14 134l329 211l-13 -123l-240 -155l207 -155z" />
    <glyph glyph-name="guillemotright" unicode="&#xbb;" horiz-adv-x="922" 
d="M106 72l12 123l242 155l-209 155l13 123l285 -211l-14 -134zM442 72l12 123l242 155l-209 155l13 123l285 -211l-14 -134z" />
    <glyph glyph-name="asterisk" horiz-adv-x="771" 
d="M561 302l-143 154l10 -236h-124l61 235l-175 -153l-50 114l206 95l-186 95l74 113l142 -154l-11 235h124l-60 -235l176 154l50 -113l-207 -95l187 -95z" />
    <glyph glyph-name="dagger" unicode="&#x2020;" horiz-adv-x="855" 
d="M305 -200l73 693h-108l-56 -214h-101l59 321h214l16 200h157l-27 -200h215l-9 -321h-101l-10 214h-108l-73 -693h-141z" />
    <glyph glyph-name="daggerdbl" unicode="&#x2021;" horiz-adv-x="855" 
d="M297 -200l25 190h-214v240h101l19 -133h108l43 406h-108l-47 -133h-101l50 240h214l15 190h157l-26 -190h215v-240h-101l-19 133h-108l-43 -406h108l47 133h101l-50 -240h-215l-14 -190h-157z" />
    <glyph glyph-name="period" unicode="." horiz-adv-x="604" 
d="M260 -10q-52 0 -81.5 25t-24.5 74l6 50q5 51 39.5 76t86.5 25q51 0 80 -25t24 -76l-6 -50q-5 -49 -39.5 -74t-84.5 -25z" />
    <glyph glyph-name="comma" unicode="," horiz-adv-x="604" 
d="M101 -183l110 418h214l-230 -418h-94z" />
    <glyph glyph-name="colon" unicode=":" horiz-adv-x="604" 
d="M302 391q-48 0 -75 22t-23 67l6 49q4 46 36 69t80 23t74.5 -23t22.5 -69l-6 -49q-4 -45 -36.5 -67t-78.5 -22zM260 -8q-48 0 -75 22t-22 68l5 49q5 46 36.5 68.5t79.5 22.5t75 -22.5t22 -68.5l-5 -49q-5 -46 -37.5 -68t-78.5 -22z" />
    <glyph glyph-name="semicolon" unicode=";" horiz-adv-x="604" 
d="M302 391q-48 0 -75 22t-23 67l6 49q4 46 36 69t80 23t74.5 -23t22.5 -69l-6 -49q-4 -45 -36.5 -67t-78.5 -22zM112 -175l104 402h198l-215 -402h-87z" />
    <glyph glyph-name="ellipsis" unicode="&#x2026;" horiz-adv-x="1550" 
d="M1154 -10q-52 0 -81.5 25t-24.5 74l6 50q5 51 39.5 76t86.5 25q51 0 80 -25t24 -76l-6 -50q-5 -49 -39.5 -74t-84.5 -25zM707 -10q-52 0 -81.5 25t-24.5 74l6 50q5 51 39.5 76t86.5 25q51 0 80 -25t24 -76l-6 -50q-5 -49 -39.5 -74t-84.5 -25zM259 -10q-52 0 -81.5 25
t-24.5 74l6 50q5 51 39.5 76t86.5 25q51 0 80 -25t24 -76l-6 -50q-5 -49 -39.5 -74t-84.5 -25z" />
    <glyph glyph-name="exclam" unicode="!" horiz-adv-x="677" 
d="M267 300l27 500h173l-77 -500h-123zM299 -10q-54 0 -79.5 20.5t-20.5 63.5l3 28q4 44 34 65t84 21t79 -21t21 -65l-3 -28q-5 -43 -34.5 -63.5t-83.5 -20.5z" />
    <glyph glyph-name="exclamdown" unicode="&#xa1;" horiz-adv-x="677" 
d="M382 810q54 0 79.5 -20.5t20.5 -63.5l-3 -28q-4 -44 -34 -65t-84 -21t-78.5 21t-20.5 65l3 28q5 43 34.5 63.5t82.5 20.5zM416 500l-28 -500h-174l78 500h124z" />
    <glyph glyph-name="exclamdbl" unicode="&#x203c;" horiz-adv-x="938" 
d="M590 300l27 500h173l-77 -500h-123zM622 -10q-54 0 -79.5 20.5t-20.5 63.5l3 28q4 44 34 65t84 21t79 -21t21 -65l-3 -28q-5 -43 -34.5 -63.5t-83.5 -20.5zM200 300l27 500h173l-77 -500h-123zM232 -10q-54 0 -79.5 20.5t-20.5 63.5l3 28q4 44 34 65t84 21t79 -21t21 -65
l-3 -28q-5 -43 -34.5 -63.5t-83.5 -20.5z" />
    <glyph glyph-name="question" unicode="?" horiz-adv-x="855" 
d="M331 296l-6 98q146 27 199.5 62t59.5 96l3 27q6 60 -18.5 92t-98.5 32q-78 0 -108.5 -32.5t-46.5 -121.5l-139 10q20 134 90.5 192.5t213.5 58.5q132 0 195 -61t53 -160l-4 -41q-12 -109 -101 -163.5t-292 -88.5zM355 -10q-54 0 -79.5 20.5t-20.5 63.5l3 28q4 44 34 65
t84 21t79 -21t21 -65l-3 -28q-5 -43 -35 -63.5t-83 -20.5z" />
    <glyph glyph-name="questiondown" unicode="&#xbf;" horiz-adv-x="855" 
d="M514 810q54 0 79.5 -20.5t20.5 -63.5l-3 -28q-4 -44 -34 -65t-84 -21t-79 21t-21 65l3 28q5 43 34.5 63.5t83.5 20.5zM537 504l7 -98q-149 -28 -201.5 -63t-58.5 -95l-3 -27q-6 -60 18.5 -92t99.5 -32q78 0 108.5 32.5t45.5 121.5l140 -10q-21 -135 -92.5 -193
t-211.5 -58q-134 0 -196.5 61.5t-52.5 159.5l4 41q12 108 101.5 163.5t291.5 88.5z" />
    <glyph glyph-name="slash" unicode="/" horiz-adv-x="604" 
d="M13 -200l439 1000h118l-439 -1000h-118z" />
    <glyph glyph-name="backslash" unicode="\" horiz-adv-x="604" 
d="M347 -199l-229 1000l118 -1l229 -1000z" />
    <glyph glyph-name="fraction" unicode="&#x2215;" horiz-adv-x="315" 
d="M-111 0l419 800h118l-418 -800h-119z" />
    <glyph glyph-name="fraction" unicode="&#x2044;" horiz-adv-x="315" 
d="M-111 0l419 800h118l-418 -800h-119z" />
    <glyph glyph-name="bar" unicode="|" horiz-adv-x="604" 
d="M182 -200l105 1000h115l-105 -1000h-115z" />
    <glyph glyph-name="brokenbar" unicode="&#xa6;" horiz-adv-x="604" 
d="M245 400l42 400h115l-42 -400h-115zM182 -200l42 400h115l-42 -400h-115z" />
    <glyph glyph-name="at" unicode="@" horiz-adv-x="894" 
d="M460 -110q-190 0 -273.5 92.5t-67.5 246.5l28 268q15 142 103.5 227.5t249.5 85.5q144 0 212.5 -81t53.5 -222l-23 -217q-11 -91 -69.5 -133t-156.5 -42q-101 0 -144.5 46.5t-34.5 130.5l10 102q9 82 56.5 131.5t116.5 49.5q48 0 75 -19t39 -46h30q8 102 -30.5 154
t-145.5 52q-111 0 -165 -57.5t-65 -161.5l-27 -263q-13 -118 42.5 -183t196.5 -65q51 0 97.5 8t83.5 19l-10 -96q-35 -10 -85.5 -18.5t-96.5 -8.5zM531 210q33 0 54 16.5t26 67.5l10 92q5 50 -13 72t-49 22q-33 0 -53.5 -22t-26.5 -74l-8 -82q-5 -49 10.5 -70.5t49.5 -21.5z
" />
    <glyph glyph-name="ampersand" unicode="&#x26;" horiz-adv-x="771" 
d="M666 -11q-49 16 -95 41.5t-88 58.5q-44 -46 -97.5 -72.5t-120.5 -26.5q-98 0 -151 54t-42 154q8 76 49 133.5t108 97.5q-19 48 -27 92.5t-4 79.5q11 99 68.5 154.5t151.5 55.5q84 0 129 -49t38 -118q-8 -75 -55.5 -124t-169.5 -103q7 -16 15 -32l16 -32
q19 -31 40.5 -61.5t46.5 -57.5q23 38 48.5 86.5t50.5 106.5l104 -36q-34 -69 -74 -124l-77 -103l170 -70zM327 598q-3 -27 0 -56t10 -59q61 32 91 67t35 81q4 36 -10.5 57.5t-45.5 21.5q-37 0 -56 -30t-24 -82zM307 90q28 0 55 14t54 43q-31 31 -59 65.5t-52 70.5
q-10 15 -18.5 30l-16.5 30q-23 -27 -37.5 -62t-18.5 -72q-6 -58 17.5 -88.5t75.5 -30.5z" />
    <glyph glyph-name="section" unicode="&#xa7;" horiz-adv-x="922" 
d="M433 212q8 -1 16.5 -3.5l15.5 -4.5q45 2 77.5 22t36.5 64q5 41 -22 60t-85 35q-7 1 -15.5 3.5t-16.5 4.5q-43 -1 -76 -21.5t-38 -64.5q-4 -41 23 -60t84 -35zM413 -207q-75 0 -143 25.5t-110 68.5l52 102q46 -43 98.5 -64t118.5 -21q46 0 82.5 18t40.5 62q5 46 -31 69.5
t-110 42.5q-125 27 -180 70t-47 119q6 60 44 96t93 53q-55 28 -82.5 70t-20.5 106q10 96 87.5 145t188.5 49q75 0 140.5 -25.5t112.5 -68.5l-59 -98q-48 40 -97.5 60.5t-112.5 20.5q-57 0 -89 -21.5t-36 -60.5q-5 -46 37 -69.5t133 -43.5q109 -26 158 -69t40 -121
q-6 -58 -40.5 -94.5t-85.5 -55.5q51 -28 75 -68.5t18 -102.5q-10 -94 -85.5 -144t-189.5 -50z" />
    <glyph glyph-name="paragraph" unicode="&#xb6;" horiz-adv-x="922" 
d="M581 340h-84l-57 -540h-140l57 540q-84 0 -133 49t-39 148l6 52q11 104 70 157.5t143 53.5h365l-105 -1000h-140z" />
    <glyph glyph-name="lsquare" unicode="&#x2113;" horiz-adv-x="612" 
d="M291 350q13 0 23.5 3t19.5 11q9 7 16.5 20.5t12.5 32.5l51 201q5 19 5.5 34t-3.5 26q-4 10 -13.5 15.5t-24.5 5.5q-14 0 -24.5 -3.5t-19.5 -11.5q-10 -8 -17.5 -21.5t-12.5 -34.5l-51 -204q-5 -18 -5 -32t4 -23q5 -10 14.5 -14.5t24.5 -4.5zM411 36q-24 -10 -47.5 -18
t-46.5 -14q-23 -5 -45.5 -8t-44.5 -3q-48 0 -84.5 14.5t-59.5 43.5q-23 28 -28.5 70t8.5 95l104 424q12 43 34.5 75.5t53.5 53.5t67.5 31t77.5 10q50 0 85 -11.5t54 -34.5q20 -23 24.5 -57t-7.5 -79l-55 -221q-10 -40 -29.5 -69.5t-46.5 -49.5q-27 -19 -59 -28.5t-67 -9.5
q-13 0 -24.5 1.5t-22.5 4.5q-10 4 -18.5 8.5t-15.5 10.5l-14 -56q-7 -27 -5 -48t11 -35t24.5 -21t36.5 -7q15 0 33 2.5t36 7.5q20 6 41 13.5t42 17.5z" />
    <glyph glyph-name="numero" unicode="&#x2116;" horiz-adv-x="1173" 
d="M855 297q-84 0 -134.5 52.5t-39.5 159.5l9 85q12 109 73.5 162.5t145.5 53.5t134 -53.5t38 -162.5l-9 -85q-11 -107 -72 -159.5t-145 -52.5zM866 399q37 0 55.5 25.5t24.5 83.5l10 91q6 55 -7.5 82t-50.5 27t-56 -27.5t-25 -82.5l-10 -90q-6 -58 8 -83.5t51 -25.5z
M254 597l-63 -597h-121l84 800h172l115 -641l67 641h121l-84 -800h-182z" />
    <glyph glyph-name="periodcentered" unicode="&#x2219;" horiz-adv-x="604" 
d="M290 274q-52 0 -81.5 25t-24.5 75l5 49q6 50 40.5 76t86.5 26q51 0 80 -26t23 -76l-5 -49q-5 -50 -39.5 -75t-84.5 -25z" />
    <glyph glyph-name="periodcentered" unicode="&#xb7;" horiz-adv-x="604" 
d="M290 274q-52 0 -81.5 25t-24.5 75l5 49q6 50 40.5 76t86.5 26q51 0 80 -26t23 -76l-5 -49q-5 -50 -39.5 -75t-84.5 -25z" />
    <glyph glyph-name="bullet" unicode="&#x2022;" horiz-adv-x="771" 
d="M369 236q-62 0 -98 30.5t-29 95.5l8 72q7 66 49 97.5t104 31.5q63 0 98.5 -31.5t28.5 -97.5l-8 -72q-7 -65 -49.5 -95.5t-103.5 -30.5z" />
    <glyph glyph-name="anoteleia" unicode="&#x387;" horiz-adv-x="604" 
d="M290 274q-52 0 -81.5 25t-24.5 75l5 49q6 50 40.5 76t86.5 26q51 0 80 -26t23 -76l-5 -49q-5 -50 -39.5 -75t-84.5 -25z" />
    <glyph glyph-name="underscoredbl" unicode="&#x2017;" horiz-adv-x="771" 
d="M30 0l13 124h585l-13 -124h-585zM30 -235l13 124h585l-13 -124h-585z" />
    <glyph glyph-name="minute" unicode="&#x2032;" horiz-adv-x="604" 
d="M151 383l127 417h214l-246 -417h-95z" />
    <glyph glyph-name="second" unicode="&#x2033;" horiz-adv-x="922" 
d="M461 383l127 417h212l-247 -417h-92zM160 383l127 417h211l-247 -417h-91z" />
    <glyph glyph-name="overline" unicode="&#x203e;" horiz-adv-x="771" 
d="M30 876l13 124h585l-13 -124h-585z" />
    <glyph glyph-name="plus" unicode="+" horiz-adv-x="771" 
d="M284 0l30 290h-233l13 120h233l31 290h119l-31 -290h233l-13 -120h-233l-30 -290h-119z" />
    <glyph glyph-name="minus" unicode="&#x2212;" horiz-adv-x="771" 
d="M81 290l13 120h585l-13 -120h-585z" />
    <glyph glyph-name="plusminus" unicode="&#xb1;" horiz-adv-x="771" 
d="M284 100l30 290h-233l13 120h233l31 290h119l-31 -290h233l-13 -120h-233l-30 -290h-119zM81 0l13 120h585l-13 -120h-585z" />
    <glyph glyph-name="divide" unicode="&#xf7;" horiz-adv-x="771" 
d="M399 521q-37 0 -58 16.5t-17 51.5l2 19q4 36 28 53.5t61 17.5q36 0 57 -17.5t17 -53.5l-2 -19q-4 -35 -28 -51.5t-60 -16.5zM82 294l12 112h585l-12 -112h-585zM346 21q-37 0 -57.5 16.5t-17.5 51.5l2 19q4 36 28.5 53.5t61.5 17.5q36 0 56.5 -17.5t16.5 -53.5l-2 -19
q-3 -35 -27.5 -51.5t-60.5 -16.5z" />
    <glyph glyph-name="multiply" unicode="&#xd7;" horiz-adv-x="771" 
d="M153 25l-69 73l227 252l-174 252l84 74l168 -245l220 242l67 -74l-226 -249l174 -249l-84 -73l-168 242z" />
    <glyph glyph-name="equal" unicode="=" horiz-adv-x="771" 
d="M97 438l13 119h585l-13 -119h-585zM66 143l13 119h585l-13 -119h-585z" />
    <glyph glyph-name="less" unicode="&#x3c;" horiz-adv-x="771" 
d="M594 0l-471 282l14 136l531 282l-13 -116l-437 -234l388 -234z" />
    <glyph glyph-name="greater" unicode="&#x3e;" horiz-adv-x="771" 
d="M93 0l12 112l446 238l-396 238l12 112l471 -282l-14 -136z" />
    <glyph glyph-name="lessequal" unicode="&#x2264;" horiz-adv-x="771" 
d="M615 200l-477 232l15 136l525 232l-12 -116l-412 -184l373 -184zM93 0l11 106h501l-11 -106h-501z" />
    <glyph glyph-name="greaterequal" unicode="&#x2265;" horiz-adv-x="771" 
d="M114 200l12 116l414 184l-375 184l12 116l477 -232l-15 -136zM594 0h-501l11 106h501z" />
    <glyph glyph-name="approxequal" unicode="&#x2248;" horiz-adv-x="771" 
d="M518 387q-28 0 -50 6.5t-38 20.5q-18 13 -32.5 34t-28.5 51q-16 36 -26.5 56.5t-21.5 32.5q-10 13 -22 18t-28 5q-15 0 -27 -6.5t-22 -20.5q-9 -14 -16 -36.5t-10 -54.5l-9 -86h-110l9 92q6 53 23 94.5t43 69.5t60.5 42.5t74.5 14.5q28 0 49.5 -6.5t39.5 -19.5
q16 -14 30.5 -34.5t28.5 -50.5q16 -36 27 -57t22 -33q9 -12 21 -17.5t28 -5.5q15 0 27 6.5t22 20.5q9 14 16 37t11 55l9 85h109l-10 -92q-6 -53 -22.5 -94.5t-42.5 -69.5t-60 -42.5t-74 -14.5zM474 -13q-27 0 -49 6.5t-39 20.5q-17 13 -31 34t-28 51q-16 36 -27 56.5
t-20 33.5q-11 12 -23 17t-28 5q-15 0 -27 -6.5t-22 -20.5q-9 -14 -16 -36.5t-10 -54.5l-9 -86h-110l9 92q6 53 23 94.5t43 69.5t60.5 42.5t74.5 14.5q28 0 49.5 -6.5t39.5 -19.5q16 -14 30.5 -34.5t28.5 -50.5q16 -36 27 -57t22 -33q9 -12 21 -17.5t28 -5.5q15 0 27 6.5
t22 20.5q9 14 16 37t11 55l9 85h109l-10 -92q-6 -53 -22.5 -94.5t-42.5 -69.5t-60.5 -42.5t-75.5 -14.5z" />
    <glyph glyph-name="notequal" unicode="&#x2260;" horiz-adv-x="771" 
d="M655 182h-285l-57 -182h-106l57 182h-194l12 117h219l64 203h-261l12 116h285l57 182h106l-57 -182h194l-12 -116h-218l-64 -203h260z" />
    <glyph glyph-name="logicalnot" unicode="&#xac;" horiz-adv-x="771" 
d="M518 0l31 291h-467l12 119h585l-43 -410h-118z" />
    <glyph glyph-name="uni23af" unicode="&#x23af;" horiz-adv-x="849" 
d="M-145 333v134h1139v-134h-1139z" />
    <glyph glyph-name="arrowleft" unicode="&#x2190;" horiz-adv-x="1014" 
d="M478 58l-333 332v20l333 332h17v-275h375v-134h-375v-275h-17z" />
    <glyph glyph-name="arrowup" unicode="&#x2191;" horiz-adv-x="771" 
d="M315 -17v450h-229v20l291 364h17l291 -364v-20h-229v-450h-141z" />
    <glyph glyph-name="arrowright" unicode="&#x2192;" horiz-adv-x="1014" 
d="M521 58v275h-376v134h376v275h17l332 -332v-20l-332 -332h-17z" />
    <glyph glyph-name="arrowdown" unicode="&#x2193;" horiz-adv-x="771" 
d="M377 -26l-291 365v20h229v450h141v-450h229v-20l-291 -365h-17z" />
    <glyph glyph-name="arrowboth" unicode="&#x2194;" horiz-adv-x="1181" 
d="M466 333v-275h-17l-304 332v20l304 332h17v-275h251v275h16l304 -332v-20l-304 -332h-16v275h-251z" />
    <glyph glyph-name="partialdiff" unicode="&#x2202;" 
d="M291 -10q-55 0 -97 14t-69 43t-37 72.5t-1 101.5l9 64q7 48 26.5 86.5t49.5 66.5q29 27 66.5 41.5t79.5 14.5q26 0 47 -5.5t37 -15.5t26 -23.5t14 -28.5h18q5 61 -4.5 105.5t-36.5 78.5t-73.5 61t-118.5 50l99 96q86 -28 142 -66.5t87 -91.5q30 -52 37.5 -122t-6.5 -163
l-22 -142q-10 -61 -33.5 -106t-58.5 -74t-80.5 -43t-100.5 -14zM308 96q26 0 45 7.5t33 21.5q13 15 21 37t13 53l11 63q4 28 1.5 48t-11.5 34q-10 14 -27.5 20.5t-43.5 6.5t-45.5 -6.5t-32.5 -20.5q-14 -13 -22 -33.5t-12 -48.5l-11 -63q-5 -31 -2.5 -53t11.5 -36
q10 -15 27.5 -22.5t44.5 -7.5z" />
    <glyph glyph-name="Delta#1" unicode="&#x2206;" horiz-adv-x="688" 
d="M-4 0l12 111l285 689h190l137 -689l-12 -111h-612zM482 111l-110 583l-239 -583h349z" />
    <glyph glyph-name="product" unicode="&#x220f;" horiz-adv-x="763" 
d="M39 -200l105 1000h558l-105 -1000h-140l93 889h-277l-93 -889h-141z" />
    <glyph glyph-name="summation" unicode="&#x2211;" 
d="M544 -89l-12 -111h-516l12 111l364 400l-283 378l12 111h516l-12 -111h-378l246 -327l-10 -92l-324 -359h385z" />
    <glyph glyph-name="mu1" unicode="&#xb5;" horiz-adv-x="763" 
d="M203 20l-15 -220h-157l31 220l61 580h141l-42 -400q-5 -51 17.5 -72.5t58.5 -21.5q34 0 62.5 13.5t50.5 44.5l46 436h141l-45 -429q-5 -47 18 -60.5t75 -4.5l-11 -106q-73 -14 -117 4.5t-55 81.5h-22q-22 -40 -59 -68t-87 -28q-29 0 -52 12.5t-38 37.5z" />
    <glyph glyph-name="radical" unicode="&#x221a;" 
d="M259 0l-90 384l-111 -20l11 106l190 30l80 -396l229 796h127l-274 -900h-162z" />
    <glyph glyph-name="infinity" unicode="&#x221e;" horiz-adv-x="855" 
d="M224 110q-37 0 -67 19.5t-51 57.5q-20 37 -28.5 91.5t-1.5 121.5q7 68 27.5 122t50.5 92q30 37 67 56.5t77 19.5q33 0 58.5 -12t44.5 -34q18 -22 32 -52.5t24 -69.5q20 40 39.5 70t41.5 52q21 22 46 34t52 12q35 0 64.5 -19.5t49.5 -57.5q21 -37 28.5 -91t0.5 -121
q-7 -68 -27 -122.5t-51 -92.5q-30 -37 -68 -56.5t-79 -19.5q-32 0 -57 11.5t-44 33.5q-18 22 -31.5 52t-23.5 69q-19 -39 -38.5 -69t-41.5 -52q-21 -22 -44.5 -33.5t-49.5 -11.5zM568 219q16 0 30.5 10t26.5 32q13 21 22 56t14 83q4 49 2.5 84t-9.5 56t-20 31t-28 10
q-17 0 -33.5 -11.5t-31.5 -31.5q-16 -21 -30.5 -47.5t-31.5 -61.5q10 -59 17 -93.5t16 -61.5q9 -26 22.5 -40.5t33.5 -14.5zM249 219q17 0 33.5 11.5t32.5 31.5q15 20 29 46t31 61q-10 60 -17 94.5t-16 61.5t-22.5 41.5t-32.5 14.5q-16 0 -30.5 -10t-26.5 -32
q-13 -21 -22 -56t-14 -83q-4 -49 -2 -84t9 -56q8 -21 20 -31t28 -10z" />
    <glyph glyph-name="orthogonal" unicode="&#x221f;" horiz-adv-x="696" 
d="M61 0l74 700h140l-62 -586h373l-12 -114h-513z" />
    <glyph glyph-name="intersection" unicode="&#x2229;" horiz-adv-x="847" 
d="M115 0l47 445q7 65 31 115t63 83t90 50t112 17q60 0 107.5 -17t79.5 -50q31 -33 45 -83t7 -115l-47 -445h-141l46 440q5 42 1 72t-17 49q-14 19 -37 28.5t-57 9.5t-59 -9.5t-43 -28.5q-17 -20 -27 -50t-15 -72l-46 -439h-140z" />
    <glyph glyph-name="integral" unicode="&#x222b;" 
d="M146 -206q-15 0 -30 1.5t-31 4.5q-15 3 -29 7.5t-27 10.5l27 100q12 -5 23 -9t22 -6q10 -3 20 -4t19 -1q21 0 36.5 7.5t25.5 22.5q12 15 18.5 39t10.5 59l61 585q5 49 24 88.5t48 65.5q30 27 68 41t82 14q16 0 31.5 -1.5t30.5 -4.5t29 -7.5t28 -10.5l-28 -99
q-11 5 -22 8.5t-22 5.5q-10 3 -20.5 4t-19.5 1q-21 0 -36 -7.5t-26 -22.5t-18 -39t-10 -59l-62 -584q-5 -49 -23.5 -88.5t-48.5 -66.5t-68.5 -41t-82.5 -14z" />
    <glyph glyph-name="equivalence" unicode="&#x2261;" horiz-adv-x="771" 
d="M104 508l13 120h585l-13 -120h-585zM81 287l13 119h585l-13 -119h-585zM58 65l12 120h585l-12 -120h-585z" />
    <glyph glyph-name="integralbt" unicode="&#x2321;" horiz-adv-x="604" 
d="M137 -206q-14 0 -29 1.5t-31 4.5t-30.5 7.5t-27.5 10.5l27 100q12 -5 23 -9t22 -6q10 -3 20 -4t19 -1q21 0 36 7.5t27 23.5q10 16 17.5 41.5t10.5 62.5l81 767h141l-83 -790q-5 -51 -24.5 -91.5t-49.5 -67.5q-30 -28 -68 -42.5t-81 -14.5z" />
    <glyph glyph-name="dollar" unicode="$" 
d="M241 569q-4 -35 11.5 -56.5t59.5 -38.5l18 177q-42 -4 -63.5 -23.5t-25.5 -58.5zM451 235q3 34 -14 56t-67 40l-20 -188q46 3 71 25.5t30 66.5zM339 -50h-90l10 95q-63 6 -114 25.5t-87 50.5l42 98q39 -31 82 -49.5t95 -24.5l22 206q-112 28 -154 73.5t-33 131.5
q10 87 66 137.5t155 60.5l10 96h90l-10 -96q51 -5 96 -21.5t75 -40.5l-37 -98q-37 25 -74 39t-80 18l-20 -198q117 -31 161 -77.5t35 -130.5q-9 -88 -70 -140.5t-160 -60.5z" />
    <glyph glyph-name="cent" unicode="&#xa2;" 
d="M230 321q-6 -58 7 -87.5t52 -36.5l42 406q-38 -7 -58.5 -36.5t-26.5 -87.5zM251 -50l15 143q-96 11 -138.5 71t-32.5 163l16 150q11 102 67.5 160.5t151.5 69.5l15 143h90l-15 -142q89 -10 127.5 -64t38.5 -153l-130 -10q2 59 -11.5 86t-46.5 34l-42 -403q36 6 53.5 30
t27.5 81l128 -10q-16 -96 -62.5 -147.5t-146.5 -59.5l-15 -142h-90z" />
    <glyph glyph-name="sterling" unicode="&#xa3;" horiz-adv-x="763" 
d="M666 238q-20 -121 -82.5 -184.5t-158.5 -63.5q-40 0 -75.5 18l-67.5 35q-33 16 -62 22.5t-60 -14.5l-83 -60l-51 90l87 55q33 22 59.5 67.5t31.5 90.5q3 25 1 44.5t-8 36.5h-120l10 93h75q-8 23 -13 51t-1 64q11 103 85.5 165t196.5 62q137 0 193.5 -60t49.5 -182
l-141 -10q2 69 -20.5 101t-93.5 32q-62 0 -92.5 -30.5t-35.5 -79.5q-3 -33 4.5 -60t17.5 -53h154l-10 -93h-113q4 -16 5 -34t-1 -39q-4 -36 -34 -72.5t-90 -71.5l10 -25q36 22 64 21.5t51 -9.5t44.5 -20.5t45.5 -11.5q41 0 58.5 31.5t30.5 103.5z" />
    <glyph glyph-name="currency" unicode="&#xa4;" horiz-adv-x="771" 
d="M365 201q46 0 71 25.5t32 83.5l18 176q6 58 -13.5 85.5t-65.5 27.5t-72 -27.5t-32 -85.5l-18 -176q-7 -58 13.5 -83.5t66.5 -25.5zM353 90q-48 0 -86 12.5t-63 37.5l-97 -103l-57 67l109 118q-4 19 -4.5 41t2.5 47l18 176q3 26 8.5 49t14.5 43l-87 120l71 66l77 -105
q31 25 72 38t88 13q48 0 86 -13t63 -39l98 103l57 -67l-111 -118q4 -19 5 -42t-2 -48l-18 -176q-3 -23 -8 -44t-12 -39l83 -120l-71 -66l-74 100q-31 -25 -72.5 -38t-89.5 -13z" />
    <glyph glyph-name="yen" unicode="&#xa5;" horiz-adv-x="688" 
d="M550 100h-167l-11 -100h-140l11 100h-167l9 93h167l12 107h-167l9 93h122l-154 407h148l125 -397l209 397h141l-239 -407h122l-9 -93h-167l-12 -107h167z" />
    <glyph glyph-name="franc" unicode="&#x20a3;" 
d="M359 172h-139l-18 -172h-141l18 172h-83l11 101h83l55 527h492l-12 -111h-351l-18 -179h292l-12 -110h-292l-13 -127h139z" />
    <glyph glyph-name="lira" unicode="&#x20a4;" horiz-adv-x="763" 
d="M666 238q-9 -60 -30 -106.5t-51 -78.5q-32 -31 -72 -47t-88 -16q-19 0 -37.5 4.5t-35.5 12.5q-9 4 -26.5 13l-43.5 23q-19 9 -33.5 15t-29.5 8t-30 -1.5t-29 -13.5l-83 -60l-51 90l87 55q15 10 30.5 27t27.5 37q12 21 20.5 43.5t11.5 44.5h-135l9 87h118q-1 5 -3 10.5
t-3 10.5q-2 5 -4.5 12t-4.5 11q-2 6 -6.5 17.5t-5.5 15.5q-2 4 -4.5 11.5t-5.5 14.5h-70l9 87h50q1 3 0.5 5.5t-0.5 4.5q1 3 1 5.5t1 6.5q5 50 27 91t58 71q36 29 86 45t110 16q69 0 117 -15t77 -45t40.5 -75t8.5 -107l-141 -10q1 37 -3.5 61.5t-17.5 40.5
q-12 16 -34.5 23.5t-58.5 7.5q-30 0 -53.5 -7.5t-39.5 -22.5q-15 -14 -23.5 -34.5t-11.5 -45.5q0 -3 -0.5 -5t-0.5 -4q0 -1 0.5 -3t-0.5 -4h176l-9 -87h-149q2 -3 3 -6.5t2 -6.5q2 -3 3 -6.5t3 -6.5q7 -18 8.5 -23.5t6.5 -14.5q3 -9 5.5 -19t4.5 -20h102l-9 -87h-92
q-4 -17 -13 -33.5t-25 -32.5q-14 -16 -35 -32t-48 -32l10 -25q18 10 33.5 15.5t29.5 5.5q14 1 27 -1.5t25 -7.5q9 -3 24.5 -11t24.5 -11q8 -4 19 -7t22 -3q21 0 34.5 7.5t23.5 23.5t17 40.5t14 63.5z" />
    <glyph glyph-name="peseta" unicode="&#x20a7;" horiz-adv-x="1022" 
d="M183 375h58q18 0 32.5 6t24.5 20q12 14 19 36.5t11 55.5l9 85q3 33 0.5 56t-10.5 37q-8 13 -21 19.5t-31 6.5h-58zM917 158q-5 -42 -19.5 -73.5t-37.5 -52.5t-51 -31.5t-59 -10.5q-12 0 -24.5 1.5t-23.5 4.5q-12 3 -23.5 7.5t-22.5 10.5l1 -7q-4 -3 -13 -6t-22 -5
t-25.5 -3.5t-20.5 -1.5q-29 0 -52.5 11.5t-38.5 37.5q-16 25 -22 66t0 98l32 297l-62 4l-2 -21q-6 -59 -24 -100.5t-46 -65.5q-26 -24 -58.5 -34.5t-71.5 -10.5h-58l-29 -273h-103l84 800h162q37 0 66.5 -10t51.5 -33q21 -23 31.5 -62t6.5 -95h62l21 200h104l-21 -200h101
l-6 -60q11 17 24 30.5t28 22.5q16 8 32.5 12.5t33.5 4.5q16 0 31.5 -3t31.5 -10q15 -6 29 -15.5t27 -21.5l-47 -88q-10 10 -19 17t-18 12q-9 4 -18 6.5t-19 2.5q-9 0 -16.5 -3t-13.5 -10q-6 -8 -9.5 -19.5t-5.5 -28.5q-2 -20 3.5 -37t15.5 -32t5.5 -10.5t48.5 -50.5
q19 -19 32 -36t22 -35q9 -19 13 -41.5t2 -48.5zM758 90q10 0 19 3t16 10q8 7 13 19t7 29q2 16 -3.5 30.5t-15.5 27.5q-5 7 -18.5 21.5l-36.5 37.5q-18 19 -31 37.5t-22 39.5q-10 21 -13 45t-1 52q1 8 2.5 15.5t3.5 15.5q0 7 2.5 14l4.5 13h-86l-32 -297q-2 -26 -2.5 -46.5
t3.5 -33.5q2 -14 8 -21t15 -7q5 0 13 1.5l18 3.5q8 2 15 4t9 4l2 -15l18 35q11 -9 21.5 -16.5t23.5 -11.5q11 -5 23 -7.5t24 -2.5z" />
    <glyph glyph-name="Euro" unicode="&#x20ac;" horiz-adv-x="763" 
d="M370 -10q-140 0 -201 70.5t-48 193.5v4h-84l9 86h84l12 110h-84l9 86h84v3q13 125 89.5 196t216.5 71q130 0 189.5 -62t53.5 -187l-136 -10q1 86 -25 119t-94 33q-76 0 -112.5 -35t-46.5 -123v-5h163l-9 -86h-163l-12 -110h163l-9 -86h-163v-5q-10 -87 19.5 -121.5
t105.5 -34.5q68 0 101 32t50 116l134 -10q-20 -122 -92.5 -183.5t-203.5 -61.5z" />
    <glyph glyph-name="florin" unicode="&#x192;" 
d="M170 -6q-15 0 -30 1.5t-32 4.5q-16 3 -30.5 7.5t-27.5 10.5l27 100q12 -5 23 -9t22 -6q11 -3 20.5 -4t18.5 -1q21 0 36.5 6t25.5 18t16.5 31.5t9.5 46.5l21 203h-169l12 107h169l13 127q4 42 22 76t46 58q29 24 67 36.5t82 12.5q15 0 30.5 -1.5t31.5 -4.5t31 -7.5
t28 -10.5l-28 -99q-11 5 -22 8.5t-22 5.5q-11 3 -21 4t-19 1q-21 0 -36 -6t-25 -18q-11 -12 -17.5 -31.5t-8.5 -46.5l-11 -104h172l-12 -107h-172l-23 -225q-5 -42 -22.5 -76.5t-45.5 -58.5q-29 -24 -67 -36.5t-83 -12.5z" />
    <glyph glyph-name="asciicircum" unicode="^" horiz-adv-x="847" 
d="M588 200l-139 440l-231 -440h-136l314 600h140l188 -600h-136z" />
    <glyph glyph-name="asciitilde" unicode="~" horiz-adv-x="847" 
d="M540 206q-57 0 -94 31.5t-64 96.5q-28 66 -46.5 96t-47.5 30q-26 0 -43 -24t-23 -84l-14 -136h-124l15 142q12 113 68 174.5t143 61.5q60 0 97.5 -31t64.5 -96q27 -66 44.5 -96t43.5 -30q28 0 45 24.5t24 87.5l13 131h122l-14 -137q-13 -119 -69.5 -180t-140.5 -61z" />
    <glyph glyph-name="acute" unicode="&#xb4;" horiz-adv-x="604" 
d="M227 700l118 200h182l-201 -200h-99z" />
    <glyph glyph-name="grave" unicode="`" horiz-adv-x="604" 
d="M337 383l-159 417h215l39 -417h-95z" />
    <glyph glyph-name="hungarumlaut" unicode="&#x2dd;" horiz-adv-x="604" 
d="M375 700l62 200h145l-131 -200h-76zM183 700l62 200h145l-131 -200h-76z" />
    <glyph glyph-name="circumflex" unicode="&#x2c6;" horiz-adv-x="604" 
d="M175 700l-42 68l170 152h106l140 -152l-55 -67l-150 109z" />
    <glyph glyph-name="caron" unicode="&#x2c7;" horiz-adv-x="604" 
d="M282 704l-140 152l55 68l150 -109l169 109l42 -68l-170 -152h-106z" />
    <glyph glyph-name="breve" unicode="&#x2d8;" horiz-adv-x="604" 
d="M333 693q-104 0 -153 53.5t-38 166.5h118q-7 -71 12.5 -99t70.5 -28t75.5 28t33.5 99h118q-13 -113 -73 -166.5t-164 -53.5z" />
    <glyph glyph-name="tilde" unicode="&#x2dc;" horiz-adv-x="604" 
d="M410 710q-35 0 -55 16t-34 38l-20.5 36.5t-25.5 16.5t-28 -17.5t-16 -63.5l-1 -16h-93l1 15q9 80 47.5 131t98.5 51q34 0 54 -15.5t34 -38.5l20.5 -37t23.5 -17q16 0 28 18t17 64l1 16h93l-1 -15q-9 -81 -47 -131.5t-97 -50.5z" />
    <glyph glyph-name="macron" unicode="&#x2c9;" horiz-adv-x="604" 
d="M157 745l12 110h362l-12 -110h-362z" />
    <glyph glyph-name="macron" unicode="&#xaf;" horiz-adv-x="604" 
d="M157 745l12 110h362l-12 -110h-362z" />
    <glyph glyph-name="dieresis" unicode="&#xa8;" horiz-adv-x="604" 
d="M229 703q-32 0 -51 13.5t-15 50.5l1 10q4 37 26 51.5t54 14.5q33 0 51.5 -14.5t14.5 -51.5l-1 -10q-4 -37 -26 -50.5t-54 -13.5zM439 703q-33 0 -51.5 13.5t-14.5 50.5l1 10q4 37 25.5 51.5t54.5 14.5q32 0 51 -14.5t15 -51.5l-1 -10q-4 -37 -26.5 -50.5t-53.5 -13.5z
" />
    <glyph glyph-name="dotaccent" unicode="&#x2d9;" horiz-adv-x="604" 
d="M334 703q-43 0 -68 13.5t-21 50.5l1 10q4 37 32 51.5t71 14.5t68 -14.5t21 -51.5l-1 -10q-4 -37 -32.5 -50.5t-70.5 -13.5z" />
    <glyph glyph-name="ring" unicode="&#x2da;" horiz-adv-x="604" 
d="M332 682q-72 0 -113.5 36t-33.5 112l4 32q8 77 56.5 114t120.5 37q73 0 114 -37t33 -114l-4 -32q-8 -76 -56.5 -112t-120.5 -36zM340 759q31 0 48.5 16.5t21.5 54.5l4 32q3 37 -11 55.5t-45 18.5t-49 -18.5t-21 -55.5l-4 -32q-4 -38 10.5 -54.5t45.5 -16.5z" />
    <glyph glyph-name="cedilla" unicode="&#xb8;" horiz-adv-x="604" 
d="M235 0l20 42q67 -9 102 -40.5t29 -91.5q-7 -66 -57.5 -97.5t-118.5 -31.5q-74 0 -115.5 28t-39.5 88l120 10q-1 -19 8 -26.5t31 -7.5q24 0 36.5 11.5t16.5 45.5q3 32 -4 47t-28 23z" />
    <glyph glyph-name="ogonek" unicode="&#x2db;" horiz-adv-x="604" 
d="M261 -218q-66 0 -101 32t-29 90q5 52 47 93.5t94 59.5l18 -34q-28 -19 -39 -41.5t-14 -44.5q-2 -27 12 -40.5t45 -13.5q15 0 35.5 3t43.5 7l-11 -100q-25 -5 -52 -8t-49 -3z" />
    <glyph glyph-name="tonos" unicode="&#x384;" horiz-adv-x="604" 
d="M261 700l67 200h174l-151 -200h-90z" />
    <glyph glyph-name="dieresistonos" unicode="&#x385;" horiz-adv-x="604" 
d="M266 700l60 200h128l-108 -200h-80zM158 697q-28 0 -44.5 13.5t-12.5 49.5l1 10q4 37 23.5 51.5t47.5 14.5q29 0 45.5 -14.5t12.5 -51.5l-1 -10q-4 -36 -24 -49.5t-48 -13.5zM508 697q-29 0 -45.5 13.5t-12.5 49.5l1 10q4 37 23.5 51.5t48.5 14.5t45 -14.5t12 -51.5
l-1 -10q-4 -36 -23.5 -49.5t-47.5 -13.5z" />
    <glyph glyph-name="copyright" unicode="&#xa9;" horiz-adv-x="1097" 
d="M549 -110q-187 0 -276.5 93t-89.5 281v208q0 190 89.5 284t276.5 94t276 -94t89 -284v-208q0 -188 -89 -281t-276 -93zM549 -48q165 0 232.5 77t67.5 248v182q0 172 -67.5 250.5t-232.5 78.5t-233 -78.5t-68 -250.5v-182q0 -171 68 -248t233 -77zM551 97q-106 0 -152 53
t-46 154v135q0 99 46.5 151.5t151.5 52.5q99 0 147 -48t55 -149l-122 -6q-3 66 -19.5 87.5t-56.5 21.5t-58 -24.5t-18 -82.5v-144q0 -58 18.5 -82.5t58.5 -24.5q39 0 55.5 19.5t19.5 80.5l122 -6q-6 -98 -54.5 -143t-147.5 -45z" />
    <glyph glyph-name="registered" unicode="&#xae;" horiz-adv-x="839" 
d="M420 136q-143 0 -211 68t-68 204v173q0 139 68.5 209t211.5 70q142 0 210 -70t68 -209v-173q0 -136 -68 -204t-211 -68zM420 189q119 0 170 54.5t51 170.5v160q0 120 -51 176.5t-170 56.5q-120 0 -171 -56.5t-51 -176.5v-160q0 -116 51 -170.5t171 -54.5zM380 502h62
q14 0 26.5 7t12.5 32v28q0 28 -12.5 38.5t-26.5 10.5h-62v-116zM380 316h-85v365h155q46 0 81.5 -26t35.5 -86v-28q0 -39 -17.5 -59.5t-42.5 -29.5l75 -136h-93l-71 127h-38v-127z" />
    <glyph glyph-name="trademark" unicode="&#x2122;" horiz-adv-x="1264" 
d="M305 344v375h-144v81h378v-81h-134v-375h-100zM709 653v-309h-93v456h121l96 -268l96 268h121v-456h-93l-2 313l-84 -226h-77z" />
    <glyph glyph-name="degree" unicode="&#xb0;" horiz-adv-x="521" 
d="M260 336q-82 0 -133 44t-51 134v110q0 92 51 137t133 45q84 0 134.5 -45t50.5 -137v-110q0 -90 -51 -134t-134 -44zM260 436q35 0 53 19.5t18 65.5v96q0 45 -18 66.5t-53 21.5t-52.5 -21.5t-17.5 -66.5v-96q0 -46 17.5 -65.5t52.5 -19.5z" />
    <glyph glyph-name="careof" unicode="&#x2105;" horiz-adv-x="1089" 
d="M230 0l501 800h130l-502 -800h-129zM349 534l119 -14q-5 -35 -21 -61.5t-41 -43.5q-26 -17 -60 -25.5t-75 -8.5q-42 0 -74.5 10t-54.5 30t-31.5 50.5t-5.5 71.5l11 103q4 41 20.5 72t42.5 52q26 20 61 30t76 10t73 -8t55 -25q22 -17 32 -43t8 -61l-122 -18
q1 16 -2.5 28.5t-10.5 19.5q-7 8 -17.5 12t-24.5 4t-26.5 -4.5t-21.5 -13.5q-9 -10 -15 -24t-8 -32l-11 -101q-2 -18 1 -32t10 -23q8 -8 19.5 -12.5t25.5 -4.5t25 3.5t20 11.5q9 7 14.5 19t8.5 28zM774 -12q-41 0 -74 10t-55 30t-32 50.5t-5 71.5l11 107q4 41 20.5 72
t43.5 51q26 20 60.5 30t75.5 10q42 0 74.5 -10t54.5 -30t31.5 -51t5.5 -72l-11 -107q-5 -41 -21 -71.5t-42 -50.5t-61 -30t-76 -10zM784 81q15 0 26.5 4t20.5 13t15 22.5t8 32.5l11 101q2 18 -1 32t-11 23q-7 9 -18 13.5t-26 4.5q-14 0 -26.5 -4.5t-21.5 -13.5
q-8 -9 -14 -23t-8 -32l-11 -101q-2 -19 1 -32.5t10 -22.5t18.5 -13t26.5 -4z" />
    <glyph glyph-name="uni2117" unicode="&#x2117;" horiz-adv-x="1097" 
d="M549 -110q-187 0 -276.5 93t-89.5 281v208q0 190 89.5 284t276.5 94t276 -94t89 -284v-208q0 -188 -89 -281t-276 -93zM549 -48q160 0 230 76t70 249v182q0 175 -70 252t-230 77q-161 0 -231 -77t-70 -252v-182q0 -173 70 -249t231 -76zM381 116v516h193q89 0 140 -43
t51 -129v-38q0 -81 -51.5 -120t-139.5 -39h-66v-147h-127zM508 354h66q34 0 49.5 15.5t15.5 52.5v38q0 43 -15.5 61t-49.5 18h-66v-185z" />
    <glyph glyph-name="estimated" unicode="&#x212e;" horiz-adv-x="855" 
d="M423 -12q-150 0 -240.5 122.5t-90.5 291.5q0 171 89.5 292t244.5 121q157 0 244.5 -138t89.5 -327h-506v-210q30 -34 73 -54.5t96 -20.5q90 0 153 39.5t100 109.5l41 -60q-43 -79 -117 -122.5t-177 -43.5zM254 430h341v230q-30 31 -72 54.5t-98 23.5q-51 0 -95.5 -19.5
t-75.5 -55.5v-233z" />
    <glyph glyph-name="arrowupdn" unicode="&#x2195;" horiz-adv-x="922" 
d="M470 -117h-17l-291 347v20h230v300h-230v20l291 347h17l291 -347v-20h-229v-300h229v-20z" />
    <glyph glyph-name="arrowupdnbse" unicode="&#x21a8;" horiz-adv-x="922" 
d="M156 -220l13 120h585l-13 -120h-585zM470 -117h-17l-291 347v20h230v300h-230v20l291 347h17l291 -347v-20h-229v-300h229v-20z" />
    <glyph glyph-name="logicalnotreversed" unicode="&#x2310;" horiz-adv-x="771" 
d="M51 0l43 410h585l-12 -119h-467l-31 -291h-118z" />
    <glyph glyph-name="lighthorzbxd" unicode="&#x2500;" horiz-adv-x="1100" 
d="M-20 350h1140v-100h-1140v100z" />
    <glyph glyph-name="heavyhorzbxd" unicode="&#x2501;" horiz-adv-x="1100" 
d="M-20 400h1140v-200h-1140v200z" />
    <glyph glyph-name="lightvertbxd" unicode="&#x2502;" horiz-adv-x="1100" 
d="M500 1050h100v-1500h-100v1500z" />
    <glyph glyph-name="heavyvertbxd" unicode="&#x2503;" horiz-adv-x="1100" 
d="M450 1050h200v-1500h-200v1500z" />
    <glyph glyph-name="lighttrpldashhorzbxd" unicode="&#x2504;" horiz-adv-x="1100" 
d="M61 350h244v-100h-244v100zM427 350h244v-100h-244v100zM793 350h244v-100h-244v100z" />
    <glyph glyph-name="heavytrpldashhorzbxd" unicode="&#x2505;" horiz-adv-x="1100" 
d="M61 400h244v-200h-244v200zM427 400h244v-200h-244v200zM793 400h244v-200h-244v200z" />
    <glyph glyph-name="lighttrpldashvertbxd" unicode="&#x2506;" horiz-adv-x="1100" 
d="M500 55h100v-244h-100v244zM500 421h100v-244h-100v244zM500 787h100v-244h-100v244zM500 1153h100v-244h-100v244z" />
    <glyph glyph-name="heavytrpldashvertbxd" unicode="&#x2507;" horiz-adv-x="1100" 
d="M450 55h200v-244h-200v244zM450 421h200v-244h-200v244zM450 787h200v-244h-200v244zM450 1153h200v-244h-200v244z" />
    <glyph glyph-name="lightquaddashhorzbxd" unicode="&#x2508;" horiz-adv-x="1100" 
d="M34 350h207v-100h-207v100zM309 350h207v-100h-207v100zM584 350h207v-100h-207v100zM859 350h207v-100h-207v100z" />
    <glyph glyph-name="heavyquaddashhorzbxd" unicode="&#x2509;" horiz-adv-x="1100" 
d="M34 400h207v-200h-207v200zM309 400h207v-200h-207v200zM584 400h207v-200h-207v200zM859 400h207v-200h-207v200z" />
    <glyph glyph-name="lightquaddashvertbxd" unicode="&#x250a;" horiz-adv-x="1100" 
d="M500 -9h100v-207h-100v207zM500 266h100v-207h-100v207zM500 541h100v-207h-100v207zM500 816h100v-207h-100v207z" />
    <glyph glyph-name="heavyquaddashvertbxd" unicode="&#x250b;" horiz-adv-x="1100" 
d="M450 -9h200v-207h-200v207zM450 266h200v-207h-200v207zM450 541h200v-207h-200v207zM450 816h200v-207h-200v207z" />
    <glyph glyph-name="lightdnrightbxd" unicode="&#x250c;" horiz-adv-x="1100" 
d="M500 350h620v-100h-520v-700h-100v800z" />
    <glyph glyph-name="dnlightrightheavybxd" unicode="&#x250d;" horiz-adv-x="1100" 
d="M500 400h620v-200h-520v-650h-100v850z" />
    <glyph glyph-name="dnheavyrightlightbxd" unicode="&#x250e;" horiz-adv-x="1100" 
d="M450 350h670v-100h-470v-700h-200v800z" />
    <glyph glyph-name="heavydnrightbxd" unicode="&#x250f;" horiz-adv-x="1100" 
d="M450 400h670v-200h-470v-650h-200v850z" />
    <glyph glyph-name="lightdnleftbxd" unicode="&#x2510;" horiz-adv-x="1100" 
d="M-20 350h620v-800h-100v700h-520v100z" />
    <glyph glyph-name="dnlightleftheavybxd" unicode="&#x2511;" horiz-adv-x="1100" 
d="M-20 400h620v-850h-100v650h-520v200z" />
    <glyph glyph-name="dnheavyleftlightbxd" unicode="&#x2512;" horiz-adv-x="1100" 
d="M-20 350h670v-800h-200v700h-470v100z" />
    <glyph glyph-name="heavydnleftbxd" unicode="&#x2513;" horiz-adv-x="1100" 
d="M-20 400h670v-850h-200v650h-470v200z" />
    <glyph glyph-name="lightuprightbxd" unicode="&#x2514;" horiz-adv-x="1100" 
d="M500 1050h100v-700h520v-100h-620v800z" />
    <glyph glyph-name="uplightrightheavybxd" unicode="&#x2515;" horiz-adv-x="1100" 
d="M500 1050h100v-650h520v-200h-620v850z" />
    <glyph glyph-name="upheavyrightlightbxd" unicode="&#x2516;" horiz-adv-x="1100" 
d="M450 1050h200v-700h470v-100h-670v800z" />
    <glyph glyph-name="heavyuprightbxd" unicode="&#x2517;" horiz-adv-x="1100" 
d="M450 1050h200v-650h470v-200h-670v850z" />
    <glyph glyph-name="lightupleftbxd" unicode="&#x2518;" horiz-adv-x="1100" 
d="M-20 350h520v700h100v-800h-620v100z" />
    <glyph glyph-name="uplightleftheavybxd" unicode="&#x2519;" horiz-adv-x="1100" 
d="M-20 400h520v650h100v-850h-620v200z" />
    <glyph glyph-name="upheavyleftlightbxd" unicode="&#x251a;" horiz-adv-x="1100" 
d="M-20 350h470v700h200v-800h-670v100z" />
    <glyph glyph-name="heavyupleftbxd" unicode="&#x251b;" horiz-adv-x="1100" 
d="M-20 400h470v650h200v-850h-670v200z" />
    <glyph glyph-name="lightvertrightbxd" unicode="&#x251c;" horiz-adv-x="1100" 
d="M500 1050h100v-700h520v-100h-520v-700h-100v1500z" />
    <glyph glyph-name="vertlightrightheavybxd" unicode="&#x251d;" horiz-adv-x="1100" 
d="M500 1050h100v-650h520v-200h-520v-650h-100v1500z" />
    <glyph glyph-name="upheavyrightdnlightbxd" unicode="&#x251e;" horiz-adv-x="1100" 
d="M450 1050h200v-700h470v-100h-520v-700h-100v700h-50v800z" />
    <glyph glyph-name="dnheavyrightuplightbxd" unicode="&#x251f;" horiz-adv-x="1100" 
d="M450 350h50v700h100v-700h520v-100h-470v-700h-200v800z" />
    <glyph glyph-name="vertheavyrightlightbxd" unicode="&#x2520;" horiz-adv-x="1100" 
d="M450 1050h200v-700h470v-100h-470v-700h-200v1500z" />
    <glyph glyph-name="dnlightrightupheavybxd" unicode="&#x2521;" horiz-adv-x="1100" 
d="M450 1050h200v-650h470v-200h-520v-650h-100v650h-50v850z" />
    <glyph glyph-name="uplightrightdnheavybxd" unicode="&#x2522;" horiz-adv-x="1100" 
d="M450 400h50v650h100v-650h520v-200h-470v-650h-200v850z" />
    <glyph glyph-name="heavyvertrightbxd" unicode="&#x2523;" horiz-adv-x="1100" 
d="M450 1050h200v-650h470v-200h-470v-650h-200v1500z" />
    <glyph glyph-name="lightvertleftbxd" unicode="&#x2524;" horiz-adv-x="1100" 
d="M-20 350h520v700h100v-1500h-100v700h-520v100z" />
    <glyph glyph-name="vertlightleftheavybxd" unicode="&#x2525;" horiz-adv-x="1100" 
d="M-20 400h520v650h100v-1500h-100v650h-520v200z" />
    <glyph glyph-name="upheavyleftdnlightbxd" unicode="&#x2526;" horiz-adv-x="1100" 
d="M-20 350h470v700h200v-800h-50v-700h-100v700h-520v100z" />
    <glyph glyph-name="dnheavyleftuplightbxd" unicode="&#x2527;" horiz-adv-x="1100" 
d="M-20 350h520v700h100v-700h50v-800h-200v700h-470v100z" />
    <glyph glyph-name="vertheavyleftlightbxd" unicode="&#x2528;" horiz-adv-x="1100" 
d="M-20 350h470v700h200v-1500h-200v700h-470v100z" />
    <glyph glyph-name="dnlightleftupheavybxd" unicode="&#x2529;" horiz-adv-x="1100" 
d="M-20 400h470v650h200v-850h-50v-650h-100v650h-520v200z" />
    <glyph glyph-name="uplightleftdnheavybxd" unicode="&#x252a;" horiz-adv-x="1100" 
d="M-20 400h520v650h100v-650h50v-850h-200v650h-470v200z" />
    <glyph glyph-name="heavyvertleftbxd" unicode="&#x252b;" horiz-adv-x="1100" 
d="M-20 400h470v650h200v-1500h-200v650h-470v200z" />
    <glyph glyph-name="lightdnhorzbxd" unicode="&#x252c;" horiz-adv-x="1100" 
d="M-20 350h1140v-100h-520v-700h-100v700h-520v100z" />
    <glyph glyph-name="leftheavyrightdnlightbxd" unicode="&#x252d;" horiz-adv-x="1100" 
d="M-20 400h620v-50h520v-100h-520v-700h-100v650h-520v200z" />
    <glyph glyph-name="rightheavyleftdnlightbxd" unicode="&#x252e;" horiz-adv-x="1100" 
d="M-20 350h520v50h620v-200h-520v-650h-100v700h-520v100z" />
    <glyph glyph-name="dnlighthorzheavybxd" unicode="&#x252f;" horiz-adv-x="1100" 
d="M-20 400h1140v-200h-520v-650h-100v650h-520v200z" />
    <glyph glyph-name="dnheavyhorzlightbxd" unicode="&#x2530;" horiz-adv-x="1100" 
d="M-20 350h1140v-100h-470v-700h-200v700h-470v100z" />
    <glyph glyph-name="rightlightleftdnheavybxd" unicode="&#x2531;" horiz-adv-x="1100" 
d="M-20 400h670v-50h470v-100h-470v-700h-200v650h-470v200z" />
    <glyph glyph-name="leftlightrightdnheavybxd" unicode="&#x2532;" horiz-adv-x="1100" 
d="M-20 350h470v50h670v-200h-470v-650h-200v700h-470v100z" />
    <glyph glyph-name="heavydnhorzbxd" unicode="&#x2533;" horiz-adv-x="1100" 
d="M-20 400h1140v-200h-470v-650h-200v650h-470v200z" />
    <glyph glyph-name="lightuphorzbxd" unicode="&#x2534;" horiz-adv-x="1100" 
d="M-20 350h520v700h100v-700h520v-100h-1140v100z" />
    <glyph glyph-name="leftheavyrightuplightbxd" unicode="&#x2535;" horiz-adv-x="1100" 
d="M-20 400h520v650h100v-700h520v-100h-520v-50h-620v200z" />
    <glyph glyph-name="rightheavyleftuplightbxd" unicode="&#x2536;" horiz-adv-x="1100" 
d="M-20 350h520v700h100v-650h520v-200h-620v50h-520v100z" />
    <glyph glyph-name="uplighthorzheavybxd" unicode="&#x2537;" horiz-adv-x="1100" 
d="M-20 400h520v650h100v-650h520v-200h-1140v200z" />
    <glyph glyph-name="upheavyhorzlightbxd" unicode="&#x2538;" horiz-adv-x="1100" 
d="M-20 350h470v700h200v-700h470v-100h-1140v100z" />
    <glyph glyph-name="rightlightleftupheavybxd" unicode="&#x2539;" horiz-adv-x="1100" 
d="M-20 400h470v650h200v-700h470v-100h-470v-50h-670v200z" />
    <glyph glyph-name="leftlightrightupheavybxd" unicode="&#x253a;" horiz-adv-x="1100" 
d="M-20 350h470v700h200v-650h470v-200h-670v50h-470v100z" />
    <glyph glyph-name="heavyuphorzbxd" unicode="&#x253b;" horiz-adv-x="1100" 
d="M-20 400h470v650h200v-650h470v-200h-1140v200z" />
    <glyph glyph-name="lightverthorzbxd" unicode="&#x253c;" horiz-adv-x="1100" 
d="M-20 350h520v700h100v-700h520v-100h-520v-700h-100v700h-520v100z" />
    <glyph glyph-name="leftheavyrightvertlightbxd" unicode="&#x253d;" horiz-adv-x="1100" 
d="M-20 400h520v650h100v-700h520v-100h-520v-700h-100v650h-520v200z" />
    <glyph glyph-name="rightheavyleftvertlightbxd" unicode="&#x253e;" horiz-adv-x="1100" 
d="M-20 350h520v700h100v-650h520v-200h-520v-650h-100v700h-520v100z" />
    <glyph glyph-name="vertlighthorzheavybxd" unicode="&#x253f;" horiz-adv-x="1100" 
d="M-20 400h520v650h100v-650h520v-200h-520v-650h-100v650h-520v200z" />
    <glyph glyph-name="upheavydnhorzlightbxd" unicode="&#x2540;" horiz-adv-x="1100" 
d="M-20 350h470v700h200v-700h470v-100h-520v-700h-100v700h-520v100z" />
    <glyph glyph-name="dnheavyuphorzlightbxd" unicode="&#x2541;" horiz-adv-x="1100" 
d="M-20 350h520v700h100v-700h520v-100h-470v-700h-200v700h-470v100z" />
    <glyph glyph-name="vertheavyhorzlightbxd" unicode="&#x2542;" horiz-adv-x="1100" 
d="M-20 350h470v700h200v-700h470v-100h-470v-700h-200v700h-470v100z" />
    <glyph glyph-name="leftupheavyrightdnlightbxd" unicode="&#x2543;" horiz-adv-x="1100" 
d="M-20 400h470v650h200v-700h470v-100h-470v-50h-50v-650h-100v650h-520v200z" />
    <glyph glyph-name="rightupheavyleftdnlightbxd" unicode="&#x2544;" horiz-adv-x="1100" 
d="M-20 350h470v700h200v-650h470v-200h-520v-650h-100v650h-50v50h-470v100z" />
    <glyph glyph-name="leftdnheavyrightuplightbxd" unicode="&#x2545;" horiz-adv-x="1100" 
d="M-20 400h520v650h100v-650h50v-50h470v-100h-470v-700h-200v650h-470v200z" />
    <glyph glyph-name="rightdnheavyleftuplightbxd" unicode="&#x2546;" horiz-adv-x="1100" 
d="M-20 350h470v50h50v650h100v-650h520v-200h-470v-650h-200v700h-470v100z" />
    <glyph glyph-name="dnlightuphorzheavybxd" unicode="&#x2547;" horiz-adv-x="1100" 
d="M-20 400h470v650h200v-650h470v-200h-520v-650h-100v650h-520v200z" />
    <glyph glyph-name="uplightdnhorzheavybxd" unicode="&#x2548;" horiz-adv-x="1100" 
d="M-20 400h520v650h100v-650h520v-200h-470v-650h-200v650h-470v200z" />
    <glyph glyph-name="rightlightleftvertheavybxd" unicode="&#x2549;" horiz-adv-x="1100" 
d="M-20 400h470v650h200v-700h470v-100h-470v-700h-200v650h-470v200z" />
    <glyph glyph-name="leftlightrightvertheavybxd" unicode="&#x254a;" horiz-adv-x="1100" 
d="M-20 350h470v700h200v-650h470v-200h-470v-650h-200v700h-470v100z" />
    <glyph glyph-name="heavyverthorzbxd" unicode="&#x254b;" horiz-adv-x="1100" 
d="M-20 400h470v650h200v-650h470v-200h-470v-650h-200v650h-470v200z" />
    <glyph glyph-name="lightdbldashhorzbxd" unicode="&#x254c;" horiz-adv-x="1100" 
d="M137 350h275v-100h-275v100zM687 350h275v-100h-275v100z" />
    <glyph glyph-name="heavydbldashhorzbxd" unicode="&#x254d;" horiz-adv-x="1100" 
d="M137 400h275v-200h-275v200zM687 400h275v-200h-275v200z" />
    <glyph glyph-name="lightdbldashvertbxd" unicode="&#x254e;" horiz-adv-x="1100" 
d="M500 162h100v-275h-100v275zM500 712h100v-275h-100v275z" />
    <glyph glyph-name="heavydbldashvertbxd" unicode="&#x254f;" horiz-adv-x="1100" 
d="M450 162h200v-275h-200v275zM450 712h200v-275h-200v275z" />
    <glyph glyph-name="dblhorzbxd" unicode="&#x2550;" horiz-adv-x="1100" 
d="M-20 450h1140v-100h-1140v100zM-20 250h1140v-100h-1140v100z" />
    <glyph glyph-name="dblvertbxd" unicode="&#x2551;" horiz-adv-x="1100" 
d="M400 1050h100v-1500h-100v1500zM600 1050h100v-1500h-100v1500z" />
    <glyph glyph-name="dnsngrightdblbxd" unicode="&#x2552;" horiz-adv-x="1100" 
d="M500 450h620v-100h-520v-100h520v-100h-520v-600h-100v900z" />
    <glyph glyph-name="dndblrightsngbxd" unicode="&#x2553;" horiz-adv-x="1100" 
d="M400 350h720v-100h-420v-700h-100v700h-100v-700h-100v800z" />
    <glyph glyph-name="dbldnrightbxd" unicode="&#x2554;" horiz-adv-x="1100" 
d="M400 450h720v-100h-620v-800h-100v900zM600 250h520v-100h-420v-600h-100v700z" />
    <glyph glyph-name="dnsngleftdblbxd" unicode="&#x2555;" horiz-adv-x="1100" 
d="M-20 450h620v-900h-100v600h-520v100h520v100h-520v100z" />
    <glyph glyph-name="dndblleftsngbxd" unicode="&#x2556;" horiz-adv-x="1100" 
d="M-20 350h720v-800h-100v700h-100v-700h-100v700h-420v100z" />
    <glyph glyph-name="dbldnleftbxd" unicode="&#x2557;" horiz-adv-x="1100" 
d="M-20 450h720v-900h-100v800h-620v100zM-20 250h520v-700h-100v600h-420v100z" />
    <glyph glyph-name="upsngrightdblbxd" unicode="&#x2558;" horiz-adv-x="1100" 
d="M500 1050h100v-600h520v-100h-520v-100h520v-100h-620v900z" />
    <glyph glyph-name="updblrightsngbxd" unicode="&#x2559;" horiz-adv-x="1100" 
d="M400 1050h100v-700h100v700h100v-700h420v-100h-720v800z" />
    <glyph glyph-name="dbluprightbxd" unicode="&#x255a;" horiz-adv-x="1100" 
d="M400 1050h100v-800h620v-100h-720v900zM600 1050h100v-600h420v-100h-520v700z" />
    <glyph glyph-name="upsngleftdblbxd" unicode="&#x255b;" horiz-adv-x="1100" 
d="M-20 450h520v600h100v-900h-620v100h520v100h-520v100z" />
    <glyph glyph-name="updblleftsngbxd" unicode="&#x255c;" horiz-adv-x="1100" 
d="M-20 350h420v700h100v-700h100v700h100v-800h-720v100z" />
    <glyph glyph-name="dblupleftbxd" unicode="&#x255d;" horiz-adv-x="1100" 
d="M-20 250h620v800h100v-900h-720v100zM-20 450h420v600h100v-700h-520v100z" />
    <glyph glyph-name="vertsngrightdblbxd" unicode="&#x255e;" horiz-adv-x="1100" 
d="M500 1050h100v-600h520v-100h-520v-100h520v-100h-520v-600h-100v1500z" />
    <glyph glyph-name="vertdblrightsngbxd" unicode="&#x255f;" horiz-adv-x="1100" 
d="M600 1050h100v-700h420v-100h-420v-700h-100v1500zM400 1050h100v-1500h-100v1500z" />
    <glyph glyph-name="dblvertrightbxd" unicode="&#x2560;" horiz-adv-x="1100" 
d="M400 1050h100v-1500h-100v1500zM600 1050h100v-600h420v-100h-520v700zM600 250h520v-100h-420v-600h-100v700z" />
    <glyph glyph-name="vertsngleftdblbxd" unicode="&#x2561;" horiz-adv-x="1100" 
d="M-20 450h520v600h100v-1500h-100v600h-520v100h520v100h-520v100z" />
    <glyph glyph-name="vertdblleftsngbxd" unicode="&#x2562;" horiz-adv-x="1100" 
d="M-20 350h420v700h100v-1500h-100v700h-420v100zM600 1050h100v-1500h-100v1500z" />
    <glyph glyph-name="dblvertleftbxd" unicode="&#x2563;" horiz-adv-x="1100" 
d="M600 1050h100v-1500h-100v1500zM-20 250h520v-700h-100v600h-420v100zM-20 450h420v600h100v-700h-520v100z" />
    <glyph glyph-name="dnsnghorzdblbxd" unicode="&#x2564;" horiz-adv-x="1100" 
d="M-20 250h1140v-100h-520v-600h-100v600h-520v100zM-20 450h1140v-100h-1140v100z" />
    <glyph glyph-name="dndblhorzsngbxd" unicode="&#x2565;" horiz-adv-x="1100" 
d="M-20 350h1140v-100h-420v-700h-100v700h-100v-700h-100v700h-420v100z" />
    <glyph glyph-name="dbldnhorzbxd" unicode="&#x2566;" horiz-adv-x="1100" 
d="M-20 450h1140v-100h-1140v100zM600 250h520v-100h-420v-600h-100v700zM-20 250h520v-700h-100v600h-420v100z" />
    <glyph glyph-name="upsnghorzdblbxd" unicode="&#x2567;" horiz-adv-x="1100" 
d="M-20 450h520v600h100v-600h520v-100h-1140v100zM-20 250h1140v-100h-1140v100z" />
    <glyph glyph-name="updblhorzsngbxd" unicode="&#x2568;" horiz-adv-x="1100" 
d="M-20 350h420v700h100v-700h100v700h100v-700h420v-100h-1140v100z" />
    <glyph glyph-name="dbluphorzbxd" unicode="&#x2569;" horiz-adv-x="1100" 
d="M-20 250h1140v-100h-1140v100zM-20 450h420v600h100v-700h-520v100zM600 1050h100v-600h420v-100h-520v700z" />
    <glyph glyph-name="vertsnghorzdblbxd" unicode="&#x256a;" horiz-adv-x="1100" 
d="M-20 450h520v600h100v-600h520v-100h-520v-100h520v-100h-520v-600h-100v600h-520v100h520v100h-520v100z" />
    <glyph glyph-name="vertdblhorzsngbxd" unicode="&#x256b;" horiz-adv-x="1100" 
d="M-20 350h420v700h100v-700h100v700h100v-700h420v-100h-420v-700h-100v700h-100v-700h-100v700h-420v100z" />
    <glyph glyph-name="dblverthorzbxd" unicode="&#x256c;" horiz-adv-x="1100" 
d="M-20 450h420v600h100v-700h-520v100zM-20 250h520v-700h-100v600h-420v100zM600 1050h100v-600h420v-100h-520v700zM600 250h520v-100h-420v-600h-100v700z" />
    <glyph glyph-name="lightarcdnrightbxd" unicode="&#x256d;" horiz-adv-x="1100" 
d="M500 -250q0 124 47 233.5t128.5 191t191 128.5t233.5 47h20v-100h-20q-69 0 -133 -18t-119.5 -50.5t-101 -78t-78 -101t-50.5 -119.5t-18 -133v-200h-100v200z" />
    <glyph glyph-name="lightarcdnleftbxd" unicode="&#x256e;" horiz-adv-x="1100" 
d="M600 -450h-100v200q0 103 -39.5 194.5t-107 159t-159 107t-194.5 39.5h-20v100h20q124 0 233.5 -47t191 -128.5t128.5 -191t47 -233.5v-200z" />
    <glyph glyph-name="lightarcupleftbxd" unicode="&#x256f;" horiz-adv-x="1100" 
d="M600 850q0 -124 -47 -233.5t-128.5 -191t-191 -128.5t-233.5 -47h-20v100h20q69 0 133 18t119.5 50.5t101 78t78 101t50.5 119.5t18 133v200h100v-200z" />
    <glyph glyph-name="lightarcuprightbxd" unicode="&#x2570;" horiz-adv-x="1100" 
d="M500 1050h100v-200q0 -69 18 -133t50.5 -119.5t78 -101t101 -78t119.5 -50.5t133 -18h20v-100h-20q-124 0 -233.5 47t-191 128.5t-128.5 191t-47 233.5v200z" />
    <glyph glyph-name="lightdiaguprightdnleftbxd" unicode="&#x2571;" horiz-adv-x="1100" 
d="M1029 850h71v-71l-1029 -1029h-71v71z" />
    <glyph glyph-name="lightdiagupleftdnrightbxd" unicode="&#x2572;" horiz-adv-x="1100" 
d="M1100 -179v-71h-71l-1029 1029v71h71z" />
    <glyph glyph-name="lightdiagcrossbxd" unicode="&#x2573;" horiz-adv-x="1100" 
d="M479 300l-479 479v71h71l479 -479l479 479h71v-71l-479 -479l479 -479v-71h-71l-479 479l-479 -479h-71v71z" />
    <glyph glyph-name="lightleftbxd" unicode="&#x2574;" horiz-adv-x="1100" 
d="M-20 350h620v-100h-620v100z" />
    <glyph glyph-name="lightupbxd" unicode="&#x2575;" horiz-adv-x="1100" 
d="M500 1050h100v-800h-100v800z" />
    <glyph glyph-name="lightrightbxd" unicode="&#x2576;" horiz-adv-x="1100" 
d="M500 350h620v-100h-620v100z" />
    <glyph glyph-name="lightdnbxd" unicode="&#x2577;" horiz-adv-x="1100" 
d="M500 350h100v-800h-100v800z" />
    <glyph glyph-name="heavyleftbxd" unicode="&#x2578;" horiz-adv-x="1100" 
d="M-20 400h620v-200h-620v200z" />
    <glyph glyph-name="heavyupbxd" unicode="&#x2579;" horiz-adv-x="1100" 
d="M450 1050h200v-800h-200v800z" />
    <glyph glyph-name="heavyrightbxd" unicode="&#x257a;" horiz-adv-x="1100" 
d="M500 400h620v-200h-620v200z" />
    <glyph glyph-name="heavydnbxd" unicode="&#x257b;" horiz-adv-x="1100" 
d="M450 350h200v-800h-200v800z" />
    <glyph glyph-name="lightleftheavyrightbxd" unicode="&#x257c;" horiz-adv-x="1100" 
d="M-20 350h520v50h620v-200h-620v50h-520v100z" />
    <glyph glyph-name="lightupheavydnbxd" unicode="&#x257d;" horiz-adv-x="1100" 
d="M450 350h50v700h100v-700h50v-800h-200v800z" />
    <glyph glyph-name="heavyleftlightrightbxd" unicode="&#x257e;" horiz-adv-x="1100" 
d="M-20 400h620v-50h520v-100h-520v-50h-620v200z" />
    <glyph glyph-name="heavyuplightdnbxd" unicode="&#x257f;" horiz-adv-x="1100" 
d="M450 1050h200v-800h-50v-700h-100v700h-50v800z" />
    <glyph glyph-name="uphalfblock" unicode="&#x2580;" horiz-adv-x="1100" 
d="M0 850h1100v-550h-1100v550z" />
    <glyph glyph-name="dneighthblock" unicode="&#x2581;" horiz-adv-x="1100" 
d="M0 -113h1100v-137h-1100v137z" />
    <glyph glyph-name="dnquarterblock" unicode="&#x2582;" horiz-adv-x="1100" 
d="M0 25h1100v-275h-1100v275z" />
    <glyph glyph-name="dnthreeeighthsblock" unicode="&#x2583;" horiz-adv-x="1100" 
d="M0 162h1100v-412h-1100v412z" />
    <glyph glyph-name="dnhalfblock" unicode="&#x2584;" horiz-adv-x="1100" 
d="M0 300h1100v-550h-1100v550z" />
    <glyph glyph-name="dnfiveeighthsblock" unicode="&#x2585;" horiz-adv-x="1100" 
d="M0 437h1100v-687h-1100v687z" />
    <glyph glyph-name="dnthreequartersblock" unicode="&#x2586;" horiz-adv-x="1100" 
d="M0 575h1100v-825h-1100v825z" />
    <glyph glyph-name="dnseveneighthsblock" unicode="&#x2587;" horiz-adv-x="1100" 
d="M0 712h1100v-962h-1100v962z" />
    <glyph glyph-name="fullblock" unicode="&#x2588;" horiz-adv-x="1100" 
d="M0 850h1100v-1100h-1100v1100z" />
    <glyph glyph-name="leftseveneighthsblock" unicode="&#x2589;" horiz-adv-x="1100" 
d="M0 850h962v-1100h-962v1100z" />
    <glyph glyph-name="leftthreequartersblock" unicode="&#x258a;" horiz-adv-x="1100" 
d="M0 850h825v-1100h-825v1100z" />
    <glyph glyph-name="leftfiveeighthsblock" unicode="&#x258b;" horiz-adv-x="1100" 
d="M0 850h687v-1100h-687v1100z" />
    <glyph glyph-name="lefthalfblock" unicode="&#x258c;" horiz-adv-x="1100" 
d="M0 850h550v-1100h-550v1100z" />
    <glyph glyph-name="leftthreeeighthsblock" unicode="&#x258d;" horiz-adv-x="1100" 
d="M0 850h412v-1100h-412v1100z" />
    <glyph glyph-name="leftquarterblock" unicode="&#x258e;" horiz-adv-x="1100" 
d="M0 850h275v-1100h-275v1100z" />
    <glyph glyph-name="lefteighthblock" unicode="&#x258f;" horiz-adv-x="1100" 
d="M0 850h137v-1100h-137v1100z" />
    <glyph glyph-name="righthalfblock" unicode="&#x2590;" horiz-adv-x="1100" 
d="M550 850h550v-1100h-550v1100z" />
    </font>
</defs>
</svg>
