<?xml version="1.0" standalone="no"?>
<!DOCTYPE svg PUBLIC "-//W3C//DTD SVG 1.1//EN" "http://www.w3.org/Graphics/SVG/1.1/DTD/svg11.dtd" >
<svg>
<metadata>
Created by FontForge 20090622 at Sun Jan 10 17:20:35 2016
 By deploy user
(c) Copyright The Font Bureau, Inc. 2014. All rights reserved.
</metadata>
<defs>
<font id="Input-Regular" horiz-adv-x="763" >
  <font-face 
    font-family="Input"
    font-weight="400"
    font-stretch="condensed"
    units-per-em="1100"
    panose-1="2 0 6 6 3 0 0 9 0 4"
    ascent="850"
    descent="-250"
    x-height="600"
    cap-height="800"
    bbox="-239 -450 1311 1400"
    underline-thickness="0"
    underline-position="0"
    unicode-range="U+000D-U+1F41B"
  />
<missing-glyph 
d="M50 -250v1100h663v-1100h-663zM150 -150h463v900h-463v-900z" />
    <glyph glyph-name=".notdef" 
d="M50 -250v1100h663v-1100h-663zM150 -150h463v900h-463v-900z" />
    <glyph glyph-name=".null" horiz-adv-x="0" 
 />
    <glyph glyph-name="nonmarkingreturn" unicode="&#xd;" horiz-adv-x="0" 
 />
    <glyph glyph-name="NULL" horiz-adv-x="0" 
 />
    <glyph glyph-name="space" unicode="&#xa0;" horiz-adv-x="510" 
 />
    <glyph glyph-name="space" unicode=" " horiz-adv-x="510" 
 />
    <glyph glyph-name="exclam" unicode="!" horiz-adv-x="677" 
d="M277 300l-25 500h173l-25 -500h-123zM342 -10q-54 0 -81.5 20.5t-27.5 63.5v28q0 44 27.5 65t81.5 21t81.5 -21t27.5 -65v-28q0 -43 -27.5 -63.5t-81.5 -20.5z" />
    <glyph glyph-name="quotedbl" unicode="&#x22;" horiz-adv-x="914" 
d="M550 383l-28 417h178l-28 -417h-122zM242 383l-28 417h179l-28 -417h-123z" />
    <glyph glyph-name="numbersign" unicode="#" horiz-adv-x="847" 
d="M484 293l9 214h-129l-8 -214h128zM471 0l9 190h-129l-8 -190h-120l8 190h-128v103h132l9 214h-141v103h145l8 190h121l-8 -190h128l8 190h121l-8 -190h127v-103h-131l-9 -214h140v-103h-144l-9 -190h-121z" />
    <glyph glyph-name="dollar" unicode="$" horiz-adv-x="680" 
d="M223 569q0 -35 17.5 -56.5t63.5 -38.5v177q-42 -4 -61.5 -23.5t-19.5 -58.5zM468 235q0 34 -19.5 56t-71.5 40v-188q46 3 68.5 25.5t22.5 66.5zM386 -50h-90v95q-63 6 -116 25.5t-93 50.5l32 98q42 -31 87 -49.5t98 -24.5v206q-115 28 -161.5 73.5t-46.5 131.5
q0 87 51 137.5t149 60.5v96h90v-96q51 -5 98 -21.5t79 -40.5l-26 -98q-40 25 -78.5 39t-81.5 18v-198q121 -31 169.5 -77.5t48.5 -130.5q0 -88 -55 -140.5t-154 -60.5v-94z" />
    <glyph glyph-name="percent" unicode="%" horiz-adv-x="1089" 
d="M273 381q-82 0 -132.5 39.5t-50.5 122.5v103q0 84 51 124t132 40t131.5 -40t50.5 -124v-103q0 -83 -50.5 -122.5t-131.5 -39.5zM272 0l417 800h130l-418 -800h-129zM273 475q28 0 45 16.5t17 54.5v97q0 38 -17 56t-45 18t-45.5 -18t-17.5 -56v-97q0 -38 17.5 -54.5
t45.5 -16.5zM817 -12q-81 0 -132 39.5t-51 122.5v107q0 84 51 123.5t132 39.5q82 0 132.5 -39.5t50.5 -123.5v-107q0 -83 -51 -122.5t-132 -39.5zM817 81q29 0 46 17t17 55v101q0 37 -17 55t-46 18q-28 0 -45.5 -18t-17.5 -55v-101q0 -38 17.5 -55t45.5 -17z" />
    <glyph glyph-name="ampersand" unicode="&#x26;" horiz-adv-x="771" 
d="M709 -11q-51 16 -99.5 41.5t-93.5 58.5q-40 -46 -90.5 -72.5t-117.5 -26.5q-98 0 -156.5 54t-58.5 154q0 76 35 133.5t98 97.5q-24 48 -36.5 92.5t-12.5 79.5q0 99 52 154.5t146 55.5q84 0 134 -49t50 -118q0 -75 -42.5 -124t-158.5 -103l18.5 -32l19.5 -32
q22 -31 47 -61.5t52 -57.5q19 38 39.5 86.5t39.5 106.5l108 -36q-27 -69 -61 -124l-66 -103l177 -70zM306 598q0 -27 6 -56t16 -59q58 32 84.5 67t26.5 81q0 36 -17 57.5t-48 21.5q-37 0 -52.5 -30t-15.5 -82zM340 90q28 0 53.5 14t49.5 43q-35 31 -66.5 65.5t-59.5 70.5
l-21 30l-20 30q-20 -27 -31 -62t-11 -72q0 -58 27 -88.5t79 -30.5z" />
    <glyph glyph-name="quotesingle" unicode="'" horiz-adv-x="604" 
d="M241 383l-28 417h179l-29 -417h-122z" />
    <glyph glyph-name="parenleft" unicode="(" horiz-adv-x="680" 
d="M525 -210q-172 36 -255 167.5t-83 342.5q0 210 83 342t255 168l14 -96q-113 -34 -162.5 -138t-49.5 -276t49.5 -274.5t162.5 -136.5z" />
    <glyph glyph-name="parenright" unicode=")" horiz-adv-x="680" 
d="M157 -210l-14 99q112 34 161.5 137.5t49.5 273.5q0 169 -49.5 274.5t-161.5 139.5l14 96q172 -36 254.5 -168t82.5 -342q0 -211 -82.5 -342.5t-254.5 -167.5z" />
    <glyph glyph-name="asterisk.salt_height" unicode="&#xe05d;" horiz-adv-x="771" 
d="M571 192l-159 154l35 -236h-124l36 235l-159 -153l-62 114l196 95l-196 95l62 113l159 -154l-36 235h124l-35 -235l159 154l62 -113l-197 -95l197 -95z" />
    <glyph glyph-name="asterisk.salt_height" unicode="*" horiz-adv-x="771" 
d="M571 192l-159 154l35 -236h-124l36 235l-159 -153l-62 114l196 95l-196 95l62 113l159 -154l-36 235h124l-35 -235l159 154l62 -113l-197 -95l197 -95z" />
    <glyph glyph-name="plus" unicode="+" horiz-adv-x="771" 
d="M326 0v290h-233v120h233v290h119v-290h233v-120h-233v-290h-119z" />
    <glyph glyph-name="comma" unicode="," horiz-adv-x="604" 
d="M162 -183l66 418h214l-186 -418h-94z" />
    <glyph glyph-name="hyphen" unicode="&#x2011;" horiz-adv-x="771" 
d="M107 290v124h557v-124h-557z" />
    <glyph glyph-name="hyphen" unicode="&#x2010;" horiz-adv-x="771" 
d="M107 290v124h557v-124h-557z" />
    <glyph glyph-name="hyphen" unicode="&#xad;" horiz-adv-x="771" 
d="M107 290v124h557v-124h-557z" />
    <glyph glyph-name="hyphen" unicode="-" horiz-adv-x="771" 
d="M107 290v124h557v-124h-557z" />
    <glyph glyph-name="period" unicode="." horiz-adv-x="604" 
d="M303 -10q-52 0 -84 25t-32 74v50q0 51 32 76t84 25q51 0 82.5 -25t31.5 -76v-50q0 -49 -32 -74t-82 -25z" />
    <glyph glyph-name="slash" unicode="/" horiz-adv-x="604" 
d="M76 -200l334 1000h118l-334 -1000h-118z" />
    <glyph glyph-name="zero" unicode="0" 
d="M382 -10q-137 0 -209.5 88.5t-72.5 254.5v130q0 167 72.5 257t209.5 90t209 -90t72 -257v-130q0 -166 -72 -254.5t-209 -88.5zM382 97q78 0 109.5 58t31.5 192v102q0 135 -31.5 194.5t-109.5 59.5q-80 0 -111 -59.5t-31 -194.5v-102q0 -134 31 -192t111 -58zM382 319
q-28 0 -44.5 12.5t-16.5 46.5v43q0 34 16.5 46.5t44.5 12.5q26 0 42.5 -12.5t16.5 -46.5v-43q0 -34 -17 -46.5t-42 -12.5z" />
    <glyph glyph-name="one" unicode="1" 
d="M169 0v111h184v522h-22q-15 -63 -62.5 -101t-107.5 -42l-8 116q72 6 128 57t74 137h138v-689h167v-111h-491z" />
    <glyph glyph-name="two" unicode="2" 
d="M102 0v168q0 102 37 158t121 77l164 40q49 11 68.5 35.5t19.5 70.5v38q0 60 -30.5 88t-99.5 28t-97 -32.5t-34 -121.5l-140 10q6 130 70 190.5t200 60.5q135 0 203 -56t68 -161v-57q0 -88 -37.5 -135t-116.5 -66l-165 -40q-48 -11 -69 -39t-21 -86v-59h417v-111h-558z
" />
    <glyph glyph-name="three" unicode="3" 
d="M380 -10q-145 0 -212 55.5t-74 177.5l140 10q7 -82 37.5 -108t108.5 -26q76 0 108 28t32 93v27q0 66 -31 93.5t-107 27.5h-104v110h104q66 0 93.5 18.5t27.5 72.5v32q0 56 -31 78t-98 22q-63 0 -90.5 -26.5t-32.5 -89.5l-140 10q6 113 68.5 164t193.5 51q137 0 204 -48.5
t67 -152.5v-27q0 -60 -35 -98t-91 -45v-29q64 -7 103 -54.5t39 -114.5v-23q0 -117 -67.5 -172.5t-212.5 -55.5z" />
    <glyph glyph-name="four" unicode="4" 
d="M225 312h211v332zM702 205h-125v-205h-141v205h-342v107l305 488h178v-488h125v-107z" />
    <glyph glyph-name="five" unicode="5" 
d="M381 -10q-148 0 -214.5 55t-72.5 186l140 10q7 -84 38 -114t110 -30q77 0 107.5 29t30.5 94v51q0 66 -30.5 94t-102.5 28h-268v407h514v-107h-373v-186h156q121 0 182.5 -54.5t61.5 -167.5v-76q0 -104 -69.5 -161.5t-209.5 -57.5z" />
    <glyph glyph-name="six" unicode="6" 
d="M382 -10q-140 0 -210 73t-70 213v249q0 140 69 212.5t212 72.5q130 0 191.5 -46.5t78.5 -147.5l-148 -23q-12 65 -40 87.5t-89 22.5q-74 0 -103.5 -39.5t-29.5 -139.5v-98h10q25 34 67 54t102 20q122 0 180 -61t58 -177v-22q0 -119 -69.5 -184.5t-208.5 -65.5zM381 97
q72 0 105 35.5t33 106.5v13q0 74 -33 110.5t-105 36.5t-105 -36.5t-33 -110.5v-13q0 -72 33 -107t105 -35z" />
    <glyph glyph-name="seven" unicode="7" 
d="M269 0q44 243 95 370.5t156 312.5h-418v117h558v-117q-107 -212 -160.5 -347.5t-81.5 -335.5h-149z" />
    <glyph glyph-name="eight" unicode="8" 
d="M382 -10q-152 0 -216 56.5t-64 163.5v22q0 78 35.5 123t101.5 52v29q-55 6 -87.5 43.5t-32.5 103.5v32q0 101 66.5 148t196.5 47q129 0 195.5 -46.5t66.5 -148.5v-32q0 -66 -33 -103.5t-88 -43.5v-29q66 -7 101.5 -52t35.5 -123v-22q0 -108 -63.5 -164t-214.5 -56z
M382 474q65 0 93 23t28 79v25q0 55 -28 77.5t-93 22.5q-66 0 -94 -22.5t-28 -77.5v-25q0 -56 28 -79t94 -23zM382 99q78 0 108 29t30 96v16q0 68 -30 97t-108 29t-108.5 -29t-30.5 -97v-16q0 -67 30.5 -96t108.5 -29z" />
    <glyph glyph-name="nine" unicode="9" 
d="M382 401q73 0 105.5 36t32.5 111v13q0 73 -32.5 107.5t-105.5 34.5t-105 -35t-32 -107v-13q0 -75 32 -111t105 -36zM380 -10q-130 0 -191.5 46.5t-78.5 147.5l148 23q11 -63 38.5 -86.5t90.5 -23.5q73 0 103 40t30 139v98h-14q-24 -34 -65.5 -53.5t-104.5 -19.5
q-116 0 -175 59t-59 178v22q0 119 69.5 184.5t210.5 65.5q140 0 209 -73t69 -213v-249q0 -136 -66.5 -210.5t-213.5 -74.5z" />
    <glyph glyph-name="colon" unicode=":" horiz-adv-x="604" 
d="M303 391q-48 0 -77.5 22t-29.5 67v49q0 46 29.5 69t77.5 23t77 -23t29 -69v-49q0 -45 -30 -67t-76 -22zM303 -8q-48 0 -77.5 22t-29.5 68v49q0 46 29.5 68.5t77.5 22.5t77 -22.5t29 -68.5v-49q0 -46 -30 -68t-76 -22z" />
    <glyph glyph-name="semicolon" unicode=";" horiz-adv-x="604" 
d="M303 391q-48 0 -77.5 22t-29.5 67v49q0 46 29.5 69t77.5 23t77 -23t29 -69v-49q0 -45 -30 -67t-76 -22zM172 -175l62 402h198l-173 -402h-87z" />
    <glyph glyph-name="less" unicode="&#x3c;" horiz-adv-x="771" 
d="M636 0l-501 282v136l501 282v-116l-413 -234l413 -234v-116z" />
    <glyph glyph-name="equal" unicode="=" horiz-adv-x="771" 
d="M93 438v119h585v-119h-585zM93 143v119h585v-119h-585z" />
    <glyph glyph-name="greater" unicode="&#x3e;" horiz-adv-x="771" 
d="M135 0v112l421 238l-421 238v112l501 -282v-136z" />
    <glyph glyph-name="question" unicode="?" horiz-adv-x="855" 
d="M342 296l-16 98q143 27 192.5 62t49.5 96v27q0 60 -28 92t-102 32q-78 0 -105 -32.5t-34 -121.5l-140 10q6 134 70.5 192.5t207.5 58.5q132 0 201.5 -61t69.5 -160v-41q0 -109 -83.5 -163.5t-282.5 -88.5zM398 -10q-54 0 -81.5 20.5t-27.5 63.5v28q0 44 27.5 65t81.5 21
t81.5 -21t27.5 -65v-28q0 -43 -28 -63.5t-81 -20.5z" />
    <glyph glyph-name="at" unicode="@" horiz-adv-x="894" 
d="M514 -110q-190 0 -283.5 92.5t-93.5 246.5v268q0 142 79.5 227.5t240.5 85.5q144 0 221 -81t77 -222v-217q-2 -91 -56 -133t-152 -42q-101 0 -149.5 46.5t-48.5 130.5v102q0 82 42.5 131.5t111.5 49.5q48 0 77 -19t43 -46h30q-2 102 -46 154t-151 52q-111 0 -159 -57.5
t-48 -161.5v-263q0 -118 62 -183t203 -65q51 0 97 8t82 19v-96q-34 -10 -83.5 -18.5t-95.5 -8.5zM551 210q33 0 52 16.5t19 67.5v92q0 50 -20 72t-51 22q-33 0 -51.5 -22t-18.5 -74v-82q0 -49 18 -70.5t52 -21.5z" />
    <glyph glyph-name="A" unicode="A" 
d="M464 323l-88 355l-88 -355h176zM544 0l-52 213h-232l-52 -213h-132l218 800h178l216 -800h-144z" />
    <glyph glyph-name="B" unicode="B" 
d="M102 0v800h312q110 0 169.5 -49t59.5 -139v-41q0 -56 -27.5 -89t-82.5 -44v-29q62 -7 96.5 -49t34.5 -106v-47q0 -99 -64.5 -153t-184.5 -54h-313zM243 467h154q59 0 83 21.5t24 73.5v35q0 52 -24 74t-83 22h-154v-226zM243 107h157q68 0 96 25t28 85v39q0 60 -28 84.5
t-96 24.5h-157v-258z" />
    <glyph glyph-name="C" unicode="C" 
d="M396 -10q-150 0 -222 69.5t-72 199.5v278q0 131 72.5 202t221.5 71q139 0 210 -68.5t77 -209.5l-140 -10q-7 99 -40.5 138t-108.5 39q-84 0 -117.5 -38t-33.5 -133v-261q0 -92 33.5 -129t117.5 -37q77 0 110 38.5t39 134.5l140 -10q-4 -138 -75.5 -206t-211.5 -68z" />
    <glyph glyph-name="D" unicode="D" 
d="M102 0v800h272q134 0 210 -75.5t76 -200.5v-252q0 -124 -76 -198t-211 -74h-271zM243 111h119q85 0 121.5 41t36.5 129v234q0 89 -36.5 131.5t-121.5 42.5h-119v-578z" />
    <glyph glyph-name="E" unicode="E" 
d="M142 0v800h480v-111h-340v-202h298v-111h-298v-265h340v-111h-480z" />
    <glyph glyph-name="F" unicode="F" 
d="M136 0v800h492v-111h-352v-272h292v-110h-292v-307h-140z" />
    <glyph glyph-name="G" unicode="G" 
d="M388 -10q-141 0 -213.5 71t-72.5 198v278q0 129 70.5 201t206.5 72q138 0 203 -59t72 -192l-141 -10q-6 83 -33.5 116.5t-99.5 33.5q-78 0 -107.5 -39t-29.5 -131v-262q0 -90 33 -128t117 -38q77 0 104.5 43t27.5 146h-143v111h284v-128q0 -133 -70.5 -208t-207.5 -75z
" />
    <glyph glyph-name="H" unicode="H" 
d="M102 0v800h141v-306h277v306h140v-800h-140v383h-277v-383h-141z" />
    <glyph glyph-name="I" unicode="I" horiz-adv-x="680" 
d="M103 0v111h167v578h-167v111h475v-111h-167v-578h167v-111h-475z" />
    <glyph glyph-name="J" unicode="J" horiz-adv-x="680" 
d="M328 -10q-135 0 -193.5 61.5t-64.5 215.5l140 11q7 -107 30 -142t88 -35q63 0 86 35.5t23 119.5v433h-195v111h336v-547q0 -131 -59.5 -197t-190.5 -66z" />
    <glyph glyph-name="K" unicode="K" horiz-adv-x="680" 
d="M244 364v-364h-141v800h141v-324h32l210 324h156l-253 -368l250 -432h-163l-198 364h-34z" />
    <glyph glyph-name="L" unicode="L" horiz-adv-x="596" 
d="M102 0v800h141v-689h295v-111h-436z" />
    <glyph glyph-name="M" unicode="M" horiz-adv-x="847" 
d="M355 200l-130 434v-634h-122v800h185l138 -474l139 474h180v-800h-122v639l-130 -439h-138z" />
    <glyph glyph-name="N" unicode="N" 
d="M470 0l-246 634v-634h-122v800h191l245 -617v617h122v-800h-190z" />
    <glyph glyph-name="O" unicode="O" 
d="M382 -10q-137 0 -208.5 70.5t-71.5 201.5v275q0 131 72 202t208 71t207 -71t71 -202v-275q0 -131 -71 -201.5t-207 -70.5zM382 101q75 0 106.5 38t31.5 131v259q0 93 -31.5 131.5t-106.5 38.5q-76 0 -107.5 -38.5t-31.5 -131.5v-259q0 -93 31.5 -131t107.5 -38z" />
    <glyph glyph-name="P" unicode="P" horiz-adv-x="680" 
d="M103 0v800h266q114 0 174 -55.5t60 -162.5v-102q0 -105 -60 -159.5t-173 -54.5h-126v-266h-141zM244 375h107q59 0 85.5 26.5t26.5 88.5v83q0 63 -26.5 89.5t-85.5 26.5h-107v-314z" />
    <glyph glyph-name="Q" unicode="Q" 
d="M609 -198q-149 -26 -218.5 23t-69.5 181q-107 13 -163 81.5t-56 182.5v267q0 131 72 202t208 71t207 -71t71 -202v-267q0 -116 -58 -184.5t-168 -81.5q4 -64 41.5 -85t118.5 -3zM382 108q77 0 107.5 37t30.5 133v251q0 96 -30.5 133t-107.5 37q-78 0 -108.5 -37
t-30.5 -133v-251q0 -96 30.5 -133t108.5 -37z" />
    <glyph glyph-name="R" unicode="R" 
d="M243 409h163q53 0 78 25.5t25 86.5v62q0 59 -24.5 82.5t-78.5 23.5h-163v-280zM243 0h-141v800h322q110 0 167.5 -55t57.5 -159v-66q0 -87 -38 -141t-113 -71l170 -308h-160l-165 300h-100v-300z" />
    <glyph glyph-name="S" unicode="S" 
d="M381 -7q-78 0 -150.5 25.5t-128.5 76.5l42 102q54 -48 116.5 -71t133.5 -23q63 0 97.5 30t34.5 84q0 49 -37.5 74.5t-141.5 53.5q-124 34 -180 85t-56 144q0 104 69.5 168t193.5 64q76 0 144.5 -25.5t112.5 -71.5l-36 -98q-51 42 -107 63.5t-113 21.5t-90.5 -26
t-33.5 -77q0 -49 37 -73.5t147 -55.5q125 -34 178 -85t53 -143q0 -110 -75 -176.5t-210 -66.5z" />
    <glyph glyph-name="T" unicode="T" horiz-adv-x="680" 
d="M270 0v689h-208v111h558v-111h-209v-689h-141z" />
    <glyph glyph-name="U" unicode="U" 
d="M382 -10q-145 0 -212.5 68.5t-67.5 208.5v533h141v-529q0 -89 30.5 -128t108.5 -39t108 39t30 128v529h140v-533q0 -140 -67 -208.5t-211 -68.5z" />
    <glyph glyph-name="V" unicode="V" horiz-adv-x="688" 
d="M433 0h-179l-216 800h144l166 -668l167 668h135z" />
    <glyph glyph-name="W" unicode="W" horiz-adv-x="922" 
d="M566 0l-103 474l-106 -474h-153l-133 800h135l94 -627l95 468h140l101 -467l94 626h121l-132 -800h-153z" />
    <glyph glyph-name="X" unicode="X" 
d="M529 0l-150 277l-147 -277h-152l228 413l-208 387h158l140 -262l135 262h151l-214 -400l211 -400h-152z" />
    <glyph glyph-name="Y" unicode="Y" horiz-adv-x="680" 
d="M411 0h-141v300l-241 500h149l166 -381l166 381h141l-240 -500v-300z" />
    <glyph glyph-name="Z" unicode="Z" 
d="M655 0h-547v111l378 578h-378v111h547v-111l-388 -578h388v-111z" />
    <glyph glyph-name="bracketleft" unicode="[" horiz-adv-x="680" 
d="M187 -200v1000h349v-107h-209v-794h209v-99h-349z" />
    <glyph glyph-name="backslash" unicode="\" horiz-adv-x="604" 
d="M410 -199l-334 1000l118 -1l334 -1000z" />
    <glyph glyph-name="bracketright" unicode="]" horiz-adv-x="680" 
d="M145 -200v99h209v794h-209v107h349v-1000h-349z" />
    <glyph glyph-name="asciicircum" unicode="^" horiz-adv-x="847" 
d="M609 200l-185 440l-185 -440h-136l251 600h140l251 -600h-136z" />
    <glyph glyph-name="underscore" unicode="_" horiz-adv-x="771" 
d="M93 -200v124h585v-124h-585z" />
    <glyph glyph-name="grave" unicode="`" horiz-adv-x="604" 
d="M339 383l-203 417h215l83 -417h-95z" />
    <glyph glyph-name="a" unicode="a" 
d="M320 88q35 0 67 13t55 44v104h-131q-31 0 -50 -17.5t-19 -61.5q0 -40 19 -61t59 -21zM288 -10q-81 0 -130.5 45t-49.5 127q0 81 49 126t133 45h152v85q0 43 -24 67.5t-71 24.5q-49 0 -71.5 -21.5t-35.5 -81.5l-120 24q17 93 77 136t160 43q104 0 164.5 -43.5t60.5 -139.5
v-256q0 -48 24.5 -61t76.5 -4v-106q-72 -14 -120 4.5t-61 83.5h-23q-25 -43 -76 -70.5t-115 -27.5z" />
    <glyph glyph-name="b" unicode="b" 
d="M375 -9q-63 0 -125.5 17t-105.5 52v740h141v-290h25q16 48 55.5 74t93.5 26q75 0 117.5 -55.5t42.5 -156.5v-192q0 -106 -65.5 -160.5t-178.5 -54.5zM382 97q47 0 71.5 25t24.5 85v184q0 57 -20 81t-57 24q-33 0 -62 -17.5t-54 -55.5v-298q18 -13 41.5 -20.5t55.5 -7.5z
" />
    <glyph glyph-name="c" unicode="c" 
d="M382 -10q-122 0 -182 56.5t-60 159.5v185q0 110 64 164.5t178 54.5t174 -53t68 -157l-136 -9q-4 63 -27 87t-77 24q-56 0 -80 -26t-24 -86v-181q0 -61 24 -86.5t82 -25.5q54 0 76 21.5t26 77.5l136 -10q-6 -99 -64 -147.5t-178 -48.5z" />
    <glyph glyph-name="d" unicode="d" 
d="M362 104q32 0 61 18.5t55 57.5v289q-24 17 -47.5 25.5t-48.5 8.5q-49 0 -73 -27t-24 -83v-184q0 -56 20 -80.5t57 -24.5zM454 93q-17 -47 -56.5 -75t-96.5 -28q-74 0 -115.5 56.5t-41.5 155.5v192q0 101 57.5 158t158.5 57q31 0 62 -7t56 -20v218h141v-800h-141v93h-24z
" />
    <glyph glyph-name="e" unicode="e" 
d="M620 135q-25 -75 -84.5 -110t-155.5 -35q-111 0 -174 58t-63 162v180q0 104 64 162t174 58t173.5 -59t63.5 -166v-112h-334v-64q0 -64 24.5 -92t80.5 -28q49 0 73.5 18.5t38.5 61.5zM284 390v-33h193v27q0 69 -23 99t-74 30t-73.5 -28.5t-22.5 -94.5z" />
    <glyph glyph-name="f" unicode="f" 
d="M274 0v493h-100v107h100v47q0 81 53.5 127t141.5 46q28 0 60.5 -7.5t59.5 -17.5l-17 -98q-22 8 -43 13.5t-40 5.5q-35 0 -55 -17.5t-20 -57.5v-41h167v-107h-167v-493h-140z" />
    <glyph glyph-name="g" unicode="g" 
d="M660 -41q0 -81 -51.5 -125t-140.5 -44h-165q-98 0 -149.5 37.5t-51.5 106.5q0 49 25 78.5t65 34.5v20q-31 8 -51.5 31t-20.5 71t31.5 82t83.5 41v18q-45 16 -67.5 48t-22.5 69v18q0 71 56 113t164 42h289v-97l-135 22v-20q31 -10 50.5 -40t19.5 -64v-18
q0 -69 -54.5 -110.5t-167.5 -41.5h-88q-26 0 -40.5 -12.5t-14.5 -42.5q0 -29 16 -42.5t45 -13.5h189q87 0 136.5 -38.5t49.5 -122.5zM368 312q45 0 66 21.5t21 62.5v31q0 42 -21 62.5t-66 20.5t-66.5 -20.5t-21.5 -62.5v-31q0 -41 21 -62.5t67 -21.5zM304 -120h161
q35 0 57.5 14.5t22.5 53.5q0 37 -22 51t-56 14h-231v-60q0 -37 17 -55t51 -18z" />
    <glyph glyph-name="h" unicode="h" horiz-adv-x="680" 
d="M103 0v800h141v-290h25q19 47 59.5 73.5t93.5 26.5q71 0 113.5 -51.5t42.5 -141.5v-417h-141v394q0 51 -19 76.5t-53 25.5q-35 0 -65.5 -22.5t-55.5 -62.5v-411h-141z" />
    <glyph glyph-name="i.salt_topserif" unicode="&#xe036;" horiz-adv-x="513" 
d="M369 0h-140v493h-150v107h290v-600zM298 703q-43 0 -69.5 13.5t-26.5 50.5v10q0 37 26.5 51.5t69.5 14.5t69.5 -14.5t26.5 -51.5v-10q0 -37 -27 -50.5t-69 -13.5z" />
    <glyph glyph-name="i.salt_topserif" unicode="i" horiz-adv-x="513" 
d="M369 0h-140v493h-150v107h290v-600zM298 703q-43 0 -69.5 13.5t-26.5 50.5v10q0 37 26.5 51.5t69.5 14.5t69.5 -14.5t26.5 -51.5v-10q0 -37 -27 -50.5t-69 -13.5z" />
    <glyph glyph-name="j" unicode="j" horiz-adv-x="513" 
d="M166 -209q-28 0 -58 6t-59 16l17 104q24 -10 45 -15.5t40 -5.5q35 0 56.5 25t21.5 82v490h-150v107h290v-608q0 -99 -58 -150t-145 -51zM298 703q-43 0 -69.5 13.5t-26.5 50.5v10q0 37 26.5 51.5t69.5 14.5t69.5 -14.5t26.5 -51.5v-10q0 -37 -27 -50.5t-69 -13.5z" />
    <glyph glyph-name="k" unicode="k" horiz-adv-x="596" 
d="M243 263v-263h-141v800h141v-437h35l132 237h149l-169 -276l166 -324h-151l-127 263h-35z" />
    <glyph glyph-name="l.salt_serif" unicode="&#xe01d;" horiz-adv-x="680" 
d="M103 0v107h167v586h-167v107h308v-693h167v-107h-475z" />
    <glyph glyph-name="l.salt_serif" unicode="l" horiz-adv-x="680" 
d="M103 0v107h167v586h-167v107h308v-693h167v-107h-475z" />
    <glyph glyph-name="m" unicode="m" horiz-adv-x="930" 
d="M243 424v-424h-141v600h141v-90h25q16 46 53 73t84 27q43 0 74 -26.5t45 -73.5h35q16 46 52.5 73t83.5 27q61 0 96.5 -49t35.5 -135v-426h-140v414q0 41 -14 61.5t-40 20.5q-28 0 -53.5 -18.5t-44.5 -53.5v-424h-140v414q0 41 -14 61.5t-40 20.5q-28 0 -53.5 -18.5
t-44.5 -53.5z" />
    <glyph glyph-name="n" unicode="n" horiz-adv-x="680" 
d="M103 0v600h141v-90h25q18 46 59.5 73t93.5 27q72 0 114 -52.5t42 -141.5v-416h-141v394q0 51 -18.5 76.5t-52.5 25.5q-36 0 -66.5 -22.5t-55.5 -62.5v-411h-141z" />
    <glyph glyph-name="o" unicode="o" horiz-adv-x="680" 
d="M340 -10q-107 0 -172 57.5t-65 164.5v172q0 109 65.5 167.5t172.5 58.5q108 0 172.5 -58.5t64.5 -167.5v-172q0 -107 -65 -164.5t-173 -57.5zM340 97q51 0 74 28t23 91v168q0 62 -23 90.5t-74 28.5t-73.5 -29t-22.5 -91v-167q0 -63 22.5 -91t73.5 -28z" />
    <glyph glyph-name="p" unicode="p" horiz-adv-x="680" 
d="M341 97q49 0 72.5 26.5t23.5 83.5v185q0 56 -19.5 80t-57.5 24q-34 0 -62 -17.5t-54 -55.5v-292q24 -17 47 -25.5t50 -8.5zM362 -9q-31 0 -61 7t-57 20v-218h-141v800h141v-90h25q16 48 57 74t95 26q75 0 116 -55.5t41 -156.5v-192q0 -101 -57 -158t-159 -57z" />
    <glyph glyph-name="q" unicode="q" horiz-adv-x="680" 
d="M437 -200v290h-24q-17 -48 -56.5 -74t-93.5 -26q-76 0 -118 55.5t-42 156.5v192q0 103 64.5 159t179.5 56q64 0 126.5 -16.5t104.5 -47.5v-745h-141zM321 104q32 0 61.5 17.5t54.5 54.5v299q-19 13 -42.5 20.5t-53.5 7.5q-48 0 -72.5 -26t-24.5 -85v-178q0 -57 20 -83.5
t57 -26.5z" />
    <glyph glyph-name="r" unicode="r" horiz-adv-x="596" 
d="M102 0v600h141v-90h25q16 52 53 76t79 24q66 0 99 -43.5t33 -121.5v-102h-128v81q0 33 -13.5 52.5t-42.5 19.5q-28 0 -57 -23t-48 -60v-413h-141z" />
    <glyph glyph-name="s" unicode="s" horiz-adv-x="680" 
d="M343 -9q-70 0 -136 21.5t-114 59.5l37 93q49 -34 106 -54t110 -20q47 0 73.5 16t26.5 52q0 40 -29.5 55.5t-105.5 32.5q-93 19 -147.5 56.5t-54.5 122.5q0 86 60 135t157 49q63 0 123 -20.5t105 -54.5l-32 -90q-47 31 -95 48t-92 17q-42 0 -65.5 -16.5t-23.5 -51.5
q0 -39 31 -55.5t112 -34.5q96 -20 144.5 -59.5t48.5 -117.5q0 -87 -65 -135.5t-174 -48.5z" />
    <glyph glyph-name="t" unicode="t" horiz-adv-x="596" 
d="M387 -10q-98 0 -149.5 51t-51.5 147v305h-100v107h100v200h140v-200h173v-107h-173v-296q0 -51 21.5 -74.5t58.5 -23.5q17 0 38.5 5t44.5 15l17 -105q-22 -10 -53.5 -17t-65.5 -7z" />
    <glyph glyph-name="u" unicode="u" horiz-adv-x="680" 
d="M259 -10q-72 0 -114 52.5t-42 141.5v416h141v-394q0 -50 18 -76t54 -26q33 0 64.5 22.5t56.5 62.5v411h141v-600h-141v90h-24q-17 -46 -58.5 -73t-95.5 -27z" />
    <glyph glyph-name="v" unicode="v" horiz-adv-x="596" 
d="M389 0h-183l-167 600h140l121 -490l121 490h135z" />
    <glyph glyph-name="w" unicode="w" horiz-adv-x="847" 
d="M518 0l-91 381l-88 -381h-155l-126 600h126l89 -473l87 373h130l92 -366l88 466h120l-126 -600h-146z" />
    <glyph glyph-name="x" unicode="x" 
d="M483 0l-107 190l-96 -190h-144l173 307l-167 293h144l101 -178l93 178h144l-170 -296l173 -304h-144z" />
    <glyph glyph-name="y" unicode="y" horiz-adv-x="596" 
d="M172 -208q-27 0 -58.5 3t-66.5 8l11 107q31 -5 55.5 -8.5t43.5 -3.5q58 0 83.5 27.5t38.5 78.5l2 10h-87l-155 586h140l123 -501l118 501h136l-158 -627q-28 -97 -82 -139t-144 -42z" />
    <glyph glyph-name="z" unicode="z" horiz-adv-x="680" 
d="M561 0h-441v107l289 386h-289v107h441v-107l-281 -386h281v-107z" />
    <glyph glyph-name="braceleft.salt_straight" unicode="&#xe05e;" horiz-adv-x="680" 
d="M542 -210q-90 -1 -153.5 8.5t-103.5 32t-58.5 59.5t-18.5 92v198q0 24 -7.5 41t-25.5 28t-47.5 16.5t-72.5 6.5v80q86 2 119.5 22t33.5 67v172q0 56 18.5 94.5t59 61.5t104 32.5t152.5 8.5v-109q-56 1 -94 -3.5t-61.5 -17.5t-33.5 -34.5t-10 -54.5v-161q0 -30 -9 -51
t-29 -35t-53.5 -21t-81.5 -8v-5q49 -4 82 -13t53 -24t29 -36t9 -49v-176q0 -35 10 -57.5t33.5 -35.5t61.5 -18t94 -4v-107v0z" />
    <glyph glyph-name="braceleft.salt_straight" unicode="{" horiz-adv-x="680" 
d="M542 -210q-90 -1 -153.5 8.5t-103.5 32t-58.5 59.5t-18.5 92v198q0 24 -7.5 41t-25.5 28t-47.5 16.5t-72.5 6.5v80q86 2 119.5 22t33.5 67v172q0 56 18.5 94.5t59 61.5t104 32.5t152.5 8.5v-109q-56 1 -94 -3.5t-61.5 -17.5t-33.5 -34.5t-10 -54.5v-161q0 -30 -9 -51
t-29 -35t-53.5 -21t-81.5 -8v-5q49 -4 82 -13t53 -24t29 -36t9 -49v-176q0 -35 10 -57.5t33.5 -35.5t61.5 -18t94 -4v-107v0z" />
    <glyph glyph-name="bar" unicode="|" horiz-adv-x="604" 
d="M245 -200v1000h115v-1000h-115z" />
    <glyph glyph-name="braceright.salt_straight" unicode="&#xe05f;" horiz-adv-x="680" 
d="M137 -103q56 -1 94 4t61.5 18t33.5 35.5t10 57.5v176q0 28 9 49t29.5 36t53.5 24t82 13v5q-49 1 -82 8t-53.5 21t-29.5 35t-9 51v161q0 33 -10 54.5t-33.5 34.5t-61.5 17.5t-94 3.5v109q89 1 152.5 -8.5t104 -32.5t59.5 -61.5t19 -94.5v-172q0 -24 7.5 -40.5t25.5 -27
t47 -15.5t72 -6v-80q-44 -1 -73 -6.5t-46.5 -16.5t-25 -28t-7.5 -41v-198q0 -55 -18.5 -92t-59 -59.5t-104 -32t-153.5 -8.5v107z" />
    <glyph glyph-name="braceright.salt_straight" unicode="}" horiz-adv-x="680" 
d="M137 -103q56 -1 94 4t61.5 18t33.5 35.5t10 57.5v176q0 28 9 49t29.5 36t53.5 24t82 13v5q-49 1 -82 8t-53.5 21t-29.5 35t-9 51v161q0 33 -10 54.5t-33.5 34.5t-61.5 17.5t-94 3.5v109q89 1 152.5 -8.5t104 -32.5t59.5 -61.5t19 -94.5v-172q0 -24 7.5 -40.5t25.5 -27
t47 -15.5t72 -6v-80q-44 -1 -73 -6.5t-46.5 -16.5t-25 -28t-7.5 -41v-198q0 -55 -18.5 -92t-59 -59.5t-104 -32t-153.5 -8.5v107z" />
    <glyph glyph-name="asciitilde" unicode="~" horiz-adv-x="847" 
d="M560 206q-57 0 -97 31.5t-74 96.5q-35 66 -56.5 96t-50.5 30q-26 0 -40.5 -24t-14.5 -84v-136h-124v142q0 113 50 174.5t137 61.5q60 0 100.5 -31t74.5 -96q34 -66 54.5 -96t46.5 -30q28 0 42.5 24.5t14.5 87.5v131h122v-137q0 -119 -50.5 -180t-134.5 -61z" />
    <glyph glyph-name="exclamdown" unicode="&#xa1;" horiz-adv-x="677" 
d="M339 810q54 0 81.5 -20.5t27.5 -63.5v-28q0 -44 -27.5 -65t-81.5 -21t-81 21t-27 65v28q0 43 27.5 63.5t80.5 20.5zM405 500l25 -500h-174l25 500h124z" />
    <glyph glyph-name="cent" unicode="&#xa2;" horiz-adv-x="680" 
d="M238 321q0 -58 16.5 -87.5t55.5 -36.5v406q-38 -7 -55 -36.5t-17 -87.5v-158zM298 -50v143q-97 11 -146 71t-49 163v150q0 102 50.5 160.5t144.5 69.5v143h90v-142q90 -10 134 -64t54 -153l-129 -10q-4 59 -20 86t-50 34v-403q36 6 51 30t19 81l129 -10
q-6 -96 -47.5 -147.5t-140.5 -59.5v-142h-90z" />
    <glyph glyph-name="sterling" unicode="&#xa3;" 
d="M683 238q-7 -121 -63 -184.5t-152 -63.5q-40 0 -77.5 18l-71.5 35q-34 16 -64 22.5t-58 -14.5l-77 -60l-61 90l82 55q30 22 52 67.5t22 90.5q0 25 -4 44.5t-11 36.5h-120v93h75q-11 23 -18.5 51t-7.5 64q0 103 68 165t190 62q137 0 199.5 -60t68.5 -182l-140 -10
q-5 69 -31 101t-97 32q-62 0 -89 -30.5t-27 -79.5q0 -33 10.5 -60t23.5 -53h154v-93h-113q5 -16 8 -34t3 -39q0 -36 -26 -72.5t-83 -71.5l13 -25q34 22 62 21.5t52 -9.5t46.5 -20.5t46.5 -11.5q41 0 55.5 31.5t19.5 103.5z" />
    <glyph glyph-name="currency" unicode="&#xa4;" horiz-adv-x="771" 
d="M386 201q46 0 68.5 25.5t22.5 83.5v176q0 58 -22.5 85.5t-68.5 27.5t-69 -27.5t-23 -85.5v-176q0 -58 23 -83.5t69 -25.5zM386 90q-48 0 -87.5 12.5t-67.5 37.5l-86 -103l-64 67l97 118q-6 19 -9 41t-3 47v176q0 26 3 49t10 43l-99 120l64 66l88 -105q28 25 67.5 38
t86.5 13q48 0 87.5 -13t67.5 -39l87 103l64 -67l-99 -118q6 -19 9.5 -42t3.5 -48v-176q0 -23 -3 -44t-8 -39l96 -120l-64 -66l-85 100q-28 -25 -68 -38t-88 -13z" />
    <glyph glyph-name="yen" unicode="&#xa5;" horiz-adv-x="688" 
d="M581 100h-167v-100h-140v100h-167v93h167v107h-167v93h122l-197 407h148l167 -397l167 397h141l-196 -407h122v-93h-167v-107h167v-93z" />
    <glyph glyph-name="brokenbar" unicode="&#xa6;" horiz-adv-x="604" 
d="M245 400v400h115v-400h-115zM245 -200v400h115v-400h-115z" />
    <glyph glyph-name="section" unicode="&#xa7;" horiz-adv-x="922" 
d="M453 212q8 -1 16.5 -3.5t16.5 -4.5q44 2 74.5 22t30.5 64q0 41 -29 60t-88 35q-8 1 -16.5 3.5t-16.5 4.5q-43 -1 -74 -21.5t-31 -64.5q0 -41 29 -60t88 -35zM477 -207q-75 0 -146 25.5t-117 68.5l41 102q51 -43 105.5 -64t120.5 -21q46 0 80.5 18t34.5 62
q0 46 -38.5 69.5t-114.5 42.5q-128 27 -187.5 70t-59.5 119q0 60 34 96t87 53q-58 28 -89.5 70t-31.5 106q0 96 72 145t183 49q75 0 143.5 -25.5t119.5 -68.5l-48 -98q-53 40 -104.5 60.5t-114.5 20.5q-57 0 -86.5 -21.5t-29.5 -60.5q0 -46 44.5 -69.5t137.5 -43.5
q111 -26 164.5 -69t53.5 -121q0 -58 -31 -94.5t-80 -55.5q54 -28 82.5 -68.5t28.5 -102.5q0 -94 -70 -144t-184 -50z" />
    <glyph glyph-name="dieresis" unicode="&#xa8;" horiz-adv-x="604" 
d="M197 703q-32 0 -52.5 13.5t-20.5 50.5v10q0 37 20.5 51.5t52.5 14.5q33 0 53 -14.5t20 -51.5v-10q0 -37 -20.5 -50.5t-52.5 -13.5zM407 703q-33 0 -53 13.5t-20 50.5v10q0 37 20 51.5t53 14.5q32 0 52.5 -14.5t20.5 -51.5v-10q0 -37 -21 -50.5t-52 -13.5z" />
    <glyph glyph-name="copyright" unicode="&#xa9;" horiz-adv-x="1097" 
d="M549 -110q-187 0 -276.5 93t-89.5 281v208q0 190 89.5 284t276.5 94t276 -94t89 -284v-208q0 -188 -89 -281t-276 -93zM549 -48q165 0 232.5 77t67.5 248v182q0 172 -67.5 250.5t-232.5 78.5t-233 -78.5t-68 -250.5v-182q0 -171 68 -248t233 -77zM551 97q-106 0 -152 53
t-46 154v135q0 99 46.5 151.5t151.5 52.5q99 0 147 -48t55 -149l-122 -6q-3 66 -19.5 87.5t-56.5 21.5t-58 -24.5t-18 -82.5v-144q0 -58 18.5 -82.5t58.5 -24.5q39 0 55.5 19.5t19.5 80.5l122 -6q-6 -98 -54.5 -143t-147.5 -45z" />
    <glyph glyph-name="ordfeminine" unicode="&#xaa;" horiz-adv-x="680" 
d="M289 392q28 0 53.5 12.5t47.5 42.5v64h-104q-27 0 -42 -12.5t-15 -47.5q0 -29 14 -44t46 -15zM263 308q-59 0 -104 34t-45 102q0 67 43.5 103.5t114.5 36.5h118v54q0 41 -18.5 62.5t-55.5 21.5q-34 0 -53 -15t-31 -64l-107 22q14 74 59 109.5t135 35.5q89 0 139.5 -39
t50.5 -126v-177q0 -47 21 -57t62 -4v-91q-54 -9 -95 4t-57 76h-18q-21 -37 -64.5 -62.5t-94.5 -25.5z" />
    <glyph glyph-name="guillemotleft" unicode="&#xab;" horiz-adv-x="922" 
d="M783 72l-307 211v134l307 211v-123l-225 -155l225 -155v-123zM447 72l-307 211v134l307 211v-123l-224 -155l224 -155v-123z" />
    <glyph glyph-name="logicalnot" unicode="&#xac;" horiz-adv-x="771" 
d="M560 0v291h-467v119h585v-410h-118z" />
    <glyph glyph-name="registered" unicode="&#xae;" horiz-adv-x="839" 
d="M420 136q-143 0 -211 68t-68 204v173q0 139 68.5 209t211.5 70q142 0 210 -70t68 -209v-173q0 -136 -68 -204t-211 -68zM420 189q119 0 170 54.5t51 170.5v160q0 120 -51 176.5t-170 56.5q-120 0 -171 -56.5t-51 -176.5v-160q0 -116 51 -170.5t171 -54.5zM380 502h62
q14 0 26.5 7t12.5 32v28q0 28 -12.5 38.5t-26.5 10.5h-62v-116zM380 316h-85v365h155q46 0 81.5 -26t35.5 -86v-28q0 -39 -17.5 -59.5t-42.5 -29.5l75 -136h-93l-71 127h-38v-127z" />
    <glyph glyph-name="macron" unicode="&#x2c9;" horiz-adv-x="604" 
d="M121 745v110h362v-110h-362z" />
    <glyph glyph-name="macron" unicode="&#xaf;" horiz-adv-x="604" 
d="M121 745v110h362v-110h-362z" />
    <glyph glyph-name="degree" unicode="&#xb0;" horiz-adv-x="521" 
d="M260 336q-82 0 -133 44t-51 134v110q0 92 51 137t133 45q84 0 134.5 -45t50.5 -137v-110q0 -90 -51 -134t-134 -44zM260 436q35 0 53 19.5t18 65.5v96q0 45 -18 66.5t-53 21.5t-52.5 -21.5t-17.5 -66.5v-96q0 -46 17.5 -65.5t52.5 -19.5z" />
    <glyph glyph-name="plusminus" unicode="&#xb1;" horiz-adv-x="771" 
d="M326 100v290h-233v120h233v290h119v-290h233v-120h-233v-290h-119zM93 0v120h585v-120h-585z" />
    <glyph glyph-name="two.sups" unicode="&#xb2;" horiz-adv-x="521" 
d="M76 304v110q0 53 22.5 91.5t74.5 51.5l102 25q30 7 42 21.5t12 45.5v14q0 33 -16 48t-53 15t-51.5 -17t-17.5 -65l-110 7q4 77 44.5 116t134.5 39q93 0 136 -37.5t43 -105.5v-28q0 -57 -26 -88.5t-69 -41.5l-102 -25q-31 -7 -43.5 -20t-12.5 -45v-26h259v-85h-369z" />
    <glyph glyph-name="three.sups" unicode="&#xb3;" horiz-adv-x="521" 
d="M263 298q-97 0 -142.5 37t-49.5 111l110 6q4 -40 19.5 -55t59.5 -15t59.5 15t15.5 46v16q0 34 -15.5 48t-56.5 14h-89v85h89q34 0 48 10t14 38v16q0 30 -17.5 41t-51.5 11t-48 -13t-17 -45l-110 6q4 72 47 104t127 32q81 0 130 -27.5t49 -96.5v-14q0 -41 -21 -64.5
t-54 -28.5v-18q37 -4 61.5 -31.5t24.5 -74.5v-11q0 -75 -46.5 -108.5t-135.5 -33.5z" />
    <glyph glyph-name="acute" unicode="&#xb4;" horiz-adv-x="604" 
d="M195 700l97 200h182l-180 -200h-99z" />
    <glyph glyph-name="mu1" unicode="&#xb5;" 
d="M243 20l8 -220h-157l8 220v580h141v-400q0 -51 25 -72.5t61 -21.5q34 0 61 13.5t46 44.5v436h141v-429q0 -47 24.5 -60.5t75.5 -4.5v-106q-72 -14 -117.5 4.5t-63.5 81.5h-22q-18 -40 -52 -68t-84 -28q-29 0 -53.5 12.5t-41.5 37.5v-20z" />
    <glyph glyph-name="paragraph" unicode="&#xb6;" horiz-adv-x="922" 
d="M587 340h-84v-540h-140v540q-84 0 -138 49t-54 148v52q0 104 53.5 157.5t137.5 53.5h365v-1000h-140v540z" />
    <glyph glyph-name="periodcentered" unicode="&#x2219;" horiz-adv-x="604" 
d="M303 274q-52 0 -84 25t-32 75v49q0 50 32 76t84 26q51 0 82.5 -26t31.5 -76v-49q0 -50 -32 -75t-82 -25z" />
    <glyph glyph-name="periodcentered" unicode="&#xb7;" horiz-adv-x="604" 
d="M303 274q-52 0 -84 25t-32 75v49q0 50 32 76t84 26q51 0 82.5 -26t31.5 -76v-49q0 -50 -32 -75t-82 -25z" />
    <glyph glyph-name="cedilla" unicode="&#xb8;" horiz-adv-x="604" 
d="M277 0l16 42q68 -9 106 -40.5t38 -91.5q0 -66 -47 -97.5t-115 -31.5q-74 0 -118.5 28t-48.5 88l119 10q1 -19 10.5 -26.5t31.5 -7.5q24 0 35.5 11.5t11.5 45.5q0 32 -8.5 47t-30.5 23z" />
    <glyph glyph-name="one.sups" unicode="&#xb9;" horiz-adv-x="521" 
d="M118 304v85h113v302h-16q-7 -41 -37 -65.5t-66 -26.5l-5 86q38 4 75.5 32.5t50.5 82.5h108v-411h104v-85h-327z" />
    <glyph glyph-name="ordmasculine" unicode="&#xba;" horiz-adv-x="680" 
d="M340 308q-87 0 -144.5 45.5t-57.5 138.5v129q0 95 58 142t145 47t144.5 -47t57.5 -142v-129q0 -93 -58 -138.5t-145 -45.5zM340 399q45 0 64 23t19 75v123q0 49 -19 73.5t-64 24.5q-44 0 -63 -24.5t-19 -74.5v-122q0 -52 19 -75t63 -23z" />
    <glyph glyph-name="guillemotright" unicode="&#xbb;" horiz-adv-x="922" 
d="M140 72v123l225 155l-225 155v123l307 -211v-134zM476 72v123l225 155l-225 155v123l307 -211v-134z" />
    <glyph glyph-name="onequarter" unicode="&#xbc;" horiz-adv-x="1317" 
d="M957 204h116v176zM1261 123h-78v-123h-110v123h-212v81l188 292h134v-292h78v-81zM123 304v85h113v302h-16q-7 -41 -37 -65.5t-66 -26.5l-5 86q38 4 75.5 32.5t50.5 82.5h108v-411h104v-85h-327zM432 0l335 800h118l-334 -800h-119z" />
    <glyph glyph-name="onehalf" unicode="&#xbd;" horiz-adv-x="1317" 
d="M123 304v85h113v302h-16q-7 -41 -37 -65.5t-66 -26.5l-5 86q38 4 75.5 32.5t50.5 82.5h108v-411h104v-85h-327zM866 0v110q0 53 22.5 91.5t74.5 51.5l102 25q30 7 42 21.5t12 45.5v14q0 33 -16 48t-53 15t-51.5 -17t-17.5 -65l-110 7q4 77 44.5 116t134.5 39
q93 0 136 -37.5t43 -105.5v-28q0 -57 -26 -88.5t-69 -41.5l-102 -25q-31 -7 -43.5 -20t-12.5 -45v-26h259v-85h-369zM432 0l335 800h118l-334 -800h-119z" />
    <glyph glyph-name="threequarters" unicode="&#xbe;" horiz-adv-x="1317" 
d="M957 204h116v176zM1261 123h-78v-123h-110v123h-212v81l188 292h134v-292h78v-81zM432 0l335 800h118l-334 -800h-119zM268 298q-97 0 -142.5 37t-49.5 111l110 6q4 -40 19.5 -55t59.5 -15t59.5 15t15.5 46v16q0 34 -15.5 48t-56.5 14h-89v85h89q34 0 48 10t14 38v16
q0 30 -17.5 41t-51.5 11t-48 -13t-17 -45l-110 6q4 72 47 104t127 32q81 0 130 -27.5t49 -96.5v-14q0 -41 -21 -64.5t-54 -28.5v-18q37 -4 61.5 -31.5t24.5 -74.5v-11q0 -75 -46.5 -108.5t-135.5 -33.5z" />
    <glyph glyph-name="questiondown" unicode="&#xbf;" horiz-adv-x="855" 
d="M471 810q54 0 81.5 -20.5t27.5 -63.5v-28q0 -44 -27.5 -65t-81.5 -21t-81.5 21t-27.5 65v28q0 43 27.5 63.5t81.5 20.5zM526 504l17 -98q-146 -28 -194.5 -63t-48.5 -95v-27q0 -60 28 -92t103 -32q78 0 105 32.5t33 121.5l141 -10q-7 -135 -72.5 -193t-205.5 -58
q-134 0 -203 61.5t-69 159.5v41q0 108 83.5 163.5t282.5 88.5z" />
    <glyph glyph-name="Agrave" unicode="&#xc0;" 
d="M464 323l-88 355l-88 -355h176zM544 0l-52 213h-232l-52 -213h-132l218 800h178l216 -800h-144zM371 900l-179 200h182l96 -200h-99z" />
    <glyph glyph-name="Aacute" unicode="&#xc1;" 
d="M464 323l-88 355l-88 -355h176zM544 0l-52 213h-232l-52 -213h-132l218 800h178l216 -800h-144zM275 900l97 200h182l-180 -200h-99z" />
    <glyph glyph-name="Acircumflex" unicode="&#xc2;" 
d="M464 323l-88 355l-88 -355h176zM544 0l-52 213h-232l-52 -213h-132l218 800h178l216 -800h-144zM223 900l-49 68l154 152h106l156 -152l-48 -67l-161 109z" />
    <glyph glyph-name="Atilde" unicode="&#xc3;" 
d="M464 323l-88 355l-88 -355h176zM544 0l-52 213h-232l-52 -213h-132l218 800h178l216 -800h-144zM457 910q-35 0 -56.5 16t-37.5 38l-24.5 36.5t-27.5 16.5t-26 -17.5t-9 -63.5v-16h-93v15q0 80 33.5 131t93.5 51q34 0 55.5 -15.5t37.5 -38.5l24.5 -37t25.5 -17
q16 0 26 18t10 64v16h93v-15q0 -81 -33 -131.5t-92 -50.5z" />
    <glyph glyph-name="Adieresis" unicode="&#xc4;" 
d="M464 323l-88 355l-88 -355h176zM544 0l-52 213h-232l-52 -213h-132l218 800h178l216 -800h-144zM277 903q-32 0 -52.5 13.5t-20.5 50.5v10q0 37 20.5 51.5t52.5 14.5q33 0 53 -14.5t20 -51.5v-10q0 -37 -20.5 -50.5t-52.5 -13.5zM487 903q-33 0 -53 13.5t-20 50.5v10
q0 37 20 51.5t53 14.5q32 0 52.5 -14.5t20.5 -51.5v-10q0 -37 -21 -50.5t-52 -13.5z" />
    <glyph glyph-name="Aring" unicode="&#xc5;" 
d="M464 323l-88 355l-88 -355h176zM544 0l-52 213h-232l-52 -213h-132l218 800h178l216 -800h-144zM382 882q-72 0 -117 36t-45 112v32q0 77 45 114t117 37q73 0 117.5 -37t44.5 -114v-32q0 -76 -45 -112t-117 -36zM382 959q31 0 47 16.5t16 54.5v32q0 37 -16 55.5t-47 18.5
t-47 -18.5t-16 -55.5v-32q0 -38 16 -54.5t47 -16.5z" />
    <glyph glyph-name="AE" unicode="&#xc6;" horiz-adv-x="1006" 
d="M397 689l-112 -366h187v366h-75zM472 213h-220l-65 -213h-130l258 800h584v-111h-286v-202h245v-111h-245v-265h286v-111h-427v213z" />
    <glyph glyph-name="Ccedilla" unicode="&#xc7;" 
d="M396 -10q-150 0 -222 69.5t-72 199.5v278q0 131 72.5 202t221.5 71q139 0 210 -68.5t77 -209.5l-140 -10q-7 99 -40.5 138t-108.5 39q-84 0 -117.5 -38t-33.5 -133v-261q0 -92 33.5 -129t117.5 -37q77 0 110 38.5t39 134.5l140 -10q-4 -138 -75.5 -206t-211.5 -68zM367 0
l16 42q68 -9 106 -40.5t38 -91.5q0 -66 -47 -97.5t-115 -31.5q-74 0 -118.5 28t-48.5 88l119 10q1 -19 10.5 -26.5t31.5 -7.5q24 0 35.5 11.5t11.5 45.5q0 32 -8.5 47t-30.5 23z" />
    <glyph glyph-name="Egrave" unicode="&#xc8;" 
d="M142 0v800h480v-111h-340v-202h298v-111h-298v-265h340v-111h-480zM375 900l-179 200h182l96 -200h-99z" />
    <glyph glyph-name="Eacute" unicode="&#xc9;" 
d="M142 0v800h480v-111h-340v-202h298v-111h-298v-265h340v-111h-480zM279 900l97 200h182l-180 -200h-99z" />
    <glyph glyph-name="Ecircumflex" unicode="&#xca;" 
d="M142 0v800h480v-111h-340v-202h298v-111h-298v-265h340v-111h-480zM227 900l-49 68l154 152h106l156 -152l-48 -67l-161 109z" />
    <glyph glyph-name="Edieresis" unicode="&#xcb;" 
d="M142 0v800h480v-111h-340v-202h298v-111h-298v-265h340v-111h-480zM283 903q-32 0 -52.5 13.5t-20.5 50.5v10q0 37 20.5 51.5t52.5 14.5q33 0 53 -14.5t20 -51.5v-10q0 -37 -20.5 -50.5t-52.5 -13.5zM493 903q-33 0 -53 13.5t-20 50.5v10q0 37 20 51.5t53 14.5
q32 0 52.5 -14.5t20.5 -51.5v-10q0 -37 -21 -50.5t-52 -13.5z" />
    <glyph glyph-name="Igrave" unicode="&#xcc;" horiz-adv-x="680" 
d="M103 0v111h167v578h-167v111h475v-111h-167v-578h167v-111h-475zM328 900l-179 200h182l96 -200h-99z" />
    <glyph glyph-name="Iacute" unicode="&#xcd;" horiz-adv-x="680" 
d="M103 0v111h167v578h-167v111h475v-111h-167v-578h167v-111h-475zM232 900l97 200h182l-180 -200h-99z" />
    <glyph glyph-name="Icircumflex" unicode="&#xce;" horiz-adv-x="680" 
d="M103 0v111h167v578h-167v111h475v-111h-167v-578h167v-111h-475zM180 900l-49 68l154 152h106l156 -152l-48 -67l-161 109z" />
    <glyph glyph-name="Idieresis" unicode="&#xcf;" horiz-adv-x="680" 
d="M103 0v111h167v578h-167v111h475v-111h-167v-578h167v-111h-475zM234 903q-32 0 -52.5 13.5t-20.5 50.5v10q0 37 20.5 51.5t52.5 14.5q33 0 53 -14.5t20 -51.5v-10q0 -37 -20.5 -50.5t-52.5 -13.5zM444 903q-33 0 -53 13.5t-20 50.5v10q0 37 20 51.5t53 14.5
q32 0 52.5 -14.5t20.5 -51.5v-10q0 -37 -21 -50.5t-52 -13.5z" />
    <glyph glyph-name="Eth" unicode="&#xd0;" 
d="M102 0v390h-83v101h83v309h272q134 0 210 -75.5t76 -200.5v-252q0 -124 -76 -198t-211 -74h-271zM243 111h119q85 0 121.5 41t36.5 129v234q0 89 -36.5 131.5t-121.5 42.5h-119v-198h139v-101h-139v-279z" />
    <glyph glyph-name="Ntilde" unicode="&#xd1;" 
d="M470 0l-246 634v-634h-122v800h191l245 -617v617h122v-800h-190zM485 910q-35 0 -56.5 16t-37.5 38l-24.5 36.5t-27.5 16.5t-26 -17.5t-9 -63.5v-16h-93v15q0 80 33.5 131t93.5 51q34 0 55.5 -15.5t37.5 -38.5l24.5 -37t25.5 -17q16 0 26 18t10 64v16h93v-15
q0 -81 -33 -131.5t-92 -50.5z" />
    <glyph glyph-name="Ograve" unicode="&#xd2;" 
d="M382 -10q-137 0 -208.5 70.5t-71.5 201.5v275q0 131 72 202t208 71t207 -71t71 -202v-275q0 -131 -71 -201.5t-207 -70.5zM382 101q75 0 106.5 38t31.5 131v259q0 93 -31.5 131.5t-106.5 38.5q-76 0 -107.5 -38.5t-31.5 -131.5v-259q0 -93 31.5 -131t107.5 -38zM371 900
l-179 200h182l96 -200h-99z" />
    <glyph glyph-name="Oacute" unicode="&#xd3;" 
d="M382 -10q-137 0 -208.5 70.5t-71.5 201.5v275q0 131 72 202t208 71t207 -71t71 -202v-275q0 -131 -71 -201.5t-207 -70.5zM382 101q75 0 106.5 38t31.5 131v259q0 93 -31.5 131.5t-106.5 38.5q-76 0 -107.5 -38.5t-31.5 -131.5v-259q0 -93 31.5 -131t107.5 -38zM275 900
l97 200h182l-180 -200h-99z" />
    <glyph glyph-name="Ocircumflex" unicode="&#xd4;" 
d="M382 -10q-137 0 -208.5 70.5t-71.5 201.5v275q0 131 72 202t208 71t207 -71t71 -202v-275q0 -131 -71 -201.5t-207 -70.5zM382 101q75 0 106.5 38t31.5 131v259q0 93 -31.5 131.5t-106.5 38.5q-76 0 -107.5 -38.5t-31.5 -131.5v-259q0 -93 31.5 -131t107.5 -38zM223 900
l-49 68l154 152h106l156 -152l-48 -67l-161 109z" />
    <glyph glyph-name="Otilde" unicode="&#xd5;" 
d="M382 -10q-137 0 -208.5 70.5t-71.5 201.5v275q0 131 72 202t208 71t207 -71t71 -202v-275q0 -131 -71 -201.5t-207 -70.5zM382 101q75 0 106.5 38t31.5 131v259q0 93 -31.5 131.5t-106.5 38.5q-76 0 -107.5 -38.5t-31.5 -131.5v-259q0 -93 31.5 -131t107.5 -38zM457 910
q-35 0 -56.5 16t-37.5 38l-24.5 36.5t-27.5 16.5t-26 -17.5t-9 -63.5v-16h-93v15q0 80 33.5 131t93.5 51q34 0 55.5 -15.5t37.5 -38.5l24.5 -37t25.5 -17q16 0 26 18t10 64v16h93v-15q0 -81 -33 -131.5t-92 -50.5z" />
    <glyph glyph-name="Odieresis" unicode="&#xd6;" 
d="M382 -10q-137 0 -208.5 70.5t-71.5 201.5v275q0 131 72 202t208 71t207 -71t71 -202v-275q0 -131 -71 -201.5t-207 -70.5zM382 101q75 0 106.5 38t31.5 131v259q0 93 -31.5 131.5t-106.5 38.5q-76 0 -107.5 -38.5t-31.5 -131.5v-259q0 -93 31.5 -131t107.5 -38zM277 903
q-32 0 -52.5 13.5t-20.5 50.5v10q0 37 20.5 51.5t52.5 14.5q33 0 53 -14.5t20 -51.5v-10q0 -37 -20.5 -50.5t-52.5 -13.5zM487 903q-33 0 -53 13.5t-20 50.5v10q0 37 20 51.5t53 14.5q32 0 52.5 -14.5t20.5 -51.5v-10q0 -37 -21 -50.5t-52 -13.5z" />
    <glyph glyph-name="multiply" unicode="&#xd7;" horiz-adv-x="771" 
d="M192 25l-76 73l200 252l-200 252l76 74l194 -245l194 242l75 -74l-200 -249l200 -249l-76 -73l-193 242z" />
    <glyph glyph-name="Oslash" unicode="&#xd8;" 
d="M262 163l168 531q-10 3 -22.5 4t-25.5 1q-77 0 -108 -37.5t-31 -132.5v-262q0 -34 4.5 -60t14.5 -44zM382 101q76 0 107 36.5t31 129.5v262q0 34 -5.5 58.5t-17.5 40.5l-169 -521q12 -4 25 -5t29 -1zM382 -10q-22 0 -43 2.5t-40 6.5l-34 -99h-107l49 135
q-52 33 -78.5 90.5t-26.5 133.5v278q0 128 71.5 200.5t208.5 72.5q21 0 40 -1.5t37 -5.5l33 97h107l-46 -132q54 -34 80.5 -93t26.5 -138v-278q0 -126 -70.5 -197.5t-207.5 -71.5z" />
    <glyph glyph-name="Ugrave" unicode="&#xd9;" 
d="M382 -10q-145 0 -212.5 68.5t-67.5 208.5v533h141v-529q0 -89 30.5 -128t108.5 -39t108 39t30 128v529h140v-533q0 -140 -67 -208.5t-211 -68.5zM371 900l-179 200h182l96 -200h-99z" />
    <glyph glyph-name="Uacute" unicode="&#xda;" 
d="M382 -10q-145 0 -212.5 68.5t-67.5 208.5v533h141v-529q0 -89 30.5 -128t108.5 -39t108 39t30 128v529h140v-533q0 -140 -67 -208.5t-211 -68.5zM275 900l97 200h182l-180 -200h-99z" />
    <glyph glyph-name="Ucircumflex" unicode="&#xdb;" 
d="M382 -10q-145 0 -212.5 68.5t-67.5 208.5v533h141v-529q0 -89 30.5 -128t108.5 -39t108 39t30 128v529h140v-533q0 -140 -67 -208.5t-211 -68.5zM223 900l-49 68l154 152h106l156 -152l-48 -67l-161 109z" />
    <glyph glyph-name="Udieresis" unicode="&#xdc;" 
d="M382 -10q-145 0 -212.5 68.5t-67.5 208.5v533h141v-529q0 -89 30.5 -128t108.5 -39t108 39t30 128v529h140v-533q0 -140 -67 -208.5t-211 -68.5zM277 903q-32 0 -52.5 13.5t-20.5 50.5v10q0 37 20.5 51.5t52.5 14.5q33 0 53 -14.5t20 -51.5v-10q0 -37 -20.5 -50.5
t-52.5 -13.5zM487 903q-33 0 -53 13.5t-20 50.5v10q0 37 20 51.5t53 14.5q32 0 52.5 -14.5t20.5 -51.5v-10q0 -37 -21 -50.5t-52 -13.5z" />
    <glyph glyph-name="Yacute" unicode="&#xdd;" horiz-adv-x="680" 
d="M411 0h-141v300l-241 500h149l166 -381l166 381h141l-240 -500v-300zM236 900l97 200h182l-180 -200h-99z" />
    <glyph glyph-name="Thorn" unicode="&#xde;" horiz-adv-x="680" 
d="M103 0v800h141v-127h125q111 0 172.5 -57t61.5 -164v-91q0 -107 -61.5 -164t-171.5 -57h-126v-140h-141zM244 249h107q57 0 84.5 27.5t27.5 90.5v82q0 60 -27.5 87t-84.5 27h-107v-314z" />
    <glyph glyph-name="germandbls" unicode="&#xdf;" horiz-adv-x="839" 
d="M536 -6q-58 0 -117 20.5t-99 56.5l38 91q40 -32 90.5 -51t96.5 -19q35 0 57 15.5t22 51.5q0 37 -27.5 53t-87.5 30q-97 24 -136.5 62.5t-39.5 109.5q0 77 50 124.5t136 54.5q-7 56 -44 80.5t-91 24.5q-59 0 -95 -38.5t-36 -113.5v-546h-141v559q0 119 76 184t195 65
q122 0 196.5 -68.5t74.5 -175.5v-53q-101 1 -147 -16.5t-46 -63.5q0 -40 31.5 -55.5t97.5 -32.5q89 -22 125.5 -61t36.5 -109q0 -84 -59 -131.5t-157 -47.5z" />
    <glyph glyph-name="agrave" unicode="&#xe0;" 
d="M320 88q35 0 67 13t55 44v104h-131q-31 0 -50 -17.5t-19 -61.5q0 -40 19 -61t59 -21zM288 -10q-81 0 -130.5 45t-49.5 127q0 81 49 126t133 45h152v85q0 43 -24 67.5t-71 24.5q-49 0 -71.5 -21.5t-35.5 -81.5l-120 24q17 93 77 136t160 43q104 0 164.5 -43.5t60.5 -139.5
v-256q0 -48 24.5 -61t76.5 -4v-106q-72 -14 -120 4.5t-61 83.5h-23q-25 -43 -76 -70.5t-115 -27.5zM342 700l-179 200h182l96 -200h-99z" />
    <glyph glyph-name="aacute" unicode="&#xe1;" 
d="M320 88q35 0 67 13t55 44v104h-131q-31 0 -50 -17.5t-19 -61.5q0 -40 19 -61t59 -21zM288 -10q-81 0 -130.5 45t-49.5 127q0 81 49 126t133 45h152v85q0 43 -24 67.5t-71 24.5q-49 0 -71.5 -21.5t-35.5 -81.5l-120 24q17 93 77 136t160 43q104 0 164.5 -43.5t60.5 -139.5
v-256q0 -48 24.5 -61t76.5 -4v-106q-72 -14 -120 4.5t-61 83.5h-23q-25 -43 -76 -70.5t-115 -27.5zM246 700l97 200h182l-180 -200h-99z" />
    <glyph glyph-name="acircumflex" unicode="&#xe2;" 
d="M320 88q35 0 67 13t55 44v104h-131q-31 0 -50 -17.5t-19 -61.5q0 -40 19 -61t59 -21zM288 -10q-81 0 -130.5 45t-49.5 127q0 81 49 126t133 45h152v85q0 43 -24 67.5t-71 24.5q-49 0 -71.5 -21.5t-35.5 -81.5l-120 24q17 93 77 136t160 43q104 0 164.5 -43.5t60.5 -139.5
v-256q0 -48 24.5 -61t76.5 -4v-106q-72 -14 -120 4.5t-61 83.5h-23q-25 -43 -76 -70.5t-115 -27.5zM194 700l-49 68l154 152h106l156 -152l-48 -67l-161 109z" />
    <glyph glyph-name="atilde" unicode="&#xe3;" 
d="M320 88q35 0 67 13t55 44v104h-131q-31 0 -50 -17.5t-19 -61.5q0 -40 19 -61t59 -21zM288 -10q-81 0 -130.5 45t-49.5 127q0 81 49 126t133 45h152v85q0 43 -24 67.5t-71 24.5q-49 0 -71.5 -21.5t-35.5 -81.5l-120 24q17 93 77 136t160 43q104 0 164.5 -43.5t60.5 -139.5
v-256q0 -48 24.5 -61t76.5 -4v-106q-72 -14 -120 4.5t-61 83.5h-23q-25 -43 -76 -70.5t-115 -27.5zM428 710q-35 0 -56.5 16t-37.5 38l-24.5 36.5t-27.5 16.5t-26 -17.5t-9 -63.5v-16h-93v15q0 80 33.5 131t93.5 51q34 0 55.5 -15.5t37.5 -38.5l24.5 -37t25.5 -17
q16 0 26 18t10 64v16h93v-15q0 -81 -33 -131.5t-92 -50.5z" />
    <glyph glyph-name="adieresis" unicode="&#xe4;" 
d="M320 88q35 0 67 13t55 44v104h-131q-31 0 -50 -17.5t-19 -61.5q0 -40 19 -61t59 -21zM288 -10q-81 0 -130.5 45t-49.5 127q0 81 49 126t133 45h152v85q0 43 -24 67.5t-71 24.5q-49 0 -71.5 -21.5t-35.5 -81.5l-120 24q17 93 77 136t160 43q104 0 164.5 -43.5t60.5 -139.5
v-256q0 -48 24.5 -61t76.5 -4v-106q-72 -14 -120 4.5t-61 83.5h-23q-25 -43 -76 -70.5t-115 -27.5zM248 703q-32 0 -52.5 13.5t-20.5 50.5v10q0 37 20.5 51.5t52.5 14.5q33 0 53 -14.5t20 -51.5v-10q0 -37 -20.5 -50.5t-52.5 -13.5zM458 703q-33 0 -53 13.5t-20 50.5v10
q0 37 20 51.5t53 14.5q32 0 52.5 -14.5t20.5 -51.5v-10q0 -37 -21 -50.5t-52 -13.5z" />
    <glyph glyph-name="aring" unicode="&#xe5;" 
d="M320 88q35 0 67 13t55 44v104h-131q-31 0 -50 -17.5t-19 -61.5q0 -40 19 -61t59 -21zM288 -10q-81 0 -130.5 45t-49.5 127q0 81 49 126t133 45h152v85q0 43 -24 67.5t-71 24.5q-49 0 -71.5 -21.5t-35.5 -81.5l-120 24q17 93 77 136t160 43q104 0 164.5 -43.5t60.5 -139.5
v-256q0 -48 24.5 -61t76.5 -4v-106q-72 -14 -120 4.5t-61 83.5h-23q-25 -43 -76 -70.5t-115 -27.5zM353 682q-72 0 -117 36t-45 112v32q0 77 45 114t117 37q73 0 117.5 -37t44.5 -114v-32q0 -76 -45 -112t-117 -36zM353 759q31 0 47 16.5t16 54.5v32q0 37 -16 55.5t-47 18.5
t-47 -18.5t-16 -55.5v-32q0 -38 16 -54.5t47 -16.5z" />
    <glyph glyph-name="ae" unicode="&#xe6;" horiz-adv-x="930" 
d="M827 147q-19 -85 -68.5 -121t-133.5 -36q-59 0 -101.5 21.5t-64.5 65.5h-21q-23 -40 -66 -63.5t-100 -23.5q-69 0 -119.5 41.5t-50.5 127.5q0 84 53 129t140 45h105v82q0 43 -18 66.5t-55 23.5t-55 -17t-31 -68l-127 24q17 84 64.5 125t142.5 41q52 0 92 -16.5t63 -51.5
q26 34 65.5 51t87.5 17q89 0 143.5 -53t54.5 -157v-127h-286v-94q0 -44 19 -67t63 -23q38 0 58 15t28 57zM541 412v-55h152v46q0 59 -17 84.5t-59 25.5t-59 -24t-17 -77zM400 136v113h-89q-34 0 -54 -18.5t-20 -62.5q0 -40 14 -60t48 -20q28 0 54.5 11.5t46.5 36.5z" />
    <glyph glyph-name="ccedilla" unicode="&#xe7;" 
d="M382 -10q-122 0 -182 56.5t-60 159.5v185q0 110 64 164.5t178 54.5t174 -53t68 -157l-136 -9q-4 63 -27 87t-77 24q-56 0 -80 -26t-24 -86v-181q0 -61 24 -86.5t82 -25.5q54 0 76 21.5t26 77.5l136 -10q-6 -99 -64 -147.5t-178 -48.5zM347 0l16 42q68 -9 106 -40.5
t38 -91.5q0 -66 -47 -97.5t-115 -31.5q-74 0 -118.5 28t-48.5 88l119 10q1 -19 10.5 -26.5t31.5 -7.5q24 0 35.5 11.5t11.5 45.5q0 32 -8.5 47t-30.5 23z" />
    <glyph glyph-name="egrave" unicode="&#xe8;" 
d="M620 135q-25 -75 -84.5 -110t-155.5 -35q-111 0 -174 58t-63 162v180q0 104 64 162t174 58t173.5 -59t63.5 -166v-112h-334v-64q0 -64 24.5 -92t80.5 -28q49 0 73.5 18.5t38.5 61.5zM284 390v-33h193v27q0 69 -23 99t-74 30t-73.5 -28.5t-22.5 -94.5zM371 700l-179 200
h182l96 -200h-99z" />
    <glyph glyph-name="eacute" unicode="&#xe9;" 
d="M620 135q-25 -75 -84.5 -110t-155.5 -35q-111 0 -174 58t-63 162v180q0 104 64 162t174 58t173.5 -59t63.5 -166v-112h-334v-64q0 -64 24.5 -92t80.5 -28q49 0 73.5 18.5t38.5 61.5zM284 390v-33h193v27q0 69 -23 99t-74 30t-73.5 -28.5t-22.5 -94.5zM275 700l97 200h182
l-180 -200h-99z" />
    <glyph glyph-name="ecircumflex" unicode="&#xea;" 
d="M620 135q-25 -75 -84.5 -110t-155.5 -35q-111 0 -174 58t-63 162v180q0 104 64 162t174 58t173.5 -59t63.5 -166v-112h-334v-64q0 -64 24.5 -92t80.5 -28q49 0 73.5 18.5t38.5 61.5zM284 390v-33h193v27q0 69 -23 99t-74 30t-73.5 -28.5t-22.5 -94.5zM223 700l-49 68
l154 152h106l156 -152l-48 -67l-161 109z" />
    <glyph glyph-name="edieresis" unicode="&#xeb;" 
d="M620 135q-25 -75 -84.5 -110t-155.5 -35q-111 0 -174 58t-63 162v180q0 104 64 162t174 58t173.5 -59t63.5 -166v-112h-334v-64q0 -64 24.5 -92t80.5 -28q49 0 73.5 18.5t38.5 61.5zM284 390v-33h193v27q0 69 -23 99t-74 30t-73.5 -28.5t-22.5 -94.5zM277 703
q-32 0 -52.5 13.5t-20.5 50.5v10q0 37 20.5 51.5t52.5 14.5q33 0 53 -14.5t20 -51.5v-10q0 -37 -20.5 -50.5t-52.5 -13.5zM487 703q-33 0 -53 13.5t-20 50.5v10q0 37 20 51.5t53 14.5q32 0 52.5 -14.5t20.5 -51.5v-10q0 -37 -21 -50.5t-52 -13.5z" />
    <glyph glyph-name="igrave.salt_topserif" unicode="&#xe038;" horiz-adv-x="513" 
d="M369 0h-140v493h-150v107h290v-600zM287 700l-179 200h182l96 -200h-99z" />
    <glyph glyph-name="igrave.salt_topserif" unicode="&#xec;" horiz-adv-x="513" 
d="M369 0h-140v493h-150v107h290v-600zM287 700l-179 200h182l96 -200h-99z" />
    <glyph glyph-name="iacute.salt_topserif" unicode="&#xe039;" horiz-adv-x="513" 
d="M369 0h-140v493h-150v107h290v-600zM191 700l97 200h182l-180 -200h-99z" />
    <glyph glyph-name="iacute.salt_topserif" unicode="&#xed;" horiz-adv-x="513" 
d="M369 0h-140v493h-150v107h290v-600zM191 700l97 200h182l-180 -200h-99z" />
    <glyph glyph-name="icircumflex.salt_topserif" unicode="&#xe03a;" horiz-adv-x="513" 
d="M369 0h-140v493h-150v107h290v-600zM110 700l-49 68l154 152h106l156 -152l-48 -67l-161 109z" />
    <glyph glyph-name="icircumflex.salt_topserif" unicode="&#xee;" horiz-adv-x="513" 
d="M369 0h-140v493h-150v107h290v-600zM110 700l-49 68l154 152h106l156 -152l-48 -67l-161 109z" />
    <glyph glyph-name="idieresis.salt_topserif" unicode="&#xe03b;" horiz-adv-x="513" 
d="M369 0h-140v493h-150v107h290v-600zM187 703q-32 0 -52.5 13.5t-20.5 50.5v10q0 37 20.5 51.5t52.5 14.5q33 0 53 -14.5t20 -51.5v-10q0 -37 -20.5 -50.5t-52.5 -13.5zM397 703q-33 0 -53 13.5t-20 50.5v10q0 37 20 51.5t53 14.5q32 0 52.5 -14.5t20.5 -51.5v-10
q0 -37 -21 -50.5t-52 -13.5z" />
    <glyph glyph-name="idieresis.salt_topserif" unicode="&#xef;" horiz-adv-x="513" 
d="M369 0h-140v493h-150v107h290v-600zM187 703q-32 0 -52.5 13.5t-20.5 50.5v10q0 37 20.5 51.5t52.5 14.5q33 0 53 -14.5t20 -51.5v-10q0 -37 -20.5 -50.5t-52.5 -13.5zM397 703q-33 0 -53 13.5t-20 50.5v10q0 37 20 51.5t53 14.5q32 0 52.5 -14.5t20.5 -51.5v-10
q0 -37 -21 -50.5t-52 -13.5z" />
    <glyph glyph-name="eth" unicode="&#xf0;" horiz-adv-x="680" 
d="M340 -10q-108 0 -172.5 57.5t-64.5 172.5v72q0 96 53 152t138 56q52 0 85.5 -22t46.5 -52h19q-4 60 -21.5 107t-48.5 82l-146 -78v86l81 44q-27 19 -61.5 35t-76.5 29l78 90q56 -18 101 -39.5t79 -49.5l133 71v-86l-74 -40q46 -54 67.5 -129t21.5 -174v-148
q0 -120 -64.5 -178t-173.5 -58zM341 97q51 0 73.5 29t22.5 89v69q0 55 -22.5 81.5t-73.5 26.5t-73 -26.5t-22 -81.5v-69q0 -60 22 -89t73 -29z" />
    <glyph glyph-name="ntilde" unicode="&#xf1;" horiz-adv-x="680" 
d="M103 0v600h141v-90h25q18 46 59.5 73t93.5 27q72 0 114 -52.5t42 -141.5v-416h-141v394q0 51 -18.5 76.5t-52.5 25.5q-36 0 -66.5 -22.5t-55.5 -62.5v-411h-141zM431 710q-35 0 -56.5 16t-37.5 38l-24.5 36.5t-27.5 16.5t-26 -17.5t-9 -63.5v-16h-93v15q0 80 33.5 131
t93.5 51q34 0 55.5 -15.5t37.5 -38.5l24.5 -37t25.5 -17q16 0 26 18t10 64v16h93v-15q0 -81 -33 -131.5t-92 -50.5z" />
    <glyph glyph-name="ograve" unicode="&#xf2;" horiz-adv-x="680" 
d="M340 -10q-107 0 -172 57.5t-65 164.5v172q0 109 65.5 167.5t172.5 58.5q108 0 172.5 -58.5t64.5 -167.5v-172q0 -107 -65 -164.5t-173 -57.5zM340 97q51 0 74 28t23 91v168q0 62 -23 90.5t-74 28.5t-73.5 -29t-22.5 -91v-167q0 -63 22.5 -91t73.5 -28zM328 700l-179 200
h182l96 -200h-99z" />
    <glyph glyph-name="oacute" unicode="&#xf3;" horiz-adv-x="680" 
d="M340 -10q-107 0 -172 57.5t-65 164.5v172q0 109 65.5 167.5t172.5 58.5q108 0 172.5 -58.5t64.5 -167.5v-172q0 -107 -65 -164.5t-173 -57.5zM340 97q51 0 74 28t23 91v168q0 62 -23 90.5t-74 28.5t-73.5 -29t-22.5 -91v-167q0 -63 22.5 -91t73.5 -28zM232 700l97 200
h182l-180 -200h-99z" />
    <glyph glyph-name="ocircumflex" unicode="&#xf4;" horiz-adv-x="680" 
d="M340 -10q-107 0 -172 57.5t-65 164.5v172q0 109 65.5 167.5t172.5 58.5q108 0 172.5 -58.5t64.5 -167.5v-172q0 -107 -65 -164.5t-173 -57.5zM340 97q51 0 74 28t23 91v168q0 62 -23 90.5t-74 28.5t-73.5 -29t-22.5 -91v-167q0 -63 22.5 -91t73.5 -28zM180 700l-49 68
l154 152h106l156 -152l-48 -67l-161 109z" />
    <glyph glyph-name="otilde" unicode="&#xf5;" horiz-adv-x="680" 
d="M340 -10q-107 0 -172 57.5t-65 164.5v172q0 109 65.5 167.5t172.5 58.5q108 0 172.5 -58.5t64.5 -167.5v-172q0 -107 -65 -164.5t-173 -57.5zM340 97q51 0 74 28t23 91v168q0 62 -23 90.5t-74 28.5t-73.5 -29t-22.5 -91v-167q0 -63 22.5 -91t73.5 -28zM414 710
q-35 0 -56.5 16t-37.5 38l-24.5 36.5t-27.5 16.5t-26 -17.5t-9 -63.5v-16h-93v15q0 80 33.5 131t93.5 51q34 0 55.5 -15.5t37.5 -38.5l24.5 -37t25.5 -17q16 0 26 18t10 64v16h93v-15q0 -81 -33 -131.5t-92 -50.5z" />
    <glyph glyph-name="odieresis" unicode="&#xf6;" horiz-adv-x="680" 
d="M340 -10q-107 0 -172 57.5t-65 164.5v172q0 109 65.5 167.5t172.5 58.5q108 0 172.5 -58.5t64.5 -167.5v-172q0 -107 -65 -164.5t-173 -57.5zM340 97q51 0 74 28t23 91v168q0 62 -23 90.5t-74 28.5t-73.5 -29t-22.5 -91v-167q0 -63 22.5 -91t73.5 -28zM234 703
q-32 0 -52.5 13.5t-20.5 50.5v10q0 37 20.5 51.5t52.5 14.5q33 0 53 -14.5t20 -51.5v-10q0 -37 -20.5 -50.5t-52.5 -13.5zM444 703q-33 0 -53 13.5t-20 50.5v10q0 37 20 51.5t53 14.5q32 0 52.5 -14.5t20.5 -51.5v-10q0 -37 -21 -50.5t-52 -13.5z" />
    <glyph glyph-name="divide" unicode="&#xf7;" horiz-adv-x="771" 
d="M386 521q-37 0 -59.5 16.5t-22.5 51.5v19q0 36 22.5 53.5t59.5 17.5q36 0 58.5 -17.5t22.5 -53.5v-19q0 -35 -22.5 -51.5t-58.5 -16.5zM93 294v112h585v-112h-585zM386 21q-37 0 -59.5 16.5t-22.5 51.5v19q0 36 22.5 53.5t59.5 17.5q36 0 58.5 -17.5t22.5 -53.5v-19
q0 -35 -22.5 -51.5t-58.5 -16.5z" />
    <glyph glyph-name="oslash" unicode="&#xf8;" horiz-adv-x="680" 
d="M233 216q0 -22 3 -40.5t9 -31.5l144 355q-10 3 -22.5 5t-26.5 2q-57 0 -82 -29t-25 -94v-167zM340 94q58 0 83.5 28t25.5 94v168q0 22 -3 40t-10 31l-141 -355q10 -3 21 -4.5t24 -1.5zM340 -10q-20 0 -39 2.5t-37 6.5l-43 -99h-95l58 133q-38 28 -59.5 72.5t-21.5 104.5
v176q0 111 65.5 167.5t172.5 56.5q21 0 40.5 -2.5t36.5 -6.5l42 99h95l-58 -134q39 -28 60 -73t21 -107v-176q0 -109 -65.5 -164.5t-172.5 -55.5z" />
    <glyph glyph-name="ugrave" unicode="&#xf9;" horiz-adv-x="680" 
d="M259 -10q-72 0 -114 52.5t-42 141.5v416h141v-394q0 -50 18 -76t54 -26q33 0 64.5 22.5t56.5 62.5v411h141v-600h-141v90h-24q-17 -46 -58.5 -73t-95.5 -27zM321 700l-179 200h182l96 -200h-99z" />
    <glyph glyph-name="uacute" unicode="&#xfa;" horiz-adv-x="680" 
d="M259 -10q-72 0 -114 52.5t-42 141.5v416h141v-394q0 -50 18 -76t54 -26q33 0 64.5 22.5t56.5 62.5v411h141v-600h-141v90h-24q-17 -46 -58.5 -73t-95.5 -27zM241 700l97 200h182l-180 -200h-99z" />
    <glyph glyph-name="ucircumflex" unicode="&#xfb;" horiz-adv-x="680" 
d="M259 -10q-72 0 -114 52.5t-42 141.5v416h141v-394q0 -50 18 -76t54 -26q33 0 64.5 22.5t56.5 62.5v411h141v-600h-141v90h-24q-17 -46 -58.5 -73t-95.5 -27zM180 700l-49 68l154 152h106l156 -152l-48 -67l-161 109z" />
    <glyph glyph-name="udieresis" unicode="&#xfc;" horiz-adv-x="680" 
d="M259 -10q-72 0 -114 52.5t-42 141.5v416h141v-394q0 -50 18 -76t54 -26q33 0 64.5 22.5t56.5 62.5v411h141v-600h-141v90h-24q-17 -46 -58.5 -73t-95.5 -27zM234 703q-32 0 -52.5 13.5t-20.5 50.5v10q0 37 20.5 51.5t52.5 14.5q33 0 53 -14.5t20 -51.5v-10
q0 -37 -20.5 -50.5t-52.5 -13.5zM444 703q-33 0 -53 13.5t-20 50.5v10q0 37 20 51.5t53 14.5q32 0 52.5 -14.5t20.5 -51.5v-10q0 -37 -21 -50.5t-52 -13.5z" />
    <glyph glyph-name="yacute" unicode="&#xfd;" horiz-adv-x="596" 
d="M172 -208q-27 0 -58.5 3t-66.5 8l11 107q31 -5 55.5 -8.5t43.5 -3.5q58 0 83.5 27.5t38.5 78.5l2 10h-87l-155 586h140l123 -501l118 501h136l-158 -627q-28 -97 -82 -139t-144 -42zM191 700l97 200h182l-180 -200h-99z" />
    <glyph glyph-name="thorn" unicode="&#xfe;" horiz-adv-x="680" 
d="M341 97q51 0 73.5 25.5t22.5 84.5v185q0 54 -18.5 79t-58.5 25q-34 0 -61.5 -17t-54.5 -56v-292q22 -16 45.5 -25t51.5 -9zM362 -9q-32 0 -62.5 7t-55.5 20v-218h-141v1000h141v-290h25q16 47 56.5 73.5t94.5 26.5q77 0 117.5 -57t40.5 -155v-192q0 -101 -57.5 -158
t-158.5 -57z" />
    <glyph glyph-name="ydieresis" unicode="&#xff;" horiz-adv-x="596" 
d="M172 -208q-27 0 -58.5 3t-66.5 8l11 107q31 -5 55.5 -8.5t43.5 -3.5q58 0 83.5 27.5t38.5 78.5l2 10h-87l-155 586h140l123 -501l118 501h136l-158 -627q-28 -97 -82 -139t-144 -42zM193 703q-32 0 -52.5 13.5t-20.5 50.5v10q0 37 20.5 51.5t52.5 14.5q33 0 53 -14.5
t20 -51.5v-10q0 -37 -20.5 -50.5t-52.5 -13.5zM403 703q-33 0 -53 13.5t-20 50.5v10q0 37 20 51.5t53 14.5q32 0 52.5 -14.5t20.5 -51.5v-10q0 -37 -21 -50.5t-52 -13.5z" />
    <glyph glyph-name="Amacron" unicode="&#x100;" 
d="M464 323l-88 355l-88 -355h176zM544 0l-52 213h-232l-52 -213h-132l218 800h178l216 -800h-144zM201 945v110h362v-110h-362z" />
    <glyph glyph-name="amacron" unicode="&#x101;" 
d="M320 88q35 0 67 13t55 44v104h-131q-31 0 -50 -17.5t-19 -61.5q0 -40 19 -61t59 -21zM288 -10q-81 0 -130.5 45t-49.5 127q0 81 49 126t133 45h152v85q0 43 -24 67.5t-71 24.5q-49 0 -71.5 -21.5t-35.5 -81.5l-120 24q17 93 77 136t160 43q104 0 164.5 -43.5t60.5 -139.5
v-256q0 -48 24.5 -61t76.5 -4v-106q-72 -14 -120 4.5t-61 83.5h-23q-25 -43 -76 -70.5t-115 -27.5zM172 745v110h362v-110h-362z" />
    <glyph glyph-name="Abreve" unicode="&#x102;" 
d="M464 323l-88 355l-88 -355h176zM544 0l-52 213h-232l-52 -213h-132l218 800h178l216 -800h-144zM382 893q-104 0 -158.5 53.5t-55.5 166.5h118q1 -71 23 -99t73 -28t73 28t23 99h118q-1 -113 -55.5 -166.5t-158.5 -53.5z" />
    <glyph glyph-name="abreve" unicode="&#x103;" 
d="M320 88q35 0 67 13t55 44v104h-131q-31 0 -50 -17.5t-19 -61.5q0 -40 19 -61t59 -21zM288 -10q-81 0 -130.5 45t-49.5 127q0 81 49 126t133 45h152v85q0 43 -24 67.5t-71 24.5q-49 0 -71.5 -21.5t-35.5 -81.5l-120 24q17 93 77 136t160 43q104 0 164.5 -43.5t60.5 -139.5
v-256q0 -48 24.5 -61t76.5 -4v-106q-72 -14 -120 4.5t-61 83.5h-23q-25 -43 -76 -70.5t-115 -27.5zM353 693q-104 0 -158.5 53.5t-55.5 166.5h118q1 -71 23 -99t73 -28t73 28t23 99h118q-1 -113 -55.5 -166.5t-158.5 -53.5z" />
    <glyph glyph-name="Aogonek" unicode="&#x104;" 
d="M464 323l-88 355l-88 -355h176zM544 0l-52 213h-232l-52 -213h-132l218 800h178l216 -800h-144zM602 -218q-66 0 -104.5 32t-38.5 90q0 52 37.5 93.5t87.5 59.5l22 -34q-26 -19 -35 -41.5t-9 -44.5q0 -27 15.5 -40.5t46.5 -13.5q15 0 35.5 3t42.5 7v-100q-25 -5 -51.5 -8
t-48.5 -3z" />
    <glyph glyph-name="aogonek" unicode="&#x105;" 
d="M320 88q35 0 67 13t55 44v104h-131q-31 0 -50 -17.5t-19 -61.5q0 -40 19 -61t59 -21zM288 -10q-81 0 -130.5 45t-49.5 127q0 81 49 126t133 45h152v85q0 43 -24 67.5t-71 24.5q-49 0 -71.5 -21.5t-35.5 -81.5l-120 24q17 93 77 136t160 43q104 0 164.5 -43.5t60.5 -139.5
v-256q0 -48 24.5 -61t76.5 -4v-106q-72 -14 -120 4.5t-61 83.5h-23q-25 -43 -76 -70.5t-115 -27.5zM583 -218q-66 0 -104.5 32t-38.5 90q0 52 37.5 93.5t87.5 59.5l22 -34q-26 -19 -35 -41.5t-9 -44.5q0 -27 15.5 -40.5t46.5 -13.5q15 0 35.5 3t42.5 7v-100q-25 -5 -51.5 -8
t-48.5 -3z" />
    <glyph glyph-name="Cacute" unicode="&#x106;" 
d="M396 -10q-150 0 -222 69.5t-72 199.5v278q0 131 72.5 202t221.5 71q139 0 210 -68.5t77 -209.5l-140 -10q-7 99 -40.5 138t-108.5 39q-84 0 -117.5 -38t-33.5 -133v-261q0 -92 33.5 -129t117.5 -37q77 0 110 38.5t39 134.5l140 -10q-4 -138 -75.5 -206t-211.5 -68z
M285 900l97 200h182l-180 -200h-99z" />
    <glyph glyph-name="cacute" unicode="&#x107;" 
d="M382 -10q-122 0 -182 56.5t-60 159.5v185q0 110 64 164.5t178 54.5t174 -53t68 -157l-136 -9q-4 63 -27 87t-77 24q-56 0 -80 -26t-24 -86v-181q0 -61 24 -86.5t82 -25.5q54 0 76 21.5t26 77.5l136 -10q-6 -99 -64 -147.5t-178 -48.5zM265 700l97 200h182l-180 -200h-99z
" />
    <glyph glyph-name="Ccircumflex" unicode="&#x108;" 
d="M396 -10q-150 0 -222 69.5t-72 199.5v278q0 131 72.5 202t221.5 71q139 0 210 -68.5t77 -209.5l-140 -10q-7 99 -40.5 138t-108.5 39q-84 0 -117.5 -38t-33.5 -133v-261q0 -92 33.5 -129t117.5 -37q77 0 110 38.5t39 134.5l140 -10q-4 -138 -75.5 -206t-211.5 -68z
M233 900l-49 68l154 152h106l156 -152l-48 -67l-161 109z" />
    <glyph glyph-name="ccircumflex" unicode="&#x109;" 
d="M382 -10q-122 0 -182 56.5t-60 159.5v185q0 110 64 164.5t178 54.5t174 -53t68 -157l-136 -9q-4 63 -27 87t-77 24q-56 0 -80 -26t-24 -86v-181q0 -61 24 -86.5t82 -25.5q54 0 76 21.5t26 77.5l136 -10q-6 -99 -64 -147.5t-178 -48.5zM215 700l-49 68l154 152h106
l156 -152l-48 -67l-161 109z" />
    <glyph glyph-name="Cdotaccent" unicode="&#x10a;" 
d="M396 -10q-150 0 -222 69.5t-72 199.5v278q0 131 72.5 202t221.5 71q139 0 210 -68.5t77 -209.5l-140 -10q-7 99 -40.5 138t-108.5 39q-84 0 -117.5 -38t-33.5 -133v-261q0 -92 33.5 -129t117.5 -37q77 0 110 38.5t39 134.5l140 -10q-4 -138 -75.5 -206t-211.5 -68z
M392 903q-43 0 -69.5 13.5t-26.5 50.5v10q0 37 26.5 51.5t69.5 14.5t69.5 -14.5t26.5 -51.5v-10q0 -37 -27 -50.5t-69 -13.5z" />
    <glyph glyph-name="cdotaccent" unicode="&#x10b;" 
d="M382 -10q-122 0 -182 56.5t-60 159.5v185q0 110 64 164.5t178 54.5t174 -53t68 -157l-136 -9q-4 63 -27 87t-77 24q-56 0 -80 -26t-24 -86v-181q0 -61 24 -86.5t82 -25.5q54 0 76 21.5t26 77.5l136 -10q-6 -99 -64 -147.5t-178 -48.5zM374 703q-43 0 -69.5 13.5
t-26.5 50.5v10q0 37 26.5 51.5t69.5 14.5t69.5 -14.5t26.5 -51.5v-10q0 -37 -27 -50.5t-69 -13.5z" />
    <glyph glyph-name="Ccaron" unicode="&#x10c;" 
d="M396 -10q-150 0 -222 69.5t-72 199.5v278q0 131 72.5 202t221.5 71q139 0 210 -68.5t77 -209.5l-140 -10q-7 99 -40.5 138t-108.5 39q-84 0 -117.5 -38t-33.5 -133v-261q0 -92 33.5 -129t117.5 -37q77 0 110 38.5t39 134.5l140 -10q-4 -138 -75.5 -206t-211.5 -68z
M340 904l-156 152l48 68l161 -109l158 109l49 -68l-154 -152h-106z" />
    <glyph glyph-name="ccaron" unicode="&#x10d;" 
d="M382 -10q-122 0 -182 56.5t-60 159.5v185q0 110 64 164.5t178 54.5t174 -53t68 -157l-136 -9q-4 63 -27 87t-77 24q-56 0 -80 -26t-24 -86v-181q0 -61 24 -86.5t82 -25.5q54 0 76 21.5t26 77.5l136 -10q-6 -99 -64 -147.5t-178 -48.5zM322 704l-156 152l48 68l161 -109
l158 109l49 -68l-154 -152h-106z" />
    <glyph glyph-name="Dcaron" unicode="&#x10e;" 
d="M102 0v800h272q134 0 210 -75.5t76 -200.5v-252q0 -124 -76 -198t-211 -74h-271zM243 111h119q85 0 121.5 41t36.5 129v234q0 89 -36.5 131.5t-121.5 42.5h-119v-578zM330 904l-156 152l48 68l161 -109l158 109l49 -68l-154 -152h-106z" />
    <glyph glyph-name="dcaron" unicode="&#x10f;" 
d="M362 104q32 0 61 18.5t55 57.5v289q-24 17 -47.5 25.5t-48.5 8.5q-49 0 -73 -27t-24 -83v-184q0 -56 20 -80.5t57 -24.5zM454 93q-17 -47 -56.5 -75t-96.5 -28q-74 0 -115.5 56.5t-41.5 155.5v192q0 101 57.5 158t158.5 57q31 0 62 -7t56 -20v218h141v-800h-141v93h-24z
M695 705l51 295h180l-148 -295h-83z" />
    <glyph glyph-name="Dcroat" unicode="&#x110;" 
d="M102 0v390h-83v101h83v309h272q134 0 210 -75.5t76 -200.5v-252q0 -124 -76 -198t-211 -74h-271zM243 111h119q85 0 121.5 41t36.5 129v234q0 89 -36.5 131.5t-121.5 42.5h-119v-198h139v-101h-139v-279z" />
    <glyph glyph-name="dcroat" unicode="&#x111;" horiz-adv-x="680" 
d="M321 104q33 0 60.5 19.5t55.5 59.5v229q-24 17 -47.5 25.5t-48.5 8.5q-49 0 -73 -28.5t-24 -88.5v-107q0 -60 19 -89t58 -29zM413 97q-18 -49 -59 -78t-94 -29q-72 0 -114.5 56.5t-42.5 154.5v130q0 101 58.5 161t157.5 60q30 0 61 -7t57 -20v95h-149v87h149v93h141v-93
h83v-87h-83v-620h-141v97h-24z" />
    <glyph glyph-name="Emacron" unicode="&#x112;" 
d="M142 0v800h480v-111h-340v-202h298v-111h-298v-265h340v-111h-480zM205 945v110h362v-110h-362z" />
    <glyph glyph-name="emacron" unicode="&#x113;" 
d="M620 135q-25 -75 -84.5 -110t-155.5 -35q-111 0 -174 58t-63 162v180q0 104 64 162t174 58t173.5 -59t63.5 -166v-112h-334v-64q0 -64 24.5 -92t80.5 -28q49 0 73.5 18.5t38.5 61.5zM284 390v-33h193v27q0 69 -23 99t-74 30t-73.5 -28.5t-22.5 -94.5zM201 745v110h362
v-110h-362z" />
    <glyph glyph-name="Ebreve" unicode="&#x114;" 
d="M142 0v800h480v-111h-340v-202h298v-111h-298v-265h340v-111h-480zM386 893q-104 0 -158.5 53.5t-55.5 166.5h118q1 -71 23 -99t73 -28t73 28t23 99h118q-1 -113 -55.5 -166.5t-158.5 -53.5z" />
    <glyph glyph-name="ebreve" unicode="&#x115;" 
d="M620 135q-25 -75 -84.5 -110t-155.5 -35q-111 0 -174 58t-63 162v180q0 104 64 162t174 58t173.5 -59t63.5 -166v-112h-334v-64q0 -64 24.5 -92t80.5 -28q49 0 73.5 18.5t38.5 61.5zM284 390v-33h193v27q0 69 -23 99t-74 30t-73.5 -28.5t-22.5 -94.5zM382 693
q-104 0 -158.5 53.5t-55.5 166.5h118q1 -71 23 -99t73 -28t73 28t23 99h118q-1 -113 -55.5 -166.5t-158.5 -53.5z" />
    <glyph glyph-name="Edotaccent" unicode="&#x116;" 
d="M142 0v800h480v-111h-340v-202h298v-111h-298v-265h340v-111h-480zM388 903q-43 0 -69.5 13.5t-26.5 50.5v10q0 37 26.5 51.5t69.5 14.5t69.5 -14.5t26.5 -51.5v-10q0 -37 -27 -50.5t-69 -13.5z" />
    <glyph glyph-name="edotaccent" unicode="&#x117;" 
d="M620 135q-25 -75 -84.5 -110t-155.5 -35q-111 0 -174 58t-63 162v180q0 104 64 162t174 58t173.5 -59t63.5 -166v-112h-334v-64q0 -64 24.5 -92t80.5 -28q49 0 73.5 18.5t38.5 61.5zM284 390v-33h193v27q0 69 -23 99t-74 30t-73.5 -28.5t-22.5 -94.5zM382 703
q-43 0 -69.5 13.5t-26.5 50.5v10q0 37 26.5 51.5t69.5 14.5t69.5 -14.5t26.5 -51.5v-10q0 -37 -27 -50.5t-69 -13.5z" />
    <glyph glyph-name="Eogonek" unicode="&#x118;" 
d="M520 -218q-66 0 -104.5 32t-38.5 90q0 52 37.5 93.5t87.5 59.5l22 -34q-26 -19 -35 -41.5t-9 -44.5q0 -27 15.5 -40.5t46.5 -13.5q15 0 35.5 3t42.5 7v-100q-25 -5 -51.5 -8t-48.5 -3zM142 0v800h480v-111h-340v-202h298v-111h-298v-265h340v-111h-480z" />
    <glyph glyph-name="eogonek" unicode="&#x119;" 
d="M515 -218q-66 0 -104.5 32t-38.5 90q0 52 37.5 93.5t87.5 59.5l22 -34q-26 -19 -35 -41.5t-9 -44.5q0 -27 15.5 -40.5t46.5 -13.5q15 0 35.5 3t42.5 7v-100q-25 -5 -51.5 -8t-48.5 -3zM620 135q-25 -75 -84.5 -110t-155.5 -35q-111 0 -174 58t-63 162v180q0 104 64 162
t174 58t173.5 -59t63.5 -166v-112h-334v-64q0 -64 24.5 -92t80.5 -28q49 0 73.5 18.5t38.5 61.5zM284 390v-33h193v27q0 69 -23 99t-74 30t-73.5 -28.5t-22.5 -94.5z" />
    <glyph glyph-name="Ecaron" unicode="&#x11a;" 
d="M142 0v800h480v-111h-340v-202h298v-111h-298v-265h340v-111h-480zM334 904l-156 152l48 68l161 -109l158 109l49 -68l-154 -152h-106z" />
    <glyph glyph-name="ecaron" unicode="&#x11b;" 
d="M620 135q-25 -75 -84.5 -110t-155.5 -35q-111 0 -174 58t-63 162v180q0 104 64 162t174 58t173.5 -59t63.5 -166v-112h-334v-64q0 -64 24.5 -92t80.5 -28q49 0 73.5 18.5t38.5 61.5zM284 390v-33h193v27q0 69 -23 99t-74 30t-73.5 -28.5t-22.5 -94.5zM330 704l-156 152
l48 68l161 -109l158 109l49 -68l-154 -152h-106z" />
    <glyph glyph-name="Gcircumflex" unicode="&#x11c;" 
d="M388 -10q-141 0 -213.5 71t-72.5 198v278q0 129 70.5 201t206.5 72q138 0 203 -59t72 -192l-141 -10q-6 83 -33.5 116.5t-99.5 33.5q-78 0 -107.5 -39t-29.5 -131v-262q0 -90 33 -128t117 -38q77 0 104.5 43t27.5 146h-143v111h284v-128q0 -133 -70.5 -208t-207.5 -75z
M225 900l-49 68l154 152h106l156 -152l-48 -67l-161 109z" />
    <glyph glyph-name="gcircumflex" unicode="&#x11d;" 
d="M660 -41q0 -81 -51.5 -125t-140.5 -44h-165q-98 0 -149.5 37.5t-51.5 106.5q0 49 25 78.5t65 34.5v20q-31 8 -51.5 31t-20.5 71t31.5 82t83.5 41v18q-45 16 -67.5 48t-22.5 69v18q0 71 56 113t164 42h289v-97l-135 22v-20q31 -10 50.5 -40t19.5 -64v-18
q0 -69 -54.5 -110.5t-167.5 -41.5h-88q-26 0 -40.5 -12.5t-14.5 -42.5q0 -29 16 -42.5t45 -13.5h189q87 0 136.5 -38.5t49.5 -122.5zM368 312q45 0 66 21.5t21 62.5v31q0 42 -21 62.5t-66 20.5t-66.5 -20.5t-21.5 -62.5v-31q0 -41 21 -62.5t67 -21.5zM304 -120h161
q35 0 57.5 14.5t22.5 53.5q0 37 -22 51t-56 14h-231v-60q0 -37 17 -55t51 -18zM223 700l-49 68l154 152h106l156 -152l-48 -67l-161 109z" />
    <glyph glyph-name="Gbreve" unicode="&#x11e;" 
d="M388 -10q-141 0 -213.5 71t-72.5 198v278q0 129 70.5 201t206.5 72q138 0 203 -59t72 -192l-141 -10q-6 83 -33.5 116.5t-99.5 33.5q-78 0 -107.5 -39t-29.5 -131v-262q0 -90 33 -128t117 -38q77 0 104.5 43t27.5 146h-143v111h284v-128q0 -133 -70.5 -208t-207.5 -75z
M384 893q-104 0 -158.5 53.5t-55.5 166.5h118q1 -71 23 -99t73 -28t73 28t23 99h118q-1 -113 -55.5 -166.5t-158.5 -53.5z" />
    <glyph glyph-name="gbreve" unicode="&#x11f;" 
d="M660 -41q0 -81 -51.5 -125t-140.5 -44h-165q-98 0 -149.5 37.5t-51.5 106.5q0 49 25 78.5t65 34.5v20q-31 8 -51.5 31t-20.5 71t31.5 82t83.5 41v18q-45 16 -67.5 48t-22.5 69v18q0 71 56 113t164 42h289v-97l-135 22v-20q31 -10 50.5 -40t19.5 -64v-18
q0 -69 -54.5 -110.5t-167.5 -41.5h-88q-26 0 -40.5 -12.5t-14.5 -42.5q0 -29 16 -42.5t45 -13.5h189q87 0 136.5 -38.5t49.5 -122.5zM368 312q45 0 66 21.5t21 62.5v31q0 42 -21 62.5t-66 20.5t-66.5 -20.5t-21.5 -62.5v-31q0 -41 21 -62.5t67 -21.5zM304 -120h161
q35 0 57.5 14.5t22.5 53.5q0 37 -22 51t-56 14h-231v-60q0 -37 17 -55t51 -18zM382 693q-104 0 -158.5 53.5t-55.5 166.5h118q1 -71 23 -99t73 -28t73 28t23 99h118q-1 -113 -55.5 -166.5t-158.5 -53.5z" />
    <glyph glyph-name="Gdotaccent" unicode="&#x120;" 
d="M388 -10q-141 0 -213.5 71t-72.5 198v278q0 129 70.5 201t206.5 72q138 0 203 -59t72 -192l-141 -10q-6 83 -33.5 116.5t-99.5 33.5q-78 0 -107.5 -39t-29.5 -131v-262q0 -90 33 -128t117 -38q77 0 104.5 43t27.5 146h-143v111h284v-128q0 -133 -70.5 -208t-207.5 -75z
M384 903q-43 0 -69.5 13.5t-26.5 50.5v10q0 37 26.5 51.5t69.5 14.5t69.5 -14.5t26.5 -51.5v-10q0 -37 -27 -50.5t-69 -13.5z" />
    <glyph glyph-name="gdotaccent" unicode="&#x121;" 
d="M660 -41q0 -81 -51.5 -125t-140.5 -44h-165q-98 0 -149.5 37.5t-51.5 106.5q0 49 25 78.5t65 34.5v20q-31 8 -51.5 31t-20.5 71t31.5 82t83.5 41v18q-45 16 -67.5 48t-22.5 69v18q0 71 56 113t164 42h289v-97l-135 22v-20q31 -10 50.5 -40t19.5 -64v-18
q0 -69 -54.5 -110.5t-167.5 -41.5h-88q-26 0 -40.5 -12.5t-14.5 -42.5q0 -29 16 -42.5t45 -13.5h189q87 0 136.5 -38.5t49.5 -122.5zM368 312q45 0 66 21.5t21 62.5v31q0 42 -21 62.5t-66 20.5t-66.5 -20.5t-21.5 -62.5v-31q0 -41 21 -62.5t67 -21.5zM304 -120h161
q35 0 57.5 14.5t22.5 53.5q0 37 -22 51t-56 14h-231v-60q0 -37 17 -55t51 -18zM382 703q-43 0 -69.5 13.5t-26.5 50.5v10q0 37 26.5 51.5t69.5 14.5t69.5 -14.5t26.5 -51.5v-10q0 -37 -27 -50.5t-69 -13.5z" />
    <glyph glyph-name="Gcommaaccent" unicode="&#x122;" 
d="M255 -300l63 200h182l-146 -200h-99zM388 -10q-141 0 -213.5 71t-72.5 198v278q0 129 70.5 201t206.5 72q138 0 203 -59t72 -192l-141 -10q-6 83 -33.5 116.5t-99.5 33.5q-78 0 -107.5 -39t-29.5 -131v-262q0 -90 33 -128t117 -38q77 0 104.5 43t27.5 146h-143v111h284
v-128q0 -133 -70.5 -208t-207.5 -75z" />
    <glyph glyph-name="gcommaaccent" unicode="&#x123;" 
d="M660 -41q0 -81 -51.5 -125t-140.5 -44h-165q-98 0 -149.5 37.5t-51.5 106.5q0 49 25 78.5t65 34.5v20q-31 8 -51.5 31t-20.5 71t31.5 82t83.5 41v18q-45 16 -67.5 48t-22.5 69v18q0 71 56 113t164 42h289v-97l-135 22v-20q31 -10 50.5 -40t19.5 -64v-18
q0 -69 -54.5 -110.5t-167.5 -41.5h-88q-26 0 -40.5 -12.5t-14.5 -42.5q0 -29 16 -42.5t45 -13.5h189q87 0 136.5 -38.5t49.5 -122.5zM368 312q45 0 66 21.5t21 62.5v31q0 42 -21 62.5t-66 20.5t-66.5 -20.5t-21.5 -62.5v-31q0 -41 21 -62.5t67 -21.5zM304 -120h161
q35 0 57.5 14.5t22.5 53.5q0 37 -22 51t-56 14h-231v-60q0 -37 17 -55t51 -18zM269 700l146 200h99l-63 -200h-182z" />
    <glyph glyph-name="Hcircumflex" unicode="&#x124;" 
d="M102 0v800h141v-306h277v306h140v-800h-140v383h-277v-383h-141zM223 900l-49 68l154 152h106l156 -152l-48 -67l-161 109z" />
    <glyph glyph-name="hcircumflex" unicode="&#x125;" horiz-adv-x="680" 
d="M103 0v800h141v-290h25q19 47 59.5 73.5t93.5 26.5q71 0 113.5 -51.5t42.5 -141.5v-417h-141v394q0 51 -19 76.5t-53 25.5q-35 0 -65.5 -22.5t-55.5 -62.5v-411h-141zM13 900l-49 68l154 152h106l156 -152l-48 -67l-161 109z" />
    <glyph glyph-name="Hbar" unicode="&#x126;" 
d="M243 427h277v130h-277v-130zM243 316v-316h-141v557h-83v100h83v143h141v-143h277v143h140v-143h84v-100h-84v-557h-140v316h-277z" />
    <glyph glyph-name="hbar" unicode="&#x127;" horiz-adv-x="680" 
d="M244 354v-354h-141v620h-83v87h83v93h141v-93h150v-87h-150v-167h25q19 46 61 73t96 27q71 0 111.5 -47.5t40.5 -130.5v-375h-141v348q0 45 -18 68t-53 23q-34 0 -65.5 -22t-56.5 -63z" />
    <glyph glyph-name="Itilde" unicode="&#x128;" horiz-adv-x="680" 
d="M103 0v111h167v578h-167v111h475v-111h-167v-578h167v-111h-475zM414 910q-35 0 -56.5 16t-37.5 38l-24.5 36.5t-27.5 16.5t-26 -17.5t-9 -63.5v-16h-93v15q0 80 33.5 131t93.5 51q34 0 55.5 -15.5t37.5 -38.5l24.5 -37t25.5 -17q16 0 26 18t10 64v16h93v-15
q0 -81 -33 -131.5t-92 -50.5z" />
    <glyph glyph-name="itilde.salt_topserif" unicode="&#xe03c;" horiz-adv-x="513" 
d="M369 0h-140v493h-150v107h290v-600zM373 710q-35 0 -56.5 16t-37.5 38l-24.5 36.5t-27.5 16.5t-26 -17.5t-9 -63.5v-16h-93v15q0 80 33.5 131t93.5 51q34 0 55.5 -15.5t37.5 -38.5l24.5 -37t25.5 -17q16 0 26 18t10 64v16h93v-15q0 -81 -33 -131.5t-92 -50.5z" />
    <glyph glyph-name="itilde.salt_topserif" unicode="&#x129;" horiz-adv-x="513" 
d="M369 0h-140v493h-150v107h290v-600zM373 710q-35 0 -56.5 16t-37.5 38l-24.5 36.5t-27.5 16.5t-26 -17.5t-9 -63.5v-16h-93v15q0 80 33.5 131t93.5 51q34 0 55.5 -15.5t37.5 -38.5l24.5 -37t25.5 -17q16 0 26 18t10 64v16h93v-15q0 -81 -33 -131.5t-92 -50.5z" />
    <glyph glyph-name="Imacron" unicode="&#x12a;" horiz-adv-x="680" 
d="M103 0v111h167v578h-167v111h475v-111h-167v-578h167v-111h-475zM158 945v110h362v-110h-362z" />
    <glyph glyph-name="imacron.salt_topserif" unicode="&#xe03d;" horiz-adv-x="513" 
d="M369 0h-140v493h-150v107h290v-600zM60 745v110h362v-110h-362z" />
    <glyph glyph-name="imacron.salt_topserif" unicode="&#x12b;" horiz-adv-x="513" 
d="M369 0h-140v493h-150v107h290v-600zM60 745v110h362v-110h-362z" />
    <glyph glyph-name="Ibreve" unicode="&#x12c;" horiz-adv-x="680" 
d="M103 0v111h167v578h-167v111h475v-111h-167v-578h167v-111h-475zM339 893q-104 0 -158.5 53.5t-55.5 166.5h118q1 -71 23 -99t73 -28t73 28t23 99h118q-1 -113 -55.5 -166.5t-158.5 -53.5z" />
    <glyph glyph-name="ibreve.salt_topserif" unicode="&#xe03e;" horiz-adv-x="513" 
d="M369 0h-140v493h-150v107h290v-600zM269 693q-104 0 -158.5 53.5t-55.5 166.5h118q1 -71 23 -99t73 -28t73 28t23 99h118q-1 -113 -55.5 -166.5t-158.5 -53.5z" />
    <glyph glyph-name="ibreve.salt_topserif" unicode="&#x12d;" horiz-adv-x="513" 
d="M369 0h-140v493h-150v107h290v-600zM269 693q-104 0 -158.5 53.5t-55.5 166.5h118q1 -71 23 -99t73 -28t73 28t23 99h118q-1 -113 -55.5 -166.5t-158.5 -53.5z" />
    <glyph glyph-name="Iogonek" unicode="&#x12e;" horiz-adv-x="680" 
d="M103 0v111h167v578h-167v111h475v-111h-167v-578h167v-111h-475zM403 -218q-66 0 -104.5 32t-38.5 90q0 52 37.5 93.5t87.5 59.5l22 -34q-26 -19 -35 -41.5t-9 -44.5q0 -27 15.5 -40.5t46.5 -13.5q15 0 35.5 3t42.5 7v-100q-25 -5 -51.5 -8t-48.5 -3z" />
    <glyph glyph-name="iogonek.salt_topserif" unicode="&#xe03f;" horiz-adv-x="513" 
d="M323 -218q-66 0 -104.5 32t-38.5 90q0 52 37.5 93.5t87.5 59.5l22 -34q-26 -19 -35 -41.5t-9 -44.5q0 -27 15.5 -40.5t46.5 -13.5q15 0 35.5 3t42.5 7v-100q-25 -5 -51.5 -8t-48.5 -3zM298 703q-43 0 -69.5 13.5t-26.5 50.5v10q0 37 26.5 51.5t69.5 14.5t69.5 -14.5
t26.5 -51.5v-10q0 -37 -27 -50.5t-69 -13.5zM369 0h-140v493h-150v107h290v-600z" />
    <glyph glyph-name="iogonek.salt_topserif" unicode="&#x12f;" horiz-adv-x="513" 
d="M323 -218q-66 0 -104.5 32t-38.5 90q0 52 37.5 93.5t87.5 59.5l22 -34q-26 -19 -35 -41.5t-9 -44.5q0 -27 15.5 -40.5t46.5 -13.5q15 0 35.5 3t42.5 7v-100q-25 -5 -51.5 -8t-48.5 -3zM298 703q-43 0 -69.5 13.5t-26.5 50.5v10q0 37 26.5 51.5t69.5 14.5t69.5 -14.5
t26.5 -51.5v-10q0 -37 -27 -50.5t-69 -13.5zM369 0h-140v493h-150v107h290v-600z" />
    <glyph glyph-name="Idotaccent" unicode="&#x130;" horiz-adv-x="680" 
d="M103 0v111h167v578h-167v111h475v-111h-167v-578h167v-111h-475zM339 903q-43 0 -69.5 13.5t-26.5 50.5v10q0 37 26.5 51.5t69.5 14.5t69.5 -14.5t26.5 -51.5v-10q0 -37 -27 -50.5t-69 -13.5z" />
    <glyph glyph-name="dotlessi.salt_serif" unicode="&#xe011;" horiz-adv-x="680" 
d="M103 0v107h167v386h-167v107h308v-493h167v-107h-475z" />
    <glyph glyph-name="dotlessi.salt_serif" unicode="&#x131;" horiz-adv-x="680" 
d="M103 0v107h167v386h-167v107h308v-493h167v-107h-475z" />
    <glyph glyph-name="IJ" unicode="&#x132;" horiz-adv-x="1340" 
d="M112 0v111h167v578h-167v111h475v-111h-167v-578h167v-111h-475zM978 -10q-135 0 -193.5 61.5t-64.5 215.5l140 11q7 -107 30 -142t88 -35q63 0 86 35.5t23 119.5v433h-195v111h336v-547q0 -131 -59.5 -197t-190.5 -66z" />
    <glyph glyph-name="ij.salt_topserif" unicode="&#xe040;" horiz-adv-x="1006" 
d="M649 -209q-28 0 -58 6t-59 16l17 104q24 -10 45 -15.5t40 -5.5q35 0 56.5 25t21.5 82v490h-150v107h290v-608q0 -99 -58 -150t-145 -51zM781 703q-43 0 -69.5 13.5t-26.5 50.5v10q0 37 26.5 51.5t69.5 14.5t69.5 -14.5t26.5 -51.5v-10q0 -37 -27 -50.5t-69 -13.5z
M307 703q-43 0 -69.5 13.5t-26.5 50.5v10q0 37 26.5 51.5t69.5 14.5t69.5 -14.5t26.5 -51.5v-10q0 -37 -27 -50.5t-69 -13.5zM378 0h-140v493h-150v107h290v-600z" />
    <glyph glyph-name="ij.salt_topserif" unicode="&#x133;" horiz-adv-x="1006" 
d="M649 -209q-28 0 -58 6t-59 16l17 104q24 -10 45 -15.5t40 -5.5q35 0 56.5 25t21.5 82v490h-150v107h290v-608q0 -99 -58 -150t-145 -51zM781 703q-43 0 -69.5 13.5t-26.5 50.5v10q0 37 26.5 51.5t69.5 14.5t69.5 -14.5t26.5 -51.5v-10q0 -37 -27 -50.5t-69 -13.5z
M307 703q-43 0 -69.5 13.5t-26.5 50.5v10q0 37 26.5 51.5t69.5 14.5t69.5 -14.5t26.5 -51.5v-10q0 -37 -27 -50.5t-69 -13.5zM378 0h-140v493h-150v107h290v-600z" />
    <glyph glyph-name="Jcircumflex" unicode="&#x134;" horiz-adv-x="680" 
d="M328 -10q-135 0 -193.5 61.5t-64.5 215.5l140 11q7 -107 30 -142t88 -35q63 0 86 35.5t23 119.5v433h-195v111h336v-547q0 -131 -59.5 -197t-190.5 -66zM253 900l-49 68l154 152h106l156 -152l-48 -67l-161 109z" />
    <glyph glyph-name="jcircumflex" unicode="&#x135;" horiz-adv-x="513" 
d="M166 -209q-28 0 -58 6t-59 16l17 104q24 -10 45 -15.5t40 -5.5q35 0 56.5 25t21.5 82v490h-150v107h290v-608q0 -99 -58 -150t-145 -51zM108 700l-49 68l154 152h106l156 -152l-48 -67l-161 109z" />
    <glyph glyph-name="Kcommaaccent" unicode="&#x136;" horiz-adv-x="680" 
d="M244 364v-364h-141v800h141v-324h32l210 324h156l-253 -368l250 -432h-163l-198 364h-34zM218 -300l63 200h182l-146 -200h-99z" />
    <glyph glyph-name="kcommaaccent" unicode="&#x137;" horiz-adv-x="596" 
d="M243 263v-263h-141v800h141v-437h35l132 237h149l-169 -276l166 -324h-151l-127 263h-35zM185 -300l63 200h182l-146 -200h-99z" />
    <glyph glyph-name="kgreenlandic" unicode="&#x138;" horiz-adv-x="596" 
d="M243 273v-273h-141v600h141v-227h33l138 227h148l-173 -266l167 -334h-149l-129 273h-35z" />
    <glyph glyph-name="Lacute" unicode="&#x139;" horiz-adv-x="596" 
d="M102 0v800h141v-689h295v-111h-436zM75 900l97 200h182l-180 -200h-99z" />
    <glyph glyph-name="lacute.salt_serif" unicode="&#xe01e;" horiz-adv-x="680" 
d="M197 900l97 200h182l-180 -200h-99zM103 0v107h167v586h-167v107h308v-693h167v-107h-475z" />
    <glyph glyph-name="lacute.salt_serif" unicode="&#x13a;" horiz-adv-x="680" 
d="M197 900l97 200h182l-180 -200h-99zM103 0v107h167v586h-167v107h308v-693h167v-107h-475z" />
    <glyph glyph-name="Lcommaaccent" unicode="&#x13b;" horiz-adv-x="596" 
d="M102 0v800h141v-689h295v-111h-436zM201 -300l63 200h182l-146 -200h-99z" />
    <glyph glyph-name="lcommaaccent.salt_serif" unicode="&#xe01f;" horiz-adv-x="680" 
d="M103 0v107h167v586h-167v107h308v-693h167v-107h-475zM193 -300l63 200h182l-146 -200h-99z" />
    <glyph glyph-name="lcommaaccent.salt_serif" unicode="&#x13c;" horiz-adv-x="680" 
d="M103 0v107h167v586h-167v107h308v-693h167v-107h-475zM193 -300l63 200h182l-146 -200h-99z" />
    <glyph glyph-name="Lcaron" unicode="&#x13d;" horiz-adv-x="596" 
d="M102 0v800h141v-689h295v-111h-436zM348 505l51 295h180l-148 -295h-83z" />
    <glyph glyph-name="lcaron.salt_serif" unicode="&#xe020;" horiz-adv-x="680" 
d="M490 705l51 295h180l-148 -295h-83zM103 0v107h167v586h-167v107h308v-693h167v-107h-475z" />
    <glyph glyph-name="lcaron.salt_serif" unicode="&#x13e;" horiz-adv-x="680" 
d="M490 705l51 295h180l-148 -295h-83zM103 0v107h167v586h-167v107h308v-693h167v-107h-475z" />
    <glyph glyph-name="Ldot" unicode="&#x13f;" horiz-adv-x="839" 
d="M111 0v800h141v-689h295v-111h-436zM586 400q-43 0 -69.5 13.5t-26.5 50.5v10q0 37 26.5 51.5t69.5 14.5t69.5 -14.5t26.5 -51.5v-10q0 -37 -27 -50.5t-69 -13.5z" />
    <glyph glyph-name="ldot.salt_serif" unicode="&#xe021;" horiz-adv-x="680" 
d="M660 317q-43 0 -69.5 13.5t-26.5 50.5v10q0 37 26.5 51.5t69.5 14.5t69.5 -14.5t26.5 -51.5v-10q0 -37 -27 -50.5t-69 -13.5zM103 0v107h167v586h-167v107h308v-693h167v-107h-475z" />
    <glyph glyph-name="ldot.salt_serif" unicode="&#x140;" horiz-adv-x="680" 
d="M660 317q-43 0 -69.5 13.5t-26.5 50.5v10q0 37 26.5 51.5t69.5 14.5t69.5 -14.5t26.5 -51.5v-10q0 -37 -27 -50.5t-69 -13.5zM103 0v107h167v586h-167v107h308v-693h167v-107h-475z" />
    <glyph glyph-name="Lslash" unicode="&#x141;" horiz-adv-x="596" 
d="M102 0v344l-66 -24v93l66 24v363h141v-312l197 72v-93l-197 -72v-284h295v-111h-436z" />
    <glyph glyph-name="lslash.salt_serif" unicode="&#xe022;" horiz-adv-x="680" 
d="M103 0v107h167v228l-113 -35v93l113 35v265h-167v107h308v-327l108 34v-94l-108 -34v-272h167v-107h-475z" />
    <glyph glyph-name="lslash.salt_serif" unicode="&#x142;" horiz-adv-x="680" 
d="M103 0v107h167v228l-113 -35v93l113 35v265h-167v107h308v-327l108 34v-94l-108 -34v-272h167v-107h-475z" />
    <glyph glyph-name="Nacute" unicode="&#x143;" 
d="M470 0l-246 634v-634h-122v800h191l245 -617v617h122v-800h-190zM303 900l97 200h182l-180 -200h-99z" />
    <glyph glyph-name="nacute" unicode="&#x144;" horiz-adv-x="680" 
d="M103 0v600h141v-90h25q18 46 59.5 73t93.5 27q72 0 114 -52.5t42 -141.5v-416h-141v394q0 51 -18.5 76.5t-52.5 25.5q-36 0 -66.5 -22.5t-55.5 -62.5v-411h-141zM249 700l97 200h182l-180 -200h-99z" />
    <glyph glyph-name="Ncommaaccent" unicode="&#x145;" 
d="M225 -300l63 200h182l-146 -200h-99zM470 0l-246 634v-634h-122v800h191l245 -617v617h122v-800h-190z" />
    <glyph glyph-name="ncommaaccent" unicode="&#x146;" horiz-adv-x="680" 
d="M210 -300l63 200h182l-146 -200h-99zM103 0v600h141v-90h25q18 46 59.5 73t93.5 27q72 0 114 -52.5t42 -141.5v-416h-141v394q0 51 -18.5 76.5t-52.5 25.5q-36 0 -66.5 -22.5t-55.5 -62.5v-411h-141z" />
    <glyph glyph-name="Ncaron" unicode="&#x147;" 
d="M470 0l-246 634v-634h-122v800h191l245 -617v617h122v-800h-190zM358 904l-156 152l48 68l161 -109l158 109l49 -68l-154 -152h-106z" />
    <glyph glyph-name="ncaron" unicode="&#x148;" horiz-adv-x="680" 
d="M103 0v600h141v-90h25q18 46 59.5 73t93.5 27q72 0 114 -52.5t42 -141.5v-416h-141v394q0 51 -18.5 76.5t-52.5 25.5q-36 0 -66.5 -22.5t-55.5 -62.5v-411h-141zM304 704l-156 152l48 68l161 -109l158 109l49 -68l-154 -152h-106z" />
    <glyph glyph-name="napostrophe" unicode="&#x149;" horiz-adv-x="604" 
d="M94 0v600h141v-90h25q18 46 59.5 73t93.5 27q72 0 114 -52.5t42 -141.5v-416h-141v394q0 51 -18.5 76.5t-52.5 25.5q-36 0 -66.5 -22.5t-55.5 -62.5v-411h-141zM-14 700l97 200h182l-180 -200h-99z" />
    <glyph glyph-name="Eng" unicode="&#x14a;" 
d="M444 -209q-32 0 -65 7.5t-66 21.5l16 107q29 -13 53 -20.5t46 -7.5q43 0 67.5 28.5t24.5 95.5v549q0 59 -28.5 91.5t-81.5 32.5q-45 0 -86 -29.5t-81 -92.5v-574h-141v800h141v-127h25q24 65 77 101t123 36q89 0 140.5 -57t51.5 -155v-590q0 -111 -64.5 -164t-151.5 -53z
" />
    <glyph glyph-name="eng" unicode="&#x14b;" horiz-adv-x="680" 
d="M381 -209q-28 0 -56 6t-56 16l17 105q22 -10 42 -15.5t37 -5.5q34 0 53 24t19 81v403q0 46 -18 68.5t-53 22.5q-34 0 -65.5 -22.5t-56.5 -62.5v-411h-141v600h141v-90h25q17 46 59 73t98 27q71 0 111.5 -47.5t40.5 -130.5v-443q0 -102 -59.5 -150t-137.5 -48z" />
    <glyph glyph-name="Omacron" unicode="&#x14c;" 
d="M382 -10q-137 0 -208.5 70.5t-71.5 201.5v275q0 131 72 202t208 71t207 -71t71 -202v-275q0 -131 -71 -201.5t-207 -70.5zM382 101q75 0 106.5 38t31.5 131v259q0 93 -31.5 131.5t-106.5 38.5q-76 0 -107.5 -38.5t-31.5 -131.5v-259q0 -93 31.5 -131t107.5 -38zM201 945
v110h362v-110h-362z" />
    <glyph glyph-name="omacron" unicode="&#x14d;" horiz-adv-x="680" 
d="M340 -10q-107 0 -172 57.5t-65 164.5v172q0 109 65.5 167.5t172.5 58.5q108 0 172.5 -58.5t64.5 -167.5v-172q0 -107 -65 -164.5t-173 -57.5zM340 97q51 0 74 28t23 91v168q0 62 -23 90.5t-74 28.5t-73.5 -29t-22.5 -91v-167q0 -63 22.5 -91t73.5 -28zM158 745v110h362
v-110h-362z" />
    <glyph glyph-name="Obreve" unicode="&#x14e;" 
d="M382 -10q-137 0 -208.5 70.5t-71.5 201.5v275q0 131 72 202t208 71t207 -71t71 -202v-275q0 -131 -71 -201.5t-207 -70.5zM382 101q75 0 106.5 38t31.5 131v259q0 93 -31.5 131.5t-106.5 38.5q-76 0 -107.5 -38.5t-31.5 -131.5v-259q0 -93 31.5 -131t107.5 -38zM382 893
q-104 0 -158.5 53.5t-55.5 166.5h118q1 -71 23 -99t73 -28t73 28t23 99h118q-1 -113 -55.5 -166.5t-158.5 -53.5z" />
    <glyph glyph-name="obreve" unicode="&#x14f;" horiz-adv-x="680" 
d="M340 -10q-107 0 -172 57.5t-65 164.5v172q0 109 65.5 167.5t172.5 58.5q108 0 172.5 -58.5t64.5 -167.5v-172q0 -107 -65 -164.5t-173 -57.5zM340 97q51 0 74 28t23 91v168q0 62 -23 90.5t-74 28.5t-73.5 -29t-22.5 -91v-167q0 -63 22.5 -91t73.5 -28zM339 693
q-104 0 -158.5 53.5t-55.5 166.5h118q1 -71 23 -99t73 -28t73 28t23 99h118q-1 -113 -55.5 -166.5t-158.5 -53.5z" />
    <glyph glyph-name="Ohungarumlaut" unicode="&#x150;" 
d="M382 -10q-137 0 -208.5 70.5t-71.5 201.5v275q0 131 72 202t208 71t207 -71t71 -202v-275q0 -131 -71 -201.5t-207 -70.5zM382 101q75 0 106.5 38t31.5 131v259q0 93 -31.5 131.5t-106.5 38.5q-76 0 -107.5 -38.5t-31.5 -131.5v-259q0 -93 31.5 -131t107.5 -38zM423 900
l41 200h145l-110 -200h-76zM231 900l41 200h145l-110 -200h-76z" />
    <glyph glyph-name="ohungarumlaut" unicode="&#x151;" horiz-adv-x="680" 
d="M340 -10q-107 0 -172 57.5t-65 164.5v172q0 109 65.5 167.5t172.5 58.5q108 0 172.5 -58.5t64.5 -167.5v-172q0 -107 -65 -164.5t-173 -57.5zM340 97q51 0 74 28t23 91v168q0 62 -23 90.5t-74 28.5t-73.5 -29t-22.5 -91v-167q0 -63 22.5 -91t73.5 -28zM380 700l41 200
h145l-110 -200h-76zM188 700l41 200h145l-110 -200h-76z" />
    <glyph glyph-name="OE" unicode="&#x152;" horiz-adv-x="1006" 
d="M379 0q-125 0 -196 74.5t-71 199.5v251q0 125 71 200t197 75h519v-111h-284v-202h243v-111h-243v-265h284v-111h-520zM392 111h83v578h-83q-74 0 -106.5 -41.5t-32.5 -130.5v-235q0 -90 32.5 -130.5t106.5 -40.5z" />
    <glyph glyph-name="oe" unicode="&#x153;" horiz-adv-x="930" 
d="M829 147q-19 -85 -67.5 -121t-136.5 -36q-51 0 -93 18t-68 54q-27 -36 -67.5 -54t-91.5 -18q-89 0 -146 55t-57 165v176q0 112 57.5 168t145.5 56q50 0 91 -18t67 -55q27 37 68.5 55t91.5 18q90 0 147 -52t57 -161v-124h-292v-83q0 -52 19 -76.5t65 -24.5q42 0 62.5 14.5
t30.5 57.5zM535 409v-52h152v43q0 60 -17 86.5t-59 26.5t-59 -25t-17 -79zM319 97q40 0 58 26t18 86v182q0 56 -18 84t-58 28t-58 -28t-18 -85v-181q0 -60 18 -86t58 -26z" />
    <glyph glyph-name="Racute" unicode="&#x154;" 
d="M243 409h163q53 0 78 25.5t25 86.5v62q0 59 -24.5 82.5t-78.5 23.5h-163v-280zM243 0h-141v800h322q110 0 167.5 -55t57.5 -159v-66q0 -87 -38 -141t-113 -71l170 -308h-160l-165 300h-100v-300zM273 900l97 200h182l-180 -200h-99z" />
    <glyph glyph-name="racute" unicode="&#x155;" horiz-adv-x="596" 
d="M102 0v600h141v-90h25q16 52 53 76t79 24q66 0 99 -43.5t33 -121.5v-102h-128v81q0 33 -13.5 52.5t-42.5 19.5q-28 0 -57 -23t-48 -60v-413h-141zM216 700l97 200h182l-180 -200h-99z" />
    <glyph glyph-name="Rcommaaccent" unicode="&#x156;" 
d="M243 409h163q53 0 78 25.5t25 86.5v62q0 59 -24.5 82.5t-78.5 23.5h-163v-280zM243 0h-141v800h322q110 0 167.5 -55t57.5 -159v-66q0 -87 -38 -141t-113 -71l170 -308h-160l-165 300h-100v-300zM231 -300l63 200h182l-146 -200h-99z" />
    <glyph glyph-name="rcommaaccent" unicode="&#x157;" horiz-adv-x="596" 
d="M102 0v600h141v-90h25q16 52 53 76t79 24q66 0 99 -43.5t33 -121.5v-102h-128v81q0 33 -13.5 52.5t-42.5 19.5q-28 0 -57 -23t-48 -60v-413h-141zM41 -300l63 200h182l-146 -200h-99z" />
    <glyph glyph-name="Rcaron" unicode="&#x158;" 
d="M243 409h163q53 0 78 25.5t25 86.5v62q0 59 -24.5 82.5t-78.5 23.5h-163v-280zM243 0h-141v800h322q110 0 167.5 -55t57.5 -159v-66q0 -87 -38 -141t-113 -71l170 -308h-160l-165 300h-100v-300zM310 904l-156 152l48 68l161 -109l158 109l49 -68l-154 -152h-106z" />
    <glyph glyph-name="rcaron" unicode="&#x159;" horiz-adv-x="596" 
d="M102 0v600h141v-90h25q16 52 53 76t79 24q66 0 99 -43.5t33 -121.5v-102h-128v81q0 33 -13.5 52.5t-42.5 19.5q-28 0 -57 -23t-48 -60v-413h-141zM271 704l-156 152l48 68l161 -109l158 109l49 -68l-154 -152h-106z" />
    <glyph glyph-name="Sacute" unicode="&#x15a;" 
d="M381 -7q-78 0 -150.5 25.5t-128.5 76.5l42 102q54 -48 116.5 -71t133.5 -23q63 0 97.5 30t34.5 84q0 49 -37.5 74.5t-141.5 53.5q-124 34 -180 85t-56 144q0 104 69.5 168t193.5 64q76 0 144.5 -25.5t112.5 -71.5l-36 -98q-51 42 -107 63.5t-113 21.5t-90.5 -26
t-33.5 -77q0 -49 37 -73.5t147 -55.5q125 -34 178 -85t53 -143q0 -110 -75 -176.5t-210 -66.5zM273 900l97 200h182l-180 -200h-99z" />
    <glyph glyph-name="sacute" unicode="&#x15b;" horiz-adv-x="680" 
d="M343 -9q-70 0 -136 21.5t-114 59.5l37 93q49 -34 106 -54t110 -20q47 0 73.5 16t26.5 52q0 40 -29.5 55.5t-105.5 32.5q-93 19 -147.5 56.5t-54.5 122.5q0 86 60 135t157 49q63 0 123 -20.5t105 -54.5l-32 -90q-47 31 -95 48t-92 17q-42 0 -65.5 -16.5t-23.5 -51.5
q0 -39 31 -55.5t112 -34.5q96 -20 144.5 -59.5t48.5 -117.5q0 -87 -65 -135.5t-174 -48.5zM231 700l97 200h182l-180 -200h-99z" />
    <glyph glyph-name="Scircumflex" unicode="&#x15c;" 
d="M381 -7q-78 0 -150.5 25.5t-128.5 76.5l42 102q54 -48 116.5 -71t133.5 -23q63 0 97.5 30t34.5 84q0 49 -37.5 74.5t-141.5 53.5q-124 34 -180 85t-56 144q0 104 69.5 168t193.5 64q76 0 144.5 -25.5t112.5 -71.5l-36 -98q-51 42 -107 63.5t-113 21.5t-90.5 -26
t-33.5 -77q0 -49 37 -73.5t147 -55.5q125 -34 178 -85t53 -143q0 -110 -75 -176.5t-210 -66.5zM221 900l-49 68l154 152h106l156 -152l-48 -67l-161 109z" />
    <glyph glyph-name="scircumflex" unicode="&#x15d;" horiz-adv-x="680" 
d="M343 -9q-70 0 -136 21.5t-114 59.5l37 93q49 -34 106 -54t110 -20q47 0 73.5 16t26.5 52q0 40 -29.5 55.5t-105.5 32.5q-93 19 -147.5 56.5t-54.5 122.5q0 86 60 135t157 49q63 0 123 -20.5t105 -54.5l-32 -90q-47 31 -95 48t-92 17q-42 0 -65.5 -16.5t-23.5 -51.5
q0 -39 31 -55.5t112 -34.5q96 -20 144.5 -59.5t48.5 -117.5q0 -87 -65 -135.5t-174 -48.5zM179 700l-49 68l154 152h106l156 -152l-48 -67l-161 109z" />
    <glyph glyph-name="Scedilla" unicode="&#x15e;" 
d="M381 -7q-78 0 -150.5 25.5t-128.5 76.5l42 102q54 -48 116.5 -71t133.5 -23q63 0 97.5 30t34.5 84q0 49 -37.5 74.5t-141.5 53.5q-124 34 -180 85t-56 144q0 104 69.5 168t193.5 64q76 0 144.5 -25.5t112.5 -71.5l-36 -98q-51 42 -107 63.5t-113 21.5t-90.5 -26
t-33.5 -77q0 -49 37 -73.5t147 -55.5q125 -34 178 -85t53 -143q0 -110 -75 -176.5t-210 -66.5zM355 0l16 42q68 -9 106 -40.5t38 -91.5q0 -66 -47 -97.5t-115 -31.5q-74 0 -118.5 28t-48.5 88l119 10q1 -19 10.5 -26.5t31.5 -7.5q24 0 35.5 11.5t11.5 45.5q0 32 -8.5 47
t-30.5 23z" />
    <glyph glyph-name="scedilla" unicode="&#x15f;" horiz-adv-x="680" 
d="M343 -9q-70 0 -136 21.5t-114 59.5l37 93q49 -34 106 -54t110 -20q47 0 73.5 16t26.5 52q0 40 -29.5 55.5t-105.5 32.5q-93 19 -147.5 56.5t-54.5 122.5q0 86 60 135t157 49q63 0 123 -20.5t105 -54.5l-32 -90q-47 31 -95 48t-92 17q-42 0 -65.5 -16.5t-23.5 -51.5
q0 -39 31 -55.5t112 -34.5q96 -20 144.5 -59.5t48.5 -117.5q0 -87 -65 -135.5t-174 -48.5zM313 0l16 42q68 -9 106 -40.5t38 -91.5q0 -66 -47 -97.5t-115 -31.5q-74 0 -118.5 28t-48.5 88l119 10q1 -19 10.5 -26.5t31.5 -7.5q24 0 35.5 11.5t11.5 45.5q0 32 -8.5 47
t-30.5 23z" />
    <glyph glyph-name="Scaron" unicode="&#x160;" 
d="M381 -7q-78 0 -150.5 25.5t-128.5 76.5l42 102q54 -48 116.5 -71t133.5 -23q63 0 97.5 30t34.5 84q0 49 -37.5 74.5t-141.5 53.5q-124 34 -180 85t-56 144q0 104 69.5 168t193.5 64q76 0 144.5 -25.5t112.5 -71.5l-36 -98q-51 42 -107 63.5t-113 21.5t-90.5 -26
t-33.5 -77q0 -49 37 -73.5t147 -55.5q125 -34 178 -85t53 -143q0 -110 -75 -176.5t-210 -66.5zM328 904l-156 152l48 68l161 -109l158 109l49 -68l-154 -152h-106z" />
    <glyph glyph-name="scaron" unicode="&#x161;" horiz-adv-x="680" 
d="M343 -9q-70 0 -136 21.5t-114 59.5l37 93q49 -34 106 -54t110 -20q47 0 73.5 16t26.5 52q0 40 -29.5 55.5t-105.5 32.5q-93 19 -147.5 56.5t-54.5 122.5q0 86 60 135t157 49q63 0 123 -20.5t105 -54.5l-32 -90q-47 31 -95 48t-92 17q-42 0 -65.5 -16.5t-23.5 -51.5
q0 -39 31 -55.5t112 -34.5q96 -20 144.5 -59.5t48.5 -117.5q0 -87 -65 -135.5t-174 -48.5zM286 704l-156 152l48 68l161 -109l158 109l49 -68l-154 -152h-106z" />
    <glyph glyph-name="Tcedilla" unicode="&#x162;" horiz-adv-x="680" 
d="M270 0v689h-208v111h558v-111h-209v-689h-141zM311 0l16 42q68 -9 106 -40.5t38 -91.5q0 -66 -47 -97.5t-115 -31.5q-74 0 -118.5 28t-48.5 88l119 10q1 -19 10.5 -26.5t31.5 -7.5q24 0 35.5 11.5t11.5 45.5q0 32 -8.5 47t-30.5 23z" />
    <glyph glyph-name="tcedilla" unicode="&#x163;" horiz-adv-x="596" 
d="M387 -10q-98 0 -149.5 51t-51.5 147v305h-100v107h100v200h140v-200h173v-107h-173v-296q0 -51 21.5 -74.5t58.5 -23.5q17 0 38.5 5t44.5 15l17 -105q-22 -10 -53.5 -17t-65.5 -7zM314 0l16 42q68 -9 106 -40.5t38 -91.5q0 -66 -47 -97.5t-115 -31.5q-74 0 -118.5 28
t-48.5 88l119 10q1 -19 10.5 -26.5t31.5 -7.5q24 0 35.5 11.5t11.5 45.5q0 32 -8.5 47t-30.5 23z" />
    <glyph glyph-name="Tcaron" unicode="&#x164;" horiz-adv-x="680" 
d="M270 0v689h-208v111h558v-111h-209v-689h-141zM287 904l-156 152l48 68l161 -109l158 109l49 -68l-154 -152h-106z" />
    <glyph glyph-name="tcaron" unicode="&#x165;" horiz-adv-x="596" 
d="M387 -10q-98 0 -149.5 51t-51.5 147v305h-100v107h100v200h140v-200h173v-107h-173v-296q0 -51 21.5 -74.5t58.5 -23.5q17 0 38.5 5t44.5 15l17 -105q-22 -10 -53.5 -17t-65.5 -7zM403 705l51 295h180l-148 -295h-83z" />
    <glyph glyph-name="Tbar" unicode="&#x166;" horiz-adv-x="680" 
d="M270 0v303h-167v100h167v286h-208v111h558v-111h-209v-286h167v-100h-167v-303h-141z" />
    <glyph glyph-name="tbar" unicode="&#x167;" horiz-adv-x="596" 
d="M387 -10q-98 0 -149.5 51t-51.5 147v82h-100v100h100v123h-100v107h100v200h140v-200h173v-107h-173v-123h173v-100h-173v-73q0 -51 21.5 -74.5t58.5 -23.5q17 0 38.5 5t44.5 15l17 -105q-22 -10 -53.5 -17t-65.5 -7z" />
    <glyph glyph-name="Utilde" unicode="&#x168;" 
d="M382 -10q-145 0 -212.5 68.5t-67.5 208.5v533h141v-529q0 -89 30.5 -128t108.5 -39t108 39t30 128v529h140v-533q0 -140 -67 -208.5t-211 -68.5zM457 910q-35 0 -56.5 16t-37.5 38l-24.5 36.5t-27.5 16.5t-26 -17.5t-9 -63.5v-16h-93v15q0 80 33.5 131t93.5 51
q34 0 55.5 -15.5t37.5 -38.5l24.5 -37t25.5 -17q16 0 26 18t10 64v16h93v-15q0 -81 -33 -131.5t-92 -50.5z" />
    <glyph glyph-name="utilde" unicode="&#x169;" horiz-adv-x="680" 
d="M259 -10q-72 0 -114 52.5t-42 141.5v416h141v-394q0 -50 18 -76t54 -26q33 0 64.5 22.5t56.5 62.5v411h141v-600h-141v90h-24q-17 -46 -58.5 -73t-95.5 -27zM414 710q-35 0 -56.5 16t-37.5 38l-24.5 36.5t-27.5 16.5t-26 -17.5t-9 -63.5v-16h-93v15q0 80 33.5 131
t93.5 51q34 0 55.5 -15.5t37.5 -38.5l24.5 -37t25.5 -17q16 0 26 18t10 64v16h93v-15q0 -81 -33 -131.5t-92 -50.5z" />
    <glyph glyph-name="Umacron" unicode="&#x16a;" 
d="M382 -10q-145 0 -212.5 68.5t-67.5 208.5v533h141v-529q0 -89 30.5 -128t108.5 -39t108 39t30 128v529h140v-533q0 -140 -67 -208.5t-211 -68.5zM201 945v110h362v-110h-362z" />
    <glyph glyph-name="umacron" unicode="&#x16b;" horiz-adv-x="680" 
d="M259 -10q-72 0 -114 52.5t-42 141.5v416h141v-394q0 -50 18 -76t54 -26q33 0 64.5 22.5t56.5 62.5v411h141v-600h-141v90h-24q-17 -46 -58.5 -73t-95.5 -27zM158 745v110h362v-110h-362z" />
    <glyph glyph-name="Ubreve" unicode="&#x16c;" 
d="M382 -10q-145 0 -212.5 68.5t-67.5 208.5v533h141v-529q0 -89 30.5 -128t108.5 -39t108 39t30 128v529h140v-533q0 -140 -67 -208.5t-211 -68.5zM382 893q-104 0 -158.5 53.5t-55.5 166.5h118q1 -71 23 -99t73 -28t73 28t23 99h118q-1 -113 -55.5 -166.5t-158.5 -53.5z
" />
    <glyph glyph-name="ubreve" unicode="&#x16d;" horiz-adv-x="680" 
d="M259 -10q-72 0 -114 52.5t-42 141.5v416h141v-394q0 -50 18 -76t54 -26q33 0 64.5 22.5t56.5 62.5v411h141v-600h-141v90h-24q-17 -46 -58.5 -73t-95.5 -27zM339 693q-104 0 -158.5 53.5t-55.5 166.5h118q1 -71 23 -99t73 -28t73 28t23 99h118q-1 -113 -55.5 -166.5
t-158.5 -53.5z" />
    <glyph glyph-name="Uring" unicode="&#x16e;" 
d="M382 -10q-145 0 -212.5 68.5t-67.5 208.5v533h141v-529q0 -89 30.5 -128t108.5 -39t108 39t30 128v529h140v-533q0 -140 -67 -208.5t-211 -68.5zM382 882q-72 0 -117 36t-45 112v32q0 77 45 114t117 37q73 0 117.5 -37t44.5 -114v-32q0 -76 -45 -112t-117 -36zM382 959
q31 0 47 16.5t16 54.5v32q0 37 -16 55.5t-47 18.5t-47 -18.5t-16 -55.5v-32q0 -38 16 -54.5t47 -16.5z" />
    <glyph glyph-name="uring" unicode="&#x16f;" horiz-adv-x="680" 
d="M259 -10q-72 0 -114 52.5t-42 141.5v416h141v-394q0 -50 18 -76t54 -26q33 0 64.5 22.5t56.5 62.5v411h141v-600h-141v90h-24q-17 -46 -58.5 -73t-95.5 -27zM339 682q-72 0 -117 36t-45 112v32q0 77 45 114t117 37q73 0 117.5 -37t44.5 -114v-32q0 -76 -45 -112t-117 -36
zM339 759q31 0 47 16.5t16 54.5v32q0 37 -16 55.5t-47 18.5t-47 -18.5t-16 -55.5v-32q0 -38 16 -54.5t47 -16.5z" />
    <glyph glyph-name="Uhungarumlaut" unicode="&#x170;" 
d="M382 -10q-145 0 -212.5 68.5t-67.5 208.5v533h141v-529q0 -89 30.5 -128t108.5 -39t108 39t30 128v529h140v-533q0 -140 -67 -208.5t-211 -68.5zM423 900l41 200h145l-110 -200h-76zM231 900l41 200h145l-110 -200h-76z" />
    <glyph glyph-name="uhungarumlaut" unicode="&#x171;" horiz-adv-x="680" 
d="M259 -10q-72 0 -114 52.5t-42 141.5v416h141v-394q0 -50 18 -76t54 -26q33 0 64.5 22.5t56.5 62.5v411h141v-600h-141v90h-24q-17 -46 -58.5 -73t-95.5 -27zM380 700l41 200h145l-110 -200h-76zM188 700l41 200h145l-110 -200h-76z" />
    <glyph glyph-name="Uogonek" unicode="&#x172;" 
d="M442 -218q-66 0 -104.5 32t-38.5 90q0 52 37.5 93.5t87.5 59.5l22 -34q-26 -19 -35 -41.5t-9 -44.5q0 -27 15.5 -40.5t46.5 -13.5q15 0 35.5 3t42.5 7v-100q-25 -5 -51.5 -8t-48.5 -3zM382 -10q-145 0 -212.5 68.5t-67.5 208.5v533h141v-529q0 -89 30.5 -128t108.5 -39
t108 39t30 128v529h140v-533q0 -140 -67 -208.5t-211 -68.5z" />
    <glyph glyph-name="uogonek" unicode="&#x173;" horiz-adv-x="680" 
d="M520 -218q-66 0 -104.5 32t-38.5 90q0 52 37.5 93.5t87.5 59.5l22 -34q-26 -19 -35 -41.5t-9 -44.5q0 -27 15.5 -40.5t46.5 -13.5q15 0 35.5 3t42.5 7v-100q-25 -5 -51.5 -8t-48.5 -3zM259 -10q-72 0 -114 52.5t-42 141.5v416h141v-394q0 -50 18 -76t54 -26
q33 0 64.5 22.5t56.5 62.5v411h141v-600h-141v90h-24q-17 -46 -58.5 -73t-95.5 -27z" />
    <glyph glyph-name="Wcircumflex" unicode="&#x174;" horiz-adv-x="922" 
d="M566 0l-103 474l-106 -474h-153l-133 800h135l94 -627l95 468h140l101 -467l94 626h121l-132 -800h-153zM302 900l-49 68l154 152h106l156 -152l-48 -67l-161 109z" />
    <glyph glyph-name="wcircumflex" unicode="&#x175;" horiz-adv-x="847" 
d="M518 0l-91 381l-88 -381h-155l-126 600h126l89 -473l87 373h130l92 -366l88 466h120l-126 -600h-146zM264 700l-49 68l154 152h106l156 -152l-48 -67l-161 109z" />
    <glyph glyph-name="Ycircumflex" unicode="&#x176;" horiz-adv-x="680" 
d="M411 0h-141v300l-241 500h149l166 -381l166 381h141l-240 -500v-300zM180 900l-49 68l154 152h106l156 -152l-48 -67l-161 109z" />
    <glyph glyph-name="ycircumflex" unicode="&#x177;" horiz-adv-x="596" 
d="M172 -208q-27 0 -58.5 3t-66.5 8l11 107q31 -5 55.5 -8.5t43.5 -3.5q58 0 83.5 27.5t38.5 78.5l2 10h-87l-155 586h140l123 -501l118 501h136l-158 -627q-28 -97 -82 -139t-144 -42zM139 700l-49 68l154 152h106l156 -152l-48 -67l-161 109z" />
    <glyph glyph-name="Ydieresis" unicode="&#x178;" horiz-adv-x="680" 
d="M411 0h-141v300l-241 500h149l166 -381l166 381h141l-240 -500v-300zM234 903q-32 0 -52.5 13.5t-20.5 50.5v10q0 37 20.5 51.5t52.5 14.5q33 0 53 -14.5t20 -51.5v-10q0 -37 -20.5 -50.5t-52.5 -13.5zM444 903q-33 0 -53 13.5t-20 50.5v10q0 37 20 51.5t53 14.5
q32 0 52.5 -14.5t20.5 -51.5v-10q0 -37 -21 -50.5t-52 -13.5z" />
    <glyph glyph-name="Zacute" unicode="&#x179;" 
d="M655 0h-547v111l378 578h-378v111h547v-111l-388 -578h388v-111zM275 900l97 200h182l-180 -200h-99z" />
    <glyph glyph-name="zacute" unicode="&#x17a;" horiz-adv-x="680" 
d="M561 0h-441v107l289 386h-289v107h441v-107l-281 -386h281v-107zM232 700l97 200h182l-180 -200h-99z" />
    <glyph glyph-name="Zdotaccent" unicode="&#x17b;" 
d="M655 0h-547v111l378 578h-378v111h547v-111l-388 -578h388v-111zM382 903q-43 0 -69.5 13.5t-26.5 50.5v10q0 37 26.5 51.5t69.5 14.5t69.5 -14.5t26.5 -51.5v-10q0 -37 -27 -50.5t-69 -13.5z" />
    <glyph glyph-name="zdotaccent" unicode="&#x17c;" horiz-adv-x="680" 
d="M561 0h-441v107l289 386h-289v107h441v-107l-281 -386h281v-107zM339 703q-43 0 -69.5 13.5t-26.5 50.5v10q0 37 26.5 51.5t69.5 14.5t69.5 -14.5t26.5 -51.5v-10q0 -37 -27 -50.5t-69 -13.5z" />
    <glyph glyph-name="Zcaron" unicode="&#x17d;" 
d="M655 0h-547v111l378 578h-378v111h547v-111l-388 -578h388v-111zM330 904l-156 152l48 68l161 -109l158 109l49 -68l-154 -152h-106z" />
    <glyph glyph-name="zcaron" unicode="&#x17e;" horiz-adv-x="680" 
d="M561 0h-441v107l289 386h-289v107h441v-107l-281 -386h281v-107zM287 704l-156 152l48 68l161 -109l158 109l49 -68l-154 -152h-106z" />
    <glyph glyph-name="longs" unicode="&#x17f;" horiz-adv-x="513" 
d="M187 0v493h-100v107h100v40q0 87 57 133.5t140 46.5q28 0 59.5 -7.5t58.5 -17.5l-17 -98q-22 8 -43 13.5t-40 5.5q-35 0 -55 -19t-20 -62v-635h-140z" />
    <glyph glyph-name="florin" unicode="&#x192;" horiz-adv-x="680" 
d="M213 -6q-15 0 -30.5 1.5t-32.5 4.5q-16 3 -31 7.5t-29 10.5l17 100q12 -5 23.5 -9t22.5 -6q11 -3 21 -4t19 -1q21 0 35.5 6t23.5 18t13.5 31.5t4.5 46.5v203h-169v107h169v127q0 42 14 76t40 58t63 36.5t81 12.5q15 0 30.5 -1.5t31.5 -4.5q17 -3 32.5 -7.5t28.5 -10.5
l-17 -99q-12 5 -23.5 8.5t-22.5 5.5q-11 3 -21 4t-19 1q-21 0 -35.5 -6t-23.5 -18t-13.5 -31.5t-4.5 -46.5v-104h172v-107h-172v-225q0 -42 -14 -76.5t-40 -58.5t-62.5 -36.5t-81.5 -12.5z" />
    <glyph glyph-name="Aringacute" unicode="&#x1fa;" 
d="M464 323l-88 355l-88 -355h176zM544 0l-52 213h-232l-52 -213h-132l218 800h178l216 -800h-144zM382 882q-72 0 -117 36t-45 112v32q0 77 45 114t117 37q73 0 117.5 -37t44.5 -114v-32q0 -76 -45 -112t-117 -36zM382 959q31 0 47 16.5t16 54.5v32q0 37 -16 55.5t-47 18.5
t-47 -18.5t-16 -55.5v-32q0 -38 16 -54.5t47 -16.5zM311 1200l97 200h182l-180 -200h-99z" />
    <glyph glyph-name="aringacute" unicode="&#x1fb;" 
d="M320 88q35 0 67 13t55 44v104h-131q-31 0 -50 -17.5t-19 -61.5q0 -40 19 -61t59 -21zM288 -10q-81 0 -130.5 45t-49.5 127q0 81 49 126t133 45h152v85q0 43 -24 67.5t-71 24.5q-49 0 -71.5 -21.5t-35.5 -81.5l-120 24q17 93 77 136t160 43q104 0 164.5 -43.5t60.5 -139.5
v-256q0 -48 24.5 -61t76.5 -4v-106q-72 -14 -120 4.5t-61 83.5h-23q-25 -43 -76 -70.5t-115 -27.5zM353 682q-72 0 -117 36t-45 112v32q0 77 45 114t117 37q73 0 117.5 -37t44.5 -114v-32q0 -76 -45 -112t-117 -36zM353 759q31 0 47 16.5t16 54.5v32q0 37 -16 55.5t-47 18.5
t-47 -18.5t-16 -55.5v-32q0 -38 16 -54.5t47 -16.5zM299 1000l97 200h182l-180 -200h-99z" />
    <glyph glyph-name="AEacute" unicode="&#x1fc;" horiz-adv-x="1006" 
d="M477 900l97 200h182l-180 -200h-99zM397 689l-112 -366h187v366h-75zM472 213h-220l-65 -213h-130l258 800h584v-111h-286v-202h245v-111h-245v-265h286v-111h-427v213z" />
    <glyph glyph-name="aeacute" unicode="&#x1fd;" horiz-adv-x="930" 
d="M827 147q-19 -85 -68.5 -121t-133.5 -36q-59 0 -101.5 21.5t-64.5 65.5h-21q-23 -40 -66 -63.5t-100 -23.5q-69 0 -119.5 41.5t-50.5 127.5q0 84 53 129t140 45h105v82q0 43 -18 66.5t-55 23.5t-55 -17t-31 -68l-127 24q17 84 64.5 125t142.5 41q52 0 92 -16.5t63 -51.5
q26 34 65.5 51t87.5 17q89 0 143.5 -53t54.5 -157v-127h-286v-94q0 -44 19 -67t63 -23q38 0 58 15t28 57zM541 412v-55h152v46q0 59 -17 84.5t-59 25.5t-59 -24t-17 -77zM400 136v113h-89q-34 0 -54 -18.5t-20 -62.5q0 -40 14 -60t48 -20q28 0 54.5 11.5t46.5 36.5zM358 700
l97 200h182l-180 -200h-99z" />
    <glyph glyph-name="Oslashacute" unicode="&#x1fe;" 
d="M262 163l168 531q-10 3 -22.5 4t-25.5 1q-77 0 -108 -37.5t-31 -132.5v-262q0 -34 4.5 -60t14.5 -44zM382 101q76 0 107 36.5t31 129.5v262q0 34 -5.5 58.5t-17.5 40.5l-169 -521q12 -4 25 -5t29 -1zM382 -10q-22 0 -43 2.5t-40 6.5l-34 -99h-107l49 135
q-52 33 -78.5 90.5t-26.5 133.5v278q0 128 71.5 200.5t208.5 72.5q21 0 40 -1.5t37 -5.5l33 97h107l-46 -132q54 -34 80.5 -93t26.5 -138v-278q0 -126 -70.5 -197.5t-207.5 -71.5zM275 900l97 200h182l-180 -200h-99z" />
    <glyph glyph-name="oslashacute" unicode="&#x1ff;" horiz-adv-x="680" 
d="M233 216q0 -22 3 -40.5t9 -31.5l144 355q-10 3 -22.5 5t-26.5 2q-57 0 -82 -29t-25 -94v-167zM340 94q58 0 83.5 28t25.5 94v168q0 22 -3 40t-10 31l-141 -355q10 -3 21 -4.5t24 -1.5zM340 -10q-20 0 -39 2.5t-37 6.5l-43 -99h-95l58 133q-38 28 -59.5 72.5t-21.5 104.5
v176q0 111 65.5 167.5t172.5 56.5q21 0 40.5 -2.5t36.5 -6.5l42 99h95l-58 -134q39 -28 60 -73t21 -107v-176q0 -109 -65.5 -164.5t-172.5 -55.5zM232 700l97 200h182l-180 -200h-99z" />
    <glyph glyph-name="Scommaaccent" unicode="&#x218;" 
d="M381 -7q-78 0 -150.5 25.5t-128.5 76.5l42 102q54 -48 116.5 -71t133.5 -23q63 0 97.5 30t34.5 84q0 49 -37.5 74.5t-141.5 53.5q-124 34 -180 85t-56 144q0 104 69.5 168t193.5 64q76 0 144.5 -25.5t112.5 -71.5l-36 -98q-51 42 -107 63.5t-113 21.5t-90.5 -26
t-33.5 -77q0 -49 37 -73.5t147 -55.5q125 -34 178 -85t53 -143q0 -110 -75 -176.5t-210 -66.5zM225 -300l63 200h182l-146 -200h-99z" />
    <glyph glyph-name="scommaaccent" unicode="&#x219;" horiz-adv-x="680" 
d="M343 -9q-70 0 -136 21.5t-114 59.5l37 93q49 -34 106 -54t110 -20q47 0 73.5 16t26.5 52q0 40 -29.5 55.5t-105.5 32.5q-93 19 -147.5 56.5t-54.5 122.5q0 86 60 135t157 49q63 0 123 -20.5t105 -54.5l-32 -90q-47 31 -95 48t-92 17q-42 0 -65.5 -16.5t-23.5 -51.5
q0 -39 31 -55.5t112 -34.5q96 -20 144.5 -59.5t48.5 -117.5q0 -87 -65 -135.5t-174 -48.5zM172 -300l63 200h182l-146 -200h-99z" />
    <glyph glyph-name="Tcommaaccent" unicode="&#x21a;" horiz-adv-x="680" 
d="M270 0v689h-208v111h558v-111h-209v-689h-141zM188 -300l63 200h182l-146 -200h-99z" />
    <glyph glyph-name="tcommaaccent" unicode="&#x21b;" horiz-adv-x="596" 
d="M387 -10q-98 0 -149.5 51t-51.5 147v305h-100v107h100v200h140v-200h173v-107h-173v-296q0 -51 21.5 -74.5t58.5 -23.5q17 0 38.5 5t44.5 15l17 -105q-22 -10 -53.5 -17t-65.5 -7zM186 -300l63 200h182l-146 -200h-99z" />
    <glyph glyph-name="dotlessj" unicode="&#xf6be;" horiz-adv-x="513" 
d="M166 -209q-28 0 -58 6t-59 16l17 104q24 -10 45 -15.5t40 -5.5q35 0 56.5 25t21.5 82v490h-150v107h290v-608q0 -99 -58 -150t-145 -51z" />
    <glyph glyph-name="dotlessj" unicode="&#x237;" horiz-adv-x="513" 
d="M166 -209q-28 0 -58 6t-59 16l17 104q24 -10 45 -15.5t40 -5.5q35 0 56.5 25t21.5 82v490h-150v107h290v-608q0 -99 -58 -150t-145 -51z" />
    <glyph glyph-name="quoteleft" unicode="&#x2018;" horiz-adv-x="604" 
d="M154 383l203 417h94l-83 -417h-214z" />
    <glyph glyph-name="quoteleft" unicode="&#x2bb;" horiz-adv-x="604" 
d="M154 383l203 417h94l-83 -417h-214z" />
    <glyph glyph-name="circumflex" unicode="&#x2c6;" horiz-adv-x="604" 
d="M143 700l-49 68l154 152h106l156 -152l-48 -67l-161 109z" />
    <glyph glyph-name="caron" unicode="&#x2c7;" horiz-adv-x="604" 
d="M250 704l-156 152l48 68l161 -109l158 109l49 -68l-154 -152h-106z" />
    <glyph glyph-name="breve" unicode="&#x2d8;" horiz-adv-x="604" 
d="M302 693q-104 0 -158.5 53.5t-55.5 166.5h118q1 -71 23 -99t73 -28t73 28t23 99h118q-1 -113 -55.5 -166.5t-158.5 -53.5z" />
    <glyph glyph-name="dotaccent" unicode="&#x2d9;" horiz-adv-x="604" 
d="M302 703q-43 0 -69.5 13.5t-26.5 50.5v10q0 37 26.5 51.5t69.5 14.5t69.5 -14.5t26.5 -51.5v-10q0 -37 -27 -50.5t-69 -13.5z" />
    <glyph glyph-name="ring" unicode="&#x2da;" horiz-adv-x="604" 
d="M302 682q-72 0 -117 36t-45 112v32q0 77 45 114t117 37q73 0 117.5 -37t44.5 -114v-32q0 -76 -45 -112t-117 -36zM302 759q31 0 47 16.5t16 54.5v32q0 37 -16 55.5t-47 18.5t-47 -18.5t-16 -55.5v-32q0 -38 16 -54.5t47 -16.5z" />
    <glyph glyph-name="ogonek" unicode="&#x2db;" horiz-adv-x="604" 
d="M326 -218q-66 0 -104.5 32t-38.5 90q0 52 37.5 93.5t87.5 59.5l22 -34q-26 -19 -35 -41.5t-9 -44.5q0 -27 15.5 -40.5t46.5 -13.5q15 0 35.5 3t42.5 7v-100q-25 -5 -51.5 -8t-48.5 -3z" />
    <glyph glyph-name="tilde" unicode="&#x2dc;" horiz-adv-x="604" 
d="M377 710q-35 0 -56.5 16t-37.5 38l-24.5 36.5t-27.5 16.5t-26 -17.5t-9 -63.5v-16h-93v15q0 80 33.5 131t93.5 51q34 0 55.5 -15.5t37.5 -38.5l24.5 -37t25.5 -17q16 0 26 18t10 64v16h93v-15q0 -81 -33 -131.5t-92 -50.5z" />
    <glyph glyph-name="hungarumlaut" unicode="&#x2dd;" horiz-adv-x="604" 
d="M343 700l41 200h145l-110 -200h-76zM151 700l41 200h145l-110 -200h-76z" />
    <glyph glyph-name="gravecmb" unicode="&#x300;" horiz-adv-x="0" 
d="M-11 700l-179 200h182l96 -200h-99z" />
    <glyph glyph-name="acutecmb" unicode="&#x301;" horiz-adv-x="0" 
d="M-107 700l97 200h182l-180 -200h-99z" />
    <glyph glyph-name="circumflexcmb" unicode="&#x302;" horiz-adv-x="0" 
d="M-159 700l-49 68l154 152h106l156 -152l-48 -67l-161 109z" />
    <glyph glyph-name="tildecmb" unicode="&#x303;" horiz-adv-x="0" 
d="M75 710q-35 0 -56.5 16t-37.5 38l-24.5 36.5t-27.5 16.5t-26 -17.5t-9 -63.5v-16h-93v15q0 80 33.5 131t93.5 51q34 0 55.5 -15.5t37.5 -38.5l24.5 -37t25.5 -17q16 0 26 18t10 64v16h93v-15q0 -81 -33 -131.5t-92 -50.5z" />
    <glyph glyph-name="macroncmb" unicode="&#x304;" horiz-adv-x="0" 
d="M-181 745v110h362v-110h-362z" />
    <glyph glyph-name="brevecmb" unicode="&#x306;" horiz-adv-x="0" 
d="M0 693q-104 0 -158.5 53.5t-55.5 166.5h118q1 -71 23 -99t73 -28t73 28t23 99h118q-1 -113 -55.5 -166.5t-158.5 -53.5z" />
    <glyph glyph-name="dotaccentcmb" unicode="&#x307;" horiz-adv-x="0" 
d="M0 703q-43 0 -69.5 13.5t-26.5 50.5v10q0 37 26.5 51.5t69.5 14.5t69.5 -14.5t26.5 -51.5v-10q0 -37 -27 -50.5t-69 -13.5z" />
    <glyph glyph-name="dieresiscmb" unicode="&#x308;" horiz-adv-x="0" 
d="M-105 703q-32 0 -52.5 13.5t-20.5 50.5v10q0 37 20.5 51.5t52.5 14.5q33 0 53 -14.5t20 -51.5v-10q0 -37 -20.5 -50.5t-52.5 -13.5zM105 703q-33 0 -53 13.5t-20 50.5v10q0 37 20 51.5t53 14.5q32 0 52.5 -14.5t20.5 -51.5v-10q0 -37 -21 -50.5t-52 -13.5z" />
    <glyph glyph-name="ringcmb" unicode="&#x30a;" horiz-adv-x="0" 
d="M0 682q-72 0 -117 36t-45 112v32q0 77 45 114t117 37q73 0 117.5 -37t44.5 -114v-32q0 -76 -45 -112t-117 -36zM0 759q31 0 47 16.5t16 54.5v32q0 37 -16 55.5t-47 18.5t-47 -18.5t-16 -55.5v-32q0 -38 16 -54.5t47 -16.5z" />
    <glyph glyph-name="hungarumlautcmb" unicode="&#x30b;" horiz-adv-x="0" 
d="M41 700l41 200h145l-110 -200h-76zM-151 700l41 200h145l-110 -200h-76z" />
    <glyph glyph-name="caroncmb" unicode="&#x30c;" horiz-adv-x="0" 
d="M-52 704l-156 152l48 68l161 -109l158 109l49 -68l-154 -152h-106z" />
    <glyph glyph-name="commaturnedabovecmb" unicode="&#x312;" horiz-adv-x="0" 
d="M-123 700l146 200h99l-63 -200h-182z" />
    <glyph glyph-name="commaaccentcmb" unicode="&#x326;" horiz-adv-x="0" 
d="M-129 -300l63 200h182l-146 -200h-99z" />
    <glyph glyph-name="cedillacmb" unicode="&#x327;" horiz-adv-x="0" 
d="M-25 0l16 42q68 -9 106 -40.5t38 -91.5q0 -66 -47 -97.5t-115 -31.5q-74 0 -118.5 28t-48.5 88l119 10q1 -19 10.5 -26.5t31.5 -7.5q24 0 35.5 11.5t11.5 45.5q0 32 -8.5 47t-30.5 23z" />
    <glyph glyph-name="ogonekcmb" unicode="&#x328;" horiz-adv-x="0" 
d="M24 -218q-66 0 -104.5 32t-38.5 90q0 52 37.5 93.5t87.5 59.5l22 -34q-26 -19 -35 -41.5t-9 -44.5q0 -27 15.5 -40.5t46.5 -13.5q15 0 35.5 3t42.5 7v-100q-25 -5 -51.5 -8t-48.5 -3z" />
    <glyph glyph-name="tonos" unicode="&#x384;" horiz-adv-x="604" 
d="M229 700l46 200h174l-130 -200h-90z" />
    <glyph glyph-name="dieresistonos" unicode="&#x385;" horiz-adv-x="604" 
d="M234 700l39 200h128l-87 -200h-80zM127 697q-28 0 -46 13.5t-18 49.5v10q0 37 18 51.5t46 14.5q29 0 47 -14.5t18 -51.5v-10q0 -36 -18.5 -49.5t-46.5 -13.5zM477 697q-29 0 -47 13.5t-18 49.5v10q0 37 18 51.5t47 14.5t46.5 -14.5t17.5 -51.5v-10q0 -36 -18 -49.5
t-46 -13.5z" />
    <glyph glyph-name="Alphatonos" unicode="&#x386;" 
d="M530 323l-88 355l-88 -355h176zM610 0l-52 213h-232l-52 -213h-132l218 800h178l216 -800h-144zM67 600l46 200h174l-130 -200h-90z" />
    <glyph glyph-name="anoteleia" unicode="&#x387;" horiz-adv-x="604" 
d="M303 274q-52 0 -84 25t-32 75v49q0 50 32 76t84 26q51 0 82.5 -26t31.5 -76v-49q0 -50 -32 -75t-82 -25z" />
    <glyph glyph-name="Epsilontonos" unicode="&#x388;" horiz-adv-x="847" 
d="M309 0v800h480v-111h-340v-202h298v-111h-298v-265h340v-111h-480zM0 600l46 200h174l-130 -200h-90z" />
    <glyph glyph-name="Etatonos" unicode="&#x389;" horiz-adv-x="930" 
d="M269 0v800h141v-306h277v306h140v-800h-140v383h-277v-383h-141zM-6 600l46 200h174l-130 -200h-90z" />
    <glyph glyph-name="Iotatonos" unicode="&#x38a;" horiz-adv-x="847" 
d="M270 0v111h167v578h-167v111h475v-111h-167v-578h167v-111h-475zM2 600l46 200h174l-130 -200h-90z" />
    <glyph glyph-name="Omicrontonos" unicode="&#x38c;" horiz-adv-x="847" 
d="M466 -10q-137 0 -208.5 70.5t-71.5 201.5v275q0 131 72 202t208 71t207 -71t71 -202v-275q0 -131 -71 -201.5t-207 -70.5zM466 101q75 0 106.5 38t31.5 131v259q0 93 -31.5 131.5t-106.5 38.5q-76 0 -107.5 -38.5t-31.5 -131.5v-259q0 -93 31.5 -131t107.5 -38zM5 600
l46 200h174l-130 -200h-90z" />
    <glyph glyph-name="Upsilontonos" unicode="&#x38e;" horiz-adv-x="922" 
d="M644 0h-141v300l-241 500h149l166 -381l166 381h141l-240 -500v-300zM26 600l46 200h174l-130 -200h-90z" />
    <glyph glyph-name="Omegatonos" unicode="&#x38f;" horiz-adv-x="930" 
d="M493 0h-268v100h127v90q-69 31 -103.5 85t-34.5 129v122q0 138 80.5 211t240.5 73t240.5 -73t80.5 -211v-122q0 -75 -35 -129t-104 -85v-90h127v-100h-268v230q81 18 110 61t29 113v122q0 90 -40.5 131t-139.5 41t-139.5 -41t-40.5 -131v-122q0 -70 28.5 -113t109.5 -61
v-230zM5 600l46 200h174l-130 -200h-90z" />
    <glyph glyph-name="iotadieresistonos" unicode="&#x390;" horiz-adv-x="513" 
d="M310 -9q-81 0 -123 56t-42 149v404h141v-391q0 -50 17 -77.5t52 -27.5q15 -1 32.5 4.5t38.5 15.5l23 -103q-37 -15 -69.5 -22.5t-69.5 -7.5zM155 700l39 200h128l-87 -200h-80zM48 697q-28 0 -46 13.5t-18 49.5v10q0 37 18 51.5t46 14.5q29 0 47 -14.5t18 -51.5v-10
q0 -36 -18.5 -49.5t-46.5 -13.5zM398 697q-29 0 -47 13.5t-18 49.5v10q0 37 18 51.5t47 14.5t46.5 -14.5t17.5 -51.5v-10q0 -36 -18 -49.5t-46 -13.5z" />
    <glyph glyph-name="Alpha" unicode="&#x391;" 
d="M464 323l-88 355l-88 -355h176zM544 0l-52 213h-232l-52 -213h-132l218 800h178l216 -800h-144z" />
    <glyph glyph-name="Beta" unicode="&#x392;" 
d="M102 0v800h312q110 0 169.5 -49t59.5 -139v-41q0 -56 -27.5 -89t-82.5 -44v-29q62 -7 96.5 -49t34.5 -106v-47q0 -99 -64.5 -153t-184.5 -54h-313zM243 467h154q59 0 83 21.5t24 73.5v35q0 52 -24 74t-83 22h-154v-226zM243 107h157q68 0 96 25t28 85v39q0 60 -28 84.5
t-96 24.5h-157v-258z" />
    <glyph glyph-name="Gamma" unicode="&#x393;" horiz-adv-x="596" 
d="M102 0v800h450v-111h-309v-689h-141z" />
    <glyph glyph-name="Delta" unicode="&#x394;" horiz-adv-x="688" 
d="M38 0v111l213 689h190l209 -689v-111h-612zM512 111l-171 583l-178 -583h349z" />
    <glyph glyph-name="Epsilon" unicode="&#x395;" 
d="M142 0v800h480v-111h-340v-202h298v-111h-298v-265h340v-111h-480z" />
    <glyph glyph-name="Zeta" unicode="&#x396;" 
d="M655 0h-547v111l378 578h-378v111h547v-111l-388 -578h388v-111z" />
    <glyph glyph-name="Eta" unicode="&#x397;" 
d="M102 0v800h141v-306h277v306h140v-800h-140v383h-277v-383h-141z" />
    <glyph glyph-name="Theta" unicode="&#x398;" 
d="M382 -10q-137 0 -208.5 72t-71.5 204v264q0 134 72 207t208 73t207 -73t71 -207v-264q0 -132 -71 -204t-207 -72zM382 101q78 0 111 39t33 134v248q0 97 -33 137t-111 40q-79 0 -112 -40t-33 -137v-248q0 -95 33 -134t112 -39zM309 353v104h145v-104h-145z" />
    <glyph glyph-name="Iota" unicode="&#x399;" horiz-adv-x="680" 
d="M103 0v111h167v578h-167v111h475v-111h-167v-578h167v-111h-475z" />
    <glyph glyph-name="Kappa" unicode="&#x39a;" horiz-adv-x="680" 
d="M244 364v-364h-141v800h141v-324h32l210 324h156l-253 -368l250 -432h-163l-198 364h-34z" />
    <glyph glyph-name="Lambda" unicode="&#x39b;" horiz-adv-x="688" 
d="M507 0l-168 678l-169 -678h-132l218 800h178l216 -800h-143z" />
    <glyph glyph-name="Mu" unicode="&#x39c;" horiz-adv-x="847" 
d="M355 200l-130 434v-634h-122v800h185l138 -474l139 474h180v-800h-122v639l-130 -439h-138z" />
    <glyph glyph-name="Nu" unicode="&#x39d;" 
d="M470 0l-246 634v-634h-122v800h191l245 -617v617h122v-800h-190z" />
    <glyph glyph-name="Xi" unicode="&#x39e;" horiz-adv-x="680" 
d="M87 689v111h508v-111h-508zM108 376v111h465v-111h-465zM87 0v111h508v-111h-508z" />
    <glyph glyph-name="Omicron" unicode="&#x39f;" 
d="M382 -10q-137 0 -208.5 70.5t-71.5 201.5v275q0 131 72 202t208 71t207 -71t71 -202v-275q0 -131 -71 -201.5t-207 -70.5zM382 101q75 0 106.5 38t31.5 131v259q0 93 -31.5 131.5t-106.5 38.5q-76 0 -107.5 -38.5t-31.5 -131.5v-259q0 -93 31.5 -131t107.5 -38z" />
    <glyph glyph-name="Pi" unicode="&#x3a0;" 
d="M102 0v800h558v-800h-140v689h-277v-689h-141z" />
    <glyph glyph-name="Rho" unicode="&#x3a1;" horiz-adv-x="680" 
d="M103 0v800h266q114 0 174 -55.5t60 -162.5v-102q0 -105 -60 -159.5t-173 -54.5h-126v-266h-141zM244 375h107q59 0 85.5 26.5t26.5 88.5v83q0 63 -26.5 89.5t-85.5 26.5h-107v-314z" />
    <glyph glyph-name="Sigma" unicode="&#x3a3;" horiz-adv-x="680" 
d="M595 0h-516v111l288 305l-288 273v111h516v-111h-344l238 -234v-85l-240 -259h346v-111z" />
    <glyph glyph-name="Tau" unicode="&#x3a4;" horiz-adv-x="680" 
d="M270 0v689h-208v111h558v-111h-209v-689h-141z" />
    <glyph glyph-name="Upsilon" unicode="&#x3a5;" horiz-adv-x="680" 
d="M411 0h-141v300l-241 500h149l166 -381l166 381h141l-240 -500v-300z" />
    <glyph glyph-name="Phi" unicode="&#x3a6;" horiz-adv-x="847" 
d="M535 90h-41v-107h-140v107h-40q-119 0 -177 69t-58 191v96q0 123 58 193.5t177 70.5h40v107h140v-107h41q118 0 176.5 -70.5t58.5 -193.5v-96q0 -122 -58.5 -191t-176.5 -69zM535 603h-45v-406h45q55 0 77.5 39.5t22.5 113.5v96q0 75 -22.5 116t-77.5 41zM314 197h44v406
h-44q-55 0 -78 -41t-23 -116v-96q0 -74 23 -113.5t78 -39.5z" />
    <glyph glyph-name="Chi" unicode="&#x3a7;" 
d="M529 0l-150 277l-147 -277h-152l228 413l-208 387h158l140 -262l135 262h151l-214 -400l211 -400h-152z" />
    <glyph glyph-name="Psi" unicode="&#x3a8;" horiz-adv-x="922" 
d="M532 0h-140v190q-141 13 -210.5 82t-69.5 185v343h141v-333q0 -72 32 -111.5t107 -46.5v491h140v-491q74 8 106 47t32 111v333h141v-343q0 -116 -69.5 -185t-209.5 -82v-190z" />
    <glyph glyph-name="Omega" unicode="&#x3a9;" horiz-adv-x="771" 
d="M344 0h-268v100h127v90q-69 31 -103.5 85t-34.5 129v122q0 138 80.5 211t240.5 73t240.5 -73t80.5 -211v-122q0 -75 -35 -129t-104 -85v-90h127v-100h-268v230q81 18 110 61t29 113v122q0 90 -40.5 131t-139.5 41t-139.5 -41t-40.5 -131v-122q0 -70 28.5 -113t109.5 -61
v-230z" />
    <glyph glyph-name="Iotadieresis" unicode="&#x3aa;" horiz-adv-x="680" 
d="M103 0v111h167v578h-167v111h475v-111h-167v-578h167v-111h-475zM234 903q-32 0 -52.5 13.5t-20.5 50.5v10q0 37 20.5 51.5t52.5 14.5q33 0 53 -14.5t20 -51.5v-10q0 -37 -20.5 -50.5t-52.5 -13.5zM444 903q-33 0 -53 13.5t-20 50.5v10q0 37 20 51.5t53 14.5
q32 0 52.5 -14.5t20.5 -51.5v-10q0 -37 -21 -50.5t-52 -13.5z" />
    <glyph glyph-name="Upsilondieresis" unicode="&#x3ab;" horiz-adv-x="680" 
d="M411 0h-141v300l-241 500h149l166 -381l166 381h141l-240 -500v-300zM234 903q-32 0 -52.5 13.5t-20.5 50.5v10q0 37 20.5 51.5t52.5 14.5q33 0 53 -14.5t20 -51.5v-10q0 -37 -20.5 -50.5t-52.5 -13.5zM444 903q-33 0 -53 13.5t-20 50.5v10q0 37 20 51.5t53 14.5
q32 0 52.5 -14.5t20.5 -51.5v-10q0 -37 -21 -50.5t-52 -13.5z" />
    <glyph glyph-name="alphatonos" unicode="&#x3ac;" 
d="M320 104q34 0 62.5 17.5t53.5 55.5v244q-26 39 -54 57t-62 18q-39 0 -58 -28.5t-19 -88.5v-160q0 -63 20 -89t57 -26zM482 108h-26q-22 -56 -69.5 -87t-112.5 -31q-78 0 -125 56t-47 156v190q0 102 45.5 160.5t122.5 58.5q48 0 86 -27.5t56 -76.5h24v94h141v-424
q0 -51 23.5 -66t76.5 -5v-106q-81 -16 -131.5 10t-63.5 98zM291 700l46 200h174l-130 -200h-90z" />
    <glyph glyph-name="epsilontonos" unicode="&#x3ad;" horiz-adv-x="680" 
d="M344 -10q-124 0 -184.5 44t-60.5 129v13q0 52 31.5 87t98.5 41v22q-57 4 -86.5 31.5t-29.5 76.5v16q0 84 61.5 122t165.5 38q110 0 171 -45t67 -142l-130 -8q-7 52 -31.5 73t-73.5 21q-50 0 -71.5 -15.5t-21.5 -52.5v-14q0 -35 23.5 -49t74.5 -14h42v-90h-42
q-62 0 -87 -19.5t-25 -64.5v-10q0 -45 25 -67t85 -22q59 0 85 24t32 81l130 -7q-8 -101 -67.5 -150t-181.5 -49zM278 700l46 200h174l-130 -200h-90z" />
    <glyph glyph-name="etatonos" unicode="&#x3ae;" horiz-adv-x="680" 
d="M437 -200v605q0 46 -18 68.5t-53 22.5q-34 0 -65.5 -22.5t-56.5 -62.5v-411h-141v600h141v-90h25q16 46 59 73t98 27q70 0 111 -48t41 -130v-632h-141zM284 700l46 200h174l-130 -200h-90z" />
    <glyph glyph-name="iotatonos" unicode="&#x3af;" horiz-adv-x="513" 
d="M310 -9q-81 0 -123 56t-42 149v404h141v-391q0 -50 17 -77.5t52 -27.5q15 -1 32.5 4.5t38.5 15.5l23 -103q-37 -15 -69.5 -22.5t-69.5 -7.5zM165 700l46 200h174l-130 -200h-90z" />
    <glyph glyph-name="upsilondieresistonos" unicode="&#x3b0;" horiz-adv-x="680" 
d="M341 -10q-110 0 -174 62t-64 177v371h141v-370q0 -69 22.5 -99t73.5 -30q52 0 74.5 29.5t22.5 98.5v371h141v-371q0 -115 -63.5 -177t-173.5 -62zM271 700l39 200h128l-87 -200h-80zM164 697q-28 0 -46 13.5t-18 49.5v10q0 37 18 51.5t46 14.5q29 0 47 -14.5t18 -51.5
v-10q0 -36 -18.5 -49.5t-46.5 -13.5zM514 697q-29 0 -47 13.5t-18 49.5v10q0 37 18 51.5t47 14.5t46.5 -14.5t17.5 -51.5v-10q0 -36 -18 -49.5t-46 -13.5z" />
    <glyph glyph-name="alpha" unicode="&#x3b1;" 
d="M320 104q34 0 62.5 17.5t53.5 55.5v244q-26 39 -54 57t-62 18q-39 0 -58 -28.5t-19 -88.5v-160q0 -63 20 -89t57 -26zM482 108h-26q-22 -56 -69.5 -87t-112.5 -31q-78 0 -125 56t-47 156v190q0 102 45.5 160.5t122.5 58.5q48 0 86 -27.5t56 -76.5h24v94h141v-424
q0 -51 23.5 -66t76.5 -5v-106q-81 -16 -131.5 10t-63.5 98z" />
    <glyph glyph-name="beta" unicode="&#x3b2;" horiz-adv-x="680" 
d="M334 99q51 0 76.5 32t25.5 95v35q0 64 -26.5 91t-76.5 27h-48v94h43q43 0 64 24t21 75v18q0 57 -21 83t-63 26q-43 0 -64 -28t-21 -89v-453q21 -16 43.5 -23t46.5 -7zM362 -10q-31 0 -61.5 6.5t-56.5 19.5v-216h-141v780q0 117 63.5 173.5t162.5 56.5q102 0 162 -52
t60 -145v-23q0 -56 -28.5 -93t-90.5 -49v-29q67 -7 106 -53t40 -109v-43q0 -104 -57.5 -164t-158.5 -60z" />
    <glyph glyph-name="gamma" unicode="&#x3b3;" horiz-adv-x="596" 
d="M382 -200h-168l14 220l-189 580h143l119 -419l113 419h142l-188 -580z" />
    <glyph glyph-name="delta" unicode="&#x3b4;" horiz-adv-x="680" 
d="M340 -10q-106 0 -171.5 55t-65.5 169v98q0 60 31.5 101.5t89.5 68.5q-51 26 -73 60t-22 86q0 89 52.5 130.5t156.5 41.5h166v-107h-166q-37 0 -56 -12.5t-19 -49.5q0 -32 31 -51.5t118 -51.5q91 -35 128.5 -83.5t37.5 -129.5v-101q0 -114 -65.5 -169t-172.5 -55zM340 97
q49 0 73 27t24 90v101q0 51 -29.5 79.5t-94.5 50.5q-33 -19 -51 -51.5t-18 -81.5v-98q0 -63 24.5 -90t71.5 -27z" />
    <glyph glyph-name="epsilon" unicode="&#x3b5;" horiz-adv-x="680" 
d="M344 -10q-124 0 -184.5 44t-60.5 129v13q0 52 31.5 87t98.5 41v22q-57 4 -86.5 31.5t-29.5 76.5v16q0 84 61.5 122t165.5 38q110 0 171 -45t67 -142l-130 -8q-7 52 -31.5 73t-73.5 21q-50 0 -71.5 -15.5t-21.5 -52.5v-14q0 -35 23.5 -49t74.5 -14h42v-90h-42
q-62 0 -87 -19.5t-25 -64.5v-10q0 -45 25 -67t85 -22q59 0 85 24t32 81l130 -7q-8 -101 -67.5 -150t-181.5 -49z" />
    <glyph glyph-name="zeta" unicode="&#x3b6;" horiz-adv-x="680" 
d="M385 -200h-115v104h116q31 0 49 12t18 49q0 38 -18 51t-49 13h-60q-112 0 -168 61t-56 156q0 78 26 134t76 118l103 131l-6 15q-84 -10 -141 33t-83 124l86 36q30 -73 88.5 -95.5t148.5 1.5l161 82l32 -134l-156 -41l-126 -190q-32 -50 -50 -95t-18 -105
q0 -54 23.5 -90.5t73.5 -36.5h75q76 0 119.5 -40t43.5 -125q0 -83 -52 -125.5t-141 -42.5z" />
    <glyph glyph-name="eta" unicode="&#x3b7;" horiz-adv-x="680" 
d="M437 -200v605q0 46 -18 68.5t-53 22.5q-34 0 -65.5 -22.5t-56.5 -62.5v-411h-141v600h141v-90h25q16 46 59 73t98 27q70 0 111 -48t41 -130v-632h-141z" />
    <glyph glyph-name="theta" unicode="&#x3b8;" horiz-adv-x="680" 
d="M340 -10q-108 0 -172.5 58.5t-64.5 168.5v362q0 112 64.5 171.5t173.5 59.5t173 -59.5t64 -171.5v-362q0 -110 -64.5 -168.5t-173.5 -58.5zM238 576v-120h205v122q0 65 -24.5 95t-78.5 30t-78 -30.5t-24 -96.5zM340 97q54 0 78.5 29.5t24.5 96.5v132h-205v-132
q0 -67 24 -96.5t78 -29.5z" />
    <glyph glyph-name="iota" unicode="&#x3b9;" horiz-adv-x="513" 
d="M310 -9q-81 0 -123 56t-42 149v404h141v-391q0 -50 17 -77.5t52 -27.5q15 -1 32.5 4.5t38.5 15.5l23 -103q-37 -15 -69.5 -22.5t-69.5 -7.5z" />
    <glyph glyph-name="kappa" unicode="&#x3ba;" horiz-adv-x="596" 
d="M243 273v-273h-141v600h141v-227h33l138 227h148l-173 -266l167 -334h-149l-129 273h-35z" />
    <glyph glyph-name="lambda" unicode="&#x3bb;" horiz-adv-x="596" 
d="M416 -1l-119 496l-118 -496h-140l149 576h89l-4 19q-13 53 -39.5 80.5t-77.5 27.5q-20 0 -44 -3t-54 -9l-11 105q35 6 66 9t58 3q91 0 146.5 -41.5t78.5 -135.5l160 -631h-140z" />
    <glyph glyph-name="mu" unicode="&#x3bc;" 
d="M243 20l8 -220h-157l8 220v580h141v-400q0 -51 25 -72.5t61 -21.5q34 0 61 13.5t46 44.5v436h141v-429q0 -47 24.5 -60.5t75.5 -4.5v-106q-72 -14 -117.5 4.5t-63.5 81.5h-22q-18 -40 -52 -68t-84 -28q-29 0 -53.5 12.5t-41.5 37.5v-20z" />
    <glyph glyph-name="nu" unicode="&#x3bd;" horiz-adv-x="596" 
d="M370 0h-145l-186 600h142l132 -473q46 117 71.5 240.5t32.5 232.5h139q-16 -169 -66.5 -320t-119.5 -280z" />
    <glyph glyph-name="xi" unicode="&#x3be;" horiz-adv-x="680" 
d="M583 -32q0 -83 -52 -125.5t-140 -42.5h-115v104h116q30 0 48 12t18 49q0 38 -18 51t-48 13h-88q-93 0 -147 50t-54 135v23q0 63 38 107t110 51v23q-47 0 -72 28.5t-25 72.5q0 38 22.5 67.5t68.5 42.5v23q-78 1 -126 39.5t-72 109.5l86 36q28 -57 84 -82t149 -9l174 79
l32 -134l-186 -44l-35 -23q-31 -20 -44 -45t-13 -53q0 -37 17.5 -53t43.5 -16h153v-104h-151q-57 0 -85 -27.5t-28 -73.5v-23q0 -44 25.5 -70t79.5 -26h59q82 0 128.5 -40t46.5 -125z" />
    <glyph glyph-name="omicron" unicode="&#x3bf;" horiz-adv-x="680" 
d="M340 -10q-107 0 -172 57.5t-65 164.5v172q0 109 65.5 167.5t172.5 58.5q108 0 172.5 -58.5t64.5 -167.5v-172q0 -107 -65 -164.5t-173 -57.5zM340 97q51 0 74 28t23 91v168q0 62 -23 90.5t-74 28.5t-73.5 -29t-22.5 -91v-167q0 -63 22.5 -91t73.5 -28z" />
    <glyph glyph-name="pi" unicode="&#x3c0;" 
d="M671 600v-107h-89v-316q0 -49 22 -64t79 -7v-106q-121 -19 -181 16t-60 124v353h-157v-493h-141v493h-83v107h610z" />
    <glyph glyph-name="rho" unicode="&#x3c1;" horiz-adv-x="680" 
d="M360 104q38 0 57.5 28.5t19.5 89.5v167q0 59 -23.5 86t-71.5 27q-49 0 -73.5 -27t-24.5 -86v-206q27 -40 55.5 -59.5t60.5 -19.5zM103 -200v586q0 108 62.5 165.5t175.5 57.5t175 -57.5t62 -165.5v-181q0 -96 -44 -155.5t-127 -59.5q-54 0 -90 29t-48 78h-25v-297h-141z
" />
    <glyph glyph-name="sigma1" unicode="&#x3c2;" horiz-adv-x="680" 
d="M271 -200v107h111q31 0 48.5 12t17.5 48q0 37 -17.5 49.5t-48.5 12.5h-73q-98 0 -152 61t-54 169v125q0 110 61.5 168t177.5 58q110 0 165.5 -54.5t65.5 -164.5l-134 -10q-4 72 -25.5 96.5t-72.5 24.5q-54 0 -75.5 -27.5t-21.5 -91.5v-127q0 -64 21 -92t74 -28h74
q82 0 124 -40.5t42 -124.5t-57.5 -127.5t-153.5 -43.5h-97z" />
    <glyph glyph-name="sigma" unicode="&#x3c3;" 
d="M339 97q51 0 74 27t23 92v149q0 69 -23 100t-74 31t-73.5 -28t-22.5 -91v-161q0 -65 22.5 -92t73.5 -27zM339 -10q-105 0 -171 55.5t-66 164.5v169q0 106 66 163.5t172 57.5h362v-117l-184 15q28 -25 43.5 -62.5t15.5 -86.5v-139q0 -109 -65.5 -164.5t-172.5 -55.5z" />
    <glyph glyph-name="tau" unicode="&#x3c4;" horiz-adv-x="596" 
d="M468 0q-121 -18 -180.5 16.5t-59.5 123.5v349h-167v111h482v-111h-175v-312q0 -49 22 -64t78 -7v-106z" />
    <glyph glyph-name="upsilon" unicode="&#x3c5;" horiz-adv-x="680" 
d="M341 -10q-110 0 -174 62t-64 177v371h141v-370q0 -69 22.5 -99t73.5 -30q52 0 74.5 29.5t22.5 98.5v371h141v-371q0 -115 -63.5 -177t-173.5 -62z" />
    <glyph glyph-name="phi" unicode="&#x3c6;" horiz-adv-x="922" 
d="M532 -200h-140v194q-137 15 -208.5 92t-71.5 208v62q0 80 15.5 145t47.5 116l136 -32q-26 -45 -42 -102t-16 -127v-62q0 -84 33.5 -129.5t105.5 -57.5v493h102q135 0 226 -70.5t91 -213.5v-39q0 -125 -76 -196.5t-203 -86.5v-194zM532 489v-383q72 10 105 52t33 119v39
q0 90 -34.5 131.5t-103.5 41.5z" />
    <glyph glyph-name="chi" unicode="&#x3c7;" horiz-adv-x="596" 
d="M399 -200l-109 257l-96 -257h-143l174 409l-168 391h143l103 -242l93 242h143l-170 -394l173 -406h-143z" />
    <glyph glyph-name="psi" unicode="&#x3c8;" horiz-adv-x="922" 
d="M532 -200h-140v190q-146 13 -213 84.5t-67 182.5v343h141v-333q0 -72 32 -109t107 -46v488h140v-488q75 10 106.5 46.5t31.5 108.5v333h141v-343q0 -111 -67 -182.5t-212 -84.5v-190z" />
    <glyph glyph-name="omega" unicode="&#x3c9;" horiz-adv-x="922" 
d="M294 -10q-81 0 -131.5 69.5t-50.5 201.5v72q0 87 16.5 167t36.5 117l136 -32q-13 -32 -30.5 -103t-17.5 -149v-72q0 -79 17.5 -119.5t51.5 -40.5q35 0 52.5 27t17.5 89v283h140v-283q0 -62 17.5 -89t51.5 -27q35 0 52 40.5t17 119.5v72q0 78 -17 149t-30 103l136 32
q19 -37 35.5 -117t16.5 -167v-72q0 -132 -50.5 -201.5t-131.5 -69.5q-57 0 -97 31t-62 100h-20q-21 -70 -61 -100.5t-95 -30.5z" />
    <glyph glyph-name="iotadieresis" unicode="&#x3ca;" horiz-adv-x="513" 
d="M310 -9q-81 0 -123 56t-42 149v404h141v-391q0 -50 17 -77.5t52 -27.5q15 -1 32.5 4.5t38.5 15.5l23 -103q-37 -15 -69.5 -22.5t-69.5 -7.5zM114 703q-32 0 -52.5 13.5t-20.5 50.5v10q0 37 20.5 51.5t52.5 14.5q33 0 53 -14.5t20 -51.5v-10q0 -37 -20.5 -50.5
t-52.5 -13.5zM324 703q-33 0 -53 13.5t-20 50.5v10q0 37 20 51.5t53 14.5q32 0 52.5 -14.5t20.5 -51.5v-10q0 -37 -21 -50.5t-52 -13.5z" />
    <glyph glyph-name="upsilondieresis" unicode="&#x3cb;" horiz-adv-x="680" 
d="M341 -10q-110 0 -174 62t-64 177v371h141v-370q0 -69 22.5 -99t73.5 -30q52 0 74.5 29.5t22.5 98.5v371h141v-371q0 -115 -63.5 -177t-173.5 -62zM234 703q-32 0 -52.5 13.5t-20.5 50.5v10q0 37 20.5 51.5t52.5 14.5q33 0 53 -14.5t20 -51.5v-10q0 -37 -20.5 -50.5
t-52.5 -13.5zM444 703q-33 0 -53 13.5t-20 50.5v10q0 37 20 51.5t53 14.5q32 0 52.5 -14.5t20.5 -51.5v-10q0 -37 -21 -50.5t-52 -13.5z" />
    <glyph glyph-name="omicrontonos" unicode="&#x3cc;" horiz-adv-x="680" 
d="M340 -10q-107 0 -172 57.5t-65 164.5v172q0 109 65.5 167.5t172.5 58.5q108 0 172.5 -58.5t64.5 -167.5v-172q0 -107 -65 -164.5t-173 -57.5zM340 97q51 0 74 28t23 91v168q0 62 -23 90.5t-74 28.5t-73.5 -29t-22.5 -91v-167q0 -63 22.5 -91t73.5 -28zM278 700l46 200
h174l-130 -200h-90z" />
    <glyph glyph-name="upsilontonos" unicode="&#x3cd;" horiz-adv-x="680" 
d="M341 -10q-110 0 -174 62t-64 177v371h141v-370q0 -69 22.5 -99t73.5 -30q52 0 74.5 29.5t22.5 98.5v371h141v-371q0 -115 -63.5 -177t-173.5 -62zM283 700l46 200h174l-130 -200h-90z" />
    <glyph glyph-name="omegatonos" unicode="&#x3ce;" horiz-adv-x="922" 
d="M294 -10q-81 0 -131.5 69.5t-50.5 201.5v72q0 87 16.5 167t36.5 117l136 -32q-13 -32 -30.5 -103t-17.5 -149v-72q0 -79 17.5 -119.5t51.5 -40.5q35 0 52.5 27t17.5 89v283h140v-283q0 -62 17.5 -89t51.5 -27q35 0 52 40.5t17 119.5v72q0 78 -17 149t-30 103l136 32
q19 -37 35.5 -117t16.5 -167v-72q0 -132 -50.5 -201.5t-131.5 -69.5q-57 0 -97 31t-62 100h-20q-21 -70 -61 -100.5t-95 -30.5zM393 700l46 200h174l-130 -200h-90z" />
    <glyph glyph-name="IEgravecyrillic" unicode="&#x400;" 
d="M142 0v800h480v-111h-340v-202h298v-111h-298v-265h340v-111h-480zM363 900l-179 200h182l96 -200h-99z" />
    <glyph glyph-name="Iocyrillic" unicode="&#x401;" 
d="M142 0v800h480v-111h-340v-202h298v-111h-298v-265h340v-111h-480zM287 903q-32 0 -52.5 13.5t-20.5 50.5v10q0 37 20.5 51.5t52.5 14.5q33 0 53 -14.5t20 -51.5v-10q0 -37 -20.5 -50.5t-52.5 -13.5zM497 903q-33 0 -53 13.5t-20 50.5v10q0 37 20 51.5t53 14.5
q32 0 52.5 -14.5t20.5 -51.5v-10q0 -37 -21 -50.5t-52 -13.5z" />
    <glyph glyph-name="Djecyrillic" unicode="&#x402;" horiz-adv-x="847" 
d="M242 0v689h-180v111h530v-111h-209v-169h130q125 0 187 -55t62 -166v-78q0 -116 -65.5 -168.5t-183.5 -52.5v109q54 0 81.5 25.5t27.5 88.5v74q0 63 -27.5 88.5t-81.5 25.5h-130v-411h-141z" />
    <glyph glyph-name="Gjecyrillic" unicode="&#x403;" horiz-adv-x="596" 
d="M102 0v800h450v-111h-309v-689h-141zM220 900l97 200h182l-180 -200h-99z" />
    <glyph glyph-name="Ecyrillic" unicode="&#x404;" 
d="M683 263q-6 -136 -78 -204.5t-209 -68.5q-146 0 -219.5 69.5t-73.5 200.5v276q0 134 73.5 204t220.5 70q137 0 208.5 -69.5t77.5 -207.5l-140 -10q-7 99 -39.5 137.5t-107.5 38.5q-86 0 -119.5 -37.5t-33.5 -133.5v-41h216v-111h-216v-109q0 -93 33.5 -129.5t119.5 -36.5
q75 0 107.5 37.5t39.5 134.5z" />
    <glyph glyph-name="Dzecyrillic" unicode="&#x405;" 
d="M381 -7q-78 0 -150.5 25.5t-128.5 76.5l42 102q54 -48 116.5 -71t133.5 -23q63 0 97.5 30t34.5 84q0 49 -37.5 74.5t-141.5 53.5q-124 34 -180 85t-56 144q0 104 69.5 168t193.5 64q76 0 144.5 -25.5t112.5 -71.5l-36 -98q-51 42 -107 63.5t-113 21.5t-90.5 -26
t-33.5 -77q0 -49 37 -73.5t147 -55.5q125 -34 178 -85t53 -143q0 -110 -75 -176.5t-210 -66.5z" />
    <glyph glyph-name="Icyrillic" unicode="&#x406;" horiz-adv-x="680" 
d="M103 0v111h167v578h-167v111h475v-111h-167v-578h167v-111h-475z" />
    <glyph glyph-name="Yicyrillic" unicode="&#x407;" horiz-adv-x="680" 
d="M103 0v111h167v578h-167v111h475v-111h-167v-578h167v-111h-475zM234 903q-32 0 -52.5 13.5t-20.5 50.5v10q0 37 20.5 51.5t52.5 14.5q33 0 53 -14.5t20 -51.5v-10q0 -37 -20.5 -50.5t-52.5 -13.5zM444 903q-33 0 -53 13.5t-20 50.5v10q0 37 20 51.5t53 14.5
q32 0 52.5 -14.5t20.5 -51.5v-10q0 -37 -21 -50.5t-52 -13.5z" />
    <glyph glyph-name="Jecyrillic" unicode="&#x408;" horiz-adv-x="680" 
d="M328 -10q-135 0 -193.5 61.5t-64.5 215.5l140 11q7 -107 30 -142t88 -35q63 0 86 35.5t23 119.5v433h-195v111h336v-547q0 -131 -59.5 -197t-190.5 -66z" />
    <glyph glyph-name="Ljecyrillic" unicode="&#x409;" horiz-adv-x="1097" 
d="M321 236q-1 -127 -49.5 -187t-133.5 -60q-22 0 -46 3.5t-48 10.5l15 110q16 -5 29.5 -7.5t25.5 -2.5q34 0 51 31.5t18 114.5l3 551h474v-266h129q114 0 172 -53.5t58 -160.5v-102q0 -108 -58 -163t-172 -55h-269v689h-197zM660 111h111q55 0 81.5 26.5t26.5 89.5v83
q0 63 -26.5 89t-81.5 26h-111v-314z" />
    <glyph glyph-name="Njecyrillic" unicode="&#x40a;" horiz-adv-x="1097" 
d="M660 111h111q55 0 81.5 26.5t26.5 89.5v83q0 63 -26.5 89t-81.5 26h-111v-314zM243 383v-383h-141v800h141v-306h277v306h140v-266h129q113 0 171.5 -54t58.5 -160v-102q0 -107 -58 -162.5t-172 -55.5h-269v383h-277z" />
    <glyph glyph-name="Tshecyrillic" unicode="&#x40b;" horiz-adv-x="847" 
d="M388 0h-140v689h-186v111h541v-111h-215v-196h123q116 0 175 -55t59 -166v-272h-141v267q0 63 -26.5 90.5t-75.5 27.5h-114v-385z" />
    <glyph glyph-name="Kjecyrillic" unicode="&#x40c;" horiz-adv-x="680" 
d="M244 364v-364h-141v800h141v-324h32l210 324h156l-253 -368l250 -432h-163l-198 364h-34zM286 900l97 200h182l-180 -200h-99z" />
    <glyph glyph-name="Igravecyrillic" unicode="&#x40d;" 
d="M531 0v641l-228 -641h-201v800h130v-662l240 662h188v-800h-129zM354 900l-179 200h182l96 -200h-99z" />
    <glyph glyph-name="Ushortcyrillic" unicode="&#x40e;" horiz-adv-x="680" 
d="M195 -9q-24 0 -49 3.5t-50 9.5l14 111q25 -7 45.5 -9.5t39.5 -2.5q40 0 64 22.5t37 62.5l6 16h-52l-210 596h140l162 -475l160 475h138l-225 -637q-31 -88 -86 -130t-134 -42zM345 893q-90 0 -148 50t-58 160l124 10q-1 -69 17 -98t65 -29t65 29t17 98l124 -10
q0 -110 -58 -160t-148 -50z" />
    <glyph glyph-name="Dzhecyrillic" unicode="&#x40f;" 
d="M310 -150v150h-208v800h141v-689h277v689h140v-800h-208v-150h-142z" />
    <glyph glyph-name="Acyrillic" unicode="&#x410;" 
d="M464 323l-88 355l-88 -355h176zM544 0l-52 213h-232l-52 -213h-132l218 800h178l216 -800h-144z" />
    <glyph glyph-name="Becyrillic" unicode="&#x411;" 
d="M102 0v800h523v-111h-382v-195h209q106 0 163 -53.5t57 -154.5v-65q0 -107 -57 -164t-163 -57h-350zM243 111h192q47 0 72 26t25 89v45q0 63 -25 88.5t-72 25.5h-192v-274z" />
    <glyph glyph-name="Vecyrillic" unicode="&#x412;" 
d="M102 0v800h312q110 0 169.5 -49t59.5 -139v-41q0 -56 -27.5 -89t-82.5 -44v-29q62 -7 96.5 -49t34.5 -106v-47q0 -99 -64.5 -153t-184.5 -54h-313zM243 467h154q59 0 83 21.5t24 73.5v35q0 52 -24 74t-83 22h-154v-226zM243 107h157q68 0 96 25t28 85v39q0 60 -28 84.5
t-96 24.5h-157v-258z" />
    <glyph glyph-name="Gecyrillic" unicode="&#x413;" horiz-adv-x="596" 
d="M102 0v800h450v-111h-309v-689h-141z" />
    <glyph glyph-name="Decyrillic" unicode="&#x414;" horiz-adv-x="847" 
d="M278 134v-23h243v578h-201l-3 -385q-1 -61 -9.5 -101.5t-29.5 -68.5zM202 0v-150h-140v261h67q24 22 36 67.5t13 130.5l5 491h478v-689h84v-261h-141v150h-402z" />
    <glyph glyph-name="Iecyrillic" unicode="&#x415;" 
d="M142 0v800h480v-111h-340v-202h298v-111h-298v-265h340v-111h-480z" />
    <glyph glyph-name="Zhecyrillic" unicode="&#x416;" horiz-adv-x="847" 
d="M320 370l-139 -370h-142l181 433l-183 367h139l152 -330h33v330h127v-330h31l153 330h140l-183 -363l180 -437h-142l-138 370h-41v-370h-127v370h-41z" />
    <glyph glyph-name="Zecyrillic" unicode="&#x417;" 
d="M389 -10q-146 0 -217.5 61.5t-77.5 177.5l140 10q7 -72 38.5 -106t112.5 -34q78 0 108 30t30 94v24q0 58 -30 86t-93 28h-84v110h84q56 0 79.5 20t23.5 80v27q0 56 -29 79.5t-94 23.5t-94 -28t-35 -97l-140 10q6 112 70 168t198 56q124 0 194 -47.5t70 -154.5v-27
q0 -64 -23 -97.5t-75 -45.5v-29q61 -10 89.5 -51t28.5 -115v-24q0 -116 -71.5 -172.5t-202.5 -56.5z" />
    <glyph glyph-name="Iicyrillic" unicode="&#x418;" 
d="M531 0v641l-228 -641h-201v800h130v-662l240 662h188v-800h-129z" />
    <glyph glyph-name="Iishortcyrillic" unicode="&#x419;" 
d="M531 0v641l-228 -641h-201v800h130v-662l240 662h188v-800h-129zM376 893q-90 0 -148 50t-58 160l124 10q-1 -69 17 -98t65 -29t65 29t17 98l124 -10q0 -110 -58 -160t-148 -50z" />
    <glyph glyph-name="Kacyrillic" unicode="&#x41a;" horiz-adv-x="680" 
d="M244 364v-364h-141v800h141v-324h32l210 324h156l-253 -368l250 -432h-163l-198 364h-34z" />
    <glyph glyph-name="Elcyrillic" unicode="&#x41b;" 
d="M520 0v689h-197l-2 -453q-1 -128 -50 -187.5t-133 -59.5q-22 0 -46 3.5t-48 10.5l15 110q16 -5 29 -7.5t26 -2.5q36 0 52 32t17 114l3 551h474v-800h-140z" />
    <glyph glyph-name="Emcyrillic" unicode="&#x41c;" horiz-adv-x="847" 
d="M355 200l-130 434v-634h-122v800h185l138 -474l139 474h180v-800h-122v639l-130 -439h-138z" />
    <glyph glyph-name="Encyrillic" unicode="&#x41d;" 
d="M102 0v800h141v-306h277v306h140v-800h-140v383h-277v-383h-141z" />
    <glyph glyph-name="Ocyrillic" unicode="&#x41e;" 
d="M382 -10q-137 0 -208.5 70.5t-71.5 201.5v275q0 131 72 202t208 71t207 -71t71 -202v-275q0 -131 -71 -201.5t-207 -70.5zM382 101q75 0 106.5 38t31.5 131v259q0 93 -31.5 131.5t-106.5 38.5q-76 0 -107.5 -38.5t-31.5 -131.5v-259q0 -93 31.5 -131t107.5 -38z" />
    <glyph glyph-name="Pecyrillic" unicode="&#x41f;" 
d="M102 0v800h558v-800h-140v689h-277v-689h-141z" />
    <glyph glyph-name="Ercyrillic" unicode="&#x420;" horiz-adv-x="680" 
d="M103 0v800h266q114 0 174 -55.5t60 -162.5v-102q0 -105 -60 -159.5t-173 -54.5h-126v-266h-141zM244 375h107q59 0 85.5 26.5t26.5 88.5v83q0 63 -26.5 89.5t-85.5 26.5h-107v-314z" />
    <glyph glyph-name="Escyrillic" unicode="&#x421;" 
d="M396 -10q-150 0 -222 69.5t-72 199.5v278q0 131 72.5 202t221.5 71q139 0 210 -68.5t77 -209.5l-140 -10q-7 99 -40.5 138t-108.5 39q-84 0 -117.5 -38t-33.5 -133v-261q0 -92 33.5 -129t117.5 -37q77 0 110 38.5t39 134.5l140 -10q-4 -138 -75.5 -206t-211.5 -68z" />
    <glyph glyph-name="Tecyrillic" unicode="&#x422;" horiz-adv-x="680" 
d="M270 0v689h-208v111h558v-111h-209v-689h-141z" />
    <glyph glyph-name="Ucyrillic" unicode="&#x423;" horiz-adv-x="680" 
d="M195 -9q-24 0 -49 3.5t-50 9.5l14 111q25 -7 45.5 -9.5t39.5 -2.5q40 0 64 22.5t37 62.5l6 16h-52l-210 596h140l162 -475l160 475h138l-225 -637q-31 -88 -86 -130t-134 -42z" />
    <glyph glyph-name="Efcyrillic" unicode="&#x424;" horiz-adv-x="847" 
d="M535 90h-41v-107h-140v107h-40q-119 0 -177 69t-58 191v96q0 123 58 193.5t177 70.5h40v107h140v-107h41q118 0 176.5 -70.5t58.5 -193.5v-96q0 -122 -58.5 -191t-176.5 -69zM535 603h-45v-406h45q55 0 77.5 39.5t22.5 113.5v96q0 75 -22.5 116t-77.5 41zM314 197h44v406
h-44q-55 0 -78 -41t-23 -116v-96q0 -74 23 -113.5t78 -39.5z" />
    <glyph glyph-name="Khacyrillic" unicode="&#x425;" 
d="M529 0l-150 277l-147 -277h-152l228 413l-208 387h158l140 -262l135 262h151l-214 -400l211 -400h-152z" />
    <glyph glyph-name="Tsecyrillic" unicode="&#x426;" 
d="M562 -150v150h-460v800h141v-689h235v689h141v-689h83v-261h-140z" />
    <glyph glyph-name="Checyrillic" unicode="&#x427;" horiz-adv-x="680" 
d="M578 800v-800h-141v270h-110q-127 0 -187.5 55.5t-60.5 172.5v302h140v-300q0 -63 27 -92.5t81 -29.5h110v422h141z" />
    <glyph glyph-name="Shacyrillic" unicode="&#x428;" horiz-adv-x="930" 
d="M102 0v800h135v-689h160v689h135v-689h161v689h134v-800h-725z" />
    <glyph glyph-name="Shchacyrillic" unicode="&#x429;" horiz-adv-x="972" 
d="M912 -150h-139v150h-670v800h135v-689h160v689h135v-689h161v689h134v-689h84v-261z" />
    <glyph glyph-name="Hardsigncyrillic" unicode="&#x42a;" 
d="M455 0h-269v689h-167v111h307v-266h129q116 0 173 -53.5t57 -160.5v-102q0 -110 -57 -164t-173 -54zM326 111h111q56 0 82 27t26 89v83q0 61 -26 88t-82 27h-111v-314z" />
    <glyph glyph-name="Yericyrillic" unicode="&#x42b;" horiz-adv-x="922" 
d="M112 0v800h141v-266h110q111 0 167.5 -53.5t56.5 -160.5v-102q0 -108 -56.5 -163t-168.5 -55h-250zM670 0v800h141v-800h-141zM253 111h91q54 0 78 27t24 89v83q0 61 -24 88t-78 27h-91v-314z" />
    <glyph glyph-name="Softsigncyrillic" unicode="&#x42c;" horiz-adv-x="680" 
d="M103 0v800h141v-266h129q114 0 172 -53.5t58 -160.5v-102q0 -108 -58 -163t-172 -55h-270zM244 111h111q56 0 82 27t26 89v83q0 61 -26 88t-82 27h-111v-314z" />
    <glyph glyph-name="Ereversedcyrillic" unicode="&#x42d;" 
d="M382 -10q-140 0 -212 68.5t-78 207.5l140 10q7 -98 39.5 -136.5t110.5 -38.5q84 0 117 36t33 126v113h-207v111h207v44q0 93 -32.5 130t-115.5 37q-78 0 -111.5 -39.5t-40.5 -138.5l-140 10q6 141 78.5 210.5t213.5 69.5q146 0 217.5 -69t71.5 -204v-278q0 -133 -72 -201
t-219 -68z" />
    <glyph glyph-name="IUcyrillic" unicode="&#x42e;" horiz-adv-x="1006" 
d="M636 -10q-125 0 -191.5 70.5t-66.5 198.5v117h-125v-376h-141v800h141v-313h125v50q0 130 67 201.5t192 71.5t191 -71.5t66 -201.5v-278q0 -128 -66.5 -198.5t-191.5 -70.5zM636 101q64 0 91 37.5t27 128.5v262q0 93 -27 131.5t-91 38.5t-91 -38.5t-27 -131.5v-262
q0 -91 27 -128.5t91 -37.5z" />
    <glyph glyph-name="IAcyrillic" unicode="&#x42f;" 
d="M357 409h163v280h-163q-52 0 -77.5 -24.5t-25.5 -81.5v-62q0 -60 26 -86t77 -26zM520 300h-111l-165 -300h-149l169 307q-75 16 -112.5 69.5t-37.5 143.5v66q0 106 56 160t164 54h326v-800h-140v300z" />
    <glyph glyph-name="acyrillic" unicode="&#x430;" 
d="M320 88q35 0 67 13t55 44v104h-131q-31 0 -50 -17.5t-19 -61.5q0 -40 19 -61t59 -21zM288 -10q-81 0 -130.5 45t-49.5 127q0 81 49 126t133 45h152v85q0 43 -24 67.5t-71 24.5q-49 0 -71.5 -21.5t-35.5 -81.5l-120 24q17 93 77 136t160 43q104 0 164.5 -43.5t60.5 -139.5
v-256q0 -48 24.5 -61t76.5 -4v-106q-72 -14 -120 4.5t-61 83.5h-23q-25 -43 -76 -70.5t-115 -27.5z" />
    <glyph glyph-name="becyrillic" unicode="&#x431;" horiz-adv-x="680" 
d="M340 -10q-106 0 -171.5 57.5t-65.5 182.5v257q0 137 59.5 208t188.5 90l185 30l13 -110l-181 -31q-70 -13 -101.5 -54t-31.5 -122v-42h20q19 39 57.5 61.5t89.5 22.5q77 0 126.5 -53.5t49.5 -144.5v-125q0 -115 -65.5 -171t-172.5 -56zM340 97q52 0 74 28.5t22 85.5v117
q0 52 -22 78t-74 26q-53 0 -74.5 -26t-21.5 -78v-117q0 -57 21.5 -85.5t74.5 -28.5z" />
    <glyph glyph-name="vecyrillic" unicode="&#x432;" horiz-adv-x="680" 
d="M103 0v600h239q117 0 176.5 -37.5t59.5 -116.5v-17q0 -49 -29.5 -75.5t-85.5 -30.5v-22q64 -5 97 -37t33 -86v-14q0 -82 -60.5 -123t-190.5 -41h-239zM238 356h111q52 0 73 14t21 50v14q0 37 -20.5 53t-74.5 16h-110v-147zM238 101h110q62 0 86.5 18.5t24.5 62.5v10
q0 42 -24 59.5t-86 17.5h-111v-168z" />
    <glyph glyph-name="gecyrillic" unicode="&#x433;" horiz-adv-x="513" 
d="M103 0v600h366v-111h-225v-489h-141z" />
    <glyph glyph-name="decyrillic" unicode="&#x434;" 
d="M279 130v-23h169v386h-134l-2 -225q-1 -46 -8 -79t-25 -59zM201 0v-150h-135v257h68q21 19 32 55.5t12 103.5l4 334h400v-493h84v-257h-135v150h-330z" />
    <glyph glyph-name="iecyrillic" unicode="&#x435;" 
d="M620 135q-25 -75 -84.5 -110t-155.5 -35q-111 0 -174 58t-63 162v180q0 104 64 162t174 58t173.5 -59t63.5 -166v-112h-334v-64q0 -64 24.5 -92t80.5 -28q49 0 73.5 18.5t38.5 61.5zM284 390v-33h193v27q0 69 -23 99t-74 30t-73.5 -28.5t-22.5 -94.5z" />
    <glyph glyph-name="zhecyrillic" unicode="&#x436;" 
d="M279 264l-103 -264h-127l142 324l-144 276h130l110 -244h37v244h115v-244h37l109 244h131l-143 -278l140 -322h-127l-102 264h-45v-264h-115v264h-45z" />
    <glyph glyph-name="zecyrillic" unicode="&#x437;" horiz-adv-x="680" 
d="M349 -10q-123 0 -182.5 48.5t-67.5 150.5l130 7q6 -58 31 -81.5t85 -23.5q63 0 87 21.5t24 67.5v10q0 42 -23.5 60t-80.5 18h-44v90h44q48 0 69 14.5t21 54.5v14q0 38 -21.5 53t-73.5 15q-50 0 -73 -20t-30 -74l-131 8q6 97 64.5 142t173.5 45q104 0 165.5 -38t61.5 -122
v-16q0 -50 -29 -78.5t-86 -32.5v-22q66 -6 98 -40t32 -85v-13q0 -87 -61.5 -130t-182.5 -43z" />
    <glyph glyph-name="iicyrillic" unicode="&#x438;" horiz-adv-x="680" 
d="M455 0v425l-201 -425h-151v600h124v-445l211 445h140v-600h-123z" />
    <glyph glyph-name="iishortcyrillic" unicode="&#x439;" horiz-adv-x="680" 
d="M455 0v425l-201 -425h-151v600h124v-445l211 445h140v-600h-123zM339 693q-90 0 -148 50t-58 160l124 10q-1 -69 17 -98t65 -29t65 29t17 98l124 -10q0 -110 -58 -160t-148 -50z" />
    <glyph glyph-name="kacyrillic" unicode="&#x43a;" horiz-adv-x="596" 
d="M243 263v-263h-141v600h141v-237h35l138 237h143l-179 -273l176 -327h-145l-133 263h-35z" />
    <glyph glyph-name="elcyrillic" unicode="&#x43b;" horiz-adv-x="680" 
d="M437 0v493h-135l-2 -261q-1 -124 -43 -183.5t-121 -59.5q-22 0 -45 3.5t-46 10.5l15 106l27 -7t22 -3q28 0 42.5 32t15.5 114l4 355h407v-600h-141z" />
    <glyph glyph-name="emcyrillic" unicode="&#x43c;" 
d="M326 150l-102 289v-439h-122v600h175l107 -304l106 304h170v-600h-122v437l-101 -287h-111z" />
    <glyph glyph-name="encyrillic" unicode="&#x43d;" horiz-adv-x="680" 
d="M103 0v600h141v-207h193v207h141v-600h-141v283h-193v-283h-141z" />
    <glyph glyph-name="ocyrillic" unicode="&#x43e;" horiz-adv-x="680" 
d="M340 -10q-107 0 -172 57.5t-65 164.5v172q0 109 65.5 167.5t172.5 58.5q108 0 172.5 -58.5t64.5 -167.5v-172q0 -107 -65 -164.5t-173 -57.5zM340 97q51 0 74 28t23 91v168q0 62 -23 90.5t-74 28.5t-73.5 -29t-22.5 -91v-167q0 -63 22.5 -91t73.5 -28z" />
    <glyph glyph-name="pecyrillic" unicode="&#x43f;" horiz-adv-x="680" 
d="M103 0v600h475v-600h-141v489h-193v-489h-141z" />
    <glyph glyph-name="ercyrillic" unicode="&#x440;" horiz-adv-x="680" 
d="M341 97q49 0 72.5 26.5t23.5 83.5v185q0 56 -19.5 80t-57.5 24q-34 0 -62 -17.5t-54 -55.5v-292q24 -17 47 -25.5t50 -8.5zM362 -9q-31 0 -61 7t-57 20v-218h-141v800h141v-90h25q16 48 57 74t95 26q75 0 116 -55.5t41 -156.5v-192q0 -101 -57 -158t-159 -57z" />
    <glyph glyph-name="escyrillic" unicode="&#x441;" 
d="M382 -10q-122 0 -182 56.5t-60 159.5v185q0 110 64 164.5t178 54.5t174 -53t68 -157l-136 -9q-4 63 -27 87t-77 24q-56 0 -80 -26t-24 -86v-181q0 -61 24 -86.5t82 -25.5q54 0 76 21.5t26 77.5l136 -10q-6 -99 -64 -147.5t-178 -48.5z" />
    <glyph glyph-name="tecyrillic" unicode="&#x442;" horiz-adv-x="596" 
d="M228 0v489h-167v111h474v-111h-167v-489h-140z" />
    <glyph glyph-name="ucyrillic" unicode="&#x443;" horiz-adv-x="596" 
d="M172 -208q-27 0 -58.5 3t-66.5 8l11 107q31 -5 55.5 -8.5t43.5 -3.5q58 0 83.5 27.5t38.5 78.5l2 10h-87l-155 586h140l123 -501l118 501h136l-158 -627q-28 -97 -82 -139t-144 -42z" />
    <glyph glyph-name="efcyrillic" unicode="&#x444;" horiz-adv-x="922" 
d="M586 0h-54v-200h-140v200h-55q-107 0 -166 63t-59 179v116q0 116 59 179t166 63h55v200h140v-200h54q107 0 166 -63t59 -179v-116q0 -116 -59 -179t-166 -63zM354 109h42v382h-42q-50 0 -75.5 -34.5t-25.5 -102.5v-110q0 -66 25.5 -100.5t75.5 -34.5zM569 491h-41v-382
h41q50 0 75.5 34.5t25.5 100.5v110q0 68 -25.5 102.5t-75.5 34.5z" />
    <glyph glyph-name="khacyrillic" unicode="&#x445;" 
d="M483 0l-107 190l-96 -190h-144l173 307l-167 293h144l101 -178l93 178h144l-170 -296l173 -304h-144z" />
    <glyph glyph-name="tsecyrillic" unicode="&#x446;" horiz-adv-x="718" 
d="M519 -150v150h-412v600h141v-489h180v489h140v-489h84v-261h-133z" />
    <glyph glyph-name="checyrillic" unicode="&#x447;" horiz-adv-x="680" 
d="M578 600v-600h-141v199q-23 -8 -51.5 -13t-61.5 -5q-107 0 -164 56t-57 162v201h141v-199q0 -60 25 -85t73 -26q27 0 52.5 5t42.5 14v291h141z" />
    <glyph glyph-name="shacyrillic" unicode="&#x448;" horiz-adv-x="930" 
d="M102 0v600h135v-489h160v489h135v-489h161v489h134v-600h-725z" />
    <glyph glyph-name="shchacyrillic" unicode="&#x449;" horiz-adv-x="972" 
d="M912 -150h-132v150h-677v600h135v-489h160v489h135v-489h161v489h134v-489h84v-261z" />
    <glyph glyph-name="hardsigncyrillic" unicode="&#x44a;" 
d="M477 0h-291v489h-167v111h307v-187h152q99 0 153 -48t54 -136v-45q0 -88 -54.5 -136t-153.5 -48zM326 107h128q47 0 69 19t22 62v39q0 42 -22 61.5t-69 19.5h-128v-201z" />
    <glyph glyph-name="yericyrillic" unicode="&#x44b;" horiz-adv-x="922" 
d="M112 0v600h141v-187h126q99 0 153.5 -48.5t54.5 -135.5v-45q0 -87 -54.5 -135.5t-153.5 -48.5h-267zM670 0v600h141v-599zM253 107h102q47 0 69 19.5t22 61.5v39q0 42 -22 61.5t-69 19.5h-102v-201z" />
    <glyph glyph-name="softsigncyrillic" unicode="&#x44c;" horiz-adv-x="680" 
d="M103 0v600h141v-187h151q99 0 153.5 -48.5t54.5 -135.5v-45q0 -87 -54.5 -135.5t-153.5 -48.5h-292zM244 107h127q47 0 69.5 19.5t22.5 61.5v39q0 42 -22.5 61.5t-69.5 19.5h-127v-201z" />
    <glyph glyph-name="ereversedcyrillic" unicode="&#x44d;" horiz-adv-x="680" 
d="M329 -10q-118 0 -173.5 47.5t-61.5 146.5l136 9q3 -57 25.5 -79t76.5 -22q59 0 82 28t23 92v53h-161v91h161v32q0 66 -23.5 93t-80.5 27q-53 0 -76.5 -22.5t-26.5 -81.5l-136 9q9 100 66 148.5t170 48.5q118 0 183 -57.5t65 -167.5v-167q0 -110 -62 -169t-187 -59z" />
    <glyph glyph-name="iucyrillic" unicode="&#x44e;" horiz-adv-x="922" 
d="M583 -10q-109 0 -168.5 59.5t-59.5 167.5v52h-102v-269h-141v600h141v-220h103v5q0 107 60 166t168 59q109 0 168 -60.5t59 -170.5v-162q0 -108 -59 -167.5t-169 -59.5zM583 101q50 0 70 27.5t20 95.5v148q0 70 -20 98.5t-70 28.5t-70 -28.5t-20 -98.5v-148
q0 -68 20 -95.5t70 -27.5z" />
    <glyph glyph-name="iacyrillic" unicode="&#x44f;" horiz-adv-x="680" 
d="M323 302h114v194h-114q-37 0 -52.5 -18.5t-15.5 -64.5v-22q0 -50 15.5 -69.5t52.5 -19.5zM437 200h-60l-132 -200h-149l136 210q-58 13 -87.5 58t-29.5 120v25q0 93 45 140t133 47h285v-600h-141v200z" />
    <glyph glyph-name="iegravecyrillic" unicode="&#x450;" 
d="M620 135q-25 -75 -84.5 -110t-155.5 -35q-111 0 -174 58t-63 162v180q0 104 64 162t174 58t173.5 -59t63.5 -166v-112h-334v-64q0 -64 24.5 -92t80.5 -28q49 0 73.5 18.5t38.5 61.5zM284 390v-33h193v27q0 69 -23 99t-74 30t-73.5 -28.5t-22.5 -94.5zM371 700l-179 200
h182l96 -200h-99z" />
    <glyph glyph-name="iocyrillic" unicode="&#x451;" 
d="M620 135q-25 -75 -84.5 -110t-155.5 -35q-111 0 -174 58t-63 162v180q0 104 64 162t174 58t173.5 -59t63.5 -166v-112h-334v-64q0 -64 24.5 -92t80.5 -28q49 0 73.5 18.5t38.5 61.5zM284 390v-33h193v27q0 69 -23 99t-74 30t-73.5 -28.5t-22.5 -94.5zM275 703
q-32 0 -52.5 13.5t-20.5 50.5v10q0 37 20.5 51.5t52.5 14.5q33 0 53 -14.5t20 -51.5v-10q0 -37 -20.5 -50.5t-52.5 -13.5zM485 703q-33 0 -53 13.5t-20 50.5v10q0 37 20 51.5t53 14.5q32 0 52.5 -14.5t20.5 -51.5v-10q0 -37 -21 -50.5t-52 -13.5z" />
    <glyph glyph-name="djecyrillic" unicode="&#x452;" horiz-adv-x="680" 
d="M381 -209q-28 0 -56 6t-56 16l17 107q22 -10 42 -15.5t37 -5.5q34 0 53 25.5t19 85.5v340q0 45 -17.5 67t-54.5 22q-34 0 -65 -21.5t-56 -63.5v-354h-141v620h-83v87h83v93h141v-93h150v-87h-150v-167h25q16 46 58.5 73t97.5 27q72 0 112.5 -47.5t40.5 -131.5v-379
q0 -102 -58 -153t-139 -51z" />
    <glyph glyph-name="gjecyrillic" unicode="&#x453;" horiz-adv-x="513" 
d="M103 0v600h366v-111h-225v-489h-141zM190 700l97 200h182l-180 -200h-99z" />
    <glyph glyph-name="ecyrillic" unicode="&#x454;" horiz-adv-x="680" 
d="M587 184q-6 -101 -61 -147.5t-175 -46.5q-122 0 -185 58.5t-63 168.5v168q0 110 64 167.5t184 57.5q113 0 170 -48t66 -149l-136 -9q-4 59 -27 81.5t-76 22.5q-57 0 -80.5 -27.5t-23.5 -91.5v-36h174v-86h-174v-55q0 -64 23.5 -92t81.5 -28q56 0 77 22t25 79z" />
    <glyph glyph-name="dzecyrillic" unicode="&#x455;" horiz-adv-x="680" 
d="M343 -9q-70 0 -136 21.5t-114 59.5l37 93q49 -34 106 -54t110 -20q47 0 73.5 16t26.5 52q0 40 -29.5 55.5t-105.5 32.5q-93 19 -147.5 56.5t-54.5 122.5q0 86 60 135t157 49q63 0 123 -20.5t105 -54.5l-32 -90q-47 31 -95 48t-92 17q-42 0 -65.5 -16.5t-23.5 -51.5
q0 -39 31 -55.5t112 -34.5q96 -20 144.5 -59.5t48.5 -117.5q0 -87 -65 -135.5t-174 -48.5z" />
    <glyph glyph-name="icyrillic.salt_topserif" unicode="&#xe041;" horiz-adv-x="513" 
d="M369 0h-140v493h-150v107h290v-600zM298 703q-43 0 -69.5 13.5t-26.5 50.5v10q0 37 26.5 51.5t69.5 14.5t69.5 -14.5t26.5 -51.5v-10q0 -37 -27 -50.5t-69 -13.5z" />
    <glyph glyph-name="icyrillic.salt_topserif" unicode="&#x456;" horiz-adv-x="513" 
d="M369 0h-140v493h-150v107h290v-600zM298 703q-43 0 -69.5 13.5t-26.5 50.5v10q0 37 26.5 51.5t69.5 14.5t69.5 -14.5t26.5 -51.5v-10q0 -37 -27 -50.5t-69 -13.5z" />
    <glyph glyph-name="yicyrillic.salt_topserif" unicode="&#xe042;" horiz-adv-x="513" 
d="M369 0h-140v493h-150v107h290v-600zM187 703q-32 0 -52.5 13.5t-20.5 50.5v10q0 37 20.5 51.5t52.5 14.5q33 0 53 -14.5t20 -51.5v-10q0 -37 -20.5 -50.5t-52.5 -13.5zM397 703q-33 0 -53 13.5t-20 50.5v10q0 37 20 51.5t53 14.5q32 0 52.5 -14.5t20.5 -51.5v-10
q0 -37 -21 -50.5t-52 -13.5z" />
    <glyph glyph-name="yicyrillic.salt_topserif" unicode="&#x457;" horiz-adv-x="513" 
d="M369 0h-140v493h-150v107h290v-600zM187 703q-32 0 -52.5 13.5t-20.5 50.5v10q0 37 20.5 51.5t52.5 14.5q33 0 53 -14.5t20 -51.5v-10q0 -37 -20.5 -50.5t-52.5 -13.5zM397 703q-33 0 -53 13.5t-20 50.5v10q0 37 20 51.5t53 14.5q32 0 52.5 -14.5t20.5 -51.5v-10
q0 -37 -21 -50.5t-52 -13.5z" />
    <glyph glyph-name="jecyrillic" unicode="&#x458;" horiz-adv-x="513" 
d="M166 -209q-28 0 -58 6t-59 16l17 104q24 -10 45 -15.5t40 -5.5q35 0 56.5 25t21.5 82v490h-150v107h290v-608q0 -99 -58 -150t-145 -51zM298 703q-43 0 -69.5 13.5t-26.5 50.5v10q0 37 26.5 51.5t69.5 14.5t69.5 -14.5t26.5 -51.5v-10q0 -37 -27 -50.5t-69 -13.5z" />
    <glyph glyph-name="ljecyrillic" unicode="&#x459;" horiz-adv-x="1014" 
d="M302 493l-2 -261q-1 -126 -43.5 -184.5t-120.5 -58.5q-22 0 -45 3.5t-46 10.5l15 106q13 -4 26.5 -7t24.5 -3q24 0 39.5 27t16.5 119l4 355h407v-187h151q99 0 153.5 -48t54.5 -136v-45q0 -88 -54.5 -136t-153.5 -48h-292v493h-135zM578 107h127q46 0 69 20t23 62v39
q0 40 -23 60t-69 20h-127v-201z" />
    <glyph glyph-name="njecyrillic" unicode="&#x45a;" horiz-adv-x="1014" 
d="M578 107h127q46 0 69 19.5t23 62.5v39q0 41 -23 60.5t-69 19.5h-127v-201zM244 283v-283h-141v600h141v-207h193v207h141v-187h151q99 0 153.5 -48.5t54.5 -135.5v-45q0 -87 -55 -135.5t-153 -48.5h-292v283h-193z" />
    <glyph glyph-name="tshecyrillic" unicode="&#x45b;" horiz-adv-x="680" 
d="M244 354v-354h-141v620h-83v87h83v93h141v-93h150v-87h-150v-167h25q19 46 61 73t96 27q71 0 111.5 -47.5t40.5 -130.5v-375h-141v348q0 45 -18 68t-53 23q-34 0 -65.5 -22t-56.5 -63z" />
    <glyph glyph-name="kjecyrillic" unicode="&#x45c;" horiz-adv-x="596" 
d="M243 263v-263h-141v600h141v-237h35l138 237h143l-179 -273l176 -327h-145l-133 263h-35zM235 700l97 200h182l-180 -200h-99z" />
    <glyph glyph-name="igravecyrillic" unicode="&#x45d;" horiz-adv-x="680" 
d="M455 0v425l-201 -425h-151v600h124v-445l211 445h140v-600h-123zM328 700l-179 200h182l96 -200h-99z" />
    <glyph glyph-name="ushortcyrillic" unicode="&#x45e;" horiz-adv-x="596" 
d="M172 -208q-27 0 -58.5 3t-66.5 8l11 107q31 -5 55.5 -8.5t43.5 -3.5q58 0 83.5 27.5t38.5 78.5l2 10h-87l-155 586h140l123 -501l118 501h136l-158 -627q-28 -97 -82 -139t-144 -42zM298 693q-90 0 -148 50t-58 160l124 10q-1 -69 17 -98t65 -29t65 29t17 98l124 -10
q0 -110 -58 -160t-148 -50z" />
    <glyph glyph-name="dzhecyrillic" unicode="&#x45f;" horiz-adv-x="680" 
d="M274 -150v150h-171v600h141v-489h193v489h141v-600h-171v-150h-133z" />
    <glyph glyph-name="Gheupturncyrillic" unicode="&#x490;" horiz-adv-x="596" 
d="M102 0v800h310v150h140v-261h-309v-689h-141z" />
    <glyph glyph-name="gheupturncyrillic" unicode="&#x491;" horiz-adv-x="513" 
d="M103 0v600h233v150h133v-261h-225v-489h-141z" />
    <glyph glyph-name="Wgrave" unicode="&#x1e80;" horiz-adv-x="922" 
d="M566 0l-103 474l-106 -474h-153l-133 800h135l94 -627l95 468h140l101 -467l94 626h121l-132 -800h-153zM450 900l-179 200h182l96 -200h-99z" />
    <glyph glyph-name="wgrave" unicode="&#x1e81;" horiz-adv-x="847" 
d="M518 0l-91 381l-88 -381h-155l-126 600h126l89 -473l87 373h130l92 -366l88 466h120l-126 -600h-146zM412 700l-179 200h182l96 -200h-99z" />
    <glyph glyph-name="Wacute" unicode="&#x1e82;" horiz-adv-x="922" 
d="M566 0l-103 474l-106 -474h-153l-133 800h135l94 -627l95 468h140l101 -467l94 626h121l-132 -800h-153zM354 900l97 200h182l-180 -200h-99z" />
    <glyph glyph-name="wacute" unicode="&#x1e83;" horiz-adv-x="847" 
d="M518 0l-91 381l-88 -381h-155l-126 600h126l89 -473l87 373h130l92 -366l88 466h120l-126 -600h-146zM316 700l97 200h182l-180 -200h-99z" />
    <glyph glyph-name="Wdieresis" unicode="&#x1e84;" horiz-adv-x="922" 
d="M566 0l-103 474l-106 -474h-153l-133 800h135l94 -627l95 468h140l101 -467l94 626h121l-132 -800h-153zM356 903q-32 0 -52.5 13.5t-20.5 50.5v10q0 37 20.5 51.5t52.5 14.5q33 0 53 -14.5t20 -51.5v-10q0 -37 -20.5 -50.5t-52.5 -13.5zM566 903q-33 0 -53 13.5
t-20 50.5v10q0 37 20 51.5t53 14.5q32 0 52.5 -14.5t20.5 -51.5v-10q0 -37 -21 -50.5t-52 -13.5z" />
    <glyph glyph-name="wdieresis" unicode="&#x1e85;" horiz-adv-x="847" 
d="M518 0l-91 381l-88 -381h-155l-126 600h126l89 -473l87 373h130l92 -366l88 466h120l-126 -600h-146zM318 703q-32 0 -52.5 13.5t-20.5 50.5v10q0 37 20.5 51.5t52.5 14.5q33 0 53 -14.5t20 -51.5v-10q0 -37 -20.5 -50.5t-52.5 -13.5zM528 703q-33 0 -53 13.5t-20 50.5
v10q0 37 20 51.5t53 14.5q32 0 52.5 -14.5t20.5 -51.5v-10q0 -37 -21 -50.5t-52 -13.5z" />
    <glyph glyph-name="Ygrave" unicode="&#x1ef2;" horiz-adv-x="680" 
d="M411 0h-141v300l-241 500h149l166 -381l166 381h141l-240 -500v-300zM328 900l-179 200h182l96 -200h-99z" />
    <glyph glyph-name="ygrave" unicode="&#x1ef3;" horiz-adv-x="596" 
d="M172 -208q-27 0 -58.5 3t-66.5 8l11 107q31 -5 55.5 -8.5t43.5 -3.5q58 0 83.5 27.5t38.5 78.5l2 10h-87l-155 586h140l123 -501l118 501h136l-158 -627q-28 -97 -82 -139t-144 -42zM287 700l-179 200h182l96 -200h-99z" />
    <glyph glyph-name="uni2000" unicode="&#x2000;" horiz-adv-x="550" 
 />
    <glyph glyph-name="uni2001" unicode="&#x2001;" horiz-adv-x="1100" 
 />
    <glyph glyph-name="uni2002" unicode="&#x2002;" horiz-adv-x="550" 
 />
    <glyph glyph-name="uni2003" unicode="&#x2003;" horiz-adv-x="1100" 
 />
    <glyph glyph-name="uni2004" unicode="&#x2004;" horiz-adv-x="366" 
 />
    <glyph glyph-name="uni2005" unicode="&#x2005;" horiz-adv-x="275" 
 />
    <glyph glyph-name="uni2007" unicode="&#x2007;" 
 />
    <glyph glyph-name="uni2009" unicode="&#x2009;" horiz-adv-x="183" 
 />
    <glyph glyph-name="uni200A" unicode="&#x200a;" horiz-adv-x="110" 
 />
    <glyph glyph-name="uni200B" unicode="&#x200b;" horiz-adv-x="0" 
 />
    <glyph glyph-name="endash" unicode="&#x2013;" horiz-adv-x="855" 
d="M118 290v124h619v-124h-619z" />
    <glyph glyph-name="emdash" unicode="&#x2014;" horiz-adv-x="1105" 
d="M118 290v124h869v-124h-869z" />
    <glyph glyph-name="horizontalbar" unicode="&#x2015;" horiz-adv-x="849" 
d="M7 290v124h835v-124h-835z" />
    <glyph glyph-name="underscoredbl" unicode="&#x2017;" horiz-adv-x="771" 
d="M93 0v124h585v-124h-585zM93 -235v124h585v-124h-585z" />
    <glyph glyph-name="quoteright" unicode="&#x2019;" horiz-adv-x="604" 
d="M153 383l83 417h214l-202 -417h-95z" />
    <glyph glyph-name="quotesinglbase" unicode="&#x201a;" horiz-adv-x="604" 
d="M162 -183l66 418h214l-186 -418h-94z" />
    <glyph glyph-name="quotereversed" unicode="&#x201b;" horiz-adv-x="604" 
d="M339 383l-203 417h215l83 -417h-95z" />
    <glyph glyph-name="quotedblleft" unicode="&#x201c;" horiz-adv-x="922" 
d="M467 383l203 417h92l-84 -417h-211zM165 383l203 417h92l-83 -417h-212z" />
    <glyph glyph-name="quotedblright" unicode="&#x201d;" horiz-adv-x="922" 
d="M463 383l83 417h212l-203 -417h-92zM162 383l83 417h211l-203 -417h-91z" />
    <glyph glyph-name="quotedblbase" unicode="&#x201e;" horiz-adv-x="922" 
d="M463 -182l83 417h212l-203 -417h-92zM162 -182l83 417h211l-203 -417h-91z" />
    <glyph glyph-name="dagger" unicode="&#x2020;" horiz-adv-x="855" 
d="M368 -200v693h-108l-33 -214h-101l25 321h214l-5 200h157l-6 -200h215l25 -321h-101l-33 214h-108v-693h-141z" />
    <glyph glyph-name="daggerdbl" unicode="&#x2021;" horiz-adv-x="855" 
d="M360 -200l5 190h-214l-25 240h101l33 -133h108v406h-108l-33 -133h-101l25 240h214l-5 190h157l-6 -190h215l25 -240h-101l-33 133h-108v-406h108l33 133h101l-25 -240h-215l6 -190h-157z" />
    <glyph glyph-name="bullet" unicode="&#x2022;" horiz-adv-x="771" 
d="M386 236q-62 0 -101 30.5t-39 95.5v72q0 66 39 97.5t101 31.5q63 0 101.5 -31.5t38.5 -97.5v-72q0 -65 -39.5 -95.5t-100.5 -30.5z" />
    <glyph glyph-name="ellipsis" unicode="&#x2026;" horiz-adv-x="1550" 
d="M1197 -10q-52 0 -84 25t-32 74v50q0 51 32 76t84 25q51 0 82.5 -25t31.5 -76v-50q0 -49 -32 -74t-82 -25zM750 -10q-52 0 -84 25t-32 74v50q0 51 32 76t84 25q51 0 82.5 -25t31.5 -76v-50q0 -49 -32 -74t-82 -25zM302 -10q-52 0 -84 25t-32 74v50q0 51 32 76t84 25
q51 0 82.5 -25t31.5 -76v-50q0 -49 -32 -74t-82 -25z" />
    <glyph glyph-name="perthousand" unicode="&#x2030;" horiz-adv-x="1415" 
d="M271 381q-72 0 -116.5 38.5t-44.5 118.5v113q0 81 44.5 120t116.5 39t116 -39t44 -120v-113q0 -80 -44.5 -118.5t-115.5 -38.5zM791 800l-417 -800h-129l417 800h129zM218 539q0 -36 14 -52t39 -16q24 0 38 16t14 52v111q0 36 -14 53t-38 17q-25 0 -39 -17t-14 -53v-111z
M1305 148q0 -81 -44.5 -120t-116.5 -39t-116 39t-44 120v117q0 80 44.5 118.5t115.5 38.5q72 0 116.5 -38.5t44.5 -118.5v-117zM925 148q0 -81 -44 -120t-116 -39t-116 39t-44 120v117q0 80 44.5 118.5t115.5 38.5q72 0 116 -38.5t44 -118.5v-117zM712 156q0 -40 14 -58.5
t39 -18.5t39 18.5t14 58.5v107q0 36 -14 52.5t-39 16.5t-39 -16.5t-14 -52.5v-107zM1091 156q0 -40 14 -58.5t39 -18.5t39.5 18.5t14.5 58.5v107q0 36 -14.5 52.5t-39.5 16.5t-39 -16.5t-14 -52.5v-107z" />
    <glyph glyph-name="minute" unicode="&#x2032;" horiz-adv-x="604" 
d="M153 383l83 417h214l-202 -417h-95z" />
    <glyph glyph-name="second" unicode="&#x2033;" horiz-adv-x="922" 
d="M463 383l83 417h212l-203 -417h-92zM162 383l83 417h211l-203 -417h-91z" />
    <glyph glyph-name="guilsinglleft" unicode="&#x2039;" horiz-adv-x="604" 
d="M456 72l-307 211v134l307 211v-123l-225 -155l225 -155v-123z" />
    <glyph glyph-name="guilsinglright" unicode="&#x203a;" horiz-adv-x="604" 
d="M149 72v123l225 155l-225 155v123l307 -211v-134z" />
    <glyph glyph-name="exclamdbl" unicode="&#x203c;" horiz-adv-x="938" 
d="M600 300l-25 500h173l-25 -500h-123zM665 -10q-54 0 -81.5 20.5t-27.5 63.5v28q0 44 27.5 65t81.5 21t81.5 -21t27.5 -65v-28q0 -43 -27.5 -63.5t-81.5 -20.5zM210 300l-25 500h173l-25 -500h-123zM275 -10q-54 0 -81.5 20.5t-27.5 63.5v28q0 44 27.5 65t81.5 21
t81.5 -21t27.5 -65v-28q0 -43 -27.5 -63.5t-81.5 -20.5z" />
    <glyph glyph-name="overline" unicode="&#x203e;" horiz-adv-x="771" 
d="M93 876v124h585v-124h-585z" />
    <glyph glyph-name="fraction" unicode="&#x2215;" horiz-adv-x="315" 
d="M-69 0l335 800h118l-334 -800h-119z" />
    <glyph glyph-name="fraction" unicode="&#x2044;" horiz-adv-x="315" 
d="M-69 0l335 800h118l-334 -800h-119z" />
    <glyph glyph-name="zero.sups" unicode="&#x2070;" horiz-adv-x="521" 
d="M260 298q-90 0 -136.5 56t-46.5 155v83q0 100 47 157t137 57q89 0 136 -57t47 -157v-83q0 -99 -47 -155t-137 -56zM260 378q47 0 60.5 35.5t13.5 106.5v61q0 72 -13.5 108.5t-60.5 36.5q-46 0 -59.5 -36.5t-13.5 -108.5v-61q0 -71 13.5 -106.5t59.5 -35.5z" />
    <glyph glyph-name="four.sups" unicode="&#x2074;" horiz-adv-x="521" 
d="M167 508h116v176zM471 427h-78v-123h-110v123h-212v81l188 292h134v-292h78v-81z" />
    <glyph glyph-name="five.sups" unicode="&#x2075;" horiz-adv-x="521" 
d="M263 298q-101 0 -144.5 34.5t-47.5 123.5l110 6q4 -50 21 -67t63 -17q43 0 56.5 17.5t13.5 57.5v20q0 36 -17.5 52.5t-75.5 16.5h-156v258h344v-80h-234v-92h88q80 0 120.5 -33.5t40.5 -102.5v-55q0 -60 -42.5 -99.5t-139.5 -39.5z" />
    <glyph glyph-name="six.sups" unicode="&#x2076;" horiz-adv-x="521" 
d="M260 298q-96 0 -140 46.5t-44 130.5v150q0 87 42.5 134t142.5 47q90 0 129 -32.5t50 -96.5l-115 -14q-7 39 -22 51t-49 12q-45 0 -56.5 -26t-11.5 -76v-53h4q14 20 42 31.5t66 11.5q82 0 114.5 -38.5t32.5 -109.5v-13q0 -69 -44.5 -112t-140.5 -43zM260 378
q43 0 58.5 21.5t15.5 54.5v8q0 37 -15.5 59t-58.5 22q-44 0 -59 -22t-15 -59v-8q0 -37 15.5 -56.5t58.5 -19.5z" />
    <glyph glyph-name="seven.sups" unicode="&#x2077;" horiz-adv-x="521" 
d="M179 304q31 135 63.5 215.5t92.5 194.5h-259v86h369v-86q-60 -131 -94.5 -215.5t-56.5 -194.5h-115z" />
    <glyph glyph-name="eight.sups" unicode="&#x2078;" horiz-adv-x="521" 
d="M260 298q-99 0 -141.5 35t-42.5 104v14q0 48 22 74.5t65 30.5v18q-37 4 -57 26.5t-20 61.5v20q0 64 43.5 94t130.5 30t130.5 -30t43.5 -94v-20q0 -39 -20 -61.5t-56 -26.5v-18q43 -4 65 -31t22 -74v-14q0 -69 -43 -104t-142 -35zM260 601q32 0 48.5 12.5t16.5 41.5v17
q0 30 -16.5 42t-48.5 12t-48 -12t-16 -42v-17q0 -29 16 -41.5t48 -12.5zM260 379q46 0 60.5 17.5t14.5 50.5v11q0 34 -14.5 52t-60.5 18t-60 -18t-14 -52v-11q0 -33 14 -50.5t60 -17.5z" />
    <glyph glyph-name="nine.sups" unicode="&#x2079;" horiz-adv-x="521" 
d="M261 561q43 0 58.5 22t15.5 59v8q0 37 -15.5 56.5t-58.5 19.5t-58.5 -21.5t-15.5 -54.5v-8q0 -37 15 -59t59 -22zM259 298q-90 0 -129 32t-49 97l114 14q7 -39 22.5 -51t49.5 -12q45 0 56.5 25.5t11.5 76.5v53h-7q-13 -20 -40.5 -31.5t-67.5 -11.5q-77 0 -110.5 39
t-33.5 109v13q0 67 45 111t139 44t139.5 -47.5t45.5 -129.5v-149q0 -87 -43.5 -134.5t-142.5 -47.5z" />
    <glyph glyph-name="nsuperior" unicode="&#x207f;" horiz-adv-x="596" 
d="M102 302v499h119v-72h24q8 21 20.5 36.5t28.5 25.5t34 14.5t38 4.5q28 0 51.5 -11.5t40.5 -33.5t26 -54t9 -72v-337h-119v324q0 22 -3.5 38.5t-11.5 26.5q-7 11 -17 16.5t-22 5.5q-14 0 -27 -5t-25 -15q-13 -9 -24.5 -22.5t-22.5 -30.5v-338h-119z" />
    <glyph glyph-name="zero.sinf" unicode="&#x2080;" horiz-adv-x="521" 
d="M260 -6q-90 0 -136.5 56t-46.5 155v83q0 100 47 157t137 57q89 0 136 -57t47 -157v-83q0 -99 -47 -155t-137 -56zM260 74q47 0 60.5 35.5t13.5 106.5v61q0 72 -13.5 108.5t-60.5 36.5q-46 0 -59.5 -36.5t-13.5 -108.5v-61q0 -71 13.5 -106.5t59.5 -35.5z" />
    <glyph glyph-name="one.sinf" unicode="&#x2081;" horiz-adv-x="521" 
d="M118 0v85h113v302h-16q-7 -41 -37 -65.5t-66 -26.5l-5 86q38 4 75.5 32.5t50.5 82.5h108v-411h104v-85h-327z" />
    <glyph glyph-name="two.sinf" unicode="&#x2082;" horiz-adv-x="521" 
d="M76 0v110q0 53 22.5 91.5t74.5 51.5l102 25q30 7 42 21.5t12 45.5v14q0 33 -16 48t-53 15t-51.5 -17t-17.5 -65l-110 7q4 77 44.5 116t134.5 39q93 0 136 -37.5t43 -105.5v-28q0 -57 -26 -88.5t-69 -41.5l-102 -25q-31 -7 -43.5 -20t-12.5 -45v-26h259v-85h-369z" />
    <glyph glyph-name="three.sinf" unicode="&#x2083;" horiz-adv-x="521" 
d="M263 -6q-97 0 -142.5 37t-49.5 111l110 6q4 -40 19.5 -55t59.5 -15t59.5 15t15.5 46v16q0 34 -15.5 48t-56.5 14h-89v85h89q34 0 48 10t14 38v16q0 30 -17.5 41t-51.5 11t-48 -13t-17 -45l-110 6q4 72 47 104t127 32q81 0 130 -27.5t49 -96.5v-14q0 -41 -21 -64.5
t-54 -28.5v-18q37 -4 61.5 -31.5t24.5 -74.5v-11q0 -75 -46.5 -108.5t-135.5 -33.5z" />
    <glyph glyph-name="four.sinf" unicode="&#x2084;" horiz-adv-x="521" 
d="M167 204h116v176zM471 123h-78v-123h-110v123h-212v81l188 292h134v-292h78v-81z" />
    <glyph glyph-name="five.sinf" unicode="&#x2085;" horiz-adv-x="521" 
d="M263 -6q-101 0 -144.5 34.5t-47.5 123.5l110 6q4 -50 21 -67t63 -17q43 0 56.5 17.5t13.5 57.5v20q0 36 -17.5 52.5t-75.5 16.5h-156v258h344v-80h-234v-92h88q80 0 120.5 -33.5t40.5 -102.5v-55q0 -60 -42.5 -99.5t-139.5 -39.5z" />
    <glyph glyph-name="six.sinf" unicode="&#x2086;" horiz-adv-x="521" 
d="M260 -6q-96 0 -140 46.5t-44 130.5v150q0 87 42.5 134t142.5 47q90 0 129 -32.5t50 -96.5l-115 -14q-7 39 -22 51t-49 12q-45 0 -56.5 -26t-11.5 -76v-53h4q14 20 42 31.5t66 11.5q82 0 114.5 -38.5t32.5 -109.5v-13q0 -69 -44.5 -112t-140.5 -43zM260 74q43 0 58.5 21.5
t15.5 54.5v8q0 37 -15.5 59t-58.5 22q-44 0 -59 -22t-15 -59v-8q0 -37 15.5 -56.5t58.5 -19.5z" />
    <glyph glyph-name="seven.sinf" unicode="&#x2087;" horiz-adv-x="521" 
d="M179 0q31 135 63.5 215.5t92.5 194.5h-259v86h369v-86q-60 -131 -94.5 -215.5t-56.5 -194.5h-115z" />
    <glyph glyph-name="eight.sinf" unicode="&#x2088;" horiz-adv-x="521" 
d="M260 -6q-99 0 -141.5 35t-42.5 104v14q0 48 22 74.5t65 30.5v18q-37 4 -57 26.5t-20 61.5v20q0 64 43.5 94t130.5 30t130.5 -30t43.5 -94v-20q0 -39 -20 -61.5t-56 -26.5v-18q43 -4 65 -31t22 -74v-14q0 -69 -43 -104t-142 -35zM260 297q32 0 48.5 12.5t16.5 41.5v17
q0 30 -16.5 42t-48.5 12t-48 -12t-16 -42v-17q0 -29 16 -41.5t48 -12.5zM260 75q46 0 60.5 17.5t14.5 50.5v11q0 34 -14.5 52t-60.5 18t-60 -18t-14 -52v-11q0 -33 14 -50.5t60 -17.5z" />
    <glyph glyph-name="nine.sinf" unicode="&#x2089;" horiz-adv-x="521" 
d="M261 257q43 0 58.5 22t15.5 59v8q0 37 -15.5 56.5t-58.5 19.5t-58.5 -21.5t-15.5 -54.5v-8q0 -37 15 -59t59 -22zM259 -6q-90 0 -129 32t-49 97l114 14q7 -39 22.5 -51t49.5 -12q45 0 56.5 25.5t11.5 76.5v53h-7q-13 -20 -40.5 -31.5t-67.5 -11.5q-77 0 -110.5 39
t-33.5 109v13q0 67 45 111t139 44t139.5 -47.5t45.5 -129.5v-149q0 -87 -43.5 -134.5t-142.5 -47.5z" />
    <glyph glyph-name="franc" unicode="&#x20a3;" horiz-adv-x="680" 
d="M383 172h-139v-172h-141v172h-83v101h83v527h492v-111h-351v-179h292v-110h-292v-127h139v-101z" />
    <glyph glyph-name="lira" unicode="&#x20a4;" 
d="M683 238q-3 -60 -19 -106.5t-43 -78.5q-28 -31 -66.5 -47t-86.5 -16q-19 0 -38 4.5t-37 12.5q-9 4 -27.5 13l-46.5 23q-19 9 -34.5 15t-30.5 8t-29.5 -1.5t-27.5 -13.5l-77 -60l-61 90l82 55q14 10 27.5 27t23.5 37q10 21 16 43.5t7 44.5h-135v87h118q-2 5 -4.5 10.5
t-4.5 10.5t-5.5 12l-5.5 11l-8.5 17.5l-7.5 15.5l-5.5 11.5l-6.5 14.5h-70v87h50q0 3 -0.5 5.5t-0.5 4.5v5.5v6.5q0 50 17.5 91t50.5 71q33 29 81.5 45t108.5 16q69 0 118.5 -15t81.5 -45t48.5 -75t19.5 -107l-140 -10q-3 37 -10 61.5t-21 40.5t-37.5 23.5t-59.5 7.5
q-30 0 -52.5 -7.5t-36.5 -22.5q-14 -14 -20.5 -34.5t-6.5 -45.5v-5v-4q0 -1 0.5 -3t0.5 -4h176v-87h-149q2 -3 3.5 -6.5t2.5 -6.5q2 -3 3.5 -6.5t3.5 -6.5q9 -18 11.5 -23.5t7.5 -14.5q4 -9 8 -19t7 -20h102v-87h-92q-2 -17 -9.5 -33.5t-21.5 -32.5q-13 -16 -32 -32t-45 -32
l13 -25q17 10 32 15.5t29 5.5q14 1 27 -1.5t26 -7.5q9 -3 25.5 -11t25.5 -11q8 -4 19.5 -7t22.5 -3q21 0 34 7.5t21 23.5t12.5 40.5t7.5 63.5z" />
    <glyph glyph-name="peseta" unicode="&#x20a7;" horiz-adv-x="1022" 
d="M186 375h58q18 0 31.5 6t22.5 20q10 14 15 36.5t5 55.5v85q0 33 -5 56t-15 37q-9 13 -22.5 19.5t-31.5 6.5h-58v-322zM942 158q0 -42 -11.5 -73.5t-31.5 -52.5q-21 -21 -48 -31.5t-58 -10.5q-12 0 -24.5 1.5t-24.5 4.5t-24 7.5t-23 10.5l1 -7q-3 -3 -12 -6t-22 -5
q-12 -2 -24.5 -3.5t-20.5 -1.5q-29 0 -53.5 11.5t-42.5 37.5q-19 25 -29 66t-10 98v297l-62 4v-21q0 -59 -13.5 -100.5t-38.5 -65.5q-24 -24 -55.5 -34.5t-70.5 -10.5h-58v-273h-103v800h162q37 0 67.5 -10t54.5 -33t38.5 -62t16.5 -95h62v200h104v-200h101v-60
q9 17 21 30.5t26 22.5q15 8 31 12.5t33 4.5q16 0 32 -3t32 -10q16 -6 31 -15.5t29 -21.5l-38 -88q-11 10 -20.5 17t-19.5 12q-9 4 -18.5 6.5t-19.5 2.5q-9 0 -16 -3t-12 -10q-5 -8 -7.5 -19.5t-2.5 -28.5q0 -20 7 -37t19 -32t7 -10.5t53 -50.5q21 -19 36 -36t26 -35
q11 -19 17.5 -41.5t6.5 -48.5zM791 90q10 0 18.5 3t14.5 10q7 7 11 19t4 29q0 16 -7 30.5t-18 27.5q-6 7 -21 21.5l-40 37.5q-20 19 -35 37.5t-26 39.5q-12 21 -18 45t-6 52q0 8 0.5 15.5t1.5 15.5q0 7 1.5 14t2.5 13h-86v-297q0 -26 2 -46.5t7 -33.5q4 -14 10.5 -21
t15.5 -7q5 0 13 1.5t17 3.5q8 2 15 4t9 4l3 -15l15 35q11 -9 22.5 -16.5t24.5 -11.5q12 -5 24.5 -7.5t24.5 -2.5z" />
    <glyph glyph-name="Euro" unicode="&#x20ac;" 
d="M413 -10q-140 0 -208.5 70.5t-68.5 193.5v4h-84v86h84v110h-84v86h84v3q0 125 69 196t209 71q130 0 196 -62t73 -187l-135 -10q-8 86 -37.5 119t-97.5 33q-76 0 -109 -35t-33 -123v-5h163v-86h-163v-110h163v-86h-163v-5q0 -87 33 -121.5t109 -34.5q68 0 97.5 32
t37.5 116l135 -10q-7 -122 -73 -183.5t-197 -61.5z" />
    <glyph glyph-name="careof" unicode="&#x2105;" horiz-adv-x="1089" 
d="M272 0l417 800h130l-418 -800h-129zM335 534l120 -14q-1 -35 -14 -61.5t-37 -43.5t-57 -25.5t-74 -8.5q-42 0 -75.5 10t-57.5 30t-37 50.5t-13 71.5v103q0 41 13 72t37 52q24 20 58 30t75 10t74 -8t57 -25t37 -43t14 -61l-120 -18q-1 16 -5.5 28.5t-12.5 19.5
q-8 8 -19 12t-25 4t-26 -4.5t-20 -13.5q-8 -10 -12.5 -24t-4.5 -32v-101q0 -18 4.5 -32t12.5 -23q8 -8 20 -12.5t26 -4.5t25 3.5t19 11.5q8 7 12.5 19t5.5 28zM817 -12q-41 0 -75 10t-58 30t-37 50.5t-13 71.5v107q0 41 13 72t38 51q24 20 57.5 30t74.5 10q42 0 75.5 -10
t57.5 -30t37 -51t13 -72v-107q0 -41 -13 -71.5t-37 -50.5t-58 -30t-75 -10zM817 81q15 0 26.5 4t19.5 13t12.5 22.5t4.5 32.5v101q0 18 -4.5 32t-12.5 23t-19.5 13.5t-26.5 4.5q-14 0 -26 -4.5t-20 -13.5t-12.5 -23t-4.5 -32v-101q0 -19 4.5 -32.5t12.5 -22.5t19.5 -13
t26.5 -4z" />
    <glyph glyph-name="lsquare" unicode="&#x2113;" horiz-adv-x="612" 
d="M296 350q13 0 23.5 3t18.5 11q8 7 14 20.5t9 32.5l30 201q3 19 2 34t-6 26q-5 10 -15 15.5t-25 5.5q-14 0 -24.5 -3.5t-18.5 -11.5q-9 -8 -15 -21.5t-9 -34.5l-30 -204q-3 -18 -1.5 -32t6.5 -23q6 -10 16 -14.5t25 -4.5zM449 36q-23 -10 -45.5 -18t-44.5 -14
q-23 -5 -45 -8t-44 -3q-48 0 -86 14.5t-64 43.5q-26 28 -36 70t-2 95l60 424q7 43 26 75.5t48 53.5t64.5 31t76.5 10q50 0 86 -11.5t58 -34.5t30 -57t1 -79l-32 -221q-6 -40 -22 -69.5t-41 -49.5q-25 -19 -56 -28.5t-66 -9.5q-13 0 -25 1.5t-23 4.5q-10 4 -19 8.5t-17 10.5
l-8 -56q-4 -27 0 -48t15 -35q10 -14 26.5 -21t37.5 -7q15 0 32.5 2.5t35.5 7.5q19 6 39 13.5t40 17.5v-113z" />
    <glyph glyph-name="numero" unicode="&#x2116;" horiz-adv-x="1173" 
d="M866 297q-84 0 -140 52.5t-56 159.5v85q0 109 56 162.5t140 53.5t139.5 -53.5t55.5 -162.5v-85q0 -107 -55.5 -159.5t-139.5 -52.5zM866 399q37 0 53 25.5t16 83.5v91q0 55 -16 82t-53 27t-53.5 -27.5t-16.5 -82.5v-90q0 -58 16.5 -83.5t53.5 -25.5zM233 597v-597h-121
v800h172l182 -641v641h121v-800h-182z" />
    <glyph glyph-name="uni2117" unicode="&#x2117;" horiz-adv-x="1097" 
d="M549 -110q-187 0 -276.5 93t-89.5 281v208q0 190 89.5 284t276.5 94t276 -94t89 -284v-208q0 -188 -89 -281t-276 -93zM549 -48q160 0 230 76t70 249v182q0 175 -70 252t-230 77q-161 0 -231 -77t-70 -252v-182q0 -173 70 -249t231 -76zM381 116v516h193q89 0 140 -43
t51 -129v-38q0 -81 -51.5 -120t-139.5 -39h-66v-147h-127zM508 354h66q34 0 49.5 15.5t15.5 52.5v38q0 43 -15.5 61t-49.5 18h-66v-185z" />
    <glyph glyph-name="trademark" unicode="&#x2122;" horiz-adv-x="1264" 
d="M305 344v375h-144v81h378v-81h-134v-375h-100zM709 653v-309h-93v456h121l96 -268l96 268h121v-456h-93l-2 313l-84 -226h-77z" />
    <glyph glyph-name="Ohm" unicode="&#x2126;" horiz-adv-x="771" 
d="M344 0h-268v100h127v90q-69 31 -103.5 85t-34.5 129v122q0 138 80.5 211t240.5 73t240.5 -73t80.5 -211v-122q0 -75 -35 -129t-104 -85v-90h127v-100h-268v230q81 18 110 61t29 113v122q0 90 -40.5 131t-139.5 41t-139.5 -41t-40.5 -131v-122q0 -70 28.5 -113t109.5 -61
v-230z" />
    <glyph glyph-name="estimated" unicode="&#x212e;" horiz-adv-x="855" 
d="M423 -12q-150 0 -240.5 122.5t-90.5 291.5q0 171 89.5 292t244.5 121q157 0 244.5 -138t89.5 -327h-506v-210q30 -34 73 -54.5t96 -20.5q90 0 153 39.5t100 109.5l41 -60q-43 -79 -117 -122.5t-177 -43.5zM254 430h341v230q-30 31 -72 54.5t-98 23.5q-51 0 -95.5 -19.5
t-75.5 -55.5v-233z" />
    <glyph glyph-name="oneeighth" unicode="&#x215b;" horiz-adv-x="1317" 
d="M1050 -6q-99 0 -141.5 35t-42.5 104v14q0 48 22 74.5t65 30.5v18q-37 4 -57 26.5t-20 61.5v20q0 64 43.5 94t130.5 30t130.5 -30t43.5 -94v-20q0 -39 -20 -61.5t-56 -26.5v-18q43 -4 65 -31t22 -74v-14q0 -69 -43 -104t-142 -35zM1050 297q32 0 48.5 12.5t16.5 41.5v17
q0 30 -16.5 42t-48.5 12t-48 -12t-16 -42v-17q0 -29 16 -41.5t48 -12.5zM1050 75q46 0 60.5 17.5t14.5 50.5v11q0 34 -14.5 52t-60.5 18t-60 -18t-14 -52v-11q0 -33 14 -50.5t60 -17.5zM123 304v85h113v302h-16q-7 -41 -37 -65.5t-66 -26.5l-5 86q38 4 75.5 32.5t50.5 82.5
h108v-411h104v-85h-327zM432 0l335 800h118l-334 -800h-119z" />
    <glyph glyph-name="threeeighths" unicode="&#x215c;" horiz-adv-x="1317" 
d="M1050 -6q-99 0 -141.5 35t-42.5 104v14q0 48 22 74.5t65 30.5v18q-37 4 -57 26.5t-20 61.5v20q0 64 43.5 94t130.5 30t130.5 -30t43.5 -94v-20q0 -39 -20 -61.5t-56 -26.5v-18q43 -4 65 -31t22 -74v-14q0 -69 -43 -104t-142 -35zM1050 297q32 0 48.5 12.5t16.5 41.5v17
q0 30 -16.5 42t-48.5 12t-48 -12t-16 -42v-17q0 -29 16 -41.5t48 -12.5zM1050 75q46 0 60.5 17.5t14.5 50.5v11q0 34 -14.5 52t-60.5 18t-60 -18t-14 -52v-11q0 -33 14 -50.5t60 -17.5zM432 0l335 800h118l-334 -800h-119zM268 298q-97 0 -142.5 37t-49.5 111l110 6
q4 -40 19.5 -55t59.5 -15t59.5 15t15.5 46v16q0 34 -15.5 48t-56.5 14h-89v85h89q34 0 48 10t14 38v16q0 30 -17.5 41t-51.5 11t-48 -13t-17 -45l-110 6q4 72 47 104t127 32q81 0 130 -27.5t49 -96.5v-14q0 -41 -21 -64.5t-54 -28.5v-18q37 -4 61.5 -31.5t24.5 -74.5v-11
q0 -75 -46.5 -108.5t-135.5 -33.5z" />
    <glyph glyph-name="fiveeighths" unicode="&#x215d;" horiz-adv-x="1317" 
d="M1050 -6q-99 0 -141.5 35t-42.5 104v14q0 48 22 74.5t65 30.5v18q-37 4 -57 26.5t-20 61.5v20q0 64 43.5 94t130.5 30t130.5 -30t43.5 -94v-20q0 -39 -20 -61.5t-56 -26.5v-18q43 -4 65 -31t22 -74v-14q0 -69 -43 -104t-142 -35zM1050 297q32 0 48.5 12.5t16.5 41.5v17
q0 30 -16.5 42t-48.5 12t-48 -12t-16 -42v-17q0 -29 16 -41.5t48 -12.5zM1050 75q46 0 60.5 17.5t14.5 50.5v11q0 34 -14.5 52t-60.5 18t-60 -18t-14 -52v-11q0 -33 14 -50.5t60 -17.5zM268 298q-101 0 -144.5 34.5t-47.5 123.5l110 6q4 -50 21 -67t63 -17q43 0 56.5 17.5
t13.5 57.5v20q0 36 -17.5 52.5t-75.5 16.5h-156v258h344v-80h-234v-92h88q80 0 120.5 -33.5t40.5 -102.5v-55q0 -60 -42.5 -99.5t-139.5 -39.5zM432 0l335 800h118l-334 -800h-119z" />
    <glyph glyph-name="seveneighths" unicode="&#x215e;" horiz-adv-x="1317" 
d="M1050 -6q-99 0 -141.5 35t-42.5 104v14q0 48 22 74.5t65 30.5v18q-37 4 -57 26.5t-20 61.5v20q0 64 43.5 94t130.5 30t130.5 -30t43.5 -94v-20q0 -39 -20 -61.5t-56 -26.5v-18q43 -4 65 -31t22 -74v-14q0 -69 -43 -104t-142 -35zM1050 297q32 0 48.5 12.5t16.5 41.5v17
q0 30 -16.5 42t-48.5 12t-48 -12t-16 -42v-17q0 -29 16 -41.5t48 -12.5zM1050 75q46 0 60.5 17.5t14.5 50.5v11q0 34 -14.5 52t-60.5 18t-60 -18t-14 -52v-11q0 -33 14 -50.5t60 -17.5zM184 304q31 135 63.5 215.5t92.5 194.5h-259v86h369v-86q-60 -131 -94.5 -215.5
t-56.5 -194.5h-115zM432 0l335 800h118l-334 -800h-119z" />
    <glyph glyph-name="arrowleft" unicode="&#x2190;" horiz-adv-x="1014" 
d="M478 58l-333 332v20l333 332h17v-275h375v-134h-375v-275h-17z" />
    <glyph glyph-name="arrowup" unicode="&#x2191;" horiz-adv-x="771" 
d="M315 -17v450h-229v20l291 364h17l291 -364v-20h-229v-450h-141z" />
    <glyph glyph-name="arrowright" unicode="&#x2192;" horiz-adv-x="1014" 
d="M521 58v275h-376v134h376v275h17l332 -332v-20l-332 -332h-17z" />
    <glyph glyph-name="arrowdown" unicode="&#x2193;" horiz-adv-x="771" 
d="M377 -26l-291 365v20h229v450h141v-450h229v-20l-291 -365h-17z" />
    <glyph glyph-name="arrowboth" unicode="&#x2194;" horiz-adv-x="1181" 
d="M466 333v-275h-17l-304 332v20l304 332h17v-275h251v275h16l304 -332v-20l-304 -332h-16v275h-251z" />
    <glyph glyph-name="arrowupdn" unicode="&#x2195;" horiz-adv-x="922" 
d="M470 -117h-17l-291 347v20h230v300h-230v20l291 347h17l291 -347v-20h-229v-300h229v-20z" />
    <glyph glyph-name="arrowupdnbse" unicode="&#x21a8;" horiz-adv-x="922" 
d="M168 -220v120h585v-120h-585zM470 -117h-17l-291 347v20h230v300h-230v20l291 347h17l291 -347v-20h-229v-300h229v-20z" />
    <glyph glyph-name="partialdiff" unicode="&#x2202;" horiz-adv-x="680" 
d="M291 -10q-55 0 -97 14t-69 43t-37 72.5t-1 101.5l9 64q7 48 26.5 86.5t49.5 66.5q29 27 66.5 41.5t79.5 14.5q26 0 47 -5.5t37 -15.5t26 -23.5t14 -28.5h18q5 61 -4.5 105.5t-36.5 78.5t-73.5 61t-118.5 50l99 96q86 -28 142 -66.5t87 -91.5q30 -52 37.5 -122t-6.5 -163
l-22 -142q-10 -61 -33.5 -106t-58.5 -74t-80.5 -43t-100.5 -14zM308 96q26 0 45 7.5t33 21.5q13 15 21 37t13 53l11 63q4 28 1.5 48t-11.5 34q-10 14 -27.5 20.5t-43.5 6.5t-45.5 -6.5t-32.5 -20.5q-14 -13 -22 -33.5t-12 -48.5l-11 -63q-5 -31 -2.5 -53t11.5 -36
q10 -15 27.5 -22.5t44.5 -7.5z" />
    <glyph glyph-name="Delta#1" unicode="&#x2206;" horiz-adv-x="688" 
d="M38 0v111l213 689h190l209 -689v-111h-612zM512 111l-171 583l-178 -583h349z" />
    <glyph glyph-name="product" unicode="&#x220f;" 
d="M102 -200v1000h558v-1000h-140v889h-277v-889h-141z" />
    <glyph glyph-name="summation" unicode="&#x2211;" horiz-adv-x="680" 
d="M595 -89v-111h-516v111l322 400l-322 378v111h516v-111h-378l280 -327v-92l-287 -359h385z" />
    <glyph glyph-name="minus" unicode="&#x2212;" horiz-adv-x="771" 
d="M93 290v120h585v-120h-585z" />
    <glyph glyph-name="radical" unicode="&#x221a;" horiz-adv-x="680" 
d="M301 0l-130 384l-109 -20v106l186 30l122 -396l145 796h127l-179 -900h-162z" />
    <glyph glyph-name="infinity" unicode="&#x221e;" horiz-adv-x="855" 
d="M254 110q-37 0 -69 19.5t-57 57.5q-24 37 -38 91.5t-14 121.5q0 68 14.5 122t40.5 92q27 37 61.5 56.5t74.5 19.5q33 0 60 -12t48 -34t38 -52.5t31 -69.5q16 40 32.5 70t35.5 52t42.5 34t50.5 12q35 0 67 -19.5t56 -57.5q24 -37 37.5 -91t13.5 -121q0 -68 -14.5 -122.5
t-41.5 -92.5q-26 -37 -62 -56.5t-77 -19.5q-32 0 -58 11.5t-47 33.5t-37.5 52t-30.5 69q-15 -39 -31.5 -69t-35.5 -52t-41.5 -33.5t-48.5 -11.5zM587 219q16 0 29.5 10t23.5 32q10 21 15.5 56t5.5 83q-1 49 -6.5 84t-15.5 56t-23 31t-29 10q-17 0 -32.5 -11.5t-28.5 -31.5
q-13 -21 -25 -47.5t-25 -61.5q16 -59 26.5 -93.5t22.5 -61.5q12 -26 27 -40.5t35 -14.5zM268 219q17 0 32.5 11.5t28.5 31.5t24.5 46t24.5 61q-16 60 -26.5 94.5t-22.5 61.5t-27 41.5t-34 14.5q-16 0 -29.5 -10t-23.5 -32q-10 -21 -15.5 -56t-5.5 -83q1 -49 6.5 -84
t15.5 -56t23 -31t29 -10z" />
    <glyph glyph-name="orthogonal" unicode="&#x221f;" horiz-adv-x="696" 
d="M103 0v700h140v-586h373v-114h-513z" />
    <glyph glyph-name="intersection" unicode="&#x2229;" horiz-adv-x="847" 
d="M157 0v445q0 65 19 115t54 83q36 33 85 50t110 17q60 0 109.5 -17t84.5 -50t54 -83t19 -115v-445h-141v440q0 42 -7 72t-22 49q-16 19 -40 28.5t-58 9.5t-58 -9.5t-40 -28.5q-15 -20 -22 -50t-7 -72v-439h-140z" />
    <glyph glyph-name="integral" unicode="&#x222b;" horiz-adv-x="680" 
d="M210 -206q-15 0 -30.5 1.5t-31.5 4.5q-15 3 -29.5 7.5t-28.5 10.5l17 100q12 -5 23.5 -9t22.5 -6q11 -3 21 -4t19 -1q21 0 35.5 7.5t23.5 22.5q10 15 14 39t4 59v585q0 49 14.5 88.5t41.5 65.5q27 27 63.5 41t80.5 14q16 0 31.5 -1.5t30.5 -4.5q16 -3 30.5 -7.5
t28.5 -10.5l-17 -99q-12 5 -23.5 8.5t-22.5 5.5q-10 3 -20.5 4t-19.5 1q-21 0 -35.5 -7.5t-23.5 -22.5q-10 -15 -14 -39t-4 -59v-584q0 -49 -14.5 -88.5t-41.5 -66.5t-64 -41t-81 -14z" />
    <glyph glyph-name="approxequal" unicode="&#x2248;" horiz-adv-x="771" 
d="M519 387q-28 0 -50.5 6.5t-40.5 20.5q-19 13 -35.5 34t-33.5 51q-20 36 -33 56.5t-25 32.5q-11 13 -23.5 18t-28.5 5q-15 0 -26.5 -6.5t-19.5 -20.5t-12.5 -36.5t-4.5 -54.5v-86h-110v92q0 53 12.5 94.5t35.5 69.5t56 42.5t73 14.5q28 0 50.5 -6.5t41.5 -19.5
q18 -14 34.5 -34.5t33.5 -50.5q20 -36 33 -57t25 -33q11 -12 23.5 -17.5t28.5 -5.5q15 0 26.5 6.5t19.5 20.5t12.5 37t4.5 55v85h109v-92q0 -53 -12.5 -94.5t-35.5 -69.5t-55.5 -42.5t-72.5 -14.5zM517 -13q-27 0 -49.5 6.5t-40.5 20.5q-19 13 -35 34t-33 51
q-20 36 -33 56.5t-24 33.5q-12 12 -24.5 17t-28.5 5q-15 0 -26.5 -6.5t-19.5 -20.5t-12.5 -36.5t-4.5 -54.5v-86h-110v92q0 53 12.5 94.5t35.5 69.5t56 42.5t73 14.5q28 0 50.5 -6.5t41.5 -19.5q18 -14 34.5 -34.5t33.5 -50.5q20 -36 33 -57t25 -33q11 -12 23.5 -17.5
t28.5 -5.5q15 0 26.5 6.5t19.5 20.5t12.5 37t4.5 55v85h109v-92q0 -53 -12.5 -94.5t-35.5 -69.5t-56 -42.5t-74 -14.5z" />
    <glyph glyph-name="notequal" unicode="&#x2260;" horiz-adv-x="771" 
d="M678 182h-285l-38 -182h-106l38 182h-194v117h219l42 203h-261v116h285l38 182h106l-38 -182h194v-116h-218l-42 -203h260v-117z" />
    <glyph glyph-name="equivalence" unicode="&#x2261;" horiz-adv-x="771" 
d="M93 508v120h585v-120h-585zM93 287v119h585v-119h-585zM93 65v120h585v-120h-585z" />
    <glyph glyph-name="lessequal" unicode="&#x2264;" horiz-adv-x="771" 
d="M636 200l-501 232v136l501 232v-116l-393 -184l393 -184v-116zM135 0v106h501v-106h-501z" />
    <glyph glyph-name="greaterequal" unicode="&#x2265;" horiz-adv-x="771" 
d="M135 200v116l394 184l-394 184v116l501 -232v-136zM636 0h-501v106h501v-106z" />
    <glyph glyph-name="logicalnotreversed" unicode="&#x2310;" horiz-adv-x="771" 
d="M93 0v410h585v-119h-467v-291h-118z" />
    <glyph glyph-name="integralbt" unicode="&#x2321;" horiz-adv-x="604" 
d="M201 -206q-14 0 -29.5 1.5t-31.5 4.5t-31 7.5t-29 10.5l17 100q12 -5 23.5 -9t22.5 -6q11 -3 21 -4t19 -1q21 0 35 7.5t24 23.5q9 16 13.5 41.5t4.5 62.5v767h141v-790q0 -51 -15 -91.5t-42 -67.5q-27 -28 -63.5 -42.5t-79.5 -14.5z" />
    <glyph glyph-name="uni23af" unicode="&#x23af;" horiz-adv-x="849" 
d="M-145 333v134h1139v-134h-1139z" />
    <glyph glyph-name="lighthorzbxd" unicode="&#x2500;" horiz-adv-x="1100" 
d="M-20 350h1140v-100h-1140v100z" />
    <glyph glyph-name="heavyhorzbxd" unicode="&#x2501;" horiz-adv-x="1100" 
d="M-20 400h1140v-200h-1140v200z" />
    <glyph glyph-name="lightvertbxd" unicode="&#x2502;" horiz-adv-x="1100" 
d="M500 1050h100v-1500h-100v1500z" />
    <glyph glyph-name="heavyvertbxd" unicode="&#x2503;" horiz-adv-x="1100" 
d="M450 1050h200v-1500h-200v1500z" />
    <glyph glyph-name="lighttrpldashhorzbxd" unicode="&#x2504;" horiz-adv-x="1100" 
d="M61 350h244v-100h-244v100zM427 350h244v-100h-244v100zM793 350h244v-100h-244v100z" />
    <glyph glyph-name="heavytrpldashhorzbxd" unicode="&#x2505;" horiz-adv-x="1100" 
d="M61 400h244v-200h-244v200zM427 400h244v-200h-244v200zM793 400h244v-200h-244v200z" />
    <glyph glyph-name="lighttrpldashvertbxd" unicode="&#x2506;" horiz-adv-x="1100" 
d="M500 55h100v-244h-100v244zM500 421h100v-244h-100v244zM500 787h100v-244h-100v244zM500 1153h100v-244h-100v244z" />
    <glyph glyph-name="heavytrpldashvertbxd" unicode="&#x2507;" horiz-adv-x="1100" 
d="M450 55h200v-244h-200v244zM450 421h200v-244h-200v244zM450 787h200v-244h-200v244zM450 1153h200v-244h-200v244z" />
    <glyph glyph-name="lightquaddashhorzbxd" unicode="&#x2508;" horiz-adv-x="1100" 
d="M34 350h207v-100h-207v100zM309 350h207v-100h-207v100zM584 350h207v-100h-207v100zM859 350h207v-100h-207v100z" />
    <glyph glyph-name="heavyquaddashhorzbxd" unicode="&#x2509;" horiz-adv-x="1100" 
d="M34 400h207v-200h-207v200zM309 400h207v-200h-207v200zM584 400h207v-200h-207v200zM859 400h207v-200h-207v200z" />
    <glyph glyph-name="lightquaddashvertbxd" unicode="&#x250a;" horiz-adv-x="1100" 
d="M500 -9h100v-207h-100v207zM500 266h100v-207h-100v207zM500 541h100v-207h-100v207zM500 816h100v-207h-100v207z" />
    <glyph glyph-name="heavyquaddashvertbxd" unicode="&#x250b;" horiz-adv-x="1100" 
d="M450 -9h200v-207h-200v207zM450 266h200v-207h-200v207zM450 541h200v-207h-200v207zM450 816h200v-207h-200v207z" />
    <glyph glyph-name="lightdnrightbxd" unicode="&#x250c;" horiz-adv-x="1100" 
d="M500 350h620v-100h-520v-700h-100v800z" />
    <glyph glyph-name="dnlightrightheavybxd" unicode="&#x250d;" horiz-adv-x="1100" 
d="M500 400h620v-200h-520v-650h-100v850z" />
    <glyph glyph-name="dnheavyrightlightbxd" unicode="&#x250e;" horiz-adv-x="1100" 
d="M450 350h670v-100h-470v-700h-200v800z" />
    <glyph glyph-name="heavydnrightbxd" unicode="&#x250f;" horiz-adv-x="1100" 
d="M450 400h670v-200h-470v-650h-200v850z" />
    <glyph glyph-name="lightdnleftbxd" unicode="&#x2510;" horiz-adv-x="1100" 
d="M-20 350h620v-800h-100v700h-520v100z" />
    <glyph glyph-name="dnlightleftheavybxd" unicode="&#x2511;" horiz-adv-x="1100" 
d="M-20 400h620v-850h-100v650h-520v200z" />
    <glyph glyph-name="dnheavyleftlightbxd" unicode="&#x2512;" horiz-adv-x="1100" 
d="M-20 350h670v-800h-200v700h-470v100z" />
    <glyph glyph-name="heavydnleftbxd" unicode="&#x2513;" horiz-adv-x="1100" 
d="M-20 400h670v-850h-200v650h-470v200z" />
    <glyph glyph-name="lightuprightbxd" unicode="&#x2514;" horiz-adv-x="1100" 
d="M500 1050h100v-700h520v-100h-620v800z" />
    <glyph glyph-name="uplightrightheavybxd" unicode="&#x2515;" horiz-adv-x="1100" 
d="M500 1050h100v-650h520v-200h-620v850z" />
    <glyph glyph-name="upheavyrightlightbxd" unicode="&#x2516;" horiz-adv-x="1100" 
d="M450 1050h200v-700h470v-100h-670v800z" />
    <glyph glyph-name="heavyuprightbxd" unicode="&#x2517;" horiz-adv-x="1100" 
d="M450 1050h200v-650h470v-200h-670v850z" />
    <glyph glyph-name="lightupleftbxd" unicode="&#x2518;" horiz-adv-x="1100" 
d="M-20 350h520v700h100v-800h-620v100z" />
    <glyph glyph-name="uplightleftheavybxd" unicode="&#x2519;" horiz-adv-x="1100" 
d="M-20 400h520v650h100v-850h-620v200z" />
    <glyph glyph-name="upheavyleftlightbxd" unicode="&#x251a;" horiz-adv-x="1100" 
d="M-20 350h470v700h200v-800h-670v100z" />
    <glyph glyph-name="heavyupleftbxd" unicode="&#x251b;" horiz-adv-x="1100" 
d="M-20 400h470v650h200v-850h-670v200z" />
    <glyph glyph-name="lightvertrightbxd" unicode="&#x251c;" horiz-adv-x="1100" 
d="M500 1050h100v-700h520v-100h-520v-700h-100v1500z" />
    <glyph glyph-name="vertlightrightheavybxd" unicode="&#x251d;" horiz-adv-x="1100" 
d="M500 1050h100v-650h520v-200h-520v-650h-100v1500z" />
    <glyph glyph-name="upheavyrightdnlightbxd" unicode="&#x251e;" horiz-adv-x="1100" 
d="M450 1050h200v-700h470v-100h-520v-700h-100v700h-50v800z" />
    <glyph glyph-name="dnheavyrightuplightbxd" unicode="&#x251f;" horiz-adv-x="1100" 
d="M450 350h50v700h100v-700h520v-100h-470v-700h-200v800z" />
    <glyph glyph-name="vertheavyrightlightbxd" unicode="&#x2520;" horiz-adv-x="1100" 
d="M450 1050h200v-700h470v-100h-470v-700h-200v1500z" />
    <glyph glyph-name="dnlightrightupheavybxd" unicode="&#x2521;" horiz-adv-x="1100" 
d="M450 1050h200v-650h470v-200h-520v-650h-100v650h-50v850z" />
    <glyph glyph-name="uplightrightdnheavybxd" unicode="&#x2522;" horiz-adv-x="1100" 
d="M450 400h50v650h100v-650h520v-200h-470v-650h-200v850z" />
    <glyph glyph-name="heavyvertrightbxd" unicode="&#x2523;" horiz-adv-x="1100" 
d="M450 1050h200v-650h470v-200h-470v-650h-200v1500z" />
    <glyph glyph-name="lightvertleftbxd" unicode="&#x2524;" horiz-adv-x="1100" 
d="M-20 350h520v700h100v-1500h-100v700h-520v100z" />
    <glyph glyph-name="vertlightleftheavybxd" unicode="&#x2525;" horiz-adv-x="1100" 
d="M-20 400h520v650h100v-1500h-100v650h-520v200z" />
    <glyph glyph-name="upheavyleftdnlightbxd" unicode="&#x2526;" horiz-adv-x="1100" 
d="M-20 350h470v700h200v-800h-50v-700h-100v700h-520v100z" />
    <glyph glyph-name="dnheavyleftuplightbxd" unicode="&#x2527;" horiz-adv-x="1100" 
d="M-20 350h520v700h100v-700h50v-800h-200v700h-470v100z" />
    <glyph glyph-name="vertheavyleftlightbxd" unicode="&#x2528;" horiz-adv-x="1100" 
d="M-20 350h470v700h200v-1500h-200v700h-470v100z" />
    <glyph glyph-name="dnlightleftupheavybxd" unicode="&#x2529;" horiz-adv-x="1100" 
d="M-20 400h470v650h200v-850h-50v-650h-100v650h-520v200z" />
    <glyph glyph-name="uplightleftdnheavybxd" unicode="&#x252a;" horiz-adv-x="1100" 
d="M-20 400h520v650h100v-650h50v-850h-200v650h-470v200z" />
    <glyph glyph-name="heavyvertleftbxd" unicode="&#x252b;" horiz-adv-x="1100" 
d="M-20 400h470v650h200v-1500h-200v650h-470v200z" />
    <glyph glyph-name="lightdnhorzbxd" unicode="&#x252c;" horiz-adv-x="1100" 
d="M-20 350h1140v-100h-520v-700h-100v700h-520v100z" />
    <glyph glyph-name="leftheavyrightdnlightbxd" unicode="&#x252d;" horiz-adv-x="1100" 
d="M-20 400h620v-50h520v-100h-520v-700h-100v650h-520v200z" />
    <glyph glyph-name="rightheavyleftdnlightbxd" unicode="&#x252e;" horiz-adv-x="1100" 
d="M-20 350h520v50h620v-200h-520v-650h-100v700h-520v100z" />
    <glyph glyph-name="dnlighthorzheavybxd" unicode="&#x252f;" horiz-adv-x="1100" 
d="M-20 400h1140v-200h-520v-650h-100v650h-520v200z" />
    <glyph glyph-name="dnheavyhorzlightbxd" unicode="&#x2530;" horiz-adv-x="1100" 
d="M-20 350h1140v-100h-470v-700h-200v700h-470v100z" />
    <glyph glyph-name="rightlightleftdnheavybxd" unicode="&#x2531;" horiz-adv-x="1100" 
d="M-20 400h670v-50h470v-100h-470v-700h-200v650h-470v200z" />
    <glyph glyph-name="leftlightrightdnheavybxd" unicode="&#x2532;" horiz-adv-x="1100" 
d="M-20 350h470v50h670v-200h-470v-650h-200v700h-470v100z" />
    <glyph glyph-name="heavydnhorzbxd" unicode="&#x2533;" horiz-adv-x="1100" 
d="M-20 400h1140v-200h-470v-650h-200v650h-470v200z" />
    <glyph glyph-name="lightuphorzbxd" unicode="&#x2534;" horiz-adv-x="1100" 
d="M-20 350h520v700h100v-700h520v-100h-1140v100z" />
    <glyph glyph-name="leftheavyrightuplightbxd" unicode="&#x2535;" horiz-adv-x="1100" 
d="M-20 400h520v650h100v-700h520v-100h-520v-50h-620v200z" />
    <glyph glyph-name="rightheavyleftuplightbxd" unicode="&#x2536;" horiz-adv-x="1100" 
d="M-20 350h520v700h100v-650h520v-200h-620v50h-520v100z" />
    <glyph glyph-name="uplighthorzheavybxd" unicode="&#x2537;" horiz-adv-x="1100" 
d="M-20 400h520v650h100v-650h520v-200h-1140v200z" />
    <glyph glyph-name="upheavyhorzlightbxd" unicode="&#x2538;" horiz-adv-x="1100" 
d="M-20 350h470v700h200v-700h470v-100h-1140v100z" />
    <glyph glyph-name="rightlightleftupheavybxd" unicode="&#x2539;" horiz-adv-x="1100" 
d="M-20 400h470v650h200v-700h470v-100h-470v-50h-670v200z" />
    <glyph glyph-name="leftlightrightupheavybxd" unicode="&#x253a;" horiz-adv-x="1100" 
d="M-20 350h470v700h200v-650h470v-200h-670v50h-470v100z" />
    <glyph glyph-name="heavyuphorzbxd" unicode="&#x253b;" horiz-adv-x="1100" 
d="M-20 400h470v650h200v-650h470v-200h-1140v200z" />
    <glyph glyph-name="lightverthorzbxd" unicode="&#x253c;" horiz-adv-x="1100" 
d="M-20 350h520v700h100v-700h520v-100h-520v-700h-100v700h-520v100z" />
    <glyph glyph-name="leftheavyrightvertlightbxd" unicode="&#x253d;" horiz-adv-x="1100" 
d="M-20 400h520v650h100v-700h520v-100h-520v-700h-100v650h-520v200z" />
    <glyph glyph-name="rightheavyleftvertlightbxd" unicode="&#x253e;" horiz-adv-x="1100" 
d="M-20 350h520v700h100v-650h520v-200h-520v-650h-100v700h-520v100z" />
    <glyph glyph-name="vertlighthorzheavybxd" unicode="&#x253f;" horiz-adv-x="1100" 
d="M-20 400h520v650h100v-650h520v-200h-520v-650h-100v650h-520v200z" />
    <glyph glyph-name="upheavydnhorzlightbxd" unicode="&#x2540;" horiz-adv-x="1100" 
d="M-20 350h470v700h200v-700h470v-100h-520v-700h-100v700h-520v100z" />
    <glyph glyph-name="dnheavyuphorzlightbxd" unicode="&#x2541;" horiz-adv-x="1100" 
d="M-20 350h520v700h100v-700h520v-100h-470v-700h-200v700h-470v100z" />
    <glyph glyph-name="vertheavyhorzlightbxd" unicode="&#x2542;" horiz-adv-x="1100" 
d="M-20 350h470v700h200v-700h470v-100h-470v-700h-200v700h-470v100z" />
    <glyph glyph-name="leftupheavyrightdnlightbxd" unicode="&#x2543;" horiz-adv-x="1100" 
d="M-20 400h470v650h200v-700h470v-100h-470v-50h-50v-650h-100v650h-520v200z" />
    <glyph glyph-name="rightupheavyleftdnlightbxd" unicode="&#x2544;" horiz-adv-x="1100" 
d="M-20 350h470v700h200v-650h470v-200h-520v-650h-100v650h-50v50h-470v100z" />
    <glyph glyph-name="leftdnheavyrightuplightbxd" unicode="&#x2545;" horiz-adv-x="1100" 
d="M-20 400h520v650h100v-650h50v-50h470v-100h-470v-700h-200v650h-470v200z" />
    <glyph glyph-name="rightdnheavyleftuplightbxd" unicode="&#x2546;" horiz-adv-x="1100" 
d="M-20 350h470v50h50v650h100v-650h520v-200h-470v-650h-200v700h-470v100z" />
    <glyph glyph-name="dnlightuphorzheavybxd" unicode="&#x2547;" horiz-adv-x="1100" 
d="M-20 400h470v650h200v-650h470v-200h-520v-650h-100v650h-520v200z" />
    <glyph glyph-name="uplightdnhorzheavybxd" unicode="&#x2548;" horiz-adv-x="1100" 
d="M-20 400h520v650h100v-650h520v-200h-470v-650h-200v650h-470v200z" />
    <glyph glyph-name="rightlightleftvertheavybxd" unicode="&#x2549;" horiz-adv-x="1100" 
d="M-20 400h470v650h200v-700h470v-100h-470v-700h-200v650h-470v200z" />
    <glyph glyph-name="leftlightrightvertheavybxd" unicode="&#x254a;" horiz-adv-x="1100" 
d="M-20 350h470v700h200v-650h470v-200h-470v-650h-200v700h-470v100z" />
    <glyph glyph-name="heavyverthorzbxd" unicode="&#x254b;" horiz-adv-x="1100" 
d="M-20 400h470v650h200v-650h470v-200h-470v-650h-200v650h-470v200z" />
    <glyph glyph-name="lightdbldashhorzbxd" unicode="&#x254c;" horiz-adv-x="1100" 
d="M137 350h275v-100h-275v100zM687 350h275v-100h-275v100z" />
    <glyph glyph-name="heavydbldashhorzbxd" unicode="&#x254d;" horiz-adv-x="1100" 
d="M137 400h275v-200h-275v200zM687 400h275v-200h-275v200z" />
    <glyph glyph-name="lightdbldashvertbxd" unicode="&#x254e;" horiz-adv-x="1100" 
d="M500 162h100v-275h-100v275zM500 712h100v-275h-100v275z" />
    <glyph glyph-name="heavydbldashvertbxd" unicode="&#x254f;" horiz-adv-x="1100" 
d="M450 162h200v-275h-200v275zM450 712h200v-275h-200v275z" />
    <glyph glyph-name="dblhorzbxd" unicode="&#x2550;" horiz-adv-x="1100" 
d="M-20 450h1140v-100h-1140v100zM-20 250h1140v-100h-1140v100z" />
    <glyph glyph-name="dblvertbxd" unicode="&#x2551;" horiz-adv-x="1100" 
d="M400 1050h100v-1500h-100v1500zM600 1050h100v-1500h-100v1500z" />
    <glyph glyph-name="dnsngrightdblbxd" unicode="&#x2552;" horiz-adv-x="1100" 
d="M500 450h620v-100h-520v-100h520v-100h-520v-600h-100v900z" />
    <glyph glyph-name="dndblrightsngbxd" unicode="&#x2553;" horiz-adv-x="1100" 
d="M400 350h720v-100h-420v-700h-100v700h-100v-700h-100v800z" />
    <glyph glyph-name="dbldnrightbxd" unicode="&#x2554;" horiz-adv-x="1100" 
d="M400 450h720v-100h-620v-800h-100v900zM600 250h520v-100h-420v-600h-100v700z" />
    <glyph glyph-name="dnsngleftdblbxd" unicode="&#x2555;" horiz-adv-x="1100" 
d="M-20 450h620v-900h-100v600h-520v100h520v100h-520v100z" />
    <glyph glyph-name="dndblleftsngbxd" unicode="&#x2556;" horiz-adv-x="1100" 
d="M-20 350h720v-800h-100v700h-100v-700h-100v700h-420v100z" />
    <glyph glyph-name="dbldnleftbxd" unicode="&#x2557;" horiz-adv-x="1100" 
d="M-20 450h720v-900h-100v800h-620v100zM-20 250h520v-700h-100v600h-420v100z" />
    <glyph glyph-name="upsngrightdblbxd" unicode="&#x2558;" horiz-adv-x="1100" 
d="M500 1050h100v-600h520v-100h-520v-100h520v-100h-620v900z" />
    <glyph glyph-name="updblrightsngbxd" unicode="&#x2559;" horiz-adv-x="1100" 
d="M400 1050h100v-700h100v700h100v-700h420v-100h-720v800z" />
    <glyph glyph-name="dbluprightbxd" unicode="&#x255a;" horiz-adv-x="1100" 
d="M400 1050h100v-800h620v-100h-720v900zM600 1050h100v-600h420v-100h-520v700z" />
    <glyph glyph-name="upsngleftdblbxd" unicode="&#x255b;" horiz-adv-x="1100" 
d="M-20 450h520v600h100v-900h-620v100h520v100h-520v100z" />
    <glyph glyph-name="updblleftsngbxd" unicode="&#x255c;" horiz-adv-x="1100" 
d="M-20 350h420v700h100v-700h100v700h100v-800h-720v100z" />
    <glyph glyph-name="dblupleftbxd" unicode="&#x255d;" horiz-adv-x="1100" 
d="M-20 250h620v800h100v-900h-720v100zM-20 450h420v600h100v-700h-520v100z" />
    <glyph glyph-name="vertsngrightdblbxd" unicode="&#x255e;" horiz-adv-x="1100" 
d="M500 1050h100v-600h520v-100h-520v-100h520v-100h-520v-600h-100v1500z" />
    <glyph glyph-name="vertdblrightsngbxd" unicode="&#x255f;" horiz-adv-x="1100" 
d="M600 1050h100v-700h420v-100h-420v-700h-100v1500zM400 1050h100v-1500h-100v1500z" />
    <glyph glyph-name="dblvertrightbxd" unicode="&#x2560;" horiz-adv-x="1100" 
d="M400 1050h100v-1500h-100v1500zM600 1050h100v-600h420v-100h-520v700zM600 250h520v-100h-420v-600h-100v700z" />
    <glyph glyph-name="vertsngleftdblbxd" unicode="&#x2561;" horiz-adv-x="1100" 
d="M-20 450h520v600h100v-1500h-100v600h-520v100h520v100h-520v100z" />
    <glyph glyph-name="vertdblleftsngbxd" unicode="&#x2562;" horiz-adv-x="1100" 
d="M-20 350h420v700h100v-1500h-100v700h-420v100zM600 1050h100v-1500h-100v1500z" />
    <glyph glyph-name="dblvertleftbxd" unicode="&#x2563;" horiz-adv-x="1100" 
d="M600 1050h100v-1500h-100v1500zM-20 250h520v-700h-100v600h-420v100zM-20 450h420v600h100v-700h-520v100z" />
    <glyph glyph-name="dnsnghorzdblbxd" unicode="&#x2564;" horiz-adv-x="1100" 
d="M-20 250h1140v-100h-520v-600h-100v600h-520v100zM-20 450h1140v-100h-1140v100z" />
    <glyph glyph-name="dndblhorzsngbxd" unicode="&#x2565;" horiz-adv-x="1100" 
d="M-20 350h1140v-100h-420v-700h-100v700h-100v-700h-100v700h-420v100z" />
    <glyph glyph-name="dbldnhorzbxd" unicode="&#x2566;" horiz-adv-x="1100" 
d="M-20 450h1140v-100h-1140v100zM600 250h520v-100h-420v-600h-100v700zM-20 250h520v-700h-100v600h-420v100z" />
    <glyph glyph-name="upsnghorzdblbxd" unicode="&#x2567;" horiz-adv-x="1100" 
d="M-20 450h520v600h100v-600h520v-100h-1140v100zM-20 250h1140v-100h-1140v100z" />
    <glyph glyph-name="updblhorzsngbxd" unicode="&#x2568;" horiz-adv-x="1100" 
d="M-20 350h420v700h100v-700h100v700h100v-700h420v-100h-1140v100z" />
    <glyph glyph-name="dbluphorzbxd" unicode="&#x2569;" horiz-adv-x="1100" 
d="M-20 250h1140v-100h-1140v100zM-20 450h420v600h100v-700h-520v100zM600 1050h100v-600h420v-100h-520v700z" />
    <glyph glyph-name="vertsnghorzdblbxd" unicode="&#x256a;" horiz-adv-x="1100" 
d="M-20 450h520v600h100v-600h520v-100h-520v-100h520v-100h-520v-600h-100v600h-520v100h520v100h-520v100z" />
    <glyph glyph-name="vertdblhorzsngbxd" unicode="&#x256b;" horiz-adv-x="1100" 
d="M-20 350h420v700h100v-700h100v700h100v-700h420v-100h-420v-700h-100v700h-100v-700h-100v700h-420v100z" />
    <glyph glyph-name="dblverthorzbxd" unicode="&#x256c;" horiz-adv-x="1100" 
d="M-20 450h420v600h100v-700h-520v100zM-20 250h520v-700h-100v600h-420v100zM600 1050h100v-600h420v-100h-520v700zM600 250h520v-100h-420v-600h-100v700z" />
    <glyph glyph-name="lightarcdnrightbxd" unicode="&#x256d;" horiz-adv-x="1100" 
d="M500 -250q0 124 47 233.5t128.5 191t191 128.5t233.5 47h20v-100h-20q-69 0 -133 -18t-119.5 -50.5t-101 -78t-78 -101t-50.5 -119.5t-18 -133v-200h-100v200z" />
    <glyph glyph-name="lightarcdnleftbxd" unicode="&#x256e;" horiz-adv-x="1100" 
d="M600 -450h-100v200q0 103 -39.5 194.5t-107 159t-159 107t-194.5 39.5h-20v100h20q124 0 233.5 -47t191 -128.5t128.5 -191t47 -233.5v-200z" />
    <glyph glyph-name="lightarcupleftbxd" unicode="&#x256f;" horiz-adv-x="1100" 
d="M600 850q0 -124 -47 -233.5t-128.5 -191t-191 -128.5t-233.5 -47h-20v100h20q69 0 133 18t119.5 50.5t101 78t78 101t50.5 119.5t18 133v200h100v-200z" />
    <glyph glyph-name="lightarcuprightbxd" unicode="&#x2570;" horiz-adv-x="1100" 
d="M500 1050h100v-200q0 -69 18 -133t50.5 -119.5t78 -101t101 -78t119.5 -50.5t133 -18h20v-100h-20q-124 0 -233.5 47t-191 128.5t-128.5 191t-47 233.5v200z" />
    <glyph glyph-name="lightdiaguprightdnleftbxd" unicode="&#x2571;" horiz-adv-x="1100" 
d="M1029 850h71v-71l-1029 -1029h-71v71z" />
    <glyph glyph-name="lightdiagupleftdnrightbxd" unicode="&#x2572;" horiz-adv-x="1100" 
d="M1100 -179v-71h-71l-1029 1029v71h71z" />
    <glyph glyph-name="lightdiagcrossbxd" unicode="&#x2573;" horiz-adv-x="1100" 
d="M479 300l-479 479v71h71l479 -479l479 479h71v-71l-479 -479l479 -479v-71h-71l-479 479l-479 -479h-71v71z" />
    <glyph glyph-name="lightleftbxd" unicode="&#x2574;" horiz-adv-x="1100" 
d="M-20 350h620v-100h-620v100z" />
    <glyph glyph-name="lightupbxd" unicode="&#x2575;" horiz-adv-x="1100" 
d="M500 1050h100v-800h-100v800z" />
    <glyph glyph-name="lightrightbxd" unicode="&#x2576;" horiz-adv-x="1100" 
d="M500 350h620v-100h-620v100z" />
    <glyph glyph-name="lightdnbxd" unicode="&#x2577;" horiz-adv-x="1100" 
d="M500 350h100v-800h-100v800z" />
    <glyph glyph-name="heavyleftbxd" unicode="&#x2578;" horiz-adv-x="1100" 
d="M-20 400h620v-200h-620v200z" />
    <glyph glyph-name="heavyupbxd" unicode="&#x2579;" horiz-adv-x="1100" 
d="M450 1050h200v-800h-200v800z" />
    <glyph glyph-name="heavyrightbxd" unicode="&#x257a;" horiz-adv-x="1100" 
d="M500 400h620v-200h-620v200z" />
    </font>
</defs>
</svg>
